<?xml version="1.0"?>

<!DOCTYPE svg PUBLIC '-//W3C//DTD SVG 1.0//EN' 'http://www.w3.org/TR/2001/REC-SVG-20010904/DTD/svg10.dtd'>
<svg fill-opacity="1" xmlns:xlink="http://www.w3.org/1999/xlink" color-rendering="auto" color-interpolation="auto" text-rendering="auto" stroke="black" stroke-linecap="square" stroke-miterlimit="10" shape-rendering="auto" stroke-opacity="1" fill="black" stroke-dasharray="none" font-weight="normal" stroke-width="1" xmlns="http://www.w3.org/2000/svg" font-family="&apos;Dialog&apos;" font-style="normal" stroke-linejoin="miter" font-size="12" stroke-dashoffset="0" image-rendering="auto">
  <!--Unicode Character 'MATHEMATICAL ITALIC SMALL DELTA' (U+1D6FF)-->
  <defs id="genericDefs" />
  <g>
    <g>
      <path d="M75.375 365.625 Q61.0312 365.625 49.7109 360.4922 Q38.3906 355.3594 33.3281 346.7812 Q28.2656 338.2031 28.2656 326.1094 Q28.2656 320.9062 29.1094 315.5625 Q29.9531 310.2188 32.3438 303.1875 Q37.9688 286.875 55.125 270.7031 Q72.2812 254.5312 94.2188 246.9375 Q83.1094 238.5 80.2969 227.8125 Q77.4844 217.125 80.8594 207 Q86.625 190.125 103.7812 179.4375 Q120.9375 168.75 142.875 168.75 Q151.3125 168.75 159.3984 171.4219 Q167.4844 174.0938 172.4062 179.2969 Q177.3281 184.5 178.5938 195.1875 Q178.1719 197.7188 177.8906 199.125 Q176.9062 202.0781 174.0938 204.3281 Q171.5625 205.875 170.0156 205.875 Q169.0312 205.875 168.3984 205.2422 Q167.7656 204.6094 167.625 203.3438 Q165.375 196.875 160.6641 192.375 Q155.9531 187.875 149.4141 185.625 Q142.875 183.375 137.8125 183.375 Q125.4375 183.375 115.875 190.8281 Q106.3125 198.2812 103.3594 207 Q101.3906 212.625 102.7969 220.2188 Q104.2031 227.8125 110.3906 234.2812 Q116.5781 240.75 129.5156 246.6562 Q143.1562 252.8438 151.7344 261.1406 Q160.3125 269.4375 162.4922 280.4062 Q164.6719 291.375 159.3281 307.125 Q152.5781 326.8125 141.0469 338.9062 Q129.5156 351 111.7266 358.3125 Q93.9375 365.625 75.375 365.625 ZM80.2969 351 Q92.1094 351 102.2344 346.0781 Q112.3594 341.1562 119.6016 332.2969 Q126.8438 323.4375 132.3281 307.125 Q138.2344 289.6875 131.2031 278.5781 Q124.1719 267.4688 105.4688 257.0625 Q85.7812 265.5 74.5312 278.7188 Q63.2812 291.9375 59.3438 303.1875 Q54.7031 316.9688 55.2656 328.2188 Q55.8281 339.4688 62.4375 345.2344 Q69.0469 351 80.2969 351 Z" stroke="none" />
    </g>
  </g>
</svg>
