G04 Layer_Color=32896*
%FSAX25Y25*%
%MOIN*%
G70*
G01*
G75*
%ADD54C,0.01000*%
%ADD56C,0.01500*%
%ADD58C,0.00800*%
%ADD176C,0.00100*%
G54D54*
X0801862Y0908011D02*
Y0902013D01*
X0804861D01*
X0805861Y0903013D01*
Y0904013D01*
X0804861Y0905012D01*
X0801862D01*
X0804861D01*
X0805861Y0906012D01*
Y0907012D01*
X0804861Y0908011D01*
X0801862D01*
X0808860Y0902013D02*
X0810859D01*
X0811859Y0903013D01*
Y0905012D01*
X0810859Y0906012D01*
X0808860D01*
X0807860Y0905012D01*
Y0903013D01*
X0808860Y0902013D01*
X0814858Y0906012D02*
X0816857D01*
X0817857Y0905012D01*
Y0902013D01*
X0814858D01*
X0813858Y0903013D01*
X0814858Y0904013D01*
X0817857D01*
X0819856Y0906012D02*
Y0902013D01*
Y0904013D01*
X0820856Y0905012D01*
X0821856Y0906012D01*
X0822855D01*
X0829853Y0908011D02*
Y0902013D01*
X0826854D01*
X0825854Y0903013D01*
Y0905012D01*
X0826854Y0906012D01*
X0829853D01*
X0837850Y0908011D02*
Y0902013D01*
X0841849D01*
X0844848Y0906012D02*
X0846848D01*
X0847847Y0905012D01*
Y0902013D01*
X0844848D01*
X0843849Y0903013D01*
X0844848Y0904013D01*
X0847847D01*
X0849846Y0906012D02*
Y0903013D01*
X0850846Y0902013D01*
X0853845D01*
Y0901013D01*
X0852846Y0900014D01*
X0851846D01*
X0853845Y0902013D02*
Y0906012D01*
X0858844Y0902013D02*
X0856844D01*
X0855845Y0903013D01*
Y0905012D01*
X0856844Y0906012D01*
X0858844D01*
X0859843Y0905012D01*
Y0904013D01*
X0855845D01*
X0861843Y0906012D02*
Y0902013D01*
Y0904013D01*
X0862842Y0905012D01*
X0863842Y0906012D01*
X0864842D01*
X0877837Y0907012D02*
X0876838Y0908011D01*
X0874838D01*
X0873839Y0907012D01*
Y0906012D01*
X0874838Y0905012D01*
X0876838D01*
X0877837Y0904013D01*
Y0903013D01*
X0876838Y0902013D01*
X0874838D01*
X0873839Y0903013D01*
X0880836Y0907012D02*
Y0906012D01*
X0879837D01*
X0881836D01*
X0880836D01*
Y0903013D01*
X0881836Y0902013D01*
X0885835Y0906012D02*
X0887834D01*
X0888834Y0905012D01*
Y0902013D01*
X0885835D01*
X0884835Y0903013D01*
X0885835Y0904013D01*
X0888834D01*
X0894832Y0906012D02*
X0891833D01*
X0890833Y0905012D01*
Y0903013D01*
X0891833Y0902013D01*
X0894832D01*
X0896831D02*
Y0908011D01*
Y0904013D02*
X0899830Y0906012D01*
X0896831Y0904013D02*
X0899830Y0902013D01*
X0744876Y0883012D02*
X0745876Y0884011D01*
X0747875D01*
X0748875Y0883012D01*
Y0882012D01*
X0747875Y0881012D01*
X0746875D01*
X0747875D01*
X0748875Y0880013D01*
Y0879013D01*
X0747875Y0878013D01*
X0745876D01*
X0744876Y0879013D01*
X0750874Y0878013D02*
Y0879013D01*
X0751874D01*
Y0878013D01*
X0750874D01*
X0759871Y0884011D02*
X0755872D01*
Y0881012D01*
X0757872Y0882012D01*
X0758871D01*
X0759871Y0881012D01*
Y0879013D01*
X0758871Y0878013D01*
X0756872D01*
X0755872Y0879013D01*
X0747875Y0854013D02*
Y0860011D01*
X0744876Y0857012D01*
X0748875D01*
X0750874Y0854013D02*
Y0855013D01*
X0751874D01*
Y0854013D01*
X0750874D01*
X0759871D02*
X0755872D01*
X0759871Y0858012D01*
Y0859012D01*
X0758871Y0860011D01*
X0756872D01*
X0755872Y0859012D01*
X0747875Y0830013D02*
Y0836011D01*
X0744876Y0833012D01*
X0748875D01*
X0750874Y0830013D02*
Y0831013D01*
X0751874D01*
Y0830013D01*
X0750874D01*
X0759871D02*
X0755872D01*
X0759871Y0834012D01*
Y0835012D01*
X0758871Y0836011D01*
X0756872D01*
X0755872Y0835012D01*
X0747875Y0806013D02*
Y0812011D01*
X0744876Y0809012D01*
X0748875D01*
X0750874Y0806013D02*
Y0807013D01*
X0751874D01*
Y0806013D01*
X0750874D01*
X0759871D02*
X0755872D01*
X0759871Y0810012D01*
Y0811012D01*
X0758871Y0812011D01*
X0756872D01*
X0755872Y0811012D01*
X0744876Y0787012D02*
X0745876Y0788011D01*
X0747875D01*
X0748875Y0787012D01*
Y0786012D01*
X0747875Y0785012D01*
X0746875D01*
X0747875D01*
X0748875Y0784013D01*
Y0783013D01*
X0747875Y0782013D01*
X0745876D01*
X0744876Y0783013D01*
X0750874Y0782013D02*
Y0783013D01*
X0751874D01*
Y0782013D01*
X0750874D01*
X0759871Y0788011D02*
X0755872D01*
Y0785012D01*
X0757872Y0786012D01*
X0758871D01*
X0759871Y0785012D01*
Y0783013D01*
X0758871Y0782013D01*
X0756872D01*
X0755872Y0783013D01*
X0748875Y0907012D02*
X0747875Y0908011D01*
X0745876D01*
X0744876Y0907012D01*
Y0903013D01*
X0745876Y0902013D01*
X0747875D01*
X0748875Y0903013D01*
X0751874Y0902013D02*
X0753873D01*
X0754873Y0903013D01*
Y0905012D01*
X0753873Y0906012D01*
X0751874D01*
X0750874Y0905012D01*
Y0903013D01*
X0751874Y0902013D01*
X0756872D02*
Y0906012D01*
X0759871D01*
X0760871Y0905012D01*
Y0902013D01*
X0762870D02*
X0765869D01*
X0766869Y0903013D01*
X0765869Y0904013D01*
X0763870D01*
X0762870Y0905012D01*
X0763870Y0906012D01*
X0766869D01*
X0769868Y0907012D02*
Y0906012D01*
X0768868D01*
X0770867D01*
X0769868D01*
Y0903013D01*
X0770867Y0902013D01*
X0774866Y0906012D02*
X0776866D01*
X0777865Y0905012D01*
Y0902013D01*
X0774866D01*
X0773867Y0903013D01*
X0774866Y0904013D01*
X0777865D01*
X0779865Y0902013D02*
Y0906012D01*
X0782864D01*
X0783863Y0905012D01*
Y0902013D01*
X0786862Y0907012D02*
Y0906012D01*
X0785863D01*
X0787862D01*
X0786862D01*
Y0903013D01*
X0787862Y0902013D01*
X0679892Y0883012D02*
X0680892Y0884011D01*
X0682892D01*
X0683891Y0883012D01*
Y0879013D01*
X0682892Y0878013D01*
X0680892D01*
X0679892Y0879013D01*
Y0883012D01*
X0685890Y0878013D02*
Y0879013D01*
X0686890D01*
Y0878013D01*
X0685890D01*
X0693888D02*
Y0884011D01*
X0690889Y0881012D01*
X0694888D01*
X0696887Y0883012D02*
X0697887Y0884011D01*
X0699886D01*
X0700886Y0883012D01*
Y0879013D01*
X0699886Y0878013D01*
X0697887D01*
X0696887Y0879013D01*
Y0883012D01*
X0702885Y0878013D02*
Y0882012D01*
X0703885D01*
X0704884Y0881012D01*
Y0878013D01*
Y0881012D01*
X0705884Y0882012D01*
X0706884Y0881012D01*
Y0878013D01*
X0708883D02*
X0710882D01*
X0709883D01*
Y0882012D01*
X0708883D01*
X0713881Y0878013D02*
X0715881D01*
X0714881D01*
Y0884011D01*
X0713881D01*
X0679892Y0866013D02*
X0681892D01*
X0680892D01*
Y0872011D01*
X0679892Y0871012D01*
X0684891Y0866013D02*
Y0867013D01*
X0685890D01*
Y0866013D01*
X0684891D01*
X0692888D02*
Y0872011D01*
X0689889Y0869012D01*
X0693888D01*
X0695887Y0871012D02*
X0696887Y0872011D01*
X0698886D01*
X0699886Y0871012D01*
Y0867013D01*
X0698886Y0866013D01*
X0696887D01*
X0695887Y0867013D01*
Y0871012D01*
X0701885Y0866013D02*
Y0870012D01*
X0702885D01*
X0703885Y0869012D01*
Y0866013D01*
Y0869012D01*
X0704884Y0870012D01*
X0705884Y0869012D01*
Y0866013D01*
X0707883D02*
X0709883D01*
X0708883D01*
Y0870012D01*
X0707883D01*
X0712882Y0866013D02*
X0714881D01*
X0713881D01*
Y0872011D01*
X0712882D01*
X0679892Y0859012D02*
X0680892Y0860011D01*
X0682892D01*
X0683891Y0859012D01*
Y0858012D01*
X0682892Y0857012D01*
X0683891Y0856013D01*
Y0855013D01*
X0682892Y0854013D01*
X0680892D01*
X0679892Y0855013D01*
Y0856013D01*
X0680892Y0857012D01*
X0679892Y0858012D01*
Y0859012D01*
X0680892Y0857012D02*
X0682892D01*
X0685890Y0854013D02*
Y0855013D01*
X0686890D01*
Y0854013D01*
X0685890D01*
X0693888D02*
Y0860011D01*
X0690889Y0857012D01*
X0694888D01*
X0696887Y0859012D02*
X0697887Y0860011D01*
X0699886D01*
X0700886Y0859012D01*
Y0855013D01*
X0699886Y0854013D01*
X0697887D01*
X0696887Y0855013D01*
Y0859012D01*
X0702885Y0854013D02*
Y0858012D01*
X0703885D01*
X0704884Y0857012D01*
Y0854013D01*
Y0857012D01*
X0705884Y0858012D01*
X0706884Y0857012D01*
Y0854013D01*
X0708883D02*
X0710882D01*
X0709883D01*
Y0858012D01*
X0708883D01*
X0713881Y0854013D02*
X0715881D01*
X0714881D01*
Y0860011D01*
X0713881D01*
X0679892Y0842013D02*
X0681892D01*
X0680892D01*
Y0848011D01*
X0679892Y0847012D01*
X0684891Y0842013D02*
Y0843013D01*
X0685890D01*
Y0842013D01*
X0684891D01*
X0692888D02*
Y0848011D01*
X0689889Y0845012D01*
X0693888D01*
X0699886Y0842013D02*
X0695887D01*
X0699886Y0846012D01*
Y0847012D01*
X0698886Y0848011D01*
X0696887D01*
X0695887Y0847012D01*
X0701885Y0842013D02*
Y0846012D01*
X0702885D01*
X0703885Y0845012D01*
Y0842013D01*
Y0845012D01*
X0704884Y0846012D01*
X0705884Y0845012D01*
Y0842013D01*
X0707883D02*
X0709883D01*
X0708883D01*
Y0846012D01*
X0707883D01*
X0712882Y0842013D02*
X0714881D01*
X0713881D01*
Y0848011D01*
X0712882D01*
X0682892Y0830013D02*
Y0836011D01*
X0679892Y0833012D01*
X0683891D01*
X0685890Y0835012D02*
X0686890Y0836011D01*
X0688890D01*
X0689889Y0835012D01*
Y0831013D01*
X0688890Y0830013D01*
X0686890D01*
X0685890Y0831013D01*
Y0835012D01*
X0691889Y0830013D02*
Y0831013D01*
X0692888D01*
Y0830013D01*
X0691889D01*
X0696887Y0835012D02*
X0697887Y0836011D01*
X0699886D01*
X0700886Y0835012D01*
Y0831013D01*
X0699886Y0830013D01*
X0697887D01*
X0696887Y0831013D01*
Y0835012D01*
X0702885D02*
X0703885Y0836011D01*
X0705884D01*
X0706884Y0835012D01*
Y0831013D01*
X0705884Y0830013D01*
X0703885D01*
X0702885Y0831013D01*
Y0835012D01*
X0708883Y0830013D02*
Y0834012D01*
X0709883D01*
X0710882Y0833012D01*
Y0830013D01*
Y0833012D01*
X0711882Y0834012D01*
X0712882Y0833012D01*
Y0830013D01*
X0714881D02*
X0716881D01*
X0715881D01*
Y0834012D01*
X0714881D01*
X0719879Y0830013D02*
X0721879D01*
X0720879D01*
Y0836011D01*
X0719879D01*
X0679892Y0818013D02*
X0681892D01*
X0680892D01*
Y0824011D01*
X0679892Y0823012D01*
X0684891Y0818013D02*
Y0819013D01*
X0685890D01*
Y0818013D01*
X0684891D01*
X0692888D02*
Y0824011D01*
X0689889Y0821012D01*
X0693888D01*
X0699886Y0818013D02*
X0695887D01*
X0699886Y0822012D01*
Y0823012D01*
X0698886Y0824011D01*
X0696887D01*
X0695887Y0823012D01*
X0701885Y0818013D02*
Y0822012D01*
X0702885D01*
X0703885Y0821012D01*
Y0818013D01*
Y0821012D01*
X0704884Y0822012D01*
X0705884Y0821012D01*
Y0818013D01*
X0707883D02*
X0709883D01*
X0708883D01*
Y0822012D01*
X0707883D01*
X0712882Y0818013D02*
X0714881D01*
X0713881D01*
Y0824011D01*
X0712882D01*
X0679892Y0811012D02*
X0680892Y0812011D01*
X0682892D01*
X0683891Y0811012D01*
Y0810012D01*
X0682892Y0809012D01*
X0683891Y0808013D01*
Y0807013D01*
X0682892Y0806013D01*
X0680892D01*
X0679892Y0807013D01*
Y0808013D01*
X0680892Y0809012D01*
X0679892Y0810012D01*
Y0811012D01*
X0680892Y0809012D02*
X0682892D01*
X0685890Y0806013D02*
Y0807013D01*
X0686890D01*
Y0806013D01*
X0685890D01*
X0693888D02*
Y0812011D01*
X0690889Y0809012D01*
X0694888D01*
X0696887Y0811012D02*
X0697887Y0812011D01*
X0699886D01*
X0700886Y0811012D01*
Y0807013D01*
X0699886Y0806013D01*
X0697887D01*
X0696887Y0807013D01*
Y0811012D01*
X0702885Y0806013D02*
Y0810012D01*
X0703885D01*
X0704884Y0809012D01*
Y0806013D01*
Y0809012D01*
X0705884Y0810012D01*
X0706884Y0809012D01*
Y0806013D01*
X0708883D02*
X0710882D01*
X0709883D01*
Y0810012D01*
X0708883D01*
X0713881Y0806013D02*
X0715881D01*
X0714881D01*
Y0812011D01*
X0713881D01*
X0679892Y0794013D02*
X0681892D01*
X0680892D01*
Y0800011D01*
X0679892Y0799012D01*
X0684891Y0794013D02*
Y0795013D01*
X0685890D01*
Y0794013D01*
X0684891D01*
X0692888D02*
Y0800011D01*
X0689889Y0797012D01*
X0693888D01*
X0695887Y0799012D02*
X0696887Y0800011D01*
X0698886D01*
X0699886Y0799012D01*
Y0795013D01*
X0698886Y0794013D01*
X0696887D01*
X0695887Y0795013D01*
Y0799012D01*
X0701885Y0794013D02*
Y0798012D01*
X0702885D01*
X0703885Y0797012D01*
Y0794013D01*
Y0797012D01*
X0704884Y0798012D01*
X0705884Y0797012D01*
Y0794013D01*
X0707883D02*
X0709883D01*
X0708883D01*
Y0798012D01*
X0707883D01*
X0712882Y0794013D02*
X0714881D01*
X0713881D01*
Y0800011D01*
X0712882D01*
X0679892Y0787012D02*
X0680892Y0788011D01*
X0682892D01*
X0683891Y0787012D01*
Y0783013D01*
X0682892Y0782013D01*
X0680892D01*
X0679892Y0783013D01*
Y0787012D01*
X0685890Y0782013D02*
Y0783013D01*
X0686890D01*
Y0782013D01*
X0685890D01*
X0693888D02*
Y0788011D01*
X0690889Y0785012D01*
X0694888D01*
X0696887Y0787012D02*
X0697887Y0788011D01*
X0699886D01*
X0700886Y0787012D01*
Y0783013D01*
X0699886Y0782013D01*
X0697887D01*
X0696887Y0783013D01*
Y0787012D01*
X0702885Y0782013D02*
Y0786012D01*
X0703885D01*
X0704884Y0785012D01*
Y0782013D01*
Y0785012D01*
X0705884Y0786012D01*
X0706884Y0785012D01*
Y0782013D01*
X0708883D02*
X0710882D01*
X0709883D01*
Y0786012D01*
X0708883D01*
X0713881Y0782013D02*
X0715881D01*
X0714881D01*
Y0788011D01*
X0713881D01*
X0679892Y0908011D02*
X0683891D01*
X0681892D01*
Y0902013D01*
X0685890Y0908011D02*
Y0902013D01*
Y0905012D01*
X0686890Y0906012D01*
X0688890D01*
X0689889Y0905012D01*
Y0902013D01*
X0691889D02*
X0693888D01*
X0692888D01*
Y0906012D01*
X0691889D01*
X0700886D02*
X0697887D01*
X0696887Y0905012D01*
Y0903013D01*
X0697887Y0902013D01*
X0700886D01*
X0702885D02*
Y0908011D01*
Y0904013D02*
X0705884Y0906012D01*
X0702885Y0904013D02*
X0705884Y0902013D01*
X0708883D02*
Y0906012D01*
X0711882D01*
X0712882Y0905012D01*
Y0902013D01*
X0717880D02*
X0715881D01*
X0714881Y0903013D01*
Y0905012D01*
X0715881Y0906012D01*
X0717880D01*
X0718880Y0905012D01*
Y0904013D01*
X0714881D01*
X0720879Y0902013D02*
X0723878D01*
X0724878Y0903013D01*
X0723878Y0904013D01*
X0721879D01*
X0720879Y0905012D01*
X0721879Y0906012D01*
X0724878D01*
X0726877Y0902013D02*
X0729876D01*
X0730876Y0903013D01*
X0729876Y0904013D01*
X0727877D01*
X0726877Y0905012D01*
X0727877Y0906012D01*
X0730876D01*
X0597914Y0883012D02*
X0596915Y0884011D01*
X0594915D01*
X0593916Y0883012D01*
Y0882012D01*
X0594915Y0881012D01*
X0596915D01*
X0597914Y0880013D01*
Y0879013D01*
X0596915Y0878013D01*
X0594915D01*
X0593916Y0879013D01*
X0600913Y0878013D02*
X0602913D01*
X0603912Y0879013D01*
Y0881012D01*
X0602913Y0882012D01*
X0600913D01*
X0599914Y0881012D01*
Y0879013D01*
X0600913Y0878013D01*
X0605912D02*
X0607911D01*
X0606912D01*
Y0884011D01*
X0605912D01*
X0614909D02*
Y0878013D01*
X0611910D01*
X0610910Y0879013D01*
Y0881012D01*
X0611910Y0882012D01*
X0614909D01*
X0619907Y0878013D02*
X0617908D01*
X0616908Y0879013D01*
Y0881012D01*
X0617908Y0882012D01*
X0619907D01*
X0620907Y0881012D01*
Y0880013D01*
X0616908D01*
X0622906Y0882012D02*
Y0878013D01*
Y0880013D01*
X0623906Y0881012D01*
X0624906Y0882012D01*
X0625905D01*
X0634902Y0878013D02*
Y0884011D01*
X0637901D01*
X0638901Y0883012D01*
Y0881012D01*
X0637901Y0880013D01*
X0634902D01*
X0636902D02*
X0638901Y0878013D01*
X0643900D02*
X0641900D01*
X0640901Y0879013D01*
Y0881012D01*
X0641900Y0882012D01*
X0643900D01*
X0644899Y0881012D01*
Y0880013D01*
X0640901D01*
X0646899Y0878013D02*
X0649898D01*
X0650897Y0879013D01*
X0649898Y0880013D01*
X0647898D01*
X0646899Y0881012D01*
X0647898Y0882012D01*
X0650897D01*
X0652897Y0878013D02*
X0654896D01*
X0653896D01*
Y0882012D01*
X0652897D01*
X0657895Y0878013D02*
X0660894D01*
X0661894Y0879013D01*
X0660894Y0880013D01*
X0658895D01*
X0657895Y0881012D01*
X0658895Y0882012D01*
X0661894D01*
X0664893Y0883012D02*
Y0882012D01*
X0663893D01*
X0665892D01*
X0664893D01*
Y0879013D01*
X0665892Y0878013D01*
X0597914Y0871012D02*
X0596915Y0872011D01*
X0594915D01*
X0593916Y0871012D01*
Y0867013D01*
X0594915Y0866013D01*
X0596915D01*
X0597914Y0867013D01*
X0600913Y0866013D02*
X0602913D01*
X0603912Y0867013D01*
Y0869012D01*
X0602913Y0870012D01*
X0600913D01*
X0599914Y0869012D01*
Y0867013D01*
X0600913Y0866013D01*
X0605912Y0864014D02*
Y0870012D01*
X0608911D01*
X0609911Y0869012D01*
Y0867013D01*
X0608911Y0866013D01*
X0605912D01*
X0611910Y0864014D02*
Y0870012D01*
X0614909D01*
X0615909Y0869012D01*
Y0867013D01*
X0614909Y0866013D01*
X0611910D01*
X0620907D02*
X0618908D01*
X0617908Y0867013D01*
Y0869012D01*
X0618908Y0870012D01*
X0620907D01*
X0621907Y0869012D01*
Y0868013D01*
X0617908D01*
X0623906Y0870012D02*
Y0866013D01*
Y0868013D01*
X0624906Y0869012D01*
X0625905Y0870012D01*
X0626905D01*
X0597914Y0847012D02*
X0596915Y0848011D01*
X0594915D01*
X0593916Y0847012D01*
Y0843013D01*
X0594915Y0842013D01*
X0596915D01*
X0597914Y0843013D01*
X0600913Y0842013D02*
X0602913D01*
X0603912Y0843013D01*
Y0845012D01*
X0602913Y0846012D01*
X0600913D01*
X0599914Y0845012D01*
Y0843013D01*
X0600913Y0842013D01*
X0605912Y0840014D02*
Y0846012D01*
X0608911D01*
X0609911Y0845012D01*
Y0843013D01*
X0608911Y0842013D01*
X0605912D01*
X0611910Y0840014D02*
Y0846012D01*
X0614909D01*
X0615909Y0845012D01*
Y0843013D01*
X0614909Y0842013D01*
X0611910D01*
X0620907D02*
X0618908D01*
X0617908Y0843013D01*
Y0845012D01*
X0618908Y0846012D01*
X0620907D01*
X0621907Y0845012D01*
Y0844013D01*
X0617908D01*
X0623906Y0846012D02*
Y0842013D01*
Y0844013D01*
X0624906Y0845012D01*
X0625905Y0846012D01*
X0626905D01*
X0597914Y0836011D02*
X0593916D01*
Y0833012D01*
X0595915D01*
X0593916D01*
Y0830013D01*
X0599914D02*
Y0836011D01*
X0602913D01*
X0603912Y0835012D01*
Y0833012D01*
X0602913Y0832013D01*
X0599914D01*
X0601913D02*
X0603912Y0830013D01*
X0605912Y0833012D02*
X0609911D01*
X0614909Y0830013D02*
Y0836011D01*
X0611910Y0833012D01*
X0615909D01*
X0597914Y0823012D02*
X0596915Y0824011D01*
X0594915D01*
X0593916Y0823012D01*
Y0819013D01*
X0594915Y0818013D01*
X0596915D01*
X0597914Y0819013D01*
X0600913Y0818013D02*
X0602913D01*
X0603912Y0819013D01*
Y0821012D01*
X0602913Y0822012D01*
X0600913D01*
X0599914Y0821012D01*
Y0819013D01*
X0600913Y0818013D01*
X0605912Y0816014D02*
Y0822012D01*
X0608911D01*
X0609911Y0821012D01*
Y0819013D01*
X0608911Y0818013D01*
X0605912D01*
X0611910Y0816014D02*
Y0822012D01*
X0614909D01*
X0615909Y0821012D01*
Y0819013D01*
X0614909Y0818013D01*
X0611910D01*
X0620907D02*
X0618908D01*
X0617908Y0819013D01*
Y0821012D01*
X0618908Y0822012D01*
X0620907D01*
X0621907Y0821012D01*
Y0820013D01*
X0617908D01*
X0623906Y0822012D02*
Y0818013D01*
Y0820013D01*
X0624906Y0821012D01*
X0625905Y0822012D01*
X0626905D01*
X0597914Y0799012D02*
X0596915Y0800011D01*
X0594915D01*
X0593916Y0799012D01*
Y0795013D01*
X0594915Y0794013D01*
X0596915D01*
X0597914Y0795013D01*
X0600913Y0794013D02*
X0602913D01*
X0603912Y0795013D01*
Y0797012D01*
X0602913Y0798012D01*
X0600913D01*
X0599914Y0797012D01*
Y0795013D01*
X0600913Y0794013D01*
X0605912Y0792014D02*
Y0798012D01*
X0608911D01*
X0609911Y0797012D01*
Y0795013D01*
X0608911Y0794013D01*
X0605912D01*
X0611910Y0792014D02*
Y0798012D01*
X0614909D01*
X0615909Y0797012D01*
Y0795013D01*
X0614909Y0794013D01*
X0611910D01*
X0620907D02*
X0618908D01*
X0617908Y0795013D01*
Y0797012D01*
X0618908Y0798012D01*
X0620907D01*
X0621907Y0797012D01*
Y0796013D01*
X0617908D01*
X0623906Y0798012D02*
Y0794013D01*
Y0796013D01*
X0624906Y0797012D01*
X0625905Y0798012D01*
X0626905D01*
X0597914Y0787012D02*
X0596915Y0788011D01*
X0594915D01*
X0593916Y0787012D01*
Y0786012D01*
X0594915Y0785012D01*
X0596915D01*
X0597914Y0784013D01*
Y0783013D01*
X0596915Y0782013D01*
X0594915D01*
X0593916Y0783013D01*
X0600913Y0782013D02*
X0602913D01*
X0603912Y0783013D01*
Y0785012D01*
X0602913Y0786012D01*
X0600913D01*
X0599914Y0785012D01*
Y0783013D01*
X0600913Y0782013D01*
X0605912D02*
X0607911D01*
X0606912D01*
Y0788011D01*
X0605912D01*
X0614909D02*
Y0782013D01*
X0611910D01*
X0610910Y0783013D01*
Y0785012D01*
X0611910Y0786012D01*
X0614909D01*
X0619907Y0782013D02*
X0617908D01*
X0616908Y0783013D01*
Y0785012D01*
X0617908Y0786012D01*
X0619907D01*
X0620907Y0785012D01*
Y0784013D01*
X0616908D01*
X0622906Y0786012D02*
Y0782013D01*
Y0784013D01*
X0623906Y0785012D01*
X0624906Y0786012D01*
X0625905D01*
X0634902Y0782013D02*
Y0788011D01*
X0637901D01*
X0638901Y0787012D01*
Y0785012D01*
X0637901Y0784013D01*
X0634902D01*
X0636902D02*
X0638901Y0782013D01*
X0643900D02*
X0641900D01*
X0640901Y0783013D01*
Y0785012D01*
X0641900Y0786012D01*
X0643900D01*
X0644899Y0785012D01*
Y0784013D01*
X0640901D01*
X0646899Y0782013D02*
X0649898D01*
X0650897Y0783013D01*
X0649898Y0784013D01*
X0647898D01*
X0646899Y0785012D01*
X0647898Y0786012D01*
X0650897D01*
X0652897Y0782013D02*
X0654896D01*
X0653896D01*
Y0786012D01*
X0652897D01*
X0657895Y0782013D02*
X0660894D01*
X0661894Y0783013D01*
X0660894Y0784013D01*
X0658895D01*
X0657895Y0785012D01*
X0658895Y0786012D01*
X0661894D01*
X0664893Y0787012D02*
Y0786012D01*
X0663893D01*
X0665892D01*
X0664893D01*
Y0783013D01*
X0665892Y0782013D01*
X0593916Y0902013D02*
Y0908011D01*
X0595915Y0906012D01*
X0597914Y0908011D01*
Y0902013D01*
X0600913Y0906012D02*
X0602913D01*
X0603912Y0905012D01*
Y0902013D01*
X0600913D01*
X0599914Y0903013D01*
X0600913Y0904013D01*
X0603912D01*
X0606912Y0907012D02*
Y0906012D01*
X0605912D01*
X0607911D01*
X0606912D01*
Y0903013D01*
X0607911Y0902013D01*
X0613909D02*
X0611910D01*
X0610910Y0903013D01*
Y0905012D01*
X0611910Y0906012D01*
X0613909D01*
X0614909Y0905012D01*
Y0904013D01*
X0610910D01*
X0616908Y0906012D02*
Y0902013D01*
Y0904013D01*
X0617908Y0905012D01*
X0618908Y0906012D01*
X0619907D01*
X0622906Y0902013D02*
X0624906D01*
X0623906D01*
Y0906012D01*
X0622906D01*
X0628904D02*
X0630904D01*
X0631903Y0905012D01*
Y0902013D01*
X0628904D01*
X0627905Y0903013D01*
X0628904Y0904013D01*
X0631903D01*
X0633903Y0902013D02*
X0635902D01*
X0634902D01*
Y0908011D01*
X0633903D01*
X0500941Y0896011D02*
X0504940D01*
X0502941D01*
Y0890013D01*
X0507939D02*
X0509938D01*
X0510938Y0891013D01*
Y0893012D01*
X0509938Y0894012D01*
X0507939D01*
X0506939Y0893012D01*
Y0891013D01*
X0507939Y0890013D01*
X0512937Y0888014D02*
Y0894012D01*
X0515936D01*
X0516936Y0893012D01*
Y0891013D01*
X0515936Y0890013D01*
X0512937D01*
X0527933Y0896011D02*
X0525933D01*
X0524933Y0895012D01*
Y0891013D01*
X0525933Y0890013D01*
X0527933D01*
X0528932Y0891013D01*
Y0895012D01*
X0527933Y0896011D01*
X0530932Y0894012D02*
X0532931Y0890013D01*
X0534930Y0894012D01*
X0539929Y0890013D02*
X0537929D01*
X0536930Y0891013D01*
Y0893012D01*
X0537929Y0894012D01*
X0539929D01*
X0540928Y0893012D01*
Y0892013D01*
X0536930D01*
X0542928Y0894012D02*
Y0890013D01*
Y0892013D01*
X0543927Y0893012D01*
X0544927Y0894012D01*
X0545927D01*
X0548926Y0890013D02*
X0550925D01*
X0549925D01*
Y0896011D01*
X0548926D01*
X0554924Y0894012D02*
X0556923D01*
X0557923Y0893012D01*
Y0890013D01*
X0554924D01*
X0553924Y0891013D01*
X0554924Y0892013D01*
X0557923D01*
X0559922Y0894012D02*
Y0891013D01*
X0560922Y0890013D01*
X0563921D01*
Y0889013D01*
X0562921Y0888014D01*
X0561922D01*
X0563921Y0890013D02*
Y0894012D01*
X0500941Y0884011D02*
X0504940D01*
X0502941D01*
Y0878013D01*
X0507939D02*
X0509938D01*
X0510938Y0879013D01*
Y0881012D01*
X0509938Y0882012D01*
X0507939D01*
X0506939Y0881012D01*
Y0879013D01*
X0507939Y0878013D01*
X0512937Y0876014D02*
Y0882012D01*
X0515936D01*
X0516936Y0881012D01*
Y0879013D01*
X0515936Y0878013D01*
X0512937D01*
X0528932Y0883012D02*
X0527933Y0884011D01*
X0525933D01*
X0524933Y0883012D01*
Y0882012D01*
X0525933Y0881012D01*
X0527933D01*
X0528932Y0880013D01*
Y0879013D01*
X0527933Y0878013D01*
X0525933D01*
X0524933Y0879013D01*
X0531931Y0878013D02*
X0533931D01*
X0534930Y0879013D01*
Y0881012D01*
X0533931Y0882012D01*
X0531931D01*
X0530932Y0881012D01*
Y0879013D01*
X0531931Y0878013D01*
X0536930D02*
X0538929D01*
X0537929D01*
Y0884011D01*
X0536930D01*
X0545927D02*
Y0878013D01*
X0542928D01*
X0541928Y0879013D01*
Y0881012D01*
X0542928Y0882012D01*
X0545927D01*
X0550925Y0878013D02*
X0548926D01*
X0547926Y0879013D01*
Y0881012D01*
X0548926Y0882012D01*
X0550925D01*
X0551925Y0881012D01*
Y0880013D01*
X0547926D01*
X0553924Y0882012D02*
Y0878013D01*
Y0880013D01*
X0554924Y0881012D01*
X0555924Y0882012D01*
X0556923D01*
X0500941Y0872011D02*
X0504940D01*
X0502941D01*
Y0866013D01*
X0507939D02*
X0509938D01*
X0510938Y0867013D01*
Y0869012D01*
X0509938Y0870012D01*
X0507939D01*
X0506939Y0869012D01*
Y0867013D01*
X0507939Y0866013D01*
X0512937Y0864014D02*
Y0870012D01*
X0515936D01*
X0516936Y0869012D01*
Y0867013D01*
X0515936Y0866013D01*
X0512937D01*
X0524933Y0872011D02*
Y0866013D01*
X0528932D01*
X0531931Y0870012D02*
X0533931D01*
X0534930Y0869012D01*
Y0866013D01*
X0531931D01*
X0530932Y0867013D01*
X0531931Y0868013D01*
X0534930D01*
X0536930Y0870012D02*
Y0867013D01*
X0537929Y0866013D01*
X0540928D01*
Y0865014D01*
X0539929Y0864014D01*
X0538929D01*
X0540928Y0866013D02*
Y0870012D01*
X0545927Y0866013D02*
X0543927D01*
X0542928Y0867013D01*
Y0869012D01*
X0543927Y0870012D01*
X0545927D01*
X0546926Y0869012D01*
Y0868013D01*
X0542928D01*
X0548926Y0870012D02*
Y0866013D01*
Y0868013D01*
X0549925Y0869012D01*
X0550925Y0870012D01*
X0551925D01*
X0500941Y0860011D02*
Y0854013D01*
X0503940D01*
X0504940Y0855013D01*
Y0859012D01*
X0503940Y0860011D01*
X0500941D01*
X0506939Y0854013D02*
X0508939D01*
X0507939D01*
Y0858012D01*
X0506939D01*
X0514937Y0854013D02*
X0512937D01*
X0511938Y0855013D01*
Y0857012D01*
X0512937Y0858012D01*
X0514937D01*
X0515936Y0857012D01*
Y0856013D01*
X0511938D01*
X0517936Y0854013D02*
X0519935D01*
X0518935D01*
Y0860011D01*
X0517936D01*
X0525933Y0854013D02*
X0523934D01*
X0522934Y0855013D01*
Y0857012D01*
X0523934Y0858012D01*
X0525933D01*
X0526933Y0857012D01*
Y0856013D01*
X0522934D01*
X0532931Y0858012D02*
X0529932D01*
X0528932Y0857012D01*
Y0855013D01*
X0529932Y0854013D01*
X0532931D01*
X0535930Y0859012D02*
Y0858012D01*
X0534930D01*
X0536930D01*
X0535930D01*
Y0855013D01*
X0536930Y0854013D01*
X0539929Y0858012D02*
Y0854013D01*
Y0856013D01*
X0540928Y0857012D01*
X0541928Y0858012D01*
X0542928D01*
X0545927Y0854013D02*
X0547926D01*
X0546926D01*
Y0858012D01*
X0545927D01*
X0554924D02*
X0551925D01*
X0550925Y0857012D01*
Y0855013D01*
X0551925Y0854013D01*
X0554924D01*
X0566920D02*
X0562921D01*
X0566920Y0858012D01*
Y0859012D01*
X0565920Y0860011D01*
X0563921D01*
X0562921Y0859012D01*
X0500941Y0848011D02*
Y0844013D01*
X0502941Y0842013D01*
X0504940Y0844013D01*
Y0848011D01*
X0510938Y0847012D02*
X0509938Y0848011D01*
X0507939D01*
X0506939Y0847012D01*
Y0843013D01*
X0507939Y0842013D01*
X0509938D01*
X0510938Y0843013D01*
X0516936Y0847012D02*
X0515936Y0848011D01*
X0513937D01*
X0512937Y0847012D01*
Y0843013D01*
X0513937Y0842013D01*
X0515936D01*
X0516936Y0843013D01*
X0524933Y0848011D02*
Y0842013D01*
X0528932D01*
X0531931Y0846012D02*
X0533931D01*
X0534930Y0845012D01*
Y0842013D01*
X0531931D01*
X0530932Y0843013D01*
X0531931Y0844013D01*
X0534930D01*
X0536930Y0846012D02*
Y0843013D01*
X0537929Y0842013D01*
X0540928D01*
Y0841014D01*
X0539929Y0840014D01*
X0538929D01*
X0540928Y0842013D02*
Y0846012D01*
X0545927Y0842013D02*
X0543927D01*
X0542928Y0843013D01*
Y0845012D01*
X0543927Y0846012D01*
X0545927D01*
X0546926Y0845012D01*
Y0844013D01*
X0542928D01*
X0548926Y0846012D02*
Y0842013D01*
Y0844013D01*
X0549925Y0845012D01*
X0550925Y0846012D01*
X0551925D01*
X0500941Y0836011D02*
Y0830013D01*
X0503940D01*
X0504940Y0831013D01*
Y0835012D01*
X0503940Y0836011D01*
X0500941D01*
X0506939Y0830013D02*
X0508939D01*
X0507939D01*
Y0834012D01*
X0506939D01*
X0514937Y0830013D02*
X0512937D01*
X0511938Y0831013D01*
Y0833012D01*
X0512937Y0834012D01*
X0514937D01*
X0515936Y0833012D01*
Y0832013D01*
X0511938D01*
X0517936Y0830013D02*
X0519935D01*
X0518935D01*
Y0836011D01*
X0517936D01*
X0525933Y0830013D02*
X0523934D01*
X0522934Y0831013D01*
Y0833012D01*
X0523934Y0834012D01*
X0525933D01*
X0526933Y0833012D01*
Y0832013D01*
X0522934D01*
X0532931Y0834012D02*
X0529932D01*
X0528932Y0833012D01*
Y0831013D01*
X0529932Y0830013D01*
X0532931D01*
X0535930Y0835012D02*
Y0834012D01*
X0534930D01*
X0536930D01*
X0535930D01*
Y0831013D01*
X0536930Y0830013D01*
X0539929Y0834012D02*
Y0830013D01*
Y0832013D01*
X0540928Y0833012D01*
X0541928Y0834012D01*
X0542928D01*
X0545927Y0830013D02*
X0547926D01*
X0546926D01*
Y0834012D01*
X0545927D01*
X0554924D02*
X0551925D01*
X0550925Y0833012D01*
Y0831013D01*
X0551925Y0830013D01*
X0554924D01*
X0556923D02*
X0558922D01*
X0557923D01*
Y0836011D01*
X0556923Y0835012D01*
X0504940Y0823012D02*
X0503940Y0824011D01*
X0501941D01*
X0500941Y0823012D01*
Y0819013D01*
X0501941Y0818013D01*
X0503940D01*
X0504940Y0819013D01*
Y0821012D01*
X0502941D01*
X0506939Y0818013D02*
Y0824011D01*
X0510938Y0818013D01*
Y0824011D01*
X0512937D02*
Y0818013D01*
X0515936D01*
X0516936Y0819013D01*
Y0823012D01*
X0515936Y0824011D01*
X0512937D01*
X0524933D02*
Y0818013D01*
X0528932D01*
X0531931Y0822012D02*
X0533931D01*
X0534930Y0821012D01*
Y0818013D01*
X0531931D01*
X0530932Y0819013D01*
X0531931Y0820013D01*
X0534930D01*
X0536930Y0822012D02*
Y0819013D01*
X0537929Y0818013D01*
X0540928D01*
Y0817013D01*
X0539929Y0816014D01*
X0538929D01*
X0540928Y0818013D02*
Y0822012D01*
X0545927Y0818013D02*
X0543927D01*
X0542928Y0819013D01*
Y0821012D01*
X0543927Y0822012D01*
X0545927D01*
X0546926Y0821012D01*
Y0820013D01*
X0542928D01*
X0548926Y0822012D02*
Y0818013D01*
Y0820013D01*
X0549925Y0821012D01*
X0550925Y0822012D01*
X0551925D01*
X0500941Y0812011D02*
Y0806013D01*
X0503940D01*
X0504940Y0807013D01*
Y0811012D01*
X0503940Y0812011D01*
X0500941D01*
X0506939Y0806013D02*
X0508939D01*
X0507939D01*
Y0810012D01*
X0506939D01*
X0514937Y0806013D02*
X0512937D01*
X0511938Y0807013D01*
Y0809012D01*
X0512937Y0810012D01*
X0514937D01*
X0515936Y0809012D01*
Y0808013D01*
X0511938D01*
X0517936Y0806013D02*
X0519935D01*
X0518935D01*
Y0812011D01*
X0517936D01*
X0525933Y0806013D02*
X0523934D01*
X0522934Y0807013D01*
Y0809012D01*
X0523934Y0810012D01*
X0525933D01*
X0526933Y0809012D01*
Y0808013D01*
X0522934D01*
X0532931Y0810012D02*
X0529932D01*
X0528932Y0809012D01*
Y0807013D01*
X0529932Y0806013D01*
X0532931D01*
X0535930Y0811012D02*
Y0810012D01*
X0534930D01*
X0536930D01*
X0535930D01*
Y0807013D01*
X0536930Y0806013D01*
X0539929Y0810012D02*
Y0806013D01*
Y0808013D01*
X0540928Y0809012D01*
X0541928Y0810012D01*
X0542928D01*
X0545927Y0806013D02*
X0547926D01*
X0546926D01*
Y0810012D01*
X0545927D01*
X0554924D02*
X0551925D01*
X0550925Y0809012D01*
Y0807013D01*
X0551925Y0806013D01*
X0554924D01*
X0562921Y0811012D02*
X0563921Y0812011D01*
X0565920D01*
X0566920Y0811012D01*
Y0810012D01*
X0565920Y0809012D01*
X0564921D01*
X0565920D01*
X0566920Y0808013D01*
Y0807013D01*
X0565920Y0806013D01*
X0563921D01*
X0562921Y0807013D01*
X0500941Y0800011D02*
Y0794013D01*
X0503940D01*
X0504940Y0795013D01*
Y0796013D01*
X0503940Y0797012D01*
X0500941D01*
X0503940D01*
X0504940Y0798012D01*
Y0799012D01*
X0503940Y0800011D01*
X0500941D01*
X0507939Y0794013D02*
X0509938D01*
X0510938Y0795013D01*
Y0797012D01*
X0509938Y0798012D01*
X0507939D01*
X0506939Y0797012D01*
Y0795013D01*
X0507939Y0794013D01*
X0513937Y0799012D02*
Y0798012D01*
X0512937D01*
X0514937D01*
X0513937D01*
Y0795013D01*
X0514937Y0794013D01*
X0518935Y0799012D02*
Y0798012D01*
X0517936D01*
X0519935D01*
X0518935D01*
Y0795013D01*
X0519935Y0794013D01*
X0523934D02*
X0525933D01*
X0526933Y0795013D01*
Y0797012D01*
X0525933Y0798012D01*
X0523934D01*
X0522934Y0797012D01*
Y0795013D01*
X0523934Y0794013D01*
X0528932D02*
Y0798012D01*
X0529932D01*
X0530932Y0797012D01*
Y0794013D01*
Y0797012D01*
X0531931Y0798012D01*
X0532931Y0797012D01*
Y0794013D01*
X0540928Y0800011D02*
Y0794013D01*
X0544927D01*
X0547926Y0798012D02*
X0549925D01*
X0550925Y0797012D01*
Y0794013D01*
X0547926D01*
X0546926Y0795013D01*
X0547926Y0796013D01*
X0550925D01*
X0552924Y0798012D02*
Y0795013D01*
X0553924Y0794013D01*
X0556923D01*
Y0793013D01*
X0555924Y0792014D01*
X0554924D01*
X0556923Y0794013D02*
Y0798012D01*
X0561922Y0794013D02*
X0559922D01*
X0558922Y0795013D01*
Y0797012D01*
X0559922Y0798012D01*
X0561922D01*
X0562921Y0797012D01*
Y0796013D01*
X0558922D01*
X0564921Y0798012D02*
Y0794013D01*
Y0796013D01*
X0565920Y0797012D01*
X0566920Y0798012D01*
X0567920D01*
X0500941Y0788011D02*
Y0782013D01*
X0503940D01*
X0504940Y0783013D01*
Y0784013D01*
X0503940Y0785012D01*
X0500941D01*
X0503940D01*
X0504940Y0786012D01*
Y0787012D01*
X0503940Y0788011D01*
X0500941D01*
X0507939Y0782013D02*
X0509938D01*
X0510938Y0783013D01*
Y0785012D01*
X0509938Y0786012D01*
X0507939D01*
X0506939Y0785012D01*
Y0783013D01*
X0507939Y0782013D01*
X0513937Y0787012D02*
Y0786012D01*
X0512937D01*
X0514937D01*
X0513937D01*
Y0783013D01*
X0514937Y0782013D01*
X0518935Y0787012D02*
Y0786012D01*
X0517936D01*
X0519935D01*
X0518935D01*
Y0783013D01*
X0519935Y0782013D01*
X0523934D02*
X0525933D01*
X0526933Y0783013D01*
Y0785012D01*
X0525933Y0786012D01*
X0523934D01*
X0522934Y0785012D01*
Y0783013D01*
X0523934Y0782013D01*
X0528932D02*
Y0786012D01*
X0529932D01*
X0530932Y0785012D01*
Y0782013D01*
Y0785012D01*
X0531931Y0786012D01*
X0532931Y0785012D01*
Y0782013D01*
X0544927Y0787012D02*
X0543927Y0788011D01*
X0541928D01*
X0540928Y0787012D01*
Y0786012D01*
X0541928Y0785012D01*
X0543927D01*
X0544927Y0784013D01*
Y0783013D01*
X0543927Y0782013D01*
X0541928D01*
X0540928Y0783013D01*
X0547926Y0782013D02*
X0549925D01*
X0550925Y0783013D01*
Y0785012D01*
X0549925Y0786012D01*
X0547926D01*
X0546926Y0785012D01*
Y0783013D01*
X0547926Y0782013D01*
X0552924D02*
X0554924D01*
X0553924D01*
Y0788011D01*
X0552924D01*
X0561922D02*
Y0782013D01*
X0558922D01*
X0557923Y0783013D01*
Y0785012D01*
X0558922Y0786012D01*
X0561922D01*
X0566920Y0782013D02*
X0564921D01*
X0563921Y0783013D01*
Y0785012D01*
X0564921Y0786012D01*
X0566920D01*
X0567920Y0785012D01*
Y0784013D01*
X0563921D01*
X0569919Y0786012D02*
Y0782013D01*
Y0784013D01*
X0570919Y0785012D01*
X0571918Y0786012D01*
X0572918D01*
X0500941Y0776011D02*
Y0770013D01*
X0503940D01*
X0504940Y0771013D01*
Y0772013D01*
X0503940Y0773012D01*
X0500941D01*
X0503940D01*
X0504940Y0774012D01*
Y0775012D01*
X0503940Y0776011D01*
X0500941D01*
X0507939Y0770013D02*
X0509938D01*
X0510938Y0771013D01*
Y0773012D01*
X0509938Y0774012D01*
X0507939D01*
X0506939Y0773012D01*
Y0771013D01*
X0507939Y0770013D01*
X0513937Y0775012D02*
Y0774012D01*
X0512937D01*
X0514937D01*
X0513937D01*
Y0771013D01*
X0514937Y0770013D01*
X0518935Y0775012D02*
Y0774012D01*
X0517936D01*
X0519935D01*
X0518935D01*
Y0771013D01*
X0519935Y0770013D01*
X0523934D02*
X0525933D01*
X0526933Y0771013D01*
Y0773012D01*
X0525933Y0774012D01*
X0523934D01*
X0522934Y0773012D01*
Y0771013D01*
X0523934Y0770013D01*
X0528932D02*
Y0774012D01*
X0529932D01*
X0530932Y0773012D01*
Y0770013D01*
Y0773012D01*
X0531931Y0774012D01*
X0532931Y0773012D01*
Y0770013D01*
X0543927Y0776011D02*
X0541928D01*
X0540928Y0775012D01*
Y0771013D01*
X0541928Y0770013D01*
X0543927D01*
X0544927Y0771013D01*
Y0775012D01*
X0543927Y0776011D01*
X0546926Y0774012D02*
X0548926Y0770013D01*
X0550925Y0774012D01*
X0555924Y0770013D02*
X0553924D01*
X0552924Y0771013D01*
Y0773012D01*
X0553924Y0774012D01*
X0555924D01*
X0556923Y0773012D01*
Y0772013D01*
X0552924D01*
X0558922Y0774012D02*
Y0770013D01*
Y0772013D01*
X0559922Y0773012D01*
X0560922Y0774012D01*
X0561922D01*
X0564921Y0770013D02*
X0566920D01*
X0565920D01*
Y0776011D01*
X0564921D01*
X0570919Y0774012D02*
X0572918D01*
X0573918Y0773012D01*
Y0770013D01*
X0570919D01*
X0569919Y0771013D01*
X0570919Y0772013D01*
X0573918D01*
X0575917Y0774012D02*
Y0771013D01*
X0576917Y0770013D01*
X0579916D01*
Y0769014D01*
X0578916Y0768014D01*
X0577916D01*
X0579916Y0770013D02*
Y0774012D01*
X0500941Y0902013D02*
Y0908011D01*
X0504940Y0902013D01*
Y0908011D01*
X0507939Y0906012D02*
X0509938D01*
X0510938Y0905012D01*
Y0902013D01*
X0507939D01*
X0506939Y0903013D01*
X0507939Y0904013D01*
X0510938D01*
X0512937Y0902013D02*
Y0906012D01*
X0513937D01*
X0514937Y0905012D01*
Y0902013D01*
Y0905012D01*
X0515936Y0906012D01*
X0516936Y0905012D01*
Y0902013D01*
X0521935D02*
X0519935D01*
X0518935Y0903013D01*
Y0905012D01*
X0519935Y0906012D01*
X0521935D01*
X0522934Y0905012D01*
Y0904013D01*
X0518935D01*
X0459950Y0890013D02*
X0461949D01*
X0460950D01*
Y0896011D01*
X0459950Y0895012D01*
X0463949Y0878013D02*
X0459950D01*
X0463949Y0882012D01*
Y0883012D01*
X0462949Y0884011D01*
X0460950D01*
X0459950Y0883012D01*
Y0871012D02*
X0460950Y0872011D01*
X0462949D01*
X0463949Y0871012D01*
Y0870012D01*
X0462949Y0869012D01*
X0461949D01*
X0462949D01*
X0463949Y0868013D01*
Y0867013D01*
X0462949Y0866013D01*
X0460950D01*
X0459950Y0867013D01*
X0462949Y0854013D02*
Y0860011D01*
X0459950Y0857012D01*
X0463949D01*
Y0848011D02*
X0459950D01*
Y0845012D01*
X0461949Y0846012D01*
X0462949D01*
X0463949Y0845012D01*
Y0843013D01*
X0462949Y0842013D01*
X0460950D01*
X0459950Y0843013D01*
X0463949Y0836011D02*
X0461949Y0835012D01*
X0459950Y0833012D01*
Y0831013D01*
X0460950Y0830013D01*
X0462949D01*
X0463949Y0831013D01*
Y0832013D01*
X0462949Y0833012D01*
X0459950D01*
Y0824011D02*
X0463949D01*
Y0823012D01*
X0459950Y0819013D01*
Y0818013D01*
Y0811012D02*
X0460950Y0812011D01*
X0462949D01*
X0463949Y0811012D01*
Y0810012D01*
X0462949Y0809012D01*
X0463949Y0808013D01*
Y0807013D01*
X0462949Y0806013D01*
X0460950D01*
X0459950Y0807013D01*
Y0808013D01*
X0460950Y0809012D01*
X0459950Y0810012D01*
Y0811012D01*
X0460950Y0809012D02*
X0462949D01*
X0459950Y0795013D02*
X0460950Y0794013D01*
X0462949D01*
X0463949Y0795013D01*
Y0799012D01*
X0462949Y0800011D01*
X0460950D01*
X0459950Y0799012D01*
Y0798012D01*
X0460950Y0797012D01*
X0463949D01*
X0459950Y0782013D02*
X0461949D01*
X0460950D01*
Y0788011D01*
X0459950Y0787012D01*
X0464948D02*
X0465948Y0788011D01*
X0467947D01*
X0468947Y0787012D01*
Y0783013D01*
X0467947Y0782013D01*
X0465948D01*
X0464948Y0783013D01*
Y0787012D01*
X0459950Y0770013D02*
X0461949D01*
X0460950D01*
Y0776011D01*
X0459950Y0775012D01*
X0464948Y0770013D02*
X0466948D01*
X0465948D01*
Y0776011D01*
X0464948Y0775012D01*
X0459950Y0908011D02*
Y0902013D01*
X0463949D01*
X0466948Y0906012D02*
X0468947D01*
X0469947Y0905012D01*
Y0902013D01*
X0466948D01*
X0465948Y0903013D01*
X0466948Y0904013D01*
X0469947D01*
X0471946Y0906012D02*
Y0903013D01*
X0472946Y0902013D01*
X0475945D01*
Y0901013D01*
X0474945Y0900014D01*
X0473946D01*
X0475945Y0902013D02*
Y0906012D01*
X0480943Y0902013D02*
X0478944D01*
X0477944Y0903013D01*
Y0905012D01*
X0478944Y0906012D01*
X0480943D01*
X0481943Y0905012D01*
Y0904013D01*
X0477944D01*
X0483942Y0906012D02*
Y0902013D01*
Y0904013D01*
X0484942Y0905012D01*
X0485942Y0906012D01*
X0486941D01*
X0497200Y0080717D02*
Y0101050D01*
X0413200Y0080717D02*
Y0101050D01*
X0040000Y0080717D02*
X0700200D01*
X0040000Y0060383D02*
X0700000D01*
X0040000Y0040050D02*
X0440500D01*
X0040050Y0101050D02*
X0700200D01*
X0040050Y0040050D02*
Y0101050D01*
Y0040050D02*
X0197600D01*
X0040000D02*
Y0101050D01*
X0286500Y0040050D02*
Y0101050D01*
X0700200Y0040050D02*
Y0101050D01*
X0440500Y0040050D02*
X0700200D01*
X0559400Y0039400D02*
Y0059683D01*
G54D56*
X0453950Y0640558D02*
Y0728429D01*
Y0640468D02*
Y0640558D01*
Y0640468D02*
X0453985Y0640293D01*
X0454053Y0640128D01*
X0454153Y0639979D01*
X0454279Y0639853D01*
X0454428Y0639753D01*
X0454593Y0639685D01*
X0454768Y0639650D01*
X0454858D01*
X0486448D01*
X0486689D01*
X0487165Y0639720D01*
X0487626Y0639858D01*
X0488062Y0640062D01*
X0488263Y0640195D01*
X0488469Y0640319D01*
X0488904Y0640523D01*
X0489364Y0640661D01*
X0489839Y0640731D01*
X0490319D01*
X0490794Y0640661D01*
X0491254Y0640523D01*
X0491689Y0640319D01*
X0491894Y0640195D01*
X0492095Y0640062D01*
X0492532Y0639858D01*
X0492993Y0639720D01*
X0493469Y0639650D01*
X0493710D01*
X0498430D01*
X0498520D01*
X0498695Y0639685D01*
X0498860Y0639753D01*
X0499009Y0639853D01*
X0499135Y0639979D01*
X0499235Y0640128D01*
X0499303Y0640293D01*
X0499338Y0640468D01*
Y0640558D01*
Y0728429D01*
Y0728670D01*
X0499268Y0729146D02*
X0499338Y0728670D01*
X0499130Y0729607D02*
X0499268Y0729146D01*
X0498926Y0730044D02*
X0499130Y0729607D01*
X0498793Y0730244D02*
X0498926Y0730044D01*
X0498668Y0730450D02*
X0498793Y0730244D01*
X0498465Y0730885D02*
X0498668Y0730450D01*
X0498327Y0731345D02*
X0498465Y0730885D01*
X0498257Y0731820D02*
X0498327Y0731345D01*
X0498257Y0731820D02*
Y0732300D01*
X0498327Y0732775D01*
X0498465Y0733235D01*
X0498668Y0733670D01*
X0498793Y0733876D01*
X0498926Y0734077D01*
X0499130Y0734513D01*
X0499268Y0734974D01*
X0499338Y0735450D01*
Y0735691D01*
Y0763105D01*
Y0763195D01*
X0499303Y0763370D02*
X0499338Y0763195D01*
X0499235Y0763535D02*
X0499303Y0763370D01*
X0499135Y0763684D02*
X0499235Y0763535D01*
X0499009Y0763811D02*
X0499135Y0763684D01*
X0498860Y0763910D02*
X0499009Y0763811D01*
X0498695Y0763978D02*
X0498860Y0763910D01*
X0498520Y0764013D02*
X0498695Y0763978D01*
X0498430Y0764013D02*
X0498520D01*
X0490896D02*
X0498430D01*
X0490655D02*
X0490896D01*
X0490179Y0763943D02*
X0490655Y0764013D01*
X0489717Y0763805D02*
X0490179Y0763943D01*
X0489281Y0763601D02*
X0489717Y0763805D01*
X0489080Y0763469D02*
X0489281Y0763601D01*
X0488875Y0763344D02*
X0489080Y0763469D01*
X0488440Y0763140D02*
X0488875Y0763344D01*
X0487980Y0763002D02*
X0488440Y0763140D01*
X0487505Y0762933D02*
X0487980Y0763002D01*
X0487025Y0762933D02*
X0487505D01*
X0486550Y0763002D02*
X0487025Y0762933D01*
X0486090Y0763140D02*
X0486550Y0763002D01*
X0485655Y0763344D02*
X0486090Y0763140D01*
X0485449Y0763469D02*
X0485655Y0763344D01*
X0485248Y0763601D02*
X0485449Y0763469D01*
X0484812Y0763805D02*
X0485248Y0763601D01*
X0484351Y0763943D02*
X0484812Y0763805D01*
X0483875Y0764013D02*
X0484351Y0763943D01*
X0483634Y0764013D02*
X0483875D01*
X0465025D02*
X0483634D01*
X0465025Y0763287D02*
Y0764013D01*
X0464062Y0763287D02*
X0465025D01*
X0464062Y0762198D02*
Y0763287D01*
X0463391Y0762198D02*
X0464062D01*
X0463391D02*
Y0763287D01*
X0460667D02*
X0463391D01*
X0460667Y0762198D02*
Y0763287D01*
X0459996Y0762198D02*
X0460667D01*
X0459996D02*
Y0763287D01*
X0459033D02*
X0459996D01*
X0459033D02*
Y0764013D01*
X0454858D02*
X0459033D01*
X0454768D02*
X0454858D01*
X0454593Y0763978D02*
X0454768Y0764013D01*
X0454428Y0763910D02*
X0454593Y0763978D01*
X0454279Y0763811D02*
X0454428Y0763910D01*
X0454153Y0763684D02*
X0454279Y0763811D01*
X0454053Y0763535D02*
X0454153Y0763684D01*
X0453985Y0763370D02*
X0454053Y0763535D01*
X0453950Y0763195D02*
X0453985Y0763370D01*
X0453950Y0763105D02*
Y0763195D01*
Y0735691D02*
Y0763105D01*
Y0735450D02*
Y0735691D01*
Y0735450D02*
X0454020Y0734974D01*
X0454158Y0734513D01*
X0454362Y0734077D01*
X0454495Y0733876D01*
X0454620Y0733670D01*
X0454823Y0733235D01*
X0454961Y0732775D01*
X0455031Y0732300D01*
Y0731820D02*
Y0732300D01*
X0454961Y0731345D02*
X0455031Y0731820D01*
X0454823Y0730885D02*
X0454961Y0731345D01*
X0454620Y0730450D02*
X0454823Y0730885D01*
X0454495Y0730244D02*
X0454620Y0730450D01*
X0454362Y0730044D02*
X0454495Y0730244D01*
X0454158Y0729607D02*
X0454362Y0730044D01*
X0454020Y0729146D02*
X0454158Y0729607D01*
X0453950Y0728670D02*
X0454020Y0729146D01*
X0453950Y0728429D02*
Y0728670D01*
X0907830Y0767013D02*
Y0911013D01*
X0795862Y0887013D02*
X0907830D01*
X0795862Y0875013D02*
X0907830D01*
X0795862Y0863013D02*
X0907830D01*
X0795862Y0851013D02*
X0907830D01*
X0795862Y0839013D02*
X0907830D01*
X0795862Y0827013D02*
X0907830D01*
X0795862Y0815013D02*
X0907830D01*
X0795862Y0803013D02*
X0907830D01*
X0795862Y0791013D02*
X0907830D01*
X0795862Y0779013D02*
X0907830D01*
X0795862Y0767013D02*
X0907830D01*
X0795862D02*
Y0911013D01*
X0738876Y0887013D02*
X0795862D01*
X0738876Y0875013D02*
X0795862D01*
X0738876Y0863013D02*
X0795862D01*
X0738876Y0851013D02*
X0795862D01*
X0738876Y0839013D02*
X0795862D01*
X0738876Y0827013D02*
X0795862D01*
X0738876Y0815013D02*
X0795862D01*
X0738876Y0803013D02*
X0795862D01*
X0738876Y0791013D02*
X0795862D01*
X0738876Y0779013D02*
X0795862D01*
X0738876Y0767013D02*
X0795862D01*
X0738876D02*
Y0911013D01*
X0673892Y0887013D02*
X0738876D01*
X0673892Y0875013D02*
X0738876D01*
X0673892Y0863013D02*
X0738876D01*
X0673892Y0851013D02*
X0738876D01*
X0673892Y0839013D02*
X0738876D01*
X0673892Y0827013D02*
X0738876D01*
X0673892Y0815013D02*
X0738876D01*
X0673892Y0803013D02*
X0738876D01*
X0673892Y0791013D02*
X0738876D01*
X0673892Y0779013D02*
X0738876D01*
X0673892Y0767013D02*
X0738876D01*
X0673892D02*
Y0911013D01*
X0587916Y0887013D02*
X0673892D01*
X0587916Y0875013D02*
X0673892D01*
X0587916Y0863013D02*
X0673892D01*
X0587916Y0851013D02*
X0673892D01*
X0587916Y0839013D02*
X0673892D01*
X0587916Y0827013D02*
X0673892D01*
X0587916Y0815013D02*
X0673892D01*
X0587916Y0803013D02*
X0673892D01*
X0587916Y0791013D02*
X0673892D01*
X0587916Y0779013D02*
X0673892D01*
X0587916Y0767013D02*
X0673892D01*
X0587916D02*
Y0911013D01*
X0494941Y0887013D02*
X0587916D01*
X0494941Y0875013D02*
X0587916D01*
X0494941Y0863013D02*
X0587916D01*
X0494941Y0851013D02*
X0587916D01*
X0494941Y0839013D02*
X0587916D01*
X0494941Y0827013D02*
X0587916D01*
X0494941Y0815013D02*
X0587916D01*
X0494941Y0803013D02*
X0587916D01*
X0494941Y0791013D02*
X0587916D01*
X0494941Y0779013D02*
X0587916D01*
X0494941Y0767013D02*
X0587916D01*
X0494941D02*
Y0911013D01*
X0453950Y0887013D02*
X0494941D01*
X0453950Y0875013D02*
X0494941D01*
X0453950Y0863013D02*
X0494941D01*
X0453950Y0851013D02*
X0494941D01*
X0453950Y0839013D02*
X0494941D01*
X0453950Y0827013D02*
X0494941D01*
X0453950Y0815013D02*
X0494941D01*
X0453950Y0803013D02*
X0494941D01*
X0453950Y0791013D02*
X0494941D01*
X0453950Y0779013D02*
X0494941D01*
X0453950Y0767013D02*
X0494941D01*
X0453950D02*
Y0911013D01*
X0907830D01*
X0453950Y0899013D02*
X0907830D01*
G54D58*
X0126900Y0067551D02*
Y0073549D01*
X0128899Y0071549D01*
X0130899Y0073549D01*
Y0067551D01*
X0132898D02*
X0134897D01*
X0133898D01*
Y0073549D01*
X0132898Y0072549D01*
X0141895Y0067551D02*
X0137896D01*
X0141895Y0071549D01*
Y0072549D01*
X0140895Y0073549D01*
X0138896D01*
X0137896Y0072549D01*
X0153891D02*
X0152892Y0073549D01*
X0150892D01*
X0149893Y0072549D01*
Y0071549D01*
X0150892Y0070550D01*
X0152892D01*
X0153891Y0069550D01*
Y0068550D01*
X0152892Y0067551D01*
X0150892D01*
X0149893Y0068550D01*
X0156890Y0072549D02*
Y0071549D01*
X0155891D01*
X0157890D01*
X0156890D01*
Y0068550D01*
X0157890Y0067551D01*
X0161889Y0071549D02*
X0163888D01*
X0164888Y0070550D01*
Y0067551D01*
X0161889D01*
X0160889Y0068550D01*
X0161889Y0069550D01*
X0164888D01*
X0170886Y0071549D02*
X0167887D01*
X0166887Y0070550D01*
Y0068550D01*
X0167887Y0067551D01*
X0170886D01*
X0172885D02*
Y0073549D01*
Y0069550D02*
X0175884Y0071549D01*
X0172885Y0069550D02*
X0175884Y0067551D01*
X0178883Y0071549D02*
Y0068550D01*
X0179883Y0067551D01*
X0182882D01*
Y0071549D01*
X0184881Y0065551D02*
Y0071549D01*
X0187880D01*
X0188880Y0070550D01*
Y0068550D01*
X0187880Y0067551D01*
X0184881D01*
X0567400Y0087833D02*
Y0093831D01*
X0571399Y0087833D01*
Y0093831D01*
X0574398Y0087833D02*
X0576397D01*
X0577397Y0088833D01*
Y0090832D01*
X0576397Y0091832D01*
X0574398D01*
X0573398Y0090832D01*
Y0088833D01*
X0574398Y0087833D01*
X0580396Y0092832D02*
Y0091832D01*
X0579396D01*
X0581395D01*
X0580396D01*
Y0088833D01*
X0581395Y0087833D01*
X0590393Y0093831D02*
X0592392D01*
X0591392D01*
Y0087833D01*
X0590393D01*
X0592392D01*
X0595391D02*
Y0091832D01*
X0598390D01*
X0599390Y0090832D01*
Y0087833D01*
X0607387Y0093831D02*
Y0089833D01*
X0609386Y0087833D01*
X0611386Y0089833D01*
Y0093831D01*
X0616384Y0087833D02*
X0614385D01*
X0613385Y0088833D01*
Y0090832D01*
X0614385Y0091832D01*
X0616384D01*
X0617384Y0090832D01*
Y0089833D01*
X0613385D01*
X0619383Y0091832D02*
Y0087833D01*
Y0089833D01*
X0620383Y0090832D01*
X0621383Y0091832D01*
X0622382D01*
X0625381Y0087833D02*
X0628380D01*
X0629380Y0088833D01*
X0628380Y0089833D01*
X0626381D01*
X0625381Y0090832D01*
X0626381Y0091832D01*
X0629380D01*
X0631379Y0087833D02*
X0633379D01*
X0632379D01*
Y0091832D01*
X0631379D01*
X0637377Y0087833D02*
X0639377D01*
X0640376Y0088833D01*
Y0090832D01*
X0639377Y0091832D01*
X0637377D01*
X0636378Y0090832D01*
Y0088833D01*
X0637377Y0087833D01*
X0642376D02*
Y0091832D01*
X0645375D01*
X0646374Y0090832D01*
Y0087833D01*
X0652373Y0092832D02*
X0651373Y0093831D01*
X0649373D01*
X0648374Y0092832D01*
Y0088833D01*
X0649373Y0087833D01*
X0651373D01*
X0652373Y0088833D01*
X0655372Y0087833D02*
X0657371D01*
X0658371Y0088833D01*
Y0090832D01*
X0657371Y0091832D01*
X0655372D01*
X0654372Y0090832D01*
Y0088833D01*
X0655372Y0087833D01*
X0660370D02*
Y0091832D01*
X0663369D01*
X0664369Y0090832D01*
Y0087833D01*
X0667368Y0092832D02*
Y0091832D01*
X0666368D01*
X0668367D01*
X0667368D01*
Y0088833D01*
X0668367Y0087833D01*
X0671366Y0091832D02*
Y0087833D01*
Y0089833D01*
X0672366Y0090832D01*
X0673366Y0091832D01*
X0674365D01*
X0678364Y0087833D02*
X0680364D01*
X0681363Y0088833D01*
Y0090832D01*
X0680364Y0091832D01*
X0678364D01*
X0677364Y0090832D01*
Y0088833D01*
X0678364Y0087833D01*
X0683362D02*
X0685362D01*
X0684362D01*
Y0093831D01*
X0683362D01*
X0520799Y0092832D02*
X0519799Y0093831D01*
X0517800D01*
X0516800Y0092832D01*
Y0091832D01*
X0517800Y0090832D01*
X0519799D01*
X0520799Y0089833D01*
Y0088833D01*
X0519799Y0087833D01*
X0517800D01*
X0516800Y0088833D01*
X0522798Y0093831D02*
Y0089833D01*
X0524797Y0087833D01*
X0526797Y0089833D01*
Y0093831D01*
X0528796Y0087833D02*
Y0093831D01*
X0532795Y0087833D01*
Y0093831D01*
X0540792Y0087833D02*
Y0093831D01*
X0543791D01*
X0544791Y0092832D01*
Y0090832D01*
X0543791Y0089833D01*
X0540792D01*
X0542792D02*
X0544791Y0087833D01*
X0550789Y0093831D02*
X0546790D01*
Y0087833D01*
X0550789D01*
X0546790Y0090832D02*
X0548790D01*
X0552788Y0093831D02*
Y0089833D01*
X0554788Y0087833D01*
X0556787Y0089833D01*
Y0093831D01*
X0558786Y0091832D02*
X0559786D01*
Y0090832D01*
X0558786D01*
Y0091832D01*
Y0088833D02*
X0559786D01*
Y0087833D01*
X0558786D01*
Y0088833D01*
X0433000Y0087833D02*
Y0093831D01*
X0435999D01*
X0436999Y0092832D01*
Y0090832D01*
X0435999Y0089833D01*
X0433000D01*
X0434999D02*
X0436999Y0087833D01*
X0442997Y0093831D02*
X0438998D01*
Y0087833D01*
X0442997D01*
X0438998Y0090832D02*
X0440997D01*
X0444996Y0093831D02*
Y0089833D01*
X0446995Y0087833D01*
X0448995Y0089833D01*
Y0093831D01*
X0450994Y0091832D02*
X0451994D01*
Y0090832D01*
X0450994D01*
Y0091832D01*
Y0088833D02*
X0451994D01*
Y0087833D01*
X0450994D01*
Y0088833D01*
X0126900Y0046966D02*
Y0052965D01*
X0128899Y0050965D01*
X0130899Y0052965D01*
Y0046966D01*
X0136897Y0051965D02*
X0135897Y0052965D01*
X0133898D01*
X0132898Y0051965D01*
Y0047966D01*
X0133898Y0046966D01*
X0135897D01*
X0136897Y0047966D01*
X0138896Y0052965D02*
Y0047966D01*
X0139896Y0046966D01*
X0141895D01*
X0142895Y0047966D01*
Y0052965D01*
X0144894Y0051965D02*
X0145894Y0052965D01*
X0147893D01*
X0148893Y0051965D01*
Y0047966D01*
X0147893Y0046966D01*
X0145894D01*
X0144894Y0047966D01*
Y0051965D01*
X0154891Y0046966D02*
X0150892D01*
X0154891Y0050965D01*
Y0051965D01*
X0153891Y0052965D01*
X0151892D01*
X0150892Y0051965D01*
X0156890D02*
X0157890Y0052965D01*
X0159889D01*
X0160889Y0051965D01*
Y0050965D01*
X0159889Y0049966D01*
X0158890D01*
X0159889D01*
X0160889Y0048966D01*
Y0047966D01*
X0159889Y0046966D01*
X0157890D01*
X0156890Y0047966D01*
X0162888Y0046966D02*
X0164888D01*
X0163888D01*
Y0052965D01*
X0162888Y0051965D01*
X0167887Y0046966D02*
Y0047966D01*
X0168886D01*
Y0046966D01*
X0167887D01*
X0172885Y0051965D02*
X0173885Y0052965D01*
X0175884D01*
X0176884Y0051965D01*
Y0047966D01*
X0175884Y0046966D01*
X0173885D01*
X0172885Y0047966D01*
Y0051965D01*
X0178883Y0046966D02*
Y0047966D01*
X0179883D01*
Y0046966D01*
X0178883D01*
X0187880Y0051965D02*
X0186881Y0052965D01*
X0184881D01*
X0183882Y0051965D01*
Y0047966D01*
X0184881Y0046966D01*
X0186881D01*
X0187880Y0047966D01*
Y0049966D01*
X0185881D01*
X0189880Y0046966D02*
Y0052965D01*
X0191879Y0050965D01*
X0193878Y0052965D01*
Y0046966D01*
X0195878D02*
X0197877D01*
X0196877D01*
Y0052965D01*
X0195878Y0051965D01*
X0204875Y0046966D02*
X0200876D01*
X0204875Y0050965D01*
Y0051965D01*
X0203875Y0052965D01*
X0201876D01*
X0200876Y0051965D01*
X0381150Y0046966D02*
X0383149D01*
X0382150D01*
Y0052965D01*
X0381150Y0051965D01*
X0386148D02*
X0387148Y0052965D01*
X0389147D01*
X0390147Y0051965D01*
Y0047966D01*
X0389147Y0046966D01*
X0387148D01*
X0386148Y0047966D01*
Y0051965D01*
X0392146Y0046966D02*
X0396145Y0050965D01*
X0398145Y0046966D02*
X0400144D01*
X0399144D01*
Y0052965D01*
X0398145Y0051965D01*
X0407142Y0046966D02*
X0403143D01*
X0407142Y0050965D01*
Y0051965D01*
X0406142Y0052965D01*
X0404143D01*
X0403143Y0051965D01*
X0409141Y0046966D02*
X0413140Y0050965D01*
X0419138Y0046966D02*
X0415139D01*
X0419138Y0050965D01*
Y0051965D01*
X0418138Y0052965D01*
X0416139D01*
X0415139Y0051965D01*
X0421137D02*
X0422137Y0052965D01*
X0424136D01*
X0425136Y0051965D01*
Y0047966D01*
X0424136Y0046966D01*
X0422137D01*
X0421137Y0047966D01*
Y0051965D01*
X0427135Y0046966D02*
X0429135D01*
X0428135D01*
Y0052965D01*
X0427135Y0051965D01*
X0432133Y0052965D02*
X0436132D01*
Y0051965D01*
X0432133Y0047966D01*
Y0046966D01*
X0298199Y0051965D02*
X0297199Y0052965D01*
X0295200D01*
X0294200Y0051965D01*
Y0047966D01*
X0295200Y0046966D01*
X0297199D01*
X0298199Y0047966D01*
Y0049966D01*
X0296199D01*
X0304197Y0052965D02*
X0300198D01*
Y0046966D01*
X0304197D01*
X0300198Y0049966D02*
X0302197D01*
X0306196Y0046966D02*
Y0052965D01*
X0310195Y0046966D01*
Y0052965D01*
X0316193D02*
X0312194D01*
Y0046966D01*
X0316193D01*
X0312194Y0049966D02*
X0314194D01*
X0318192Y0046966D02*
Y0052965D01*
X0321191D01*
X0322191Y0051965D01*
Y0049966D01*
X0321191Y0048966D01*
X0318192D01*
X0320192D02*
X0322191Y0046966D01*
X0324190D02*
Y0050965D01*
X0326190Y0052965D01*
X0328189Y0050965D01*
Y0046966D01*
Y0049966D01*
X0324190D01*
X0330188Y0052965D02*
X0334187D01*
X0332188D01*
Y0046966D01*
X0340185Y0052965D02*
X0336186D01*
Y0046966D01*
X0340185D01*
X0336186Y0049966D02*
X0338186D01*
X0342184Y0052965D02*
Y0046966D01*
X0345183D01*
X0346183Y0047966D01*
Y0051965D01*
X0345183Y0052965D01*
X0342184D01*
X0372175Y0050965D02*
X0373175D01*
Y0049966D01*
X0372175D01*
Y0050965D01*
Y0047966D02*
X0373175D01*
Y0046966D01*
X0372175D01*
Y0047966D01*
X0046350Y0087833D02*
Y0091832D01*
X0048349Y0093831D01*
X0050349Y0091832D01*
Y0087833D01*
Y0090832D01*
X0046350D01*
X0052348Y0093831D02*
Y0087833D01*
X0056347D01*
X0058346Y0093831D02*
Y0087833D01*
X0062345D01*
X0070342D02*
Y0091832D01*
X0072342Y0093831D01*
X0074341Y0091832D01*
Y0087833D01*
Y0090832D01*
X0070342D01*
X0076340Y0087833D02*
Y0093831D01*
X0079339D01*
X0080339Y0092832D01*
Y0090832D01*
X0079339Y0089833D01*
X0076340D01*
X0078340D02*
X0080339Y0087833D01*
X0082338Y0093831D02*
X0086337D01*
X0084338D01*
Y0087833D01*
X0088336Y0093831D02*
Y0087833D01*
X0090336Y0089833D01*
X0092335Y0087833D01*
Y0093831D01*
X0097334D02*
X0095334D01*
X0094335Y0092832D01*
Y0088833D01*
X0095334Y0087833D01*
X0097334D01*
X0098333Y0088833D01*
Y0092832D01*
X0097334Y0093831D01*
X0100332Y0087833D02*
Y0093831D01*
X0103332D01*
X0104331Y0092832D01*
Y0090832D01*
X0103332Y0089833D01*
X0100332D01*
X0102332D02*
X0104331Y0087833D01*
X0106331Y0093831D02*
Y0087833D01*
Y0089833D01*
X0110329Y0093831D01*
X0107330Y0090832D01*
X0110329Y0087833D01*
X0118327Y0093831D02*
Y0089833D01*
X0120326Y0087833D01*
X0122325Y0089833D01*
Y0093831D01*
X0124325D02*
X0126324D01*
X0125324D01*
Y0087833D01*
X0124325D01*
X0126324D01*
X0133322Y0093831D02*
X0129323D01*
Y0087833D01*
X0133322D01*
X0129323Y0090832D02*
X0131323D01*
X0135321Y0093831D02*
Y0087833D01*
X0137321Y0089833D01*
X0139320Y0087833D01*
Y0093831D01*
X0145318D02*
X0141319D01*
Y0087833D01*
X0145318D01*
X0141319Y0090832D02*
X0143319D01*
X0147317Y0093831D02*
Y0087833D01*
X0150316D01*
X0151316Y0088833D01*
Y0092832D01*
X0150316Y0093831D01*
X0147317D01*
X0163312D02*
X0159313D01*
Y0090832D01*
X0161313D01*
X0159313D01*
Y0087833D01*
X0165312D02*
Y0093831D01*
X0168310D01*
X0169310Y0092832D01*
Y0090832D01*
X0168310Y0089833D01*
X0165312D01*
X0167311D02*
X0169310Y0087833D01*
X0174309Y0093831D02*
X0172309D01*
X0171310Y0092832D01*
Y0088833D01*
X0172309Y0087833D01*
X0174309D01*
X0175308Y0088833D01*
Y0092832D01*
X0174309Y0093831D01*
X0177308Y0087833D02*
Y0093831D01*
X0179307Y0091832D01*
X0181306Y0093831D01*
Y0087833D01*
X0189304Y0093831D02*
X0193303D01*
X0191303D01*
Y0087833D01*
X0198301Y0093831D02*
X0196301D01*
X0195302Y0092832D01*
Y0088833D01*
X0196301Y0087833D01*
X0198301D01*
X0199301Y0088833D01*
Y0092832D01*
X0198301Y0093831D01*
X0201300Y0087833D02*
Y0093831D01*
X0204299D01*
X0205299Y0092832D01*
Y0090832D01*
X0204299Y0089833D01*
X0201300D01*
X0217295Y0092832D02*
X0216295Y0093831D01*
X0214296D01*
X0213296Y0092832D01*
Y0091832D01*
X0214296Y0090832D01*
X0216295D01*
X0217295Y0089833D01*
Y0088833D01*
X0216295Y0087833D01*
X0214296D01*
X0213296Y0088833D01*
X0219294Y0093831D02*
X0221293D01*
X0220294D01*
Y0087833D01*
X0219294D01*
X0221293D01*
X0224292Y0093831D02*
Y0087833D01*
X0227291D01*
X0228291Y0088833D01*
Y0092832D01*
X0227291Y0093831D01*
X0224292D01*
X0234289D02*
X0230291D01*
Y0087833D01*
X0234289D01*
X0230291Y0090832D02*
X0232290D01*
X0462150Y0087833D02*
X0464149D01*
X0463150D01*
Y0093831D01*
X0462150Y0092832D01*
X0467148Y0087833D02*
Y0088833D01*
X0468148D01*
Y0087833D01*
X0467148D01*
X0472147Y0092832D02*
X0473146Y0093831D01*
X0475146D01*
X0476146Y0092832D01*
Y0088833D01*
X0475146Y0087833D01*
X0473146D01*
X0472147Y0088833D01*
Y0092832D01*
X0348550Y0087833D02*
Y0093831D01*
X0350549Y0091832D01*
X0352549Y0093831D01*
Y0087833D01*
X0358547Y0092832D02*
X0357547Y0093831D01*
X0355548D01*
X0354548Y0092832D01*
Y0088833D01*
X0355548Y0087833D01*
X0357547D01*
X0358547Y0088833D01*
X0360546Y0093831D02*
Y0088833D01*
X0361546Y0087833D01*
X0363545D01*
X0364545Y0088833D01*
Y0093831D01*
X0366544Y0092832D02*
X0367544Y0093831D01*
X0369543D01*
X0370543Y0092832D01*
Y0088833D01*
X0369543Y0087833D01*
X0367544D01*
X0366544Y0088833D01*
Y0092832D01*
X0376541Y0087833D02*
X0372542D01*
X0376541Y0091832D01*
Y0092832D01*
X0375541Y0093831D01*
X0373542D01*
X0372542Y0092832D01*
X0378540D02*
X0379540Y0093831D01*
X0381539D01*
X0382539Y0092832D01*
Y0091832D01*
X0381539Y0090832D01*
X0380540D01*
X0381539D01*
X0382539Y0089833D01*
Y0088833D01*
X0381539Y0087833D01*
X0379540D01*
X0378540Y0088833D01*
X0294000Y0093831D02*
Y0087833D01*
X0296999D01*
X0297999Y0088833D01*
Y0089833D01*
X0296999Y0090832D01*
X0294000D01*
X0296999D01*
X0297999Y0091832D01*
Y0092832D01*
X0296999Y0093831D01*
X0294000D01*
X0302997D02*
X0300998D01*
X0299998Y0092832D01*
Y0088833D01*
X0300998Y0087833D01*
X0302997D01*
X0303997Y0088833D01*
Y0092832D01*
X0302997Y0093831D01*
X0305996Y0087833D02*
Y0091832D01*
X0307996Y0093831D01*
X0309995Y0091832D01*
Y0087833D01*
Y0090832D01*
X0305996D01*
X0311994Y0087833D02*
Y0093831D01*
X0314993D01*
X0315993Y0092832D01*
Y0090832D01*
X0314993Y0089833D01*
X0311994D01*
X0313994D02*
X0315993Y0087833D01*
X0317992Y0093831D02*
Y0087833D01*
X0320991D01*
X0321991Y0088833D01*
Y0092832D01*
X0320991Y0093831D01*
X0317992D01*
X0330988Y0087833D02*
Y0093831D01*
X0332987D02*
Y0087833D01*
X0329988Y0091832D02*
X0332987D01*
X0333987D01*
X0329988Y0089833D02*
X0333987D01*
X0335986Y0091832D02*
X0336986D01*
Y0090832D01*
X0335986D01*
Y0091832D01*
Y0088833D02*
X0336986D01*
Y0087833D01*
X0335986D01*
Y0088833D01*
X0046350Y0073549D02*
Y0067551D01*
X0050349D01*
X0052348D02*
Y0071549D01*
X0054347Y0073549D01*
X0056347Y0071549D01*
Y0067551D01*
Y0070550D01*
X0052348D01*
X0058346Y0073549D02*
Y0072549D01*
X0060346Y0070550D01*
X0062345Y0072549D01*
Y0073549D01*
X0060346Y0070550D02*
Y0067551D01*
X0068343Y0073549D02*
X0064344D01*
Y0067551D01*
X0068343D01*
X0064344Y0070550D02*
X0066343D01*
X0070342Y0067551D02*
Y0073549D01*
X0073341D01*
X0074341Y0072549D01*
Y0070550D01*
X0073341Y0069550D01*
X0070342D01*
X0072342D02*
X0074341Y0067551D01*
X0082338D02*
Y0073549D01*
X0086337Y0067551D01*
Y0073549D01*
X0088336Y0067551D02*
Y0071549D01*
X0090336Y0073549D01*
X0092335Y0071549D01*
Y0067551D01*
Y0070550D01*
X0088336D01*
X0094335Y0067551D02*
Y0073549D01*
X0096334Y0071549D01*
X0098333Y0073549D01*
Y0067551D01*
X0104331Y0073549D02*
X0100332D01*
Y0067551D01*
X0104331D01*
X0100332Y0070550D02*
X0102332D01*
X0112329Y0069550D02*
X0116327D01*
X0112329Y0071549D02*
X0116327D01*
X0046350Y0046966D02*
Y0052965D01*
X0049349D01*
X0050349Y0051965D01*
Y0049966D01*
X0049349Y0048966D01*
X0046350D01*
X0052348Y0052965D02*
Y0046966D01*
X0056347D01*
X0061345Y0052965D02*
X0059346D01*
X0058346Y0051965D01*
Y0047966D01*
X0059346Y0046966D01*
X0061345D01*
X0062345Y0047966D01*
Y0051965D01*
X0061345Y0052965D01*
X0064344D02*
X0068343D01*
X0066343D01*
Y0046966D01*
X0076340D02*
Y0052965D01*
X0080339Y0046966D01*
Y0052965D01*
X0082338Y0046966D02*
Y0050965D01*
X0084338Y0052965D01*
X0086337Y0050965D01*
Y0046966D01*
Y0049966D01*
X0082338D01*
X0088336Y0046966D02*
Y0052965D01*
X0090336Y0050965D01*
X0092335Y0052965D01*
Y0046966D01*
X0098333Y0052965D02*
X0094335D01*
Y0046966D01*
X0098333D01*
X0094335Y0049966D02*
X0096334D01*
X0106331Y0048966D02*
X0110329D01*
X0106331Y0050965D02*
X0110329D01*
X0454050Y0051965D02*
X0455050Y0052965D01*
X0457049D01*
X0458049Y0051965D01*
Y0050965D01*
X0457049Y0049966D01*
X0456049D01*
X0457049D01*
X0458049Y0048966D01*
Y0047966D01*
X0457049Y0046966D01*
X0455050D01*
X0454050Y0047966D01*
X0460048Y0050965D02*
X0461048D01*
Y0049966D01*
X0460048D01*
Y0050965D01*
Y0047966D02*
X0461048D01*
Y0046966D01*
X0460048D01*
Y0047966D01*
X0469045Y0046966D02*
X0465046D01*
X0469045Y0050965D01*
Y0051965D01*
X0468046Y0052965D01*
X0466046D01*
X0465046Y0051965D01*
X0471044Y0052965D02*
X0475043D01*
Y0051965D01*
X0471044Y0047966D01*
Y0046966D01*
X0477043Y0050965D02*
X0478042D01*
Y0049966D01*
X0477043D01*
Y0050965D01*
Y0047966D02*
X0478042D01*
Y0046966D01*
X0477043D01*
Y0047966D01*
X0486040Y0052965D02*
X0482041D01*
Y0049966D01*
X0484040Y0050965D01*
X0485040D01*
X0486040Y0049966D01*
Y0047966D01*
X0485040Y0046966D01*
X0483041D01*
X0482041Y0047966D01*
X0488039Y0051965D02*
X0489039Y0052965D01*
X0491038D01*
X0492038Y0051965D01*
Y0050965D01*
X0491038Y0049966D01*
X0490038D01*
X0491038D01*
X0492038Y0048966D01*
Y0047966D01*
X0491038Y0046966D01*
X0489039D01*
X0488039Y0047966D01*
X0500035Y0046966D02*
Y0052965D01*
X0503034D01*
X0504034Y0051965D01*
Y0049966D01*
X0503034Y0048966D01*
X0500035D01*
X0506033Y0046966D02*
Y0052965D01*
X0508033Y0050965D01*
X0510032Y0052965D01*
Y0046966D01*
X0580500Y0052965D02*
X0584499D01*
X0582499D01*
Y0046966D01*
X0590497Y0052965D02*
X0586498D01*
Y0046966D01*
X0590497D01*
X0586498Y0049966D02*
X0588497D01*
X0592496Y0052965D02*
X0596495Y0046966D01*
Y0052965D02*
X0592496Y0046966D01*
X0598494D02*
Y0050965D01*
X0600493Y0052965D01*
X0602493Y0050965D01*
Y0046966D01*
Y0049966D01*
X0598494D01*
X0608491Y0051965D02*
X0607491Y0052965D01*
X0605492D01*
X0604492Y0051965D01*
Y0050965D01*
X0605492Y0049966D01*
X0607491D01*
X0608491Y0048966D01*
Y0047966D01*
X0607491Y0046966D01*
X0605492D01*
X0604492Y0047966D01*
X0616488Y0052965D02*
X0618488D01*
X0617488D01*
Y0046966D01*
X0616488D01*
X0618488D01*
X0621487D02*
Y0052965D01*
X0625486Y0046966D01*
Y0052965D01*
X0631484Y0051965D02*
X0630484Y0052965D01*
X0628484D01*
X0627485Y0051965D01*
Y0050965D01*
X0628484Y0049966D01*
X0630484D01*
X0631484Y0048966D01*
Y0047966D01*
X0630484Y0046966D01*
X0628484D01*
X0627485Y0047966D01*
X0633483Y0052965D02*
X0637482D01*
X0635482D01*
Y0046966D01*
X0639481D02*
Y0052965D01*
X0642480D01*
X0643480Y0051965D01*
Y0049966D01*
X0642480Y0048966D01*
X0639481D01*
X0641480D02*
X0643480Y0046966D01*
X0645479Y0052965D02*
Y0047966D01*
X0646479Y0046966D01*
X0648478D01*
X0649478Y0047966D01*
Y0052965D01*
X0651477Y0046966D02*
Y0052965D01*
X0653476Y0050965D01*
X0655476Y0052965D01*
Y0046966D01*
X0661474Y0052965D02*
X0657475D01*
Y0046966D01*
X0661474D01*
X0657475Y0049966D02*
X0659474D01*
X0663473Y0046966D02*
Y0052965D01*
X0667472Y0046966D01*
Y0052965D01*
X0669471D02*
X0673470D01*
X0671471D01*
Y0046966D01*
X0679468Y0051965D02*
X0678468Y0052965D01*
X0676469D01*
X0675469Y0051965D01*
Y0050965D01*
X0676469Y0049966D01*
X0678468D01*
X0679468Y0048966D01*
Y0047966D01*
X0678468Y0046966D01*
X0676469D01*
X0675469Y0047966D01*
X0294000Y0073498D02*
X0297999D01*
X0295999D01*
Y0067500D01*
X0299998Y0073498D02*
X0301997D01*
X0300998D01*
Y0067500D01*
X0299998D01*
X0301997D01*
X0304996Y0073498D02*
Y0067500D01*
X0307996D01*
X0308995Y0068500D01*
Y0072498D01*
X0307996Y0073498D01*
X0304996D01*
X0317992Y0067500D02*
Y0073498D01*
X0319992D02*
Y0067500D01*
X0316993Y0071499D02*
X0319992D01*
X0320991D01*
X0316993Y0069499D02*
X0320991D01*
X0322991Y0071499D02*
X0323990D01*
Y0070499D01*
X0322991D01*
Y0071499D01*
Y0068500D02*
X0323990D01*
Y0067500D01*
X0322991D01*
Y0068500D01*
X0348550Y0067500D02*
Y0073498D01*
X0352549Y0067500D01*
Y0073498D01*
X0354548Y0067500D02*
X0358547Y0071499D01*
X0360546Y0067500D02*
Y0071499D01*
X0362545Y0073498D01*
X0364545Y0071499D01*
Y0067500D01*
Y0070499D01*
X0360546D01*
G54D176*
X0453950Y0762262D02*
X0455755Y0764067D01*
X0453950Y0756262D02*
X0459996Y0762308D01*
X0460667Y0762979D02*
X0461052Y0763364D01*
X0453950Y0750262D02*
X0467755Y0764067D01*
X0453950Y0744262D02*
X0473755Y0764067D01*
X0453950Y0738262D02*
X0479755Y0764067D01*
X0454828Y0733140D02*
X0485319Y0763631D01*
X0453950Y0726262D02*
X0491755Y0764067D01*
X0453950Y0720262D02*
X0497755Y0764067D01*
X0453950Y0714262D02*
X0499338Y0759650D01*
X0453950Y0708262D02*
X0499338Y0753650D01*
X0453950Y0702262D02*
X0499338Y0747650D01*
X0453950Y0696262D02*
X0499338Y0741650D01*
X0453950Y0690262D02*
X0499338Y0735650D01*
X0453950Y0684262D02*
X0499186Y0729498D01*
X0453950Y0678262D02*
X0499338Y0723650D01*
X0453950Y0672262D02*
X0499338Y0717650D01*
X0453950Y0666262D02*
X0499338Y0711650D01*
X0453950Y0660262D02*
X0499338Y0705650D01*
X0453950Y0654262D02*
X0499338Y0699650D01*
X0453950Y0648262D02*
X0499338Y0693650D01*
X0453950Y0642262D02*
X0499338Y0687650D01*
X0457284Y0639596D02*
X0499338Y0681650D01*
X0463284Y0639596D02*
X0499338Y0675650D01*
X0469284Y0639596D02*
X0499338Y0669650D01*
X0475284Y0639596D02*
X0499338Y0663650D01*
X0481284Y0639596D02*
X0499338Y0657650D01*
X0487403Y0639715D02*
X0499338Y0651650D01*
X0493294Y0639607D02*
X0499338Y0645650D01*
X0795862Y0895045D02*
X0799830Y0899013D01*
X0795862Y0889045D02*
X0805830Y0899013D01*
X0799830Y0887013D02*
X0811830Y0899013D01*
X0805830Y0887013D02*
X0817830Y0899013D01*
X0811830Y0887013D02*
X0823830Y0899013D01*
X0817830Y0887013D02*
X0829830Y0899013D01*
X0823830Y0887013D02*
X0835830Y0899013D01*
X0829830Y0887013D02*
X0841830Y0899013D01*
X0835830Y0887013D02*
X0847830Y0899013D01*
X0841830Y0887013D02*
X0853830Y0899013D01*
X0847830Y0887013D02*
X0859830Y0899013D01*
X0853830Y0887013D02*
X0865830Y0899013D01*
X0859830Y0887013D02*
X0871830Y0899013D01*
X0865830Y0887013D02*
X0877830Y0899013D01*
X0871830Y0887013D02*
X0883830Y0899013D01*
X0877830Y0887013D02*
X0889830Y0899013D01*
X0883830Y0887013D02*
X0895830Y0899013D01*
X0889830Y0887013D02*
X0901830Y0899013D01*
X0895830Y0887013D02*
X0907830Y0899013D01*
X0901830Y0887013D02*
X0907830Y0893013D01*
X0795862Y0883045D02*
X0799830Y0887013D01*
X0795862Y0877045D02*
X0805830Y0887013D01*
X0799830Y0875013D02*
X0811830Y0887013D01*
X0805830Y0875013D02*
X0817830Y0887013D01*
X0811830Y0875013D02*
X0823830Y0887013D01*
X0817830Y0875013D02*
X0829830Y0887013D01*
X0823830Y0875013D02*
X0835830Y0887013D01*
X0829830Y0875013D02*
X0841830Y0887013D01*
X0835830Y0875013D02*
X0847830Y0887013D01*
X0841830Y0875013D02*
X0853830Y0887013D01*
X0847830Y0875013D02*
X0859830Y0887013D01*
X0853830Y0875013D02*
X0865830Y0887013D01*
X0859830Y0875013D02*
X0871830Y0887013D01*
X0865830Y0875013D02*
X0877830Y0887013D01*
X0871830Y0875013D02*
X0883830Y0887013D01*
X0877830Y0875013D02*
X0889830Y0887013D01*
X0883830Y0875013D02*
X0895830Y0887013D01*
X0889830Y0875013D02*
X0901830Y0887013D01*
X0895830Y0875013D02*
X0907830Y0887013D01*
X0901830Y0875013D02*
X0907830Y0881013D01*
X0795862Y0871045D02*
X0799830Y0875013D01*
X0795862Y0865045D02*
X0805830Y0875013D01*
X0799830Y0863013D02*
X0811830Y0875013D01*
X0805830Y0863013D02*
X0817830Y0875013D01*
X0811830Y0863013D02*
X0823830Y0875013D01*
X0817830Y0863013D02*
X0829830Y0875013D01*
X0823830Y0863013D02*
X0835830Y0875013D01*
X0829830Y0863013D02*
X0841830Y0875013D01*
X0835830Y0863013D02*
X0847830Y0875013D01*
X0841830Y0863013D02*
X0853830Y0875013D01*
X0847830Y0863013D02*
X0859830Y0875013D01*
X0853830Y0863013D02*
X0865830Y0875013D01*
X0859830Y0863013D02*
X0871830Y0875013D01*
X0865830Y0863013D02*
X0877830Y0875013D01*
X0871830Y0863013D02*
X0883830Y0875013D01*
X0877830Y0863013D02*
X0889830Y0875013D01*
X0883830Y0863013D02*
X0895830Y0875013D01*
X0889830Y0863013D02*
X0901830Y0875013D01*
X0895830Y0863013D02*
X0907830Y0875013D01*
X0901830Y0863013D02*
X0907830Y0869013D01*
X0795862Y0859045D02*
X0799830Y0863013D01*
X0795862Y0853045D02*
X0805830Y0863013D01*
X0799830Y0851013D02*
X0811830Y0863013D01*
X0805830Y0851013D02*
X0817830Y0863013D01*
X0811830Y0851013D02*
X0823830Y0863013D01*
X0817830Y0851013D02*
X0829830Y0863013D01*
X0823830Y0851013D02*
X0835830Y0863013D01*
X0829830Y0851013D02*
X0841830Y0863013D01*
X0835830Y0851013D02*
X0847830Y0863013D01*
X0841830Y0851013D02*
X0853830Y0863013D01*
X0847830Y0851013D02*
X0859830Y0863013D01*
X0853830Y0851013D02*
X0865830Y0863013D01*
X0859830Y0851013D02*
X0871830Y0863013D01*
X0865830Y0851013D02*
X0877830Y0863013D01*
X0871830Y0851013D02*
X0883830Y0863013D01*
X0877830Y0851013D02*
X0889830Y0863013D01*
X0883830Y0851013D02*
X0895830Y0863013D01*
X0889830Y0851013D02*
X0901830Y0863013D01*
X0895830Y0851013D02*
X0907830Y0863013D01*
X0901830Y0851013D02*
X0907830Y0857013D01*
X0795862Y0847045D02*
X0799830Y0851013D01*
X0795862Y0841045D02*
X0805830Y0851013D01*
X0799830Y0839013D02*
X0811830Y0851013D01*
X0805830Y0839013D02*
X0817830Y0851013D01*
X0811830Y0839013D02*
X0823830Y0851013D01*
X0817830Y0839013D02*
X0829830Y0851013D01*
X0823830Y0839013D02*
X0835830Y0851013D01*
X0829830Y0839013D02*
X0841830Y0851013D01*
X0835830Y0839013D02*
X0847830Y0851013D01*
X0841830Y0839013D02*
X0853830Y0851013D01*
X0847830Y0839013D02*
X0859830Y0851013D01*
X0853830Y0839013D02*
X0865830Y0851013D01*
X0859830Y0839013D02*
X0871830Y0851013D01*
X0865830Y0839013D02*
X0877830Y0851013D01*
X0871830Y0839013D02*
X0883830Y0851013D01*
X0877830Y0839013D02*
X0889830Y0851013D01*
X0883830Y0839013D02*
X0895830Y0851013D01*
X0889830Y0839013D02*
X0901830Y0851013D01*
X0895830Y0839013D02*
X0907830Y0851013D01*
X0901830Y0839013D02*
X0907830Y0845013D01*
X0795862Y0835045D02*
X0799830Y0839013D01*
X0795862Y0829045D02*
X0805830Y0839013D01*
X0799830Y0827013D02*
X0811830Y0839013D01*
X0805830Y0827013D02*
X0817830Y0839013D01*
X0811830Y0827013D02*
X0823830Y0839013D01*
X0817830Y0827013D02*
X0829830Y0839013D01*
X0823830Y0827013D02*
X0835830Y0839013D01*
X0829830Y0827013D02*
X0841830Y0839013D01*
X0835830Y0827013D02*
X0847830Y0839013D01*
X0841830Y0827013D02*
X0853830Y0839013D01*
X0847830Y0827013D02*
X0859830Y0839013D01*
X0853830Y0827013D02*
X0865830Y0839013D01*
X0859830Y0827013D02*
X0871830Y0839013D01*
X0865830Y0827013D02*
X0877830Y0839013D01*
X0871830Y0827013D02*
X0883830Y0839013D01*
X0877830Y0827013D02*
X0889830Y0839013D01*
X0883830Y0827013D02*
X0895830Y0839013D01*
X0889830Y0827013D02*
X0901830Y0839013D01*
X0895830Y0827013D02*
X0907830Y0839013D01*
X0901830Y0827013D02*
X0907830Y0833013D01*
X0795862Y0823045D02*
X0799830Y0827013D01*
X0795862Y0817045D02*
X0805830Y0827013D01*
X0799830Y0815013D02*
X0811830Y0827013D01*
X0805830Y0815013D02*
X0817830Y0827013D01*
X0811830Y0815013D02*
X0823830Y0827013D01*
X0817830Y0815013D02*
X0829830Y0827013D01*
X0823830Y0815013D02*
X0835830Y0827013D01*
X0829830Y0815013D02*
X0841830Y0827013D01*
X0835830Y0815013D02*
X0847830Y0827013D01*
X0841830Y0815013D02*
X0853830Y0827013D01*
X0847830Y0815013D02*
X0859830Y0827013D01*
X0853830Y0815013D02*
X0865830Y0827013D01*
X0859830Y0815013D02*
X0871830Y0827013D01*
X0865830Y0815013D02*
X0877830Y0827013D01*
X0871830Y0815013D02*
X0883830Y0827013D01*
X0877830Y0815013D02*
X0889830Y0827013D01*
X0883830Y0815013D02*
X0895830Y0827013D01*
X0889830Y0815013D02*
X0901830Y0827013D01*
X0895830Y0815013D02*
X0907830Y0827013D01*
X0901830Y0815013D02*
X0907830Y0821013D01*
X0795862Y0811045D02*
X0799830Y0815013D01*
X0795862Y0805045D02*
X0805830Y0815013D01*
X0799830Y0803013D02*
X0811830Y0815013D01*
X0805830Y0803013D02*
X0817830Y0815013D01*
X0811830Y0803013D02*
X0823830Y0815013D01*
X0817830Y0803013D02*
X0829830Y0815013D01*
X0823830Y0803013D02*
X0835830Y0815013D01*
X0829830Y0803013D02*
X0841830Y0815013D01*
X0835830Y0803013D02*
X0847830Y0815013D01*
X0841830Y0803013D02*
X0853830Y0815013D01*
X0847830Y0803013D02*
X0859830Y0815013D01*
X0853830Y0803013D02*
X0865830Y0815013D01*
X0859830Y0803013D02*
X0871830Y0815013D01*
X0865830Y0803013D02*
X0877830Y0815013D01*
X0871830Y0803013D02*
X0883830Y0815013D01*
X0877830Y0803013D02*
X0889830Y0815013D01*
X0883830Y0803013D02*
X0895830Y0815013D01*
X0889830Y0803013D02*
X0901830Y0815013D01*
X0895830Y0803013D02*
X0907830Y0815013D01*
X0901830Y0803013D02*
X0907830Y0809013D01*
X0795862Y0799045D02*
X0799830Y0803013D01*
X0795862Y0793045D02*
X0805830Y0803013D01*
X0799830Y0791013D02*
X0811830Y0803013D01*
X0805830Y0791013D02*
X0817830Y0803013D01*
X0811830Y0791013D02*
X0823830Y0803013D01*
X0817830Y0791013D02*
X0829830Y0803013D01*
X0823830Y0791013D02*
X0835830Y0803013D01*
X0829830Y0791013D02*
X0841830Y0803013D01*
X0835830Y0791013D02*
X0847830Y0803013D01*
X0841830Y0791013D02*
X0853830Y0803013D01*
X0847830Y0791013D02*
X0859830Y0803013D01*
X0853830Y0791013D02*
X0865830Y0803013D01*
X0859830Y0791013D02*
X0871830Y0803013D01*
X0865830Y0791013D02*
X0877830Y0803013D01*
X0871830Y0791013D02*
X0883830Y0803013D01*
X0877830Y0791013D02*
X0889830Y0803013D01*
X0883830Y0791013D02*
X0895830Y0803013D01*
X0889830Y0791013D02*
X0901830Y0803013D01*
X0895830Y0791013D02*
X0907830Y0803013D01*
X0901830Y0791013D02*
X0907830Y0797013D01*
X0795862Y0787045D02*
X0799830Y0791013D01*
X0795862Y0781045D02*
X0805830Y0791013D01*
X0799830Y0779013D02*
X0811830Y0791013D01*
X0805830Y0779013D02*
X0817830Y0791013D01*
X0811830Y0779013D02*
X0823830Y0791013D01*
X0817830Y0779013D02*
X0829830Y0791013D01*
X0823830Y0779013D02*
X0835830Y0791013D01*
X0829830Y0779013D02*
X0841830Y0791013D01*
X0835830Y0779013D02*
X0847830Y0791013D01*
X0841830Y0779013D02*
X0853830Y0791013D01*
X0847830Y0779013D02*
X0859830Y0791013D01*
X0853830Y0779013D02*
X0865830Y0791013D01*
X0859830Y0779013D02*
X0871830Y0791013D01*
X0865830Y0779013D02*
X0877830Y0791013D01*
X0871830Y0779013D02*
X0883830Y0791013D01*
X0877830Y0779013D02*
X0889830Y0791013D01*
X0883830Y0779013D02*
X0895830Y0791013D01*
X0889830Y0779013D02*
X0901830Y0791013D01*
X0895830Y0779013D02*
X0907830Y0791013D01*
X0901830Y0779013D02*
X0907830Y0785013D01*
X0795862Y0775045D02*
X0799830Y0779013D01*
X0795862Y0769045D02*
X0805830Y0779013D01*
X0799830Y0767013D02*
X0811830Y0779013D01*
X0805830Y0767013D02*
X0817830Y0779013D01*
X0811830Y0767013D02*
X0823830Y0779013D01*
X0817830Y0767013D02*
X0829830Y0779013D01*
X0823830Y0767013D02*
X0835830Y0779013D01*
X0829830Y0767013D02*
X0841830Y0779013D01*
X0835830Y0767013D02*
X0847830Y0779013D01*
X0841830Y0767013D02*
X0853830Y0779013D01*
X0847830Y0767013D02*
X0859830Y0779013D01*
X0853830Y0767013D02*
X0865830Y0779013D01*
X0859830Y0767013D02*
X0871830Y0779013D01*
X0865830Y0767013D02*
X0877830Y0779013D01*
X0871830Y0767013D02*
X0883830Y0779013D01*
X0877830Y0767013D02*
X0889830Y0779013D01*
X0883830Y0767013D02*
X0895830Y0779013D01*
X0889830Y0767013D02*
X0901830Y0779013D01*
X0895830Y0767013D02*
X0907830Y0779013D01*
X0901830Y0767013D02*
X0907830Y0773013D01*
M02*
