G04 Layer_Physical_Order=1*
G04 Layer_Color=255*
%FSAX25Y25*%
%MOIN*%
G70*
G01*
G75*
%ADD10R,0.02362X0.03150*%
%ADD11R,0.03150X0.02362*%
G04:AMPARAMS|DCode=12|XSize=57.09mil|YSize=39.37mil|CornerRadius=1.97mil|HoleSize=0mil|Usage=FLASHONLY|Rotation=0.000|XOffset=0mil|YOffset=0mil|HoleType=Round|Shape=RoundedRectangle|*
%AMROUNDEDRECTD12*
21,1,0.05709,0.03543,0,0,0.0*
21,1,0.05315,0.03937,0,0,0.0*
1,1,0.00394,0.02658,-0.01772*
1,1,0.00394,-0.02658,-0.01772*
1,1,0.00394,-0.02658,0.01772*
1,1,0.00394,0.02658,0.01772*
%
%ADD12ROUNDEDRECTD12*%
G04:AMPARAMS|DCode=13|XSize=35.43mil|YSize=51.18mil|CornerRadius=1.95mil|HoleSize=0mil|Usage=FLASHONLY|Rotation=0.000|XOffset=0mil|YOffset=0mil|HoleType=Round|Shape=RoundedRectangle|*
%AMROUNDEDRECTD13*
21,1,0.03543,0.04728,0,0,0.0*
21,1,0.03154,0.05118,0,0,0.0*
1,1,0.00390,0.01577,-0.02364*
1,1,0.00390,-0.01577,-0.02364*
1,1,0.00390,-0.01577,0.02364*
1,1,0.00390,0.01577,0.02364*
%
%ADD13ROUNDEDRECTD13*%
G04:AMPARAMS|DCode=14|XSize=23.62mil|YSize=31.5mil|CornerRadius=0mil|HoleSize=0mil|Usage=FLASHONLY|Rotation=225.000|XOffset=0mil|YOffset=0mil|HoleType=Round|Shape=Rectangle|*
%AMROTATEDRECTD14*
4,1,4,-0.00278,0.01949,0.01949,-0.00278,0.00278,-0.01949,-0.01949,0.00278,-0.00278,0.01949,0.0*
%
%ADD14ROTATEDRECTD14*%

%ADD15R,0.03150X0.03150*%
%ADD16R,0.03740X0.03937*%
%ADD17R,0.03937X0.03740*%
%ADD18R,0.00787X0.01181*%
%ADD19R,0.00787X0.01378*%
%ADD20R,0.02913X0.10984*%
%ADD21R,0.05512X0.04724*%
%ADD22R,0.01181X0.02362*%
%ADD23R,0.02165X0.00984*%
%ADD24R,0.02165X0.00787*%
%ADD25R,0.01575X0.05315*%
%ADD26R,0.07087X0.07480*%
%ADD27R,0.09843X0.09843*%
%ADD28R,0.03937X0.09843*%
%ADD29R,0.04724X0.05512*%
G04:AMPARAMS|DCode=30|XSize=57.09mil|YSize=39.37mil|CornerRadius=1.97mil|HoleSize=0mil|Usage=FLASHONLY|Rotation=270.000|XOffset=0mil|YOffset=0mil|HoleType=Round|Shape=RoundedRectangle|*
%AMROUNDEDRECTD30*
21,1,0.05709,0.03543,0,0,270.0*
21,1,0.05315,0.03937,0,0,270.0*
1,1,0.00394,-0.01772,-0.02658*
1,1,0.00394,-0.01772,0.02658*
1,1,0.00394,0.01772,0.02658*
1,1,0.00394,0.01772,-0.02658*
%
%ADD30ROUNDEDRECTD30*%
G04:AMPARAMS|DCode=31|XSize=35.43mil|YSize=51.18mil|CornerRadius=1.95mil|HoleSize=0mil|Usage=FLASHONLY|Rotation=270.000|XOffset=0mil|YOffset=0mil|HoleType=Round|Shape=RoundedRectangle|*
%AMROUNDEDRECTD31*
21,1,0.03543,0.04728,0,0,270.0*
21,1,0.03154,0.05118,0,0,270.0*
1,1,0.00390,-0.02364,-0.01577*
1,1,0.00390,-0.02364,0.01577*
1,1,0.00390,0.02364,0.01577*
1,1,0.00390,0.02364,-0.01577*
%
%ADD31ROUNDEDRECTD31*%
G04:AMPARAMS|DCode=32|XSize=23.62mil|YSize=57.09mil|CornerRadius=2.01mil|HoleSize=0mil|Usage=FLASHONLY|Rotation=0.000|XOffset=0mil|YOffset=0mil|HoleType=Round|Shape=RoundedRectangle|*
%AMROUNDEDRECTD32*
21,1,0.02362,0.05307,0,0,0.0*
21,1,0.01961,0.05709,0,0,0.0*
1,1,0.00402,0.00980,-0.02654*
1,1,0.00402,-0.00980,-0.02654*
1,1,0.00402,-0.00980,0.02654*
1,1,0.00402,0.00980,0.02654*
%
%ADD32ROUNDEDRECTD32*%
%ADD33R,0.02992X0.06496*%
G04:AMPARAMS|DCode=34|XSize=11.81mil|YSize=23.62mil|CornerRadius=1.95mil|HoleSize=0mil|Usage=FLASHONLY|Rotation=180.000|XOffset=0mil|YOffset=0mil|HoleType=Round|Shape=RoundedRectangle|*
%AMROUNDEDRECTD34*
21,1,0.01181,0.01972,0,0,180.0*
21,1,0.00791,0.02362,0,0,180.0*
1,1,0.00390,-0.00396,0.00986*
1,1,0.00390,0.00396,0.00986*
1,1,0.00390,0.00396,-0.00986*
1,1,0.00390,-0.00396,-0.00986*
%
%ADD34ROUNDEDRECTD34*%
G04:AMPARAMS|DCode=35|XSize=64.96mil|YSize=94.49mil|CornerRadius=1.95mil|HoleSize=0mil|Usage=FLASHONLY|Rotation=90.000|XOffset=0mil|YOffset=0mil|HoleType=Round|Shape=RoundedRectangle|*
%AMROUNDEDRECTD35*
21,1,0.06496,0.09059,0,0,90.0*
21,1,0.06106,0.09449,0,0,90.0*
1,1,0.00390,0.04530,0.03053*
1,1,0.00390,0.04530,-0.03053*
1,1,0.00390,-0.04530,-0.03053*
1,1,0.00390,-0.04530,0.03053*
%
%ADD35ROUNDEDRECTD35*%
G04:AMPARAMS|DCode=36|XSize=7.87mil|YSize=55.12mil|CornerRadius=0mil|HoleSize=0mil|Usage=FLASHONLY|Rotation=315.000|XOffset=0mil|YOffset=0mil|HoleType=Round|Shape=Round|*
%AMOVALD36*
21,1,0.04724,0.00787,0.00000,0.00000,45.0*
1,1,0.00787,-0.01670,-0.01670*
1,1,0.00787,0.01670,0.01670*
%
%ADD36OVALD36*%

G04:AMPARAMS|DCode=37|XSize=7.87mil|YSize=55.12mil|CornerRadius=0mil|HoleSize=0mil|Usage=FLASHONLY|Rotation=45.000|XOffset=0mil|YOffset=0mil|HoleType=Round|Shape=Round|*
%AMOVALD37*
21,1,0.04724,0.00787,0.00000,0.00000,135.0*
1,1,0.00787,0.01670,-0.01670*
1,1,0.00787,-0.01670,0.01670*
%
%ADD37OVALD37*%

%ADD38R,0.05118X0.07284*%
%ADD39R,0.06299X0.13386*%
%ADD40R,0.10630X0.05118*%
%ADD41O,0.00787X0.05512*%
%ADD42O,0.05512X0.00787*%
%ADD43R,0.02362X0.01181*%
%ADD44R,0.00984X0.02165*%
%ADD45R,0.00787X0.02165*%
G04:AMPARAMS|DCode=46|XSize=17.72mil|YSize=54.33mil|CornerRadius=1.95mil|HoleSize=0mil|Usage=FLASHONLY|Rotation=0.000|XOffset=0mil|YOffset=0mil|HoleType=Round|Shape=RoundedRectangle|*
%AMROUNDEDRECTD46*
21,1,0.01772,0.05043,0,0,0.0*
21,1,0.01382,0.05433,0,0,0.0*
1,1,0.00390,0.00691,-0.02522*
1,1,0.00390,-0.00691,-0.02522*
1,1,0.00390,-0.00691,0.02522*
1,1,0.00390,0.00691,0.02522*
%
%ADD46ROUNDEDRECTD46*%
G04:AMPARAMS|DCode=47|XSize=54.13mil|YSize=74.8mil|CornerRadius=1.9mil|HoleSize=0mil|Usage=FLASHONLY|Rotation=0.000|XOffset=0mil|YOffset=0mil|HoleType=Round|Shape=RoundedRectangle|*
%AMROUNDEDRECTD47*
21,1,0.05413,0.07101,0,0,0.0*
21,1,0.05034,0.07480,0,0,0.0*
1,1,0.00379,0.02517,-0.03551*
1,1,0.00379,-0.02517,-0.03551*
1,1,0.00379,-0.02517,0.03551*
1,1,0.00379,0.02517,0.03551*
%
%ADD47ROUNDEDRECTD47*%
G04:AMPARAMS|DCode=48|XSize=58.07mil|YSize=82.68mil|CornerRadius=2.03mil|HoleSize=0mil|Usage=FLASHONLY|Rotation=0.000|XOffset=0mil|YOffset=0mil|HoleType=Round|Shape=RoundedRectangle|*
%AMROUNDEDRECTD48*
21,1,0.05807,0.07861,0,0,0.0*
21,1,0.05401,0.08268,0,0,0.0*
1,1,0.00407,0.02700,-0.03931*
1,1,0.00407,-0.02700,-0.03931*
1,1,0.00407,-0.02700,0.03931*
1,1,0.00407,0.02700,0.03931*
%
%ADD48ROUNDEDRECTD48*%
G04:AMPARAMS|DCode=49|XSize=64.96mil|YSize=94.49mil|CornerRadius=1.95mil|HoleSize=0mil|Usage=FLASHONLY|Rotation=0.000|XOffset=0mil|YOffset=0mil|HoleType=Round|Shape=RoundedRectangle|*
%AMROUNDEDRECTD49*
21,1,0.06496,0.09059,0,0,0.0*
21,1,0.06106,0.09449,0,0,0.0*
1,1,0.00390,0.03053,-0.04530*
1,1,0.00390,-0.03053,-0.04530*
1,1,0.00390,-0.03053,0.04530*
1,1,0.00390,0.03053,0.04530*
%
%ADD49ROUNDEDRECTD49*%
G04:AMPARAMS|DCode=50|XSize=11.81mil|YSize=23.62mil|CornerRadius=1.95mil|HoleSize=0mil|Usage=FLASHONLY|Rotation=90.000|XOffset=0mil|YOffset=0mil|HoleType=Round|Shape=RoundedRectangle|*
%AMROUNDEDRECTD50*
21,1,0.01181,0.01972,0,0,90.0*
21,1,0.00791,0.02362,0,0,90.0*
1,1,0.00390,0.00986,0.00396*
1,1,0.00390,0.00986,-0.00396*
1,1,0.00390,-0.00986,-0.00396*
1,1,0.00390,-0.00986,0.00396*
%
%ADD50ROUNDEDRECTD50*%
G04:AMPARAMS|DCode=51|XSize=15.75mil|YSize=33.47mil|CornerRadius=1.97mil|HoleSize=0mil|Usage=FLASHONLY|Rotation=90.000|XOffset=0mil|YOffset=0mil|HoleType=Round|Shape=RoundedRectangle|*
%AMROUNDEDRECTD51*
21,1,0.01575,0.02953,0,0,90.0*
21,1,0.01181,0.03347,0,0,90.0*
1,1,0.00394,0.01476,0.00591*
1,1,0.00394,0.01476,-0.00591*
1,1,0.00394,-0.01476,-0.00591*
1,1,0.00394,-0.01476,0.00591*
%
%ADD51ROUNDEDRECTD51*%
%ADD52R,0.03150X0.03150*%
%ADD53C,0.01300*%
%ADD54C,0.01000*%
%ADD55C,0.00900*%
%ADD56C,0.01500*%
%ADD57C,0.00600*%
%ADD58C,0.00800*%
%ADD59C,0.02000*%
%ADD60C,0.02500*%
%ADD61C,0.01200*%
%ADD62C,0.00700*%
%ADD63C,0.00866*%
%ADD64R,0.05512X0.07480*%
%ADD65C,0.08000*%
G04:AMPARAMS|DCode=66|XSize=59.06mil|YSize=59.06mil|CornerRadius=2.07mil|HoleSize=0mil|Usage=FLASHONLY|Rotation=270.000|XOffset=0mil|YOffset=0mil|HoleType=Round|Shape=RoundedRectangle|*
%AMROUNDEDRECTD66*
21,1,0.05906,0.05492,0,0,270.0*
21,1,0.05492,0.05906,0,0,270.0*
1,1,0.00413,-0.02746,-0.02746*
1,1,0.00413,-0.02746,0.02746*
1,1,0.00413,0.02746,0.02746*
1,1,0.00413,0.02746,-0.02746*
%
%ADD66ROUNDEDRECTD66*%
%ADD67C,0.05906*%
%ADD68C,0.06693*%
%ADD69R,0.06693X0.06693*%
%ADD70C,0.12000*%
%ADD71R,0.06102X0.06102*%
%ADD72C,0.06102*%
%ADD73O,0.04134X0.04921*%
%ADD74O,0.04823X0.07480*%
%ADD75C,0.05512*%
%ADD76C,0.14800*%
%ADD77C,0.08268*%
%ADD78R,0.06496X0.06496*%
%ADD79C,0.06496*%
G04:AMPARAMS|DCode=80|XSize=82.68mil|YSize=55.12mil|CornerRadius=27.56mil|HoleSize=0mil|Usage=FLASHONLY|Rotation=270.000|XOffset=0mil|YOffset=0mil|HoleType=Round|Shape=RoundedRectangle|*
%AMROUNDEDRECTD80*
21,1,0.08268,0.00000,0,0,270.0*
21,1,0.02756,0.05512,0,0,270.0*
1,1,0.05512,0.00000,-0.01378*
1,1,0.05512,0.00000,0.01378*
1,1,0.05512,0.00000,0.01378*
1,1,0.05512,0.00000,-0.01378*
%
%ADD80ROUNDEDRECTD80*%
G04:AMPARAMS|DCode=81|XSize=61.02mil|YSize=61.02mil|CornerRadius=15.26mil|HoleSize=0mil|Usage=FLASHONLY|Rotation=0.000|XOffset=0mil|YOffset=0mil|HoleType=Round|Shape=RoundedRectangle|*
%AMROUNDEDRECTD81*
21,1,0.06102,0.03051,0,0,0.0*
21,1,0.03051,0.06102,0,0,0.0*
1,1,0.03051,0.01526,-0.01526*
1,1,0.03051,-0.01526,-0.01526*
1,1,0.03051,-0.01526,0.01526*
1,1,0.03051,0.01526,0.01526*
%
%ADD81ROUNDEDRECTD81*%
G04:AMPARAMS|DCode=82|XSize=61.02mil|YSize=61.02mil|CornerRadius=1.83mil|HoleSize=0mil|Usage=FLASHONLY|Rotation=270.000|XOffset=0mil|YOffset=0mil|HoleType=Round|Shape=RoundedRectangle|*
%AMROUNDEDRECTD82*
21,1,0.06102,0.05736,0,0,270.0*
21,1,0.05736,0.06102,0,0,270.0*
1,1,0.00366,-0.02868,-0.02868*
1,1,0.00366,-0.02868,0.02868*
1,1,0.00366,0.02868,0.02868*
1,1,0.00366,0.02868,-0.02868*
%
%ADD82ROUNDEDRECTD82*%
%ADD83C,0.03900*%
%ADD84C,0.02800*%
%ADD85C,0.02400*%
%ADD86C,0.01969*%
G36*
X0115202Y0885362D02*
X0115513D01*
X0116188Y0885227D01*
X0116225Y0885235D01*
X0117225Y0884492D01*
Y0881371D01*
X0117333Y0880826D01*
X0117641Y0880365D01*
X0118103Y0880056D01*
X0118647Y0879948D01*
X0120122D01*
Y0877520D01*
X0120081Y0876537D01*
X0116700D01*
Y0876900D01*
X0115656Y0877944D01*
Y0879261D01*
X0115200D01*
Y0879300D01*
X0114300D01*
X0114200Y0879400D01*
X0110837D01*
Y0883281D01*
X0110700D01*
Y0885400D01*
X0115009D01*
X0115202Y0885362D01*
D02*
G37*
G36*
X0309044Y0925871D02*
X0307739Y0925742D01*
X0306335Y0925316D01*
X0305041Y0924624D01*
X0303907Y0923693D01*
X0302976Y0922559D01*
X0302284Y0921265D01*
X0301858Y0919860D01*
X0301714Y0918400D01*
X0301858Y0916940D01*
X0302284Y0915535D01*
X0302976Y0914241D01*
X0303907Y0913107D01*
X0305041Y0912176D01*
X0306335Y0911484D01*
X0307739Y0911058D01*
X0309200Y0910914D01*
X0310661Y0911058D01*
X0312065Y0911484D01*
X0313359Y0912176D01*
X0314493Y0913107D01*
X0315424Y0914241D01*
X0316116Y0915535D01*
X0316542Y0916940D01*
X0316671Y0918244D01*
X0317671Y0918195D01*
X0317671Y0773400D01*
X0293433D01*
Y0899900D01*
X0293301Y0900563D01*
X0292926Y0901126D01*
X0278638Y0915413D01*
X0278076Y0915789D01*
X0277413Y0915921D01*
X0267221D01*
Y0919535D01*
X0268145D01*
X0268690Y0919643D01*
X0269152Y0919952D01*
X0269461Y0920414D01*
X0269569Y0920959D01*
Y0924502D01*
X0269461Y0925047D01*
X0269152Y0925509D01*
X0269132Y0925796D01*
X0269378Y0926561D01*
X0271486Y0926871D01*
X0308995D01*
X0309044Y0925871D01*
D02*
G37*
G36*
X0124700Y0873900D02*
Y0870118D01*
X0123970Y0869630D01*
X0123816Y0869400D01*
X0120081D01*
Y0874536D01*
X0120122Y0875519D01*
X0123081D01*
X0124700Y0873900D01*
D02*
G37*
G36*
X0216967Y0787773D02*
Y0780667D01*
X0217099Y0780004D01*
X0217474Y0779442D01*
X0220332Y0776584D01*
X0219918Y0775584D01*
X0208548D01*
X0208049Y0776584D01*
X0208342Y0777290D01*
X0208488Y0778400D01*
X0208342Y0779510D01*
X0207913Y0780544D01*
X0207232Y0781432D01*
X0206344Y0782113D01*
X0205381Y0782512D01*
X0205353Y0782553D01*
X0203507Y0784400D01*
X0206991Y0787884D01*
X0207426Y0788174D01*
X0208918Y0789667D01*
X0210609D01*
X0210975Y0789739D01*
X0212924D01*
Y0789739D01*
X0213476D01*
Y0789739D01*
X0215000D01*
X0216967Y0787773D01*
D02*
G37*
G36*
X0085319Y0860727D02*
Y0858763D01*
X0090081D01*
Y0859263D01*
X0093684D01*
X0093789Y0858731D01*
X0094142Y0858204D01*
X0094669Y0857851D01*
X0095291Y0857728D01*
X0095913Y0857851D01*
X0096078Y0857962D01*
X0096244Y0857851D01*
X0096866Y0857728D01*
X0097487Y0857851D01*
X0097653Y0857962D01*
X0097819Y0857851D01*
X0098440Y0857728D01*
X0099062Y0857851D01*
X0099228Y0857962D01*
X0099393Y0857851D01*
X0100015Y0857728D01*
X0100637Y0857851D01*
X0100803Y0857962D01*
X0100968Y0857851D01*
X0101447Y0857756D01*
X0101817Y0857395D01*
X0102167Y0856882D01*
X0102078Y0856203D01*
X0102167Y0855524D01*
X0102429Y0854892D01*
X0102846Y0854349D01*
X0103389Y0853932D01*
X0104021Y0853670D01*
X0104700Y0853581D01*
X0105379Y0853670D01*
X0106011Y0853932D01*
X0106554Y0854349D01*
X0106884Y0854778D01*
X0107281Y0854758D01*
X0107884Y0854498D01*
Y0838319D01*
X0098557Y0828992D01*
X0096589D01*
X0096572Y0829010D01*
X0096146Y0829992D01*
X0096461Y0830464D01*
X0096647Y0831400D01*
X0096461Y0832336D01*
X0095930Y0833130D01*
X0095136Y0833661D01*
X0094200Y0833847D01*
X0093901Y0834016D01*
X0093249Y0834715D01*
X0093372Y0835337D01*
X0093249Y0835959D01*
X0093138Y0836124D01*
X0093249Y0836290D01*
X0093372Y0836912D01*
X0093249Y0837533D01*
X0093138Y0837699D01*
X0093249Y0837865D01*
X0093372Y0838486D01*
X0093249Y0839108D01*
X0093138Y0839274D01*
X0093249Y0839439D01*
X0093372Y0840061D01*
X0093249Y0840683D01*
X0093138Y0840849D01*
X0093249Y0841014D01*
X0093372Y0841636D01*
X0093249Y0842258D01*
X0093138Y0842424D01*
X0093249Y0842589D01*
X0093372Y0843211D01*
X0093249Y0843833D01*
X0093138Y0843998D01*
X0093249Y0844164D01*
X0093372Y0844786D01*
X0093249Y0845407D01*
X0093138Y0845573D01*
X0093249Y0845739D01*
X0093372Y0846360D01*
X0093249Y0846982D01*
X0093138Y0847148D01*
X0093249Y0847313D01*
X0093372Y0847935D01*
X0093249Y0848557D01*
X0093138Y0848723D01*
X0093249Y0848888D01*
X0093372Y0849510D01*
X0093249Y0850132D01*
X0093138Y0850298D01*
X0093249Y0850463D01*
X0093372Y0851085D01*
X0093249Y0851707D01*
X0093138Y0851872D01*
X0093249Y0852038D01*
X0093372Y0852660D01*
X0093249Y0853281D01*
X0093138Y0853447D01*
X0093249Y0853613D01*
X0093372Y0854235D01*
X0093249Y0854856D01*
X0093138Y0855022D01*
X0093249Y0855188D01*
X0093372Y0855809D01*
X0093249Y0856431D01*
X0092896Y0856958D01*
X0092369Y0857310D01*
X0091747Y0857434D01*
X0087023D01*
X0086999Y0857429D01*
X0082672D01*
X0081729Y0858372D01*
Y0860385D01*
X0082729Y0861047D01*
X0083200Y0860953D01*
X0084136Y0861139D01*
X0084319Y0861261D01*
X0085319Y0860727D01*
D02*
G37*
G36*
X0095671Y0924400D02*
X0095787Y0923815D01*
X0096039Y0923437D01*
X0095327Y0922891D01*
X0094693Y0922064D01*
X0094295Y0921102D01*
X0094159Y0920069D01*
Y0917313D01*
X0094295Y0916281D01*
X0094693Y0915318D01*
X0095327Y0914492D01*
X0096154Y0913858D01*
X0097116Y0913459D01*
X0098149Y0913323D01*
X0098874Y0913419D01*
X0099628Y0912947D01*
X0099874Y0912664D01*
Y0907812D01*
X0099747Y0907685D01*
X0099393Y0907155D01*
X0099309Y0906736D01*
X0099041Y0906393D01*
X0098269Y0905924D01*
X0098200Y0905937D01*
X0097244Y0905747D01*
X0096434Y0905206D01*
X0095892Y0904395D01*
X0095702Y0903439D01*
Y0902970D01*
X0094382D01*
Y0896830D01*
X0095815D01*
X0095892Y0896444D01*
X0096434Y0895634D01*
X0096469Y0895276D01*
X0095329Y0894136D01*
X0094976Y0893607D01*
X0094851Y0892983D01*
Y0865615D01*
X0094669Y0865578D01*
X0094142Y0865226D01*
X0093866Y0864813D01*
X0090081D01*
Y0869037D01*
X0086227D01*
X0085741Y0870037D01*
X0085952Y0870311D01*
X0086269Y0871078D01*
X0086377Y0871900D01*
X0086269Y0872722D01*
X0086153Y0873002D01*
X0086155Y0873041D01*
X0086669Y0874002D01*
X0086754Y0874063D01*
X0087136Y0874139D01*
X0087930Y0874670D01*
X0088461Y0875464D01*
X0088647Y0876400D01*
X0088461Y0877336D01*
X0087930Y0878130D01*
X0087925Y0878134D01*
X0087827Y0879129D01*
X0090143Y0881445D01*
X0090474Y0881941D01*
X0090590Y0882526D01*
Y0893539D01*
X0090474Y0894124D01*
X0090143Y0894620D01*
X0088100Y0896663D01*
X0088147Y0896900D01*
X0087965Y0897815D01*
X0087961Y0897843D01*
X0087973Y0898041D01*
X0088396Y0898986D01*
X0088789Y0899148D01*
X0089447Y0899653D01*
X0089951Y0900311D01*
X0090269Y0901078D01*
X0090377Y0901900D01*
X0090269Y0902722D01*
X0089951Y0903489D01*
X0089447Y0904147D01*
X0088789Y0904652D01*
X0088022Y0904969D01*
X0087200Y0905077D01*
X0086378Y0904969D01*
X0085611Y0904652D01*
X0084953Y0904147D01*
X0084448Y0903489D01*
X0084131Y0902722D01*
X0084023Y0901900D01*
X0084131Y0901078D01*
X0084448Y0900311D01*
X0084577Y0900143D01*
X0084609Y0899977D01*
X0084399Y0898955D01*
X0084336Y0898875D01*
X0083970Y0898630D01*
X0083439Y0897836D01*
X0083253Y0896900D01*
X0083439Y0895964D01*
X0083970Y0895170D01*
X0084764Y0894639D01*
X0085700Y0894453D01*
X0085937Y0894500D01*
X0087532Y0892906D01*
Y0889765D01*
X0086730Y0889224D01*
X0086532Y0889182D01*
X0085700Y0889347D01*
X0084764Y0889161D01*
X0083970Y0888630D01*
X0083439Y0887836D01*
X0083253Y0886900D01*
X0083371Y0886308D01*
X0082331Y0885269D01*
X0082000Y0884773D01*
X0081668Y0884213D01*
X0080930Y0884301D01*
X0080700Y0884347D01*
X0079764Y0884161D01*
X0078970Y0883630D01*
X0078439Y0882836D01*
X0078404Y0882661D01*
X0078229Y0882565D01*
X0077229Y0883156D01*
Y0886267D01*
X0080463Y0889500D01*
X0080700Y0889453D01*
X0081636Y0889639D01*
X0082430Y0890170D01*
X0082961Y0890964D01*
X0083147Y0891900D01*
X0082961Y0892836D01*
X0082430Y0893630D01*
X0081636Y0894161D01*
X0080700Y0894347D01*
X0079764Y0894161D01*
X0078970Y0893630D01*
X0078439Y0892836D01*
X0078253Y0891900D01*
X0078300Y0891663D01*
X0074619Y0887981D01*
X0074287Y0887485D01*
X0074171Y0886900D01*
Y0855495D01*
X0074287Y0854910D01*
X0074619Y0854414D01*
X0077607Y0851425D01*
X0077481Y0850138D01*
X0077470Y0850130D01*
X0076939Y0849336D01*
X0076753Y0848400D01*
X0076939Y0847464D01*
X0077470Y0846670D01*
X0078264Y0846139D01*
X0079200Y0845953D01*
X0079319Y0845977D01*
X0080319Y0845625D01*
Y0845625D01*
X0084556D01*
X0085391Y0844793D01*
X0085404Y0844759D01*
X0085522Y0844164D01*
X0085632Y0843998D01*
X0085522Y0843833D01*
X0085398Y0843211D01*
X0085522Y0842589D01*
X0085632Y0842424D01*
X0085522Y0842258D01*
X0085398Y0841636D01*
X0085522Y0841014D01*
X0085632Y0840849D01*
X0085522Y0840683D01*
X0085398Y0840061D01*
X0085522Y0839439D01*
X0085632Y0839274D01*
X0085522Y0839108D01*
X0085398Y0838486D01*
X0085522Y0837865D01*
X0085632Y0837699D01*
X0085522Y0837533D01*
X0085398Y0836912D01*
X0085522Y0836290D01*
X0085632Y0836124D01*
X0085522Y0835959D01*
X0085149Y0835295D01*
X0084424Y0835175D01*
X0080319D01*
Y0835175D01*
X0079319Y0834823D01*
X0079200Y0834847D01*
X0078264Y0834661D01*
X0077470Y0834130D01*
X0076939Y0833336D01*
X0076753Y0832400D01*
X0076939Y0831464D01*
X0077470Y0830670D01*
X0078264Y0830139D01*
X0079200Y0829953D01*
X0079319Y0829977D01*
X0079623Y0829870D01*
X0079916Y0829190D01*
X0079925Y0828781D01*
X0079925D01*
Y0824019D01*
Y0820519D01*
Y0816519D01*
X0080854D01*
X0081593Y0815519D01*
X0081578Y0815400D01*
X0081667Y0814721D01*
X0081929Y0814089D01*
X0082346Y0813546D01*
X0082889Y0813129D01*
X0083521Y0812867D01*
X0084200Y0812778D01*
X0084680Y0812841D01*
X0084904Y0812707D01*
X0085157Y0812465D01*
X0085460Y0812025D01*
X0085398Y0811715D01*
X0085522Y0811093D01*
X0085632Y0810927D01*
X0085522Y0810762D01*
X0085398Y0810140D01*
X0085522Y0809518D01*
X0085632Y0809353D01*
X0085522Y0809187D01*
X0085398Y0808565D01*
X0085461Y0808250D01*
X0084984Y0807425D01*
X0084790Y0807238D01*
X0084475Y0807222D01*
Y0807222D01*
X0078925D01*
Y0807222D01*
X0078475D01*
Y0807222D01*
X0072925D01*
Y0801672D01*
X0073319D01*
Y0797035D01*
Y0792310D01*
X0076312D01*
X0077804Y0790819D01*
X0078300Y0790487D01*
X0078885Y0790371D01*
X0083200D01*
X0083785Y0790487D01*
X0084281Y0790819D01*
X0085281Y0791819D01*
X0085613Y0792315D01*
X0085729Y0792900D01*
Y0793841D01*
X0087001Y0795113D01*
X0087925Y0794730D01*
Y0792519D01*
X0090112D01*
X0090700Y0792402D01*
X0091288Y0792519D01*
X0092650D01*
Y0788519D01*
X0098199D01*
Y0793281D01*
X0098199D01*
Y0796900D01*
X0098440Y0797098D01*
X0099062Y0797222D01*
X0099228Y0797332D01*
X0099393Y0797222D01*
X0100015Y0797098D01*
X0100637Y0797222D01*
X0100803Y0797332D01*
X0100968Y0797222D01*
X0101493Y0797117D01*
X0101590Y0797098D01*
X0102425Y0796253D01*
Y0792519D01*
Y0788519D01*
X0105753D01*
X0106062Y0788457D01*
X0107167D01*
X0107407Y0787457D01*
X0106992Y0786836D01*
X0106806Y0785900D01*
X0106992Y0784964D01*
X0107523Y0784170D01*
X0108317Y0783639D01*
X0109253Y0783453D01*
X0110189Y0783639D01*
X0110983Y0784170D01*
X0111514Y0784964D01*
X0111700Y0785900D01*
X0111628Y0786263D01*
X0112340Y0787263D01*
X0112581D01*
Y0788428D01*
X0115118D01*
X0116083Y0787464D01*
X0116595Y0787121D01*
X0117200Y0787001D01*
X0123650D01*
X0123749Y0786934D01*
X0124294Y0786826D01*
X0127247D01*
X0127792Y0786934D01*
X0128254Y0787243D01*
X0128563Y0787705D01*
X0128642Y0788102D01*
X0128731Y0788236D01*
X0128851Y0788841D01*
X0128731Y0789446D01*
X0128642Y0789579D01*
X0128563Y0789976D01*
X0128467Y0790120D01*
X0128563Y0790264D01*
X0128671Y0790809D01*
Y0791990D01*
X0128563Y0792535D01*
X0128254Y0792998D01*
X0127792Y0793306D01*
X0127247Y0793415D01*
X0124294D01*
X0123749Y0793306D01*
X0123287Y0792998D01*
X0122978Y0792535D01*
X0122870Y0791990D01*
Y0790809D01*
X0121979Y0790162D01*
X0117938D01*
Y0792713D01*
Y0796346D01*
X0118913Y0797098D01*
X0119535Y0797222D01*
X0120062Y0797574D01*
X0120914D01*
X0121441Y0797222D01*
X0122062Y0797098D01*
X0122684Y0797222D01*
X0122850Y0797332D01*
X0123015Y0797222D01*
X0123637Y0797098D01*
X0124259Y0797222D01*
X0124425Y0797332D01*
X0124590Y0797222D01*
X0125212Y0797098D01*
X0125834Y0797222D01*
X0125999Y0797332D01*
X0126165Y0797222D01*
X0126787Y0797098D01*
X0127409Y0797222D01*
X0127574Y0797332D01*
X0127740Y0797222D01*
X0128362Y0797098D01*
X0128983Y0797222D01*
X0129149Y0797332D01*
X0129315Y0797222D01*
X0129936Y0797098D01*
X0130558Y0797222D01*
X0130724Y0797332D01*
X0130889Y0797222D01*
X0131511Y0797098D01*
X0132133Y0797222D01*
X0132299Y0797332D01*
X0132464Y0797222D01*
X0132971Y0797121D01*
X0133169Y0796970D01*
X0133166Y0796817D01*
X0132682Y0795880D01*
X0132607Y0795865D01*
X0132145Y0795556D01*
X0131837Y0795094D01*
X0131728Y0794549D01*
Y0793368D01*
X0131837Y0792823D01*
X0132145Y0792361D01*
X0132607Y0792053D01*
X0133152Y0791944D01*
X0135411D01*
X0136326Y0791082D01*
X0136337Y0791039D01*
X0136105Y0790856D01*
X0133152D01*
X0132607Y0790747D01*
X0132145Y0790438D01*
X0131837Y0789976D01*
X0131728Y0789431D01*
Y0788250D01*
X0131837Y0787705D01*
X0132145Y0787243D01*
X0132607Y0786934D01*
X0133152Y0786826D01*
X0136105D01*
X0136650Y0786934D01*
X0137112Y0787243D01*
X0137421Y0787705D01*
X0137529Y0788250D01*
Y0788761D01*
X0138529Y0789296D01*
X0138764Y0789139D01*
X0139700Y0788953D01*
X0140636Y0789139D01*
X0141430Y0789670D01*
X0141961Y0790464D01*
X0142112Y0791226D01*
X0142613Y0792019D01*
X0142613Y0792019D01*
X0142613Y0792019D01*
X0142613Y0796731D01*
X0143408Y0797275D01*
X0143488Y0797222D01*
X0144110Y0797098D01*
X0144731Y0797222D01*
X0144831Y0797288D01*
X0146271Y0795848D01*
Y0790664D01*
X0143119Y0787512D01*
X0142787Y0787015D01*
X0142671Y0786430D01*
Y0782368D01*
X0142056Y0782113D01*
X0141168Y0781432D01*
X0140487Y0780544D01*
X0140058Y0779510D01*
X0139912Y0778400D01*
X0140058Y0777290D01*
X0140487Y0776256D01*
X0141168Y0775368D01*
X0142056Y0774687D01*
X0142748Y0774400D01*
X0142549Y0773400D01*
X0135851D01*
X0135652Y0774400D01*
X0136344Y0774687D01*
X0137232Y0775368D01*
X0137913Y0776256D01*
X0138342Y0777290D01*
X0138488Y0778400D01*
X0138342Y0779510D01*
X0137913Y0780544D01*
X0137232Y0781432D01*
X0136344Y0782113D01*
X0135310Y0782542D01*
X0134200Y0782688D01*
X0133090Y0782542D01*
X0132056Y0782113D01*
X0131168Y0781432D01*
X0130487Y0780544D01*
X0130058Y0779510D01*
X0129912Y0778400D01*
X0130058Y0777290D01*
X0130487Y0776256D01*
X0131168Y0775368D01*
X0132056Y0774687D01*
X0132748Y0774400D01*
X0132549Y0773400D01*
X0125851D01*
X0125652Y0774400D01*
X0126344Y0774687D01*
X0127232Y0775368D01*
X0127913Y0776256D01*
X0128342Y0777290D01*
X0128488Y0778400D01*
X0128342Y0779510D01*
X0127913Y0780544D01*
X0127232Y0781432D01*
X0126344Y0782113D01*
X0125310Y0782542D01*
X0124200Y0782688D01*
X0123090Y0782542D01*
X0122056Y0782113D01*
X0121168Y0781432D01*
X0120487Y0780544D01*
X0120058Y0779510D01*
X0119912Y0778400D01*
X0120058Y0777290D01*
X0120487Y0776256D01*
X0121168Y0775368D01*
X0122056Y0774687D01*
X0122748Y0774400D01*
X0122549Y0773400D01*
X0070729D01*
Y0918195D01*
X0071729Y0918244D01*
X0071858Y0916940D01*
X0072284Y0915535D01*
X0072976Y0914241D01*
X0073907Y0913107D01*
X0075041Y0912176D01*
X0076335Y0911484D01*
X0077740Y0911058D01*
X0079200Y0910914D01*
X0080660Y0911058D01*
X0082065Y0911484D01*
X0083359Y0912176D01*
X0084493Y0913107D01*
X0085424Y0914241D01*
X0086116Y0915535D01*
X0086542Y0916940D01*
X0086686Y0918400D01*
X0086542Y0919860D01*
X0086116Y0921265D01*
X0085424Y0922559D01*
X0084493Y0923693D01*
X0083359Y0924624D01*
X0082065Y0925316D01*
X0080660Y0925742D01*
X0079356Y0925871D01*
X0079405Y0926871D01*
X0095671D01*
Y0924400D01*
D02*
G37*
G36*
X0233914Y0926871D02*
X0235267Y0926672D01*
X0235438Y0925636D01*
X0235248Y0925509D01*
X0234939Y0925047D01*
X0234831Y0924502D01*
Y0920959D01*
X0234939Y0920414D01*
X0235248Y0919952D01*
X0235710Y0919643D01*
X0236255Y0919535D01*
X0237622D01*
X0237687Y0919438D01*
X0238824Y0918301D01*
X0238441Y0917377D01*
X0237444D01*
X0236781Y0917245D01*
X0236218Y0916870D01*
X0231474Y0912126D01*
X0231099Y0911563D01*
X0230967Y0910900D01*
Y0907900D01*
X0231099Y0907237D01*
X0231474Y0906674D01*
X0235467Y0902682D01*
Y0899900D01*
X0235599Y0899237D01*
X0235974Y0898674D01*
X0237156Y0897493D01*
X0237718Y0897118D01*
X0238381Y0896986D01*
X0243381D01*
X0244044Y0897118D01*
X0244607Y0897493D01*
X0246132Y0899019D01*
X0248837D01*
Y0899667D01*
X0252700D01*
X0253363Y0899799D01*
X0253926Y0900174D01*
X0266205Y0912454D01*
X0276695D01*
X0289967Y0899182D01*
Y0773400D01*
X0234264D01*
X0234141Y0773748D01*
X0234098Y0774400D01*
X0234508Y0774674D01*
X0237426Y0777592D01*
X0237495Y0777696D01*
X0239118D01*
X0239470Y0777170D01*
X0240264Y0776639D01*
X0241200Y0776453D01*
X0242136Y0776639D01*
X0242930Y0777170D01*
X0243200Y0777574D01*
X0244200D01*
X0244470Y0777170D01*
X0245264Y0776639D01*
X0246200Y0776453D01*
X0247136Y0776639D01*
X0247930Y0777170D01*
X0248282Y0777696D01*
X0248857D01*
Y0791080D01*
X0247790D01*
X0247426Y0791626D01*
X0246255Y0792796D01*
X0246638Y0793720D01*
X0248857D01*
Y0807104D01*
X0248516D01*
X0248471Y0807211D01*
X0248054Y0807754D01*
X0247511Y0808171D01*
X0246879Y0808433D01*
X0246200Y0808522D01*
X0245521Y0808433D01*
X0244889Y0808171D01*
X0244346Y0807754D01*
X0243929Y0807211D01*
X0243884Y0807104D01*
X0243543D01*
Y0795394D01*
X0243212Y0795121D01*
X0224930D01*
X0223457Y0796594D01*
X0222895Y0796970D01*
X0222232Y0797102D01*
X0216559D01*
X0216328Y0797275D01*
X0215783Y0798102D01*
X0215822Y0798400D01*
X0215733Y0799079D01*
X0215471Y0799711D01*
X0215054Y0800254D01*
X0214511Y0800671D01*
X0213879Y0800933D01*
X0213200Y0801022D01*
X0212521Y0800933D01*
X0211889Y0800671D01*
X0211346Y0800254D01*
X0210929Y0799711D01*
X0210667Y0799079D01*
X0210578Y0798400D01*
X0210622Y0798061D01*
X0210117Y0797272D01*
X0209858Y0797061D01*
X0208358D01*
Y0795031D01*
X0203996D01*
X0203930Y0795130D01*
X0203136Y0795661D01*
X0202200Y0795847D01*
X0201264Y0795661D01*
X0200470Y0795130D01*
X0199939Y0794336D01*
X0199753Y0793400D01*
X0199939Y0792464D01*
X0200470Y0791670D01*
X0201264Y0791139D01*
X0202200Y0790953D01*
X0203136Y0791139D01*
X0203887Y0791641D01*
X0204589Y0791595D01*
X0204626Y0791543D01*
X0204961Y0790660D01*
X0204971Y0790620D01*
X0204684Y0790191D01*
X0200924Y0786431D01*
X0167230D01*
X0164679Y0788983D01*
Y0806771D01*
X0164554Y0807395D01*
X0164201Y0807925D01*
X0161786Y0810339D01*
X0162169Y0811263D01*
X0164200D01*
Y0815897D01*
X0164399Y0816108D01*
X0165200Y0816500D01*
X0165521Y0816367D01*
X0166200Y0816278D01*
X0166879Y0816367D01*
X0167511Y0816629D01*
X0168054Y0817046D01*
X0168471Y0817589D01*
X0168733Y0818221D01*
X0168822Y0818900D01*
X0168733Y0819579D01*
X0168471Y0820211D01*
X0168054Y0820754D01*
X0167511Y0821171D01*
X0166879Y0821433D01*
X0166200Y0821522D01*
X0165521Y0821433D01*
X0165200Y0821300D01*
X0164200Y0821537D01*
X0164200Y0821537D01*
X0159438D01*
Y0819999D01*
X0159111Y0819731D01*
X0154466D01*
X0154392Y0819833D01*
X0153911Y0820705D01*
X0154002Y0821164D01*
X0153879Y0821785D01*
X0153768Y0821951D01*
X0153879Y0822117D01*
X0154002Y0822738D01*
X0153879Y0823360D01*
X0153768Y0823526D01*
X0153879Y0823691D01*
X0154002Y0824313D01*
X0153879Y0824935D01*
X0153768Y0825101D01*
X0153879Y0825266D01*
X0154700Y0825953D01*
X0155636Y0826139D01*
X0156430Y0826670D01*
X0156961Y0827464D01*
X0157147Y0828400D01*
X0156961Y0829336D01*
X0156430Y0830130D01*
X0155636Y0830661D01*
X0154700Y0830847D01*
X0154586Y0830824D01*
X0154233Y0831194D01*
X0153907Y0831709D01*
X0154002Y0832187D01*
X0153891Y0832747D01*
X0153926Y0832901D01*
X0154337Y0833706D01*
X0155319D01*
Y0832487D01*
X0160081D01*
Y0832487D01*
X0160319D01*
Y0832487D01*
X0165081D01*
Y0832487D01*
X0166081Y0832977D01*
X0166200Y0832953D01*
X0167136Y0833139D01*
X0167930Y0833670D01*
X0168461Y0834464D01*
X0168647Y0835400D01*
X0168461Y0836336D01*
X0167930Y0837130D01*
X0167136Y0837661D01*
X0166200Y0837847D01*
X0166081Y0837823D01*
X0165081Y0838037D01*
Y0838037D01*
X0160319D01*
Y0838037D01*
X0160081D01*
Y0838037D01*
X0155319D01*
Y0836968D01*
X0154337D01*
X0153926Y0837772D01*
X0153891Y0837927D01*
X0154002Y0838486D01*
X0153879Y0839108D01*
X0153768Y0839274D01*
X0153879Y0839439D01*
X0154002Y0840061D01*
X0153879Y0840683D01*
X0153526Y0841210D01*
Y0842062D01*
X0153738Y0842379D01*
X0154691Y0842399D01*
X0155201Y0842019D01*
X0155201Y0842019D01*
X0160750D01*
Y0845519D01*
X0165475D01*
X0165475Y0845519D01*
X0166467Y0845499D01*
X0166700Y0845453D01*
X0167636Y0845639D01*
X0168430Y0846170D01*
X0168961Y0846964D01*
X0169147Y0847900D01*
X0168961Y0848836D01*
X0168443Y0849650D01*
X0168961Y0850464D01*
X0169147Y0851400D01*
X0168961Y0852336D01*
X0168443Y0853150D01*
X0168961Y0853964D01*
X0169147Y0854900D01*
X0168961Y0855836D01*
X0168443Y0856650D01*
X0168961Y0857464D01*
X0169147Y0858400D01*
X0168961Y0859336D01*
X0168430Y0860130D01*
X0167636Y0860661D01*
X0166700Y0860847D01*
X0166467Y0860801D01*
X0165475Y0860781D01*
X0165475Y0860781D01*
X0165475Y0860781D01*
X0155201D01*
Y0858920D01*
X0152147Y0855866D01*
X0150015D01*
X0149983Y0855859D01*
X0147653D01*
X0147031Y0855736D01*
X0146504Y0855383D01*
X0146152Y0854856D01*
X0146028Y0854235D01*
X0146152Y0853613D01*
X0146262Y0853447D01*
X0146152Y0853281D01*
X0146028Y0852660D01*
X0146152Y0852038D01*
X0146262Y0851872D01*
X0146152Y0851707D01*
X0146028Y0851085D01*
X0146152Y0850463D01*
X0146262Y0850298D01*
X0146152Y0850132D01*
X0146028Y0849510D01*
X0146152Y0848888D01*
X0146262Y0848723D01*
X0146152Y0848557D01*
X0146028Y0847935D01*
X0146152Y0847313D01*
X0146504Y0846786D01*
Y0845935D01*
X0146152Y0845407D01*
X0146028Y0844786D01*
X0146152Y0844164D01*
X0146262Y0843998D01*
X0146152Y0843833D01*
X0146028Y0843211D01*
X0146152Y0842589D01*
X0146504Y0842062D01*
Y0841210D01*
X0146152Y0840683D01*
X0146028Y0840061D01*
X0146152Y0839439D01*
X0146262Y0839274D01*
X0146152Y0839108D01*
X0146028Y0838486D01*
X0146152Y0837865D01*
X0146262Y0837699D01*
X0146152Y0837533D01*
X0146028Y0836912D01*
X0146152Y0836290D01*
X0146262Y0836124D01*
X0146152Y0835959D01*
X0146028Y0835337D01*
X0146152Y0834715D01*
X0146262Y0834550D01*
X0146152Y0834384D01*
X0146028Y0833762D01*
X0146152Y0833140D01*
X0146262Y0832975D01*
X0146152Y0832809D01*
X0146028Y0832187D01*
X0146152Y0831565D01*
X0146504Y0831038D01*
Y0830187D01*
X0146152Y0829659D01*
X0146028Y0829038D01*
X0146152Y0828416D01*
X0146262Y0828250D01*
X0146152Y0828085D01*
X0146028Y0827463D01*
X0146152Y0826841D01*
X0146262Y0826675D01*
X0146152Y0826510D01*
X0146028Y0825888D01*
X0146152Y0825266D01*
X0146262Y0825101D01*
X0146152Y0824935D01*
X0146028Y0824313D01*
X0146152Y0823691D01*
X0146262Y0823526D01*
X0146152Y0823360D01*
X0146028Y0822738D01*
X0146152Y0822117D01*
X0146262Y0821951D01*
X0146152Y0821785D01*
X0146028Y0821164D01*
X0146152Y0820542D01*
X0146262Y0820376D01*
X0146152Y0820211D01*
X0146028Y0819589D01*
X0146152Y0818967D01*
X0146262Y0818801D01*
X0146152Y0818636D01*
X0146028Y0818014D01*
X0146152Y0817392D01*
X0146262Y0817227D01*
X0146152Y0817061D01*
X0146028Y0816439D01*
X0146152Y0815817D01*
X0146262Y0815652D01*
X0146152Y0815486D01*
X0146028Y0814864D01*
X0146152Y0814243D01*
X0146262Y0814077D01*
X0146152Y0813911D01*
X0146028Y0813290D01*
X0146152Y0812668D01*
X0146262Y0812502D01*
X0146152Y0812337D01*
X0146028Y0811715D01*
X0146152Y0811093D01*
X0146262Y0810927D01*
X0146152Y0810762D01*
X0146028Y0810140D01*
X0146152Y0809518D01*
X0146153Y0809516D01*
X0144619Y0807981D01*
X0144287Y0807485D01*
X0144171Y0806900D01*
Y0805231D01*
X0143240Y0804893D01*
X0143157Y0804948D01*
X0142535Y0805072D01*
X0141913Y0804948D01*
X0141747Y0804838D01*
X0141582Y0804948D01*
X0140960Y0805072D01*
X0140338Y0804948D01*
X0140173Y0804838D01*
X0140007Y0804948D01*
X0139385Y0805072D01*
X0138763Y0804948D01*
X0138598Y0804838D01*
X0138432Y0804948D01*
X0137811Y0805072D01*
X0137189Y0804948D01*
X0137023Y0804838D01*
X0136857Y0804948D01*
X0136236Y0805072D01*
X0135614Y0804948D01*
X0135448Y0804838D01*
X0135283Y0804948D01*
X0134661Y0805072D01*
X0134039Y0804948D01*
X0133873Y0804838D01*
X0133708Y0804948D01*
X0133086Y0805072D01*
X0132464Y0804948D01*
X0132299Y0804838D01*
X0132133Y0804948D01*
X0131511Y0805072D01*
X0130889Y0804948D01*
X0130724Y0804838D01*
X0130558Y0804948D01*
X0129936Y0805072D01*
X0129315Y0804948D01*
X0129149Y0804838D01*
X0128983Y0804948D01*
X0128362Y0805072D01*
X0127740Y0804948D01*
X0127574Y0804838D01*
X0127409Y0804948D01*
X0126787Y0805072D01*
X0126165Y0804948D01*
X0125999Y0804838D01*
X0125834Y0804948D01*
X0125212Y0805072D01*
X0124590Y0804948D01*
X0124425Y0804838D01*
X0124259Y0804948D01*
X0123637Y0805072D01*
X0123015Y0804948D01*
X0122850Y0804838D01*
X0122684Y0804948D01*
X0122062Y0805072D01*
X0121441Y0804948D01*
X0120583Y0805578D01*
X0120647Y0805900D01*
X0120461Y0806836D01*
X0119930Y0807630D01*
X0119136Y0808161D01*
X0118200Y0808347D01*
X0117264Y0808161D01*
X0116470Y0807630D01*
X0115939Y0806836D01*
X0115753Y0805900D01*
X0115559Y0805598D01*
X0114810Y0804948D01*
X0114188Y0805072D01*
X0113567Y0804948D01*
X0113401Y0804838D01*
X0113235Y0804948D01*
X0112614Y0805072D01*
X0111992Y0804948D01*
X0111826Y0804838D01*
X0111661Y0804948D01*
X0111039Y0805072D01*
X0110417Y0804948D01*
X0109890Y0804596D01*
X0109038D01*
X0108511Y0804948D01*
X0107889Y0805072D01*
X0107267Y0804948D01*
X0107102Y0804838D01*
X0106936Y0804948D01*
X0106314Y0805072D01*
X0105693Y0804948D01*
X0105527Y0804838D01*
X0105361Y0804948D01*
X0104740Y0805072D01*
X0104118Y0804948D01*
X0103952Y0804838D01*
X0103787Y0804948D01*
X0103165Y0805072D01*
X0102543Y0804948D01*
X0102531Y0804941D01*
X0101512Y0805199D01*
X0101428Y0805335D01*
X0101097Y0805831D01*
X0099906Y0807022D01*
X0099410Y0807354D01*
X0098824Y0807470D01*
X0094097D01*
X0093972Y0807540D01*
X0093803Y0807703D01*
X0093332Y0808363D01*
X0093372Y0808565D01*
X0093249Y0809187D01*
X0093138Y0809353D01*
X0093249Y0809518D01*
X0093372Y0810140D01*
X0093249Y0810762D01*
X0093138Y0810927D01*
X0093249Y0811093D01*
X0093372Y0811715D01*
X0093249Y0812337D01*
X0093138Y0812502D01*
X0093249Y0812668D01*
X0093372Y0813290D01*
X0093249Y0813911D01*
X0093631Y0814859D01*
X0094843D01*
X0094970Y0814670D01*
X0095764Y0814139D01*
X0096700Y0813953D01*
X0097636Y0814139D01*
X0098430Y0814670D01*
X0098961Y0815464D01*
X0099147Y0816400D01*
X0098961Y0817336D01*
X0098430Y0818130D01*
X0097636Y0818661D01*
X0096700Y0818847D01*
X0095764Y0818661D01*
X0094970Y0818130D01*
X0094896Y0818020D01*
X0093631D01*
X0093249Y0818967D01*
X0093372Y0819589D01*
X0093249Y0820211D01*
X0093138Y0820376D01*
X0093249Y0820542D01*
X0093372Y0821164D01*
X0093249Y0821785D01*
X0093138Y0821951D01*
X0093249Y0822117D01*
X0093372Y0822738D01*
X0093249Y0823360D01*
X0093138Y0823526D01*
X0093249Y0823691D01*
X0093372Y0824313D01*
X0093249Y0824935D01*
X0093206Y0824998D01*
X0093555Y0825933D01*
X0099006D01*
X0099263Y0825883D01*
X0099868Y0826003D01*
X0100380Y0826345D01*
X0110582Y0836547D01*
X0110924Y0837059D01*
X0111044Y0837664D01*
Y0857469D01*
X0111992Y0857851D01*
X0112614Y0857728D01*
X0113235Y0857851D01*
X0113401Y0857962D01*
X0113567Y0857851D01*
X0114188Y0857728D01*
X0114810Y0857851D01*
X0114976Y0857962D01*
X0115141Y0857851D01*
X0115763Y0857728D01*
X0116385Y0857851D01*
X0116551Y0857962D01*
X0116716Y0857851D01*
X0117338Y0857728D01*
X0117960Y0857851D01*
X0118125Y0857962D01*
X0118291Y0857851D01*
X0118913Y0857728D01*
X0119535Y0857851D01*
X0120062Y0858204D01*
X0120914D01*
X0121441Y0857851D01*
X0122062Y0857728D01*
X0122684Y0857851D01*
X0122850Y0857962D01*
X0123015Y0857851D01*
X0123637Y0857728D01*
X0124259Y0857851D01*
X0124425Y0857962D01*
X0124590Y0857851D01*
X0125212Y0857728D01*
X0125834Y0857851D01*
X0125999Y0857962D01*
X0126165Y0857851D01*
X0126787Y0857728D01*
X0127409Y0857851D01*
X0127574Y0857962D01*
X0127740Y0857851D01*
X0128362Y0857728D01*
X0128983Y0857851D01*
X0129149Y0857962D01*
X0129315Y0857851D01*
X0129936Y0857728D01*
X0130558Y0857851D01*
X0130724Y0857962D01*
X0130889Y0857851D01*
X0131511Y0857728D01*
X0132133Y0857851D01*
X0132299Y0857962D01*
X0132464Y0857851D01*
X0133086Y0857728D01*
X0133708Y0857851D01*
X0133873Y0857962D01*
X0134039Y0857851D01*
X0134661Y0857728D01*
X0135283Y0857851D01*
X0135448Y0857962D01*
X0135614Y0857851D01*
X0136236Y0857728D01*
X0136857Y0857851D01*
X0137023Y0857962D01*
X0137189Y0857851D01*
X0137811Y0857728D01*
X0138432Y0857851D01*
X0138598Y0857962D01*
X0138763Y0857851D01*
X0139385Y0857728D01*
X0140007Y0857851D01*
X0140173Y0857962D01*
X0140338Y0857851D01*
X0140960Y0857728D01*
X0141582Y0857851D01*
X0142109Y0858204D01*
X0142961D01*
X0143488Y0857851D01*
X0144110Y0857728D01*
X0144731Y0857851D01*
X0145259Y0858204D01*
X0145611Y0858731D01*
X0145735Y0859353D01*
Y0863867D01*
X0146704Y0863871D01*
X0146704Y0863871D01*
X0146841D01*
X0146895Y0863881D01*
X0146938Y0863882D01*
X0146938Y0863882D01*
Y0863882D01*
X0151700D01*
Y0864019D01*
X0161837D01*
Y0864019D01*
X0162700Y0863953D01*
X0162803Y0863974D01*
X0163636Y0864139D01*
X0164430Y0864670D01*
X0164961Y0865464D01*
X0165147Y0866400D01*
X0164961Y0867336D01*
X0164430Y0868130D01*
X0163636Y0868661D01*
X0162820Y0868823D01*
X0162700Y0868847D01*
X0161837Y0868781D01*
Y0868781D01*
X0151700D01*
Y0869431D01*
X0146938D01*
Y0869431D01*
X0145975Y0869521D01*
Y0872236D01*
X0146461Y0872964D01*
X0146647Y0873900D01*
X0146461Y0874836D01*
X0145930Y0875630D01*
X0145136Y0876161D01*
X0144200Y0876347D01*
X0143581Y0876855D01*
Y0880125D01*
Y0885675D01*
X0139879D01*
X0139102Y0886675D01*
X0139147Y0886900D01*
X0138961Y0887836D01*
X0138430Y0888630D01*
X0137636Y0889161D01*
X0136700Y0889347D01*
X0135764Y0889161D01*
X0134970Y0888630D01*
X0134439Y0887836D01*
X0134253Y0886900D01*
X0134299Y0886667D01*
X0134319Y0885675D01*
X0134319Y0885675D01*
X0134319Y0885675D01*
Y0880950D01*
X0130498D01*
X0129619Y0881661D01*
X0129620Y0881666D01*
Y0882457D01*
X0129512Y0883001D01*
X0129204Y0883463D01*
X0128742Y0883771D01*
X0128198Y0883879D01*
X0126226D01*
X0125681Y0883771D01*
X0125220Y0883463D01*
X0124912Y0883001D01*
X0124803Y0882457D01*
Y0881666D01*
X0124912Y0881122D01*
X0125220Y0880660D01*
X0125580Y0880419D01*
Y0878061D01*
X0125705Y0877437D01*
X0126058Y0876908D01*
X0126587Y0876554D01*
X0127212Y0876430D01*
X0127724Y0876532D01*
X0130319D01*
Y0875401D01*
X0140913D01*
X0141477Y0874514D01*
X0141124Y0873781D01*
X0131925D01*
Y0870281D01*
X0127201D01*
X0127201Y0870281D01*
X0126911Y0870271D01*
X0125924Y0871136D01*
Y0873900D01*
X0125830Y0874368D01*
X0125565Y0874765D01*
X0123946Y0876384D01*
X0123549Y0876649D01*
X0123081Y0876742D01*
X0122142D01*
X0121747Y0877137D01*
X0121637Y0877302D01*
X0121346Y0877594D01*
Y0879948D01*
X0121252Y0880416D01*
X0120987Y0880813D01*
X0120590Y0881079D01*
X0120122Y0881172D01*
X0119697D01*
X0119100Y0881571D01*
Y0881648D01*
X0118910Y0882604D01*
X0118448Y0883294D01*
Y0883620D01*
X0118488Y0883681D01*
X0118597Y0884225D01*
Y0885016D01*
X0118488Y0885560D01*
X0118261Y0885900D01*
X0118488Y0886240D01*
X0118597Y0886784D01*
Y0887575D01*
X0118540Y0887861D01*
X0118647Y0888400D01*
X0118528Y0888998D01*
X0118597Y0889343D01*
Y0890124D01*
X0119105Y0890633D01*
X0119136Y0890639D01*
X0119930Y0891170D01*
X0120461Y0891964D01*
X0120518Y0892251D01*
X0120840Y0892187D01*
X0121172Y0892253D01*
X0122434D01*
Y0892812D01*
X0122571Y0892904D01*
X0123101Y0893697D01*
X0123287Y0894634D01*
X0123101Y0895570D01*
X0122571Y0896364D01*
X0122757Y0897333D01*
X0122844Y0897464D01*
X0123030Y0898400D01*
X0122844Y0899336D01*
X0122313Y0900130D01*
X0121520Y0900661D01*
X0121625Y0901659D01*
X0124382D01*
Y0897330D01*
X0130719D01*
Y0903470D01*
X0129147D01*
X0129137Y0903486D01*
X0127425Y0905198D01*
X0127526Y0905706D01*
Y0912664D01*
X0127772Y0912947D01*
X0128526Y0913419D01*
X0129251Y0913323D01*
X0130284Y0913459D01*
X0131246Y0913858D01*
X0132073Y0914492D01*
X0132707Y0915318D01*
X0132987Y0915996D01*
X0133685Y0916185D01*
X0134563Y0915601D01*
Y0911129D01*
X0140113D01*
Y0915519D01*
X0140113D01*
Y0920281D01*
X0138127D01*
X0137405Y0920764D01*
X0136547Y0920934D01*
X0133127D01*
X0133105Y0921102D01*
X0132707Y0922064D01*
X0132073Y0922891D01*
X0131360Y0923437D01*
X0131613Y0923815D01*
X0131729Y0924400D01*
Y0926871D01*
X0232700D01*
X0233914Y0926871D01*
D02*
G37*
G36*
X0257469Y0913280D02*
X0257577Y0912736D01*
X0257885Y0912274D01*
X0258347Y0911966D01*
X0258891Y0911858D01*
X0259400D01*
X0259783Y0910934D01*
X0253090Y0904241D01*
X0252021Y0904483D01*
X0251976Y0904542D01*
X0252147Y0905400D01*
X0251961Y0906336D01*
X0251430Y0907130D01*
X0250636Y0907661D01*
X0249700Y0907847D01*
X0248837Y0908695D01*
Y0909723D01*
X0253024Y0913911D01*
X0257469D01*
Y0913280D01*
D02*
G37*
G36*
X0117123Y0899311D02*
X0117629Y0898398D01*
X0117587Y0898334D01*
X0117416Y0897476D01*
Y0897015D01*
X0116884D01*
Y0894907D01*
X0116470Y0894630D01*
X0115939Y0893836D01*
X0115933Y0893805D01*
X0114602Y0892474D01*
X0114116Y0891747D01*
X0113945Y0890888D01*
Y0890764D01*
X0113888Y0890679D01*
X0113780Y0890134D01*
Y0889343D01*
X0113860Y0888939D01*
X0113753Y0888400D01*
X0113848Y0887920D01*
X0113780Y0887575D01*
Y0886784D01*
X0112806Y0886623D01*
X0110700D01*
X0110232Y0886530D01*
X0109835Y0886265D01*
X0109570Y0885868D01*
X0109476Y0885400D01*
Y0884482D01*
X0109392Y0884356D01*
X0109202Y0883400D01*
X0109104Y0883281D01*
X0105287D01*
Y0879300D01*
X0100914D01*
Y0888004D01*
X0101459Y0888411D01*
X0101914Y0888609D01*
X0102700Y0888453D01*
X0103636Y0888639D01*
X0104450Y0889157D01*
X0105264Y0888639D01*
X0106200Y0888453D01*
X0107136Y0888639D01*
X0107930Y0889170D01*
X0108948Y0889350D01*
X0109264Y0889139D01*
X0110200Y0888953D01*
X0111136Y0889139D01*
X0111930Y0889670D01*
X0112461Y0890464D01*
X0112647Y0891400D01*
X0112461Y0892336D01*
X0111930Y0893130D01*
X0111923Y0893205D01*
X0112646Y0893928D01*
X0113294D01*
Y0895100D01*
X0113331Y0895289D01*
X0113331Y0895291D01*
X0113862Y0896291D01*
X0115262D01*
Y0897391D01*
X0115301Y0897449D01*
X0115433Y0898113D01*
Y0898749D01*
X0116287Y0899395D01*
X0117123Y0899311D01*
D02*
G37*
G36*
X0152671Y0802172D02*
Y0782368D01*
X0152056Y0782113D01*
X0151168Y0781432D01*
X0150487Y0780544D01*
X0150058Y0779510D01*
X0149912Y0778400D01*
X0150058Y0777290D01*
X0150487Y0776256D01*
X0151168Y0775368D01*
X0152056Y0774687D01*
X0152748Y0774400D01*
X0152549Y0773400D01*
X0145851D01*
X0145652Y0774400D01*
X0146344Y0774687D01*
X0147232Y0775368D01*
X0147913Y0776256D01*
X0148342Y0777290D01*
X0148488Y0778400D01*
X0148342Y0779510D01*
X0147913Y0780544D01*
X0147232Y0781432D01*
X0146344Y0782113D01*
X0145729Y0782368D01*
Y0785797D01*
X0148881Y0788949D01*
X0149213Y0789445D01*
X0149329Y0790030D01*
Y0796481D01*
X0149213Y0797066D01*
X0148881Y0797563D01*
X0147229Y0799215D01*
Y0805018D01*
X0147653Y0805365D01*
X0149477D01*
X0152671Y0802172D01*
D02*
G37*
%LPC*%
G36*
X0079200Y0905077D02*
X0078378Y0904969D01*
X0077611Y0904652D01*
X0076953Y0904147D01*
X0076449Y0903489D01*
X0076131Y0902722D01*
X0076023Y0901900D01*
X0076131Y0901078D01*
X0076449Y0900311D01*
X0076953Y0899653D01*
X0077611Y0899148D01*
X0078378Y0898831D01*
X0079200Y0898723D01*
X0080022Y0898831D01*
X0080789Y0899148D01*
X0081447Y0899653D01*
X0081951Y0900311D01*
X0082269Y0901078D01*
X0082377Y0901900D01*
X0082269Y0902722D01*
X0081951Y0903489D01*
X0081447Y0904147D01*
X0080789Y0904652D01*
X0080022Y0904969D01*
X0079200Y0905077D01*
D02*
G37*
G36*
X0127901Y0893847D02*
X0126964Y0893661D01*
X0126171Y0893130D01*
X0125640Y0892336D01*
X0125454Y0891400D01*
X0125472Y0891308D01*
X0125220Y0891140D01*
X0124912Y0890679D01*
X0124803Y0890134D01*
Y0889343D01*
X0124912Y0888799D01*
X0125139Y0888459D01*
X0124912Y0888120D01*
X0124803Y0887575D01*
Y0886784D01*
X0124912Y0886240D01*
X0125220Y0885778D01*
X0125681Y0885470D01*
X0126226Y0885362D01*
X0128198D01*
X0128742Y0885470D01*
X0129204Y0885778D01*
X0129512Y0886240D01*
X0129620Y0886784D01*
Y0887575D01*
X0129512Y0888120D01*
X0129285Y0888459D01*
X0129512Y0888799D01*
X0129576Y0889120D01*
X0129973Y0889714D01*
X0130105Y0890380D01*
X0130161Y0890464D01*
X0130348Y0891400D01*
X0130161Y0892336D01*
X0129631Y0893130D01*
X0128837Y0893661D01*
X0127901Y0893847D01*
D02*
G37*
%LPD*%
G54D10*
X0194200Y0660762D02*
D03*
Y0656038D02*
D03*
X0189200Y0660762D02*
D03*
Y0656038D02*
D03*
X0184200Y0660762D02*
D03*
Y0656038D02*
D03*
X0179200Y0660762D02*
D03*
Y0656038D02*
D03*
X0136700Y0660762D02*
D03*
Y0656038D02*
D03*
X0131181Y0660762D02*
D03*
Y0656038D02*
D03*
X0154200Y0660762D02*
D03*
Y0656038D02*
D03*
X0149200Y0660762D02*
D03*
Y0656038D02*
D03*
X0176700Y0716038D02*
D03*
Y0720762D02*
D03*
X0181700Y0716038D02*
D03*
Y0720762D02*
D03*
X0195700Y0585762D02*
D03*
Y0581038D02*
D03*
X0220700Y0402762D02*
D03*
Y0398038D02*
D03*
X0150200Y0312762D02*
D03*
Y0308038D02*
D03*
X0144200Y0312762D02*
D03*
Y0308038D02*
D03*
X0151200Y0328038D02*
D03*
Y0332762D02*
D03*
X0167700Y0483762D02*
D03*
Y0479038D02*
D03*
X0224200Y0373762D02*
D03*
Y0369038D02*
D03*
X0197200Y0380762D02*
D03*
Y0376038D02*
D03*
X0146200Y0328038D02*
D03*
Y0332762D02*
D03*
X0154700Y0583262D02*
D03*
Y0578538D02*
D03*
X0169200Y0387762D02*
D03*
Y0383038D02*
D03*
X0255200Y0420762D02*
D03*
Y0416038D02*
D03*
Y0428538D02*
D03*
Y0433262D02*
D03*
X0219200Y0314762D02*
D03*
Y0310038D02*
D03*
X0159700Y0470262D02*
D03*
Y0465538D02*
D03*
X0291700Y0252762D02*
D03*
Y0248038D02*
D03*
X0294200Y0264762D02*
D03*
Y0260038D02*
D03*
X0104200Y0748262D02*
D03*
Y0743538D02*
D03*
X0094200Y0748262D02*
D03*
Y0743538D02*
D03*
X0104200Y0498262D02*
D03*
Y0493538D02*
D03*
X0094200Y0498262D02*
D03*
Y0493538D02*
D03*
X0102200Y0370038D02*
D03*
Y0374762D02*
D03*
X0162200Y0372762D02*
D03*
Y0368038D02*
D03*
X0214200Y0470538D02*
D03*
Y0475262D02*
D03*
X0215200Y0400038D02*
D03*
Y0404762D02*
D03*
X0201200Y0376038D02*
D03*
Y0380762D02*
D03*
X0161819Y0818762D02*
D03*
Y0814038D02*
D03*
X0149319Y0871381D02*
D03*
Y0866657D02*
D03*
X0082700Y0837124D02*
D03*
Y0832400D02*
D03*
Y0843676D02*
D03*
Y0848400D02*
D03*
X0157700Y0830538D02*
D03*
Y0835262D02*
D03*
X0162700Y0830538D02*
D03*
Y0835262D02*
D03*
X0092200Y0866762D02*
D03*
Y0862038D02*
D03*
X0110200Y0790038D02*
D03*
Y0794762D02*
D03*
X0075700Y0795085D02*
D03*
Y0799810D02*
D03*
X0081700Y0795085D02*
D03*
Y0799810D02*
D03*
X0087700Y0861538D02*
D03*
Y0866262D02*
D03*
X0117700Y0869038D02*
D03*
Y0873762D02*
D03*
X0136700Y0878176D02*
D03*
Y0882900D02*
D03*
X0141200D02*
D03*
Y0878176D02*
D03*
X0132700D02*
D03*
Y0882900D02*
D03*
X0226200Y0463762D02*
D03*
Y0459038D02*
D03*
X0230200Y0463762D02*
D03*
Y0459038D02*
D03*
X0131700Y0626038D02*
D03*
Y0630762D02*
D03*
X0136700Y0626038D02*
D03*
Y0630762D02*
D03*
G54D11*
X0246062Y0901400D02*
D03*
X0241338D02*
D03*
X0246062Y0909400D02*
D03*
X0241338D02*
D03*
X0241338Y0905400D02*
D03*
X0246062D02*
D03*
X0201562Y0367400D02*
D03*
X0196838D02*
D03*
X0158062Y0557900D02*
D03*
X0153338D02*
D03*
X0158062Y0553400D02*
D03*
X0153338D02*
D03*
X0278838Y0338400D02*
D03*
X0283562D02*
D03*
X0278838Y0358400D02*
D03*
X0283562D02*
D03*
X0278838Y0368400D02*
D03*
X0283562D02*
D03*
X0278838Y0348400D02*
D03*
X0283562D02*
D03*
X0195838Y0358400D02*
D03*
X0200562D02*
D03*
X0205562Y0353400D02*
D03*
X0200838D02*
D03*
X0220338Y0392400D02*
D03*
X0225062D02*
D03*
X0212562D02*
D03*
X0207838D02*
D03*
X0210562Y0402400D02*
D03*
X0205838D02*
D03*
X0289338Y0740900D02*
D03*
X0294062D02*
D03*
X0289338Y0735900D02*
D03*
X0294062D02*
D03*
X0124562Y0391400D02*
D03*
X0119838D02*
D03*
X0103338Y0880900D02*
D03*
X0108062D02*
D03*
X0100476Y0794900D02*
D03*
X0105200D02*
D03*
X0100476Y0790900D02*
D03*
X0105200D02*
D03*
X0134700Y0871400D02*
D03*
X0129976D02*
D03*
X0119887Y0790809D02*
D03*
X0115163D02*
D03*
X0119887Y0795094D02*
D03*
X0115163D02*
D03*
X0144562Y0794400D02*
D03*
X0139838D02*
D03*
X0143200Y0867900D02*
D03*
X0138476D02*
D03*
X0077976Y0826400D02*
D03*
X0082700D02*
D03*
X0077976Y0822900D02*
D03*
X0082700D02*
D03*
X0077976Y0818900D02*
D03*
X0082700D02*
D03*
X0134700Y0867900D02*
D03*
X0129976D02*
D03*
X0143200Y0871400D02*
D03*
X0138476D02*
D03*
X0159062Y0866400D02*
D03*
X0154338D02*
D03*
X0162700Y0858400D02*
D03*
X0157976D02*
D03*
X0162700Y0854900D02*
D03*
X0157976D02*
D03*
X0162700Y0851400D02*
D03*
X0157976D02*
D03*
X0090700Y0794900D02*
D03*
X0095424D02*
D03*
X0095424Y0790900D02*
D03*
X0090700D02*
D03*
X0157976Y0844400D02*
D03*
X0162700D02*
D03*
X0124383Y0894634D02*
D03*
X0119659D02*
D03*
X0122897Y0877900D02*
D03*
X0118172D02*
D03*
X0142062Y0917900D02*
D03*
X0137338D02*
D03*
X0137338Y0913510D02*
D03*
X0142062D02*
D03*
X0157976Y0847900D02*
D03*
X0162700D02*
D03*
G54D12*
X0265487Y0922731D02*
D03*
X0238913Y0922731D02*
D03*
X0255913Y0250069D02*
D03*
X0282487Y0250069D02*
D03*
G54D13*
X0260468Y0915644D02*
D03*
X0243932D02*
D03*
X0260932Y0257156D02*
D03*
X0277468D02*
D03*
G54D14*
X0154870Y0386730D02*
D03*
X0151530Y0390070D02*
D03*
X0152530Y0396070D02*
D03*
X0155870Y0392730D02*
D03*
X0148870Y0399730D02*
D03*
X0145530Y0403070D02*
D03*
X0210030Y0464070D02*
D03*
X0213370Y0460730D02*
D03*
X0156370Y0406730D02*
D03*
X0153030Y0410070D02*
D03*
X0153370Y0403730D02*
D03*
X0150030Y0407070D02*
D03*
X0158530Y0383070D02*
D03*
X0161870Y0379730D02*
D03*
G54D15*
X0289247Y0348400D02*
D03*
X0295153D02*
D03*
X0289247Y0338400D02*
D03*
X0295153D02*
D03*
X0289247Y0368400D02*
D03*
X0295153D02*
D03*
X0289247Y0358400D02*
D03*
X0295153D02*
D03*
G54D16*
X0230200Y0273550D02*
D03*
Y0267250D02*
D03*
X0208700Y0476550D02*
D03*
Y0470250D02*
D03*
X0236200Y0267250D02*
D03*
Y0273550D02*
D03*
G54D17*
X0097550Y0899900D02*
D03*
X0103850D02*
D03*
X0133850Y0900400D02*
D03*
X0127550D02*
D03*
G54D18*
X0109731Y0898081D02*
D03*
X0111700D02*
D03*
X0113669D02*
D03*
Y0895719D02*
D03*
X0111700D02*
D03*
X0213200Y0272219D02*
D03*
X0215168D02*
D03*
Y0274581D02*
D03*
X0213200D02*
D03*
X0211231D02*
D03*
G54D19*
X0109731Y0895817D02*
D03*
X0211231Y0272317D02*
D03*
G54D20*
X0246200Y0800412D02*
D03*
Y0784388D02*
D03*
X0241200Y0800412D02*
D03*
X0236200D02*
D03*
X0231200D02*
D03*
X0226200D02*
D03*
X0241200Y0784388D02*
D03*
X0236200D02*
D03*
X0231200D02*
D03*
X0226200D02*
D03*
Y0744388D02*
D03*
Y0760412D02*
D03*
X0231200Y0744388D02*
D03*
X0236200D02*
D03*
X0241200D02*
D03*
X0246200D02*
D03*
X0231200Y0760412D02*
D03*
X0236200D02*
D03*
X0241200D02*
D03*
X0246200D02*
D03*
G54D21*
X0103039Y0869400D02*
D03*
X0111700D02*
D03*
X0103039Y0875699D02*
D03*
X0111700D02*
D03*
G54D22*
X0213200Y0795959D02*
D03*
Y0790841D02*
D03*
G54D23*
X0210641Y0795368D02*
D03*
Y0791432D02*
D03*
X0215759D02*
D03*
Y0795368D02*
D03*
G54D24*
X0210641Y0793400D02*
D03*
X0215759D02*
D03*
G54D25*
X0211641Y0259640D02*
D03*
X0214200D02*
D03*
X0209082D02*
D03*
X0216759D02*
D03*
X0219318D02*
D03*
G54D26*
X0218728Y0248617D02*
D03*
X0209672D02*
D03*
G54D27*
X0200200Y0312176D02*
D03*
G54D28*
X0195279Y0342687D02*
D03*
X0205121D02*
D03*
G54D29*
X0218350Y0378069D02*
D03*
Y0386731D02*
D03*
X0212050Y0378069D02*
D03*
Y0386731D02*
D03*
G54D30*
X0312531Y0740113D02*
D03*
X0312531Y0766687D02*
D03*
X0075869Y0766687D02*
D03*
X0075869Y0740113D02*
D03*
G54D31*
X0305444Y0745132D02*
D03*
Y0761668D02*
D03*
X0082956Y0761668D02*
D03*
Y0745132D02*
D03*
G54D32*
X0120200Y0307672D02*
D03*
X0125200D02*
D03*
X0135200Y0329128D02*
D03*
X0130200D02*
D03*
X0125200D02*
D03*
X0120200D02*
D03*
X0135200Y0307672D02*
D03*
X0130200D02*
D03*
G54D33*
X0113700Y0376152D02*
D03*
X0118700D02*
D03*
X0123700D02*
D03*
X0128700D02*
D03*
X0133700D02*
D03*
X0138700D02*
D03*
X0143700D02*
D03*
X0148700D02*
D03*
Y0342648D02*
D03*
X0143700D02*
D03*
X0138700D02*
D03*
X0133700D02*
D03*
X0128700D02*
D03*
X0123700D02*
D03*
X0118700D02*
D03*
X0113700D02*
D03*
G54D34*
X0138861Y0549388D02*
D03*
X0141420D02*
D03*
X0143980D02*
D03*
X0146539D02*
D03*
Y0560412D02*
D03*
X0143980D02*
D03*
X0141420D02*
D03*
X0138861D02*
D03*
G54D35*
X0142700Y0554900D02*
D03*
G54D36*
X0167775Y0406953D02*
D03*
X0188376Y0472096D02*
D03*
X0189489Y0470982D02*
D03*
X0190603Y0469869D02*
D03*
X0191717Y0468755D02*
D03*
X0192830Y0467642D02*
D03*
X0193944Y0466528D02*
D03*
X0195057Y0465415D02*
D03*
X0196171Y0464301D02*
D03*
X0197284Y0463188D02*
D03*
X0198398Y0462074D02*
D03*
X0199511Y0460960D02*
D03*
X0200625Y0459847D02*
D03*
X0201739Y0458733D02*
D03*
X0202852Y0457620D02*
D03*
X0203966Y0456506D02*
D03*
X0205079Y0455393D02*
D03*
X0206193Y0454279D02*
D03*
X0207306Y0453166D02*
D03*
X0208420Y0452052D02*
D03*
X0209533Y0450939D02*
D03*
X0210647Y0449825D02*
D03*
X0211760Y0448711D02*
D03*
X0212874Y0447598D02*
D03*
X0213988Y0446484D02*
D03*
X0215101Y0445371D02*
D03*
X0216215Y0444257D02*
D03*
X0217328Y0443144D02*
D03*
X0218442Y0442030D02*
D03*
X0219555Y0440916D02*
D03*
X0220669Y0439803D02*
D03*
X0221782Y0438689D02*
D03*
X0222896Y0437576D02*
D03*
X0180024Y0394704D02*
D03*
X0178911Y0395817D02*
D03*
X0177797Y0396931D02*
D03*
X0176683Y0398045D02*
D03*
X0175570Y0399158D02*
D03*
X0174456Y0400272D02*
D03*
X0173343Y0401385D02*
D03*
X0172229Y0402499D02*
D03*
X0171116Y0403612D02*
D03*
X0170002Y0404726D02*
D03*
X0168889Y0405839D02*
D03*
X0166662Y0408067D02*
D03*
X0165548Y0409180D02*
D03*
X0164434Y0410294D02*
D03*
X0163321Y0411407D02*
D03*
X0162207Y0412521D02*
D03*
X0161094Y0413634D02*
D03*
X0159980Y0414748D02*
D03*
X0158867Y0415862D02*
D03*
X0157753Y0416975D02*
D03*
X0156640Y0418089D02*
D03*
X0155526Y0419202D02*
D03*
X0154412Y0420316D02*
D03*
X0153299Y0421429D02*
D03*
X0152185Y0422543D02*
D03*
X0151072Y0423656D02*
D03*
X0149958Y0424770D02*
D03*
X0148845Y0425883D02*
D03*
X0147731Y0426997D02*
D03*
X0146618Y0428111D02*
D03*
X0145504Y0429224D02*
D03*
G54D37*
X0222896D02*
D03*
X0221782Y0428111D02*
D03*
X0220669Y0426997D02*
D03*
X0219555Y0425883D02*
D03*
X0218442Y0424770D02*
D03*
X0217328Y0423656D02*
D03*
X0216215Y0422543D02*
D03*
X0215101Y0421429D02*
D03*
X0213988Y0420316D02*
D03*
X0212874Y0419202D02*
D03*
X0211760Y0418089D02*
D03*
X0210647Y0416975D02*
D03*
X0209533Y0415862D02*
D03*
X0208420Y0414748D02*
D03*
X0207306Y0413634D02*
D03*
X0206193Y0412521D02*
D03*
X0205079Y0411407D02*
D03*
X0203966Y0410294D02*
D03*
X0202852Y0409180D02*
D03*
X0201739Y0408067D02*
D03*
X0200625Y0406953D02*
D03*
X0199511Y0405839D02*
D03*
X0198398Y0404726D02*
D03*
X0197284Y0403612D02*
D03*
X0196171Y0402499D02*
D03*
X0195057Y0401385D02*
D03*
X0193944Y0400272D02*
D03*
X0192830Y0399158D02*
D03*
X0191717Y0398045D02*
D03*
X0190603Y0396931D02*
D03*
X0189489Y0395817D02*
D03*
X0188376Y0394704D02*
D03*
X0145504Y0437576D02*
D03*
X0146618Y0438689D02*
D03*
X0147731Y0439803D02*
D03*
X0148845Y0440916D02*
D03*
X0149958Y0442030D02*
D03*
X0151072Y0443144D02*
D03*
X0152185Y0444257D02*
D03*
X0153299Y0445371D02*
D03*
X0154412Y0446484D02*
D03*
X0155526Y0447598D02*
D03*
X0156640Y0448711D02*
D03*
X0157753Y0449825D02*
D03*
X0158867Y0450939D02*
D03*
X0159980Y0452052D02*
D03*
X0161094Y0453166D02*
D03*
X0162207Y0454279D02*
D03*
X0163321Y0455393D02*
D03*
X0164434Y0456506D02*
D03*
X0165548Y0457620D02*
D03*
X0166662Y0458733D02*
D03*
X0167775Y0459847D02*
D03*
X0168889Y0460960D02*
D03*
X0170002Y0462074D02*
D03*
X0171116Y0463188D02*
D03*
X0172229Y0464301D02*
D03*
X0173343Y0465415D02*
D03*
X0174456Y0466528D02*
D03*
X0175570Y0467642D02*
D03*
X0176683Y0468755D02*
D03*
X0177797Y0469869D02*
D03*
X0178911Y0470982D02*
D03*
X0180024Y0472096D02*
D03*
G54D38*
X0096491Y0330400D02*
D03*
X0107909D02*
D03*
G54D39*
X0112074Y0314400D02*
D03*
X0096326D02*
D03*
G54D40*
X0160200Y0319109D02*
D03*
Y0307691D02*
D03*
G54D41*
X0095291Y0801085D02*
D03*
X0096866D02*
D03*
X0098440D02*
D03*
X0100015D02*
D03*
X0101590D02*
D03*
X0103165D02*
D03*
X0104740D02*
D03*
X0106314D02*
D03*
X0107889D02*
D03*
X0109464D02*
D03*
X0111039D02*
D03*
X0112614D02*
D03*
X0114188D02*
D03*
X0115763D02*
D03*
X0117338D02*
D03*
X0118913D02*
D03*
X0120488D02*
D03*
X0122062D02*
D03*
X0123637D02*
D03*
X0125212D02*
D03*
X0126787D02*
D03*
X0128362D02*
D03*
X0129936D02*
D03*
X0131511D02*
D03*
X0133086D02*
D03*
X0134661D02*
D03*
X0136236D02*
D03*
X0137811D02*
D03*
X0139385D02*
D03*
X0140960D02*
D03*
X0142535D02*
D03*
X0144110D02*
D03*
Y0861715D02*
D03*
X0142535D02*
D03*
X0140960D02*
D03*
X0139385D02*
D03*
X0137811D02*
D03*
X0136236D02*
D03*
X0134661D02*
D03*
X0133086D02*
D03*
X0131511D02*
D03*
X0129936D02*
D03*
X0128362D02*
D03*
X0126787D02*
D03*
X0125212D02*
D03*
X0123637D02*
D03*
X0122062D02*
D03*
X0120488D02*
D03*
X0118913D02*
D03*
X0117338D02*
D03*
X0115763D02*
D03*
X0114188D02*
D03*
X0112614D02*
D03*
X0111039D02*
D03*
X0109464D02*
D03*
X0107889D02*
D03*
X0106314D02*
D03*
X0104740D02*
D03*
X0103165D02*
D03*
X0101590D02*
D03*
X0100015D02*
D03*
X0098440D02*
D03*
X0096866D02*
D03*
X0095291D02*
D03*
G54D42*
X0150015Y0806990D02*
D03*
Y0808565D02*
D03*
Y0810140D02*
D03*
Y0811715D02*
D03*
Y0813290D02*
D03*
Y0814864D02*
D03*
Y0816439D02*
D03*
Y0818014D02*
D03*
Y0819589D02*
D03*
Y0821164D02*
D03*
Y0822738D02*
D03*
Y0824313D02*
D03*
Y0825888D02*
D03*
Y0827463D02*
D03*
Y0829038D02*
D03*
Y0830612D02*
D03*
Y0832187D02*
D03*
Y0833762D02*
D03*
Y0835337D02*
D03*
Y0836912D02*
D03*
Y0838486D02*
D03*
Y0840061D02*
D03*
Y0841636D02*
D03*
Y0843211D02*
D03*
Y0844786D02*
D03*
Y0846360D02*
D03*
Y0847935D02*
D03*
Y0849510D02*
D03*
Y0851085D02*
D03*
Y0852660D02*
D03*
Y0854235D02*
D03*
Y0855809D02*
D03*
X0089385D02*
D03*
Y0854235D02*
D03*
Y0852660D02*
D03*
Y0851085D02*
D03*
Y0849510D02*
D03*
Y0847935D02*
D03*
Y0846360D02*
D03*
Y0844786D02*
D03*
Y0843211D02*
D03*
Y0841636D02*
D03*
Y0840061D02*
D03*
Y0838486D02*
D03*
Y0836912D02*
D03*
Y0835337D02*
D03*
Y0833762D02*
D03*
Y0832187D02*
D03*
Y0830612D02*
D03*
Y0829038D02*
D03*
Y0827463D02*
D03*
Y0825888D02*
D03*
Y0824313D02*
D03*
Y0822738D02*
D03*
Y0821164D02*
D03*
Y0819589D02*
D03*
Y0818014D02*
D03*
Y0816439D02*
D03*
Y0814864D02*
D03*
Y0813290D02*
D03*
Y0811715D02*
D03*
Y0810140D02*
D03*
Y0808565D02*
D03*
Y0806990D02*
D03*
G54D43*
X0211641Y0748400D02*
D03*
X0216759D02*
D03*
G54D44*
X0212231Y0745841D02*
D03*
X0216168D02*
D03*
Y0750959D02*
D03*
X0212231D02*
D03*
G54D45*
X0214200Y0745841D02*
D03*
Y0750959D02*
D03*
G54D46*
X0118818Y0908219D02*
D03*
X0116259Y0908219D02*
D03*
X0113700Y0908219D02*
D03*
X0111141Y0908219D02*
D03*
X0108582Y0908219D02*
D03*
G54D47*
X0117391Y0918691D02*
D03*
X0110009D02*
D03*
G54D48*
X0123395Y0909636D02*
D03*
X0104005D02*
D03*
G54D49*
X0121700Y0885900D02*
D03*
G54D50*
X0127212Y0889739D02*
D03*
Y0887179D02*
D03*
Y0884620D02*
D03*
Y0882061D02*
D03*
X0116188D02*
D03*
Y0884620D02*
D03*
Y0887179D02*
D03*
Y0889739D02*
D03*
G54D51*
X0125771Y0793959D02*
D03*
Y0791400D02*
D03*
Y0788841D02*
D03*
X0134629D02*
D03*
Y0793959D02*
D03*
G54D52*
X0081700Y0804447D02*
D03*
Y0810353D02*
D03*
X0075700D02*
D03*
Y0804447D02*
D03*
G54D53*
X0113700Y0380648D02*
X0119452Y0386400D01*
X0113700Y0376152D02*
Y0380648D01*
X0125643Y0278705D02*
X0131505D01*
X0121637Y0274699D02*
X0125643Y0278705D01*
X0123637Y0295963D02*
Y0338687D01*
X0121637Y0295135D02*
Y0335100D01*
X0123700Y0338750D02*
Y0342648D01*
X0123637Y0338687D02*
X0123700Y0338750D01*
X0119669Y0337068D02*
X0121637Y0335100D01*
X0113700Y0338900D02*
X0115532Y0337068D01*
X0113700Y0338900D02*
Y0342648D01*
X0115532Y0337068D02*
X0119669D01*
X0133674Y0273040D02*
Y0277926D01*
X0133614Y0277986D02*
X0133674Y0277926D01*
X0133614Y0267761D02*
Y0272980D01*
X0133674Y0273040D01*
X0133614Y0267761D02*
X0133684Y0267691D01*
X0133614Y0277986D02*
X0135200Y0279572D01*
X0131505Y0278705D02*
X0133200Y0280400D01*
Y0287572D01*
X0135200Y0279572D02*
Y0288400D01*
X0131200Y0292400D02*
X0135200Y0288400D01*
X0130372Y0290400D02*
X0133200Y0287572D01*
X0126372Y0290400D02*
X0130372D01*
X0121637Y0295135D02*
X0126372Y0290400D01*
X0127200Y0292400D02*
X0131200D01*
X0123637Y0295963D02*
X0127200Y0292400D01*
X0131800Y0297572D02*
Y0334428D01*
X0133800Y0298400D02*
Y0333600D01*
X0138700Y0338700D02*
Y0342648D01*
X0137900Y0337900D02*
X0138700Y0338700D01*
X0135272Y0337900D02*
X0137900D01*
X0131800Y0334428D02*
X0135272Y0337900D01*
X0148700Y0340300D02*
Y0342648D01*
X0144300Y0335900D02*
X0148700Y0340300D01*
X0136100Y0335900D02*
X0144300D01*
X0133800Y0333600D02*
X0136100Y0335900D01*
X0141716Y0267691D02*
Y0271087D01*
X0137700Y0274699D02*
X0137999Y0274400D01*
X0142200D01*
X0141716Y0271087D02*
X0146450Y0275822D01*
X0142200Y0274400D02*
X0144450Y0276650D01*
Y0290150D01*
X0142200Y0292400D02*
X0144450Y0290150D01*
X0146450Y0275822D02*
Y0290978D01*
X0143028Y0294400D02*
X0146450Y0290978D01*
X0137800Y0294400D02*
X0143028D01*
X0136972Y0292400D02*
X0142200D01*
X0131800Y0297572D02*
X0136972Y0292400D01*
X0133800Y0298400D02*
X0137800Y0294400D01*
X0125700Y0384400D02*
X0138614D01*
X0123700Y0376152D02*
Y0382400D01*
X0125700Y0384400D01*
X0138700Y0380648D02*
X0142619Y0384567D01*
X0138700Y0376152D02*
Y0380648D01*
X0154538Y0384567D02*
X0167200Y0397228D01*
Y0399697D01*
X0119452Y0386400D02*
X0137786D01*
X0162028Y0398400D02*
X0166114Y0402486D01*
X0161200Y0400400D02*
X0164700Y0403900D01*
X0151786Y0400400D02*
X0161200D01*
X0137786Y0386400D02*
X0151786Y0400400D01*
X0152614Y0398400D02*
X0162028D01*
X0138614Y0384400D02*
X0152614Y0398400D01*
X0148700Y0380050D02*
X0150700Y0382050D01*
X0148700Y0376152D02*
Y0380050D01*
X0169200Y0396400D02*
Y0398400D01*
X0154850Y0382050D02*
X0169200Y0396400D01*
X0142619Y0384567D02*
X0154538D01*
X0150700Y0382050D02*
X0154850D01*
G54D54*
X0143200Y0262900D02*
X0152200Y0271900D01*
X0144200Y0301400D02*
X0152200Y0293400D01*
Y0271900D02*
Y0293400D01*
X0150200Y0300400D02*
Y0308038D01*
X0143200Y0260400D02*
X0154200Y0271400D01*
Y0296400D01*
X0150200Y0300400D02*
X0154200Y0296400D01*
X0221606Y0422122D02*
Y0423833D01*
X0223685Y0422915D02*
Y0423981D01*
X0221585Y0421785D02*
Y0422102D01*
X0221606Y0422122D01*
X0154200Y0335762D02*
Y0350400D01*
X0151200Y0332762D02*
X0154200Y0335762D01*
X0199700Y0436400D02*
X0201700Y0438400D01*
X0200700Y0427900D02*
X0204176D01*
X0199700Y0428900D02*
X0200700Y0427900D01*
X0199700Y0428900D02*
Y0436400D01*
X0198200Y0449900D02*
X0201700Y0446400D01*
Y0438400D02*
Y0446400D01*
X0207587Y0457900D02*
X0208200D01*
X0205079Y0455393D02*
X0207587Y0457900D01*
X0160497Y0458217D02*
X0163321Y0455393D01*
X0136700Y0623900D02*
Y0626038D01*
X0134200Y0621400D02*
X0136700Y0623900D01*
X0131700D02*
X0134200Y0621400D01*
X0131700Y0623900D02*
Y0626038D01*
X0241200Y0744388D02*
Y0751900D01*
Y0744388D02*
X0246200D01*
X0236200D02*
X0241200D01*
X0231200D02*
X0236200D01*
X0189088Y0402900D02*
X0192830Y0399158D01*
X0157200Y0411400D02*
X0158859D01*
X0161094Y0413634D01*
X0162201Y0405833D02*
X0165548Y0409180D01*
X0162201Y0405833D02*
X0164428D01*
X0166662Y0408067D01*
X0120583Y0897842D02*
Y0898400D01*
X0107700Y0899400D02*
X0109731Y0898081D01*
X0105953Y0890900D02*
X0106200D01*
X0113700Y0898113D02*
Y0902900D01*
X0216168Y0750959D02*
Y0751168D01*
X0234968D02*
X0236200Y0752399D01*
Y0760412D01*
X0214200Y0750959D02*
Y0752400D01*
X0218212Y0760412D02*
X0226200D01*
X0231200Y0754400D02*
Y0760412D01*
X0214200Y0752400D02*
X0215200Y0753400D01*
X0230200D02*
X0231200Y0754400D01*
X0215759Y0795368D02*
X0222232D01*
X0224212Y0793388D01*
X0243212D01*
X0246200Y0790400D01*
Y0784388D02*
Y0790400D01*
X0236200Y0778817D02*
Y0784388D01*
X0210609Y0791400D02*
X0210641Y0791432D01*
X0208200Y0791400D02*
X0210609D01*
X0216759Y0748400D02*
X0220200D01*
X0215759Y0793400D02*
X0221672D01*
X0223471Y0791601D01*
X0238999D01*
X0241200Y0789400D01*
Y0784388D02*
Y0789400D01*
X0109200Y0785953D02*
Y0790038D01*
X0154002Y0811715D02*
X0160147Y0805570D01*
X0150015Y0811715D02*
X0154002D01*
X0158547Y0776059D02*
X0161859Y0772747D01*
X0158547Y0776059D02*
Y0804053D01*
X0161859Y0772747D02*
X0178547D01*
X0184200Y0778400D01*
X0223467Y0775900D02*
X0233283D01*
X0236200Y0778817D01*
X0218700Y0780667D02*
X0223467Y0775900D01*
X0218700Y0780667D02*
Y0788491D01*
X0215759Y0791432D02*
X0218700Y0788491D01*
X0215200Y0753400D02*
X0230200D01*
X0184200Y0768400D02*
X0189700Y0762900D01*
X0215700D01*
X0221200Y0768400D01*
X0227700D01*
X0231200Y0760412D02*
Y0764900D01*
X0227700Y0768400D02*
X0231200Y0764900D01*
X0246200Y0752893D02*
Y0760412D01*
X0206200Y0789400D02*
X0208200Y0791400D01*
X0164200Y0768400D02*
X0168851Y0763750D01*
X0176588D01*
X0246200Y0752893D02*
X0248757Y0750336D01*
Y0737796D02*
Y0750336D01*
X0246200Y0735239D02*
X0248757Y0737796D01*
X0221627Y0735239D02*
X0246200D01*
X0214200Y0742667D02*
X0221627Y0735239D01*
X0214200Y0742667D02*
Y0745841D01*
X0231147Y0772453D02*
X0236200Y0767400D01*
X0252306Y0915644D02*
X0260468D01*
X0246062Y0909400D02*
X0252306Y0915644D01*
X0226200Y0737900D02*
Y0744388D01*
X0161957Y0818900D02*
X0166200D01*
X0174200Y0768400D02*
X0182200Y0760400D01*
X0212231Y0750959D02*
Y0760400D01*
X0218200D01*
X0176588Y0763750D02*
X0181937Y0758400D01*
X0197700D01*
X0209933Y0742667D02*
X0214200D01*
X0206200Y0746400D02*
X0209933Y0742667D01*
X0206200Y0746400D02*
Y0749900D01*
X0197700Y0758400D02*
X0206200Y0749900D01*
X0111141Y0904341D02*
Y0908219D01*
X0110700Y0903900D02*
X0111141Y0904341D01*
X0110700Y0902900D02*
Y0903900D01*
Y0902663D02*
Y0902900D01*
X0110502Y0902465D02*
X0110700Y0902663D01*
X0110502Y0902465D02*
X0111047Y0901920D01*
Y0901305D02*
Y0901920D01*
Y0901305D02*
X0111400Y0900953D01*
Y0900952D02*
Y0900953D01*
Y0900952D02*
X0111700Y0900652D01*
Y0898081D02*
Y0900652D01*
X0113700Y0902900D02*
Y0908219D01*
X0238913Y0920664D02*
Y0922731D01*
Y0920664D02*
X0243932Y0915644D01*
X0237444D02*
X0243932D01*
X0232700Y0910900D02*
X0237444Y0915644D01*
X0232700Y0907900D02*
X0237200Y0903400D01*
Y0899900D02*
Y0903400D01*
X0232700Y0907900D02*
Y0910900D01*
X0243381Y0898719D02*
X0246062Y0901400D01*
X0238381Y0898719D02*
X0243381D01*
X0237200Y0899900D02*
X0238381Y0898719D01*
X0265487Y0914187D02*
Y0922731D01*
X0252700Y0901400D02*
X0265487Y0914187D01*
X0246062Y0901400D02*
X0252700D01*
X0265487Y0914187D02*
X0277413D01*
X0291700Y0899900D01*
X0144200Y0301400D02*
Y0308038D01*
X0130444Y0262900D02*
X0143200D01*
X0125653Y0267691D02*
X0130444Y0262900D01*
X0117621Y0267691D02*
X0124913Y0260400D01*
X0143200D01*
X0144200Y0312762D02*
X0148150D01*
X0150200D01*
X0146200Y0328038D02*
X0151200D01*
X0148441Y0319109D02*
X0160200D01*
X0148150Y0312762D02*
Y0321450D01*
X0146200Y0323400D02*
Y0328038D01*
Y0323400D02*
X0148150Y0321450D01*
X0146200Y0332762D02*
X0152200Y0338762D01*
Y0348400D01*
X0151200Y0349400D02*
X0152200Y0348400D01*
X0146200Y0349400D02*
X0151200D01*
X0143700Y0346900D02*
X0146200Y0349400D01*
X0143700Y0342648D02*
Y0346900D01*
X0152200Y0352400D02*
X0154200Y0350400D01*
X0123200Y0352400D02*
X0152200D01*
X0118700Y0347900D02*
X0123200Y0352400D01*
X0118700Y0342648D02*
Y0347900D01*
X0211231Y0274581D02*
Y0277368D01*
X0211200Y0277400D02*
X0211231Y0277368D01*
X0215200Y0396400D02*
Y0400038D01*
X0203966Y0410294D02*
X0207200Y0407059D01*
X0212874Y0419202D02*
X0216700Y0415376D01*
Y0406262D02*
Y0415376D01*
X0215200Y0404762D02*
X0216700Y0406262D01*
X0278838Y0338400D02*
Y0348400D01*
Y0358400D02*
Y0368400D01*
X0275200Y0355400D02*
X0278838D01*
Y0348400D02*
Y0355400D01*
Y0358400D01*
X0208700Y0470250D02*
X0213913D01*
X0214200Y0470538D01*
X0208700Y0476550D02*
Y0480400D01*
X0214200Y0475262D02*
Y0478900D01*
X0205730Y0473220D02*
X0208700Y0470250D01*
X0205730Y0473220D02*
Y0485930D01*
X0187700Y0402900D02*
X0189088D01*
X0204176Y0427900D02*
X0212874Y0419202D01*
X0198200Y0449900D02*
Y0452900D01*
X0202852Y0457552D01*
Y0457620D01*
X0172229Y0464301D02*
X0175013Y0461517D01*
X0177240D01*
X0173343Y0465415D02*
X0177240Y0461517D01*
X0178700Y0460057D01*
X0146088Y0445900D02*
X0149958Y0442030D01*
X0146700Y0446400D02*
X0150042D01*
X0152185Y0444257D01*
X0148043Y0418400D02*
X0152185Y0422543D01*
X0205730Y0485930D02*
X0208200Y0488400D01*
X0214200D01*
X0250200Y0250400D02*
X0255582D01*
X0255913Y0250069D01*
X0277468Y0257156D02*
X0280224Y0254400D01*
X0281700D01*
Y0250857D02*
Y0254400D01*
Y0250857D02*
X0282487Y0250069D01*
X0291700Y0768900D02*
Y0899900D01*
X0082700Y0761924D02*
Y0766900D01*
Y0761924D02*
X0082956Y0761668D01*
X0076082Y0766900D02*
X0082700D01*
X0075869Y0766687D02*
X0076082Y0766900D01*
X0076582Y0739400D02*
X0082200D01*
X0075869Y0740113D02*
X0076582Y0739400D01*
X0305700Y0766900D02*
X0312318D01*
X0312531Y0766687D01*
X0305700Y0739900D02*
Y0744876D01*
X0305444Y0745132D02*
X0305700Y0744876D01*
Y0739900D02*
X0312318D01*
X0312531Y0740113D01*
X0182200Y0760400D02*
X0201200D01*
X0212231D01*
X0216168Y0751168D02*
X0234968D01*
X0205200Y0461900D02*
X0206856Y0463556D01*
Y0468407D01*
X0208700Y0470250D01*
X0205200Y0460400D02*
Y0461900D01*
X0164200Y0698400D02*
Y0755400D01*
X0176700Y0700900D02*
Y0716038D01*
X0174200Y0698400D02*
X0176700Y0700900D01*
X0181700Y0700900D02*
Y0716038D01*
Y0700900D02*
X0184200Y0698400D01*
X0176700Y0720762D02*
Y0726900D01*
X0181700Y0720762D02*
Y0726900D01*
X0162700Y0851400D02*
X0166700D01*
X0162700Y0854900D02*
X0166700D01*
X0162700Y0858400D02*
X0166700D01*
X0162700Y0847900D02*
X0166700D01*
X0497200Y0080717D02*
Y0101050D01*
X0413200Y0080717D02*
Y0101050D01*
X0040000Y0080717D02*
X0700200D01*
X0040000Y0060383D02*
X0700000D01*
X0040000Y0040050D02*
X0440500D01*
X0040050Y0101050D02*
X0700200D01*
X0040050Y0040050D02*
Y0101050D01*
Y0040050D02*
X0197600D01*
X0040000D02*
Y0101050D01*
X0286500Y0040050D02*
Y0101050D01*
X0700200Y0040050D02*
Y0101050D01*
X0440500Y0040050D02*
X0700200D01*
X0559400Y0039400D02*
Y0059683D01*
G54D55*
X0219555Y0425883D02*
X0221606Y0423833D01*
X0220669Y0426997D02*
X0223685Y0423981D01*
G54D56*
X0213500Y0289100D02*
Y0352370D01*
Y0289100D02*
X0214200Y0288400D01*
X0211641Y0259640D02*
Y0267070D01*
X0211231Y0272317D02*
Y0272641D01*
X0210980Y0271069D02*
X0210980D01*
X0208450Y0282650D02*
X0214200Y0288400D01*
X0210279Y0272641D02*
X0211231D01*
X0208450Y0274469D02*
Y0282650D01*
Y0274469D02*
X0210279Y0272641D01*
X0210482Y0271567D02*
X0211231Y0272317D01*
X0210450Y0270539D02*
X0210980Y0271069D01*
X0210450Y0268261D02*
X0211641Y0267070D01*
X0210482Y0271567D02*
X0210980Y0271069D01*
X0210450Y0268261D02*
Y0270539D01*
X0215600Y0297000D02*
X0224200Y0288400D01*
X0215600Y0297000D02*
Y0351500D01*
X0216950Y0281150D02*
X0224200Y0288400D01*
X0216950Y0273469D02*
Y0281150D01*
X0216121Y0272641D02*
X0216950Y0273469D01*
X0215950Y0268261D02*
Y0270539D01*
X0215168Y0272641D02*
X0216121D01*
X0215168Y0272219D02*
Y0272641D01*
X0214944Y0271994D02*
X0215168Y0272219D01*
X0214944Y0271545D02*
X0215950Y0270539D01*
X0214944Y0271545D02*
Y0271994D01*
X0214200Y0266511D02*
X0215950Y0268261D01*
X0214200Y0259640D02*
Y0266511D01*
X0221585Y0408015D02*
Y0421785D01*
X0223685Y0408885D02*
Y0422915D01*
Y0408885D02*
X0230700Y0401870D01*
X0221585Y0408015D02*
X0228600Y0401000D01*
Y0367470D02*
Y0401000D01*
X0213500Y0352370D02*
X0228600Y0367470D01*
X0230700Y0366600D02*
Y0401870D01*
X0215600Y0351500D02*
X0230700Y0366600D01*
X0104200Y0493538D02*
X0104338Y0493400D01*
X0106700D01*
X0107700Y0494400D01*
X0109200Y0546400D02*
Y0583400D01*
Y0533600D02*
Y0546400D01*
X0104200Y0528600D02*
X0109200Y0533600D01*
X0094200Y0598400D02*
X0109200Y0583400D01*
X0111700Y0395039D02*
Y0399178D01*
X0115950Y0403428D01*
Y0472150D01*
X0104200Y0728401D02*
X0127700Y0704901D01*
Y0615400D02*
Y0704901D01*
X0183200Y0309400D02*
Y0332400D01*
Y0309400D02*
X0204200Y0288400D01*
X0255700Y0285400D02*
X0282700Y0258400D01*
X0246200Y0285400D02*
X0255700D01*
X0232200Y0299400D02*
Y0352400D01*
Y0299400D02*
X0246200Y0285400D01*
X0208629Y0457650D02*
X0208878Y0457400D01*
X0210200D01*
X0160050Y0458770D02*
X0160550Y0458270D01*
X0160050Y0458770D02*
Y0459477D01*
X0307700Y0734900D02*
X0314200Y0728400D01*
X0304200Y0734900D02*
X0307700D01*
X0298200Y0740900D02*
X0304200Y0734900D01*
X0294062Y0740900D02*
X0298200D01*
X0131200Y0583900D02*
Y0611900D01*
X0127700Y0615400D02*
X0131200Y0611900D01*
X0204200Y0269400D02*
Y0288400D01*
Y0269400D02*
X0209082Y0264518D01*
Y0259640D02*
Y0264518D01*
X0177200Y0338400D02*
X0183200Y0332400D01*
X0177200Y0338400D02*
Y0342400D01*
X0166200Y0353400D02*
X0177200Y0342400D01*
X0166200Y0364400D02*
X0173200Y0371400D01*
X0166200Y0353400D02*
Y0364400D01*
X0173200Y0371400D02*
Y0389400D01*
X0111200Y0387400D02*
X0111700Y0387900D01*
Y0395039D01*
X0111700Y0395039D02*
X0111700Y0395039D01*
X0104200Y0478400D02*
X0109700D01*
X0115950Y0472150D01*
X0127700Y0397400D02*
Y0399400D01*
X0125350Y0401750D02*
X0127700Y0399400D01*
X0125350Y0401750D02*
Y0428161D01*
X0126450Y0429261D01*
Y0463650D01*
X0123200Y0466900D02*
X0126450Y0463650D01*
X0104200Y0478400D02*
Y0493538D01*
X0094200Y0498262D02*
Y0503400D01*
X0104200Y0498262D02*
Y0503400D01*
X0107700Y0494400D02*
Y0510400D01*
X0104200Y0513900D02*
X0107700Y0510400D01*
X0104200Y0513900D02*
Y0528600D01*
X0113200Y0517475D02*
Y0522400D01*
X0123200Y0466900D02*
Y0507475D01*
X0113200Y0517475D02*
X0123200Y0507475D01*
X0139200Y0533400D02*
X0144200Y0528400D01*
X0139200Y0533400D02*
Y0541400D01*
X0136200Y0544400D02*
X0139200Y0541400D01*
X0141420Y0547680D02*
Y0549388D01*
Y0547680D02*
X0144200Y0544900D01*
Y0538400D02*
Y0544900D01*
X0143980Y0560412D02*
Y0563179D01*
X0144700Y0563900D01*
X0141420Y0560412D02*
Y0567121D01*
X0141700Y0567400D01*
X0136200Y0544400D02*
Y0562900D01*
X0137200Y0563900D01*
X0149200Y0533400D02*
X0154200Y0528400D01*
X0149200Y0533400D02*
Y0540900D01*
X0152700Y0544400D01*
Y0548789D01*
X0149700Y0551789D02*
X0152700Y0548789D01*
X0149700Y0551789D02*
Y0564900D01*
X0148700Y0565900D02*
X0149700Y0564900D01*
X0148700Y0565900D02*
Y0571900D01*
X0104200Y0728401D02*
Y0743538D01*
Y0748262D02*
Y0752900D01*
X0094200Y0748262D02*
Y0752900D01*
X0118172Y0877900D02*
X0118227D01*
X0120231Y0875896D01*
Y0875841D02*
Y0875896D01*
Y0875841D02*
X0120970Y0875103D01*
Y0874630D02*
Y0875103D01*
X0131200Y0583900D02*
X0141700Y0573400D01*
Y0567400D02*
Y0573400D01*
G54D57*
X0219200Y0351400D02*
X0233200Y0365400D01*
Y0403900D01*
X0231200Y0405900D02*
X0233200Y0403900D01*
X0230700Y0405900D02*
X0231200D01*
X0226200Y0410400D02*
X0230700Y0405900D01*
X0220400Y0350903D02*
X0234400Y0364903D01*
Y0410700D01*
X0229200Y0415900D02*
X0234400Y0410700D01*
X0222897Y0351703D02*
X0235600Y0364406D01*
X0228600Y0422000D02*
X0235600Y0415000D01*
Y0364406D02*
Y0415000D01*
X0226200Y0353309D02*
X0236800Y0363909D01*
Y0415497D01*
X0229800Y0422497D02*
X0236800Y0415497D01*
X0238000Y0296600D02*
X0247200Y0287400D01*
X0238000Y0296600D02*
Y0416024D01*
X0234600Y0419424D02*
X0238000Y0416024D01*
X0234600Y0419424D02*
Y0425200D01*
X0239200Y0394400D02*
X0240200Y0393400D01*
X0235800Y0419921D02*
Y0426800D01*
X0239200Y0394400D02*
Y0416521D01*
X0235800Y0419921D02*
X0239200Y0416521D01*
X0237000Y0420418D02*
Y0438300D01*
Y0420418D02*
X0241200Y0416218D01*
Y0401400D02*
Y0416218D01*
Y0401400D02*
X0241700Y0400900D01*
X0242400Y0403912D02*
X0244400Y0401912D01*
X0243600Y0404409D02*
Y0417212D01*
Y0404409D02*
X0245600Y0402409D01*
X0244800Y0404906D02*
X0246800Y0402906D01*
X0244800Y0404906D02*
Y0417709D01*
X0246000Y0405403D02*
X0248000Y0403403D01*
X0246000Y0405403D02*
Y0418206D01*
X0247200Y0405900D02*
X0249200Y0403900D01*
X0247200Y0405900D02*
Y0418703D01*
X0244400Y0297200D02*
Y0401912D01*
X0242400Y0403912D02*
Y0416715D01*
X0245600Y0312000D02*
Y0402409D01*
X0246800Y0343800D02*
Y0402906D01*
X0248000Y0349297D02*
Y0403403D01*
X0249200Y0352400D02*
Y0403900D01*
X0238200Y0420915D02*
X0242400Y0416715D01*
X0238200Y0420915D02*
Y0445415D01*
X0239400Y0421412D02*
X0243600Y0417212D01*
X0239400Y0421412D02*
Y0444918D01*
X0240600Y0421909D02*
X0244800Y0417709D01*
X0240600Y0421909D02*
Y0444421D01*
X0241800Y0422406D02*
X0246000Y0418206D01*
X0241800Y0422406D02*
Y0443924D01*
X0243000Y0422903D02*
Y0443427D01*
Y0422903D02*
X0247200Y0418703D01*
X0248953Y0412253D02*
X0252200Y0409006D01*
X0248953Y0412253D02*
Y0418647D01*
X0250700Y0354900D02*
Y0406400D01*
X0249700Y0407400D02*
X0250700Y0406400D01*
X0252200Y0378400D02*
Y0409006D01*
X0256851Y0402199D02*
X0257200Y0401850D01*
X0256851Y0402199D02*
Y0406052D01*
X0250400Y0412503D02*
X0256851Y0406052D01*
X0250400Y0412503D02*
Y0428803D01*
X0244200Y0423400D02*
Y0442930D01*
Y0423400D02*
X0248953Y0418647D01*
X0240200Y0393400D02*
X0241700D01*
X0244400Y0297200D02*
X0246200Y0295400D01*
X0245600Y0312000D02*
X0279200Y0278400D01*
X0246800Y0343800D02*
X0277200Y0313400D01*
X0248000Y0349297D02*
X0277897Y0319400D01*
X0249200Y0352400D02*
X0259200Y0342400D01*
X0250700Y0354900D02*
X0267200Y0338400D01*
X0190700Y0755400D02*
X0220200Y0725900D01*
Y0619400D02*
Y0725900D01*
X0264700Y0593900D02*
X0268700Y0589900D01*
Y0522400D02*
Y0589900D01*
X0270700Y0534900D02*
X0273700Y0531900D01*
X0270700Y0534900D02*
Y0589597D01*
X0267700Y0592597D02*
X0270700Y0589597D01*
X0273200Y0554400D02*
Y0589900D01*
X0269200Y0593900D02*
X0273200Y0589900D01*
X0269200Y0593900D02*
Y0625400D01*
X0274200Y0630400D01*
Y0638400D01*
X0269900Y0636100D02*
Y0644100D01*
X0267700Y0592597D02*
Y0633900D01*
X0269900Y0636100D01*
X0264700Y0593900D02*
Y0606400D01*
X0266000Y0523403D02*
Y0590400D01*
X0262100Y0607450D02*
X0266200Y0611550D01*
X0262100Y0594300D02*
X0266000Y0590400D01*
X0262100Y0594300D02*
Y0607450D01*
X0260900Y0593700D02*
X0264700Y0589900D01*
X0260900Y0608800D02*
X0264200Y0612100D01*
X0260900Y0593700D02*
Y0608800D01*
X0263400Y0585100D02*
X0264700Y0586400D01*
X0263400Y0496400D02*
Y0585100D01*
X0264700Y0586400D02*
Y0589900D01*
X0266000Y0523403D02*
X0266200Y0523203D01*
Y0502400D02*
Y0523203D01*
Y0611550D02*
Y0634400D01*
X0264200Y0612100D02*
Y0638400D01*
X0294700Y0595400D02*
Y0598400D01*
Y0595400D02*
X0295700Y0594400D01*
Y0582900D02*
Y0594400D01*
X0279700Y0583400D02*
Y0599900D01*
X0281200Y0582400D02*
Y0600400D01*
X0282700Y0581400D02*
Y0600900D01*
X0293200Y0601400D02*
Y0617400D01*
X0291900Y0600100D02*
X0293200Y0601400D01*
X0291900Y0594100D02*
Y0600100D01*
Y0594100D02*
X0293200Y0592800D01*
Y0590400D02*
Y0592800D01*
X0277200Y0583400D02*
Y0585900D01*
X0276000Y0582200D02*
X0277200Y0583400D01*
X0276000Y0545903D02*
Y0582200D01*
X0291700Y0583400D02*
Y0586900D01*
X0098200Y0611900D02*
Y0616397D01*
X0099200Y0608400D02*
X0111850Y0595750D01*
X0099200Y0608400D02*
Y0610900D01*
X0098200Y0611900D02*
X0099200Y0610900D01*
X0094200Y0637706D02*
Y0638400D01*
Y0637706D02*
X0099200Y0632706D01*
Y0617400D02*
Y0632706D01*
X0098348Y0616548D02*
X0099200Y0617400D01*
X0098348Y0616545D02*
Y0616548D01*
X0098200Y0616397D02*
X0098348Y0616545D01*
X0099400Y0613200D02*
Y0615900D01*
X0100500Y0617000D02*
Y0633103D01*
X0099400Y0615900D02*
X0100500Y0617000D01*
X0101700Y0614900D02*
Y0633600D01*
X0099400Y0613200D02*
X0101700Y0610900D01*
X0098700Y0634903D02*
Y0643900D01*
Y0634903D02*
X0100500Y0633103D01*
X0104200Y0605097D02*
Y0638400D01*
X0099900Y0635400D02*
Y0662700D01*
Y0635400D02*
X0101700Y0633600D01*
X0111850Y0529400D02*
Y0595750D01*
X0115700Y0517309D02*
X0126400Y0506609D01*
Y0468400D02*
Y0506609D01*
X0171200Y0447900D02*
Y0458649D01*
X0178200Y0411900D02*
Y0450400D01*
X0169700Y0414724D02*
Y0438400D01*
X0175400Y0444100D02*
Y0452900D01*
X0169700Y0438400D02*
X0175400Y0444100D01*
X0168889Y0460960D02*
X0171200Y0458649D01*
X0248200Y0689400D02*
X0257200Y0698400D01*
X0249500Y0610397D02*
Y0685100D01*
X0248200Y0686400D02*
Y0689400D01*
Y0686400D02*
X0249500Y0685100D01*
X0252100Y0676300D02*
X0264200Y0688400D01*
X0252100Y0607500D02*
Y0676300D01*
X0295153Y0314447D02*
X0299200Y0310400D01*
X0295153Y0314447D02*
Y0333447D01*
X0286200Y0428794D02*
Y0551900D01*
X0278700Y0421294D02*
X0286200Y0428794D01*
X0287700Y0428597D02*
Y0549494D01*
X0279900Y0420797D02*
X0287700Y0428597D01*
X0282000Y0421200D02*
X0289200Y0428400D01*
Y0470900D02*
X0291700Y0473400D01*
X0289200Y0428400D02*
Y0470900D01*
X0291700Y0428900D02*
Y0432900D01*
X0283200Y0420400D02*
X0291700Y0428900D01*
X0294700Y0427900D02*
Y0453400D01*
X0289200Y0422400D02*
X0294700Y0427900D01*
X0162800Y0574088D02*
Y0598400D01*
X0163200Y0598800D02*
Y0625900D01*
X0162800Y0598400D02*
X0163200Y0598800D01*
X0165700Y0595100D02*
Y0636400D01*
X0164000Y0574585D02*
Y0593400D01*
X0165700Y0595100D01*
X0165200Y0575082D02*
Y0591400D01*
X0168200Y0594400D01*
Y0639900D01*
X0170700Y0635900D02*
Y0644400D01*
Y0635900D02*
X0172419Y0634181D01*
X0108950Y0665650D02*
X0113200Y0661400D01*
Y0648900D02*
Y0661400D01*
X0110200Y0667400D02*
Y0692400D01*
X0115700Y0603885D02*
Y0650400D01*
Y0661900D01*
X0110200Y0667400D02*
X0115700Y0661900D01*
X0111700Y0668400D02*
Y0700900D01*
X0116900Y0604382D02*
Y0663200D01*
X0111700Y0668400D02*
X0116900Y0663200D01*
X0112900Y0669400D02*
Y0705600D01*
X0118100Y0631500D02*
Y0664200D01*
X0112900Y0669400D02*
X0118100Y0664200D01*
X0115700Y0669400D02*
Y0702900D01*
X0119300Y0634800D02*
Y0665800D01*
X0115700Y0669400D02*
X0119300Y0665800D01*
X0118200Y0669400D02*
Y0682400D01*
Y0669400D02*
X0121700Y0665900D01*
Y0639400D02*
Y0665900D01*
X0244200Y0646900D02*
Y0697400D01*
X0258700Y0711900D01*
X0241700Y0700150D02*
X0259950Y0718400D01*
X0241700Y0645400D02*
Y0700150D01*
X0240500Y0704700D02*
X0264200Y0728400D01*
X0240500Y0644903D02*
Y0704700D01*
X0239200Y0707400D02*
X0239700Y0707900D01*
Y0710900D01*
X0239200Y0640400D02*
Y0707400D01*
X0237200Y0696900D02*
Y0731900D01*
X0214200Y0738900D02*
X0233200Y0719900D01*
Y0575900D02*
Y0719900D01*
X0196200Y0752900D02*
X0226800Y0722300D01*
Y0556400D02*
Y0722300D01*
X0174300Y0472000D02*
Y0477500D01*
X0204700Y0512900D02*
Y0520900D01*
X0250700Y0486900D02*
Y0498400D01*
X0249900Y0461200D02*
Y0486100D01*
X0250700Y0486900D01*
X0251000Y0502553D02*
X0254249Y0499304D01*
Y0471949D02*
Y0499304D01*
X0252200Y0503900D02*
X0255449Y0500651D01*
Y0467937D02*
Y0500651D01*
X0254500Y0504206D02*
X0256649Y0502057D01*
Y0467440D02*
Y0502057D01*
X0255700Y0504703D02*
X0257849Y0502554D01*
Y0466943D02*
Y0502554D01*
X0260249Y0465949D02*
Y0504851D01*
X0259200Y0505900D02*
X0260249Y0504851D01*
X0256900Y0505200D02*
X0259049Y0503051D01*
Y0466446D02*
Y0503051D01*
X0262200Y0491400D02*
Y0588400D01*
X0261550Y0481050D02*
X0264200Y0478400D01*
X0261550Y0481050D02*
Y0490750D01*
X0262200Y0491400D01*
X0177200Y0476400D02*
Y0480900D01*
X0133600Y0475500D02*
Y0504500D01*
Y0475500D02*
X0133700Y0475400D01*
X0131200Y0436100D02*
Y0501400D01*
X0130000Y0465400D02*
Y0498600D01*
X0128800Y0465897D02*
Y0498103D01*
X0138700Y0420400D02*
Y0435809D01*
Y0420400D02*
X0138900Y0420600D01*
X0137700Y0419400D02*
X0138700Y0420400D01*
X0137700Y0412106D02*
Y0419400D01*
X0179200Y0295400D02*
X0190200Y0284400D01*
X0179200Y0295400D02*
Y0331400D01*
X0260200Y0287400D02*
X0279200Y0268400D01*
X0247200Y0287400D02*
X0260200D01*
X0201400Y0391150D02*
Y0397270D01*
X0132700Y0433400D02*
X0133200D01*
X0182700Y0409700D02*
Y0417900D01*
Y0409700D02*
X0184000Y0408400D01*
X0145200Y0453470D02*
Y0465279D01*
X0145800Y0465879D01*
Y0508106D02*
X0160748Y0523054D01*
X0145800Y0465879D02*
Y0508106D01*
X0144600Y0508603D02*
X0159548Y0523551D01*
X0144600Y0466376D02*
Y0508603D01*
X0143400Y0465176D02*
X0144600Y0466376D01*
X0143400Y0441907D02*
Y0465176D01*
X0142200Y0440880D02*
Y0465673D01*
X0143400Y0509100D02*
X0158348Y0524048D01*
X0142200Y0465673D02*
X0143400Y0466873D01*
Y0509100D01*
X0141000Y0466171D02*
X0142200Y0467371D01*
Y0512400D01*
X0138700Y0515900D02*
X0142200Y0512400D01*
X0139800Y0438103D02*
Y0494300D01*
X0139700Y0494400D02*
Y0506400D01*
Y0494400D02*
X0139800Y0494300D01*
X0136200Y0436612D02*
Y0487753D01*
X0137500Y0421947D02*
Y0435312D01*
X0136200Y0436612D02*
X0137500Y0435312D01*
X0135100Y0428800D02*
Y0435603D01*
X0133700Y0468900D02*
X0135000Y0467600D01*
Y0435703D02*
Y0467600D01*
Y0435703D02*
X0135100Y0435603D01*
X0137400Y0437109D02*
X0138700Y0435809D01*
X0142400Y0432328D02*
X0145504Y0429224D01*
X0142400Y0432328D02*
Y0435503D01*
X0141200Y0428900D02*
Y0435006D01*
X0138600Y0437606D02*
X0141200Y0435006D01*
X0137400Y0437109D02*
Y0488250D01*
X0138600Y0437606D02*
Y0488747D01*
X0139800Y0438103D02*
X0142400Y0435503D01*
X0157753Y0416975D02*
X0164700Y0423922D01*
Y0425900D01*
X0160700Y0422149D02*
Y0425900D01*
X0156640Y0418089D02*
X0160700Y0422149D01*
X0151361Y0428400D02*
X0155700D01*
X0157200Y0426900D01*
X0152134Y0431400D02*
X0153634Y0432900D01*
X0147731Y0426997D02*
X0152134Y0431400D01*
X0153634Y0432900D02*
X0153700D01*
X0172200Y0417300D02*
Y0435900D01*
X0172000Y0417100D02*
X0172200Y0417300D01*
X0175700Y0417200D02*
Y0436900D01*
X0175600Y0417100D02*
X0175700Y0417200D01*
X0163700Y0444900D02*
Y0446105D01*
X0167132Y0444900D02*
X0167200Y0444832D01*
X0167132Y0444900D02*
X0167200D01*
X0159980Y0452052D02*
X0167132Y0444900D01*
X0159700Y0444400D02*
X0160700Y0445400D01*
X0165859Y0448400D02*
X0167200D01*
X0172000Y0417100D02*
X0172200Y0416900D01*
X0179400Y0424200D02*
Y0427900D01*
X0180700Y0429200D02*
Y0456503D01*
X0179400Y0427900D02*
X0180700Y0429200D01*
X0181700Y0426400D02*
X0181900Y0426600D01*
X0185200Y0393900D02*
Y0420400D01*
X0210585Y0430400D02*
X0217328Y0423656D01*
X0202200Y0430400D02*
X0210585D01*
X0199200Y0425300D02*
X0202322D01*
X0195600Y0428900D02*
X0199200Y0425300D01*
X0195600Y0428900D02*
Y0441300D01*
X0198300Y0428320D02*
Y0439500D01*
X0200120Y0426500D02*
X0203349D01*
X0198300Y0439500D02*
X0198700Y0439900D01*
X0198300Y0428320D02*
X0200120Y0426500D01*
X0190798Y0427998D02*
Y0438302D01*
X0160700Y0574491D02*
X0163438Y0571753D01*
X0160700Y0574491D02*
Y0618400D01*
X0162800Y0574088D02*
X0164638Y0572250D01*
X0164000Y0574585D02*
X0165838Y0572748D01*
X0165200Y0575082D02*
X0167038Y0573244D01*
X0167700Y0574279D02*
X0168238Y0573742D01*
X0167700Y0574279D02*
Y0577900D01*
X0170019Y0565579D02*
Y0581400D01*
X0171219Y0566076D02*
Y0588881D01*
X0172419Y0566573D02*
Y0634181D01*
X0173619Y0567070D02*
Y0648981D01*
X0170019Y0565579D02*
X0170600Y0564998D01*
X0168700Y0582719D02*
X0170019Y0581400D01*
X0168700Y0582719D02*
Y0584900D01*
X0169700Y0590400D02*
X0171219Y0588881D01*
X0171800Y0544749D02*
Y0565495D01*
X0171219Y0566076D02*
X0171800Y0565495D01*
X0173000Y0544252D02*
Y0565992D01*
X0172419Y0566573D02*
X0173000Y0565992D01*
X0168400Y0654200D02*
Y0667200D01*
X0173619Y0567070D02*
X0174200Y0566489D01*
X0168400Y0654200D02*
X0173619Y0648981D01*
X0155000Y0500700D02*
X0166700Y0512400D01*
X0155000Y0463200D02*
Y0500700D01*
X0198300Y0512309D02*
Y0542400D01*
X0201700Y0545800D02*
Y0553400D01*
X0198300Y0542400D02*
X0201700Y0545800D01*
X0196500Y0469085D02*
Y0510403D01*
X0198200Y0512209D02*
X0198300Y0512309D01*
X0198200Y0512103D02*
Y0512209D01*
X0196500Y0510403D02*
X0198200Y0512103D01*
X0195300Y0470112D02*
Y0510900D01*
X0197000Y0512600D01*
Y0512706D01*
X0197100Y0512806D01*
Y0518994D01*
X0197000Y0519094D02*
X0197100Y0518994D01*
X0194100Y0471139D02*
Y0511603D01*
X0194700Y0519697D02*
X0195900Y0518497D01*
Y0513403D02*
Y0518497D01*
X0194100Y0511603D02*
X0195900Y0513403D01*
X0192046Y0520653D02*
X0194700Y0518000D01*
Y0513900D02*
Y0518000D01*
X0192900Y0512100D02*
X0194700Y0513900D01*
X0192900Y0472166D02*
Y0512100D01*
X0191700Y0473193D02*
Y0515400D01*
X0192200Y0515900D01*
X0190847Y0517253D02*
Y0543400D01*
Y0517253D02*
X0192200Y0515900D01*
X0189646Y0485347D02*
Y0545400D01*
X0188446Y0485844D02*
Y0599900D01*
X0184900Y0480600D02*
X0189646Y0485347D01*
X0183700Y0481097D02*
X0188446Y0485844D01*
X0176200Y0569900D02*
Y0649400D01*
X0171200Y0654400D02*
Y0662400D01*
Y0654400D02*
X0176200Y0649400D01*
X0173700Y0654400D02*
X0179200Y0648900D01*
Y0577400D02*
Y0648900D01*
Y0577400D02*
X0181500Y0575100D01*
X0173700Y0654400D02*
Y0679400D01*
X0190000Y0545753D02*
Y0613600D01*
X0188700Y0614900D02*
X0190000Y0613600D01*
X0189646Y0545400D02*
X0190000Y0545753D01*
X0187700Y0600646D02*
X0188446Y0599900D01*
X0187700Y0600646D02*
Y0603900D01*
X0219700Y0553900D02*
X0222511Y0556711D01*
Y0637400D01*
X0248500Y0591200D02*
Y0609397D01*
X0239200Y0581900D02*
X0248500Y0591200D01*
X0249700Y0588900D02*
Y0608900D01*
X0245700Y0538400D02*
Y0584900D01*
X0249700Y0588900D01*
X0239200Y0558900D02*
Y0581900D01*
X0229200Y0571900D02*
X0233200Y0575900D01*
X0254600Y0668800D02*
X0264200Y0678400D01*
X0254500Y0605000D02*
Y0663497D01*
X0254600Y0597300D02*
Y0604900D01*
Y0663597D02*
Y0668800D01*
X0254500Y0663497D02*
X0254600Y0663597D01*
X0254500Y0605000D02*
X0254600Y0604900D01*
X0255700Y0662900D02*
X0261200Y0668400D01*
X0255700Y0621900D02*
Y0662900D01*
X0255800Y0583500D02*
Y0621800D01*
X0255700Y0621900D02*
X0255800Y0621800D01*
X0257200Y0651400D02*
X0264200Y0658400D01*
X0257200Y0550900D02*
Y0651400D01*
Y0550900D02*
X0261000Y0547100D01*
X0259700Y0512400D02*
Y0544900D01*
X0254700Y0549900D02*
X0259700Y0544900D01*
X0254700Y0549900D02*
Y0578400D01*
X0265700Y0498400D02*
Y0501900D01*
X0266200Y0634400D02*
X0268700Y0636900D01*
X0265700Y0501900D02*
X0266200Y0502400D01*
X0278700Y0600900D02*
X0279700Y0599900D01*
X0280200Y0601400D02*
Y0654900D01*
Y0601400D02*
X0281200Y0600400D01*
X0281700Y0601900D02*
X0282700Y0600900D01*
X0283200Y0602400D02*
X0284200Y0601400D01*
X0283200Y0602400D02*
Y0655900D01*
X0284700Y0602900D02*
X0285700Y0601900D01*
X0284700Y0602900D02*
Y0656400D01*
X0286200Y0603400D02*
Y0656900D01*
Y0603400D02*
X0287200Y0602400D01*
X0287700Y0603900D02*
Y0657400D01*
Y0603900D02*
X0288700Y0602900D01*
X0287200Y0552900D02*
Y0602400D01*
X0286200Y0551900D02*
X0287200Y0552900D01*
X0288700Y0550494D02*
Y0602900D01*
X0287700Y0549494D02*
X0288700Y0550494D01*
X0294700Y0513900D02*
Y0554400D01*
Y0513900D02*
X0298200Y0510400D01*
X0278700Y0452900D02*
Y0490400D01*
X0274200Y0448400D02*
X0278700Y0452900D01*
X0279900Y0447600D02*
Y0491200D01*
X0276200Y0443900D02*
X0279900Y0447600D01*
X0281200Y0447203D02*
X0283700Y0449703D01*
X0274200Y0428400D02*
Y0429900D01*
X0281200Y0436900D01*
Y0447203D01*
Y0428900D02*
Y0434400D01*
X0283700Y0436900D01*
Y0449703D02*
Y0452900D01*
X0274200Y0421900D02*
X0281200Y0428900D01*
X0283700Y0436900D02*
Y0442400D01*
X0281700Y0390900D02*
X0285700Y0394900D01*
X0298200Y0402400D02*
Y0465400D01*
X0293700Y0384900D02*
Y0397900D01*
X0298200Y0402400D01*
X0290200Y0399900D02*
X0291200Y0398900D01*
Y0373400D02*
Y0398900D01*
X0292500Y0384403D02*
Y0399200D01*
X0297000Y0403700D02*
Y0463100D01*
X0292500Y0399200D02*
X0297000Y0403700D01*
X0290200Y0399900D02*
Y0402400D01*
X0289200Y0406400D02*
Y0422400D01*
X0218700Y0505006D02*
X0220200Y0503506D01*
X0218700Y0522900D02*
X0221700Y0525900D01*
X0218700Y0505006D02*
Y0522900D01*
X0220200Y0505203D02*
X0221400Y0504003D01*
X0220200Y0520400D02*
X0221700Y0521900D01*
X0220200Y0505203D02*
Y0520400D01*
X0221700Y0518400D02*
X0224200Y0520900D01*
X0221700Y0505400D02*
Y0518400D01*
Y0505400D02*
X0222600Y0504500D01*
X0217600Y0459005D02*
Y0473800D01*
X0209533Y0450939D02*
X0217600Y0459005D01*
X0216400Y0460032D02*
Y0474297D01*
X0208420Y0452052D02*
X0216400Y0460032D01*
X0232199Y0446900D02*
Y0447898D01*
X0223993Y0440900D02*
X0226199D01*
X0232199Y0446900D01*
X0222966Y0442100D02*
X0225200D01*
X0229700Y0446600D01*
Y0457400D01*
X0222039Y0443400D02*
X0224200D01*
X0226700Y0445900D02*
Y0457400D01*
X0224200Y0443400D02*
X0226700Y0445900D01*
X0233399Y0440900D02*
Y0447402D01*
X0228398Y0435900D02*
X0233399Y0440900D01*
X0224572Y0435900D02*
X0228398D01*
X0255200Y0409400D02*
X0258700D01*
X0251600Y0413000D02*
X0255200Y0409400D01*
X0257200Y0382400D02*
X0263700Y0375900D01*
X0257200Y0382400D02*
Y0401850D01*
X0230200Y0575400D02*
Y0595900D01*
X0222511Y0637400D02*
X0223200Y0638089D01*
Y0640400D01*
X0217200Y0552400D02*
Y0616400D01*
X0220200Y0619400D01*
X0192830Y0467642D02*
X0195300Y0470112D01*
X0191717Y0468755D02*
X0194100Y0471139D01*
X0190603Y0469869D02*
X0192900Y0472166D01*
X0189489Y0470982D02*
X0191700Y0473193D01*
X0304676Y0760900D02*
X0305444Y0761668D01*
X0291700Y0760900D02*
X0304676D01*
X0283200Y0733900D02*
X0284700Y0732400D01*
X0283200Y0733900D02*
Y0760900D01*
X0286700Y0702597D02*
Y0768900D01*
X0194200Y0698400D02*
X0198700Y0693900D01*
Y0685900D02*
Y0693900D01*
X0194200Y0681400D02*
X0198700Y0685900D01*
X0194200Y0660762D02*
Y0681400D01*
X0189200Y0660762D02*
Y0679900D01*
Y0683400D01*
X0194200Y0688400D01*
X0136700Y0630762D02*
Y0634046D01*
X0137700Y0635046D01*
Y0636900D01*
X0131181Y0639900D02*
Y0656038D01*
Y0639900D02*
X0134200Y0636881D01*
Y0634600D02*
Y0636881D01*
X0131700Y0630762D02*
Y0634132D01*
X0132167Y0634600D01*
X0134200D01*
X0284700Y0702900D02*
Y0732400D01*
Y0702900D02*
X0286700Y0700900D01*
X0294700Y0623400D02*
X0295200Y0623900D01*
X0294700Y0620900D02*
Y0623400D01*
X0292200Y0618400D02*
X0293200Y0617400D01*
X0292200Y0618400D02*
Y0623900D01*
X0293200Y0624900D01*
X0290700Y0587900D02*
Y0625400D01*
X0291200Y0625900D01*
X0082956Y0745132D02*
X0083688Y0744400D01*
X0089700D01*
X0129200Y0730400D02*
Y0744400D01*
Y0730400D02*
X0144200Y0715400D01*
X0181500Y0567600D02*
Y0575100D01*
Y0567600D02*
X0181700Y0567400D01*
X0204400Y0510100D02*
X0209200Y0514900D01*
Y0562400D01*
X0205700Y0565900D02*
X0209200Y0562400D01*
X0204400Y0486650D02*
Y0510100D01*
X0204330Y0486580D02*
X0204400Y0486650D01*
X0204330Y0471970D02*
Y0486580D01*
X0202700Y0510900D02*
X0204700Y0512900D01*
X0202700Y0469400D02*
Y0510900D01*
X0199700Y0466400D02*
X0202700Y0469400D01*
X0201500Y0469947D02*
Y0522600D01*
X0199700Y0524400D02*
X0201500Y0522600D01*
X0196171Y0464568D02*
X0200200Y0468597D01*
Y0468647D02*
X0201500Y0469947D01*
X0200200Y0468597D02*
Y0468647D01*
X0104200Y0408400D02*
X0109650Y0413850D01*
Y0440850D01*
X0112200Y0443400D01*
X0105950Y0433400D02*
X0108450Y0435900D01*
X0109700Y0468400D02*
Y0470900D01*
X0108450Y0467150D02*
X0109700Y0468400D01*
X0108450Y0435900D02*
Y0467150D01*
X0101700Y0433400D02*
X0105950D01*
X0099700Y0431400D02*
X0101700Y0433400D01*
X0099700Y0423900D02*
Y0431400D01*
X0094200Y0418400D02*
X0099700Y0423900D01*
X0098500Y0442700D02*
Y0513400D01*
X0094200Y0438400D02*
X0098500Y0442700D01*
X0094200Y0428400D02*
X0099700Y0433900D01*
X0145200Y0453470D02*
X0153299Y0445371D01*
X0147800Y0466182D02*
Y0508409D01*
X0146400Y0464782D02*
X0147800Y0466182D01*
X0146400Y0454497D02*
Y0464782D01*
Y0454497D02*
X0154412Y0446484D01*
X0149000Y0465685D02*
Y0507912D01*
X0147600Y0464285D02*
X0149000Y0465685D01*
X0147600Y0455524D02*
Y0464285D01*
Y0455524D02*
X0155526Y0447598D01*
X0148800Y0456551D02*
X0156640Y0448711D01*
X0148800Y0456551D02*
Y0463788D01*
X0150200Y0465188D02*
Y0507415D01*
X0148800Y0463788D02*
X0150200Y0465188D01*
X0150000Y0457578D02*
Y0463291D01*
Y0457578D02*
X0157753Y0449825D01*
X0150000Y0463291D02*
X0151400Y0464691D01*
X0151200Y0462794D02*
X0152600Y0464194D01*
X0151200Y0458605D02*
Y0462794D01*
Y0458605D02*
X0158867Y0450939D01*
X0152500Y0459403D02*
X0159851Y0452052D01*
X0159980D01*
X0152500Y0462397D02*
X0153800Y0463697D01*
X0152500Y0459403D02*
Y0462397D01*
X0153700Y0461900D02*
X0155000Y0463200D01*
X0153700Y0459900D02*
Y0461900D01*
Y0459900D02*
X0155200Y0458400D01*
X0155859D01*
X0161094Y0453166D01*
X0160100Y0475909D02*
Y0501800D01*
Y0475909D02*
X0162200Y0473809D01*
Y0458741D02*
Y0473809D01*
X0161300Y0476406D02*
X0163400Y0474306D01*
Y0459768D02*
Y0474306D01*
X0162500Y0476903D02*
X0164600Y0474803D01*
Y0460795D02*
Y0474803D01*
X0163700Y0477400D02*
X0165800Y0475300D01*
Y0461822D02*
Y0475300D01*
X0174200Y0483512D02*
Y0488400D01*
X0169726Y0479038D02*
X0174200Y0483512D01*
X0167700Y0479038D02*
X0169726D01*
X0167700Y0475900D02*
X0169200Y0474400D01*
X0167700Y0475900D02*
Y0479038D01*
X0169200Y0465103D02*
Y0474400D01*
Y0465103D02*
X0171116Y0463188D01*
X0165800Y0461822D02*
X0167775Y0459847D01*
X0164600Y0460795D02*
X0166662Y0458733D01*
X0163400Y0459768D02*
X0165548Y0457620D01*
X0162200Y0458741D02*
X0164434Y0456506D01*
X0193944Y0466528D02*
X0196500Y0469085D01*
X0227200Y0467400D02*
X0230200Y0464400D01*
Y0463762D02*
Y0464400D01*
X0226200Y0466400D02*
X0227200Y0467400D01*
X0226200Y0463762D02*
Y0466400D01*
X0246700Y0454400D02*
Y0455100D01*
X0188700Y0464900D02*
X0191700Y0461900D01*
X0187700Y0464900D02*
X0188700D01*
X0184900Y0464903D02*
Y0480600D01*
X0183600Y0463603D02*
X0184900Y0464903D01*
X0183600Y0457706D02*
Y0463603D01*
X0181900Y0456006D02*
X0183600Y0457706D01*
X0181900Y0426600D02*
Y0456006D01*
X0183700Y0465400D02*
Y0481097D01*
X0182400Y0464100D02*
X0183700Y0465400D01*
X0182400Y0458203D02*
Y0464100D01*
X0180700Y0456503D02*
X0182400Y0458203D01*
X0175400Y0452900D02*
X0181200Y0458700D01*
Y0466400D01*
X0184700Y0444400D02*
X0190798Y0438302D01*
X0201200Y0450400D02*
X0202314D01*
X0292500Y0384403D02*
X0299700Y0377203D01*
Y0316400D02*
Y0377203D01*
Y0316400D02*
X0302700Y0313400D01*
X0309200D01*
X0314200Y0308400D01*
X0207700Y0394900D02*
Y0395900D01*
X0199281Y0391572D02*
X0204565Y0386287D01*
X0199281Y0391572D02*
Y0392710D01*
X0199200Y0392791D02*
X0199281Y0392710D01*
X0199200Y0392791D02*
Y0397242D01*
X0195057Y0401385D02*
X0199200Y0397242D01*
X0204163Y0390084D02*
X0206965Y0387281D01*
X0204163Y0390084D02*
Y0396734D01*
X0197284Y0403612D02*
X0204163Y0396734D01*
X0205497Y0390447D02*
X0208165Y0387778D01*
X0205497Y0390447D02*
Y0390578D01*
X0205363Y0390712D02*
X0205497Y0390578D01*
X0205363Y0390712D02*
Y0397761D01*
X0198398Y0404726D02*
X0205363Y0397761D01*
X0207700Y0394900D02*
X0207838Y0394762D01*
X0196200Y0396100D02*
X0196900Y0395400D01*
X0196200Y0396100D02*
Y0398015D01*
X0193944Y0400272D02*
X0196200Y0398015D01*
X0259700Y0385400D02*
X0266200Y0378900D01*
Y0355400D02*
Y0378900D01*
X0243300Y0472800D02*
Y0478500D01*
Y0472800D02*
X0244700Y0471400D01*
X0243300Y0478500D02*
X0244700Y0479900D01*
X0233700Y0452900D02*
Y0508400D01*
X0239700Y0448612D02*
Y0510400D01*
X0242100Y0447618D02*
Y0508300D01*
X0249100Y0454047D02*
Y0458500D01*
X0246900Y0451847D02*
X0249100Y0454047D01*
X0246900Y0445630D02*
Y0451847D01*
X0244200Y0442930D02*
X0246900Y0445630D01*
X0246700Y0455100D02*
Y0455900D01*
Y0455100D02*
X0246800Y0455000D01*
X0245700Y0453400D02*
X0246700Y0454400D01*
X0245700Y0446127D02*
Y0453400D01*
X0243000Y0443427D02*
X0245700Y0446127D01*
X0244500Y0457200D02*
X0245700Y0458400D01*
X0244500Y0446624D02*
Y0457200D01*
X0241800Y0443924D02*
X0244500Y0446624D01*
X0243300Y0462500D02*
X0244700Y0463900D01*
X0236100Y0450103D02*
Y0511000D01*
X0243300Y0447121D02*
Y0462500D01*
X0240600Y0444421D02*
X0243300Y0447121D01*
X0239400Y0444918D02*
X0242100Y0447618D01*
X0238200Y0445415D02*
X0240900Y0448115D01*
X0220669Y0439803D02*
X0222966Y0442100D01*
X0236999Y0445910D02*
X0239700Y0448612D01*
X0236999Y0438302D02*
Y0445910D01*
X0235799Y0446407D02*
X0238500Y0449109D01*
X0235799Y0432801D02*
Y0446407D01*
X0234598Y0446904D02*
X0237300Y0449606D01*
X0233399Y0447402D02*
X0236100Y0450103D01*
X0232199Y0447898D02*
X0234900Y0450600D01*
X0232200Y0451400D02*
X0233700Y0452900D01*
X0221782Y0438689D02*
X0223993Y0440900D01*
X0222896Y0437576D02*
X0224572Y0435900D01*
X0236999Y0438302D02*
X0237000Y0438300D01*
X0234598Y0433298D02*
Y0446904D01*
X0231200Y0429900D02*
X0234598Y0433298D01*
X0234700Y0427900D02*
X0235800Y0426800D01*
X0234700Y0427900D02*
Y0428400D01*
X0232400Y0429403D02*
X0235799Y0432801D01*
X0232400Y0427400D02*
Y0429403D01*
Y0427400D02*
X0234600Y0425200D01*
X0231200Y0424900D02*
Y0429900D01*
X0255200Y0420762D02*
X0255838Y0421400D01*
X0259700D01*
X0278950Y0395650D02*
X0283200Y0399900D01*
X0278950Y0384650D02*
Y0395650D01*
Y0384650D02*
X0279700Y0383900D01*
X0300200Y0378400D02*
X0304200D01*
X0293700Y0384900D02*
X0300200Y0378400D01*
X0296200Y0386400D02*
Y0395900D01*
X0296700Y0396400D01*
X0172700Y0407424D02*
Y0408900D01*
X0170002Y0404726D02*
X0172700Y0407424D01*
X0176200Y0404243D02*
Y0405400D01*
X0173343Y0401385D02*
X0176200Y0404243D01*
X0178100Y0403300D02*
X0180200Y0405400D01*
X0178100Y0401688D02*
Y0403300D01*
X0175570Y0399158D02*
X0178100Y0401688D01*
X0176683Y0398183D02*
X0180400Y0401900D01*
X0176683Y0398045D02*
Y0398183D01*
X0180266Y0399400D02*
X0182200D01*
X0182700Y0399900D01*
X0184000Y0394700D02*
Y0408400D01*
X0183200Y0393900D02*
X0184000Y0394700D01*
X0183200Y0390400D02*
Y0393900D01*
X0184400Y0389058D02*
Y0393100D01*
X0185200Y0393900D01*
X0177797Y0396931D02*
X0180266Y0399400D01*
X0182700Y0387358D02*
X0184400Y0389058D01*
X0182700Y0378400D02*
Y0387358D01*
X0180400Y0387600D02*
X0183200Y0390400D01*
X0180400Y0377200D02*
Y0387600D01*
Y0377200D02*
X0181900Y0375700D01*
X0182900D01*
X0183700Y0374900D01*
Y0367900D02*
Y0374900D01*
X0180700Y0364900D02*
X0183700Y0367900D01*
X0180700Y0363900D02*
Y0364900D01*
X0174200Y0358400D02*
Y0360900D01*
X0179200Y0365900D01*
Y0373400D01*
X0197700Y0353400D02*
X0200838D01*
X0197200D02*
X0197700D01*
X0200562Y0353676D02*
X0200838Y0353400D01*
X0200562Y0353676D02*
Y0358400D01*
X0310200Y0492400D02*
X0311200Y0493400D01*
X0310200Y0437400D02*
Y0492400D01*
X0308700Y0435900D02*
X0310200Y0437400D01*
X0308700Y0416400D02*
Y0435900D01*
X0306700Y0414400D02*
X0308700Y0416400D01*
X0306700Y0412400D02*
Y0414400D01*
Y0412400D02*
X0308700Y0410400D01*
Y0376400D02*
Y0410400D01*
X0308200Y0375900D02*
X0308700Y0376400D01*
X0308200Y0373400D02*
Y0375900D01*
X0295153Y0358400D02*
X0295200Y0358353D01*
Y0354900D02*
Y0358353D01*
X0310200Y0353400D02*
Y0371400D01*
X0311200Y0372400D01*
Y0374400D01*
X0310200Y0375400D02*
X0311200Y0374400D01*
X0310200Y0375400D02*
Y0410900D01*
X0314200Y0414900D01*
Y0418400D01*
X0309200Y0413400D02*
X0310200Y0414400D01*
Y0434400D01*
X0314200Y0438400D01*
X0313200Y0368400D02*
X0314200D01*
X0263700Y0358400D02*
Y0375900D01*
X0266200Y0355400D02*
X0270200Y0351400D01*
X0169200Y0387762D02*
Y0392400D01*
X0171200Y0394400D01*
Y0397015D01*
X0174456Y0400272D01*
X0169200Y0378400D02*
Y0383038D01*
X0162207Y0412407D02*
Y0412521D01*
X0161768Y0405833D02*
X0162201D01*
X0146841Y0865400D02*
X0148098Y0866657D01*
X0146700Y0865400D02*
X0146841D01*
X0083200Y0791900D02*
X0084200Y0792900D01*
X0078885Y0791900D02*
X0083200D01*
X0075700Y0795085D02*
X0078885Y0791900D01*
X0102539Y0869400D02*
X0106314Y0865624D01*
X0103200Y0869400D02*
X0107544Y0873744D01*
X0111404Y0875495D02*
X0113137Y0873762D01*
X0111404Y0875495D02*
X0111608Y0875699D01*
X0108044Y0872135D02*
X0111404Y0875495D01*
X0108044Y0866130D02*
Y0872135D01*
X0107889Y0865975D02*
X0108044Y0866130D01*
X0110200Y0891400D02*
Y0892400D01*
X0079338Y0829038D02*
X0089385D01*
Y0827463D02*
X0099263D01*
X0089385Y0829038D02*
X0096338D01*
X0097700Y0830400D01*
X0089385Y0830612D02*
X0089479Y0830706D01*
X0079700Y0832400D02*
X0082700D01*
X0081800Y0879000D02*
X0083413Y0880613D01*
Y0884187D01*
X0085700Y0886475D01*
X0089061Y0882526D02*
Y0893539D01*
X0085700Y0896900D02*
X0089061Y0893539D01*
X0120488Y0861715D02*
Y0864612D01*
X0118200Y0866900D02*
X0120488Y0864612D01*
X0142200Y0856900D02*
X0142535Y0857235D01*
X0139385Y0861715D02*
Y0865058D01*
X0139698Y0865371D01*
X0146700Y0865400D01*
X0136001Y0861950D02*
X0136236Y0861715D01*
X0136001Y0861950D02*
Y0866599D01*
X0134700Y0867900D02*
X0136001Y0866599D01*
X0134700Y0867900D02*
Y0871400D01*
X0138476D01*
X0139700Y0867900D02*
X0140725Y0868925D01*
Y0869621D01*
X0142504Y0871400D01*
X0138476Y0867900D02*
X0139700D01*
X0144200Y0872400D02*
Y0873900D01*
X0122200Y0861852D02*
Y0866400D01*
X0125700Y0867900D02*
X0129976D01*
X0136700Y0882900D02*
Y0886900D01*
Y0882900D02*
X0141200D01*
X0149576Y0866400D02*
X0154200D01*
X0107889Y0861715D02*
Y0865975D01*
X0107544Y0880382D02*
X0108062Y0880900D01*
X0107544Y0873744D02*
Y0880382D01*
X0137811Y0796427D02*
Y0801085D01*
X0136809Y0797429D02*
X0137811Y0796427D01*
X0139838Y0794400D01*
X0135700Y0797429D02*
X0136809D01*
X0134661Y0798468D02*
X0135700Y0797429D01*
X0139838Y0791538D02*
Y0794400D01*
X0144200Y0778400D02*
Y0786430D01*
X0147800Y0790030D01*
Y0796481D01*
X0145700Y0798581D02*
X0147800Y0796481D01*
X0145700Y0798581D02*
Y0806900D01*
X0147365Y0808565D01*
X0154200Y0778400D02*
Y0802806D01*
X0150015Y0806990D02*
X0154200Y0802806D01*
X0098440Y0801085D02*
Y0804327D01*
X0098026Y0804741D02*
X0098440Y0804327D01*
X0094467Y0804741D02*
X0098026D01*
X0084200Y0794474D02*
X0094467Y0804741D01*
X0084200Y0792900D02*
Y0794474D01*
X0100015Y0801085D02*
Y0804750D01*
X0098824Y0805941D02*
X0100015Y0804750D01*
X0093970Y0805941D02*
X0098824D01*
X0083114Y0795085D02*
X0093970Y0805941D01*
X0081700Y0795085D02*
X0083114D01*
X0118913Y0801085D02*
Y0805187D01*
X0118200Y0805900D02*
X0118913Y0805187D01*
X0104740Y0856243D02*
Y0861715D01*
X0106314D02*
Y0865624D01*
X0209260Y0748400D02*
X0211641D01*
X0213200Y0795959D02*
Y0798400D01*
X0120488Y0856415D02*
Y0861715D01*
X0142200Y0856900D02*
X0142700Y0856400D01*
Y0856203D02*
Y0856400D01*
X0084200Y0815400D02*
X0085259Y0816459D01*
X0089365D01*
X0127212Y0878061D02*
X0141086D01*
X0082038Y0855900D02*
X0089295D01*
X0080200Y0873665D02*
X0089061Y0882526D01*
X0080200Y0857738D02*
Y0873665D01*
Y0857738D02*
X0082038Y0855900D01*
X0079330Y0879000D02*
X0081800D01*
X0081366Y0854235D02*
X0089385D01*
X0080533Y0881900D02*
X0080700D01*
X0076900Y0878267D02*
X0080533Y0881900D01*
X0076900Y0856288D02*
X0080528Y0852660D01*
X0089385D01*
X0075700Y0886900D02*
X0080700Y0891900D01*
X0075700Y0855495D02*
X0080111Y0851085D01*
X0089385D01*
X0075700Y0855495D02*
Y0886900D01*
X0076900Y0856288D02*
Y0878267D01*
X0078100Y0877770D02*
X0079330Y0879000D01*
X0078100Y0857500D02*
X0081366Y0854235D01*
X0078100Y0857500D02*
Y0877770D01*
X0216759Y0259640D02*
Y0264959D01*
X0221200Y0269400D01*
X0213200Y0269333D02*
Y0269400D01*
Y0272152D01*
X0221200Y0269400D02*
Y0275400D01*
X0234200Y0288400D01*
X0215168Y0274581D02*
Y0279432D01*
X0214200Y0280400D02*
X0215168Y0279432D01*
X0230200Y0267250D02*
X0236200D01*
X0230200Y0248709D02*
Y0267250D01*
X0198200Y0248709D02*
X0230200D01*
X0195279Y0342687D02*
Y0357841D01*
X0205121Y0342687D02*
Y0352959D01*
X0205562Y0353400D02*
Y0360038D01*
X0202200Y0363400D02*
X0205562Y0360038D01*
X0186136Y0388336D02*
Y0392464D01*
X0185200Y0387400D02*
X0186136Y0388336D01*
X0185200Y0367400D02*
Y0387400D01*
X0184200Y0366400D02*
X0185200Y0367400D01*
X0186136Y0392464D02*
X0188376Y0394704D01*
X0184200Y0358400D02*
Y0366400D01*
X0189489Y0395817D02*
X0192200Y0393107D01*
Y0384400D02*
Y0393107D01*
X0189400Y0381600D02*
X0192200Y0384400D01*
X0189400Y0367200D02*
Y0381600D01*
Y0367200D02*
X0195838Y0360762D01*
Y0358400D02*
Y0360762D01*
X0195200Y0363400D02*
X0202200D01*
X0190900Y0381403D02*
X0193400Y0383903D01*
Y0394134D01*
X0190603Y0396931D02*
X0193400Y0394134D01*
X0190900Y0367700D02*
Y0381403D01*
Y0367700D02*
X0195200Y0363400D01*
X0193200Y0377400D02*
X0193724D01*
X0194200Y0377876D01*
X0194562Y0376038D02*
X0197200D01*
X0193200Y0377400D02*
X0194562Y0376038D01*
X0197200Y0372400D02*
Y0376038D01*
X0196838Y0372038D02*
X0197200Y0372400D01*
X0196838Y0367400D02*
Y0372038D01*
X0201562Y0367400D02*
Y0371038D01*
X0214838Y0369038D02*
X0224200D01*
X0214200Y0368400D02*
X0214838Y0369038D01*
X0191717Y0397884D02*
Y0398045D01*
Y0397884D02*
X0194600Y0395000D01*
Y0383362D02*
Y0395000D01*
Y0383362D02*
X0197200Y0380762D01*
X0197200Y0380762D02*
X0201200D01*
Y0376038D02*
X0203365Y0378203D01*
X0202200Y0385400D02*
X0203365Y0384235D01*
Y0378203D02*
Y0384235D01*
X0204565Y0363035D02*
Y0386287D01*
Y0363035D02*
X0208200Y0359400D01*
Y0337400D02*
Y0359400D01*
X0196171Y0402499D02*
X0201400Y0397270D01*
Y0391150D02*
X0205765Y0386784D01*
Y0363532D02*
Y0386784D01*
Y0363532D02*
X0209400Y0359897D01*
Y0336903D02*
Y0359897D01*
X0206965Y0364029D02*
Y0387281D01*
Y0364029D02*
X0210600Y0360394D01*
X0208165Y0364526D02*
Y0387778D01*
Y0364526D02*
X0211800Y0360891D01*
X0207838Y0392400D02*
Y0394762D01*
X0207200Y0406400D02*
Y0407059D01*
X0210562Y0402400D02*
Y0406038D01*
X0210838D01*
X0211200Y0406400D01*
X0205079Y0411407D02*
X0207086Y0409400D01*
X0208200D01*
X0211200Y0406400D01*
X0206193Y0412521D02*
X0208114Y0410600D01*
X0211000D01*
X0211200Y0410400D01*
X0211760Y0418089D02*
X0214200Y0415649D01*
Y0413400D02*
Y0415649D01*
X0213988Y0420316D02*
X0218200Y0416103D01*
Y0404235D02*
Y0416103D01*
X0217500Y0403535D02*
X0218200Y0404235D01*
X0217500Y0393700D02*
Y0403535D01*
X0216200Y0392400D02*
X0217500Y0393700D01*
X0212562Y0392400D02*
X0216200D01*
X0215101Y0421429D02*
X0219400Y0417130D01*
Y0404062D02*
Y0417130D01*
Y0404062D02*
X0220700Y0402762D01*
Y0392762D02*
Y0398038D01*
X0220338Y0392400D02*
X0220700Y0392762D01*
X0220338Y0392400D02*
X0222200Y0390538D01*
Y0380400D02*
Y0390538D01*
X0221200Y0379400D02*
X0222200Y0380400D01*
X0219680Y0379400D02*
X0221200D01*
X0218350Y0378069D02*
X0219680Y0379400D01*
X0212562Y0387243D02*
Y0392400D01*
X0212050Y0386731D02*
X0212562Y0387243D01*
X0225062Y0392400D02*
Y0396262D01*
X0225200Y0396400D01*
X0206200Y0335400D02*
X0208200Y0337400D01*
X0206200Y0306400D02*
Y0335400D01*
X0204200Y0304400D02*
X0206200Y0306400D01*
X0203200Y0304400D02*
X0204200D01*
X0207400Y0334903D02*
X0209400Y0336903D01*
X0207400Y0304600D02*
Y0334903D01*
X0203200Y0300400D02*
X0207400Y0304600D01*
X0210600Y0336406D02*
Y0360394D01*
X0208600Y0334406D02*
X0210600Y0336406D01*
X0208600Y0303800D02*
Y0334406D01*
X0206200Y0301400D02*
X0208600Y0303800D01*
X0211800Y0335909D02*
Y0360891D01*
X0209800Y0333909D02*
X0211800Y0335909D01*
X0209800Y0301000D02*
Y0333909D01*
X0209200Y0300400D02*
X0209800Y0301000D01*
X0209200Y0299400D02*
Y0300400D01*
X0206200Y0295400D02*
Y0301400D01*
X0219200Y0296600D02*
X0221400Y0294400D01*
X0228200D01*
X0234200Y0288400D01*
X0219200Y0314762D02*
Y0351400D01*
X0226200Y0410400D02*
Y0423693D01*
X0221782Y0428111D02*
X0226200Y0423693D01*
X0222896Y0429224D02*
X0227400Y0424720D01*
X0220400Y0320200D02*
Y0350903D01*
Y0320200D02*
X0221365Y0319235D01*
X0230200Y0273550D02*
Y0278400D01*
X0236200Y0273550D02*
Y0278400D01*
X0227200Y0299400D02*
X0232200Y0294400D01*
X0219200Y0296600D02*
Y0310038D01*
X0221365Y0302235D02*
X0222200Y0301400D01*
Y0298400D02*
Y0301400D01*
X0221365Y0302235D02*
Y0319235D01*
X0226200Y0299400D02*
X0227200D01*
X0176200Y0393107D02*
X0178911Y0395817D01*
X0176200Y0378400D02*
Y0393107D01*
X0167850Y0362050D02*
X0176200Y0370400D01*
X0167850Y0354083D02*
Y0362050D01*
Y0354083D02*
X0173533Y0348400D01*
X0176200D01*
Y0370400D02*
Y0378400D01*
X0210903Y0443400D02*
X0213988Y0446484D01*
X0210052Y0443400D02*
X0210903D01*
X0207752Y0444703D02*
X0211760Y0448711D01*
X0207752Y0442447D02*
Y0444703D01*
Y0442447D02*
X0209099Y0441100D01*
X0213500D01*
X0220200Y0434400D01*
X0206552Y0445730D02*
X0210647Y0449825D01*
X0206552Y0441950D02*
Y0445730D01*
Y0441950D02*
X0208602Y0439900D01*
X0213003D01*
X0219703Y0433200D01*
X0224400D01*
X0228600Y0429000D01*
Y0422000D02*
Y0429000D01*
X0220200Y0434400D02*
X0224897D01*
X0229800Y0429497D01*
Y0422497D02*
Y0429497D01*
X0222900Y0343700D02*
X0223200Y0343400D01*
X0222897Y0346403D02*
Y0351703D01*
Y0346403D02*
X0222900Y0346400D01*
Y0343700D02*
Y0346400D01*
X0226200Y0345400D02*
Y0353309D01*
X0296200Y0343400D02*
X0298200Y0341400D01*
Y0314400D02*
Y0341400D01*
Y0314400D02*
X0304200Y0308400D01*
X0295153Y0348400D02*
X0296200Y0347353D01*
Y0343400D02*
Y0347353D01*
X0283562Y0348400D02*
X0289247D01*
X0283562Y0358400D02*
X0289247D01*
X0283562Y0368400D02*
X0289247D01*
X0283562Y0338400D02*
X0289247D01*
X0295153Y0333447D02*
Y0338400D01*
X0299200Y0303400D02*
X0304200Y0298400D01*
X0299200Y0303400D02*
Y0310400D01*
X0184850Y0320750D02*
X0186200Y0319400D01*
X0184850Y0320750D02*
Y0333083D01*
X0178850Y0339083D02*
X0184850Y0333083D01*
X0178850Y0339083D02*
Y0349750D01*
X0177200Y0351400D02*
X0178850Y0349750D01*
X0172231Y0351400D02*
X0177200D01*
X0169050Y0354580D02*
X0172231Y0351400D01*
X0169050Y0354580D02*
Y0361553D01*
X0173897Y0366400D01*
X0176200D01*
X0190200Y0267400D02*
Y0284400D01*
X0181200Y0340400D02*
X0183200Y0338400D01*
X0181200Y0340400D02*
Y0351400D01*
X0174200Y0358400D02*
X0181200Y0351400D01*
X0180024Y0394576D02*
Y0394704D01*
Y0394576D02*
X0181200Y0393400D01*
Y0390400D02*
Y0393400D01*
X0179200Y0388400D02*
X0181200Y0390400D01*
X0179200Y0373400D02*
X0181200D01*
X0179200D02*
Y0388400D01*
X0309200Y0273400D02*
X0314200Y0268400D01*
X0309200Y0273400D02*
Y0290400D01*
X0306200Y0293400D02*
X0309200Y0290400D01*
X0300712Y0293400D02*
X0306200D01*
X0298200Y0295912D02*
X0300712Y0293400D01*
X0298200Y0295912D02*
Y0300400D01*
X0295200Y0303400D02*
X0298200Y0300400D01*
X0295200Y0303400D02*
Y0309400D01*
Y0311400D01*
X0284200Y0322400D02*
X0295200Y0311400D01*
X0275200Y0328400D02*
X0281200Y0322400D01*
X0275200Y0328400D02*
Y0350400D01*
X0268200Y0357400D02*
X0275200Y0350400D01*
X0268200Y0357400D02*
Y0404097D01*
X0281200Y0322400D02*
X0284200D01*
X0270200Y0404400D02*
X0274200Y0408400D01*
X0270200Y0384400D02*
Y0404400D01*
Y0384400D02*
X0275200Y0379400D01*
Y0374400D02*
Y0379400D01*
X0268200Y0404097D02*
X0270200Y0406097D01*
Y0421147D01*
X0264200Y0398400D02*
Y0401794D01*
X0268200Y0405794D01*
Y0422400D01*
X0269200Y0423400D01*
X0270200Y0421147D02*
X0271500Y0422447D01*
Y0424353D01*
X0270200Y0425653D02*
X0271500Y0424353D01*
X0270200Y0425653D02*
Y0434400D01*
X0274200Y0438400D01*
X0277897Y0319400D02*
X0281200D01*
X0186200Y0335400D02*
Y0352400D01*
X0189200Y0355400D01*
Y0361400D01*
X0186400Y0364200D02*
X0189200Y0361400D01*
X0186400Y0364200D02*
Y0383600D01*
X0188200Y0385400D01*
X0298200Y0465400D02*
X0299200Y0466400D01*
Y0470400D01*
X0298200Y0471400D02*
X0299200Y0470400D01*
X0298200Y0471400D02*
Y0510400D01*
X0296700Y0463400D02*
Y0468400D01*
Y0463400D02*
X0297000Y0463100D01*
X0259450Y0393150D02*
X0264200Y0388400D01*
X0259450Y0393150D02*
Y0403400D01*
X0299700Y0412900D02*
X0304200Y0408400D01*
X0299700Y0412900D02*
Y0441900D01*
X0301200Y0443400D01*
X0264200Y0428400D02*
X0269000Y0433200D01*
Y0435597D01*
X0269700Y0436297D01*
Y0440900D01*
X0272700Y0443900D01*
X0276200D01*
X0274200Y0418400D02*
Y0421900D01*
X0219555Y0440916D02*
X0222039Y0443400D01*
X0218442Y0442030D02*
X0222812Y0446400D01*
X0223700D01*
X0217328Y0443144D02*
X0221200Y0447015D01*
Y0468794D01*
X0223700Y0449900D02*
Y0453400D01*
X0222700Y0454400D02*
X0223700Y0453400D01*
X0222700Y0454400D02*
Y0468597D01*
X0225000Y0470897D01*
X0221200Y0468794D02*
X0223800Y0471394D01*
X0225700Y0458400D02*
X0226700Y0457400D01*
X0223900Y0458400D02*
X0225700D01*
X0223900D02*
Y0468100D01*
X0226200Y0470400D01*
Y0507097D01*
X0229700Y0457400D02*
X0230700Y0458400D01*
X0232000D01*
X0232500Y0458900D01*
Y0465600D01*
X0227700Y0470400D02*
X0232500Y0465600D01*
X0216215Y0444257D02*
X0220000Y0448042D01*
Y0469291D01*
X0222600Y0471891D01*
X0215101Y0445371D02*
X0218800Y0449070D01*
Y0469788D01*
X0212874Y0447598D02*
X0216200Y0450924D01*
Y0451900D01*
X0220200Y0471188D02*
Y0472900D01*
X0218800Y0469788D02*
X0220200Y0471188D01*
X0217600Y0473800D02*
X0221400Y0477600D01*
X0216400Y0474297D02*
X0220200Y0478097D01*
Y0503506D01*
X0203966Y0456506D02*
X0207700Y0460241D01*
Y0461741D01*
X0210030Y0464070D01*
X0213370Y0460570D02*
Y0460730D01*
X0197284Y0463188D02*
X0199700Y0465603D01*
Y0466400D01*
X0199511Y0460960D02*
X0202700Y0464149D01*
Y0465400D01*
X0291200Y0373400D02*
X0294200D01*
X0295200Y0372400D01*
Y0368447D02*
Y0372400D01*
X0295153Y0368400D02*
X0295200Y0368447D01*
X0252200Y0378400D02*
X0256200Y0374400D01*
X0259200D01*
X0254700Y0379400D02*
X0256700Y0377400D01*
X0254700Y0379400D02*
Y0397900D01*
X0253897Y0416038D02*
X0255200D01*
X0253035Y0416900D02*
X0253897Y0416038D01*
X0252200Y0431900D02*
X0253035Y0431065D01*
X0252200Y0431900D02*
Y0438900D01*
X0191497Y0409400D02*
X0197284Y0403612D01*
X0189700Y0409400D02*
X0191497D01*
X0190224Y0412900D02*
X0198398Y0404726D01*
X0189700Y0412900D02*
X0190224D01*
X0194200Y0411151D02*
Y0412400D01*
Y0411151D02*
X0199511Y0405839D01*
X0152200Y0415876D02*
X0155526Y0419202D01*
X0152200Y0415400D02*
Y0415876D01*
X0143200Y0406400D02*
X0152200Y0415400D01*
X0163321Y0411407D02*
X0167123Y0415209D01*
Y0415400D01*
X0165268Y0416968D02*
X0167200Y0418900D01*
X0162200Y0416968D02*
X0165268D01*
X0159980Y0414748D02*
X0162200Y0416968D01*
X0158867Y0415862D02*
X0162405Y0419400D01*
X0163700D01*
X0285700Y0394900D02*
Y0417400D01*
X0283200Y0399900D02*
Y0420400D01*
X0274200Y0398400D02*
X0278200Y0402400D01*
X0281200D01*
X0282000Y0403200D01*
Y0421200D01*
X0279700Y0405400D02*
Y0409400D01*
X0276700Y0412400D02*
X0279700Y0409400D01*
X0276700Y0412400D02*
Y0414400D01*
X0278700Y0416400D01*
Y0421294D01*
X0227400Y0417700D02*
X0229200Y0415900D01*
X0227400Y0417700D02*
Y0424720D01*
X0246600Y0430906D02*
Y0441400D01*
X0253035Y0416900D02*
Y0431065D01*
X0251600Y0413000D02*
Y0429300D01*
X0249000Y0431900D02*
X0251600Y0429300D01*
X0249000Y0431900D02*
Y0439600D01*
X0247800Y0431403D02*
X0250400Y0428803D01*
X0246600Y0430906D02*
X0249200Y0428306D01*
X0245400Y0428200D02*
X0246700Y0426900D01*
X0245400Y0428200D02*
Y0442432D01*
X0249200Y0424900D02*
Y0428306D01*
X0206268Y0416900D02*
X0208420Y0414748D01*
X0201200Y0416900D02*
X0206268D01*
X0205995Y0419400D02*
X0209533Y0415862D01*
X0203700Y0419400D02*
X0205995D01*
X0247700Y0423400D02*
X0249200Y0424900D01*
X0164434Y0410294D02*
X0167041Y0412900D01*
X0167876D01*
X0169700Y0414724D01*
X0178200Y0411900D02*
X0182700Y0407400D01*
Y0399900D02*
Y0407400D01*
X0231200Y0424900D02*
X0232200Y0423900D01*
X0179400Y0424200D02*
X0180700Y0422900D01*
X0197200Y0410378D02*
X0200625Y0406953D01*
X0197200Y0410378D02*
Y0412653D01*
X0188100Y0421753D02*
X0197200Y0412653D01*
X0188100Y0421753D02*
Y0425500D01*
X0186700Y0426900D02*
X0188100Y0425500D01*
X0198400Y0411405D02*
X0201739Y0408067D01*
X0198400Y0411405D02*
Y0413150D01*
X0190700Y0420850D02*
X0198400Y0413150D01*
X0190700Y0420850D02*
Y0426400D01*
X0188200Y0428900D02*
X0190700Y0426400D01*
X0199600Y0412432D02*
X0202852Y0409180D01*
X0199600Y0412432D02*
Y0413647D01*
X0191900Y0421347D02*
X0199600Y0413647D01*
X0191900Y0421347D02*
Y0426897D01*
X0190798Y0427998D02*
X0191900Y0426897D01*
X0199700Y0418400D02*
X0201200Y0416900D01*
X0199700Y0418400D02*
Y0418900D01*
X0205241Y0415700D02*
X0207306Y0413634D01*
X0199244Y0415700D02*
X0205241D01*
X0193100Y0421844D02*
X0199244Y0415700D01*
X0148845Y0425883D02*
X0151361Y0428400D01*
X0255200Y0433900D02*
X0258200Y0436900D01*
X0255200Y0433262D02*
Y0433900D01*
X0216200Y0427012D02*
X0218442Y0424770D01*
X0216200Y0427012D02*
Y0433400D01*
X0214200Y0435400D02*
X0216200Y0433400D01*
X0152134Y0431400D02*
X0152200D01*
X0146618Y0428111D02*
X0149200Y0430693D01*
Y0432400D01*
X0148200Y0433400D02*
X0149200Y0432400D01*
X0188200Y0428900D02*
Y0433900D01*
X0193100Y0421844D02*
Y0436300D01*
X0193200Y0436400D01*
X0257947Y0436900D02*
X0258200D01*
X0247800Y0431403D02*
Y0440097D01*
X0257200Y0441900D02*
X0259700Y0444400D01*
X0254900Y0439947D02*
X0257947Y0436900D01*
X0252200Y0438900D02*
X0253700Y0440400D01*
X0249000Y0439600D02*
X0252500Y0443100D01*
X0247800Y0440097D02*
X0251300Y0443597D01*
X0257200Y0447900D02*
X0258500Y0449200D01*
X0254900Y0448853D02*
X0257300Y0451253D01*
X0254900Y0439947D02*
Y0448853D01*
X0253700Y0449350D02*
X0256100Y0451750D01*
X0253700Y0440400D02*
Y0449350D01*
X0252500Y0449847D02*
X0254900Y0452247D01*
X0252500Y0443100D02*
Y0449847D01*
X0251300Y0450344D02*
X0253700Y0452744D01*
X0251300Y0443597D02*
Y0450344D01*
X0253700Y0452744D02*
Y0460400D01*
X0246600Y0441400D02*
X0250100Y0444900D01*
Y0450841D01*
X0252500Y0453241D01*
Y0458600D01*
X0245400Y0442432D02*
X0248200Y0445232D01*
Y0451450D01*
X0250300Y0453550D01*
Y0458997D01*
X0248200Y0461097D02*
X0250300Y0458997D01*
X0252700Y0461400D02*
X0253700Y0460400D01*
X0252700Y0461400D02*
Y0461900D01*
X0252200Y0462400D02*
X0252700Y0461900D01*
X0249900Y0461200D02*
X0252500Y0458600D01*
X0247000Y0460600D02*
X0249100Y0458500D01*
X0260200Y0429900D02*
Y0432900D01*
X0258700Y0428400D02*
X0260200Y0429900D01*
X0255338Y0428400D02*
X0258700D01*
X0255200Y0428538D02*
X0255338Y0428400D01*
X0203349Y0426500D02*
X0211760Y0418089D01*
X0202322Y0425300D02*
X0210647Y0416975D01*
X0195600Y0441300D02*
X0195700Y0441400D01*
Y0441900D01*
X0202314Y0450400D02*
X0206193Y0454279D01*
X0201200Y0450400D02*
X0201700Y0450900D01*
X0204200Y0450059D02*
X0207306Y0453166D01*
X0204200Y0447900D02*
Y0450059D01*
X0196678Y0455900D02*
X0200625Y0459847D01*
X0189200Y0455900D02*
X0196678D01*
X0192200Y0458400D02*
X0194724D01*
X0198398Y0462074D01*
X0189500Y0460700D02*
X0194797D01*
X0197284Y0463188D01*
X0187700Y0458900D02*
X0189500Y0460700D01*
X0187200Y0458900D02*
X0187700D01*
X0193770Y0461900D02*
X0196171Y0464301D01*
X0191700Y0461900D02*
X0193770D01*
X0193905Y0450900D02*
X0201739Y0458733D01*
X0188700Y0450900D02*
X0193905D01*
X0178700Y0463900D02*
Y0466739D01*
X0178200Y0467239D02*
X0178700Y0466739D01*
X0170002Y0462074D02*
X0173099Y0458977D01*
X0174700D01*
X0157753Y0449825D02*
X0160700Y0446878D01*
Y0445400D02*
Y0446878D01*
X0158867Y0450939D02*
X0163700Y0446105D01*
X0161094Y0453166D02*
X0165859Y0448400D01*
X0151072Y0443144D02*
X0154200Y0440015D01*
Y0438400D02*
Y0440015D01*
X0148845Y0440916D02*
X0151700Y0438061D01*
Y0437400D02*
Y0438061D01*
Y0437400D02*
X0153200Y0435900D01*
X0157200D01*
X0150200Y0434900D02*
Y0437334D01*
X0147731Y0439803D02*
X0150200Y0437334D01*
X0156200Y0460286D02*
X0162207Y0454279D01*
X0156200Y0460286D02*
Y0460900D01*
Y0466762D01*
X0159700Y0470262D01*
X0180024Y0472096D02*
X0180700Y0472772D01*
Y0480400D01*
X0176700Y0473193D02*
X0178911Y0470982D01*
X0176700Y0473193D02*
Y0474100D01*
X0179500Y0476900D01*
X0175500Y0472166D02*
X0177797Y0469869D01*
X0175500Y0472166D02*
Y0474700D01*
X0177200Y0476400D01*
X0173200Y0470012D02*
X0175570Y0467642D01*
X0173200Y0470012D02*
Y0470900D01*
X0174300Y0472000D01*
X0171700Y0469285D02*
X0174456Y0466528D01*
X0171700Y0469285D02*
Y0472900D01*
X0187200Y0473272D02*
X0188376Y0472096D01*
X0187200Y0473272D02*
Y0479400D01*
X0147770Y0415900D02*
X0153299Y0421429D01*
X0143700Y0415900D02*
X0147770D01*
X0142700Y0416900D02*
X0143700Y0415900D01*
X0153370Y0403730D02*
X0153530D01*
X0162207Y0412407D01*
X0156200Y0412400D02*
X0157200Y0411400D01*
X0156200D02*
Y0412400D01*
X0147497Y0413400D02*
X0154412Y0420316D01*
X0146200Y0413400D02*
X0147497D01*
X0141407Y0422900D02*
X0146618Y0428111D01*
X0110850Y0438550D02*
X0112200Y0439900D01*
X0110850Y0407050D02*
Y0438550D01*
X0107200Y0403400D02*
X0110850Y0407050D01*
X0099200Y0403400D02*
X0107200D01*
X0094200Y0398400D02*
X0099200Y0403400D01*
X0112050Y0435250D02*
X0113200Y0436400D01*
X0112050Y0406000D02*
Y0435250D01*
X0108950Y0402900D02*
X0112050Y0406000D01*
X0108950Y0393400D02*
Y0402900D01*
X0118700Y0395900D02*
Y0425400D01*
X0123700Y0430400D02*
X0124200Y0429900D01*
X0123700Y0396400D02*
Y0429400D01*
X0127000Y0408600D02*
X0128200Y0407400D01*
X0127000Y0408600D02*
Y0427478D01*
X0128100Y0428578D01*
X0129300Y0417500D02*
X0129400Y0417400D01*
X0130200Y0413900D02*
Y0414947D01*
X0131700Y0416447D01*
Y0418900D01*
X0130500Y0420100D02*
X0131700Y0418900D01*
X0130500Y0420100D02*
Y0435400D01*
X0130200Y0410400D02*
X0132900Y0413100D01*
Y0419397D01*
X0131700Y0420597D02*
X0132900Y0419397D01*
X0131700Y0420597D02*
Y0427400D01*
X0132700Y0428400D01*
Y0433400D01*
X0123700Y0429400D02*
X0124200Y0429900D01*
X0136700Y0391900D02*
Y0395400D01*
X0133700Y0398400D02*
X0136700Y0395400D01*
X0133700Y0398400D02*
Y0401900D01*
X0132500Y0391600D02*
X0132700Y0391400D01*
X0132500Y0391600D02*
Y0411003D01*
X0134100Y0412603D01*
Y0419894D01*
X0132900Y0421094D02*
X0134100Y0419894D01*
X0132900Y0421094D02*
Y0426600D01*
X0135100Y0428800D01*
X0133700Y0401900D02*
X0134700Y0402900D01*
Y0411506D01*
X0135300Y0412106D01*
Y0420991D01*
X0135200Y0421091D02*
Y0422900D01*
Y0421091D02*
X0135300Y0420991D01*
X0135900Y0400500D02*
X0136200Y0400200D01*
X0135900Y0400500D02*
Y0411009D01*
X0136500Y0411609D01*
Y0420947D01*
X0137500Y0421947D01*
X0146200Y0433400D02*
X0148200D01*
X0146200Y0445900D02*
X0146700Y0446400D01*
X0145700Y0445900D02*
X0146200D01*
X0145700D02*
X0146088D01*
X0143400Y0441907D02*
X0146618Y0438689D01*
X0142200Y0440880D02*
X0145504Y0437576D01*
X0141000Y0438600D02*
Y0466171D01*
Y0438600D02*
X0146200Y0433400D01*
X0138200Y0405400D02*
Y0411606D01*
X0137700Y0412106D02*
X0138200Y0411606D01*
X0130500Y0435400D02*
X0131200Y0436100D01*
X0148115Y0420700D02*
X0151072Y0423656D01*
X0145247Y0420700D02*
X0148115D01*
X0143947Y0419400D02*
X0145247Y0420700D01*
X0141200Y0419400D02*
X0143947D01*
X0140200Y0418400D02*
X0141200Y0419400D01*
X0140200Y0406900D02*
Y0418400D01*
Y0406900D02*
X0140500Y0406600D01*
Y0404447D02*
Y0406600D01*
X0136253Y0400200D02*
X0140500Y0404447D01*
X0136200Y0400200D02*
X0136253D01*
X0141200Y0422900D02*
X0141407D01*
X0147088Y0421900D02*
X0149958Y0424770D01*
X0144500Y0421900D02*
X0147088D01*
X0143200Y0420600D02*
X0144500Y0421900D01*
X0138900Y0420600D02*
X0143200D01*
X0094200Y0398400D02*
X0099200Y0393400D01*
Y0383400D02*
Y0393400D01*
X0129300Y0417500D02*
Y0464700D01*
X0130000Y0465400D01*
X0128100Y0428578D02*
Y0465197D01*
X0128800Y0465897D01*
X0123700Y0430400D02*
Y0463900D01*
X0121200Y0466400D02*
X0123700Y0463900D01*
X0121200Y0404900D02*
Y0464703D01*
X0120000Y0465903D02*
X0121200Y0464703D01*
X0279200Y0413400D02*
X0279900Y0414100D01*
Y0420797D01*
X0264200Y0448400D02*
X0268700Y0452900D01*
X0264200Y0438400D02*
X0269900Y0444100D01*
X0307700Y0473400D02*
X0308700Y0474400D01*
X0279700Y0491400D02*
X0279900Y0491200D01*
X0279700Y0491400D02*
Y0506100D01*
X0278200Y0490900D02*
X0278700Y0490400D01*
X0180700Y0480400D02*
X0182200Y0481900D01*
Y0484400D01*
X0179500Y0476900D02*
Y0491600D01*
X0177200Y0493900D02*
X0179500Y0491600D01*
X0177200Y0493900D02*
Y0503400D01*
X0137200Y0490147D02*
X0138600Y0488747D01*
X0136000Y0489650D02*
X0137400Y0488250D01*
X0134800Y0489153D02*
X0136200Y0487753D01*
X0151400Y0464691D02*
Y0506918D01*
X0152600Y0464194D02*
Y0506421D01*
X0153800Y0463697D02*
Y0505924D01*
X0160100Y0501800D02*
X0163200Y0504900D01*
X0161300Y0476406D02*
Y0499000D01*
X0147800Y0508409D02*
X0161948Y0522557D01*
X0149000Y0507912D02*
X0163148Y0522060D01*
X0150200Y0507415D02*
X0164348Y0521563D01*
X0151400Y0506918D02*
X0165548Y0521066D01*
X0152600Y0506421D02*
X0166748Y0520569D01*
X0153800Y0505924D02*
X0167948Y0520072D01*
X0161300Y0499000D02*
X0166700Y0504400D01*
Y0508400D01*
X0162500Y0476903D02*
Y0498503D01*
X0169148Y0505151D01*
X0163700Y0477400D02*
Y0498006D01*
X0170348Y0504654D01*
Y0516900D01*
X0174200Y0488400D02*
Y0496900D01*
X0172200Y0498900D02*
X0174200Y0496900D01*
X0172200Y0498900D02*
Y0516900D01*
X0179900Y0524600D01*
X0264200Y0489400D02*
Y0495600D01*
X0263400Y0496400D02*
X0264200Y0495600D01*
X0231200Y0475400D02*
Y0506400D01*
Y0475400D02*
X0231400Y0475200D01*
Y0469953D02*
Y0475200D01*
X0259200Y0505900D02*
Y0507900D01*
Y0509900D01*
X0261000Y0511700D01*
X0278200Y0490900D02*
Y0507400D01*
X0277200Y0508400D02*
X0277700Y0508900D01*
X0279700Y0506100D02*
X0280200Y0506600D01*
X0280900Y0494700D02*
X0282700Y0492900D01*
X0280900Y0494700D02*
Y0505603D01*
X0281400Y0506103D01*
Y0521403D01*
X0283200Y0502900D02*
Y0521506D01*
X0256900Y0509600D02*
X0259700Y0512400D01*
X0256900Y0505200D02*
Y0509600D01*
X0255700Y0504703D02*
Y0511900D01*
X0254500Y0504206D02*
Y0514700D01*
X0257200Y0517400D01*
Y0520900D01*
X0255700Y0511900D02*
X0257200Y0513400D01*
Y0513900D01*
X0227700Y0470400D02*
Y0506900D01*
X0230200Y0509400D01*
X0226200Y0507097D02*
X0228852Y0509749D01*
X0225000Y0470897D02*
Y0507594D01*
X0227652Y0510246D01*
Y0539949D01*
X0223800Y0471394D02*
Y0512500D01*
X0224700Y0513400D01*
X0222600Y0471891D02*
Y0504500D01*
X0221400Y0477600D02*
Y0504003D01*
X0224200Y0520900D02*
Y0541400D01*
X0228852Y0509749D02*
Y0540749D01*
X0238500Y0449109D02*
Y0511200D01*
X0238700Y0511400D01*
Y0514900D01*
X0237300Y0449606D02*
Y0511800D01*
X0236200Y0512900D02*
X0237300Y0511800D01*
X0236200Y0512900D02*
Y0516400D01*
X0237500Y0517700D01*
X0234700Y0512400D02*
X0236100Y0511000D01*
X0234900Y0450600D02*
Y0510200D01*
X0233200Y0511900D02*
X0234900Y0510200D01*
X0231700Y0510400D02*
X0233700Y0508400D01*
X0239700Y0510400D02*
X0241200Y0511900D01*
Y0516400D01*
X0239900Y0517700D02*
X0241200Y0516400D01*
X0239900Y0517700D02*
Y0529706D01*
X0240900Y0448115D02*
Y0509903D01*
X0242400Y0511403D01*
Y0524097D01*
X0242200Y0524297D02*
X0242400Y0524097D01*
X0242100Y0508300D02*
X0244700Y0510900D01*
Y0530900D01*
X0308700Y0519900D02*
X0314200Y0525400D01*
X0308700Y0474400D02*
Y0519900D01*
X0314200Y0525400D02*
Y0528400D01*
X0309200Y0523900D02*
Y0622400D01*
X0299700Y0514400D02*
Y0520400D01*
X0300700Y0521400D01*
Y0524900D01*
X0299700Y0525900D02*
X0300700Y0524900D01*
Y0613400D02*
Y0614900D01*
X0299700Y0615900D02*
X0300700Y0614900D01*
X0299700Y0615900D02*
Y0665203D01*
Y0525900D02*
Y0610400D01*
X0298200Y0611900D02*
X0299700Y0610400D01*
X0298200Y0611900D02*
Y0614900D01*
X0298602Y0615302D01*
X0298500Y0615403D02*
X0298602Y0615302D01*
X0298200Y0523400D02*
Y0583900D01*
X0297200Y0584900D02*
X0298200Y0583900D01*
X0297200Y0584900D02*
Y0610400D01*
X0296700Y0610900D02*
X0297200Y0610400D01*
X0296700Y0610900D02*
Y0615400D01*
X0297200Y0615900D01*
X0272200Y0521900D02*
Y0528400D01*
X0268700Y0518400D02*
X0272200Y0521900D01*
X0268700Y0452900D02*
Y0518400D01*
X0252200Y0503900D02*
Y0518400D01*
X0269900Y0444100D02*
Y0517903D01*
X0273400Y0521403D01*
Y0525600D01*
X0196171Y0464301D02*
Y0464568D01*
X0199700Y0540900D02*
X0204200Y0545400D01*
X0194700Y0519697D02*
Y0531400D01*
X0159548Y0544400D02*
X0162800Y0547652D01*
X0179200Y0541797D02*
X0179900Y0541097D01*
X0158348Y0524048D02*
Y0544897D01*
X0159548Y0523551D02*
Y0544400D01*
X0160748Y0523054D02*
Y0543879D01*
X0161948Y0522557D02*
Y0543382D01*
X0163148Y0522060D02*
Y0542885D01*
X0164348Y0521563D02*
Y0542388D01*
X0165548Y0521066D02*
Y0541891D01*
X0166748Y0520569D02*
Y0541394D01*
X0167948Y0520072D02*
Y0540897D01*
X0169148Y0505151D02*
Y0540400D01*
X0170348Y0516900D02*
X0178700Y0525252D01*
Y0540400D01*
X0179900Y0524600D02*
Y0541097D01*
X0199700Y0524400D02*
Y0540900D01*
X0192046Y0534246D02*
X0194200Y0536400D01*
X0192046Y0520653D02*
Y0534246D01*
X0193200Y0545753D02*
Y0548900D01*
X0190847Y0543400D02*
X0193200Y0545753D01*
X0197000Y0519094D02*
Y0544200D01*
X0128900Y0499700D02*
X0130000Y0498600D01*
X0128900Y0499700D02*
Y0507503D01*
X0127700Y0499203D02*
X0128800Y0498103D01*
X0127700Y0499203D02*
Y0507006D01*
X0113050Y0528903D02*
Y0541400D01*
X0108200Y0516506D02*
Y0525750D01*
X0111850Y0529400D01*
X0109400Y0517003D02*
Y0525253D01*
X0113050Y0528903D01*
X0110600Y0517500D02*
Y0524756D01*
X0114250Y0528406D01*
Y0596850D01*
X0129700Y0512400D02*
Y0515400D01*
X0121200Y0466400D02*
Y0506900D01*
X0108200Y0516506D02*
X0118700Y0506006D01*
Y0425400D02*
Y0506006D01*
X0109400Y0517003D02*
X0120000Y0506403D01*
Y0465903D02*
Y0506403D01*
X0110600Y0517500D02*
X0121200Y0506900D01*
X0116900Y0517806D02*
X0127700Y0507006D01*
X0138861Y0547239D02*
Y0549388D01*
X0140200Y0544900D02*
X0140700Y0545400D01*
X0138861Y0547239D02*
X0140700Y0545400D01*
X0138861Y0560412D02*
Y0562061D01*
X0139700Y0562900D01*
Y0565400D01*
X0138700Y0566400D02*
X0139700Y0565400D01*
X0138700Y0566400D02*
Y0568900D01*
X0137200Y0570400D02*
X0138700Y0568900D01*
X0146539Y0560412D02*
Y0562239D01*
X0147200Y0562900D01*
Y0564953D01*
X0145700Y0566453D02*
X0147200Y0564953D01*
X0146539Y0549388D02*
X0148212D01*
X0149491Y0548109D01*
X0143980Y0548621D02*
Y0549388D01*
Y0548621D02*
X0148200Y0544400D01*
X0145700Y0566453D02*
Y0567900D01*
X0153338Y0553400D02*
Y0557900D01*
Y0553400D02*
X0154200Y0552538D01*
Y0549622D02*
Y0552538D01*
Y0549622D02*
X0154350Y0549473D01*
X0154200Y0538400D02*
X0154350D01*
Y0549473D01*
X0156700Y0547400D02*
X0158062Y0548762D01*
Y0553400D01*
X0195700Y0581038D02*
X0197612D01*
X0197750Y0580900D01*
X0199700Y0582850D01*
Y0583900D02*
X0204200Y0588400D01*
X0199700Y0582850D02*
Y0583900D01*
X0195700Y0585762D02*
Y0589900D01*
X0195700Y0589900D02*
X0195700Y0589900D01*
X0179200Y0541797D02*
Y0573400D01*
X0094200Y0648400D02*
X0098700Y0643900D01*
X0094200Y0668400D02*
X0099900Y0662700D01*
X0106700Y0604400D02*
Y0612400D01*
X0104200Y0605097D02*
X0113050Y0596247D01*
Y0541400D02*
Y0596247D01*
X0106700Y0604400D02*
X0114250Y0596850D01*
X0115700Y0517309D02*
Y0597097D01*
X0109299Y0603499D02*
X0115700Y0597097D01*
X0109299Y0603499D02*
Y0614301D01*
X0107700Y0615900D02*
X0109299Y0614301D01*
X0104200Y0648400D02*
X0108200Y0644400D01*
Y0619400D02*
Y0644400D01*
Y0619400D02*
X0110700Y0616900D01*
Y0603794D02*
Y0616900D01*
Y0603794D02*
X0116900Y0597594D01*
Y0517806D02*
Y0597594D01*
X0104200Y0668400D02*
X0110700Y0661900D01*
X0104200Y0688400D02*
X0108950Y0683650D01*
Y0665650D02*
Y0683650D01*
X0104200Y0698400D02*
X0110200Y0692400D01*
X0104200Y0708400D02*
X0111700Y0700900D01*
X0114500Y0603388D02*
Y0632903D01*
X0110700Y0636703D02*
X0114500Y0632903D01*
X0110700Y0636703D02*
Y0661900D01*
X0111700Y0619900D02*
X0111900Y0619700D01*
Y0604291D02*
Y0619700D01*
X0113700Y0706400D02*
Y0708400D01*
X0112900Y0705600D02*
X0113700Y0706400D01*
X0118100Y0631500D02*
X0119700Y0629900D01*
X0119300Y0634800D02*
X0120700Y0633400D01*
X0121700Y0669900D02*
X0124200Y0667400D01*
X0121700Y0673400D02*
X0125400Y0669700D01*
X0275200Y0537900D02*
X0276200Y0536900D01*
Y0528400D02*
Y0536900D01*
X0273400Y0525600D02*
X0276200Y0528400D01*
X0276200Y0510400D02*
X0277700Y0508900D01*
X0276200Y0510400D02*
Y0526400D01*
X0277700Y0527900D01*
X0277200Y0508400D02*
X0278200Y0507400D01*
X0280200Y0506600D02*
Y0521900D01*
X0281700Y0523400D01*
Y0544900D01*
X0279700Y0546900D02*
X0281700Y0544900D01*
X0279700Y0546900D02*
Y0548400D01*
X0281400Y0521403D02*
X0282900Y0522903D01*
Y0549200D01*
X0279700Y0552400D02*
X0282900Y0549200D01*
X0279700Y0552400D02*
Y0580900D01*
X0283200Y0521506D02*
X0284100Y0522406D01*
Y0549700D01*
X0280900Y0552900D02*
X0284100Y0549700D01*
X0279200Y0525900D02*
Y0544400D01*
X0277200Y0546400D02*
X0279200Y0544400D01*
X0277700Y0527900D02*
Y0544203D01*
X0276000Y0545903D02*
X0277700Y0544203D01*
X0261000Y0511700D02*
Y0547100D01*
X0242200Y0524297D02*
Y0527400D01*
X0237500Y0517700D02*
Y0530700D01*
X0238350Y0531550D01*
X0238700Y0514900D02*
Y0530203D01*
X0239550Y0531053D01*
X0239200Y0553204D02*
Y0555400D01*
X0239900Y0529706D02*
X0240750Y0530556D01*
Y0542450D01*
X0243200Y0544900D01*
Y0556900D01*
X0234700Y0512400D02*
Y0527800D01*
X0236300Y0529400D01*
Y0538300D01*
X0236200Y0538400D02*
X0236300Y0538300D01*
X0235700Y0538400D02*
X0236200D01*
X0236700Y0556400D02*
X0239200Y0558900D01*
X0217200Y0552400D02*
X0228852Y0540749D01*
X0217700Y0547900D02*
X0224200Y0541400D01*
X0216200Y0547900D02*
X0217700D01*
X0214200Y0516400D02*
Y0528400D01*
X0207700Y0509900D02*
X0214200Y0516400D01*
X0207700Y0497900D02*
Y0509900D01*
X0283200Y0568400D02*
X0285700Y0570900D01*
X0283200Y0578400D02*
X0284200Y0579400D01*
X0280900Y0552900D02*
Y0579600D01*
X0282700Y0581400D01*
X0279700Y0580900D02*
X0281200Y0582400D01*
X0277200Y0546400D02*
Y0580900D01*
X0279700Y0583400D01*
X0268700Y0636900D02*
Y0643900D01*
X0264200Y0648400D02*
X0268700Y0643900D01*
X0269900Y0644100D02*
X0274200Y0648400D01*
X0278700Y0600900D02*
Y0653900D01*
X0274200Y0658400D02*
X0278700Y0653900D01*
Y0656400D02*
X0280200Y0654900D01*
X0278700Y0656400D02*
Y0663900D01*
X0274200Y0668400D02*
X0278700Y0663900D01*
X0274200Y0678400D02*
X0278700Y0673900D01*
Y0666150D02*
Y0673900D01*
Y0666150D02*
X0280200Y0664650D01*
Y0656900D02*
Y0664650D01*
Y0656900D02*
X0281700Y0655400D01*
Y0601900D02*
Y0655400D01*
X0284200Y0579400D02*
Y0601400D01*
X0281700Y0657400D02*
X0283200Y0655900D01*
X0281700Y0657400D02*
Y0665400D01*
X0280200Y0666900D02*
X0281700Y0665400D01*
X0280200Y0666900D02*
Y0674400D01*
X0278700Y0675900D02*
X0280200Y0674400D01*
X0278700Y0675900D02*
Y0683900D01*
X0274200Y0688400D02*
X0278700Y0683900D01*
X0274200Y0718400D02*
X0278700Y0713900D01*
Y0686400D02*
Y0713900D01*
Y0686400D02*
X0280200Y0684900D01*
Y0676400D02*
Y0684900D01*
Y0676400D02*
X0281700Y0674900D01*
Y0667400D02*
Y0674900D01*
Y0667400D02*
X0283200Y0665900D01*
Y0657900D02*
Y0665900D01*
Y0657900D02*
X0284700Y0656400D01*
X0285700Y0570900D02*
Y0601900D01*
X0284700Y0658400D02*
Y0666400D01*
X0283200Y0667900D02*
X0284700Y0666400D01*
X0283200Y0667900D02*
Y0675400D01*
X0281700Y0676900D02*
X0283200Y0675400D01*
X0281700Y0676900D02*
Y0687400D01*
X0281200Y0687900D02*
X0281700Y0687400D01*
X0284700Y0668400D02*
X0286200Y0666900D01*
X0284700Y0668400D02*
Y0675900D01*
X0283200Y0677400D02*
X0284700Y0675900D01*
X0283200Y0677400D02*
Y0686400D01*
X0283700Y0686900D01*
Y0690400D01*
X0282200Y0691900D02*
X0283700Y0690400D01*
X0259700Y0552900D02*
Y0613400D01*
X0261200Y0668400D02*
X0264200D01*
X0204200Y0545400D02*
Y0550900D01*
X0158062Y0557900D02*
Y0561038D01*
X0157200Y0561900D02*
X0158062Y0561038D01*
X0155200Y0561900D02*
X0157200D01*
X0154200Y0562900D02*
X0155200Y0561900D01*
X0154200Y0562900D02*
Y0568400D01*
X0174200Y0544900D02*
Y0566489D01*
Y0544900D02*
X0178700Y0540400D01*
X0169148D02*
X0173000Y0544252D01*
X0167948Y0540897D02*
X0171800Y0544749D01*
X0166748Y0541394D02*
X0170600Y0545246D01*
X0165548Y0541891D02*
X0169400Y0545743D01*
X0164348Y0542388D02*
X0168200Y0546240D01*
X0163148Y0542885D02*
X0167000Y0546737D01*
X0161948Y0543382D02*
X0165800Y0547234D01*
X0160748Y0543879D02*
X0164600Y0547731D01*
X0162800Y0547652D02*
X0162824D01*
X0163400Y0548228D01*
X0158348Y0544897D02*
X0162200Y0548749D01*
X0158062Y0553400D02*
X0160621Y0555959D01*
X0159838Y0562184D02*
X0160621Y0561400D01*
Y0555959D02*
Y0561400D01*
X0162200Y0548749D02*
Y0561518D01*
X0161038Y0562680D02*
X0162200Y0561518D01*
X0162238Y0563178D02*
X0163400Y0562015D01*
Y0548228D02*
Y0562015D01*
X0164600Y0547731D02*
Y0562512D01*
X0163438Y0563675D02*
X0164600Y0562512D01*
X0165800Y0547234D02*
Y0563010D01*
X0164638Y0564172D02*
X0165800Y0563010D01*
X0167000Y0546737D02*
Y0563507D01*
X0165838Y0564669D02*
X0167000Y0563507D01*
X0168200Y0546240D02*
Y0564004D01*
X0167038Y0565166D02*
X0168200Y0564004D01*
X0154700Y0575400D02*
Y0578538D01*
Y0575400D02*
X0159838Y0570262D01*
Y0562184D02*
Y0570262D01*
X0157200Y0574597D02*
X0161038Y0570759D01*
Y0562680D02*
Y0570759D01*
X0158400Y0575094D02*
X0162238Y0571256D01*
X0158400Y0575094D02*
Y0629100D01*
X0162238Y0563178D02*
Y0571256D01*
X0163438Y0563675D02*
Y0571753D01*
X0164638Y0564172D02*
Y0572250D01*
X0165838Y0564669D02*
Y0572748D01*
X0167038Y0565166D02*
Y0573244D01*
X0169400Y0545743D02*
Y0564501D01*
X0168238Y0565663D02*
X0169400Y0564501D01*
X0168238Y0565663D02*
Y0573742D01*
X0170600Y0545246D02*
Y0564998D01*
X0184200Y0563400D02*
Y0578400D01*
X0154700Y0583262D02*
Y0588400D01*
X0096700Y0515200D02*
X0098500Y0513400D01*
X0096700Y0515200D02*
Y0517400D01*
X0099700Y0433900D02*
Y0520400D01*
X0230200Y0595900D02*
Y0596400D01*
X0253200Y0595900D02*
X0254600Y0597300D01*
X0252100Y0607500D02*
X0252200Y0607400D01*
X0197000Y0544200D02*
X0199200Y0546400D01*
X0158400Y0629100D02*
X0160700Y0631400D01*
X0203000Y0621200D02*
X0203200Y0621400D01*
X0205700Y0622400D02*
X0205700Y0622400D01*
X0249700Y0608900D02*
X0250700Y0609900D01*
X0248500Y0609397D02*
X0249500Y0610397D01*
X0247200Y0611900D02*
Y0631703D01*
X0246500Y0632403D02*
X0247200Y0631703D01*
X0244200Y0632400D02*
Y0642900D01*
X0241700Y0645400D02*
X0244200Y0642900D01*
X0246200Y0606900D02*
Y0608900D01*
X0244700Y0610400D02*
X0246200Y0608900D01*
X0244700Y0610400D02*
Y0627400D01*
X0241700Y0630400D02*
X0244700Y0627400D01*
X0241700Y0630400D02*
Y0643703D01*
X0240500Y0644903D02*
X0241700Y0643703D01*
X0304200Y0668400D02*
Y0671900D01*
X0299700Y0676400D02*
X0304200Y0671900D01*
X0299700Y0676400D02*
Y0690400D01*
X0301700Y0692400D01*
Y0694400D01*
X0299700Y0696400D02*
X0301700Y0694400D01*
X0299700Y0696400D02*
Y0709400D01*
X0298200Y0710900D02*
X0299700Y0709400D01*
X0293700Y0710900D02*
X0298200D01*
X0304200Y0658400D02*
Y0662400D01*
X0299700Y0666900D02*
X0304200Y0662400D01*
X0299700Y0666900D02*
Y0674400D01*
X0298200Y0675900D02*
X0299700Y0674400D01*
X0298200Y0675900D02*
Y0692400D01*
X0299200Y0693400D01*
X0298500Y0666403D02*
X0299700Y0665203D01*
X0298500Y0666403D02*
Y0673903D01*
X0297000Y0675403D02*
X0298500Y0673903D01*
X0297000Y0675403D02*
Y0692347D01*
X0296900Y0692447D02*
X0297000Y0692347D01*
X0296900Y0692447D02*
Y0694353D01*
X0298074Y0695526D01*
Y0706526D01*
X0297700Y0706900D02*
X0298074Y0706526D01*
X0297200Y0706900D02*
X0297700D01*
X0295700Y0691950D02*
X0295800Y0691850D01*
X0295700Y0691950D02*
Y0696900D01*
X0314200Y0668400D02*
Y0671900D01*
X0309700Y0676400D02*
X0314200Y0671900D01*
X0309700Y0676400D02*
Y0699400D01*
X0310200Y0704900D02*
X0310700Y0704400D01*
X0310249Y0700037D02*
X0310700Y0700488D01*
X0310249Y0699949D02*
Y0700037D01*
X0309700Y0699400D02*
X0310249Y0699949D01*
X0310700Y0700488D02*
Y0704400D01*
X0314200Y0658400D02*
Y0661900D01*
X0309700Y0666400D02*
X0314200Y0661900D01*
X0309700Y0666400D02*
Y0674400D01*
X0308500Y0675600D02*
X0309700Y0674400D01*
X0308500Y0675600D02*
Y0701600D01*
X0308200Y0701900D02*
X0308500Y0701600D01*
X0246500Y0632403D02*
Y0690700D01*
X0264200Y0708400D01*
X0259950Y0718400D02*
X0264200D01*
X0168200Y0667400D02*
X0168400Y0667200D01*
X0193200Y0554400D02*
Y0578538D01*
X0195700Y0581038D01*
X0195700Y0551400D02*
Y0569900D01*
X0193200Y0548900D02*
X0195700Y0551400D01*
Y0569900D02*
X0204200Y0578400D01*
X0212700Y0554900D02*
Y0600900D01*
X0210200Y0603400D02*
X0212700Y0600900D01*
Y0554900D02*
X0227652Y0539949D01*
X0211200Y0541400D02*
X0214200Y0538400D01*
X0211200Y0541400D02*
Y0596900D01*
X0205700Y0602400D02*
X0211200Y0596900D01*
X0199200Y0562900D02*
X0210000Y0573700D01*
Y0595100D01*
X0203000Y0602100D02*
X0210000Y0595100D01*
X0203000Y0602100D02*
Y0621200D01*
X0199200Y0546400D02*
Y0562900D01*
X0194200Y0541400D02*
Y0543900D01*
X0197700Y0547400D01*
Y0563900D01*
X0208700Y0574900D01*
Y0593400D01*
X0200700Y0601400D02*
X0208700Y0593400D01*
X0205700Y0602400D02*
Y0622400D01*
X0188700Y0614900D02*
Y0624900D01*
X0203200Y0621400D02*
Y0664900D01*
X0260700Y0257388D02*
Y0263400D01*
Y0257388D02*
X0260932Y0257156D01*
X0236700Y0645900D02*
Y0667400D01*
X0189200Y0390400D02*
X0190700Y0388900D01*
Y0384597D02*
Y0388900D01*
X0188200Y0382097D02*
X0190700Y0384597D01*
X0188200Y0364400D02*
Y0382097D01*
Y0364400D02*
X0192200Y0360400D01*
Y0306400D02*
Y0360400D01*
Y0306400D02*
X0193700Y0304900D01*
X0269200Y0693400D02*
X0274200Y0688400D01*
X0269200Y0693400D02*
Y0731900D01*
X0267700Y0733400D02*
X0269200Y0731900D01*
X0248039Y0733400D02*
X0267700D01*
X0246200Y0735239D02*
X0248039Y0733400D01*
X0184200Y0755400D02*
X0190700D01*
X0196200Y0752900D02*
Y0755400D01*
X0190700Y0752400D02*
X0205700Y0737400D01*
X0182700Y0752400D02*
X0190700D01*
X0174200Y0760900D02*
X0182700Y0752400D01*
X0151700Y0760900D02*
X0174200D01*
X0144200Y0768400D02*
X0151700Y0760900D01*
X0205700Y0622400D02*
Y0737400D01*
X0189200Y0750400D02*
X0200700Y0738900D01*
X0181200Y0750400D02*
X0189200D01*
X0173200Y0758400D02*
X0181200Y0750400D01*
X0154200Y0758400D02*
X0173200D01*
X0200700Y0601400D02*
Y0738900D01*
X0257200Y0698400D02*
X0264200D01*
X0250700Y0609900D02*
Y0688400D01*
X0236700Y0696400D02*
X0237200Y0696900D01*
X0245700Y0474200D02*
Y0476400D01*
Y0474200D02*
X0247000Y0472900D01*
Y0460600D02*
Y0472900D01*
X0248200Y0461097D02*
Y0489400D01*
X0259700Y0465400D02*
X0260249Y0465949D01*
X0259700Y0444400D02*
Y0465400D01*
X0258500Y0465897D02*
X0259049Y0466446D01*
X0258500Y0449200D02*
Y0465897D01*
X0257300Y0466394D02*
X0257849Y0466943D01*
X0257300Y0451253D02*
Y0466394D01*
X0256100Y0466891D02*
X0256649Y0467440D01*
X0256100Y0451750D02*
Y0466891D01*
X0254900Y0467388D02*
X0255449Y0467937D01*
X0254900Y0452247D02*
Y0467388D01*
X0252200Y0466400D02*
Y0469900D01*
X0254249Y0471949D01*
X0251000Y0502553D02*
Y0516100D01*
X0249700Y0517400D02*
X0251000Y0516100D01*
X0249700Y0517400D02*
Y0521900D01*
X0251000Y0523200D01*
X0252200Y0518400D02*
Y0579900D01*
X0255800Y0583500D01*
X0251000Y0584700D02*
X0253200Y0586900D01*
X0251000Y0523200D02*
Y0584700D01*
X0290700Y0587900D02*
X0291700Y0586900D01*
X0201739Y0458733D02*
X0203800Y0460795D01*
Y0462991D01*
X0205000Y0464191D01*
X0204330Y0471970D02*
X0205000Y0471300D01*
Y0464191D02*
Y0471300D01*
X0113137Y0873762D02*
X0117700D01*
X0144200Y0682900D02*
Y0715400D01*
X0136700Y0643400D02*
Y0656038D01*
Y0643400D02*
X0137700Y0642400D01*
Y0636900D02*
Y0642400D01*
X0129700Y0574900D02*
X0131200Y0576400D01*
X0151700Y0599900D02*
X0157200Y0594400D01*
Y0574597D02*
Y0594400D01*
X0149200Y0588400D02*
Y0656038D01*
X0151700Y0599900D02*
Y0676900D01*
X0119200Y0517203D02*
Y0596991D01*
X0111900Y0604291D02*
X0119200Y0596991D01*
Y0517203D02*
X0128900Y0507503D01*
X0114500Y0603388D02*
X0120400Y0597488D01*
Y0517700D02*
Y0597488D01*
Y0517700D02*
X0133600Y0504500D01*
X0121600Y0520000D02*
X0126200Y0515400D01*
X0121600Y0520000D02*
Y0597985D01*
X0115700Y0603885D02*
X0121600Y0597985D01*
X0116900Y0604382D02*
X0122800Y0598482D01*
Y0522300D02*
Y0598482D01*
Y0522300D02*
X0129700Y0515400D01*
X0124200Y0522597D02*
Y0667400D01*
X0125400Y0523094D02*
Y0669700D01*
X0126600Y0523591D02*
Y0601800D01*
X0127700Y0602900D01*
Y0604900D01*
X0134800Y0489153D02*
Y0504997D01*
X0132000Y0507797D02*
X0134800Y0504997D01*
X0132000Y0507797D02*
Y0514797D01*
X0124200Y0522597D02*
X0132000Y0514797D01*
X0125400Y0523094D02*
X0133200Y0515294D01*
Y0508294D02*
Y0515294D01*
Y0508294D02*
X0136000Y0505494D01*
Y0489650D02*
Y0505494D01*
X0126600Y0523591D02*
X0134400Y0515791D01*
Y0508791D02*
Y0515791D01*
Y0508791D02*
X0137200Y0505991D01*
Y0490147D02*
Y0505991D01*
X0129700Y0524900D02*
X0138700Y0515900D01*
X0129700Y0524900D02*
Y0574900D01*
X0135600Y0510500D02*
X0139700Y0506400D01*
X0135600Y0510500D02*
Y0516288D01*
X0127800Y0524088D02*
X0135600Y0516288D01*
X0127800Y0524088D02*
Y0577500D01*
X0130200Y0579900D01*
X0154200Y0604900D02*
Y0656038D01*
Y0604900D02*
X0155200Y0603900D01*
Y0599900D02*
Y0603900D01*
X0186700Y0658538D02*
Y0670900D01*
X0184200Y0656038D02*
X0186700Y0658538D01*
X0181700D02*
Y0673900D01*
X0179200Y0656038D02*
X0181700Y0658538D01*
X0286700Y0678400D02*
X0287400Y0677700D01*
X0288900Y0644200D02*
X0291200Y0641900D01*
X0286700Y0678400D02*
Y0700900D01*
X0291200Y0625900D02*
Y0641900D01*
X0286700Y0702597D02*
X0287900Y0701397D01*
Y0695900D02*
Y0701397D01*
Y0695900D02*
X0288600Y0695200D01*
X0290100Y0647400D02*
X0293200Y0644300D01*
Y0624900D02*
Y0644300D01*
X0295200Y0623900D02*
Y0643997D01*
X0292700Y0697400D02*
X0295700Y0700400D01*
X0298500Y0615403D02*
Y0653400D01*
X0284700Y0658400D02*
X0286200Y0656900D01*
Y0658900D02*
X0287700Y0657400D01*
X0286200Y0658900D02*
Y0666900D01*
X0287400Y0659397D02*
Y0677700D01*
Y0659397D02*
X0288900Y0657897D01*
Y0644200D02*
Y0657897D01*
X0290100Y0647400D02*
Y0658394D01*
X0288600Y0659894D02*
X0290100Y0658394D01*
X0288600Y0659894D02*
Y0695200D01*
X0292700Y0695100D02*
Y0697400D01*
X0296700Y0655200D02*
X0298500Y0653400D01*
X0296700Y0655200D02*
Y0663900D01*
Y0673500D01*
X0295800Y0674400D02*
X0296700Y0673500D01*
X0295800Y0674400D02*
Y0691850D01*
X0297200Y0615900D02*
Y0653003D01*
X0295500Y0654703D02*
X0297200Y0653003D01*
X0295500Y0654703D02*
Y0659600D01*
X0294200Y0660900D02*
X0295500Y0659600D01*
X0294200Y0660900D02*
Y0693600D01*
X0292700Y0695100D02*
X0294200Y0693600D01*
Y0644997D02*
Y0657400D01*
X0291700Y0659900D02*
X0294200Y0657400D01*
X0291700Y0659900D02*
Y0661900D01*
X0294200Y0644997D02*
X0295200Y0643997D01*
X0291700Y0661900D02*
Y0688400D01*
X0291200Y0688900D02*
X0291700Y0688400D01*
X0291200Y0688900D02*
Y0708400D01*
X0189200Y0651400D02*
Y0656038D01*
X0194200Y0651900D02*
Y0656038D01*
X0149200Y0683400D02*
X0154200Y0688400D01*
X0131200Y0660781D02*
Y0673900D01*
X0131181Y0660762D02*
X0131200Y0660781D01*
X0177700Y0670900D02*
Y0673900D01*
Y0670900D02*
X0179200Y0669400D01*
Y0660762D02*
Y0669400D01*
X0149200Y0660762D02*
Y0673900D01*
Y0683400D01*
X0144200Y0682900D02*
X0144700Y0682400D01*
Y0679400D02*
Y0682400D01*
X0154200Y0660762D02*
X0164200Y0670762D01*
X0184200Y0660762D02*
Y0681900D01*
X0164200Y0670762D02*
Y0688400D01*
X0136700Y0660762D02*
Y0681900D01*
Y0660762D02*
X0136700Y0660762D01*
X0228000Y0573200D02*
X0230200Y0575400D01*
X0239200Y0553204D02*
X0239550Y0552854D01*
Y0531053D02*
Y0552854D01*
X0238350Y0531550D02*
Y0551250D01*
X0236700Y0552900D02*
X0238350Y0551250D01*
X0236700Y0552900D02*
Y0556400D01*
X0229200Y0559900D02*
X0233200Y0555900D01*
Y0511900D02*
Y0555900D01*
X0229200Y0559900D02*
Y0571900D01*
X0228000Y0558400D02*
X0231700Y0554700D01*
Y0510400D02*
Y0554700D01*
X0228000Y0558400D02*
Y0573200D01*
X0226800Y0556400D02*
X0230200Y0553000D01*
Y0509400D02*
Y0553000D01*
X0150015Y0816439D02*
X0153700Y0816422D01*
X0158700Y0815400D02*
X0160457D01*
X0161819Y0814038D01*
X0153700Y0816422D02*
X0157678D01*
X0158700Y0815400D01*
G54D58*
X0169200Y0398400D02*
Y0399470D01*
X0172229Y0402499D01*
X0167200Y0399697D02*
X0171116Y0403612D01*
X0164722Y0403900D02*
X0167775Y0406953D01*
X0167753D02*
X0167775D01*
X0166114Y0402503D02*
X0166450Y0402839D01*
Y0403401D01*
X0168889Y0405839D01*
X0213858Y0424900D02*
X0216215Y0422543D01*
X0211200Y0424900D02*
X0213858D01*
X0199200Y0469558D02*
Y0470900D01*
X0167700Y0483762D02*
Y0488400D01*
X0241338Y0901400D02*
Y0909400D01*
X0235700D02*
X0241338D01*
X0113669Y0892432D02*
Y0895719D01*
X0100202Y0890900D02*
X0102700D01*
X0099283Y0889981D02*
X0100202Y0890900D01*
X0097883Y0866044D02*
Y0892083D01*
X0096483Y0865464D02*
Y0892983D01*
Y0865464D02*
X0096866Y0865081D01*
Y0861715D02*
Y0865081D01*
X0097883Y0866044D02*
X0098440Y0865486D01*
Y0861715D02*
Y0865486D01*
X0099283Y0866624D02*
Y0889981D01*
Y0866624D02*
X0100015Y0865891D01*
Y0861715D02*
Y0865891D01*
X0103700Y0893400D02*
X0106200Y0890900D01*
X0106800Y0894800D02*
X0110200Y0891400D01*
X0104200Y0881762D02*
Y0884400D01*
X0103338Y0876498D02*
Y0880900D01*
X0110200Y0893789D02*
X0111700Y0895289D01*
X0110200Y0892400D02*
Y0893789D01*
X0120488Y0801085D02*
Y0807687D01*
X0109464Y0801085D02*
Y0807636D01*
X0120200Y0794900D02*
X0122200Y0792900D01*
X0118062Y0794900D02*
X0120200D01*
X0089479Y0830706D02*
X0093506D01*
X0094200Y0831400D01*
X0084488Y0830612D02*
X0089385D01*
X0082700Y0832400D02*
X0084488Y0830612D01*
X0083810Y0849510D02*
X0089385D01*
X0082700Y0848400D02*
X0083810Y0849510D01*
X0079200Y0848400D02*
X0082700D01*
X0142535Y0857235D02*
Y0861715D01*
X0145413Y0855809D02*
X0150015D01*
X0142660Y0846360D02*
X0150015D01*
X0142912Y0830612D02*
X0150015D01*
X0157625D01*
X0154244Y0828856D02*
X0154700Y0828400D01*
X0150196Y0828856D02*
X0154244D01*
X0162700Y0835262D02*
X0166062D01*
X0150015Y0851085D02*
X0157660D01*
X0150015Y0852660D02*
X0154479D01*
X0155401Y0853581D01*
X0156657D01*
X0157976Y0854900D01*
X0150015Y0854235D02*
X0152822D01*
X0156988Y0858400D01*
X0145964Y0841636D02*
X0150015D01*
Y0835337D02*
Y0836912D01*
Y0835337D02*
X0162625D01*
X0137811Y0861715D02*
Y0866510D01*
X0160147Y0776721D02*
X0162521Y0774347D01*
X0160147Y0776721D02*
Y0805570D01*
X0158547Y0804053D02*
Y0805048D01*
X0153637Y0809959D02*
X0158547Y0805048D01*
X0150015Y0810140D02*
X0153456D01*
X0202200Y0793400D02*
X0210641D01*
X0221700Y0784400D02*
X0226188D01*
X0226200Y0784388D01*
X0236200Y0760412D02*
Y0767400D01*
X0241200Y0760412D02*
Y0768400D01*
Y0768900D01*
X0213200Y0788400D02*
Y0790841D01*
X0150090Y0813215D02*
X0154624D01*
X0161647Y0806191D01*
X0150015Y0813290D02*
X0150090Y0813215D01*
X0150015Y0814864D02*
X0154954D01*
X0161647Y0787400D02*
Y0806191D01*
Y0787400D02*
X0165647Y0783400D01*
X0189200D01*
X0194200Y0778400D01*
X0154954Y0814864D02*
X0163047Y0806771D01*
Y0788307D02*
Y0806771D01*
Y0788307D02*
X0166554Y0784800D01*
X0201600D02*
X0206200Y0789400D01*
X0216168Y0744932D02*
Y0745841D01*
Y0744932D02*
X0218200Y0742900D01*
X0198253Y0772453D02*
X0231147D01*
X0194200Y0768400D02*
X0198253Y0772453D01*
X0194200Y0778400D02*
X0198647Y0773953D01*
X0221520D01*
X0223467Y0775900D01*
X0143200Y0867900D02*
X0145759D01*
X0204200Y0778400D02*
Y0781400D01*
X0200800Y0784800D02*
X0204200Y0781400D01*
X0166554Y0784800D02*
X0200800D01*
X0201600D01*
X0116259Y0904341D02*
Y0908219D01*
X0127212Y0878061D02*
Y0882061D01*
X0170147Y0774347D02*
X0174200Y0778400D01*
X0162521Y0774347D02*
X0170147D01*
X0150015Y0818014D02*
Y0818100D01*
X0159111D02*
X0159197Y0818014D01*
X0161071D01*
X0150015Y0818100D02*
X0159111D01*
X0116259Y0904341D02*
X0116636Y0903964D01*
Y0901579D02*
Y0903964D01*
X0109731Y0895817D02*
Y0896200D01*
X0100881Y0897616D02*
X0102297Y0896200D01*
X0109731D01*
X0100900Y0902222D02*
Y0906531D01*
X0104005Y0909636D01*
X0096483Y0892983D02*
X0098296Y0894796D01*
X0099132D01*
X0099136Y0894800D01*
X0106800D01*
X0097883Y0892083D02*
X0099196Y0893396D01*
X0099712D01*
X0099716Y0893400D01*
X0103700D01*
X0100881Y0897616D02*
Y0902203D01*
X0100900Y0902222D01*
X0202852Y0457620D02*
X0205200Y0459968D01*
Y0460400D01*
X0195057Y0465415D02*
X0199200Y0469558D01*
X0117338Y0869400D02*
X0117700Y0869038D01*
X0111700Y0869400D02*
X0117338D01*
X0156247Y0840089D02*
X0158971D01*
X0154700Y0841636D02*
X0156247Y0840089D01*
X0150015Y0841636D02*
X0154700D01*
X0150015Y0847935D02*
X0153665D01*
X0154200Y0845617D02*
Y0847400D01*
Y0845617D02*
X0155417Y0844400D01*
X0157976D01*
X0153665Y0847935D02*
X0154200Y0847400D01*
X0150015Y0849510D02*
X0154306D01*
X0155917Y0847900D01*
X0157976D01*
X0075700Y0799810D02*
Y0804447D01*
X0081700Y0799810D02*
Y0804447D01*
X0126900Y0073549D02*
X0130899D01*
X0128899D01*
Y0067551D01*
X0133898D02*
X0135897D01*
X0136897Y0068550D01*
Y0070550D01*
X0135897Y0071549D01*
X0133898D01*
X0132898Y0070550D01*
Y0068550D01*
X0133898Y0067551D01*
X0138896Y0065551D02*
Y0071549D01*
X0141895D01*
X0142895Y0070550D01*
Y0068550D01*
X0141895Y0067551D01*
X0138896D01*
X0150892Y0073549D02*
Y0067551D01*
X0154891D01*
X0157890Y0071549D02*
X0159889D01*
X0160889Y0070550D01*
Y0067551D01*
X0157890D01*
X0156890Y0068550D01*
X0157890Y0069550D01*
X0160889D01*
X0162888Y0071549D02*
Y0068550D01*
X0163888Y0067551D01*
X0166887D01*
Y0066551D01*
X0165887Y0065551D01*
X0164888D01*
X0166887Y0067551D02*
Y0071549D01*
X0171885Y0067551D02*
X0169886D01*
X0168886Y0068550D01*
Y0070550D01*
X0169886Y0071549D01*
X0171885D01*
X0172885Y0070550D01*
Y0069550D01*
X0168886D01*
X0174884Y0071549D02*
Y0067551D01*
Y0069550D01*
X0175884Y0070550D01*
X0176884Y0071549D01*
X0177884D01*
X0567400Y0087833D02*
Y0093831D01*
X0571399Y0087833D01*
Y0093831D01*
X0574398Y0087833D02*
X0576397D01*
X0577397Y0088833D01*
Y0090832D01*
X0576397Y0091832D01*
X0574398D01*
X0573398Y0090832D01*
Y0088833D01*
X0574398Y0087833D01*
X0580396Y0092832D02*
Y0091832D01*
X0579396D01*
X0581395D01*
X0580396D01*
Y0088833D01*
X0581395Y0087833D01*
X0590393Y0093831D02*
X0592392D01*
X0591392D01*
Y0087833D01*
X0590393D01*
X0592392D01*
X0595391D02*
Y0091832D01*
X0598390D01*
X0599390Y0090832D01*
Y0087833D01*
X0607387Y0093831D02*
Y0089833D01*
X0609386Y0087833D01*
X0611386Y0089833D01*
Y0093831D01*
X0616384Y0087833D02*
X0614385D01*
X0613385Y0088833D01*
Y0090832D01*
X0614385Y0091832D01*
X0616384D01*
X0617384Y0090832D01*
Y0089833D01*
X0613385D01*
X0619383Y0091832D02*
Y0087833D01*
Y0089833D01*
X0620383Y0090832D01*
X0621383Y0091832D01*
X0622382D01*
X0625381Y0087833D02*
X0628380D01*
X0629380Y0088833D01*
X0628380Y0089833D01*
X0626381D01*
X0625381Y0090832D01*
X0626381Y0091832D01*
X0629380D01*
X0631379Y0087833D02*
X0633379D01*
X0632379D01*
Y0091832D01*
X0631379D01*
X0637377Y0087833D02*
X0639377D01*
X0640376Y0088833D01*
Y0090832D01*
X0639377Y0091832D01*
X0637377D01*
X0636378Y0090832D01*
Y0088833D01*
X0637377Y0087833D01*
X0642376D02*
Y0091832D01*
X0645375D01*
X0646374Y0090832D01*
Y0087833D01*
X0652373Y0092832D02*
X0651373Y0093831D01*
X0649373D01*
X0648374Y0092832D01*
Y0088833D01*
X0649373Y0087833D01*
X0651373D01*
X0652373Y0088833D01*
X0655372Y0087833D02*
X0657371D01*
X0658371Y0088833D01*
Y0090832D01*
X0657371Y0091832D01*
X0655372D01*
X0654372Y0090832D01*
Y0088833D01*
X0655372Y0087833D01*
X0660370D02*
Y0091832D01*
X0663369D01*
X0664369Y0090832D01*
Y0087833D01*
X0667368Y0092832D02*
Y0091832D01*
X0666368D01*
X0668367D01*
X0667368D01*
Y0088833D01*
X0668367Y0087833D01*
X0671366Y0091832D02*
Y0087833D01*
Y0089833D01*
X0672366Y0090832D01*
X0673366Y0091832D01*
X0674365D01*
X0678364Y0087833D02*
X0680364D01*
X0681363Y0088833D01*
Y0090832D01*
X0680364Y0091832D01*
X0678364D01*
X0677364Y0090832D01*
Y0088833D01*
X0678364Y0087833D01*
X0683362D02*
X0685362D01*
X0684362D01*
Y0093831D01*
X0683362D01*
X0520799Y0092832D02*
X0519799Y0093831D01*
X0517800D01*
X0516800Y0092832D01*
Y0091832D01*
X0517800Y0090832D01*
X0519799D01*
X0520799Y0089833D01*
Y0088833D01*
X0519799Y0087833D01*
X0517800D01*
X0516800Y0088833D01*
X0522798Y0093831D02*
Y0089833D01*
X0524797Y0087833D01*
X0526797Y0089833D01*
Y0093831D01*
X0528796Y0087833D02*
Y0093831D01*
X0532795Y0087833D01*
Y0093831D01*
X0540792Y0087833D02*
Y0093831D01*
X0543791D01*
X0544791Y0092832D01*
Y0090832D01*
X0543791Y0089833D01*
X0540792D01*
X0542792D02*
X0544791Y0087833D01*
X0550789Y0093831D02*
X0546790D01*
Y0087833D01*
X0550789D01*
X0546790Y0090832D02*
X0548790D01*
X0552788Y0093831D02*
Y0089833D01*
X0554788Y0087833D01*
X0556787Y0089833D01*
Y0093831D01*
X0558786Y0091832D02*
X0559786D01*
Y0090832D01*
X0558786D01*
Y0091832D01*
Y0088833D02*
X0559786D01*
Y0087833D01*
X0558786D01*
Y0088833D01*
X0433000Y0087833D02*
Y0093831D01*
X0435999D01*
X0436999Y0092832D01*
Y0090832D01*
X0435999Y0089833D01*
X0433000D01*
X0434999D02*
X0436999Y0087833D01*
X0442997Y0093831D02*
X0438998D01*
Y0087833D01*
X0442997D01*
X0438998Y0090832D02*
X0440997D01*
X0444996Y0093831D02*
Y0089833D01*
X0446995Y0087833D01*
X0448995Y0089833D01*
Y0093831D01*
X0450994Y0091832D02*
X0451994D01*
Y0090832D01*
X0450994D01*
Y0091832D01*
Y0088833D02*
X0451994D01*
Y0087833D01*
X0450994D01*
Y0088833D01*
X0126900Y0046966D02*
Y0052965D01*
X0128899Y0050965D01*
X0130899Y0052965D01*
Y0046966D01*
X0136897Y0051965D02*
X0135897Y0052965D01*
X0133898D01*
X0132898Y0051965D01*
Y0047966D01*
X0133898Y0046966D01*
X0135897D01*
X0136897Y0047966D01*
X0138896Y0052965D02*
Y0047966D01*
X0139896Y0046966D01*
X0141895D01*
X0142895Y0047966D01*
Y0052965D01*
X0144894Y0051965D02*
X0145894Y0052965D01*
X0147893D01*
X0148893Y0051965D01*
Y0047966D01*
X0147893Y0046966D01*
X0145894D01*
X0144894Y0047966D01*
Y0051965D01*
X0154891Y0046966D02*
X0150892D01*
X0154891Y0050965D01*
Y0051965D01*
X0153891Y0052965D01*
X0151892D01*
X0150892Y0051965D01*
X0156890D02*
X0157890Y0052965D01*
X0159889D01*
X0160889Y0051965D01*
Y0050965D01*
X0159889Y0049966D01*
X0158890D01*
X0159889D01*
X0160889Y0048966D01*
Y0047966D01*
X0159889Y0046966D01*
X0157890D01*
X0156890Y0047966D01*
X0162888Y0046966D02*
X0164888D01*
X0163888D01*
Y0052965D01*
X0162888Y0051965D01*
X0167887Y0046966D02*
Y0047966D01*
X0168886D01*
Y0046966D01*
X0167887D01*
X0172885Y0051965D02*
X0173885Y0052965D01*
X0175884D01*
X0176884Y0051965D01*
Y0047966D01*
X0175884Y0046966D01*
X0173885D01*
X0172885Y0047966D01*
Y0051965D01*
X0178883Y0046966D02*
Y0047966D01*
X0179883D01*
Y0046966D01*
X0178883D01*
X0187880Y0051965D02*
X0186881Y0052965D01*
X0184881D01*
X0183882Y0051965D01*
Y0047966D01*
X0184881Y0046966D01*
X0186881D01*
X0187880Y0047966D01*
Y0049966D01*
X0185881D01*
X0189880Y0052965D02*
X0193878D01*
X0191879D01*
Y0046966D01*
X0195878Y0052965D02*
Y0046966D01*
X0199876D01*
X0381150D02*
X0383149D01*
X0382150D01*
Y0052965D01*
X0381150Y0051965D01*
X0386148D02*
X0387148Y0052965D01*
X0389147D01*
X0390147Y0051965D01*
Y0047966D01*
X0389147Y0046966D01*
X0387148D01*
X0386148Y0047966D01*
Y0051965D01*
X0392146Y0046966D02*
X0396145Y0050965D01*
X0398145Y0046966D02*
X0400144D01*
X0399144D01*
Y0052965D01*
X0398145Y0051965D01*
X0407142Y0046966D02*
X0403143D01*
X0407142Y0050965D01*
Y0051965D01*
X0406142Y0052965D01*
X0404143D01*
X0403143Y0051965D01*
X0409141Y0046966D02*
X0413140Y0050965D01*
X0419138Y0046966D02*
X0415139D01*
X0419138Y0050965D01*
Y0051965D01*
X0418138Y0052965D01*
X0416139D01*
X0415139Y0051965D01*
X0421137D02*
X0422137Y0052965D01*
X0424136D01*
X0425136Y0051965D01*
Y0047966D01*
X0424136Y0046966D01*
X0422137D01*
X0421137Y0047966D01*
Y0051965D01*
X0427135Y0046966D02*
X0429135D01*
X0428135D01*
Y0052965D01*
X0427135Y0051965D01*
X0432133Y0052965D02*
X0436132D01*
Y0051965D01*
X0432133Y0047966D01*
Y0046966D01*
X0298199Y0051965D02*
X0297199Y0052965D01*
X0295200D01*
X0294200Y0051965D01*
Y0047966D01*
X0295200Y0046966D01*
X0297199D01*
X0298199Y0047966D01*
Y0049966D01*
X0296199D01*
X0304197Y0052965D02*
X0300198D01*
Y0046966D01*
X0304197D01*
X0300198Y0049966D02*
X0302197D01*
X0306196Y0046966D02*
Y0052965D01*
X0310195Y0046966D01*
Y0052965D01*
X0316193D02*
X0312194D01*
Y0046966D01*
X0316193D01*
X0312194Y0049966D02*
X0314194D01*
X0318192Y0046966D02*
Y0052965D01*
X0321191D01*
X0322191Y0051965D01*
Y0049966D01*
X0321191Y0048966D01*
X0318192D01*
X0320192D02*
X0322191Y0046966D01*
X0324190D02*
Y0050965D01*
X0326190Y0052965D01*
X0328189Y0050965D01*
Y0046966D01*
Y0049966D01*
X0324190D01*
X0330188Y0052965D02*
X0334187D01*
X0332188D01*
Y0046966D01*
X0340185Y0052965D02*
X0336186D01*
Y0046966D01*
X0340185D01*
X0336186Y0049966D02*
X0338186D01*
X0342184Y0052965D02*
Y0046966D01*
X0345183D01*
X0346183Y0047966D01*
Y0051965D01*
X0345183Y0052965D01*
X0342184D01*
X0372175Y0050965D02*
X0373175D01*
Y0049966D01*
X0372175D01*
Y0050965D01*
Y0047966D02*
X0373175D01*
Y0046966D01*
X0372175D01*
Y0047966D01*
X0046350Y0087833D02*
Y0091832D01*
X0048349Y0093831D01*
X0050349Y0091832D01*
Y0087833D01*
Y0090832D01*
X0046350D01*
X0052348Y0093831D02*
Y0087833D01*
X0056347D01*
X0058346Y0093831D02*
Y0087833D01*
X0062345D01*
X0070342D02*
Y0091832D01*
X0072342Y0093831D01*
X0074341Y0091832D01*
Y0087833D01*
Y0090832D01*
X0070342D01*
X0076340Y0087833D02*
Y0093831D01*
X0079339D01*
X0080339Y0092832D01*
Y0090832D01*
X0079339Y0089833D01*
X0076340D01*
X0078340D02*
X0080339Y0087833D01*
X0082338Y0093831D02*
X0086337D01*
X0084338D01*
Y0087833D01*
X0088336Y0093831D02*
Y0087833D01*
X0090336Y0089833D01*
X0092335Y0087833D01*
Y0093831D01*
X0097334D02*
X0095334D01*
X0094335Y0092832D01*
Y0088833D01*
X0095334Y0087833D01*
X0097334D01*
X0098333Y0088833D01*
Y0092832D01*
X0097334Y0093831D01*
X0100332Y0087833D02*
Y0093831D01*
X0103332D01*
X0104331Y0092832D01*
Y0090832D01*
X0103332Y0089833D01*
X0100332D01*
X0102332D02*
X0104331Y0087833D01*
X0106331Y0093831D02*
Y0087833D01*
Y0089833D01*
X0110329Y0093831D01*
X0107330Y0090832D01*
X0110329Y0087833D01*
X0118327Y0093831D02*
Y0089833D01*
X0120326Y0087833D01*
X0122325Y0089833D01*
Y0093831D01*
X0124325D02*
X0126324D01*
X0125324D01*
Y0087833D01*
X0124325D01*
X0126324D01*
X0133322Y0093831D02*
X0129323D01*
Y0087833D01*
X0133322D01*
X0129323Y0090832D02*
X0131323D01*
X0135321Y0093831D02*
Y0087833D01*
X0137321Y0089833D01*
X0139320Y0087833D01*
Y0093831D01*
X0145318D02*
X0141319D01*
Y0087833D01*
X0145318D01*
X0141319Y0090832D02*
X0143319D01*
X0147317Y0093831D02*
Y0087833D01*
X0150316D01*
X0151316Y0088833D01*
Y0092832D01*
X0150316Y0093831D01*
X0147317D01*
X0163312D02*
X0159313D01*
Y0090832D01*
X0161313D01*
X0159313D01*
Y0087833D01*
X0165312D02*
Y0093831D01*
X0168310D01*
X0169310Y0092832D01*
Y0090832D01*
X0168310Y0089833D01*
X0165312D01*
X0167311D02*
X0169310Y0087833D01*
X0174309Y0093831D02*
X0172309D01*
X0171310Y0092832D01*
Y0088833D01*
X0172309Y0087833D01*
X0174309D01*
X0175308Y0088833D01*
Y0092832D01*
X0174309Y0093831D01*
X0177308Y0087833D02*
Y0093831D01*
X0179307Y0091832D01*
X0181306Y0093831D01*
Y0087833D01*
X0189304Y0093831D02*
X0193303D01*
X0191303D01*
Y0087833D01*
X0198301Y0093831D02*
X0196301D01*
X0195302Y0092832D01*
Y0088833D01*
X0196301Y0087833D01*
X0198301D01*
X0199301Y0088833D01*
Y0092832D01*
X0198301Y0093831D01*
X0201300Y0087833D02*
Y0093831D01*
X0204299D01*
X0205299Y0092832D01*
Y0090832D01*
X0204299Y0089833D01*
X0201300D01*
X0217295Y0092832D02*
X0216295Y0093831D01*
X0214296D01*
X0213296Y0092832D01*
Y0091832D01*
X0214296Y0090832D01*
X0216295D01*
X0217295Y0089833D01*
Y0088833D01*
X0216295Y0087833D01*
X0214296D01*
X0213296Y0088833D01*
X0219294Y0093831D02*
X0221293D01*
X0220294D01*
Y0087833D01*
X0219294D01*
X0221293D01*
X0224292Y0093831D02*
Y0087833D01*
X0227291D01*
X0228291Y0088833D01*
Y0092832D01*
X0227291Y0093831D01*
X0224292D01*
X0234289D02*
X0230291D01*
Y0087833D01*
X0234289D01*
X0230291Y0090832D02*
X0232290D01*
X0462150Y0087833D02*
X0464149D01*
X0463150D01*
Y0093831D01*
X0462150Y0092832D01*
X0467148Y0087833D02*
Y0088833D01*
X0468148D01*
Y0087833D01*
X0467148D01*
X0472147Y0092832D02*
X0473146Y0093831D01*
X0475146D01*
X0476146Y0092832D01*
Y0088833D01*
X0475146Y0087833D01*
X0473146D01*
X0472147Y0088833D01*
Y0092832D01*
X0348550Y0087833D02*
Y0093831D01*
X0350549Y0091832D01*
X0352549Y0093831D01*
Y0087833D01*
X0358547Y0092832D02*
X0357547Y0093831D01*
X0355548D01*
X0354548Y0092832D01*
Y0088833D01*
X0355548Y0087833D01*
X0357547D01*
X0358547Y0088833D01*
X0360546Y0093831D02*
Y0088833D01*
X0361546Y0087833D01*
X0363545D01*
X0364545Y0088833D01*
Y0093831D01*
X0366544Y0092832D02*
X0367544Y0093831D01*
X0369543D01*
X0370543Y0092832D01*
Y0088833D01*
X0369543Y0087833D01*
X0367544D01*
X0366544Y0088833D01*
Y0092832D01*
X0376541Y0087833D02*
X0372542D01*
X0376541Y0091832D01*
Y0092832D01*
X0375541Y0093831D01*
X0373542D01*
X0372542Y0092832D01*
X0378540D02*
X0379540Y0093831D01*
X0381539D01*
X0382539Y0092832D01*
Y0091832D01*
X0381539Y0090832D01*
X0380540D01*
X0381539D01*
X0382539Y0089833D01*
Y0088833D01*
X0381539Y0087833D01*
X0379540D01*
X0378540Y0088833D01*
X0294000Y0093831D02*
Y0087833D01*
X0296999D01*
X0297999Y0088833D01*
Y0089833D01*
X0296999Y0090832D01*
X0294000D01*
X0296999D01*
X0297999Y0091832D01*
Y0092832D01*
X0296999Y0093831D01*
X0294000D01*
X0302997D02*
X0300998D01*
X0299998Y0092832D01*
Y0088833D01*
X0300998Y0087833D01*
X0302997D01*
X0303997Y0088833D01*
Y0092832D01*
X0302997Y0093831D01*
X0305996Y0087833D02*
Y0091832D01*
X0307996Y0093831D01*
X0309995Y0091832D01*
Y0087833D01*
Y0090832D01*
X0305996D01*
X0311994Y0087833D02*
Y0093831D01*
X0314993D01*
X0315993Y0092832D01*
Y0090832D01*
X0314993Y0089833D01*
X0311994D01*
X0313994D02*
X0315993Y0087833D01*
X0317992Y0093831D02*
Y0087833D01*
X0320991D01*
X0321991Y0088833D01*
Y0092832D01*
X0320991Y0093831D01*
X0317992D01*
X0330988Y0087833D02*
Y0093831D01*
X0332987D02*
Y0087833D01*
X0329988Y0091832D02*
X0332987D01*
X0333987D01*
X0329988Y0089833D02*
X0333987D01*
X0335986Y0091832D02*
X0336986D01*
Y0090832D01*
X0335986D01*
Y0091832D01*
Y0088833D02*
X0336986D01*
Y0087833D01*
X0335986D01*
Y0088833D01*
X0046350Y0073549D02*
Y0067551D01*
X0050349D01*
X0052348D02*
Y0071549D01*
X0054347Y0073549D01*
X0056347Y0071549D01*
Y0067551D01*
Y0070550D01*
X0052348D01*
X0058346Y0073549D02*
Y0072549D01*
X0060346Y0070550D01*
X0062345Y0072549D01*
Y0073549D01*
X0060346Y0070550D02*
Y0067551D01*
X0068343Y0073549D02*
X0064344D01*
Y0067551D01*
X0068343D01*
X0064344Y0070550D02*
X0066343D01*
X0070342Y0067551D02*
Y0073549D01*
X0073341D01*
X0074341Y0072549D01*
Y0070550D01*
X0073341Y0069550D01*
X0070342D01*
X0072342D02*
X0074341Y0067551D01*
X0082338D02*
Y0073549D01*
X0086337Y0067551D01*
Y0073549D01*
X0088336Y0067551D02*
Y0071549D01*
X0090336Y0073549D01*
X0092335Y0071549D01*
Y0067551D01*
Y0070550D01*
X0088336D01*
X0094335Y0067551D02*
Y0073549D01*
X0096334Y0071549D01*
X0098333Y0073549D01*
Y0067551D01*
X0104331Y0073549D02*
X0100332D01*
Y0067551D01*
X0104331D01*
X0100332Y0070550D02*
X0102332D01*
X0112329Y0069550D02*
X0116327D01*
X0112329Y0071549D02*
X0116327D01*
X0046350Y0046966D02*
Y0052965D01*
X0049349D01*
X0050349Y0051965D01*
Y0049966D01*
X0049349Y0048966D01*
X0046350D01*
X0052348Y0052965D02*
Y0046966D01*
X0056347D01*
X0061345Y0052965D02*
X0059346D01*
X0058346Y0051965D01*
Y0047966D01*
X0059346Y0046966D01*
X0061345D01*
X0062345Y0047966D01*
Y0051965D01*
X0061345Y0052965D01*
X0064344D02*
X0068343D01*
X0066343D01*
Y0046966D01*
X0076340D02*
Y0052965D01*
X0080339Y0046966D01*
Y0052965D01*
X0082338Y0046966D02*
Y0050965D01*
X0084338Y0052965D01*
X0086337Y0050965D01*
Y0046966D01*
Y0049966D01*
X0082338D01*
X0088336Y0046966D02*
Y0052965D01*
X0090336Y0050965D01*
X0092335Y0052965D01*
Y0046966D01*
X0098333Y0052965D02*
X0094335D01*
Y0046966D01*
X0098333D01*
X0094335Y0049966D02*
X0096334D01*
X0106331Y0048966D02*
X0110329D01*
X0106331Y0050965D02*
X0110329D01*
X0454050Y0051965D02*
X0455050Y0052965D01*
X0457049D01*
X0458049Y0051965D01*
Y0050965D01*
X0457049Y0049966D01*
X0456049D01*
X0457049D01*
X0458049Y0048966D01*
Y0047966D01*
X0457049Y0046966D01*
X0455050D01*
X0454050Y0047966D01*
X0460048Y0050965D02*
X0461048D01*
Y0049966D01*
X0460048D01*
Y0050965D01*
Y0047966D02*
X0461048D01*
Y0046966D01*
X0460048D01*
Y0047966D01*
X0469045Y0046966D02*
X0465046D01*
X0469045Y0050965D01*
Y0051965D01*
X0468046Y0052965D01*
X0466046D01*
X0465046Y0051965D01*
X0471044Y0052965D02*
X0475043D01*
Y0051965D01*
X0471044Y0047966D01*
Y0046966D01*
X0477043Y0050965D02*
X0478042D01*
Y0049966D01*
X0477043D01*
Y0050965D01*
Y0047966D02*
X0478042D01*
Y0046966D01*
X0477043D01*
Y0047966D01*
X0485040Y0046966D02*
Y0052965D01*
X0482041Y0049966D01*
X0486040D01*
X0488039Y0047966D02*
X0489039Y0046966D01*
X0491038D01*
X0492038Y0047966D01*
Y0051965D01*
X0491038Y0052965D01*
X0489039D01*
X0488039Y0051965D01*
Y0050965D01*
X0489039Y0049966D01*
X0492038D01*
X0500035Y0046966D02*
Y0052965D01*
X0503034D01*
X0504034Y0051965D01*
Y0049966D01*
X0503034Y0048966D01*
X0500035D01*
X0506033Y0046966D02*
Y0052965D01*
X0508033Y0050965D01*
X0510032Y0052965D01*
Y0046966D01*
X0580500Y0052965D02*
X0584499D01*
X0582499D01*
Y0046966D01*
X0590497Y0052965D02*
X0586498D01*
Y0046966D01*
X0590497D01*
X0586498Y0049966D02*
X0588497D01*
X0592496Y0052965D02*
X0596495Y0046966D01*
Y0052965D02*
X0592496Y0046966D01*
X0598494D02*
Y0050965D01*
X0600493Y0052965D01*
X0602493Y0050965D01*
Y0046966D01*
Y0049966D01*
X0598494D01*
X0608491Y0051965D02*
X0607491Y0052965D01*
X0605492D01*
X0604492Y0051965D01*
Y0050965D01*
X0605492Y0049966D01*
X0607491D01*
X0608491Y0048966D01*
Y0047966D01*
X0607491Y0046966D01*
X0605492D01*
X0604492Y0047966D01*
X0616488Y0052965D02*
X0618488D01*
X0617488D01*
Y0046966D01*
X0616488D01*
X0618488D01*
X0621487D02*
Y0052965D01*
X0625486Y0046966D01*
Y0052965D01*
X0631484Y0051965D02*
X0630484Y0052965D01*
X0628484D01*
X0627485Y0051965D01*
Y0050965D01*
X0628484Y0049966D01*
X0630484D01*
X0631484Y0048966D01*
Y0047966D01*
X0630484Y0046966D01*
X0628484D01*
X0627485Y0047966D01*
X0633483Y0052965D02*
X0637482D01*
X0635482D01*
Y0046966D01*
X0639481D02*
Y0052965D01*
X0642480D01*
X0643480Y0051965D01*
Y0049966D01*
X0642480Y0048966D01*
X0639481D01*
X0641480D02*
X0643480Y0046966D01*
X0645479Y0052965D02*
Y0047966D01*
X0646479Y0046966D01*
X0648478D01*
X0649478Y0047966D01*
Y0052965D01*
X0651477Y0046966D02*
Y0052965D01*
X0653476Y0050965D01*
X0655476Y0052965D01*
Y0046966D01*
X0661474Y0052965D02*
X0657475D01*
Y0046966D01*
X0661474D01*
X0657475Y0049966D02*
X0659474D01*
X0663473Y0046966D02*
Y0052965D01*
X0667472Y0046966D01*
Y0052965D01*
X0669471D02*
X0673470D01*
X0671471D01*
Y0046966D01*
X0679468Y0051965D02*
X0678468Y0052965D01*
X0676469D01*
X0675469Y0051965D01*
Y0050965D01*
X0676469Y0049966D01*
X0678468D01*
X0679468Y0048966D01*
Y0047966D01*
X0678468Y0046966D01*
X0676469D01*
X0675469Y0047966D01*
X0294000Y0073498D02*
X0297999D01*
X0295999D01*
Y0067500D01*
X0299998Y0073498D02*
X0301997D01*
X0300998D01*
Y0067500D01*
X0299998D01*
X0301997D01*
X0304996Y0073498D02*
Y0067500D01*
X0307996D01*
X0308995Y0068500D01*
Y0072498D01*
X0307996Y0073498D01*
X0304996D01*
X0317992Y0067500D02*
Y0073498D01*
X0319992D02*
Y0067500D01*
X0316993Y0071499D02*
X0319992D01*
X0320991D01*
X0316993Y0069499D02*
X0320991D01*
X0322991Y0071499D02*
X0323990D01*
Y0070499D01*
X0322991D01*
Y0071499D01*
Y0068500D02*
X0323990D01*
Y0067500D01*
X0322991D01*
Y0068500D01*
X0348550Y0067500D02*
Y0073498D01*
X0352549Y0067500D01*
Y0073498D01*
X0354548Y0067500D02*
X0358547Y0071499D01*
X0360546Y0067500D02*
Y0071499D01*
X0362545Y0073498D01*
X0364545Y0071499D01*
Y0067500D01*
Y0070499D01*
X0360546D01*
G54D59*
X0291700Y0252762D02*
Y0252900D01*
X0287200Y0257400D02*
X0291700Y0252900D01*
X0292062Y0248400D02*
X0304200D01*
X0291700Y0248038D02*
X0292062Y0248400D01*
X0294200Y0264762D02*
Y0271400D01*
Y0260038D02*
X0300838Y0253400D01*
X0309200D01*
X0225200Y0382900D02*
Y0388900D01*
X0224200Y0373762D02*
Y0381900D01*
X0225200Y0382900D01*
X0205838Y0402400D02*
Y0405038D01*
X0207200Y0406400D01*
X0289338Y0743538D02*
X0291200Y0745400D01*
X0289338Y0740900D02*
Y0743538D01*
Y0735900D02*
Y0740900D01*
X0296700Y0735900D02*
X0304200Y0728400D01*
X0294062Y0735900D02*
X0296700D01*
X0137338Y0913510D02*
Y0917900D01*
X0136547Y0918691D02*
X0137338Y0917900D01*
X0129251Y0918691D02*
X0136547D01*
X0127901Y0890573D02*
Y0891400D01*
X0116188Y0887471D02*
Y0889739D01*
X0119659Y0894634D02*
Y0897476D01*
X0120583Y0898400D01*
X0116188Y0889739D02*
Y0890888D01*
X0118200Y0892900D01*
X0118818Y0908219D02*
X0118891Y0908146D01*
Y0904959D02*
Y0908146D01*
Y0904959D02*
X0119948Y0903902D01*
X0108292Y0904742D02*
X0108582D01*
Y0908219D01*
X0103505Y0899900D02*
X0108292Y0904742D01*
X0098149Y0918691D02*
X0099409D01*
X0102700Y0915400D01*
X0125960D02*
X0129251Y0918691D01*
X0123200Y0909831D02*
Y0915400D01*
X0102700D02*
X0123200D01*
X0125960D01*
X0119948Y0903902D02*
X0125548D01*
X0127550Y0901900D01*
X0114968Y0884400D02*
X0115968D01*
X0112074Y0314400D02*
Y0329975D01*
X0111649Y0330400D02*
X0112074Y0329975D01*
X0107909Y0330400D02*
X0111649D01*
X0112074Y0287616D02*
Y0314400D01*
X0095653Y0271195D02*
X0112074Y0287616D01*
X0159669Y0264699D02*
Y0271195D01*
X0152661Y0257691D02*
X0159669Y0264699D01*
X0095653D02*
Y0271195D01*
Y0264699D02*
X0102661Y0257691D01*
X0159669Y0271195D02*
Y0307160D01*
X0096491Y0314565D02*
Y0330400D01*
X0096326Y0314400D02*
X0096491Y0314565D01*
Y0330400D02*
Y0378109D01*
X0102200Y0374762D02*
Y0378400D01*
X0101200Y0379400D02*
X0102200Y0378400D01*
X0309200Y0253400D02*
X0314200Y0248400D01*
X0094200Y0478400D02*
Y0493538D01*
Y0728400D02*
Y0743538D01*
X0148700Y0571900D02*
Y0582900D01*
G54D60*
X0155541Y0392730D02*
X0155870D01*
X0154859D02*
X0155541D01*
X0155870Y0393059D02*
Y0393400D01*
Y0392730D02*
Y0393059D01*
X0151530Y0390070D02*
X0152200D01*
X0154859Y0392730D01*
X0155870Y0393400D02*
X0158200Y0395730D01*
X0159700Y0459827D02*
X0160050Y0459477D01*
X0159700Y0459827D02*
Y0465538D01*
X0161870Y0379730D02*
X0164541Y0382400D01*
X0142200Y0400070D02*
X0145530Y0403400D01*
X0116200Y0391400D02*
X0119838D01*
X0116602Y0879326D02*
X0118050D01*
X0116602D02*
Y0881648D01*
X0124200Y0731400D02*
Y0768400D01*
X0090700Y0794900D02*
Y0797400D01*
X0104005Y0909636D02*
Y0915205D01*
X0118050Y0879326D02*
X0118476Y0878900D01*
X0114968Y0881900D02*
X0116027D01*
X0111700Y0883400D02*
X0112200D01*
X0113700Y0881900D01*
X0112200Y0883400D02*
X0114968D01*
X0098200Y0897400D02*
Y0899250D01*
X0097550Y0899900D02*
X0098200Y0900550D01*
Y0903439D01*
X0118172Y0877428D02*
Y0877900D01*
X0210200Y0457400D02*
X0213370Y0460570D01*
X0150030Y0407070D02*
X0153030Y0410070D01*
X0154359Y0411400D01*
X0156200D01*
X0157700Y0373900D02*
X0158838Y0372762D01*
X0162200D01*
X0124200Y0731400D02*
X0141200Y0714400D01*
Y0590400D02*
X0148700Y0582900D01*
X0141200Y0590400D02*
Y0714400D01*
G54D61*
X0155541Y0392730D02*
X0155870Y0393059D01*
X0124562Y0391400D02*
X0128200D01*
X0159062Y0866400D02*
X0162700D01*
X0246062Y0905400D02*
X0249700D01*
X0086062Y0866262D02*
X0087700D01*
X0083200Y0863400D02*
X0086062Y0866262D01*
X0102200Y0370038D02*
X0106838D01*
X0108200Y0371400D01*
Y0375400D01*
X0118700Y0376152D02*
Y0381900D01*
X0143700Y0376152D02*
Y0381900D01*
X0219318Y0259640D02*
Y0263518D01*
X0224200Y0268400D02*
Y0274400D01*
X0219318Y0263518D02*
X0224200Y0268400D01*
X0163200Y0368038D02*
X0163838Y0367400D01*
X0165200D01*
X0146200Y0418400D02*
X0148043D01*
G54D62*
X0082700Y0822900D02*
Y0826400D01*
Y0818900D02*
Y0822900D01*
Y0826400D02*
X0083763Y0827463D01*
X0089385D01*
Y0816439D02*
X0096661D01*
X0104200Y0794900D02*
X0104740Y0795439D01*
X0106062Y0790038D02*
X0109200D01*
X0105200Y0790900D02*
X0106062Y0790038D01*
X0105200Y0790900D02*
Y0794900D01*
X0109200Y0794762D02*
Y0796400D01*
X0106314Y0796014D02*
Y0801085D01*
X0104740D02*
X0106314D01*
X0107889Y0797711D02*
X0109200Y0796400D01*
X0107889Y0797711D02*
Y0801085D01*
X0094562Y0790900D02*
Y0794900D01*
X0095291Y0795628D02*
Y0801085D01*
X0113338Y0790900D02*
X0113698D01*
X0127012Y0788581D02*
X0127271Y0788841D01*
X0099263Y0827463D02*
X0109464Y0837664D01*
Y0861715D01*
X0087877D02*
X0095291D01*
X0114750Y0790809D02*
X0114972D01*
X0117200Y0788581D01*
X0125511D01*
X0110200Y0794762D02*
X0114750D01*
X0114831D01*
X0114750Y0791094D02*
Y0794762D01*
G54D63*
X0113605Y0271707D02*
Y0274699D01*
Y0271707D02*
X0117621Y0267691D01*
X0129668Y0271707D02*
Y0274699D01*
X0125653Y0267691D02*
X0129668Y0271707D01*
G54D64*
X0227192Y0248666D02*
D03*
X0201208D02*
D03*
G54D65*
X0234200Y0563400D02*
D03*
X0194200Y0618400D02*
D03*
X0094200Y0568400D02*
D03*
X0284200Y0328400D02*
D03*
X0174200Y0488400D02*
D03*
X0214200Y0368400D02*
D03*
X0174200Y0358400D02*
D03*
X0184200D02*
D03*
X0154200Y0568400D02*
D03*
X0234200Y0288400D02*
D03*
X0224200D02*
D03*
X0214200D02*
D03*
X0204200D02*
D03*
X0214200Y0488400D02*
D03*
G54D66*
X0184200Y0588400D02*
D03*
X0214200Y0638400D02*
D03*
X0204200Y0588400D02*
D03*
G54D67*
X0184200Y0578400D02*
D03*
X0214200Y0628400D02*
D03*
X0204200Y0578400D02*
D03*
G54D68*
X0214200Y0528400D02*
D03*
X0204200Y0538400D02*
D03*
Y0528400D02*
D03*
X0184200D02*
D03*
X0174200Y0538400D02*
D03*
Y0528400D02*
D03*
G54D69*
X0214200Y0538400D02*
D03*
X0184200D02*
D03*
G54D70*
X0079200Y0918400D02*
D03*
X0309200D02*
D03*
G54D71*
X0154200Y0688400D02*
D03*
G54D72*
Y0698400D02*
D03*
X0164200Y0688400D02*
D03*
Y0698400D02*
D03*
X0174200Y0688400D02*
D03*
Y0698400D02*
D03*
X0184200Y0688400D02*
D03*
Y0698400D02*
D03*
X0194200Y0688400D02*
D03*
Y0698400D02*
D03*
X0304200Y0318400D02*
D03*
X0314200D02*
D03*
X0304200Y0308400D02*
D03*
X0314200D02*
D03*
X0304200Y0298400D02*
D03*
X0314200D02*
D03*
X0304200Y0288400D02*
D03*
X0314200D02*
D03*
X0304200Y0278400D02*
D03*
X0314200D02*
D03*
X0304200Y0268400D02*
D03*
X0314200D02*
D03*
X0304200Y0258400D02*
D03*
X0314200D02*
D03*
X0304200Y0248400D02*
D03*
X0314200D02*
D03*
X0304200Y0398400D02*
D03*
X0314200D02*
D03*
X0304200Y0388400D02*
D03*
X0314200D02*
D03*
X0304200Y0378400D02*
D03*
X0314200D02*
D03*
X0304200Y0368400D02*
D03*
X0314200D02*
D03*
X0304200Y0358400D02*
D03*
X0314200D02*
D03*
X0304200Y0348400D02*
D03*
X0314200D02*
D03*
X0304200Y0338400D02*
D03*
X0314200D02*
D03*
X0304200Y0328400D02*
D03*
X0314200D02*
D03*
X0304200Y0478400D02*
D03*
X0314200D02*
D03*
X0304200Y0468400D02*
D03*
X0314200D02*
D03*
X0304200Y0458400D02*
D03*
X0314200D02*
D03*
X0304200Y0448400D02*
D03*
X0314200D02*
D03*
X0304200Y0438400D02*
D03*
X0314200D02*
D03*
X0304200Y0428400D02*
D03*
X0314200D02*
D03*
X0304200Y0418400D02*
D03*
X0314200D02*
D03*
X0304200Y0408400D02*
D03*
X0314200D02*
D03*
Y0728400D02*
D03*
X0304200Y0718400D02*
D03*
X0314200D02*
D03*
X0304200Y0708400D02*
D03*
X0314200D02*
D03*
X0304200Y0698400D02*
D03*
X0314200D02*
D03*
X0304200Y0688400D02*
D03*
X0314200D02*
D03*
X0304200Y0678400D02*
D03*
X0314200D02*
D03*
X0304200Y0668400D02*
D03*
X0314200D02*
D03*
X0304200Y0658400D02*
D03*
X0314200D02*
D03*
X0304200Y0648400D02*
D03*
X0314200D02*
D03*
X0304200Y0638400D02*
D03*
X0314200D02*
D03*
X0304200Y0628400D02*
D03*
X0314200D02*
D03*
X0304200Y0618400D02*
D03*
X0314200D02*
D03*
X0304200Y0608400D02*
D03*
X0314200D02*
D03*
X0304200Y0598400D02*
D03*
X0314200D02*
D03*
X0304200Y0588400D02*
D03*
X0314200D02*
D03*
X0304200Y0578400D02*
D03*
X0314200D02*
D03*
X0304200Y0568400D02*
D03*
X0314200D02*
D03*
X0304200Y0558400D02*
D03*
X0314200D02*
D03*
X0304200Y0548400D02*
D03*
X0314200D02*
D03*
X0304200Y0538400D02*
D03*
X0314200D02*
D03*
X0304200Y0528400D02*
D03*
X0314200D02*
D03*
X0304200Y0518400D02*
D03*
X0314200D02*
D03*
X0304200Y0508400D02*
D03*
X0314200D02*
D03*
Y0498400D02*
D03*
X0304200D02*
D03*
X0314200Y0488400D02*
D03*
X0304200D02*
D03*
X0204200Y0778400D02*
D03*
X0194200D02*
D03*
X0184200D02*
D03*
X0174200D02*
D03*
X0164200D02*
D03*
X0154200D02*
D03*
X0144200D02*
D03*
X0134200D02*
D03*
X0124200D02*
D03*
X0114200D02*
D03*
X0204200Y0768400D02*
D03*
X0194200D02*
D03*
X0184200D02*
D03*
X0174200D02*
D03*
X0164200D02*
D03*
X0154200D02*
D03*
X0144200D02*
D03*
X0134200D02*
D03*
X0124200D02*
D03*
X0104200Y0388400D02*
D03*
Y0398400D02*
D03*
Y0408400D02*
D03*
Y0418400D02*
D03*
Y0428400D02*
D03*
Y0438400D02*
D03*
Y0448400D02*
D03*
Y0458400D02*
D03*
Y0468400D02*
D03*
Y0478400D02*
D03*
X0094200Y0388400D02*
D03*
Y0398400D02*
D03*
Y0408400D02*
D03*
Y0418400D02*
D03*
Y0428400D02*
D03*
Y0438400D02*
D03*
Y0448400D02*
D03*
Y0458400D02*
D03*
Y0468400D02*
D03*
X0274200Y0638400D02*
D03*
Y0648400D02*
D03*
Y0658400D02*
D03*
Y0668400D02*
D03*
Y0678400D02*
D03*
Y0688400D02*
D03*
Y0698400D02*
D03*
Y0708400D02*
D03*
Y0718400D02*
D03*
Y0728400D02*
D03*
X0264200Y0638400D02*
D03*
Y0648400D02*
D03*
Y0658400D02*
D03*
Y0668400D02*
D03*
Y0678400D02*
D03*
Y0688400D02*
D03*
Y0698400D02*
D03*
Y0708400D02*
D03*
Y0718400D02*
D03*
Y0728400D02*
D03*
X0104200Y0638400D02*
D03*
Y0648400D02*
D03*
Y0658400D02*
D03*
Y0668400D02*
D03*
Y0678400D02*
D03*
Y0688400D02*
D03*
Y0698400D02*
D03*
Y0708400D02*
D03*
Y0718400D02*
D03*
Y0728400D02*
D03*
X0094200Y0638400D02*
D03*
Y0648400D02*
D03*
Y0658400D02*
D03*
Y0668400D02*
D03*
Y0678400D02*
D03*
Y0688400D02*
D03*
Y0698400D02*
D03*
Y0708400D02*
D03*
Y0718400D02*
D03*
X0274200Y0388400D02*
D03*
Y0398400D02*
D03*
Y0408400D02*
D03*
Y0418400D02*
D03*
Y0428400D02*
D03*
Y0438400D02*
D03*
Y0448400D02*
D03*
Y0458400D02*
D03*
Y0468400D02*
D03*
Y0478400D02*
D03*
X0264200Y0388400D02*
D03*
Y0398400D02*
D03*
Y0408400D02*
D03*
Y0418400D02*
D03*
Y0428400D02*
D03*
Y0438400D02*
D03*
Y0448400D02*
D03*
Y0458400D02*
D03*
Y0468400D02*
D03*
Y0478400D02*
D03*
G54D73*
X0222960Y0260920D02*
D03*
X0205440D02*
D03*
G54D74*
X0230293Y0248617D02*
D03*
X0198108D02*
D03*
G54D75*
X0121637Y0274699D02*
D03*
X0141716Y0267691D02*
D03*
X0137700Y0274699D02*
D03*
X0129668D02*
D03*
X0133684Y0267691D02*
D03*
X0125653D02*
D03*
X0113605Y0274699D02*
D03*
X0117621Y0267691D02*
D03*
G54D76*
X0102661Y0257691D02*
D03*
X0152661D02*
D03*
G54D77*
X0095653Y0271195D02*
D03*
X0159669D02*
D03*
G54D78*
X0134200Y0528400D02*
D03*
X0274200Y0598400D02*
D03*
X0094200D02*
D03*
G54D79*
X0134200Y0538400D02*
D03*
X0144200Y0528400D02*
D03*
Y0538400D02*
D03*
X0154200Y0528400D02*
D03*
Y0538400D02*
D03*
X0274200Y0608400D02*
D03*
Y0618400D02*
D03*
X0094200D02*
D03*
Y0608400D02*
D03*
G54D80*
X0129251Y0918691D02*
D03*
X0098149D02*
D03*
G54D81*
X0304200Y0728400D02*
D03*
X0114200Y0768400D02*
D03*
G54D82*
X0094200Y0478400D02*
D03*
Y0728400D02*
D03*
G54D83*
X0083200Y0871900D02*
D03*
X0087200Y0901900D02*
D03*
X0079200D02*
D03*
G54D84*
X0231200Y0405900D02*
D03*
X0241700Y0400900D02*
D03*
X0249700Y0407400D02*
D03*
X0241700Y0393400D02*
D03*
X0264700Y0606400D02*
D03*
X0294700Y0598400D02*
D03*
X0295700Y0582900D02*
D03*
X0291700Y0583400D02*
D03*
X0277200Y0585900D02*
D03*
X0101700Y0614900D02*
D03*
Y0610900D02*
D03*
X0171200Y0447900D02*
D03*
X0178200Y0450400D02*
D03*
X0291700Y0432900D02*
D03*
X0163200Y0625900D02*
D03*
X0165700Y0636400D02*
D03*
X0168200Y0639900D02*
D03*
X0170700Y0644400D02*
D03*
X0239700Y0710900D02*
D03*
X0174200Y0477900D02*
D03*
X0204700Y0520900D02*
D03*
X0250700Y0498400D02*
D03*
X0177200Y0480900D02*
D03*
X0133700Y0475400D02*
D03*
X0182700Y0417900D02*
D03*
X0141200Y0428900D02*
D03*
X0160700Y0425900D02*
D03*
X0164700D02*
D03*
X0157200Y0426900D02*
D03*
X0153700Y0432900D02*
D03*
X0172200Y0435900D02*
D03*
X0175700Y0436900D02*
D03*
X0163700Y0444900D02*
D03*
X0167200D02*
D03*
X0159700Y0444400D02*
D03*
X0167200Y0448400D02*
D03*
X0185200Y0420400D02*
D03*
X0211200Y0424900D02*
D03*
X0202200Y0430400D02*
D03*
X0167700Y0577900D02*
D03*
X0168700Y0584900D02*
D03*
X0169700Y0590400D02*
D03*
X0166700Y0512400D02*
D03*
X0139700Y0493900D02*
D03*
X0192200Y0515900D02*
D03*
X0239200Y0581900D02*
D03*
X0294700Y0554400D02*
D03*
X0283700Y0452900D02*
D03*
Y0442400D02*
D03*
X0291700Y0473400D02*
D03*
X0290200Y0402400D02*
D03*
X0294700Y0453400D02*
D03*
X0289200Y0406400D02*
D03*
X0236200Y0590400D02*
D03*
X0223200Y0640400D02*
D03*
X0199200Y0470900D02*
D03*
X0267200Y0338400D02*
D03*
X0159700Y0460400D02*
D03*
X0291200Y0745400D02*
D03*
X0291700Y0768900D02*
D03*
X0283200Y0760900D02*
D03*
X0286700Y0768900D02*
D03*
X0291700Y0760900D02*
D03*
X0189200Y0679900D02*
D03*
X0134200Y0621400D02*
D03*
X0294700Y0620900D02*
D03*
X0228700Y0808400D02*
D03*
X0089700Y0744400D02*
D03*
X0129200D02*
D03*
X0181700Y0567400D02*
D03*
X0205700Y0565900D02*
D03*
X0112200Y0439900D02*
D03*
Y0443400D02*
D03*
X0109700Y0470900D02*
D03*
X0167700Y0488400D02*
D03*
X0231400Y0469953D02*
D03*
X0227200Y0467400D02*
D03*
X0178358Y0460400D02*
D03*
X0184700Y0444400D02*
D03*
X0207700Y0395900D02*
D03*
X0201700Y0394400D02*
D03*
X0196900Y0395400D02*
D03*
X0259700Y0385400D02*
D03*
X0225200Y0388900D02*
D03*
X0244700Y0471400D02*
D03*
Y0479900D02*
D03*
X0246800Y0455000D02*
D03*
X0245700Y0458400D02*
D03*
X0244700Y0463900D02*
D03*
X0232200Y0451400D02*
D03*
X0234700Y0428400D02*
D03*
X0232200Y0424300D02*
D03*
X0259700Y0421400D02*
D03*
X0281700Y0390900D02*
D03*
X0279700Y0383900D02*
D03*
X0296200Y0386400D02*
D03*
X0296700Y0396400D02*
D03*
X0172700Y0408900D02*
D03*
X0176200Y0405400D02*
D03*
X0180200D02*
D03*
X0180400Y0401900D02*
D03*
X0182700Y0378400D02*
D03*
X0180700Y0363900D02*
D03*
X0197700Y0353400D02*
D03*
X0311200Y0493400D02*
D03*
X0295200Y0354900D02*
D03*
X0310200Y0353400D02*
D03*
X0309200Y0413400D02*
D03*
X0308200Y0373400D02*
D03*
X0259200Y0374400D02*
D03*
X0263700Y0358400D02*
D03*
X0270200Y0351400D02*
D03*
X0169200Y0378400D02*
D03*
X0161768Y0405833D02*
D03*
X0164541Y0382400D02*
D03*
X0158200Y0395730D02*
D03*
X0142200Y0400070D02*
D03*
X0128200Y0391400D02*
D03*
X0116200D02*
D03*
X0220200Y0800400D02*
D03*
Y0748400D02*
D03*
X0241200Y0751900D02*
D03*
X0218200Y0742900D02*
D03*
X0091200Y0797900D02*
D03*
X0139200Y0901900D02*
D03*
X0104700Y0856203D02*
D03*
X0145759Y0867900D02*
D03*
X0226200Y0737900D02*
D03*
X0209200Y0748400D02*
D03*
X0246200Y0805900D02*
D03*
X0213200Y0798400D02*
D03*
X0120700Y0856203D02*
D03*
X0099200Y0853900D02*
D03*
X0149700Y0801900D02*
D03*
X0084200Y0815400D02*
D03*
X0092200Y0882400D02*
D03*
Y0896400D02*
D03*
X0093200Y0902400D02*
D03*
X0132200Y0894900D02*
D03*
X0166200Y0818900D02*
D03*
X0238700Y0808400D02*
D03*
X0204200Y0923900D02*
D03*
X0181200Y0923400D02*
D03*
X0155875Y0923597D02*
D03*
X0274200Y0923400D02*
D03*
X0293700Y0902522D02*
D03*
X0296700Y0873400D02*
D03*
Y0833400D02*
D03*
X0296200Y0803400D02*
D03*
X0288200D02*
D03*
X0193200Y0788900D02*
D03*
X0174700D02*
D03*
X0167700Y0802900D02*
D03*
X0280700Y0776900D02*
D03*
X0257200D02*
D03*
X0230700Y0858900D02*
D03*
X0130200Y0908900D02*
D03*
X0127700Y0895400D02*
D03*
X0104200Y0885400D02*
D03*
X0129200Y0874900D02*
D03*
X0075200Y0788400D02*
D03*
X0073200Y0908400D02*
D03*
X0231700Y0923900D02*
D03*
X0137200Y0908900D02*
D03*
X0149200Y0884400D02*
D03*
X0156700Y0873900D02*
D03*
X0251700Y0898400D02*
D03*
X0137700Y0923400D02*
D03*
X0121200Y0831400D02*
D03*
X0156700Y0888400D02*
D03*
X0192700Y0903900D02*
D03*
X0218200Y0904400D02*
D03*
X0229700Y0900400D02*
D03*
X0174200Y0903900D02*
D03*
X0175700Y0843400D02*
D03*
X0176200Y0815900D02*
D03*
X0177200Y0798400D02*
D03*
X0199200Y0798900D02*
D03*
X0090700Y0918400D02*
D03*
X0122200Y0785400D02*
D03*
X0135200D02*
D03*
X0130700Y0791400D02*
D03*
X0149700Y0785900D02*
D03*
X0096491Y0378109D02*
D03*
X0101200Y0379400D02*
D03*
X0108200Y0375400D02*
D03*
X0118700Y0381900D02*
D03*
X0143700D02*
D03*
X0213200Y0269400D02*
D03*
X0221200Y0269400D02*
D03*
X0214200Y0280400D02*
D03*
X0211200Y0277400D02*
D03*
X0224200Y0274400D02*
D03*
X0188200Y0385400D02*
D03*
X0189200Y0390400D02*
D03*
X0193200Y0377400D02*
D03*
X0201562Y0371038D02*
D03*
X0202200Y0385400D02*
D03*
X0215200Y0396400D02*
D03*
X0207200Y0406400D02*
D03*
X0211200D02*
D03*
Y0410400D02*
D03*
X0214200Y0413400D02*
D03*
X0225200Y0396400D02*
D03*
X0203200Y0304400D02*
D03*
Y0300400D02*
D03*
X0209200Y0299400D02*
D03*
X0206200Y0295400D02*
D03*
X0230200Y0278400D02*
D03*
X0236200D02*
D03*
X0294200Y0271400D02*
D03*
X0232200Y0294400D02*
D03*
X0222200Y0298400D02*
D03*
X0226200Y0299400D02*
D03*
X0223200Y0343400D02*
D03*
X0232200Y0352400D02*
D03*
X0111200Y0387400D02*
D03*
X0190200Y0267400D02*
D03*
X0165200Y0367400D02*
D03*
X0173200Y0389400D02*
D03*
X0176200Y0378400D02*
D03*
Y0348400D02*
D03*
X0210052Y0443400D02*
D03*
X0226200Y0345400D02*
D03*
X0296200Y0343400D02*
D03*
X0295153Y0333447D02*
D03*
X0246200Y0295400D02*
D03*
X0186200Y0319400D02*
D03*
X0176200Y0366400D02*
D03*
X0179200Y0331400D02*
D03*
X0183200Y0338400D02*
D03*
X0181200Y0373400D02*
D03*
X0295200Y0309400D02*
D03*
X0275200Y0355400D02*
D03*
Y0374400D02*
D03*
X0269200Y0423400D02*
D03*
X0277200Y0313400D02*
D03*
X0281200Y0319400D02*
D03*
X0186200Y0335400D02*
D03*
X0259200Y0342400D02*
D03*
X0296700Y0468400D02*
D03*
X0259450Y0403400D02*
D03*
X0301200Y0443400D02*
D03*
X0223700Y0449900D02*
D03*
Y0446400D02*
D03*
X0216200Y0451900D02*
D03*
X0220200Y0472900D02*
D03*
X0210200Y0457400D02*
D03*
X0207700Y0460400D02*
D03*
X0208700Y0480400D02*
D03*
X0214200Y0478900D02*
D03*
X0202700Y0465600D02*
D03*
X0291200Y0373400D02*
D03*
X0256700Y0377400D02*
D03*
X0254700Y0397900D02*
D03*
X0258700Y0409400D02*
D03*
X0252200Y0438900D02*
D03*
X0189700Y0409400D02*
D03*
Y0412900D02*
D03*
X0194200Y0412400D02*
D03*
X0187700Y0402900D02*
D03*
X0167123Y0415400D02*
D03*
X0167200Y0418900D02*
D03*
X0163700Y0419400D02*
D03*
X0285700Y0417400D02*
D03*
X0279200Y0413400D02*
D03*
X0279700Y0405400D02*
D03*
X0229200Y0415900D02*
D03*
X0246700Y0426900D02*
D03*
X0203700Y0419400D02*
D03*
X0247700Y0423400D02*
D03*
X0172200Y0416900D02*
D03*
X0175600Y0417100D02*
D03*
X0180700Y0422900D02*
D03*
X0181700Y0426400D02*
D03*
X0186700Y0426900D02*
D03*
X0199700Y0418900D02*
D03*
X0258200Y0436900D02*
D03*
X0214200Y0435400D02*
D03*
X0188200Y0433900D02*
D03*
X0193200Y0436400D02*
D03*
X0257200Y0441900D02*
D03*
Y0447900D02*
D03*
X0252200Y0462400D02*
D03*
X0260200Y0432900D02*
D03*
X0195700Y0441900D02*
D03*
X0198700Y0439900D02*
D03*
X0201700Y0450900D02*
D03*
X0204200Y0447900D02*
D03*
X0189200Y0455900D02*
D03*
X0192200Y0458400D02*
D03*
X0187200Y0458900D02*
D03*
X0187700Y0464900D02*
D03*
X0188700Y0450900D02*
D03*
X0181200Y0466400D02*
D03*
X0178700Y0463900D02*
D03*
X0174700Y0458977D02*
D03*
X0154200Y0438400D02*
D03*
X0157200Y0435900D02*
D03*
X0150200Y0434900D02*
D03*
X0156200Y0460900D02*
D03*
X0171700Y0472900D02*
D03*
X0187200Y0479400D02*
D03*
X0146200Y0418400D02*
D03*
X0142700Y0416900D02*
D03*
X0158700Y0408900D02*
D03*
X0156200Y0411400D02*
D03*
X0146200Y0413400D02*
D03*
X0143200Y0406400D02*
D03*
X0113200Y0436400D02*
D03*
X0108950Y0393400D02*
D03*
X0132700Y0391400D02*
D03*
X0136700Y0391900D02*
D03*
X0118700Y0395900D02*
D03*
X0127700Y0397400D02*
D03*
X0118700Y0425400D02*
D03*
X0121200Y0404900D02*
D03*
X0123700Y0430400D02*
D03*
Y0396400D02*
D03*
X0136200Y0400200D02*
D03*
X0138200Y0405400D02*
D03*
X0128200Y0407400D02*
D03*
X0130200Y0410400D02*
D03*
Y0413900D02*
D03*
X0129400Y0417400D02*
D03*
X0132800Y0433400D02*
D03*
X0135200Y0422900D02*
D03*
X0145700Y0445900D02*
D03*
X0133700Y0468900D02*
D03*
X0141200Y0422900D02*
D03*
X0099200Y0383400D02*
D03*
X0157700Y0373900D02*
D03*
X0126400Y0468400D02*
D03*
X0307700Y0473400D02*
D03*
X0264200Y0489400D02*
D03*
X0282700Y0492900D02*
D03*
X0182200Y0484400D02*
D03*
X0207700Y0497900D02*
D03*
X0163200Y0504900D02*
D03*
X0166700Y0508400D02*
D03*
X0177200Y0503400D02*
D03*
X0265700Y0498400D02*
D03*
X0231200Y0506400D02*
D03*
X0259200Y0507900D02*
D03*
X0277700Y0508900D02*
D03*
X0283200Y0502900D02*
D03*
X0299700Y0514400D02*
D03*
X0257200Y0513900D02*
D03*
X0224700Y0513400D02*
D03*
X0221700Y0525900D02*
D03*
Y0521900D02*
D03*
X0238700Y0514900D02*
D03*
X0252200Y0518400D02*
D03*
X0257200Y0520900D02*
D03*
X0309200Y0523900D02*
D03*
Y0622400D02*
D03*
X0298200Y0523400D02*
D03*
X0300700Y0613400D02*
D03*
X0272200Y0528400D02*
D03*
X0268700Y0522400D02*
D03*
X0273700Y0531900D02*
D03*
X0279200Y0525900D02*
D03*
X0193200Y0548900D02*
D03*
X0194700Y0531400D02*
D03*
X0194200Y0536400D02*
D03*
X0131200Y0501400D02*
D03*
X0094200Y0503400D02*
D03*
X0104200D02*
D03*
X0109200Y0546400D02*
D03*
X0113200Y0522400D02*
D03*
X0129700Y0512400D02*
D03*
X0140200Y0544900D02*
D03*
X0144700Y0563900D02*
D03*
X0141700Y0567400D02*
D03*
X0137200Y0563900D02*
D03*
Y0570400D02*
D03*
X0149491Y0548109D02*
D03*
X0148200Y0544400D02*
D03*
X0145700Y0567900D02*
D03*
X0156700Y0547400D02*
D03*
X0193200Y0554400D02*
D03*
X0195700Y0589900D02*
D03*
X0179200Y0573400D02*
D03*
X0106700Y0612400D02*
D03*
X0107700Y0615900D02*
D03*
X0113200Y0648900D02*
D03*
X0111700Y0619900D02*
D03*
X0115700Y0702900D02*
D03*
X0113700Y0708400D02*
D03*
X0119700Y0629900D02*
D03*
X0120700Y0633400D02*
D03*
X0118200Y0682400D02*
D03*
X0121700Y0639400D02*
D03*
Y0669900D02*
D03*
Y0673400D02*
D03*
X0104200Y0752900D02*
D03*
X0094200D02*
D03*
X0127700Y0604900D02*
D03*
X0275200Y0537900D02*
D03*
X0279700Y0548400D02*
D03*
X0283200Y0568400D02*
D03*
X0273200Y0554400D02*
D03*
X0259700Y0552900D02*
D03*
X0244700Y0530900D02*
D03*
X0242200Y0527400D02*
D03*
X0239200Y0555400D02*
D03*
X0243200Y0556900D02*
D03*
X0235700Y0538400D02*
D03*
X0245700D02*
D03*
X0216200Y0547900D02*
D03*
X0219700Y0553900D02*
D03*
X0283200Y0578400D02*
D03*
X0254700D02*
D03*
X0262200Y0588400D02*
D03*
X0281200Y0687900D02*
D03*
X0282200Y0691900D02*
D03*
X0259700Y0613400D02*
D03*
X0204200Y0550900D02*
D03*
X0160700Y0618400D02*
D03*
X0184200Y0563400D02*
D03*
X0154700Y0588400D02*
D03*
X0203200Y0621400D02*
D03*
X0187700Y0603900D02*
D03*
X0126200Y0515400D02*
D03*
X0096700Y0517400D02*
D03*
X0099700Y0520400D02*
D03*
X0210200Y0603400D02*
D03*
X0252200Y0607400D02*
D03*
X0230200Y0595900D02*
D03*
X0253200D02*
D03*
X0201700Y0553400D02*
D03*
X0160700Y0631400D02*
D03*
X0246200Y0606900D02*
D03*
X0247200Y0611900D02*
D03*
X0244200Y0632400D02*
D03*
Y0646900D02*
D03*
X0239200Y0640400D02*
D03*
X0236700Y0645900D02*
D03*
X0299200Y0693400D02*
D03*
X0293700Y0710900D02*
D03*
X0297200Y0706900D02*
D03*
X0291200Y0708400D02*
D03*
X0295700Y0696900D02*
D03*
X0308200Y0701900D02*
D03*
X0310200Y0704900D02*
D03*
X0295700Y0700400D02*
D03*
X0258700Y0711900D02*
D03*
X0168200Y0667400D02*
D03*
X0194200Y0541400D02*
D03*
X0188700Y0624900D02*
D03*
X0203200Y0664900D02*
D03*
X0235700Y0909400D02*
D03*
X0195700Y0569900D02*
D03*
X0176200Y0569900D02*
D03*
X0171200Y0662400D02*
D03*
X0287200Y0257400D02*
D03*
X0279200Y0268400D02*
D03*
Y0278400D02*
D03*
X0282700Y0258400D02*
D03*
X0260700Y0263400D02*
D03*
X0281700Y0254400D02*
D03*
X0250200Y0250400D02*
D03*
X0305700Y0766900D02*
D03*
Y0739900D02*
D03*
X0082700Y0766900D02*
D03*
X0082200Y0739400D02*
D03*
X0236700Y0667400D02*
D03*
X0193700Y0304900D02*
D03*
X0214200Y0738900D02*
D03*
X0184200Y0755400D02*
D03*
X0196200D02*
D03*
X0201200Y0760400D02*
D03*
X0154200Y0758400D02*
D03*
X0250700Y0688400D02*
D03*
X0236700Y0696400D02*
D03*
X0237200Y0731900D02*
D03*
X0236200Y0752400D02*
D03*
X0293200Y0590400D02*
D03*
X0245700Y0476400D02*
D03*
X0248200Y0489400D02*
D03*
X0252200Y0466400D02*
D03*
X0253200Y0586900D02*
D03*
X0173700Y0679400D02*
D03*
X0137700Y0636900D02*
D03*
X0134200Y0634600D02*
D03*
X0131200Y0576400D02*
D03*
X0149200Y0588400D02*
D03*
X0151700Y0676900D02*
D03*
X0138700Y0515900D02*
D03*
X0130200Y0579900D02*
D03*
X0155200Y0599900D02*
D03*
X0186700Y0670900D02*
D03*
X0181700Y0673900D02*
D03*
X0296700Y0663900D02*
D03*
X0291700Y0661900D02*
D03*
X0189200Y0651400D02*
D03*
X0194200Y0651900D02*
D03*
X0149200Y0673900D02*
D03*
X0131200D02*
D03*
X0177700D02*
D03*
X0144700Y0679400D02*
D03*
X0184200Y0681900D02*
D03*
X0136700D02*
D03*
X0164200Y0755400D02*
D03*
X0176700Y0726900D02*
D03*
X0181700D02*
D03*
X0158971Y0840089D02*
D03*
X0158700Y0815400D02*
D03*
G54D85*
X0249700Y0905400D02*
D03*
X0254700Y0911400D02*
D03*
X0072200Y0817900D02*
D03*
Y0846400D02*
D03*
Y0872400D02*
D03*
Y0897400D02*
D03*
X0079200Y0828900D02*
D03*
X0127901Y0891400D02*
D03*
X0116200Y0888400D02*
D03*
X0111700Y0883400D02*
D03*
X0113700Y0881900D02*
D03*
X0118200Y0892900D02*
D03*
X0120840Y0894634D02*
D03*
X0120583Y0898400D02*
D03*
X0102700Y0890900D02*
D03*
X0078700Y0815900D02*
D03*
X0094200Y0831400D02*
D03*
X0096700Y0816400D02*
D03*
X0086700Y0790900D02*
D03*
X0099700Y0787400D02*
D03*
X0109200Y0807900D02*
D03*
X0120700D02*
D03*
X0122200Y0792900D02*
D03*
X0109253Y0785900D02*
D03*
X0097700Y0830400D02*
D03*
X0079200Y0832400D02*
D03*
X0079700Y0839400D02*
D03*
Y0842400D02*
D03*
X0083200Y0863400D02*
D03*
X0092200Y0870900D02*
D03*
X0080200Y0876900D02*
D03*
X0085700Y0882400D02*
D03*
X0080700Y0886900D02*
D03*
Y0896900D02*
D03*
Y0881900D02*
D03*
X0085700Y0886900D02*
D03*
Y0896900D02*
D03*
X0080700Y0891900D02*
D03*
X0086200Y0876400D02*
D03*
X0079200Y0848400D02*
D03*
X0122200Y0865900D02*
D03*
X0143700Y0853400D02*
D03*
X0142200Y0845900D02*
D03*
X0142700Y0830400D02*
D03*
X0154700Y0828400D02*
D03*
X0160200Y0826400D02*
D03*
X0166200Y0835400D02*
D03*
X0166700Y0858400D02*
D03*
Y0854900D02*
D03*
Y0844400D02*
D03*
Y0851400D02*
D03*
X0142200Y0841400D02*
D03*
X0144200Y0873900D02*
D03*
X0125700Y0867900D02*
D03*
X0113700Y0892400D02*
D03*
X0136700Y0886900D02*
D03*
X0162700Y0866400D02*
D03*
X0118700Y0867400D02*
D03*
X0139700Y0791400D02*
D03*
X0145700Y0790900D02*
D03*
X0118200Y0805900D02*
D03*
X0221700Y0784400D02*
D03*
X0241200Y0768400D02*
D03*
X0231200Y0778900D02*
D03*
X0213200Y0787400D02*
D03*
X0142700Y0856203D02*
D03*
X0110200Y0891400D02*
D03*
X0202200Y0793400D02*
D03*
X0106200Y0890900D02*
D03*
X0116700Y0901900D02*
D03*
X0110700Y0902900D02*
D03*
X0113700D02*
D03*
X0113969Y0884293D02*
D03*
X0107700Y0899400D02*
D03*
X0098200Y0897400D02*
D03*
Y0903439D02*
D03*
X0246200Y0778900D02*
D03*
X0241200D02*
D03*
X0175200Y0866400D02*
D03*
X0179700Y0890400D02*
D03*
X0202700Y0891900D02*
D03*
X0229700Y0891400D02*
D03*
X0188200Y0815900D02*
D03*
X0122700Y0872900D02*
D03*
X0121200Y0870900D02*
D03*
X0166700Y0847900D02*
D03*
G54D86*
X0146440Y0554900D02*
D03*
X0138960D02*
D03*
X0142700Y0557164D02*
D03*
Y0552636D02*
D03*
X0119436Y0885900D02*
D03*
X0123964D02*
D03*
X0121700Y0889640D02*
D03*
Y0882160D02*
D03*
M02*
