G04 Layer_Color=16711935*
%FSAX25Y25*%
%MOIN*%
G70*
G01*
G75*
%ADD54C,0.01000*%
%ADD58C,0.00800*%
%ADD62C,0.00700*%
%ADD93C,0.00500*%
G36*
X1335950Y0209825D02*
Y0209725D01*
Y0209625D01*
X1335750D01*
Y0209525D01*
X1335650D01*
Y0209425D01*
X1335550D01*
Y0209325D01*
X1335450D01*
Y0209225D01*
X1335350D01*
Y0209125D01*
Y0209025D01*
Y0208925D01*
Y0208825D01*
X1335250D01*
Y0208725D01*
Y0208625D01*
Y0208525D01*
Y0208425D01*
Y0208325D01*
Y0208225D01*
Y0208125D01*
Y0208025D01*
Y0207925D01*
Y0207825D01*
Y0207725D01*
Y0207625D01*
Y0207525D01*
Y0207425D01*
Y0207325D01*
Y0207225D01*
Y0207125D01*
Y0207025D01*
Y0206925D01*
Y0206825D01*
Y0206725D01*
Y0206625D01*
Y0206525D01*
Y0206425D01*
Y0206325D01*
Y0206225D01*
Y0206125D01*
Y0206025D01*
Y0205925D01*
Y0205825D01*
Y0205725D01*
Y0205625D01*
Y0205525D01*
Y0205425D01*
Y0205325D01*
Y0205225D01*
Y0205125D01*
Y0205025D01*
Y0204925D01*
Y0204825D01*
Y0204725D01*
Y0204625D01*
Y0204525D01*
Y0204425D01*
Y0204325D01*
Y0204225D01*
Y0204125D01*
Y0204025D01*
Y0203925D01*
Y0203825D01*
Y0203725D01*
Y0203625D01*
Y0203525D01*
Y0203425D01*
Y0203325D01*
Y0203225D01*
Y0203125D01*
Y0203025D01*
Y0202925D01*
Y0202825D01*
Y0202725D01*
Y0202625D01*
Y0202525D01*
Y0202425D01*
Y0202325D01*
Y0202225D01*
Y0202125D01*
Y0202025D01*
Y0201925D01*
X1334950D01*
Y0202025D01*
X1334850D01*
Y0202125D01*
Y0202225D01*
X1334750D01*
Y0202325D01*
X1334650D01*
Y0202425D01*
X1334550D01*
Y0202525D01*
X1334450D01*
Y0202625D01*
X1334350D01*
Y0202725D01*
X1334250D01*
Y0202825D01*
X1334150D01*
Y0202925D01*
Y0203025D01*
X1334050D01*
Y0203125D01*
X1333950D01*
Y0203225D01*
X1333850D01*
Y0203325D01*
X1333750D01*
Y0203425D01*
X1333650D01*
Y0203525D01*
X1333550D01*
Y0203625D01*
X1333450D01*
Y0203725D01*
Y0203825D01*
X1333350D01*
Y0203925D01*
X1333250D01*
Y0204025D01*
X1333150D01*
Y0204125D01*
X1333050D01*
Y0204225D01*
X1332950D01*
Y0204325D01*
X1332850D01*
Y0204425D01*
X1332750D01*
Y0204525D01*
Y0204625D01*
X1332650D01*
Y0204725D01*
X1332550D01*
Y0204825D01*
X1332450D01*
Y0204925D01*
X1332350D01*
Y0205025D01*
X1332250D01*
Y0205125D01*
X1332150D01*
Y0205225D01*
X1332050D01*
Y0205325D01*
Y0205425D01*
X1331950D01*
Y0205525D01*
X1331850D01*
Y0205625D01*
X1331750D01*
Y0205725D01*
X1331650D01*
Y0205825D01*
X1331550D01*
Y0205925D01*
X1331450D01*
Y0206025D01*
X1331350D01*
Y0206125D01*
Y0206225D01*
X1331250D01*
Y0206325D01*
X1331150D01*
Y0206425D01*
X1331050D01*
Y0206525D01*
X1330950D01*
Y0206625D01*
X1330850D01*
Y0206725D01*
X1330750D01*
Y0206825D01*
X1330650D01*
Y0206925D01*
Y0207025D01*
X1330550D01*
Y0207125D01*
X1330450D01*
Y0207225D01*
X1330350D01*
Y0207325D01*
X1330250D01*
Y0207425D01*
X1330150D01*
Y0207525D01*
X1330050D01*
Y0207625D01*
X1329950D01*
Y0207725D01*
X1329850D01*
Y0207825D01*
Y0207925D01*
X1329750D01*
Y0207825D01*
Y0207725D01*
Y0207625D01*
Y0207525D01*
Y0207425D01*
Y0207325D01*
Y0207225D01*
Y0207125D01*
Y0207025D01*
Y0206925D01*
Y0206825D01*
Y0206725D01*
Y0206625D01*
Y0206525D01*
Y0206425D01*
Y0206325D01*
Y0206225D01*
Y0206125D01*
Y0206025D01*
Y0205925D01*
Y0205825D01*
Y0205725D01*
Y0205625D01*
Y0205525D01*
Y0205425D01*
Y0205325D01*
Y0205225D01*
Y0205125D01*
Y0205025D01*
Y0204925D01*
Y0204825D01*
Y0204725D01*
Y0204625D01*
Y0204525D01*
Y0204425D01*
Y0204325D01*
Y0204225D01*
Y0204125D01*
Y0204025D01*
Y0203925D01*
Y0203825D01*
Y0203725D01*
Y0203625D01*
Y0203525D01*
Y0203425D01*
Y0203325D01*
Y0203225D01*
Y0203125D01*
Y0203025D01*
X1329850D01*
Y0202925D01*
Y0202825D01*
Y0202725D01*
X1329950D01*
Y0202625D01*
X1330050D01*
Y0202525D01*
X1330250D01*
Y0202425D01*
X1330450D01*
Y0202325D01*
X1330550D01*
Y0202225D01*
Y0202125D01*
Y0202025D01*
X1327950D01*
Y0202125D01*
Y0202225D01*
Y0202325D01*
X1328050D01*
Y0202425D01*
X1328350D01*
Y0202525D01*
X1328450D01*
Y0202625D01*
X1328550D01*
Y0202725D01*
Y0202825D01*
X1328650D01*
Y0202925D01*
Y0203025D01*
Y0203125D01*
Y0203225D01*
Y0203325D01*
Y0203425D01*
Y0203525D01*
Y0203625D01*
Y0203725D01*
Y0203825D01*
Y0203925D01*
Y0204025D01*
Y0204125D01*
Y0204225D01*
Y0204325D01*
Y0204425D01*
Y0204525D01*
Y0204625D01*
Y0204725D01*
Y0204825D01*
Y0204925D01*
Y0205025D01*
Y0205125D01*
Y0205225D01*
Y0205325D01*
Y0205425D01*
Y0205525D01*
Y0205625D01*
Y0205725D01*
Y0205825D01*
Y0205925D01*
Y0206025D01*
Y0206125D01*
Y0206225D01*
Y0206325D01*
Y0206425D01*
Y0206525D01*
Y0206625D01*
Y0206725D01*
Y0206825D01*
Y0206925D01*
Y0207025D01*
Y0207125D01*
Y0207225D01*
Y0207325D01*
Y0207425D01*
Y0207525D01*
Y0207625D01*
Y0207725D01*
Y0207825D01*
Y0207925D01*
Y0208025D01*
Y0208125D01*
Y0208225D01*
Y0208325D01*
Y0208425D01*
Y0208525D01*
Y0208625D01*
Y0208725D01*
Y0208825D01*
Y0208925D01*
Y0209025D01*
Y0209125D01*
X1328550D01*
Y0209225D01*
Y0209325D01*
X1328450D01*
Y0209425D01*
X1328350D01*
Y0209525D01*
X1328150D01*
Y0209625D01*
X1327950D01*
Y0209725D01*
Y0209825D01*
Y0209925D01*
X1330350D01*
Y0209825D01*
X1330450D01*
Y0209725D01*
Y0209625D01*
X1330550D01*
Y0209525D01*
X1330650D01*
Y0209425D01*
X1330750D01*
Y0209325D01*
X1330850D01*
Y0209225D01*
X1330950D01*
Y0209125D01*
X1331050D01*
Y0209025D01*
X1331150D01*
Y0208925D01*
Y0208825D01*
X1331250D01*
Y0208725D01*
X1331350D01*
Y0208625D01*
X1331450D01*
Y0208525D01*
X1331550D01*
Y0208425D01*
X1331650D01*
Y0208325D01*
X1331750D01*
Y0208225D01*
X1331850D01*
Y0208125D01*
X1331950D01*
Y0208025D01*
Y0207925D01*
X1332050D01*
Y0207825D01*
X1332150D01*
Y0207725D01*
X1332250D01*
Y0207625D01*
X1332350D01*
Y0207525D01*
X1332450D01*
Y0207425D01*
X1332550D01*
Y0207325D01*
X1332650D01*
Y0207225D01*
Y0207125D01*
X1332750D01*
Y0207025D01*
X1332850D01*
Y0206925D01*
X1332950D01*
Y0206825D01*
X1333050D01*
Y0206725D01*
X1333150D01*
Y0206625D01*
X1333250D01*
Y0206525D01*
X1333350D01*
Y0206425D01*
Y0206325D01*
X1333450D01*
Y0206225D01*
X1333550D01*
Y0206125D01*
X1333650D01*
Y0206025D01*
X1333750D01*
Y0205925D01*
X1333850D01*
Y0205825D01*
X1333950D01*
Y0205725D01*
X1334050D01*
Y0205625D01*
Y0205525D01*
X1334250D01*
Y0205625D01*
Y0205725D01*
Y0205825D01*
Y0205925D01*
Y0206025D01*
Y0206125D01*
Y0206225D01*
Y0206325D01*
Y0206425D01*
Y0206525D01*
Y0206625D01*
Y0206725D01*
Y0206825D01*
Y0206925D01*
Y0207025D01*
Y0207125D01*
Y0207225D01*
Y0207325D01*
Y0207425D01*
Y0207525D01*
Y0207625D01*
Y0207725D01*
Y0207825D01*
Y0207925D01*
Y0208025D01*
Y0208125D01*
Y0208225D01*
Y0208325D01*
Y0208425D01*
Y0208525D01*
Y0208625D01*
Y0208725D01*
Y0208825D01*
Y0208925D01*
Y0209025D01*
X1334150D01*
Y0209125D01*
Y0209225D01*
Y0209325D01*
X1334050D01*
Y0209425D01*
X1333950D01*
Y0209525D01*
X1333750D01*
Y0209625D01*
X1333550D01*
Y0209725D01*
Y0209825D01*
Y0209925D01*
X1335950D01*
Y0209825D01*
D02*
G37*
G36*
X1392950D02*
Y0209725D01*
Y0209625D01*
X1392750D01*
Y0209525D01*
X1392650D01*
Y0209425D01*
X1392550D01*
Y0209325D01*
X1392450D01*
Y0209225D01*
X1392350D01*
Y0209125D01*
Y0209025D01*
Y0208925D01*
Y0208825D01*
Y0208725D01*
X1392250D01*
Y0208625D01*
Y0208525D01*
Y0208425D01*
Y0208325D01*
Y0208225D01*
Y0208125D01*
Y0208025D01*
Y0207925D01*
Y0207825D01*
Y0207725D01*
Y0207625D01*
Y0207525D01*
Y0207425D01*
Y0207325D01*
Y0207225D01*
Y0207125D01*
Y0207025D01*
Y0206925D01*
Y0206825D01*
Y0206725D01*
Y0206625D01*
Y0206525D01*
Y0206425D01*
Y0206325D01*
Y0206225D01*
Y0206125D01*
Y0206025D01*
Y0205925D01*
Y0205825D01*
Y0205725D01*
Y0205625D01*
Y0205525D01*
Y0205425D01*
Y0205325D01*
Y0205225D01*
Y0205125D01*
Y0205025D01*
Y0204925D01*
Y0204825D01*
Y0204725D01*
Y0204625D01*
Y0204525D01*
Y0204425D01*
Y0204325D01*
Y0204225D01*
Y0204125D01*
Y0204025D01*
Y0203925D01*
Y0203825D01*
Y0203725D01*
Y0203625D01*
Y0203525D01*
Y0203425D01*
Y0203325D01*
Y0203225D01*
Y0203125D01*
Y0203025D01*
Y0202925D01*
Y0202825D01*
Y0202725D01*
Y0202625D01*
Y0202525D01*
Y0202425D01*
Y0202325D01*
Y0202225D01*
Y0202125D01*
Y0202025D01*
Y0201925D01*
X1391950D01*
Y0202025D01*
X1391850D01*
Y0202125D01*
Y0202225D01*
X1391750D01*
Y0202325D01*
X1391650D01*
Y0202425D01*
X1391550D01*
Y0202525D01*
X1391450D01*
Y0202625D01*
X1391350D01*
Y0202725D01*
X1391250D01*
Y0202825D01*
X1391150D01*
Y0202925D01*
Y0203025D01*
X1391050D01*
Y0203125D01*
X1390950D01*
Y0203225D01*
X1390850D01*
Y0203325D01*
X1390750D01*
Y0203425D01*
X1390650D01*
Y0203525D01*
X1390550D01*
Y0203625D01*
X1390450D01*
Y0203725D01*
Y0203825D01*
X1390350D01*
Y0203925D01*
X1390250D01*
Y0204025D01*
X1390150D01*
Y0204125D01*
X1390050D01*
Y0204225D01*
X1389950D01*
Y0204325D01*
X1389850D01*
Y0204425D01*
X1389750D01*
Y0204525D01*
Y0204625D01*
X1389650D01*
Y0204725D01*
X1389550D01*
Y0204825D01*
X1389450D01*
Y0204925D01*
X1389350D01*
Y0205025D01*
X1389250D01*
Y0205125D01*
X1389150D01*
Y0205225D01*
X1389050D01*
Y0205325D01*
Y0205425D01*
X1388950D01*
Y0205525D01*
X1388850D01*
Y0205625D01*
X1388750D01*
Y0205725D01*
X1388650D01*
Y0205825D01*
X1388550D01*
Y0205925D01*
X1388450D01*
Y0206025D01*
X1388350D01*
Y0206125D01*
Y0206225D01*
X1388250D01*
Y0206325D01*
X1388150D01*
Y0206425D01*
X1388050D01*
Y0206525D01*
X1387950D01*
Y0206625D01*
X1387850D01*
Y0206725D01*
X1387750D01*
Y0206825D01*
X1387650D01*
Y0206925D01*
Y0207025D01*
X1387550D01*
Y0207125D01*
X1387450D01*
Y0207225D01*
X1387350D01*
Y0207325D01*
X1387250D01*
Y0207425D01*
X1387150D01*
Y0207525D01*
X1387050D01*
Y0207625D01*
X1386950D01*
Y0207725D01*
Y0207825D01*
X1386850D01*
Y0207925D01*
X1386750D01*
Y0207825D01*
Y0207725D01*
Y0207625D01*
Y0207525D01*
Y0207425D01*
Y0207325D01*
Y0207225D01*
Y0207125D01*
Y0207025D01*
Y0206925D01*
Y0206825D01*
Y0206725D01*
Y0206625D01*
Y0206525D01*
Y0206425D01*
Y0206325D01*
Y0206225D01*
Y0206125D01*
Y0206025D01*
Y0205925D01*
Y0205825D01*
Y0205725D01*
Y0205625D01*
Y0205525D01*
Y0205425D01*
Y0205325D01*
Y0205225D01*
Y0205125D01*
Y0205025D01*
Y0204925D01*
Y0204825D01*
Y0204725D01*
Y0204625D01*
Y0204525D01*
Y0204425D01*
Y0204325D01*
Y0204225D01*
Y0204125D01*
Y0204025D01*
Y0203925D01*
Y0203825D01*
Y0203725D01*
Y0203625D01*
Y0203525D01*
Y0203425D01*
Y0203325D01*
Y0203225D01*
Y0203125D01*
Y0203025D01*
X1386850D01*
Y0202925D01*
Y0202825D01*
Y0202725D01*
X1386950D01*
Y0202625D01*
X1387050D01*
Y0202525D01*
X1387250D01*
Y0202425D01*
X1387450D01*
Y0202325D01*
X1387550D01*
Y0202225D01*
Y0202125D01*
Y0202025D01*
X1384950D01*
Y0202125D01*
Y0202225D01*
Y0202325D01*
X1385050D01*
Y0202425D01*
X1385350D01*
Y0202525D01*
X1385450D01*
Y0202625D01*
X1385550D01*
Y0202725D01*
Y0202825D01*
X1385650D01*
Y0202925D01*
Y0203025D01*
Y0203125D01*
Y0203225D01*
Y0203325D01*
X1385750D01*
Y0203425D01*
Y0203525D01*
Y0203625D01*
Y0203725D01*
Y0203825D01*
Y0203925D01*
Y0204025D01*
Y0204125D01*
Y0204225D01*
Y0204325D01*
Y0204425D01*
Y0204525D01*
Y0204625D01*
Y0204725D01*
Y0204825D01*
Y0204925D01*
Y0205025D01*
Y0205125D01*
Y0205225D01*
Y0205325D01*
Y0205425D01*
Y0205525D01*
Y0205625D01*
Y0205725D01*
Y0205825D01*
Y0205925D01*
Y0206025D01*
Y0206125D01*
Y0206225D01*
Y0206325D01*
Y0206425D01*
Y0206525D01*
Y0206625D01*
Y0206725D01*
Y0206825D01*
Y0206925D01*
Y0207025D01*
Y0207125D01*
Y0207225D01*
Y0207325D01*
Y0207425D01*
Y0207525D01*
Y0207625D01*
Y0207725D01*
Y0207825D01*
Y0207925D01*
Y0208025D01*
Y0208125D01*
Y0208225D01*
Y0208325D01*
Y0208425D01*
Y0208525D01*
Y0208625D01*
Y0208725D01*
X1385650D01*
Y0208825D01*
Y0208925D01*
Y0209025D01*
Y0209125D01*
X1385550D01*
Y0209225D01*
Y0209325D01*
X1385450D01*
Y0209425D01*
X1385350D01*
Y0209525D01*
X1385150D01*
Y0209625D01*
X1384950D01*
Y0209725D01*
Y0209825D01*
Y0209925D01*
X1387350D01*
Y0209825D01*
X1387450D01*
Y0209725D01*
X1387550D01*
Y0209625D01*
Y0209525D01*
X1387650D01*
Y0209425D01*
X1387750D01*
Y0209325D01*
X1387850D01*
Y0209225D01*
X1387950D01*
Y0209125D01*
X1388050D01*
Y0209025D01*
X1388150D01*
Y0208925D01*
X1388250D01*
Y0208825D01*
Y0208725D01*
X1388350D01*
Y0208625D01*
X1388450D01*
Y0208525D01*
X1388550D01*
Y0208425D01*
X1388650D01*
Y0208325D01*
X1388750D01*
Y0208225D01*
X1388850D01*
Y0208125D01*
X1388950D01*
Y0208025D01*
Y0207925D01*
X1389050D01*
Y0207825D01*
X1389150D01*
Y0207725D01*
X1389250D01*
Y0207625D01*
X1389350D01*
Y0207525D01*
X1389450D01*
Y0207425D01*
X1389550D01*
Y0207325D01*
X1389650D01*
Y0207225D01*
Y0207125D01*
X1389750D01*
Y0207025D01*
X1389850D01*
Y0206925D01*
X1389950D01*
Y0206825D01*
X1390050D01*
Y0206725D01*
X1390150D01*
Y0206625D01*
X1390250D01*
Y0206525D01*
X1390350D01*
Y0206425D01*
Y0206325D01*
X1390450D01*
Y0206225D01*
X1390550D01*
Y0206125D01*
X1390650D01*
Y0206025D01*
X1390750D01*
Y0205925D01*
X1390850D01*
Y0205825D01*
X1390950D01*
Y0205725D01*
X1391050D01*
Y0205625D01*
Y0205525D01*
X1391150D01*
Y0205425D01*
X1391250D01*
Y0205525D01*
Y0205625D01*
Y0205725D01*
Y0205825D01*
Y0205925D01*
Y0206025D01*
Y0206125D01*
Y0206225D01*
Y0206325D01*
Y0206425D01*
Y0206525D01*
Y0206625D01*
Y0206725D01*
Y0206825D01*
Y0206925D01*
Y0207025D01*
Y0207125D01*
Y0207225D01*
Y0207325D01*
Y0207425D01*
Y0207525D01*
Y0207625D01*
Y0207725D01*
Y0207825D01*
Y0207925D01*
Y0208025D01*
Y0208125D01*
Y0208225D01*
Y0208325D01*
Y0208425D01*
Y0208525D01*
Y0208625D01*
Y0208725D01*
Y0208825D01*
Y0208925D01*
Y0209025D01*
Y0209125D01*
X1391150D01*
Y0209225D01*
Y0209325D01*
X1391050D01*
Y0209425D01*
X1390950D01*
Y0209525D01*
X1390750D01*
Y0209625D01*
X1390550D01*
Y0209725D01*
Y0209825D01*
Y0209925D01*
X1392950D01*
Y0209825D01*
D02*
G37*
G36*
X1349550D02*
Y0209725D01*
Y0209625D01*
X1349650D01*
Y0209525D01*
Y0209425D01*
Y0209325D01*
Y0209225D01*
X1349750D01*
Y0209125D01*
Y0209025D01*
Y0208925D01*
X1349850D01*
Y0208825D01*
Y0208725D01*
Y0208625D01*
X1349950D01*
Y0208525D01*
Y0208425D01*
Y0208325D01*
X1350050D01*
Y0208225D01*
Y0208125D01*
Y0208025D01*
Y0207925D01*
Y0207825D01*
X1349850D01*
Y0207925D01*
X1349750D01*
Y0208025D01*
X1349650D01*
Y0208125D01*
X1349550D01*
Y0208225D01*
X1349450D01*
Y0208325D01*
X1349350D01*
Y0208425D01*
X1349250D01*
Y0208525D01*
X1349150D01*
Y0208625D01*
X1349050D01*
Y0208725D01*
X1348950D01*
Y0208825D01*
X1348650D01*
Y0208925D01*
X1348250D01*
Y0209025D01*
X1347350D01*
Y0208925D01*
X1347250D01*
Y0208825D01*
X1347150D01*
Y0208725D01*
Y0208625D01*
Y0208525D01*
Y0208425D01*
Y0208325D01*
Y0208225D01*
Y0208125D01*
Y0208025D01*
Y0207925D01*
Y0207825D01*
Y0207725D01*
Y0207625D01*
Y0207525D01*
Y0207425D01*
Y0207325D01*
Y0207225D01*
Y0207125D01*
Y0207025D01*
Y0206925D01*
Y0206825D01*
Y0206725D01*
Y0206625D01*
Y0206525D01*
Y0206425D01*
Y0206325D01*
Y0206225D01*
Y0206125D01*
Y0206025D01*
Y0205925D01*
Y0205825D01*
Y0205725D01*
Y0205625D01*
Y0205525D01*
Y0205425D01*
Y0205325D01*
Y0205225D01*
Y0205125D01*
Y0205025D01*
Y0204925D01*
Y0204825D01*
Y0204725D01*
Y0204625D01*
Y0204525D01*
Y0204425D01*
Y0204325D01*
Y0204225D01*
Y0204125D01*
Y0204025D01*
Y0203925D01*
Y0203825D01*
Y0203725D01*
Y0203625D01*
Y0203525D01*
Y0203425D01*
Y0203325D01*
Y0203225D01*
Y0203125D01*
Y0203025D01*
Y0202925D01*
X1347250D01*
Y0202825D01*
Y0202725D01*
Y0202625D01*
X1347350D01*
Y0202525D01*
X1347550D01*
Y0202425D01*
X1347850D01*
Y0202325D01*
X1348050D01*
Y0202225D01*
Y0202125D01*
Y0202025D01*
X1344650D01*
Y0202125D01*
Y0202225D01*
Y0202325D01*
X1344750D01*
Y0202425D01*
X1345050D01*
Y0202525D01*
X1345250D01*
Y0202625D01*
X1345350D01*
Y0202725D01*
Y0202825D01*
X1345450D01*
Y0202925D01*
Y0203025D01*
Y0203125D01*
Y0203225D01*
Y0203325D01*
Y0203425D01*
Y0203525D01*
Y0203625D01*
Y0203725D01*
Y0203825D01*
Y0203925D01*
Y0204025D01*
Y0204125D01*
Y0204225D01*
Y0204325D01*
Y0204425D01*
Y0204525D01*
Y0204625D01*
Y0204725D01*
Y0204825D01*
Y0204925D01*
Y0205025D01*
Y0205125D01*
Y0205225D01*
Y0205325D01*
Y0205425D01*
Y0205525D01*
Y0205625D01*
Y0205725D01*
Y0205825D01*
Y0205925D01*
Y0206025D01*
Y0206125D01*
Y0206225D01*
Y0206325D01*
Y0206425D01*
Y0206525D01*
Y0206625D01*
Y0206725D01*
Y0206825D01*
Y0206925D01*
Y0207025D01*
Y0207125D01*
Y0207225D01*
Y0207325D01*
Y0207425D01*
Y0207525D01*
Y0207625D01*
Y0207725D01*
Y0207825D01*
Y0207925D01*
Y0208025D01*
Y0208125D01*
Y0208225D01*
Y0208325D01*
Y0208425D01*
Y0208525D01*
Y0208625D01*
Y0208725D01*
Y0208825D01*
Y0208925D01*
X1345250D01*
Y0209025D01*
X1344350D01*
Y0208925D01*
X1343950D01*
Y0208825D01*
X1343750D01*
Y0208725D01*
X1343650D01*
Y0208625D01*
X1343450D01*
Y0208525D01*
X1343350D01*
Y0208425D01*
X1343250D01*
Y0208325D01*
Y0208225D01*
X1343150D01*
Y0208125D01*
X1343050D01*
Y0208025D01*
X1342950D01*
Y0207925D01*
X1342850D01*
Y0207825D01*
X1342650D01*
Y0207925D01*
X1342550D01*
Y0208025D01*
X1342650D01*
Y0208125D01*
Y0208225D01*
Y0208325D01*
X1342750D01*
Y0208425D01*
Y0208525D01*
Y0208625D01*
X1342850D01*
Y0208725D01*
Y0208825D01*
Y0208925D01*
X1342950D01*
Y0209025D01*
Y0209125D01*
Y0209225D01*
Y0209325D01*
X1343050D01*
Y0209425D01*
Y0209525D01*
Y0209625D01*
X1343150D01*
Y0209725D01*
Y0209825D01*
Y0209925D01*
X1349550D01*
Y0209825D01*
D02*
G37*
G36*
X1340150Y0209925D02*
X1340450D01*
Y0209825D01*
X1340650D01*
Y0209725D01*
X1340850D01*
Y0209625D01*
X1341150D01*
Y0209725D01*
X1341250D01*
Y0209825D01*
Y0209925D01*
X1341650D01*
Y0209825D01*
Y0209725D01*
X1341750D01*
Y0209625D01*
Y0209525D01*
Y0209425D01*
X1341850D01*
Y0209325D01*
Y0209225D01*
Y0209125D01*
X1341950D01*
Y0209025D01*
Y0208925D01*
Y0208825D01*
Y0208725D01*
X1342050D01*
Y0208625D01*
Y0208525D01*
Y0208425D01*
X1342150D01*
Y0208325D01*
Y0208225D01*
Y0208125D01*
Y0208025D01*
X1342250D01*
Y0207925D01*
X1342150D01*
Y0207825D01*
X1341950D01*
Y0207925D01*
X1341850D01*
Y0208025D01*
X1341750D01*
Y0208125D01*
X1341550D01*
Y0208225D01*
X1341450D01*
Y0208325D01*
X1341350D01*
Y0208425D01*
X1341250D01*
Y0208525D01*
X1341050D01*
Y0208625D01*
X1340850D01*
Y0208725D01*
X1340650D01*
Y0208825D01*
X1340350D01*
Y0208925D01*
X1340050D01*
Y0209025D01*
X1338750D01*
Y0208925D01*
X1338450D01*
Y0208825D01*
X1338250D01*
Y0208725D01*
X1338150D01*
Y0208625D01*
X1338050D01*
Y0208525D01*
X1337950D01*
Y0208425D01*
Y0208325D01*
Y0208225D01*
X1337850D01*
Y0208125D01*
Y0208025D01*
Y0207925D01*
X1337950D01*
Y0207825D01*
Y0207725D01*
Y0207625D01*
X1338050D01*
Y0207525D01*
X1338150D01*
Y0207425D01*
X1338350D01*
Y0207325D01*
X1338550D01*
Y0207225D01*
X1338950D01*
Y0207125D01*
X1339350D01*
Y0207025D01*
X1339850D01*
Y0206925D01*
X1340250D01*
Y0206825D01*
X1340650D01*
Y0206725D01*
X1341050D01*
Y0206625D01*
X1341350D01*
Y0206525D01*
X1341550D01*
Y0206425D01*
X1341750D01*
Y0206325D01*
X1341850D01*
Y0206225D01*
X1342050D01*
Y0206125D01*
X1342150D01*
Y0206025D01*
X1342250D01*
Y0205925D01*
X1342350D01*
Y0205825D01*
X1342450D01*
Y0205725D01*
Y0205625D01*
X1342550D01*
Y0205525D01*
Y0205425D01*
X1342650D01*
Y0205325D01*
Y0205225D01*
Y0205125D01*
X1342750D01*
Y0205025D01*
Y0204925D01*
Y0204825D01*
Y0204725D01*
Y0204625D01*
Y0204525D01*
Y0204425D01*
Y0204325D01*
Y0204225D01*
Y0204125D01*
Y0204025D01*
Y0203925D01*
Y0203825D01*
X1342650D01*
Y0203725D01*
Y0203625D01*
Y0203525D01*
X1342550D01*
Y0203425D01*
Y0203325D01*
X1342450D01*
Y0203225D01*
Y0203125D01*
X1342350D01*
Y0203025D01*
X1342250D01*
Y0202925D01*
Y0202825D01*
X1342150D01*
Y0202725D01*
X1342050D01*
Y0202625D01*
X1341850D01*
Y0202525D01*
X1341750D01*
Y0202425D01*
X1341550D01*
Y0202325D01*
X1341350D01*
Y0202225D01*
X1341150D01*
Y0202125D01*
X1340850D01*
Y0202025D01*
X1340350D01*
Y0201925D01*
X1338950D01*
Y0202025D01*
X1338450D01*
Y0202125D01*
X1338150D01*
Y0202225D01*
X1337850D01*
Y0202325D01*
X1337650D01*
Y0202425D01*
X1337450D01*
Y0202325D01*
X1337350D01*
Y0202225D01*
Y0202125D01*
X1337250D01*
Y0202025D01*
X1336850D01*
Y0202125D01*
Y0202225D01*
Y0202325D01*
X1336750D01*
Y0202425D01*
Y0202525D01*
Y0202625D01*
Y0202725D01*
X1336650D01*
Y0202825D01*
Y0202925D01*
Y0203025D01*
Y0203125D01*
X1336550D01*
Y0203225D01*
Y0203325D01*
Y0203425D01*
X1336450D01*
Y0203525D01*
Y0203625D01*
Y0203725D01*
Y0203825D01*
X1336350D01*
Y0203925D01*
Y0204025D01*
Y0204125D01*
Y0204225D01*
X1336250D01*
Y0204325D01*
Y0204425D01*
X1336350D01*
Y0204525D01*
X1336550D01*
Y0204425D01*
X1336650D01*
Y0204325D01*
X1336750D01*
Y0204225D01*
X1336850D01*
Y0204125D01*
X1336950D01*
Y0204025D01*
X1337050D01*
Y0203925D01*
X1337150D01*
Y0203825D01*
X1337250D01*
Y0203725D01*
X1337350D01*
Y0203625D01*
X1337550D01*
Y0203525D01*
X1337650D01*
Y0203425D01*
X1337850D01*
Y0203325D01*
X1338050D01*
Y0203225D01*
X1338250D01*
Y0203125D01*
X1338550D01*
Y0203025D01*
X1339050D01*
Y0202925D01*
X1340050D01*
Y0203025D01*
X1340450D01*
Y0203125D01*
X1340650D01*
Y0203225D01*
X1340850D01*
Y0203325D01*
X1340950D01*
Y0203425D01*
X1341050D01*
Y0203525D01*
Y0203625D01*
X1341150D01*
Y0203725D01*
Y0203825D01*
Y0203925D01*
X1341250D01*
Y0204025D01*
Y0204125D01*
Y0204225D01*
Y0204325D01*
X1341150D01*
Y0204425D01*
Y0204525D01*
Y0204625D01*
X1341050D01*
Y0204725D01*
X1340950D01*
Y0204825D01*
X1340850D01*
Y0204925D01*
X1340650D01*
Y0205025D01*
X1340450D01*
Y0205125D01*
X1340150D01*
Y0205225D01*
X1339650D01*
Y0205325D01*
X1339250D01*
Y0205425D01*
X1338850D01*
Y0205525D01*
X1338350D01*
Y0205625D01*
X1338050D01*
Y0205725D01*
X1337750D01*
Y0205825D01*
X1337550D01*
Y0205925D01*
X1337450D01*
Y0206025D01*
X1337250D01*
Y0206125D01*
X1337150D01*
Y0206225D01*
X1337050D01*
Y0206325D01*
X1336950D01*
Y0206425D01*
X1336850D01*
Y0206525D01*
X1336750D01*
Y0206625D01*
Y0206725D01*
X1336650D01*
Y0206825D01*
Y0206925D01*
X1336550D01*
Y0207025D01*
Y0207125D01*
Y0207225D01*
X1336450D01*
Y0207325D01*
Y0207425D01*
Y0207525D01*
Y0207625D01*
Y0207725D01*
Y0207825D01*
Y0207925D01*
Y0208025D01*
Y0208125D01*
Y0208225D01*
X1336550D01*
Y0208325D01*
Y0208425D01*
Y0208525D01*
Y0208625D01*
X1336650D01*
Y0208725D01*
Y0208825D01*
X1336750D01*
Y0208925D01*
X1336850D01*
Y0209025D01*
Y0209125D01*
X1336950D01*
Y0209225D01*
X1337050D01*
Y0209325D01*
X1337150D01*
Y0209425D01*
X1337250D01*
Y0209525D01*
X1337450D01*
Y0209625D01*
X1337550D01*
Y0209725D01*
X1337750D01*
Y0209825D01*
X1338050D01*
Y0209925D01*
X1338350D01*
Y0210025D01*
X1340150D01*
Y0209925D01*
D02*
G37*
G36*
X1376950Y0209825D02*
Y0209725D01*
Y0209625D01*
X1376750D01*
Y0209525D01*
X1376550D01*
Y0209425D01*
X1376450D01*
Y0209325D01*
X1376350D01*
Y0209225D01*
X1376250D01*
Y0209125D01*
Y0209025D01*
Y0208925D01*
Y0208825D01*
Y0208725D01*
Y0208625D01*
Y0208525D01*
Y0208425D01*
Y0208325D01*
Y0208225D01*
Y0208125D01*
Y0208025D01*
Y0207925D01*
Y0207825D01*
Y0207725D01*
Y0207625D01*
Y0207525D01*
Y0207425D01*
Y0207325D01*
Y0207225D01*
Y0207125D01*
Y0207025D01*
Y0206925D01*
Y0206825D01*
Y0206725D01*
Y0206625D01*
Y0206525D01*
Y0206425D01*
Y0206325D01*
Y0206225D01*
Y0206125D01*
Y0206025D01*
Y0205925D01*
Y0205825D01*
Y0205725D01*
Y0205625D01*
Y0205525D01*
Y0205425D01*
Y0205325D01*
Y0205225D01*
Y0205125D01*
Y0205025D01*
Y0204925D01*
Y0204825D01*
Y0204725D01*
Y0204625D01*
Y0204525D01*
Y0204425D01*
Y0204325D01*
Y0204225D01*
Y0204125D01*
Y0204025D01*
Y0203925D01*
Y0203825D01*
Y0203725D01*
Y0203625D01*
Y0203525D01*
Y0203425D01*
Y0203325D01*
Y0203225D01*
Y0203125D01*
Y0203025D01*
Y0202925D01*
Y0202825D01*
X1376350D01*
Y0202725D01*
Y0202625D01*
X1376450D01*
Y0202525D01*
X1376550D01*
Y0202425D01*
X1376850D01*
Y0202325D01*
X1376950D01*
Y0202225D01*
Y0202125D01*
Y0202025D01*
X1373750D01*
Y0202125D01*
Y0202225D01*
Y0202325D01*
X1373850D01*
Y0202425D01*
X1374050D01*
Y0202525D01*
X1374250D01*
Y0202625D01*
X1374350D01*
Y0202725D01*
Y0202825D01*
X1374450D01*
Y0202925D01*
Y0203025D01*
Y0203125D01*
Y0203225D01*
Y0203325D01*
Y0203425D01*
Y0203525D01*
Y0203625D01*
Y0203725D01*
Y0203825D01*
Y0203925D01*
Y0204025D01*
Y0204125D01*
Y0204225D01*
Y0204325D01*
Y0204425D01*
Y0204525D01*
Y0204625D01*
Y0204725D01*
Y0204825D01*
Y0204925D01*
Y0205025D01*
Y0205125D01*
Y0205225D01*
Y0205325D01*
Y0205425D01*
Y0205525D01*
Y0205625D01*
Y0205725D01*
Y0205825D01*
Y0205925D01*
Y0206025D01*
Y0206125D01*
Y0206225D01*
Y0206325D01*
Y0206425D01*
Y0206525D01*
Y0206625D01*
Y0206725D01*
Y0206825D01*
Y0206925D01*
Y0207025D01*
Y0207125D01*
Y0207225D01*
Y0207325D01*
Y0207425D01*
Y0207525D01*
Y0207625D01*
Y0207725D01*
Y0207825D01*
Y0207925D01*
Y0208025D01*
Y0208125D01*
X1374350D01*
Y0208025D01*
Y0207925D01*
Y0207825D01*
X1374250D01*
Y0207725D01*
Y0207625D01*
X1374150D01*
Y0207525D01*
Y0207425D01*
X1374050D01*
Y0207325D01*
Y0207225D01*
Y0207125D01*
X1373950D01*
Y0207025D01*
Y0206925D01*
X1373850D01*
Y0206825D01*
Y0206725D01*
X1373750D01*
Y0206625D01*
Y0206525D01*
Y0206425D01*
X1373650D01*
Y0206325D01*
Y0206225D01*
X1373550D01*
Y0206125D01*
Y0206025D01*
X1373450D01*
Y0205925D01*
Y0205825D01*
X1373350D01*
Y0205725D01*
Y0205625D01*
Y0205525D01*
X1373250D01*
Y0205425D01*
Y0205325D01*
X1373150D01*
Y0205225D01*
Y0205125D01*
X1373050D01*
Y0205025D01*
Y0204925D01*
Y0204825D01*
X1372950D01*
Y0204725D01*
Y0204625D01*
X1372850D01*
Y0204525D01*
Y0204425D01*
X1372750D01*
Y0204325D01*
Y0204225D01*
Y0204125D01*
X1372650D01*
Y0204025D01*
Y0203925D01*
X1372550D01*
Y0203825D01*
Y0203725D01*
X1372450D01*
Y0203625D01*
Y0203525D01*
X1372350D01*
Y0203425D01*
Y0203325D01*
Y0203225D01*
X1372250D01*
Y0203125D01*
Y0203025D01*
X1372150D01*
Y0202925D01*
Y0202825D01*
X1372050D01*
Y0202725D01*
Y0202625D01*
Y0202525D01*
X1371950D01*
Y0202425D01*
Y0202325D01*
X1371850D01*
Y0202225D01*
Y0202125D01*
X1371750D01*
Y0202025D01*
Y0201925D01*
X1371450D01*
Y0202025D01*
Y0202125D01*
X1371350D01*
Y0202225D01*
Y0202325D01*
X1371250D01*
Y0202425D01*
Y0202525D01*
Y0202625D01*
X1371150D01*
Y0202725D01*
Y0202825D01*
X1371050D01*
Y0202925D01*
Y0203025D01*
X1370950D01*
Y0203125D01*
Y0203225D01*
X1370850D01*
Y0203325D01*
Y0203425D01*
Y0203525D01*
X1370750D01*
Y0203625D01*
Y0203725D01*
X1370650D01*
Y0203825D01*
Y0203925D01*
X1370550D01*
Y0204025D01*
Y0204125D01*
X1370450D01*
Y0204225D01*
Y0204325D01*
Y0204425D01*
X1370350D01*
Y0204525D01*
Y0204625D01*
X1370250D01*
Y0204725D01*
Y0204825D01*
X1370150D01*
Y0204925D01*
Y0205025D01*
X1370050D01*
Y0205125D01*
Y0205225D01*
Y0205325D01*
X1369950D01*
Y0205425D01*
Y0205525D01*
X1369850D01*
Y0205625D01*
Y0205725D01*
X1369750D01*
Y0205825D01*
Y0205925D01*
X1369650D01*
Y0206025D01*
Y0206125D01*
Y0206225D01*
X1369550D01*
Y0206325D01*
Y0206425D01*
X1369450D01*
Y0206525D01*
Y0206625D01*
X1369350D01*
Y0206725D01*
Y0206825D01*
X1369250D01*
Y0206925D01*
Y0207025D01*
X1369150D01*
Y0207125D01*
Y0207225D01*
Y0207325D01*
X1369050D01*
Y0207425D01*
Y0207525D01*
X1368950D01*
Y0207625D01*
Y0207725D01*
X1368850D01*
Y0207825D01*
Y0207925D01*
X1368750D01*
Y0208025D01*
Y0208125D01*
X1368650D01*
Y0208025D01*
Y0207925D01*
Y0207825D01*
Y0207725D01*
Y0207625D01*
Y0207525D01*
Y0207425D01*
Y0207325D01*
Y0207225D01*
Y0207125D01*
Y0207025D01*
Y0206925D01*
Y0206825D01*
Y0206725D01*
Y0206625D01*
Y0206525D01*
Y0206425D01*
Y0206325D01*
Y0206225D01*
Y0206125D01*
Y0206025D01*
Y0205925D01*
Y0205825D01*
Y0205725D01*
Y0205625D01*
Y0205525D01*
Y0205425D01*
Y0205325D01*
Y0205225D01*
Y0205125D01*
Y0205025D01*
Y0204925D01*
Y0204825D01*
Y0204725D01*
Y0204625D01*
Y0204525D01*
Y0204425D01*
Y0204325D01*
Y0204225D01*
Y0204125D01*
Y0204025D01*
Y0203925D01*
Y0203825D01*
Y0203725D01*
Y0203625D01*
Y0203525D01*
Y0203425D01*
Y0203325D01*
Y0203225D01*
Y0203125D01*
Y0203025D01*
X1368750D01*
Y0202925D01*
Y0202825D01*
Y0202725D01*
X1368850D01*
Y0202625D01*
X1368950D01*
Y0202525D01*
X1369050D01*
Y0202425D01*
X1369350D01*
Y0202325D01*
X1369450D01*
Y0202225D01*
Y0202125D01*
Y0202025D01*
X1366950D01*
Y0202125D01*
Y0202225D01*
Y0202325D01*
Y0202425D01*
X1367250D01*
Y0202525D01*
X1367350D01*
Y0202625D01*
X1367450D01*
Y0202725D01*
X1367550D01*
Y0202825D01*
Y0202925D01*
X1367650D01*
Y0203025D01*
Y0203125D01*
Y0203225D01*
Y0203325D01*
Y0203425D01*
Y0203525D01*
Y0203625D01*
Y0203725D01*
Y0203825D01*
Y0203925D01*
Y0204025D01*
Y0204125D01*
Y0204225D01*
Y0204325D01*
Y0204425D01*
Y0204525D01*
Y0204625D01*
Y0204725D01*
Y0204825D01*
Y0204925D01*
Y0205025D01*
Y0205125D01*
Y0205225D01*
Y0205325D01*
Y0205425D01*
Y0205525D01*
Y0205625D01*
Y0205725D01*
Y0205825D01*
Y0205925D01*
Y0206025D01*
Y0206125D01*
Y0206225D01*
Y0206325D01*
Y0206425D01*
Y0206525D01*
Y0206625D01*
Y0206725D01*
Y0206825D01*
Y0206925D01*
Y0207025D01*
Y0207125D01*
Y0207225D01*
Y0207325D01*
Y0207425D01*
Y0207525D01*
Y0207625D01*
Y0207725D01*
Y0207825D01*
Y0207925D01*
Y0208025D01*
Y0208125D01*
Y0208225D01*
Y0208325D01*
Y0208425D01*
Y0208525D01*
Y0208625D01*
Y0208725D01*
Y0208825D01*
Y0208925D01*
Y0209025D01*
Y0209125D01*
Y0209225D01*
X1367550D01*
Y0209325D01*
X1367450D01*
Y0209425D01*
X1367350D01*
Y0209525D01*
X1367150D01*
Y0209625D01*
X1366950D01*
Y0209725D01*
Y0209825D01*
Y0209925D01*
X1369750D01*
Y0209825D01*
X1369850D01*
Y0209725D01*
Y0209625D01*
X1369950D01*
Y0209525D01*
Y0209425D01*
X1370050D01*
Y0209325D01*
Y0209225D01*
Y0209125D01*
X1370150D01*
Y0209025D01*
Y0208925D01*
X1370250D01*
Y0208825D01*
Y0208725D01*
X1370350D01*
Y0208625D01*
Y0208525D01*
X1370450D01*
Y0208425D01*
Y0208325D01*
Y0208225D01*
X1370550D01*
Y0208125D01*
Y0208025D01*
X1370650D01*
Y0207925D01*
Y0207825D01*
X1370750D01*
Y0207725D01*
Y0207625D01*
X1370850D01*
Y0207525D01*
Y0207425D01*
Y0207325D01*
X1370950D01*
Y0207225D01*
Y0207125D01*
X1371050D01*
Y0207025D01*
Y0206925D01*
X1371150D01*
Y0206825D01*
Y0206725D01*
X1371250D01*
Y0206625D01*
Y0206525D01*
Y0206425D01*
X1371350D01*
Y0206325D01*
Y0206225D01*
X1371450D01*
Y0206125D01*
Y0206025D01*
X1371550D01*
Y0205925D01*
Y0205825D01*
X1371650D01*
Y0205725D01*
Y0205625D01*
Y0205525D01*
X1371750D01*
Y0205425D01*
Y0205325D01*
X1371850D01*
Y0205225D01*
Y0205125D01*
X1371950D01*
Y0205025D01*
Y0204925D01*
X1372050D01*
Y0205025D01*
X1372150D01*
Y0205125D01*
Y0205225D01*
Y0205325D01*
X1372250D01*
Y0205425D01*
Y0205525D01*
X1372350D01*
Y0205625D01*
Y0205725D01*
X1372450D01*
Y0205825D01*
Y0205925D01*
Y0206025D01*
X1372550D01*
Y0206125D01*
Y0206225D01*
X1372650D01*
Y0206325D01*
Y0206425D01*
X1372750D01*
Y0206525D01*
Y0206625D01*
Y0206725D01*
X1372850D01*
Y0206825D01*
Y0206925D01*
X1372950D01*
Y0207025D01*
Y0207125D01*
X1373050D01*
Y0207225D01*
Y0207325D01*
Y0207425D01*
X1373150D01*
Y0207525D01*
Y0207625D01*
X1373250D01*
Y0207725D01*
Y0207825D01*
X1373350D01*
Y0207925D01*
Y0208025D01*
Y0208125D01*
X1373450D01*
Y0208225D01*
Y0208325D01*
X1373550D01*
Y0208425D01*
Y0208525D01*
X1373650D01*
Y0208625D01*
Y0208725D01*
Y0208825D01*
X1373750D01*
Y0208925D01*
Y0209025D01*
X1373850D01*
Y0209125D01*
Y0209225D01*
X1373950D01*
Y0209325D01*
Y0209425D01*
Y0209525D01*
X1374050D01*
Y0209625D01*
Y0209725D01*
X1374150D01*
Y0209825D01*
Y0209925D01*
X1376950D01*
Y0209825D01*
D02*
G37*
G36*
X1327350Y0212225D02*
Y0212125D01*
X1327250D01*
Y0212025D01*
X1326950D01*
Y0211925D01*
X1326750D01*
Y0211825D01*
X1326650D01*
Y0211725D01*
X1326550D01*
Y0211625D01*
Y0211525D01*
Y0211425D01*
X1326450D01*
Y0211325D01*
Y0211225D01*
Y0211125D01*
Y0211025D01*
Y0210925D01*
Y0210825D01*
Y0210725D01*
Y0210625D01*
Y0210525D01*
Y0210425D01*
Y0210325D01*
Y0210225D01*
Y0210125D01*
Y0210025D01*
Y0209925D01*
Y0209825D01*
Y0209725D01*
Y0209625D01*
Y0209525D01*
Y0209425D01*
Y0209325D01*
Y0209225D01*
Y0209125D01*
Y0209025D01*
Y0208925D01*
Y0208825D01*
Y0208725D01*
Y0208625D01*
Y0208525D01*
Y0208425D01*
Y0208325D01*
Y0208225D01*
Y0208125D01*
Y0208025D01*
Y0207925D01*
Y0207825D01*
Y0207725D01*
Y0207625D01*
Y0207525D01*
Y0207425D01*
Y0207325D01*
Y0207225D01*
Y0207125D01*
Y0207025D01*
Y0206925D01*
Y0206825D01*
Y0206725D01*
Y0206625D01*
Y0206525D01*
Y0206425D01*
Y0206325D01*
Y0206225D01*
Y0206125D01*
Y0206025D01*
Y0205925D01*
Y0205825D01*
Y0205725D01*
Y0205625D01*
Y0205525D01*
Y0205425D01*
Y0205325D01*
Y0205225D01*
Y0205125D01*
Y0205025D01*
Y0204925D01*
Y0204825D01*
Y0204725D01*
Y0204625D01*
Y0204525D01*
Y0204425D01*
Y0204325D01*
Y0204225D01*
Y0204125D01*
Y0204025D01*
Y0203925D01*
Y0203825D01*
Y0203725D01*
Y0203625D01*
Y0203525D01*
Y0203425D01*
Y0203325D01*
Y0203225D01*
Y0203125D01*
Y0203025D01*
X1326550D01*
Y0202925D01*
Y0202825D01*
Y0202725D01*
X1326650D01*
Y0202625D01*
X1326750D01*
Y0202525D01*
X1326950D01*
Y0202425D01*
X1327250D01*
Y0202325D01*
X1327350D01*
Y0202225D01*
Y0202125D01*
Y0202025D01*
X1323750D01*
Y0202125D01*
Y0202225D01*
Y0202325D01*
X1323850D01*
Y0202425D01*
X1324150D01*
Y0202525D01*
X1324350D01*
Y0202625D01*
X1324450D01*
Y0202725D01*
Y0202825D01*
X1324550D01*
Y0202925D01*
Y0203025D01*
Y0203125D01*
X1324650D01*
Y0203225D01*
Y0203325D01*
Y0203425D01*
Y0203525D01*
Y0203625D01*
Y0203725D01*
Y0203825D01*
Y0203925D01*
Y0204025D01*
Y0204125D01*
Y0204225D01*
Y0204325D01*
Y0204425D01*
Y0204525D01*
Y0204625D01*
Y0204725D01*
Y0204825D01*
Y0204925D01*
Y0205025D01*
Y0205125D01*
Y0205225D01*
Y0205325D01*
Y0205425D01*
Y0205525D01*
Y0205625D01*
Y0205725D01*
Y0205825D01*
Y0205925D01*
Y0206025D01*
Y0206125D01*
Y0206225D01*
Y0206325D01*
Y0206425D01*
Y0206525D01*
Y0206625D01*
Y0206725D01*
Y0206825D01*
Y0206925D01*
Y0207025D01*
Y0207125D01*
Y0207225D01*
Y0207325D01*
Y0207425D01*
Y0207525D01*
Y0207625D01*
Y0207725D01*
Y0207825D01*
Y0207925D01*
Y0208025D01*
Y0208125D01*
Y0208225D01*
Y0208325D01*
Y0208425D01*
Y0208525D01*
Y0208625D01*
Y0208725D01*
Y0208825D01*
Y0208925D01*
Y0209025D01*
Y0209125D01*
Y0209225D01*
Y0209325D01*
Y0209425D01*
Y0209525D01*
Y0209625D01*
Y0209725D01*
Y0209825D01*
Y0209925D01*
Y0210025D01*
Y0210125D01*
Y0210225D01*
Y0210325D01*
Y0210425D01*
Y0210525D01*
Y0210625D01*
Y0210725D01*
Y0210825D01*
Y0210925D01*
Y0211025D01*
Y0211125D01*
Y0211225D01*
Y0211325D01*
X1324550D01*
Y0211425D01*
Y0211525D01*
Y0211625D01*
X1324450D01*
Y0211725D01*
Y0211825D01*
X1324250D01*
Y0211925D01*
X1324150D01*
Y0212025D01*
X1323850D01*
Y0212125D01*
X1323750D01*
Y0212225D01*
Y0212325D01*
X1327350D01*
Y0212225D01*
D02*
G37*
G36*
X1355250Y0209825D02*
X1355750D01*
Y0209725D01*
X1356150D01*
Y0209625D01*
X1356350D01*
Y0209525D01*
X1356550D01*
Y0209425D01*
X1356650D01*
Y0209325D01*
X1356850D01*
Y0209225D01*
X1356950D01*
Y0209125D01*
X1357050D01*
Y0209025D01*
X1357150D01*
Y0208925D01*
Y0208825D01*
X1357250D01*
Y0208725D01*
Y0208625D01*
X1357350D01*
Y0208525D01*
Y0208425D01*
Y0208325D01*
X1357450D01*
Y0208225D01*
Y0208125D01*
Y0208025D01*
Y0207925D01*
Y0207825D01*
Y0207725D01*
Y0207625D01*
Y0207525D01*
Y0207425D01*
Y0207325D01*
Y0207225D01*
X1357350D01*
Y0207125D01*
Y0207025D01*
Y0206925D01*
X1357250D01*
Y0206825D01*
Y0206725D01*
X1357150D01*
Y0206625D01*
Y0206525D01*
X1357050D01*
Y0206425D01*
X1356950D01*
Y0206325D01*
X1356850D01*
Y0206225D01*
X1356650D01*
Y0206125D01*
X1356550D01*
Y0206025D01*
X1356350D01*
Y0205925D01*
X1356150D01*
Y0205825D01*
X1355850D01*
Y0205725D01*
X1355450D01*
Y0205625D01*
X1355650D01*
Y0205525D01*
X1355850D01*
Y0205425D01*
X1356050D01*
Y0205325D01*
X1356150D01*
Y0205225D01*
X1356250D01*
Y0205125D01*
X1356350D01*
Y0205025D01*
X1356450D01*
Y0204925D01*
X1356550D01*
Y0204825D01*
X1356650D01*
Y0204725D01*
X1356750D01*
Y0204625D01*
Y0204525D01*
X1356850D01*
Y0204425D01*
X1356950D01*
Y0204325D01*
Y0204225D01*
X1357050D01*
Y0204125D01*
Y0204025D01*
X1357150D01*
Y0203925D01*
X1357250D01*
Y0203825D01*
Y0203725D01*
X1357350D01*
Y0203625D01*
Y0203525D01*
X1357450D01*
Y0203425D01*
X1357550D01*
Y0203325D01*
Y0203225D01*
X1357650D01*
Y0203125D01*
X1357750D01*
Y0203025D01*
X1357850D01*
Y0202925D01*
X1357950D01*
Y0202825D01*
X1358050D01*
Y0202725D01*
X1358150D01*
Y0202625D01*
X1358350D01*
Y0202525D01*
X1358650D01*
Y0202425D01*
X1358850D01*
Y0202325D01*
Y0202225D01*
Y0202125D01*
X1358650D01*
Y0202025D01*
X1358350D01*
Y0201925D01*
X1357150D01*
Y0202025D01*
X1356750D01*
Y0202125D01*
X1356550D01*
Y0202225D01*
X1356350D01*
Y0202325D01*
X1356150D01*
Y0202425D01*
X1356050D01*
Y0202525D01*
X1355950D01*
Y0202625D01*
X1355850D01*
Y0202725D01*
X1355750D01*
Y0202825D01*
X1355650D01*
Y0202925D01*
Y0203025D01*
X1355550D01*
Y0203125D01*
X1355450D01*
Y0203225D01*
Y0203325D01*
X1355350D01*
Y0203425D01*
Y0203525D01*
X1355250D01*
Y0203625D01*
Y0203725D01*
X1355150D01*
Y0203825D01*
Y0203925D01*
X1355050D01*
Y0204025D01*
Y0204125D01*
X1354950D01*
Y0204225D01*
Y0204325D01*
X1354850D01*
Y0204425D01*
Y0204525D01*
X1354750D01*
Y0204625D01*
Y0204725D01*
X1354650D01*
Y0204825D01*
X1354550D01*
Y0204925D01*
X1354450D01*
Y0205025D01*
X1354350D01*
Y0205125D01*
X1354250D01*
Y0205225D01*
X1353950D01*
Y0205325D01*
X1352750D01*
Y0205225D01*
Y0205125D01*
Y0205025D01*
Y0204925D01*
Y0204825D01*
Y0204725D01*
Y0204625D01*
Y0204525D01*
Y0204425D01*
Y0204325D01*
Y0204225D01*
Y0204125D01*
Y0204025D01*
Y0203925D01*
Y0203825D01*
Y0203725D01*
Y0203625D01*
Y0203525D01*
Y0203425D01*
Y0203325D01*
Y0203225D01*
Y0203125D01*
Y0203025D01*
Y0202925D01*
X1352850D01*
Y0202825D01*
Y0202725D01*
Y0202625D01*
X1352950D01*
Y0202525D01*
X1353150D01*
Y0202425D01*
X1353450D01*
Y0202325D01*
X1353550D01*
Y0202225D01*
Y0202125D01*
Y0202025D01*
X1350250D01*
Y0202125D01*
Y0202225D01*
Y0202325D01*
X1350350D01*
Y0202425D01*
X1350650D01*
Y0202525D01*
X1350750D01*
Y0202625D01*
X1350850D01*
Y0202725D01*
Y0202825D01*
X1350950D01*
Y0202925D01*
Y0203025D01*
Y0203125D01*
Y0203225D01*
Y0203325D01*
Y0203425D01*
Y0203525D01*
Y0203625D01*
Y0203725D01*
Y0203825D01*
Y0203925D01*
Y0204025D01*
Y0204125D01*
Y0204225D01*
Y0204325D01*
Y0204425D01*
Y0204525D01*
Y0204625D01*
Y0204725D01*
Y0204825D01*
Y0204925D01*
Y0205025D01*
Y0205125D01*
Y0205225D01*
Y0205325D01*
Y0205425D01*
Y0205525D01*
Y0205625D01*
Y0205725D01*
Y0205825D01*
Y0205925D01*
Y0206025D01*
Y0206125D01*
Y0206225D01*
Y0206325D01*
Y0206425D01*
Y0206525D01*
Y0206625D01*
Y0206725D01*
Y0206825D01*
Y0206925D01*
Y0207025D01*
Y0207125D01*
Y0207225D01*
Y0207325D01*
Y0207425D01*
Y0207525D01*
Y0207625D01*
Y0207725D01*
Y0207825D01*
Y0207925D01*
Y0208025D01*
Y0208125D01*
Y0208225D01*
Y0208325D01*
Y0208425D01*
Y0208525D01*
Y0208625D01*
Y0208725D01*
Y0208825D01*
Y0208925D01*
Y0209025D01*
Y0209125D01*
Y0209225D01*
X1350850D01*
Y0209325D01*
X1350750D01*
Y0209425D01*
X1350650D01*
Y0209525D01*
X1350450D01*
Y0209625D01*
X1350250D01*
Y0209725D01*
Y0209825D01*
Y0209925D01*
X1355250D01*
Y0209825D01*
D02*
G37*
G36*
X1304950Y0228825D02*
Y0228725D01*
Y0228625D01*
Y0228525D01*
Y0228425D01*
Y0228325D01*
Y0228225D01*
Y0228125D01*
Y0228025D01*
Y0227925D01*
Y0227825D01*
Y0227725D01*
Y0227625D01*
Y0227525D01*
Y0227425D01*
Y0227325D01*
Y0227225D01*
Y0227125D01*
Y0227025D01*
Y0226925D01*
Y0226825D01*
Y0226725D01*
Y0226625D01*
Y0226525D01*
Y0226425D01*
Y0226325D01*
Y0226225D01*
Y0226125D01*
Y0226025D01*
Y0225925D01*
Y0225825D01*
Y0225725D01*
Y0225625D01*
Y0225525D01*
Y0225425D01*
Y0225325D01*
Y0225225D01*
Y0225125D01*
Y0225025D01*
Y0224925D01*
Y0224825D01*
Y0224725D01*
Y0224625D01*
Y0224525D01*
Y0224425D01*
Y0224325D01*
X1306550D01*
Y0224225D01*
X1306450D01*
Y0224125D01*
Y0224025D01*
Y0223925D01*
Y0223825D01*
Y0223725D01*
X1306350D01*
Y0223625D01*
Y0223525D01*
Y0223425D01*
Y0223325D01*
Y0223225D01*
X1306250D01*
Y0223125D01*
Y0223025D01*
Y0222925D01*
Y0222825D01*
Y0222725D01*
X1306150D01*
Y0222625D01*
Y0222525D01*
Y0222425D01*
Y0222325D01*
Y0222225D01*
X1306050D01*
Y0222125D01*
Y0222025D01*
Y0221925D01*
Y0221825D01*
Y0221725D01*
X1305950D01*
Y0221625D01*
Y0221525D01*
Y0221425D01*
Y0221325D01*
X1304250D01*
Y0221225D01*
Y0221125D01*
Y0221025D01*
X1304150D01*
Y0220925D01*
Y0220825D01*
Y0220725D01*
Y0220625D01*
Y0220525D01*
X1304050D01*
Y0220425D01*
Y0220325D01*
Y0220225D01*
Y0220125D01*
Y0220025D01*
X1303950D01*
Y0219925D01*
Y0219825D01*
Y0219725D01*
Y0219625D01*
Y0219525D01*
X1303850D01*
Y0219425D01*
Y0219325D01*
Y0219225D01*
Y0219125D01*
Y0219025D01*
X1303750D01*
Y0218925D01*
Y0218825D01*
Y0218725D01*
Y0218625D01*
Y0218525D01*
X1305350D01*
Y0218425D01*
Y0218325D01*
Y0218225D01*
Y0218125D01*
X1305250D01*
Y0218025D01*
Y0217925D01*
Y0217825D01*
Y0217725D01*
Y0217625D01*
X1305150D01*
Y0217525D01*
Y0217425D01*
Y0217325D01*
Y0217225D01*
Y0217125D01*
X1305050D01*
Y0217025D01*
Y0216925D01*
Y0216825D01*
Y0216725D01*
Y0216625D01*
X1304950D01*
Y0216525D01*
Y0216425D01*
Y0216325D01*
Y0216225D01*
Y0216125D01*
X1304850D01*
Y0216025D01*
Y0215925D01*
Y0215825D01*
Y0215725D01*
Y0215625D01*
X1304750D01*
Y0215525D01*
Y0215425D01*
Y0215325D01*
Y0215225D01*
Y0215125D01*
X1304650D01*
Y0215025D01*
Y0214925D01*
Y0214825D01*
Y0214725D01*
Y0214625D01*
X1304550D01*
Y0214525D01*
Y0214425D01*
Y0214325D01*
Y0214225D01*
Y0214125D01*
X1304450D01*
Y0214025D01*
Y0213925D01*
Y0213825D01*
Y0213725D01*
Y0213625D01*
X1304350D01*
Y0213525D01*
Y0213425D01*
Y0213325D01*
Y0213225D01*
Y0213125D01*
X1304250D01*
Y0213025D01*
Y0212925D01*
Y0212825D01*
Y0212725D01*
Y0212625D01*
Y0212525D01*
Y0212425D01*
Y0212325D01*
X1304350D01*
Y0212225D01*
Y0212125D01*
Y0212025D01*
X1304450D01*
Y0211925D01*
Y0211825D01*
X1304550D01*
Y0211725D01*
X1304650D01*
Y0211625D01*
X1304750D01*
Y0211525D01*
X1304950D01*
Y0211425D01*
X1305150D01*
Y0211325D01*
X1305550D01*
Y0211225D01*
X1306150D01*
Y0211125D01*
X1310050D01*
Y0211225D01*
Y0211325D01*
Y0211425D01*
X1310150D01*
Y0211525D01*
Y0211625D01*
Y0211725D01*
Y0211825D01*
Y0211925D01*
X1310250D01*
Y0212025D01*
Y0212125D01*
Y0212225D01*
Y0212325D01*
Y0212425D01*
X1310350D01*
Y0212525D01*
Y0212625D01*
Y0212725D01*
Y0212825D01*
Y0212925D01*
X1310450D01*
Y0213025D01*
Y0213125D01*
Y0213225D01*
Y0213325D01*
Y0213425D01*
X1310550D01*
Y0213525D01*
Y0213625D01*
Y0213725D01*
Y0213825D01*
Y0213925D01*
X1310650D01*
Y0214025D01*
Y0214125D01*
X1309350D01*
Y0214225D01*
X1309150D01*
Y0214325D01*
X1309050D01*
Y0214425D01*
Y0214525D01*
Y0214625D01*
Y0214725D01*
Y0214825D01*
Y0214925D01*
Y0215025D01*
Y0215125D01*
Y0215225D01*
X1309150D01*
Y0215325D01*
Y0215425D01*
Y0215525D01*
Y0215625D01*
X1309250D01*
Y0215725D01*
Y0215825D01*
Y0215925D01*
Y0216025D01*
Y0216125D01*
X1309350D01*
Y0216225D01*
Y0216325D01*
Y0216425D01*
Y0216525D01*
Y0216625D01*
X1309450D01*
Y0216725D01*
Y0216825D01*
Y0216925D01*
Y0217025D01*
Y0217125D01*
X1309550D01*
Y0217225D01*
Y0217325D01*
Y0217425D01*
Y0217525D01*
Y0217625D01*
X1309650D01*
Y0217725D01*
Y0217825D01*
Y0217925D01*
Y0218025D01*
Y0218125D01*
X1309750D01*
Y0218225D01*
Y0218325D01*
Y0218425D01*
Y0218525D01*
X1311550D01*
Y0218625D01*
Y0218725D01*
Y0218825D01*
Y0218925D01*
Y0219025D01*
X1311650D01*
Y0219125D01*
Y0219225D01*
Y0219325D01*
Y0219425D01*
Y0219525D01*
X1311750D01*
Y0219625D01*
Y0219725D01*
Y0219825D01*
Y0219925D01*
Y0220025D01*
X1311850D01*
Y0220125D01*
Y0220225D01*
Y0220325D01*
Y0220425D01*
Y0220525D01*
X1311950D01*
Y0220625D01*
Y0220725D01*
Y0220825D01*
Y0220925D01*
Y0221025D01*
X1312050D01*
Y0221125D01*
Y0221225D01*
Y0221325D01*
X1310350D01*
Y0221425D01*
Y0221525D01*
Y0221625D01*
X1310450D01*
Y0221725D01*
Y0221825D01*
Y0221925D01*
Y0222025D01*
Y0222125D01*
X1310550D01*
Y0222225D01*
Y0222325D01*
Y0222425D01*
Y0222525D01*
Y0222625D01*
X1310650D01*
Y0222725D01*
Y0222825D01*
Y0222925D01*
Y0223025D01*
Y0223125D01*
X1310750D01*
Y0223225D01*
Y0223325D01*
Y0223425D01*
Y0223525D01*
Y0223625D01*
X1310850D01*
Y0223725D01*
Y0223825D01*
Y0223925D01*
Y0224025D01*
Y0224125D01*
X1310950D01*
Y0224225D01*
Y0224325D01*
X1315750D01*
Y0224225D01*
Y0224125D01*
Y0224025D01*
Y0223925D01*
Y0223825D01*
Y0223725D01*
Y0223625D01*
Y0223525D01*
Y0223425D01*
Y0223325D01*
Y0223225D01*
Y0223125D01*
Y0223025D01*
Y0222925D01*
Y0222825D01*
Y0222725D01*
Y0222625D01*
Y0222525D01*
Y0222425D01*
Y0222325D01*
Y0222225D01*
Y0222125D01*
Y0222025D01*
Y0221925D01*
Y0221825D01*
Y0221725D01*
Y0221625D01*
Y0221525D01*
Y0221425D01*
Y0221325D01*
Y0221225D01*
Y0221125D01*
Y0221025D01*
Y0220925D01*
X1315850D01*
Y0220825D01*
Y0220725D01*
Y0220625D01*
Y0220525D01*
Y0220425D01*
X1315950D01*
Y0220325D01*
Y0220225D01*
Y0220125D01*
Y0220025D01*
X1316050D01*
Y0219925D01*
Y0219825D01*
X1316150D01*
Y0219725D01*
Y0219625D01*
X1316250D01*
Y0219525D01*
Y0219425D01*
X1316350D01*
Y0219325D01*
X1316450D01*
Y0219225D01*
Y0219125D01*
X1316550D01*
Y0219025D01*
X1316650D01*
Y0218925D01*
X1316750D01*
Y0218825D01*
X1316850D01*
Y0218725D01*
X1317050D01*
Y0218625D01*
X1317150D01*
Y0218525D01*
Y0218425D01*
Y0218325D01*
Y0218225D01*
Y0218125D01*
Y0218025D01*
Y0217925D01*
Y0217825D01*
Y0217725D01*
Y0217625D01*
Y0217525D01*
Y0217425D01*
Y0217325D01*
Y0217225D01*
Y0217125D01*
Y0217025D01*
Y0216925D01*
Y0216825D01*
Y0216725D01*
Y0216625D01*
Y0216525D01*
Y0216425D01*
Y0216325D01*
Y0216225D01*
Y0216125D01*
Y0216025D01*
Y0215925D01*
Y0215825D01*
Y0215725D01*
Y0215625D01*
Y0215525D01*
Y0215425D01*
Y0215325D01*
Y0215225D01*
Y0215125D01*
Y0215025D01*
Y0214925D01*
Y0214825D01*
Y0214725D01*
Y0214625D01*
Y0214525D01*
Y0214425D01*
Y0214325D01*
Y0214225D01*
Y0214125D01*
Y0214025D01*
Y0213925D01*
Y0213825D01*
Y0213725D01*
X1316950D01*
Y0213625D01*
X1316650D01*
Y0213525D01*
X1316250D01*
Y0213425D01*
X1315950D01*
Y0213325D01*
X1315650D01*
Y0213225D01*
X1315350D01*
Y0213125D01*
X1315150D01*
Y0213025D01*
X1314850D01*
Y0212925D01*
X1314650D01*
Y0212825D01*
X1314450D01*
Y0212725D01*
X1314250D01*
Y0212625D01*
X1314050D01*
Y0212525D01*
X1313850D01*
Y0212425D01*
X1313650D01*
Y0212325D01*
X1313450D01*
Y0212225D01*
X1313350D01*
Y0212125D01*
X1313150D01*
Y0212025D01*
X1312950D01*
Y0211925D01*
X1312850D01*
Y0211825D01*
X1312750D01*
Y0211725D01*
X1312550D01*
Y0211625D01*
X1312450D01*
Y0211525D01*
X1312350D01*
Y0211425D01*
X1312150D01*
Y0211325D01*
X1312050D01*
Y0211225D01*
X1311950D01*
Y0211125D01*
X1311850D01*
Y0211025D01*
X1311750D01*
Y0210925D01*
X1311650D01*
Y0210825D01*
X1311550D01*
Y0210725D01*
X1311450D01*
Y0210625D01*
X1311350D01*
Y0210525D01*
X1311250D01*
Y0210425D01*
X1311150D01*
Y0210325D01*
X1311050D01*
Y0210225D01*
Y0210125D01*
X1310950D01*
Y0210025D01*
X1310850D01*
Y0209925D01*
X1310750D01*
Y0209825D01*
Y0209725D01*
X1310650D01*
Y0209625D01*
X1310550D01*
Y0209525D01*
Y0209425D01*
X1310450D01*
Y0209325D01*
Y0209225D01*
X1310350D01*
Y0209125D01*
Y0209025D01*
X1310250D01*
Y0208925D01*
Y0208825D01*
X1310150D01*
Y0208725D01*
Y0208625D01*
Y0208525D01*
X1310050D01*
Y0208425D01*
Y0208325D01*
Y0208225D01*
Y0208125D01*
X1309950D01*
Y0208025D01*
Y0207925D01*
Y0207825D01*
Y0207725D01*
Y0207625D01*
Y0207525D01*
Y0207425D01*
Y0207325D01*
Y0207225D01*
Y0207125D01*
Y0207025D01*
Y0206925D01*
Y0206825D01*
Y0206725D01*
Y0206625D01*
X1310050D01*
Y0206525D01*
Y0206425D01*
Y0206325D01*
Y0206225D01*
Y0206125D01*
X1310150D01*
Y0206025D01*
Y0205925D01*
Y0205825D01*
Y0205725D01*
X1310250D01*
Y0205625D01*
Y0205525D01*
Y0205425D01*
X1310350D01*
Y0205325D01*
Y0205225D01*
X1310450D01*
Y0205125D01*
Y0205025D01*
X1310250D01*
Y0204925D01*
X1309950D01*
Y0204825D01*
X1309450D01*
Y0204725D01*
X1308350D01*
Y0204825D01*
X1307850D01*
Y0204925D01*
X1307550D01*
Y0205025D01*
X1307250D01*
Y0205125D01*
X1307050D01*
Y0205225D01*
X1306850D01*
Y0205325D01*
X1306750D01*
Y0205425D01*
X1306550D01*
Y0205525D01*
X1306450D01*
Y0205625D01*
X1306250D01*
Y0205725D01*
X1306150D01*
Y0205825D01*
X1306050D01*
Y0205925D01*
X1305850D01*
Y0206025D01*
X1305750D01*
Y0206125D01*
X1305650D01*
Y0206225D01*
X1305550D01*
Y0206325D01*
X1305450D01*
Y0206425D01*
X1305350D01*
Y0206525D01*
X1305250D01*
Y0206625D01*
X1305150D01*
Y0206725D01*
Y0206825D01*
X1305050D01*
Y0206925D01*
X1304950D01*
Y0207025D01*
X1304850D01*
Y0207125D01*
X1304750D01*
Y0207225D01*
Y0207325D01*
X1304650D01*
Y0207425D01*
X1304550D01*
Y0207525D01*
Y0207625D01*
X1304450D01*
Y0207725D01*
Y0207825D01*
X1304350D01*
Y0207925D01*
X1304250D01*
Y0208025D01*
Y0208125D01*
X1304150D01*
Y0208225D01*
Y0208325D01*
X1304050D01*
Y0208425D01*
Y0208525D01*
X1303950D01*
Y0208625D01*
Y0208725D01*
X1303850D01*
Y0208825D01*
Y0208925D01*
X1303750D01*
Y0209025D01*
Y0209125D01*
X1303650D01*
Y0209225D01*
Y0209325D01*
X1303550D01*
Y0209425D01*
Y0209525D01*
X1303450D01*
Y0209625D01*
Y0209725D01*
X1303350D01*
Y0209825D01*
Y0209925D01*
X1303250D01*
Y0210025D01*
Y0210125D01*
Y0210225D01*
X1303150D01*
Y0210325D01*
Y0210425D01*
X1303050D01*
Y0210525D01*
Y0210625D01*
X1302950D01*
Y0210725D01*
Y0210825D01*
X1302850D01*
Y0210925D01*
Y0211025D01*
X1302750D01*
Y0211125D01*
Y0211225D01*
X1302650D01*
Y0211325D01*
Y0211425D01*
X1302550D01*
Y0211525D01*
Y0211625D01*
X1302450D01*
Y0211725D01*
Y0211825D01*
X1302350D01*
Y0211925D01*
Y0212025D01*
X1302250D01*
Y0212125D01*
Y0212225D01*
X1302150D01*
Y0212325D01*
X1302050D01*
Y0212425D01*
Y0212525D01*
X1301950D01*
Y0212625D01*
X1301850D01*
Y0212725D01*
X1301750D01*
Y0212825D01*
X1301650D01*
Y0212925D01*
X1301550D01*
Y0213025D01*
X1301450D01*
Y0213125D01*
X1301350D01*
Y0213225D01*
X1301150D01*
Y0213325D01*
X1300750D01*
Y0213425D01*
X1300550D01*
Y0213325D01*
X1300050D01*
Y0213225D01*
X1299850D01*
Y0213125D01*
X1299650D01*
Y0213025D01*
X1299550D01*
Y0212925D01*
X1299450D01*
Y0212825D01*
X1299350D01*
Y0212725D01*
X1299250D01*
Y0212625D01*
X1299150D01*
Y0212525D01*
X1299050D01*
Y0212425D01*
X1298950D01*
Y0212325D01*
X1298850D01*
Y0212225D01*
X1298750D01*
Y0212125D01*
X1298650D01*
Y0212025D01*
X1298550D01*
Y0211925D01*
X1298350D01*
Y0211825D01*
X1297550D01*
Y0211925D01*
X1297250D01*
Y0212025D01*
X1297050D01*
Y0212125D01*
X1296950D01*
Y0212225D01*
X1296850D01*
Y0212325D01*
X1296650D01*
Y0212425D01*
Y0212525D01*
X1296550D01*
Y0212625D01*
X1296450D01*
Y0212725D01*
X1296350D01*
Y0212825D01*
Y0212925D01*
X1296250D01*
Y0213025D01*
Y0213125D01*
X1296150D01*
Y0213225D01*
Y0213325D01*
X1296050D01*
Y0213425D01*
Y0213525D01*
X1295950D01*
Y0213625D01*
Y0213725D01*
X1295850D01*
Y0213825D01*
Y0213925D01*
X1295750D01*
Y0214025D01*
Y0214125D01*
Y0214225D01*
X1295650D01*
Y0214325D01*
Y0214425D01*
X1295550D01*
Y0214525D01*
Y0214625D01*
Y0214725D01*
X1295450D01*
Y0214825D01*
Y0214925D01*
X1295350D01*
Y0215025D01*
Y0215125D01*
Y0215225D01*
X1295250D01*
Y0215325D01*
X1295150D01*
Y0215425D01*
Y0215525D01*
X1295050D01*
Y0215625D01*
X1294950D01*
Y0215725D01*
Y0215825D01*
X1294850D01*
Y0215925D01*
X1294750D01*
Y0216025D01*
X1294650D01*
Y0216125D01*
X1294550D01*
Y0216225D01*
X1294450D01*
Y0216325D01*
X1294350D01*
Y0216425D01*
X1294250D01*
Y0216525D01*
X1294150D01*
Y0216625D01*
X1294050D01*
Y0216725D01*
X1293950D01*
Y0216825D01*
X1293750D01*
Y0216925D01*
X1293650D01*
Y0217025D01*
X1293550D01*
Y0217125D01*
X1293450D01*
Y0217225D01*
X1293350D01*
Y0217325D01*
X1293250D01*
Y0217425D01*
X1293150D01*
Y0217525D01*
X1293050D01*
Y0217625D01*
X1292950D01*
Y0217725D01*
Y0217825D01*
X1292850D01*
Y0217925D01*
X1292750D01*
Y0218025D01*
Y0218125D01*
X1292650D01*
Y0218225D01*
Y0218325D01*
X1292550D01*
Y0218425D01*
Y0218525D01*
X1292450D01*
Y0218625D01*
Y0218725D01*
X1292350D01*
Y0218825D01*
Y0218925D01*
Y0219025D01*
Y0219125D01*
X1292250D01*
Y0219225D01*
Y0219325D01*
Y0219425D01*
Y0219525D01*
Y0219625D01*
X1299150D01*
Y0219725D01*
Y0219825D01*
Y0219925D01*
Y0220025D01*
Y0220125D01*
Y0220225D01*
Y0220325D01*
Y0220425D01*
Y0220525D01*
Y0220625D01*
Y0220725D01*
Y0220825D01*
Y0220925D01*
Y0221025D01*
Y0221125D01*
Y0221225D01*
Y0221325D01*
Y0221425D01*
Y0221525D01*
Y0221625D01*
Y0221725D01*
Y0221825D01*
Y0221925D01*
Y0222025D01*
Y0222125D01*
Y0222225D01*
Y0222325D01*
Y0222425D01*
Y0222525D01*
Y0222625D01*
Y0222725D01*
Y0222825D01*
Y0222925D01*
Y0223025D01*
Y0223125D01*
Y0223225D01*
Y0223325D01*
Y0223425D01*
Y0223525D01*
Y0223625D01*
Y0223725D01*
Y0223825D01*
Y0223925D01*
Y0224025D01*
Y0224125D01*
Y0224225D01*
Y0224325D01*
Y0224425D01*
Y0224525D01*
Y0224625D01*
Y0224725D01*
Y0224825D01*
Y0224925D01*
Y0225025D01*
Y0225125D01*
Y0225225D01*
Y0225325D01*
Y0225425D01*
Y0225525D01*
Y0225625D01*
Y0225725D01*
Y0225825D01*
Y0225925D01*
Y0226025D01*
Y0226125D01*
Y0226225D01*
Y0226325D01*
Y0226425D01*
Y0226525D01*
Y0226625D01*
Y0226725D01*
Y0226825D01*
Y0226925D01*
Y0227025D01*
Y0227125D01*
Y0227225D01*
Y0227325D01*
Y0227425D01*
Y0227525D01*
Y0227625D01*
Y0227725D01*
Y0227825D01*
Y0227925D01*
Y0228025D01*
Y0228125D01*
Y0228225D01*
Y0228325D01*
Y0228425D01*
Y0228525D01*
Y0228625D01*
Y0228725D01*
Y0228825D01*
Y0228925D01*
X1304950D01*
Y0228825D01*
D02*
G37*
G36*
X1366450Y0209825D02*
Y0209725D01*
Y0209625D01*
X1366150D01*
Y0209525D01*
X1366050D01*
Y0209425D01*
X1365950D01*
Y0209325D01*
X1365850D01*
Y0209225D01*
Y0209125D01*
X1365750D01*
Y0209025D01*
Y0208925D01*
Y0208825D01*
Y0208725D01*
Y0208625D01*
Y0208525D01*
Y0208425D01*
Y0208325D01*
Y0208225D01*
Y0208125D01*
Y0208025D01*
Y0207925D01*
Y0207825D01*
Y0207725D01*
Y0207625D01*
Y0207525D01*
Y0207425D01*
Y0207325D01*
Y0207225D01*
Y0207125D01*
Y0207025D01*
Y0206925D01*
Y0206825D01*
Y0206725D01*
Y0206625D01*
Y0206525D01*
Y0206425D01*
Y0206325D01*
Y0206225D01*
Y0206125D01*
Y0206025D01*
Y0205925D01*
Y0205825D01*
Y0205725D01*
Y0205625D01*
Y0205525D01*
Y0205425D01*
Y0205325D01*
Y0205225D01*
Y0205125D01*
Y0205025D01*
Y0204925D01*
Y0204825D01*
Y0204725D01*
Y0204625D01*
Y0204525D01*
Y0204425D01*
Y0204325D01*
Y0204225D01*
Y0204125D01*
X1365650D01*
Y0204025D01*
Y0203925D01*
Y0203825D01*
Y0203725D01*
Y0203625D01*
X1365550D01*
Y0203525D01*
Y0203425D01*
X1365450D01*
Y0203325D01*
Y0203225D01*
X1365350D01*
Y0203125D01*
Y0203025D01*
X1365250D01*
Y0202925D01*
X1365150D01*
Y0202825D01*
Y0202725D01*
X1365050D01*
Y0202625D01*
X1364950D01*
Y0202525D01*
X1364750D01*
Y0202425D01*
X1364650D01*
Y0202325D01*
X1364450D01*
Y0202225D01*
X1364150D01*
Y0202125D01*
X1363850D01*
Y0202025D01*
X1363250D01*
Y0201925D01*
X1361650D01*
Y0202025D01*
X1361050D01*
Y0202125D01*
X1360750D01*
Y0202225D01*
X1360450D01*
Y0202325D01*
X1360250D01*
Y0202425D01*
X1360050D01*
Y0202525D01*
X1359950D01*
Y0202625D01*
X1359750D01*
Y0202725D01*
X1359650D01*
Y0202825D01*
X1359550D01*
Y0202925D01*
X1359450D01*
Y0203025D01*
X1359350D01*
Y0203125D01*
Y0203225D01*
X1359250D01*
Y0203325D01*
X1359150D01*
Y0203425D01*
Y0203525D01*
X1359050D01*
Y0203625D01*
Y0203725D01*
Y0203825D01*
X1358950D01*
Y0203925D01*
Y0204025D01*
Y0204125D01*
Y0204225D01*
Y0204325D01*
Y0204425D01*
Y0204525D01*
Y0204625D01*
Y0204725D01*
Y0204825D01*
Y0204925D01*
Y0205025D01*
Y0205125D01*
Y0205225D01*
Y0205325D01*
Y0205425D01*
Y0205525D01*
Y0205625D01*
Y0205725D01*
Y0205825D01*
Y0205925D01*
Y0206025D01*
Y0206125D01*
Y0206225D01*
Y0206325D01*
Y0206425D01*
Y0206525D01*
Y0206625D01*
Y0206725D01*
Y0206825D01*
Y0206925D01*
Y0207025D01*
Y0207125D01*
Y0207225D01*
Y0207325D01*
Y0207425D01*
Y0207525D01*
Y0207625D01*
Y0207725D01*
Y0207825D01*
Y0207925D01*
Y0208025D01*
Y0208125D01*
Y0208225D01*
Y0208325D01*
Y0208425D01*
Y0208525D01*
Y0208625D01*
Y0208725D01*
Y0208825D01*
Y0208925D01*
X1358850D01*
Y0209025D01*
Y0209125D01*
Y0209225D01*
X1358750D01*
Y0209325D01*
Y0209425D01*
X1358650D01*
Y0209525D01*
X1358450D01*
Y0209625D01*
X1358150D01*
Y0209725D01*
Y0209825D01*
Y0209925D01*
X1361350D01*
Y0209825D01*
Y0209725D01*
Y0209625D01*
X1361050D01*
Y0209525D01*
X1360850D01*
Y0209425D01*
X1360750D01*
Y0209325D01*
Y0209225D01*
X1360650D01*
Y0209125D01*
Y0209025D01*
Y0208925D01*
Y0208825D01*
X1360550D01*
Y0208725D01*
Y0208625D01*
Y0208525D01*
Y0208425D01*
Y0208325D01*
Y0208225D01*
Y0208125D01*
Y0208025D01*
Y0207925D01*
Y0207825D01*
Y0207725D01*
Y0207625D01*
Y0207525D01*
Y0207425D01*
Y0207325D01*
Y0207225D01*
Y0207125D01*
Y0207025D01*
Y0206925D01*
Y0206825D01*
Y0206725D01*
Y0206625D01*
Y0206525D01*
Y0206425D01*
Y0206325D01*
Y0206225D01*
Y0206125D01*
Y0206025D01*
Y0205925D01*
Y0205825D01*
Y0205725D01*
Y0205625D01*
Y0205525D01*
Y0205425D01*
Y0205325D01*
Y0205225D01*
Y0205125D01*
Y0205025D01*
Y0204925D01*
Y0204825D01*
Y0204725D01*
Y0204625D01*
Y0204525D01*
X1360650D01*
Y0204425D01*
Y0204325D01*
Y0204225D01*
Y0204125D01*
Y0204025D01*
X1360750D01*
Y0203925D01*
Y0203825D01*
Y0203725D01*
X1360850D01*
Y0203625D01*
Y0203525D01*
X1360950D01*
Y0203425D01*
X1361050D01*
Y0203325D01*
X1361150D01*
Y0203225D01*
X1361350D01*
Y0203125D01*
X1361550D01*
Y0203025D01*
X1361950D01*
Y0202925D01*
X1363350D01*
Y0203025D01*
X1363750D01*
Y0203125D01*
X1363950D01*
Y0203225D01*
X1364050D01*
Y0203325D01*
X1364150D01*
Y0203425D01*
X1364250D01*
Y0203525D01*
X1364350D01*
Y0203625D01*
X1364450D01*
Y0203725D01*
Y0203825D01*
Y0203925D01*
X1364550D01*
Y0204025D01*
Y0204125D01*
Y0204225D01*
Y0204325D01*
X1364650D01*
Y0204425D01*
Y0204525D01*
Y0204625D01*
Y0204725D01*
Y0204825D01*
Y0204925D01*
Y0205025D01*
Y0205125D01*
Y0205225D01*
Y0205325D01*
Y0205425D01*
Y0205525D01*
Y0205625D01*
Y0205725D01*
Y0205825D01*
Y0205925D01*
Y0206025D01*
Y0206125D01*
Y0206225D01*
Y0206325D01*
Y0206425D01*
Y0206525D01*
Y0206625D01*
Y0206725D01*
Y0206825D01*
Y0206925D01*
Y0207025D01*
Y0207125D01*
Y0207225D01*
Y0207325D01*
Y0207425D01*
Y0207525D01*
Y0207625D01*
Y0207725D01*
Y0207825D01*
Y0207925D01*
Y0208025D01*
Y0208125D01*
Y0208225D01*
Y0208325D01*
Y0208425D01*
Y0208525D01*
Y0208625D01*
Y0208725D01*
Y0208825D01*
Y0208925D01*
X1364550D01*
Y0209025D01*
Y0209125D01*
Y0209225D01*
X1364450D01*
Y0209325D01*
Y0209425D01*
X1364350D01*
Y0209525D01*
X1364150D01*
Y0209625D01*
X1363850D01*
Y0209725D01*
Y0209825D01*
Y0209925D01*
X1366450D01*
Y0209825D01*
D02*
G37*
G36*
X1399950D02*
X1400050D01*
Y0209725D01*
Y0209625D01*
Y0209525D01*
X1400150D01*
Y0209425D01*
Y0209325D01*
Y0209225D01*
X1400250D01*
Y0209125D01*
Y0209025D01*
Y0208925D01*
X1400350D01*
Y0208825D01*
Y0208725D01*
Y0208625D01*
Y0208525D01*
X1400450D01*
Y0208425D01*
Y0208325D01*
Y0208225D01*
X1400550D01*
Y0208125D01*
Y0208025D01*
Y0207925D01*
Y0207825D01*
X1400250D01*
Y0207925D01*
Y0208025D01*
X1400150D01*
Y0208125D01*
X1400050D01*
Y0208225D01*
X1399950D01*
Y0208325D01*
X1399850D01*
Y0208425D01*
X1399750D01*
Y0208525D01*
X1399650D01*
Y0208625D01*
X1399550D01*
Y0208725D01*
X1399450D01*
Y0208825D01*
X1399150D01*
Y0208925D01*
X1398750D01*
Y0209025D01*
X1397850D01*
Y0208925D01*
X1397750D01*
Y0208825D01*
X1397650D01*
Y0208725D01*
Y0208625D01*
Y0208525D01*
Y0208425D01*
Y0208325D01*
Y0208225D01*
Y0208125D01*
Y0208025D01*
Y0207925D01*
Y0207825D01*
Y0207725D01*
Y0207625D01*
Y0207525D01*
Y0207425D01*
Y0207325D01*
Y0207225D01*
Y0207125D01*
Y0207025D01*
Y0206925D01*
Y0206825D01*
Y0206725D01*
Y0206625D01*
Y0206525D01*
Y0206425D01*
Y0206325D01*
Y0206225D01*
Y0206125D01*
Y0206025D01*
Y0205925D01*
Y0205825D01*
Y0205725D01*
Y0205625D01*
Y0205525D01*
Y0205425D01*
Y0205325D01*
Y0205225D01*
Y0205125D01*
Y0205025D01*
Y0204925D01*
Y0204825D01*
Y0204725D01*
Y0204625D01*
Y0204525D01*
Y0204425D01*
Y0204325D01*
Y0204225D01*
Y0204125D01*
Y0204025D01*
Y0203925D01*
Y0203825D01*
Y0203725D01*
Y0203625D01*
Y0203525D01*
Y0203425D01*
Y0203325D01*
Y0203225D01*
Y0203125D01*
Y0203025D01*
Y0202925D01*
Y0202825D01*
X1397750D01*
Y0202725D01*
Y0202625D01*
X1397850D01*
Y0202525D01*
X1398050D01*
Y0202425D01*
X1398350D01*
Y0202325D01*
X1398450D01*
Y0202225D01*
Y0202125D01*
Y0202025D01*
X1395150D01*
Y0202125D01*
Y0202225D01*
Y0202325D01*
X1395250D01*
Y0202425D01*
X1395550D01*
Y0202525D01*
X1395750D01*
Y0202625D01*
X1395850D01*
Y0202725D01*
Y0202825D01*
X1395950D01*
Y0202925D01*
Y0203025D01*
Y0203125D01*
Y0203225D01*
Y0203325D01*
Y0203425D01*
Y0203525D01*
Y0203625D01*
Y0203725D01*
Y0203825D01*
Y0203925D01*
Y0204025D01*
Y0204125D01*
Y0204225D01*
Y0204325D01*
Y0204425D01*
Y0204525D01*
Y0204625D01*
Y0204725D01*
Y0204825D01*
Y0204925D01*
Y0205025D01*
Y0205125D01*
Y0205225D01*
Y0205325D01*
Y0205425D01*
Y0205525D01*
Y0205625D01*
Y0205725D01*
Y0205825D01*
Y0205925D01*
Y0206025D01*
Y0206125D01*
Y0206225D01*
Y0206325D01*
Y0206425D01*
Y0206525D01*
Y0206625D01*
Y0206725D01*
Y0206825D01*
Y0206925D01*
Y0207025D01*
Y0207125D01*
Y0207225D01*
Y0207325D01*
Y0207425D01*
Y0207525D01*
Y0207625D01*
Y0207725D01*
Y0207825D01*
Y0207925D01*
Y0208025D01*
Y0208125D01*
Y0208225D01*
Y0208325D01*
Y0208425D01*
Y0208525D01*
Y0208625D01*
Y0208725D01*
Y0208825D01*
X1395850D01*
Y0208925D01*
X1395750D01*
Y0209025D01*
X1394850D01*
Y0208925D01*
X1394450D01*
Y0208825D01*
X1394250D01*
Y0208725D01*
X1394050D01*
Y0208625D01*
X1393950D01*
Y0208525D01*
X1393850D01*
Y0208425D01*
X1393750D01*
Y0208325D01*
X1393650D01*
Y0208225D01*
Y0208125D01*
X1393550D01*
Y0208025D01*
X1393450D01*
Y0207925D01*
X1393350D01*
Y0207825D01*
X1393150D01*
Y0207925D01*
X1393050D01*
Y0208025D01*
X1393150D01*
Y0208125D01*
Y0208225D01*
Y0208325D01*
X1393250D01*
Y0208425D01*
Y0208525D01*
Y0208625D01*
Y0208725D01*
X1393350D01*
Y0208825D01*
Y0208925D01*
Y0209025D01*
X1393450D01*
Y0209125D01*
Y0209225D01*
Y0209325D01*
X1393550D01*
Y0209425D01*
Y0209525D01*
Y0209625D01*
X1393650D01*
Y0209725D01*
Y0209825D01*
Y0209925D01*
X1399950D01*
Y0209825D01*
D02*
G37*
G36*
X1334650Y0221825D02*
Y0221725D01*
X1334750D01*
Y0221625D01*
Y0221525D01*
X1334850D01*
Y0221425D01*
Y0221325D01*
Y0221225D01*
X1334950D01*
Y0221125D01*
Y0221025D01*
Y0220925D01*
X1335050D01*
Y0220825D01*
Y0220725D01*
Y0220625D01*
X1335150D01*
Y0220525D01*
Y0220425D01*
X1335250D01*
Y0220325D01*
Y0220225D01*
Y0220125D01*
Y0220025D01*
X1334950D01*
Y0220125D01*
X1334850D01*
Y0220225D01*
X1334750D01*
Y0220325D01*
X1334650D01*
Y0220425D01*
X1334550D01*
Y0220525D01*
X1334450D01*
Y0220625D01*
X1334250D01*
Y0220725D01*
X1334050D01*
Y0220825D01*
X1333750D01*
Y0220925D01*
X1331150D01*
Y0220825D01*
X1331050D01*
Y0220725D01*
X1330950D01*
Y0220625D01*
Y0220525D01*
Y0220425D01*
Y0220325D01*
Y0220225D01*
Y0220125D01*
Y0220025D01*
Y0219925D01*
Y0219825D01*
Y0219725D01*
Y0219625D01*
Y0219525D01*
Y0219425D01*
Y0219325D01*
Y0219225D01*
Y0219125D01*
Y0219025D01*
Y0218925D01*
Y0218825D01*
Y0218725D01*
Y0218625D01*
X1333550D01*
Y0218725D01*
X1333750D01*
Y0218825D01*
X1333850D01*
Y0218925D01*
Y0219025D01*
X1333950D01*
Y0219125D01*
Y0219225D01*
X1334250D01*
Y0219125D01*
Y0219025D01*
Y0218925D01*
Y0218825D01*
Y0218725D01*
Y0218625D01*
Y0218525D01*
Y0218425D01*
Y0218325D01*
Y0218225D01*
Y0218125D01*
Y0218025D01*
Y0217925D01*
Y0217825D01*
Y0217725D01*
Y0217625D01*
Y0217525D01*
Y0217425D01*
Y0217325D01*
Y0217225D01*
Y0217125D01*
Y0217025D01*
X1333950D01*
Y0217125D01*
Y0217225D01*
Y0217325D01*
X1333850D01*
Y0217425D01*
X1333750D01*
Y0217525D01*
X1333650D01*
Y0217625D01*
X1333350D01*
Y0217725D01*
X1330950D01*
Y0217625D01*
Y0217525D01*
Y0217425D01*
Y0217325D01*
Y0217225D01*
Y0217125D01*
Y0217025D01*
Y0216925D01*
Y0216825D01*
Y0216725D01*
Y0216625D01*
Y0216525D01*
Y0216425D01*
Y0216325D01*
Y0216225D01*
Y0216125D01*
Y0216025D01*
Y0215925D01*
Y0215825D01*
Y0215725D01*
Y0215625D01*
Y0215525D01*
Y0215425D01*
Y0215325D01*
Y0215225D01*
X1331050D01*
Y0215125D01*
Y0215025D01*
X1331350D01*
Y0214925D01*
X1333450D01*
Y0215025D01*
X1334150D01*
Y0215125D01*
X1334450D01*
Y0215225D01*
X1334650D01*
Y0215325D01*
X1334750D01*
Y0215425D01*
X1334950D01*
Y0215525D01*
X1335050D01*
Y0215625D01*
X1335150D01*
Y0215725D01*
X1335250D01*
Y0215825D01*
X1335350D01*
Y0215925D01*
X1335450D01*
Y0216025D01*
X1335550D01*
Y0215925D01*
X1335650D01*
Y0215825D01*
Y0215725D01*
X1335550D01*
Y0215625D01*
Y0215525D01*
Y0215425D01*
X1335450D01*
Y0215325D01*
Y0215225D01*
X1335350D01*
Y0215125D01*
Y0215025D01*
Y0214925D01*
X1335250D01*
Y0214825D01*
Y0214725D01*
X1335150D01*
Y0214625D01*
Y0214525D01*
Y0214425D01*
X1335050D01*
Y0214325D01*
Y0214225D01*
X1334950D01*
Y0214125D01*
Y0214025D01*
X1328450D01*
Y0214125D01*
Y0214225D01*
Y0214325D01*
X1328750D01*
Y0214425D01*
X1328950D01*
Y0214525D01*
X1329050D01*
Y0214625D01*
X1329150D01*
Y0214725D01*
Y0214825D01*
X1329250D01*
Y0214925D01*
Y0215025D01*
Y0215125D01*
Y0215225D01*
Y0215325D01*
Y0215425D01*
Y0215525D01*
Y0215625D01*
Y0215725D01*
Y0215825D01*
Y0215925D01*
Y0216025D01*
Y0216125D01*
Y0216225D01*
Y0216325D01*
Y0216425D01*
Y0216525D01*
Y0216625D01*
Y0216725D01*
Y0216825D01*
Y0216925D01*
Y0217025D01*
Y0217125D01*
Y0217225D01*
Y0217325D01*
Y0217425D01*
Y0217525D01*
Y0217625D01*
Y0217725D01*
Y0217825D01*
Y0217925D01*
Y0218025D01*
Y0218125D01*
Y0218225D01*
Y0218325D01*
Y0218425D01*
Y0218525D01*
Y0218625D01*
Y0218725D01*
Y0218825D01*
Y0218925D01*
Y0219025D01*
Y0219125D01*
Y0219225D01*
Y0219325D01*
Y0219425D01*
Y0219525D01*
Y0219625D01*
Y0219725D01*
Y0219825D01*
Y0219925D01*
Y0220025D01*
Y0220125D01*
Y0220225D01*
Y0220325D01*
Y0220425D01*
Y0220525D01*
Y0220625D01*
Y0220725D01*
Y0220825D01*
Y0220925D01*
Y0221025D01*
Y0221125D01*
X1329150D01*
Y0221225D01*
Y0221325D01*
X1329050D01*
Y0221425D01*
X1328950D01*
Y0221525D01*
X1328650D01*
Y0221625D01*
X1328450D01*
Y0221725D01*
Y0221825D01*
Y0221925D01*
X1334650D01*
Y0221825D01*
D02*
G37*
G36*
X1355150Y0221925D02*
X1355550D01*
Y0221825D01*
X1355850D01*
Y0221725D01*
X1356050D01*
Y0221625D01*
X1356250D01*
Y0221525D01*
X1356350D01*
Y0221625D01*
X1356450D01*
Y0221725D01*
Y0221825D01*
Y0221925D01*
X1356850D01*
Y0221825D01*
X1356950D01*
Y0221725D01*
Y0221625D01*
Y0221525D01*
Y0221425D01*
X1357050D01*
Y0221325D01*
Y0221225D01*
Y0221125D01*
X1357150D01*
Y0221025D01*
Y0220925D01*
Y0220825D01*
Y0220725D01*
X1357250D01*
Y0220625D01*
Y0220525D01*
Y0220425D01*
X1357350D01*
Y0220325D01*
Y0220225D01*
Y0220125D01*
Y0220025D01*
X1357450D01*
Y0219925D01*
Y0219825D01*
X1357350D01*
Y0219725D01*
X1357150D01*
Y0219825D01*
X1357050D01*
Y0219925D01*
X1356950D01*
Y0220025D01*
X1356850D01*
Y0220125D01*
X1356750D01*
Y0220225D01*
X1356650D01*
Y0220325D01*
X1356550D01*
Y0220425D01*
X1356350D01*
Y0220525D01*
X1356250D01*
Y0220625D01*
X1356050D01*
Y0220725D01*
X1355750D01*
Y0220825D01*
X1355450D01*
Y0220925D01*
X1355050D01*
Y0221025D01*
X1354150D01*
Y0220925D01*
X1353750D01*
Y0220825D01*
X1353550D01*
Y0220725D01*
X1353350D01*
Y0220625D01*
X1353250D01*
Y0220525D01*
Y0220425D01*
X1353150D01*
Y0220325D01*
Y0220225D01*
Y0220125D01*
Y0220025D01*
Y0219925D01*
Y0219825D01*
Y0219725D01*
Y0219625D01*
X1353250D01*
Y0219525D01*
X1353350D01*
Y0219425D01*
X1353450D01*
Y0219325D01*
X1353750D01*
Y0219225D01*
X1354050D01*
Y0219125D01*
X1354450D01*
Y0219025D01*
X1354850D01*
Y0218925D01*
X1355350D01*
Y0218825D01*
X1355750D01*
Y0218725D01*
X1356150D01*
Y0218625D01*
X1356450D01*
Y0218525D01*
X1356650D01*
Y0218425D01*
X1356850D01*
Y0218325D01*
X1357050D01*
Y0218225D01*
X1357250D01*
Y0218125D01*
X1357350D01*
Y0218025D01*
X1357450D01*
Y0217925D01*
X1357550D01*
Y0217825D01*
X1357650D01*
Y0217725D01*
Y0217625D01*
X1357750D01*
Y0217525D01*
Y0217425D01*
X1357850D01*
Y0217325D01*
Y0217225D01*
Y0217125D01*
X1357950D01*
Y0217025D01*
Y0216925D01*
Y0216825D01*
Y0216725D01*
Y0216625D01*
Y0216525D01*
Y0216425D01*
Y0216325D01*
Y0216225D01*
Y0216125D01*
Y0216025D01*
Y0215925D01*
Y0215825D01*
Y0215725D01*
X1357850D01*
Y0215625D01*
Y0215525D01*
Y0215425D01*
X1357750D01*
Y0215325D01*
Y0215225D01*
X1357650D01*
Y0215125D01*
Y0215025D01*
X1357550D01*
Y0214925D01*
X1357450D01*
Y0214825D01*
X1357350D01*
Y0214725D01*
X1357250D01*
Y0214625D01*
X1357150D01*
Y0214525D01*
X1357050D01*
Y0214425D01*
X1356850D01*
Y0214325D01*
X1356650D01*
Y0214225D01*
X1356450D01*
Y0214125D01*
X1356150D01*
Y0214025D01*
X1355750D01*
Y0213925D01*
X1353950D01*
Y0214025D01*
X1353550D01*
Y0214125D01*
X1353250D01*
Y0214225D01*
X1353050D01*
Y0214325D01*
X1352850D01*
Y0214425D01*
X1352650D01*
Y0214325D01*
X1352550D01*
Y0214225D01*
Y0214125D01*
Y0214025D01*
X1352050D01*
Y0214125D01*
Y0214225D01*
Y0214325D01*
Y0214425D01*
X1351950D01*
Y0214525D01*
Y0214625D01*
Y0214725D01*
X1351850D01*
Y0214825D01*
Y0214925D01*
Y0215025D01*
Y0215125D01*
X1351750D01*
Y0215225D01*
Y0215325D01*
Y0215425D01*
Y0215525D01*
X1351650D01*
Y0215625D01*
Y0215725D01*
Y0215825D01*
Y0215925D01*
X1351550D01*
Y0216025D01*
Y0216125D01*
Y0216225D01*
X1351450D01*
Y0216325D01*
Y0216425D01*
X1351550D01*
Y0216525D01*
X1351750D01*
Y0216425D01*
X1351850D01*
Y0216325D01*
X1351950D01*
Y0216225D01*
X1352050D01*
Y0216125D01*
X1352150D01*
Y0216025D01*
X1352250D01*
Y0215925D01*
X1352350D01*
Y0215825D01*
X1352450D01*
Y0215725D01*
X1352550D01*
Y0215625D01*
X1352650D01*
Y0215525D01*
X1352850D01*
Y0215425D01*
X1353050D01*
Y0215325D01*
X1353150D01*
Y0215225D01*
X1353450D01*
Y0215125D01*
X1353650D01*
Y0215025D01*
X1354050D01*
Y0214925D01*
X1355450D01*
Y0215025D01*
X1355750D01*
Y0215125D01*
X1355950D01*
Y0215225D01*
X1356050D01*
Y0215325D01*
X1356150D01*
Y0215425D01*
X1356250D01*
Y0215525D01*
X1356350D01*
Y0215625D01*
Y0215725D01*
Y0215825D01*
X1356450D01*
Y0215925D01*
Y0216025D01*
Y0216125D01*
Y0216225D01*
Y0216325D01*
X1356350D01*
Y0216425D01*
Y0216525D01*
Y0216625D01*
X1356250D01*
Y0216725D01*
X1356150D01*
Y0216825D01*
X1356050D01*
Y0216925D01*
X1355850D01*
Y0217025D01*
X1355550D01*
Y0217125D01*
X1355150D01*
Y0217225D01*
X1354750D01*
Y0217325D01*
X1354250D01*
Y0217425D01*
X1353850D01*
Y0217525D01*
X1353450D01*
Y0217625D01*
X1353150D01*
Y0217725D01*
X1352950D01*
Y0217825D01*
X1352750D01*
Y0217925D01*
X1352550D01*
Y0218025D01*
X1352450D01*
Y0218125D01*
X1352350D01*
Y0218225D01*
X1352150D01*
Y0218325D01*
Y0218425D01*
X1352050D01*
Y0218525D01*
X1351950D01*
Y0218625D01*
Y0218725D01*
X1351850D01*
Y0218825D01*
Y0218925D01*
X1351750D01*
Y0219025D01*
Y0219125D01*
Y0219225D01*
Y0219325D01*
X1351650D01*
Y0219425D01*
Y0219525D01*
Y0219625D01*
Y0219725D01*
Y0219825D01*
Y0219925D01*
Y0220025D01*
Y0220125D01*
X1351750D01*
Y0220225D01*
Y0220325D01*
Y0220425D01*
Y0220525D01*
X1351850D01*
Y0220625D01*
Y0220725D01*
X1351950D01*
Y0220825D01*
Y0220925D01*
X1352050D01*
Y0221025D01*
X1352150D01*
Y0221125D01*
X1352250D01*
Y0221225D01*
X1352350D01*
Y0221325D01*
X1352450D01*
Y0221425D01*
X1352550D01*
Y0221525D01*
X1352650D01*
Y0221625D01*
X1352850D01*
Y0221725D01*
X1353050D01*
Y0221825D01*
X1353350D01*
Y0221925D01*
X1353850D01*
Y0222025D01*
X1355150D01*
Y0221925D01*
D02*
G37*
G36*
X1310550Y0227525D02*
Y0227425D01*
Y0227325D01*
Y0227225D01*
X1310450D01*
Y0227125D01*
Y0227025D01*
Y0226925D01*
Y0226825D01*
Y0226725D01*
X1310350D01*
Y0226625D01*
Y0226525D01*
Y0226425D01*
Y0226325D01*
Y0226225D01*
X1310250D01*
Y0226125D01*
Y0226025D01*
Y0225925D01*
Y0225825D01*
Y0225725D01*
X1310150D01*
Y0225625D01*
Y0225525D01*
Y0225425D01*
Y0225325D01*
X1307750D01*
Y0225425D01*
Y0225525D01*
X1307850D01*
Y0225625D01*
Y0225725D01*
Y0225825D01*
Y0225925D01*
Y0226025D01*
X1307950D01*
Y0226125D01*
Y0226225D01*
Y0226325D01*
Y0226425D01*
Y0226525D01*
X1308050D01*
Y0226625D01*
Y0226725D01*
Y0226825D01*
Y0226925D01*
Y0227025D01*
X1308150D01*
Y0227125D01*
Y0227225D01*
Y0227325D01*
Y0227425D01*
Y0227525D01*
X1308250D01*
Y0227625D01*
X1310550D01*
Y0227525D01*
D02*
G37*
G36*
X1329750Y0224225D02*
Y0224125D01*
Y0224025D01*
X1329850D01*
Y0223925D01*
Y0223825D01*
Y0223725D01*
X1329950D01*
Y0223625D01*
Y0223525D01*
Y0223425D01*
X1330050D01*
Y0223325D01*
Y0223225D01*
Y0223125D01*
X1330150D01*
Y0223025D01*
Y0222925D01*
Y0222825D01*
X1330250D01*
Y0222725D01*
Y0222625D01*
Y0222525D01*
X1330350D01*
Y0222425D01*
X1330250D01*
Y0222325D01*
X1330050D01*
Y0222425D01*
Y0222525D01*
X1329950D01*
Y0222625D01*
X1329850D01*
Y0222725D01*
X1329750D01*
Y0222825D01*
X1329550D01*
Y0222925D01*
X1329450D01*
Y0223025D01*
X1329150D01*
Y0223125D01*
X1328750D01*
Y0223225D01*
X1326650D01*
Y0223125D01*
X1326550D01*
Y0223025D01*
Y0222925D01*
X1326450D01*
Y0222825D01*
Y0222725D01*
Y0222625D01*
Y0222525D01*
Y0222425D01*
Y0222325D01*
Y0222225D01*
Y0222125D01*
Y0222025D01*
Y0221925D01*
Y0221825D01*
Y0221725D01*
Y0221625D01*
Y0221525D01*
Y0221425D01*
Y0221325D01*
Y0221225D01*
Y0221125D01*
Y0221025D01*
Y0220925D01*
Y0220825D01*
Y0220725D01*
Y0220625D01*
Y0220525D01*
Y0220425D01*
Y0220325D01*
Y0220225D01*
Y0220125D01*
Y0220025D01*
Y0219925D01*
Y0219825D01*
Y0219725D01*
Y0219625D01*
Y0219525D01*
Y0219425D01*
Y0219325D01*
Y0219225D01*
Y0219125D01*
Y0219025D01*
Y0218925D01*
Y0218825D01*
Y0218725D01*
Y0218625D01*
Y0218525D01*
Y0218425D01*
Y0218325D01*
Y0218225D01*
Y0218125D01*
Y0218025D01*
Y0217925D01*
Y0217825D01*
Y0217725D01*
Y0217625D01*
Y0217525D01*
Y0217425D01*
Y0217325D01*
Y0217225D01*
Y0217125D01*
Y0217025D01*
Y0216925D01*
Y0216825D01*
Y0216725D01*
Y0216625D01*
Y0216525D01*
Y0216425D01*
Y0216325D01*
Y0216225D01*
Y0216125D01*
Y0216025D01*
Y0215925D01*
Y0215825D01*
Y0215725D01*
Y0215625D01*
Y0215525D01*
Y0215425D01*
Y0215325D01*
Y0215225D01*
Y0215125D01*
Y0215025D01*
X1326550D01*
Y0214925D01*
Y0214825D01*
Y0214725D01*
X1326650D01*
Y0214625D01*
X1326750D01*
Y0214525D01*
X1326850D01*
Y0214425D01*
X1327050D01*
Y0214325D01*
X1327250D01*
Y0214225D01*
Y0214125D01*
Y0214025D01*
X1323850D01*
Y0214125D01*
Y0214225D01*
Y0214325D01*
X1324050D01*
Y0214425D01*
X1324250D01*
Y0214525D01*
X1324350D01*
Y0214625D01*
X1324450D01*
Y0214725D01*
X1324550D01*
Y0214825D01*
Y0214925D01*
Y0215025D01*
Y0215125D01*
X1324650D01*
Y0215225D01*
Y0215325D01*
Y0215425D01*
Y0215525D01*
Y0215625D01*
Y0215725D01*
Y0215825D01*
Y0215925D01*
Y0216025D01*
Y0216125D01*
Y0216225D01*
Y0216325D01*
Y0216425D01*
Y0216525D01*
Y0216625D01*
Y0216725D01*
Y0216825D01*
Y0216925D01*
Y0217025D01*
Y0217125D01*
Y0217225D01*
Y0217325D01*
Y0217425D01*
Y0217525D01*
Y0217625D01*
Y0217725D01*
Y0217825D01*
Y0217925D01*
Y0218025D01*
Y0218125D01*
Y0218225D01*
Y0218325D01*
Y0218425D01*
Y0218525D01*
Y0218625D01*
Y0218725D01*
Y0218825D01*
Y0218925D01*
Y0219025D01*
Y0219125D01*
Y0219225D01*
Y0219325D01*
Y0219425D01*
Y0219525D01*
Y0219625D01*
Y0219725D01*
Y0219825D01*
Y0219925D01*
Y0220025D01*
Y0220125D01*
Y0220225D01*
Y0220325D01*
Y0220425D01*
Y0220525D01*
Y0220625D01*
Y0220725D01*
Y0220825D01*
Y0220925D01*
Y0221025D01*
Y0221125D01*
Y0221225D01*
Y0221325D01*
Y0221425D01*
Y0221525D01*
Y0221625D01*
Y0221725D01*
Y0221825D01*
Y0221925D01*
Y0222025D01*
Y0222125D01*
Y0222225D01*
Y0222325D01*
Y0222425D01*
Y0222525D01*
Y0222625D01*
Y0222725D01*
Y0222825D01*
X1324550D01*
Y0222925D01*
Y0223025D01*
Y0223125D01*
X1324350D01*
Y0223225D01*
X1322350D01*
Y0223125D01*
X1321950D01*
Y0223025D01*
X1321650D01*
Y0222925D01*
X1321550D01*
Y0222825D01*
X1321350D01*
Y0222725D01*
X1321250D01*
Y0222625D01*
X1321150D01*
Y0222525D01*
X1321050D01*
Y0222425D01*
X1320950D01*
Y0222325D01*
X1320850D01*
Y0222425D01*
X1320750D01*
Y0222525D01*
Y0222625D01*
Y0222725D01*
X1320850D01*
Y0222825D01*
Y0222925D01*
X1320950D01*
Y0223025D01*
Y0223125D01*
Y0223225D01*
X1321050D01*
Y0223325D01*
Y0223425D01*
Y0223525D01*
X1321150D01*
Y0223625D01*
Y0223725D01*
Y0223825D01*
X1321250D01*
Y0223925D01*
Y0224025D01*
Y0224125D01*
X1321350D01*
Y0224225D01*
Y0224325D01*
X1329750D01*
Y0224225D01*
D02*
G37*
G36*
X1348350Y0221825D02*
Y0221725D01*
X1348450D01*
Y0221625D01*
Y0221525D01*
Y0221425D01*
X1348550D01*
Y0221325D01*
Y0221225D01*
Y0221125D01*
X1348650D01*
Y0221025D01*
Y0220925D01*
X1348750D01*
Y0220825D01*
Y0220725D01*
Y0220625D01*
X1348850D01*
Y0220525D01*
Y0220425D01*
X1348950D01*
Y0220325D01*
Y0220225D01*
Y0220125D01*
X1349050D01*
Y0220025D01*
Y0219925D01*
Y0219825D01*
X1349150D01*
Y0219725D01*
Y0219625D01*
X1349250D01*
Y0219525D01*
Y0219425D01*
Y0219325D01*
X1349350D01*
Y0219225D01*
Y0219125D01*
Y0219025D01*
X1349450D01*
Y0218925D01*
Y0218825D01*
X1349550D01*
Y0218725D01*
Y0218625D01*
Y0218525D01*
X1349650D01*
Y0218425D01*
Y0218325D01*
X1349750D01*
Y0218225D01*
Y0218125D01*
Y0218025D01*
X1349850D01*
Y0217925D01*
Y0217825D01*
Y0217725D01*
X1349950D01*
Y0217625D01*
Y0217525D01*
X1350050D01*
Y0217425D01*
Y0217325D01*
Y0217225D01*
X1350150D01*
Y0217125D01*
Y0217025D01*
Y0216925D01*
X1350250D01*
Y0216825D01*
Y0216725D01*
X1350350D01*
Y0216625D01*
Y0216525D01*
Y0216425D01*
X1350450D01*
Y0216325D01*
Y0216225D01*
X1350550D01*
Y0216125D01*
Y0216025D01*
Y0215925D01*
X1350650D01*
Y0215825D01*
Y0215725D01*
Y0215625D01*
X1350750D01*
Y0215525D01*
Y0215425D01*
X1350850D01*
Y0215325D01*
Y0215225D01*
Y0215125D01*
X1350950D01*
Y0215025D01*
Y0214925D01*
X1351050D01*
Y0214825D01*
X1351150D01*
Y0214725D01*
X1351250D01*
Y0214625D01*
X1351350D01*
Y0214525D01*
X1351450D01*
Y0214425D01*
X1351650D01*
Y0214325D01*
X1351750D01*
Y0214225D01*
Y0214125D01*
Y0214025D01*
X1348450D01*
Y0214125D01*
Y0214225D01*
Y0214325D01*
X1348750D01*
Y0214425D01*
X1348850D01*
Y0214525D01*
X1348950D01*
Y0214625D01*
X1349050D01*
Y0214725D01*
Y0214825D01*
Y0214925D01*
Y0215025D01*
Y0215125D01*
X1348950D01*
Y0215225D01*
Y0215325D01*
Y0215425D01*
X1348850D01*
Y0215525D01*
Y0215625D01*
X1348750D01*
Y0215725D01*
Y0215825D01*
Y0215925D01*
X1348650D01*
Y0216025D01*
Y0216125D01*
Y0216225D01*
X1345350D01*
Y0216125D01*
Y0216025D01*
Y0215925D01*
X1345250D01*
Y0215825D01*
Y0215725D01*
X1345150D01*
Y0215625D01*
Y0215525D01*
Y0215425D01*
X1345050D01*
Y0215325D01*
Y0215225D01*
Y0215125D01*
X1344950D01*
Y0215025D01*
Y0214925D01*
Y0214825D01*
Y0214725D01*
Y0214625D01*
Y0214525D01*
X1345050D01*
Y0214425D01*
X1345250D01*
Y0214325D01*
X1345550D01*
Y0214225D01*
Y0214125D01*
Y0214025D01*
X1340150D01*
Y0214125D01*
Y0214225D01*
Y0214325D01*
X1340450D01*
Y0214425D01*
X1340650D01*
Y0214525D01*
X1340750D01*
Y0214625D01*
X1340850D01*
Y0214725D01*
Y0214825D01*
Y0214925D01*
Y0215025D01*
X1340750D01*
Y0215125D01*
Y0215225D01*
X1340650D01*
Y0215325D01*
X1340550D01*
Y0215425D01*
X1340450D01*
Y0215525D01*
Y0215625D01*
X1340350D01*
Y0215725D01*
X1340250D01*
Y0215825D01*
Y0215925D01*
X1340150D01*
Y0216025D01*
X1340050D01*
Y0216125D01*
Y0216225D01*
X1339950D01*
Y0216325D01*
X1339850D01*
Y0216425D01*
Y0216525D01*
X1339750D01*
Y0216625D01*
X1339650D01*
Y0216725D01*
X1339550D01*
Y0216825D01*
Y0216925D01*
X1339450D01*
Y0217025D01*
X1339350D01*
Y0217125D01*
Y0217225D01*
X1339250D01*
Y0217125D01*
X1339150D01*
Y0217025D01*
Y0216925D01*
X1339050D01*
Y0216825D01*
Y0216725D01*
X1338950D01*
Y0216625D01*
X1338850D01*
Y0216525D01*
Y0216425D01*
X1338750D01*
Y0216325D01*
X1338650D01*
Y0216225D01*
Y0216125D01*
X1338550D01*
Y0216025D01*
X1338450D01*
Y0215925D01*
Y0215825D01*
X1338350D01*
Y0215725D01*
X1338250D01*
Y0215625D01*
Y0215525D01*
X1338150D01*
Y0215425D01*
Y0215325D01*
X1338050D01*
Y0215225D01*
X1337950D01*
Y0215125D01*
Y0215025D01*
X1337850D01*
Y0214925D01*
Y0214825D01*
Y0214725D01*
Y0214625D01*
Y0214525D01*
X1337950D01*
Y0214425D01*
X1338150D01*
Y0214325D01*
X1338450D01*
Y0214225D01*
Y0214125D01*
Y0214025D01*
X1335450D01*
Y0214125D01*
Y0214225D01*
Y0214325D01*
X1335650D01*
Y0214425D01*
X1335950D01*
Y0214525D01*
X1336150D01*
Y0214625D01*
X1336250D01*
Y0214725D01*
X1336350D01*
Y0214825D01*
X1336450D01*
Y0214925D01*
X1336550D01*
Y0215025D01*
X1336650D01*
Y0215125D01*
X1336750D01*
Y0215225D01*
X1336850D01*
Y0215325D01*
Y0215425D01*
X1336950D01*
Y0215525D01*
X1337050D01*
Y0215625D01*
Y0215725D01*
X1337150D01*
Y0215825D01*
X1337250D01*
Y0215925D01*
X1337350D01*
Y0216025D01*
Y0216125D01*
X1337450D01*
Y0216225D01*
X1337550D01*
Y0216325D01*
Y0216425D01*
X1337650D01*
Y0216525D01*
X1337750D01*
Y0216625D01*
X1337850D01*
Y0216725D01*
Y0216825D01*
X1337950D01*
Y0216925D01*
X1338050D01*
Y0217025D01*
Y0217125D01*
X1338150D01*
Y0217225D01*
X1338250D01*
Y0217325D01*
Y0217425D01*
X1338350D01*
Y0217525D01*
X1338450D01*
Y0217625D01*
X1338550D01*
Y0217725D01*
Y0217825D01*
X1338650D01*
Y0217925D01*
Y0218025D01*
Y0218125D01*
X1338550D01*
Y0218225D01*
X1338450D01*
Y0218325D01*
Y0218425D01*
X1338350D01*
Y0218525D01*
X1338250D01*
Y0218625D01*
X1338150D01*
Y0218725D01*
Y0218825D01*
X1338050D01*
Y0218925D01*
X1337950D01*
Y0219025D01*
Y0219125D01*
X1337850D01*
Y0219225D01*
X1337750D01*
Y0219325D01*
Y0219425D01*
X1337650D01*
Y0219525D01*
X1337550D01*
Y0219625D01*
X1337450D01*
Y0219725D01*
Y0219825D01*
X1337350D01*
Y0219925D01*
X1337250D01*
Y0220025D01*
Y0220125D01*
X1337150D01*
Y0220225D01*
X1337050D01*
Y0220325D01*
X1336950D01*
Y0220425D01*
Y0220525D01*
X1336850D01*
Y0220625D01*
X1336750D01*
Y0220725D01*
Y0220825D01*
X1336650D01*
Y0220925D01*
X1336550D01*
Y0221025D01*
X1336450D01*
Y0221125D01*
X1336350D01*
Y0221225D01*
X1336250D01*
Y0221325D01*
X1336150D01*
Y0221425D01*
X1335950D01*
Y0221525D01*
X1335750D01*
Y0221625D01*
X1335550D01*
Y0221725D01*
Y0221825D01*
Y0221925D01*
X1339250D01*
Y0221825D01*
Y0221725D01*
Y0221625D01*
X1339050D01*
Y0221525D01*
X1338850D01*
Y0221425D01*
X1338750D01*
Y0221325D01*
Y0221225D01*
X1338650D01*
Y0221125D01*
Y0221025D01*
X1338750D01*
Y0220925D01*
Y0220825D01*
X1338850D01*
Y0220725D01*
Y0220625D01*
X1338950D01*
Y0220525D01*
Y0220425D01*
X1339050D01*
Y0220325D01*
X1339150D01*
Y0220225D01*
Y0220125D01*
X1339250D01*
Y0220025D01*
X1339350D01*
Y0219925D01*
Y0219825D01*
X1339450D01*
Y0219725D01*
X1339550D01*
Y0219625D01*
Y0219525D01*
X1339650D01*
Y0219425D01*
X1339750D01*
Y0219325D01*
Y0219225D01*
X1339850D01*
Y0219125D01*
X1339950D01*
Y0219025D01*
X1340050D01*
Y0219125D01*
X1340150D01*
Y0219225D01*
Y0219325D01*
X1340250D01*
Y0219425D01*
X1340350D01*
Y0219525D01*
Y0219625D01*
X1340450D01*
Y0219725D01*
X1340550D01*
Y0219825D01*
Y0219925D01*
X1340650D01*
Y0220025D01*
X1340750D01*
Y0220125D01*
Y0220225D01*
X1340850D01*
Y0220325D01*
X1340950D01*
Y0220425D01*
Y0220525D01*
X1341050D01*
Y0220625D01*
X1341150D01*
Y0220725D01*
Y0220825D01*
X1341250D01*
Y0220925D01*
X1341350D01*
Y0221025D01*
Y0221125D01*
Y0221225D01*
Y0221325D01*
Y0221425D01*
X1341250D01*
Y0221525D01*
X1341050D01*
Y0221625D01*
X1340750D01*
Y0221725D01*
Y0221825D01*
Y0221925D01*
X1343550D01*
Y0221825D01*
Y0221725D01*
Y0221625D01*
X1343450D01*
Y0221525D01*
X1343150D01*
Y0221425D01*
X1342950D01*
Y0221325D01*
X1342850D01*
Y0221225D01*
X1342750D01*
Y0221125D01*
X1342650D01*
Y0221025D01*
X1342550D01*
Y0220925D01*
X1342450D01*
Y0220825D01*
X1342350D01*
Y0220725D01*
X1342250D01*
Y0220625D01*
Y0220525D01*
X1342150D01*
Y0220425D01*
X1342050D01*
Y0220325D01*
Y0220225D01*
X1341950D01*
Y0220125D01*
X1341850D01*
Y0220025D01*
X1341750D01*
Y0219925D01*
Y0219825D01*
X1341650D01*
Y0219725D01*
X1341550D01*
Y0219625D01*
Y0219525D01*
X1341450D01*
Y0219425D01*
X1341350D01*
Y0219325D01*
Y0219225D01*
X1341250D01*
Y0219125D01*
X1341150D01*
Y0219025D01*
X1341050D01*
Y0218925D01*
Y0218825D01*
X1340950D01*
Y0218725D01*
X1340850D01*
Y0218625D01*
Y0218525D01*
X1340750D01*
Y0218425D01*
X1340650D01*
Y0218325D01*
X1340550D01*
Y0218225D01*
X1340650D01*
Y0218125D01*
Y0218025D01*
X1340750D01*
Y0217925D01*
X1340850D01*
Y0217825D01*
Y0217725D01*
X1340950D01*
Y0217625D01*
X1341050D01*
Y0217525D01*
X1341150D01*
Y0217425D01*
Y0217325D01*
X1341250D01*
Y0217225D01*
X1341350D01*
Y0217125D01*
Y0217025D01*
X1341450D01*
Y0216925D01*
X1341550D01*
Y0216825D01*
X1341650D01*
Y0216725D01*
Y0216625D01*
X1341750D01*
Y0216525D01*
X1341850D01*
Y0216425D01*
Y0216325D01*
X1341950D01*
Y0216225D01*
X1342050D01*
Y0216125D01*
Y0216025D01*
X1342150D01*
Y0215925D01*
X1342250D01*
Y0215825D01*
X1342350D01*
Y0215725D01*
Y0215625D01*
X1342450D01*
Y0215525D01*
X1342550D01*
Y0215425D01*
Y0215325D01*
X1342650D01*
Y0215225D01*
X1342750D01*
Y0215125D01*
X1342850D01*
Y0215025D01*
Y0214925D01*
X1342950D01*
Y0214825D01*
X1343050D01*
Y0214725D01*
X1343150D01*
Y0214625D01*
X1343250D01*
Y0214525D01*
X1343450D01*
Y0214625D01*
X1343550D01*
Y0214725D01*
X1343650D01*
Y0214825D01*
Y0214925D01*
X1343750D01*
Y0215025D01*
X1343850D01*
Y0215125D01*
Y0215225D01*
X1343950D01*
Y0215325D01*
Y0215425D01*
X1344050D01*
Y0215525D01*
Y0215625D01*
X1344150D01*
Y0215725D01*
Y0215825D01*
Y0215925D01*
X1344250D01*
Y0216025D01*
Y0216125D01*
Y0216225D01*
X1344350D01*
Y0216325D01*
Y0216425D01*
X1344450D01*
Y0216525D01*
Y0216625D01*
Y0216725D01*
X1344550D01*
Y0216825D01*
Y0216925D01*
X1344650D01*
Y0217025D01*
Y0217125D01*
Y0217225D01*
X1344750D01*
Y0217325D01*
Y0217425D01*
X1344850D01*
Y0217525D01*
Y0217625D01*
Y0217725D01*
X1344950D01*
Y0217825D01*
Y0217925D01*
X1345050D01*
Y0218025D01*
Y0218125D01*
Y0218225D01*
X1345150D01*
Y0218325D01*
Y0218425D01*
Y0218525D01*
X1345250D01*
Y0218625D01*
Y0218725D01*
X1345350D01*
Y0218825D01*
Y0218925D01*
Y0219025D01*
X1345450D01*
Y0219125D01*
Y0219225D01*
X1345550D01*
Y0219325D01*
Y0219425D01*
Y0219525D01*
X1345650D01*
Y0219625D01*
Y0219725D01*
X1345750D01*
Y0219825D01*
Y0219925D01*
Y0220025D01*
X1345850D01*
Y0220125D01*
Y0220225D01*
X1345950D01*
Y0220325D01*
Y0220425D01*
Y0220525D01*
X1346050D01*
Y0220625D01*
Y0220725D01*
X1346150D01*
Y0220825D01*
Y0220925D01*
Y0221025D01*
X1346250D01*
Y0221125D01*
Y0221225D01*
Y0221325D01*
X1346350D01*
Y0221425D01*
Y0221525D01*
X1346450D01*
Y0221625D01*
Y0221725D01*
Y0221825D01*
X1346550D01*
Y0221925D01*
X1348350D01*
Y0221825D01*
D02*
G37*
G36*
X1383750Y0209825D02*
Y0209725D01*
X1383850D01*
Y0209625D01*
Y0209525D01*
X1383950D01*
Y0209425D01*
Y0209325D01*
Y0209225D01*
X1384050D01*
Y0209125D01*
Y0209025D01*
Y0208925D01*
X1384150D01*
Y0208825D01*
Y0208725D01*
X1384250D01*
Y0208625D01*
Y0208525D01*
Y0208425D01*
X1384350D01*
Y0208325D01*
Y0208225D01*
Y0208125D01*
X1384250D01*
Y0208025D01*
X1384150D01*
Y0208125D01*
X1384050D01*
Y0208225D01*
X1383950D01*
Y0208325D01*
X1383750D01*
Y0208425D01*
X1383650D01*
Y0208525D01*
X1383550D01*
Y0208625D01*
X1383450D01*
Y0208725D01*
X1383250D01*
Y0208825D01*
X1382950D01*
Y0208925D01*
X1382550D01*
Y0209025D01*
X1380450D01*
Y0208925D01*
X1380150D01*
Y0208825D01*
Y0208725D01*
X1380050D01*
Y0208625D01*
Y0208525D01*
Y0208425D01*
Y0208325D01*
Y0208225D01*
Y0208125D01*
Y0208025D01*
Y0207925D01*
Y0207825D01*
Y0207725D01*
Y0207625D01*
Y0207525D01*
Y0207425D01*
Y0207325D01*
Y0207225D01*
Y0207125D01*
Y0207025D01*
Y0206925D01*
Y0206825D01*
Y0206725D01*
Y0206625D01*
X1382450D01*
Y0206725D01*
X1382750D01*
Y0206825D01*
X1382850D01*
Y0206925D01*
X1382950D01*
Y0207025D01*
Y0207125D01*
X1383050D01*
Y0207225D01*
Y0207325D01*
X1383350D01*
Y0207225D01*
Y0207125D01*
Y0207025D01*
Y0206925D01*
Y0206825D01*
Y0206725D01*
Y0206625D01*
Y0206525D01*
Y0206425D01*
Y0206325D01*
Y0206225D01*
Y0206125D01*
Y0206025D01*
Y0205925D01*
Y0205825D01*
Y0205725D01*
Y0205625D01*
Y0205525D01*
Y0205425D01*
Y0205325D01*
Y0205225D01*
Y0205125D01*
X1383050D01*
Y0205225D01*
Y0205325D01*
X1382950D01*
Y0205425D01*
Y0205525D01*
X1382850D01*
Y0205625D01*
X1382550D01*
Y0205725D01*
X1380050D01*
Y0205625D01*
Y0205525D01*
Y0205425D01*
Y0205325D01*
Y0205225D01*
Y0205125D01*
Y0205025D01*
Y0204925D01*
Y0204825D01*
Y0204725D01*
Y0204625D01*
Y0204525D01*
Y0204425D01*
Y0204325D01*
Y0204225D01*
Y0204125D01*
Y0204025D01*
Y0203925D01*
Y0203825D01*
Y0203725D01*
Y0203625D01*
Y0203525D01*
Y0203425D01*
Y0203325D01*
Y0203225D01*
X1380150D01*
Y0203125D01*
Y0203025D01*
X1383050D01*
Y0203125D01*
X1383450D01*
Y0203225D01*
X1383650D01*
Y0203325D01*
X1383850D01*
Y0203425D01*
X1383950D01*
Y0203525D01*
X1384050D01*
Y0203625D01*
X1384150D01*
Y0203725D01*
X1384250D01*
Y0203825D01*
X1384350D01*
Y0203925D01*
X1384450D01*
Y0204025D01*
X1384650D01*
Y0203925D01*
X1384750D01*
Y0203825D01*
Y0203725D01*
X1384650D01*
Y0203625D01*
Y0203525D01*
X1384550D01*
Y0203425D01*
Y0203325D01*
Y0203225D01*
X1384450D01*
Y0203125D01*
Y0203025D01*
X1384350D01*
Y0202925D01*
Y0202825D01*
Y0202725D01*
X1384250D01*
Y0202625D01*
Y0202525D01*
X1384150D01*
Y0202425D01*
Y0202325D01*
Y0202225D01*
X1384050D01*
Y0202125D01*
Y0202025D01*
X1377550D01*
Y0202125D01*
Y0202225D01*
Y0202325D01*
X1377750D01*
Y0202425D01*
X1377950D01*
Y0202525D01*
X1378150D01*
Y0202625D01*
X1378250D01*
Y0202725D01*
Y0202825D01*
Y0202925D01*
X1378350D01*
Y0203025D01*
Y0203125D01*
Y0203225D01*
Y0203325D01*
Y0203425D01*
Y0203525D01*
Y0203625D01*
Y0203725D01*
Y0203825D01*
Y0203925D01*
Y0204025D01*
Y0204125D01*
Y0204225D01*
Y0204325D01*
Y0204425D01*
Y0204525D01*
Y0204625D01*
Y0204725D01*
Y0204825D01*
Y0204925D01*
Y0205025D01*
Y0205125D01*
Y0205225D01*
Y0205325D01*
Y0205425D01*
Y0205525D01*
Y0205625D01*
Y0205725D01*
Y0205825D01*
Y0205925D01*
Y0206025D01*
Y0206125D01*
Y0206225D01*
Y0206325D01*
Y0206425D01*
Y0206525D01*
Y0206625D01*
Y0206725D01*
Y0206825D01*
Y0206925D01*
Y0207025D01*
Y0207125D01*
Y0207225D01*
Y0207325D01*
Y0207425D01*
Y0207525D01*
Y0207625D01*
Y0207725D01*
Y0207825D01*
Y0207925D01*
Y0208025D01*
Y0208125D01*
Y0208225D01*
Y0208325D01*
Y0208425D01*
Y0208525D01*
Y0208625D01*
Y0208725D01*
Y0208825D01*
Y0208925D01*
Y0209025D01*
Y0209125D01*
X1378250D01*
Y0209225D01*
Y0209325D01*
X1378150D01*
Y0209425D01*
X1378050D01*
Y0209525D01*
X1377850D01*
Y0209625D01*
X1377550D01*
Y0209725D01*
Y0209825D01*
Y0209925D01*
X1383750D01*
Y0209825D01*
D02*
G37*
G36*
X1309950Y0224225D02*
Y0224125D01*
X1309850D01*
Y0224025D01*
Y0223925D01*
Y0223825D01*
Y0223725D01*
Y0223625D01*
X1309750D01*
Y0223525D01*
Y0223425D01*
Y0223325D01*
Y0223225D01*
Y0223125D01*
X1309650D01*
Y0223025D01*
Y0222925D01*
Y0222825D01*
Y0222725D01*
Y0222625D01*
X1309550D01*
Y0222525D01*
Y0222425D01*
Y0222325D01*
Y0222225D01*
Y0222125D01*
X1309450D01*
Y0222025D01*
Y0221925D01*
Y0221825D01*
Y0221725D01*
Y0221625D01*
X1309350D01*
Y0221525D01*
Y0221425D01*
Y0221325D01*
Y0221225D01*
Y0221125D01*
X1309250D01*
Y0221025D01*
Y0220925D01*
Y0220825D01*
Y0220725D01*
Y0220625D01*
X1309150D01*
Y0220525D01*
Y0220425D01*
Y0220325D01*
Y0220225D01*
Y0220125D01*
X1309050D01*
Y0220025D01*
Y0219925D01*
Y0219825D01*
Y0219725D01*
Y0219625D01*
X1308950D01*
Y0219525D01*
Y0219425D01*
Y0219325D01*
Y0219225D01*
Y0219125D01*
X1308850D01*
Y0219025D01*
Y0218925D01*
Y0218825D01*
Y0218725D01*
Y0218625D01*
X1308750D01*
Y0218525D01*
Y0218425D01*
Y0218325D01*
Y0218225D01*
Y0218125D01*
X1308650D01*
Y0218025D01*
Y0217925D01*
Y0217825D01*
Y0217725D01*
Y0217625D01*
X1308550D01*
Y0217525D01*
Y0217425D01*
Y0217325D01*
Y0217225D01*
Y0217125D01*
X1308450D01*
Y0217025D01*
Y0216925D01*
Y0216825D01*
Y0216725D01*
Y0216625D01*
X1308350D01*
Y0216525D01*
Y0216425D01*
Y0216325D01*
Y0216225D01*
Y0216125D01*
X1308250D01*
Y0216025D01*
Y0215925D01*
Y0215825D01*
Y0215725D01*
Y0215625D01*
X1308150D01*
Y0215525D01*
Y0215425D01*
Y0215325D01*
Y0215225D01*
Y0215125D01*
X1308050D01*
Y0215025D01*
Y0214925D01*
Y0214825D01*
Y0214725D01*
Y0214625D01*
X1307950D01*
Y0214525D01*
Y0214425D01*
Y0214325D01*
Y0214225D01*
Y0214125D01*
X1305550D01*
Y0214225D01*
Y0214325D01*
Y0214425D01*
X1305650D01*
Y0214525D01*
Y0214625D01*
Y0214725D01*
Y0214825D01*
Y0214925D01*
X1305750D01*
Y0215025D01*
Y0215125D01*
Y0215225D01*
Y0215325D01*
Y0215425D01*
X1305850D01*
Y0215525D01*
Y0215625D01*
Y0215725D01*
Y0215825D01*
Y0215925D01*
X1305950D01*
Y0216025D01*
Y0216125D01*
Y0216225D01*
Y0216325D01*
Y0216425D01*
X1306050D01*
Y0216525D01*
Y0216625D01*
Y0216725D01*
Y0216825D01*
Y0216925D01*
X1306150D01*
Y0217025D01*
Y0217125D01*
Y0217225D01*
Y0217325D01*
Y0217425D01*
X1306250D01*
Y0217525D01*
Y0217625D01*
Y0217725D01*
Y0217825D01*
Y0217925D01*
X1306350D01*
Y0218025D01*
Y0218125D01*
Y0218225D01*
Y0218325D01*
Y0218425D01*
X1306450D01*
Y0218525D01*
Y0218625D01*
Y0218725D01*
Y0218825D01*
Y0218925D01*
X1306550D01*
Y0219025D01*
Y0219125D01*
Y0219225D01*
Y0219325D01*
Y0219425D01*
X1306650D01*
Y0219525D01*
Y0219625D01*
Y0219725D01*
Y0219825D01*
Y0219925D01*
X1306750D01*
Y0220025D01*
Y0220125D01*
Y0220225D01*
Y0220325D01*
Y0220425D01*
X1306850D01*
Y0220525D01*
Y0220625D01*
Y0220725D01*
Y0220825D01*
Y0220925D01*
X1306950D01*
Y0221025D01*
Y0221125D01*
Y0221225D01*
Y0221325D01*
Y0221425D01*
X1307050D01*
Y0221525D01*
Y0221625D01*
Y0221725D01*
Y0221825D01*
Y0221925D01*
X1307150D01*
Y0222025D01*
Y0222125D01*
Y0222225D01*
Y0222325D01*
Y0222425D01*
X1307250D01*
Y0222525D01*
Y0222625D01*
Y0222725D01*
Y0222825D01*
Y0222925D01*
X1307350D01*
Y0223025D01*
Y0223125D01*
Y0223225D01*
Y0223325D01*
Y0223425D01*
X1307450D01*
Y0223525D01*
Y0223625D01*
Y0223725D01*
Y0223825D01*
Y0223925D01*
X1307550D01*
Y0224025D01*
Y0224125D01*
Y0224225D01*
Y0224325D01*
X1309950D01*
Y0224225D01*
D02*
G37*
G36*
X1404650Y0209925D02*
X1405050D01*
Y0209825D01*
X1405250D01*
Y0209725D01*
X1405450D01*
Y0209625D01*
X1405750D01*
Y0209725D01*
Y0209825D01*
X1405850D01*
Y0209925D01*
X1406250D01*
Y0209825D01*
Y0209725D01*
Y0209625D01*
X1406350D01*
Y0209525D01*
Y0209425D01*
Y0209325D01*
Y0209225D01*
X1406450D01*
Y0209125D01*
Y0209025D01*
Y0208925D01*
X1406550D01*
Y0208825D01*
Y0208725D01*
Y0208625D01*
Y0208525D01*
X1406650D01*
Y0208425D01*
Y0208325D01*
Y0208225D01*
X1406750D01*
Y0208125D01*
Y0208025D01*
Y0207925D01*
Y0207825D01*
X1406450D01*
Y0207925D01*
X1406350D01*
Y0208025D01*
X1406250D01*
Y0208125D01*
X1406150D01*
Y0208225D01*
X1406050D01*
Y0208325D01*
X1405850D01*
Y0208425D01*
X1405750D01*
Y0208525D01*
X1405550D01*
Y0208625D01*
X1405450D01*
Y0208725D01*
X1405150D01*
Y0208825D01*
X1404950D01*
Y0208925D01*
X1404550D01*
Y0209025D01*
X1403250D01*
Y0208925D01*
X1402950D01*
Y0208825D01*
X1402750D01*
Y0208725D01*
X1402650D01*
Y0208625D01*
X1402550D01*
Y0208525D01*
Y0208425D01*
X1402450D01*
Y0208325D01*
Y0208225D01*
Y0208125D01*
Y0208025D01*
Y0207925D01*
Y0207825D01*
Y0207725D01*
X1402550D01*
Y0207625D01*
X1402650D01*
Y0207525D01*
X1402750D01*
Y0207425D01*
X1402850D01*
Y0207325D01*
X1403150D01*
Y0207225D01*
X1403450D01*
Y0207125D01*
X1403950D01*
Y0207025D01*
X1404350D01*
Y0206925D01*
X1404850D01*
Y0206825D01*
X1405250D01*
Y0206725D01*
X1405550D01*
Y0206625D01*
X1405850D01*
Y0206525D01*
X1406050D01*
Y0206425D01*
X1406250D01*
Y0206325D01*
X1406450D01*
Y0206225D01*
X1406550D01*
Y0206125D01*
X1406650D01*
Y0206025D01*
X1406750D01*
Y0205925D01*
X1406850D01*
Y0205825D01*
X1406950D01*
Y0205725D01*
X1407050D01*
Y0205625D01*
Y0205525D01*
X1407150D01*
Y0205425D01*
Y0205325D01*
X1407250D01*
Y0205225D01*
Y0205125D01*
Y0205025D01*
Y0204925D01*
Y0204825D01*
Y0204725D01*
Y0204625D01*
X1407350D01*
Y0204525D01*
Y0204425D01*
Y0204325D01*
Y0204225D01*
X1407250D01*
Y0204125D01*
Y0204025D01*
Y0203925D01*
Y0203825D01*
Y0203725D01*
Y0203625D01*
X1407150D01*
Y0203525D01*
Y0203425D01*
X1407050D01*
Y0203325D01*
Y0203225D01*
X1406950D01*
Y0203125D01*
Y0203025D01*
X1406850D01*
Y0202925D01*
X1406750D01*
Y0202825D01*
X1406650D01*
Y0202725D01*
X1406550D01*
Y0202625D01*
X1406450D01*
Y0202525D01*
X1406250D01*
Y0202425D01*
X1406150D01*
Y0202325D01*
X1405950D01*
Y0202225D01*
X1405650D01*
Y0202125D01*
X1405350D01*
Y0202025D01*
X1404850D01*
Y0201925D01*
X1403450D01*
Y0202025D01*
X1402950D01*
Y0202125D01*
X1402650D01*
Y0202225D01*
X1402450D01*
Y0202325D01*
X1402250D01*
Y0202425D01*
X1401950D01*
Y0202325D01*
X1401850D01*
Y0202225D01*
Y0202125D01*
Y0202025D01*
X1401450D01*
Y0202125D01*
X1401350D01*
Y0202225D01*
Y0202325D01*
Y0202425D01*
Y0202525D01*
X1401250D01*
Y0202625D01*
Y0202725D01*
Y0202825D01*
Y0202925D01*
X1401150D01*
Y0203025D01*
Y0203125D01*
Y0203225D01*
X1401050D01*
Y0203325D01*
Y0203425D01*
Y0203525D01*
Y0203625D01*
X1400950D01*
Y0203725D01*
Y0203825D01*
Y0203925D01*
Y0204025D01*
X1400850D01*
Y0204125D01*
Y0204225D01*
Y0204325D01*
Y0204425D01*
Y0204525D01*
X1401050D01*
Y0204425D01*
X1401150D01*
Y0204325D01*
X1401250D01*
Y0204225D01*
X1401350D01*
Y0204125D01*
X1401450D01*
Y0204025D01*
X1401550D01*
Y0203925D01*
X1401650D01*
Y0203825D01*
X1401850D01*
Y0203725D01*
X1401950D01*
Y0203625D01*
X1402050D01*
Y0203525D01*
X1402250D01*
Y0203425D01*
X1402350D01*
Y0203325D01*
X1402550D01*
Y0203225D01*
X1402850D01*
Y0203125D01*
X1403150D01*
Y0203025D01*
X1403550D01*
Y0202925D01*
X1404650D01*
Y0203025D01*
X1404950D01*
Y0203125D01*
X1405250D01*
Y0203225D01*
X1405350D01*
Y0203325D01*
X1405450D01*
Y0203425D01*
X1405550D01*
Y0203525D01*
X1405650D01*
Y0203625D01*
Y0203725D01*
X1405750D01*
Y0203825D01*
Y0203925D01*
Y0204025D01*
Y0204125D01*
Y0204225D01*
Y0204325D01*
Y0204425D01*
Y0204525D01*
X1405650D01*
Y0204625D01*
X1405550D01*
Y0204725D01*
Y0204825D01*
X1405350D01*
Y0204925D01*
X1405250D01*
Y0205025D01*
X1404950D01*
Y0205125D01*
X1404650D01*
Y0205225D01*
X1404250D01*
Y0205325D01*
X1403750D01*
Y0205425D01*
X1403350D01*
Y0205525D01*
X1402950D01*
Y0205625D01*
X1402550D01*
Y0205725D01*
X1402350D01*
Y0205825D01*
X1402150D01*
Y0205925D01*
X1401950D01*
Y0206025D01*
X1401850D01*
Y0206125D01*
X1401650D01*
Y0206225D01*
X1401550D01*
Y0206325D01*
X1401450D01*
Y0206425D01*
X1401350D01*
Y0206525D01*
Y0206625D01*
X1401250D01*
Y0206725D01*
X1401150D01*
Y0206825D01*
Y0206925D01*
Y0207025D01*
X1401050D01*
Y0207125D01*
Y0207225D01*
Y0207325D01*
Y0207425D01*
Y0207525D01*
Y0207625D01*
Y0207725D01*
Y0207825D01*
Y0207925D01*
Y0208025D01*
Y0208125D01*
Y0208225D01*
Y0208325D01*
Y0208425D01*
X1401150D01*
Y0208525D01*
Y0208625D01*
Y0208725D01*
X1401250D01*
Y0208825D01*
Y0208925D01*
X1401350D01*
Y0209025D01*
X1401450D01*
Y0209125D01*
X1401550D01*
Y0209225D01*
Y0209325D01*
X1401650D01*
Y0209425D01*
X1401850D01*
Y0209525D01*
X1401950D01*
Y0209625D01*
X1402150D01*
Y0209725D01*
X1402350D01*
Y0209825D01*
X1402550D01*
Y0209925D01*
X1402950D01*
Y0210025D01*
X1404650D01*
Y0209925D01*
D02*
G37*
%LPC*%
G36*
X1354750Y0208925D02*
X1352850D01*
Y0208825D01*
Y0208725D01*
X1352750D01*
Y0208625D01*
Y0208525D01*
Y0208425D01*
Y0208325D01*
Y0208225D01*
Y0208125D01*
Y0208025D01*
Y0207925D01*
Y0207825D01*
Y0207725D01*
Y0207625D01*
Y0207525D01*
Y0207425D01*
Y0207325D01*
Y0207225D01*
Y0207125D01*
Y0207025D01*
Y0206925D01*
Y0206825D01*
Y0206725D01*
Y0206625D01*
Y0206525D01*
Y0206425D01*
Y0206325D01*
Y0206225D01*
X1354450D01*
Y0206325D01*
X1354750D01*
Y0206425D01*
X1354950D01*
Y0206525D01*
X1355150D01*
Y0206625D01*
X1355250D01*
Y0206725D01*
X1355350D01*
Y0206825D01*
Y0206925D01*
X1355450D01*
Y0207025D01*
Y0207125D01*
X1355550D01*
Y0207225D01*
Y0207325D01*
Y0207425D01*
Y0207525D01*
Y0207625D01*
X1355650D01*
Y0207725D01*
Y0207825D01*
X1355550D01*
Y0207925D01*
Y0208025D01*
Y0208125D01*
Y0208225D01*
X1355450D01*
Y0208325D01*
Y0208425D01*
X1355350D01*
Y0208525D01*
X1355250D01*
Y0208625D01*
X1355150D01*
Y0208725D01*
X1355050D01*
Y0208825D01*
X1354750D01*
Y0208925D01*
D02*
G37*
G36*
X1347050Y0220425D02*
X1346950D01*
Y0220325D01*
Y0220225D01*
Y0220125D01*
X1346850D01*
Y0220025D01*
Y0219925D01*
X1346750D01*
Y0219825D01*
Y0219725D01*
Y0219625D01*
X1346650D01*
Y0219525D01*
Y0219425D01*
Y0219325D01*
X1346550D01*
Y0219225D01*
Y0219125D01*
X1346450D01*
Y0219025D01*
Y0218925D01*
Y0218825D01*
X1346350D01*
Y0218725D01*
Y0218625D01*
Y0218525D01*
X1346250D01*
Y0218425D01*
Y0218325D01*
X1346150D01*
Y0218225D01*
Y0218125D01*
Y0218025D01*
X1346050D01*
Y0217925D01*
Y0217825D01*
X1345950D01*
Y0217725D01*
Y0217625D01*
Y0217525D01*
X1345850D01*
Y0217425D01*
Y0217325D01*
Y0217225D01*
X1345750D01*
Y0217125D01*
X1348250D01*
Y0217225D01*
Y0217325D01*
X1348150D01*
Y0217425D01*
Y0217525D01*
Y0217625D01*
X1348050D01*
Y0217725D01*
Y0217825D01*
X1347950D01*
Y0217925D01*
Y0218025D01*
Y0218125D01*
X1347850D01*
Y0218225D01*
Y0218325D01*
Y0218425D01*
X1347750D01*
Y0218525D01*
Y0218625D01*
X1347650D01*
Y0218725D01*
Y0218825D01*
Y0218925D01*
X1347550D01*
Y0219025D01*
Y0219125D01*
Y0219225D01*
X1347450D01*
Y0219325D01*
Y0219425D01*
Y0219525D01*
X1347350D01*
Y0219625D01*
Y0219725D01*
X1347250D01*
Y0219825D01*
Y0219925D01*
Y0220025D01*
X1347150D01*
Y0220125D01*
Y0220225D01*
Y0220325D01*
X1347050D01*
Y0220425D01*
D02*
G37*
%LPD*%
G54D54*
X1350050Y0041050D02*
Y0101050D01*
X1199550Y0161050D02*
X1499550D01*
X1199550Y0101050D02*
Y0161050D01*
Y0071050D02*
X1499550D01*
X1199550Y0131050D02*
X1499550D01*
X1270050Y0950050D02*
Y0970050D01*
X1020050Y0950050D02*
Y0970050D01*
X0770050Y0950050D02*
Y0970050D01*
X0520050Y0950050D02*
Y0970050D01*
X0040050Y0950050D02*
X1500050D01*
X0020050Y0970050D02*
X1520050D01*
X0270050Y0950050D02*
Y0970050D01*
X1500050Y0040050D02*
Y0950050D01*
X1520050Y0020050D02*
Y0970050D01*
X1500050Y0732550D02*
X1520050D01*
X1500050Y0495050D02*
X1520050D01*
X1500050Y0257550D02*
X1520050D01*
X1270050Y0020050D02*
Y0040050D01*
X1020050Y0020050D02*
Y0040050D01*
X0770050Y0020050D02*
Y0040050D01*
X0520050Y0020050D02*
Y0040050D01*
X1500050D02*
Y0160050D01*
X0020050Y0020050D02*
Y0970050D01*
Y0020050D02*
X1520050D01*
X0040050Y0040050D02*
Y0950050D01*
Y0040050D02*
X1500050D01*
X0020050Y0732550D02*
X0040050D01*
X0020050Y0495050D02*
X0040050D01*
X0020050Y0257550D02*
X0040050D01*
X0270050Y0020050D02*
Y0040050D01*
X1199650Y0190450D02*
X1499650D01*
X1199550Y0161050D02*
Y0190450D01*
X1199650Y0240500D02*
X1500050D01*
X1199550Y0101050D02*
X1499550D01*
X1199550Y0040050D02*
Y0101050D01*
X0701300D02*
X1199550D01*
X0701300Y0040050D02*
Y0101050D01*
X1199550Y0190450D02*
Y0240500D01*
X1199650D01*
X0497200Y0080717D02*
Y0101050D01*
X0413200Y0080717D02*
Y0101050D01*
X0040000Y0080717D02*
X0700200D01*
X0040000Y0060383D02*
X0700000D01*
X0040000Y0040050D02*
X0440500D01*
X0040050Y0101050D02*
X0700200D01*
X0040050Y0040050D02*
Y0101050D01*
Y0040050D02*
X0197600D01*
X0040000D02*
Y0101050D01*
X0286500Y0040050D02*
Y0101050D01*
X0700200Y0040050D02*
Y0101050D01*
X0440500Y0040050D02*
X0700200D01*
X0559400Y0039400D02*
Y0059683D01*
G54D58*
X0126900Y0067551D02*
Y0073549D01*
X0128899Y0071549D01*
X0130899Y0073549D01*
Y0067551D01*
X0132898Y0068550D02*
X0133898Y0067551D01*
X0135897D01*
X0136897Y0068550D01*
Y0072549D01*
X0135897Y0073549D01*
X0133898D01*
X0132898Y0072549D01*
Y0071549D01*
X0133898Y0070550D01*
X0136897D01*
X0144894Y0073549D02*
X0148893D01*
X0146894D01*
Y0067551D01*
X0150892D02*
X0152892D01*
X0151892D01*
Y0071549D01*
X0150892D01*
X0156890Y0072549D02*
Y0071549D01*
X0155891D01*
X0157890D01*
X0156890D01*
Y0068550D01*
X0157890Y0067551D01*
X0160889D02*
X0162888D01*
X0161889D01*
Y0073549D01*
X0160889D01*
X0168886Y0067551D02*
X0166887D01*
X0165887Y0068550D01*
Y0070550D01*
X0166887Y0071549D01*
X0168886D01*
X0169886Y0070550D01*
Y0069550D01*
X0165887D01*
X0181882Y0072549D02*
X0180883Y0073549D01*
X0178883D01*
X0177884Y0072549D01*
Y0071549D01*
X0178883Y0070550D01*
X0180883D01*
X0181882Y0069550D01*
Y0068550D01*
X0180883Y0067551D01*
X0178883D01*
X0177884Y0068550D01*
X0183882Y0073549D02*
Y0067551D01*
Y0070550D01*
X0184881Y0071549D01*
X0186881D01*
X0187880Y0070550D01*
Y0067551D01*
X0192879D02*
X0190879D01*
X0189880Y0068550D01*
Y0070550D01*
X0190879Y0071549D01*
X0192879D01*
X0193878Y0070550D01*
Y0069550D01*
X0189880D01*
X0198877Y0067551D02*
X0196877D01*
X0195878Y0068550D01*
Y0070550D01*
X0196877Y0071549D01*
X0198877D01*
X0199876Y0070550D01*
Y0069550D01*
X0195878D01*
X0202875Y0072549D02*
Y0071549D01*
X0201876D01*
X0203875D01*
X0202875D01*
Y0068550D01*
X0203875Y0067551D01*
X0567400Y0087833D02*
Y0093831D01*
X0571399Y0087833D01*
Y0093831D01*
X0574398Y0087833D02*
X0576397D01*
X0577397Y0088833D01*
Y0090832D01*
X0576397Y0091832D01*
X0574398D01*
X0573398Y0090832D01*
Y0088833D01*
X0574398Y0087833D01*
X0580396Y0092832D02*
Y0091832D01*
X0579396D01*
X0581395D01*
X0580396D01*
Y0088833D01*
X0581395Y0087833D01*
X0590393Y0093831D02*
X0592392D01*
X0591392D01*
Y0087833D01*
X0590393D01*
X0592392D01*
X0595391D02*
Y0091832D01*
X0598390D01*
X0599390Y0090832D01*
Y0087833D01*
X0607387Y0093831D02*
Y0089833D01*
X0609386Y0087833D01*
X0611386Y0089833D01*
Y0093831D01*
X0616384Y0087833D02*
X0614385D01*
X0613385Y0088833D01*
Y0090832D01*
X0614385Y0091832D01*
X0616384D01*
X0617384Y0090832D01*
Y0089833D01*
X0613385D01*
X0619383Y0091832D02*
Y0087833D01*
Y0089833D01*
X0620383Y0090832D01*
X0621383Y0091832D01*
X0622382D01*
X0625381Y0087833D02*
X0628380D01*
X0629380Y0088833D01*
X0628380Y0089833D01*
X0626381D01*
X0625381Y0090832D01*
X0626381Y0091832D01*
X0629380D01*
X0631379Y0087833D02*
X0633379D01*
X0632379D01*
Y0091832D01*
X0631379D01*
X0637377Y0087833D02*
X0639377D01*
X0640376Y0088833D01*
Y0090832D01*
X0639377Y0091832D01*
X0637377D01*
X0636378Y0090832D01*
Y0088833D01*
X0637377Y0087833D01*
X0642376D02*
Y0091832D01*
X0645375D01*
X0646374Y0090832D01*
Y0087833D01*
X0652373Y0092832D02*
X0651373Y0093831D01*
X0649373D01*
X0648374Y0092832D01*
Y0088833D01*
X0649373Y0087833D01*
X0651373D01*
X0652373Y0088833D01*
X0655372Y0087833D02*
X0657371D01*
X0658371Y0088833D01*
Y0090832D01*
X0657371Y0091832D01*
X0655372D01*
X0654372Y0090832D01*
Y0088833D01*
X0655372Y0087833D01*
X0660370D02*
Y0091832D01*
X0663369D01*
X0664369Y0090832D01*
Y0087833D01*
X0667368Y0092832D02*
Y0091832D01*
X0666368D01*
X0668367D01*
X0667368D01*
Y0088833D01*
X0668367Y0087833D01*
X0671366Y0091832D02*
Y0087833D01*
Y0089833D01*
X0672366Y0090832D01*
X0673366Y0091832D01*
X0674365D01*
X0678364Y0087833D02*
X0680364D01*
X0681363Y0088833D01*
Y0090832D01*
X0680364Y0091832D01*
X0678364D01*
X0677364Y0090832D01*
Y0088833D01*
X0678364Y0087833D01*
X0683362D02*
X0685362D01*
X0684362D01*
Y0093831D01*
X0683362D01*
X0520799Y0092832D02*
X0519799Y0093831D01*
X0517800D01*
X0516800Y0092832D01*
Y0091832D01*
X0517800Y0090832D01*
X0519799D01*
X0520799Y0089833D01*
Y0088833D01*
X0519799Y0087833D01*
X0517800D01*
X0516800Y0088833D01*
X0522798Y0093831D02*
Y0089833D01*
X0524797Y0087833D01*
X0526797Y0089833D01*
Y0093831D01*
X0528796Y0087833D02*
Y0093831D01*
X0532795Y0087833D01*
Y0093831D01*
X0540792Y0087833D02*
Y0093831D01*
X0543791D01*
X0544791Y0092832D01*
Y0090832D01*
X0543791Y0089833D01*
X0540792D01*
X0542792D02*
X0544791Y0087833D01*
X0550789Y0093831D02*
X0546790D01*
Y0087833D01*
X0550789D01*
X0546790Y0090832D02*
X0548790D01*
X0552788Y0093831D02*
Y0089833D01*
X0554788Y0087833D01*
X0556787Y0089833D01*
Y0093831D01*
X0558786Y0091832D02*
X0559786D01*
Y0090832D01*
X0558786D01*
Y0091832D01*
Y0088833D02*
X0559786D01*
Y0087833D01*
X0558786D01*
Y0088833D01*
X0433000Y0087833D02*
Y0093831D01*
X0435999D01*
X0436999Y0092832D01*
Y0090832D01*
X0435999Y0089833D01*
X0433000D01*
X0434999D02*
X0436999Y0087833D01*
X0442997Y0093831D02*
X0438998D01*
Y0087833D01*
X0442997D01*
X0438998Y0090832D02*
X0440997D01*
X0444996Y0093831D02*
Y0089833D01*
X0446995Y0087833D01*
X0448995Y0089833D01*
Y0093831D01*
X0450994Y0091832D02*
X0451994D01*
Y0090832D01*
X0450994D01*
Y0091832D01*
Y0088833D02*
X0451994D01*
Y0087833D01*
X0450994D01*
Y0088833D01*
X0126900Y0046966D02*
Y0052965D01*
X0128899Y0050965D01*
X0130899Y0052965D01*
Y0046966D01*
X0136897Y0051965D02*
X0135897Y0052965D01*
X0133898D01*
X0132898Y0051965D01*
Y0047966D01*
X0133898Y0046966D01*
X0135897D01*
X0136897Y0047966D01*
X0138896Y0052965D02*
Y0047966D01*
X0139896Y0046966D01*
X0141895D01*
X0142895Y0047966D01*
Y0052965D01*
X0144894Y0051965D02*
X0145894Y0052965D01*
X0147893D01*
X0148893Y0051965D01*
Y0047966D01*
X0147893Y0046966D01*
X0145894D01*
X0144894Y0047966D01*
Y0051965D01*
X0154891Y0046966D02*
X0150892D01*
X0154891Y0050965D01*
Y0051965D01*
X0153891Y0052965D01*
X0151892D01*
X0150892Y0051965D01*
X0156890D02*
X0157890Y0052965D01*
X0159889D01*
X0160889Y0051965D01*
Y0050965D01*
X0159889Y0049966D01*
X0158890D01*
X0159889D01*
X0160889Y0048966D01*
Y0047966D01*
X0159889Y0046966D01*
X0157890D01*
X0156890Y0047966D01*
X0162888Y0046966D02*
X0164888D01*
X0163888D01*
Y0052965D01*
X0162888Y0051965D01*
X0167887Y0046966D02*
Y0047966D01*
X0168886D01*
Y0046966D01*
X0167887D01*
X0172885Y0051965D02*
X0173885Y0052965D01*
X0175884D01*
X0176884Y0051965D01*
Y0047966D01*
X0175884Y0046966D01*
X0173885D01*
X0172885Y0047966D01*
Y0051965D01*
X0178883Y0046966D02*
Y0047966D01*
X0179883D01*
Y0046966D01*
X0178883D01*
X0187880Y0051965D02*
X0186881Y0052965D01*
X0184881D01*
X0183882Y0051965D01*
Y0047966D01*
X0184881Y0046966D01*
X0186881D01*
X0187880Y0047966D01*
Y0049966D01*
X0185881D01*
X0189880Y0046966D02*
Y0052965D01*
X0191879Y0050965D01*
X0193878Y0052965D01*
Y0046966D01*
X0195878Y0047966D02*
X0196877Y0046966D01*
X0198877D01*
X0199876Y0047966D01*
Y0051965D01*
X0198877Y0052965D01*
X0196877D01*
X0195878Y0051965D01*
Y0050965D01*
X0196877Y0049966D01*
X0199876D01*
X0381150Y0046966D02*
X0383149D01*
X0382150D01*
Y0052965D01*
X0381150Y0051965D01*
X0386148D02*
X0387148Y0052965D01*
X0389147D01*
X0390147Y0051965D01*
Y0047966D01*
X0389147Y0046966D01*
X0387148D01*
X0386148Y0047966D01*
Y0051965D01*
X0392146Y0046966D02*
X0396145Y0050965D01*
X0398145Y0046966D02*
X0400144D01*
X0399144D01*
Y0052965D01*
X0398145Y0051965D01*
X0407142Y0046966D02*
X0403143D01*
X0407142Y0050965D01*
Y0051965D01*
X0406142Y0052965D01*
X0404143D01*
X0403143Y0051965D01*
X0409141Y0046966D02*
X0413140Y0050965D01*
X0419138Y0046966D02*
X0415139D01*
X0419138Y0050965D01*
Y0051965D01*
X0418138Y0052965D01*
X0416139D01*
X0415139Y0051965D01*
X0421137D02*
X0422137Y0052965D01*
X0424136D01*
X0425136Y0051965D01*
Y0047966D01*
X0424136Y0046966D01*
X0422137D01*
X0421137Y0047966D01*
Y0051965D01*
X0427135Y0046966D02*
X0429135D01*
X0428135D01*
Y0052965D01*
X0427135Y0051965D01*
X0432133Y0052965D02*
X0436132D01*
Y0051965D01*
X0432133Y0047966D01*
Y0046966D01*
X0298199Y0051965D02*
X0297199Y0052965D01*
X0295200D01*
X0294200Y0051965D01*
Y0047966D01*
X0295200Y0046966D01*
X0297199D01*
X0298199Y0047966D01*
Y0049966D01*
X0296199D01*
X0304197Y0052965D02*
X0300198D01*
Y0046966D01*
X0304197D01*
X0300198Y0049966D02*
X0302197D01*
X0306196Y0046966D02*
Y0052965D01*
X0310195Y0046966D01*
Y0052965D01*
X0316193D02*
X0312194D01*
Y0046966D01*
X0316193D01*
X0312194Y0049966D02*
X0314194D01*
X0318192Y0046966D02*
Y0052965D01*
X0321191D01*
X0322191Y0051965D01*
Y0049966D01*
X0321191Y0048966D01*
X0318192D01*
X0320192D02*
X0322191Y0046966D01*
X0324190D02*
Y0050965D01*
X0326190Y0052965D01*
X0328189Y0050965D01*
Y0046966D01*
Y0049966D01*
X0324190D01*
X0330188Y0052965D02*
X0334187D01*
X0332188D01*
Y0046966D01*
X0340185Y0052965D02*
X0336186D01*
Y0046966D01*
X0340185D01*
X0336186Y0049966D02*
X0338186D01*
X0342184Y0052965D02*
Y0046966D01*
X0345183D01*
X0346183Y0047966D01*
Y0051965D01*
X0345183Y0052965D01*
X0342184D01*
X0372175Y0050965D02*
X0373175D01*
Y0049966D01*
X0372175D01*
Y0050965D01*
Y0047966D02*
X0373175D01*
Y0046966D01*
X0372175D01*
Y0047966D01*
X0046350Y0087833D02*
Y0091832D01*
X0048349Y0093831D01*
X0050349Y0091832D01*
Y0087833D01*
Y0090832D01*
X0046350D01*
X0052348Y0093831D02*
Y0087833D01*
X0056347D01*
X0058346Y0093831D02*
Y0087833D01*
X0062345D01*
X0070342D02*
Y0091832D01*
X0072342Y0093831D01*
X0074341Y0091832D01*
Y0087833D01*
Y0090832D01*
X0070342D01*
X0076340Y0087833D02*
Y0093831D01*
X0079339D01*
X0080339Y0092832D01*
Y0090832D01*
X0079339Y0089833D01*
X0076340D01*
X0078340D02*
X0080339Y0087833D01*
X0082338Y0093831D02*
X0086337D01*
X0084338D01*
Y0087833D01*
X0088336Y0093831D02*
Y0087833D01*
X0090336Y0089833D01*
X0092335Y0087833D01*
Y0093831D01*
X0097334D02*
X0095334D01*
X0094335Y0092832D01*
Y0088833D01*
X0095334Y0087833D01*
X0097334D01*
X0098333Y0088833D01*
Y0092832D01*
X0097334Y0093831D01*
X0100332Y0087833D02*
Y0093831D01*
X0103332D01*
X0104331Y0092832D01*
Y0090832D01*
X0103332Y0089833D01*
X0100332D01*
X0102332D02*
X0104331Y0087833D01*
X0106331Y0093831D02*
Y0087833D01*
Y0089833D01*
X0110329Y0093831D01*
X0107330Y0090832D01*
X0110329Y0087833D01*
X0118327Y0093831D02*
Y0089833D01*
X0120326Y0087833D01*
X0122325Y0089833D01*
Y0093831D01*
X0124325D02*
X0126324D01*
X0125324D01*
Y0087833D01*
X0124325D01*
X0126324D01*
X0133322Y0093831D02*
X0129323D01*
Y0087833D01*
X0133322D01*
X0129323Y0090832D02*
X0131323D01*
X0135321Y0093831D02*
Y0087833D01*
X0137321Y0089833D01*
X0139320Y0087833D01*
Y0093831D01*
X0145318D02*
X0141319D01*
Y0087833D01*
X0145318D01*
X0141319Y0090832D02*
X0143319D01*
X0147317Y0093831D02*
Y0087833D01*
X0150316D01*
X0151316Y0088833D01*
Y0092832D01*
X0150316Y0093831D01*
X0147317D01*
X0163312D02*
X0159313D01*
Y0090832D01*
X0161313D01*
X0159313D01*
Y0087833D01*
X0165312D02*
Y0093831D01*
X0168310D01*
X0169310Y0092832D01*
Y0090832D01*
X0168310Y0089833D01*
X0165312D01*
X0167311D02*
X0169310Y0087833D01*
X0174309Y0093831D02*
X0172309D01*
X0171310Y0092832D01*
Y0088833D01*
X0172309Y0087833D01*
X0174309D01*
X0175308Y0088833D01*
Y0092832D01*
X0174309Y0093831D01*
X0177308Y0087833D02*
Y0093831D01*
X0179307Y0091832D01*
X0181306Y0093831D01*
Y0087833D01*
X0189304Y0093831D02*
X0193303D01*
X0191303D01*
Y0087833D01*
X0198301Y0093831D02*
X0196301D01*
X0195302Y0092832D01*
Y0088833D01*
X0196301Y0087833D01*
X0198301D01*
X0199301Y0088833D01*
Y0092832D01*
X0198301Y0093831D01*
X0201300Y0087833D02*
Y0093831D01*
X0204299D01*
X0205299Y0092832D01*
Y0090832D01*
X0204299Y0089833D01*
X0201300D01*
X0217295Y0092832D02*
X0216295Y0093831D01*
X0214296D01*
X0213296Y0092832D01*
Y0091832D01*
X0214296Y0090832D01*
X0216295D01*
X0217295Y0089833D01*
Y0088833D01*
X0216295Y0087833D01*
X0214296D01*
X0213296Y0088833D01*
X0219294Y0093831D02*
X0221293D01*
X0220294D01*
Y0087833D01*
X0219294D01*
X0221293D01*
X0224292Y0093831D02*
Y0087833D01*
X0227291D01*
X0228291Y0088833D01*
Y0092832D01*
X0227291Y0093831D01*
X0224292D01*
X0234289D02*
X0230291D01*
Y0087833D01*
X0234289D01*
X0230291Y0090832D02*
X0232290D01*
X0462150Y0087833D02*
X0464149D01*
X0463150D01*
Y0093831D01*
X0462150Y0092832D01*
X0467148Y0087833D02*
Y0088833D01*
X0468148D01*
Y0087833D01*
X0467148D01*
X0472147Y0092832D02*
X0473146Y0093831D01*
X0475146D01*
X0476146Y0092832D01*
Y0088833D01*
X0475146Y0087833D01*
X0473146D01*
X0472147Y0088833D01*
Y0092832D01*
X0348550Y0087833D02*
Y0093831D01*
X0350549Y0091832D01*
X0352549Y0093831D01*
Y0087833D01*
X0358547Y0092832D02*
X0357547Y0093831D01*
X0355548D01*
X0354548Y0092832D01*
Y0088833D01*
X0355548Y0087833D01*
X0357547D01*
X0358547Y0088833D01*
X0360546Y0093831D02*
Y0088833D01*
X0361546Y0087833D01*
X0363545D01*
X0364545Y0088833D01*
Y0093831D01*
X0366544Y0092832D02*
X0367544Y0093831D01*
X0369543D01*
X0370543Y0092832D01*
Y0088833D01*
X0369543Y0087833D01*
X0367544D01*
X0366544Y0088833D01*
Y0092832D01*
X0376541Y0087833D02*
X0372542D01*
X0376541Y0091832D01*
Y0092832D01*
X0375541Y0093831D01*
X0373542D01*
X0372542Y0092832D01*
X0378540D02*
X0379540Y0093831D01*
X0381539D01*
X0382539Y0092832D01*
Y0091832D01*
X0381539Y0090832D01*
X0380540D01*
X0381539D01*
X0382539Y0089833D01*
Y0088833D01*
X0381539Y0087833D01*
X0379540D01*
X0378540Y0088833D01*
X0294000Y0093831D02*
Y0087833D01*
X0296999D01*
X0297999Y0088833D01*
Y0089833D01*
X0296999Y0090832D01*
X0294000D01*
X0296999D01*
X0297999Y0091832D01*
Y0092832D01*
X0296999Y0093831D01*
X0294000D01*
X0302997D02*
X0300998D01*
X0299998Y0092832D01*
Y0088833D01*
X0300998Y0087833D01*
X0302997D01*
X0303997Y0088833D01*
Y0092832D01*
X0302997Y0093831D01*
X0305996Y0087833D02*
Y0091832D01*
X0307996Y0093831D01*
X0309995Y0091832D01*
Y0087833D01*
Y0090832D01*
X0305996D01*
X0311994Y0087833D02*
Y0093831D01*
X0314993D01*
X0315993Y0092832D01*
Y0090832D01*
X0314993Y0089833D01*
X0311994D01*
X0313994D02*
X0315993Y0087833D01*
X0317992Y0093831D02*
Y0087833D01*
X0320991D01*
X0321991Y0088833D01*
Y0092832D01*
X0320991Y0093831D01*
X0317992D01*
X0330988Y0087833D02*
Y0093831D01*
X0332987D02*
Y0087833D01*
X0329988Y0091832D02*
X0332987D01*
X0333987D01*
X0329988Y0089833D02*
X0333987D01*
X0335986Y0091832D02*
X0336986D01*
Y0090832D01*
X0335986D01*
Y0091832D01*
Y0088833D02*
X0336986D01*
Y0087833D01*
X0335986D01*
Y0088833D01*
X0046350Y0073549D02*
Y0067551D01*
X0050349D01*
X0052348D02*
Y0071549D01*
X0054347Y0073549D01*
X0056347Y0071549D01*
Y0067551D01*
Y0070550D01*
X0052348D01*
X0058346Y0073549D02*
Y0072549D01*
X0060346Y0070550D01*
X0062345Y0072549D01*
Y0073549D01*
X0060346Y0070550D02*
Y0067551D01*
X0068343Y0073549D02*
X0064344D01*
Y0067551D01*
X0068343D01*
X0064344Y0070550D02*
X0066343D01*
X0070342Y0067551D02*
Y0073549D01*
X0073341D01*
X0074341Y0072549D01*
Y0070550D01*
X0073341Y0069550D01*
X0070342D01*
X0072342D02*
X0074341Y0067551D01*
X0082338D02*
Y0073549D01*
X0086337Y0067551D01*
Y0073549D01*
X0088336Y0067551D02*
Y0071549D01*
X0090336Y0073549D01*
X0092335Y0071549D01*
Y0067551D01*
Y0070550D01*
X0088336D01*
X0094335Y0067551D02*
Y0073549D01*
X0096334Y0071549D01*
X0098333Y0073549D01*
Y0067551D01*
X0104331Y0073549D02*
X0100332D01*
Y0067551D01*
X0104331D01*
X0100332Y0070550D02*
X0102332D01*
X0112329Y0069550D02*
X0116327D01*
X0112329Y0071549D02*
X0116327D01*
X0046350Y0046966D02*
Y0052965D01*
X0049349D01*
X0050349Y0051965D01*
Y0049966D01*
X0049349Y0048966D01*
X0046350D01*
X0052348Y0052965D02*
Y0046966D01*
X0056347D01*
X0061345Y0052965D02*
X0059346D01*
X0058346Y0051965D01*
Y0047966D01*
X0059346Y0046966D01*
X0061345D01*
X0062345Y0047966D01*
Y0051965D01*
X0061345Y0052965D01*
X0064344D02*
X0068343D01*
X0066343D01*
Y0046966D01*
X0076340D02*
Y0052965D01*
X0080339Y0046966D01*
Y0052965D01*
X0082338Y0046966D02*
Y0050965D01*
X0084338Y0052965D01*
X0086337Y0050965D01*
Y0046966D01*
Y0049966D01*
X0082338D01*
X0088336Y0046966D02*
Y0052965D01*
X0090336Y0050965D01*
X0092335Y0052965D01*
Y0046966D01*
X0098333Y0052965D02*
X0094335D01*
Y0046966D01*
X0098333D01*
X0094335Y0049966D02*
X0096334D01*
X0106331Y0048966D02*
X0110329D01*
X0106331Y0050965D02*
X0110329D01*
X0454050Y0051965D02*
X0455050Y0052965D01*
X0457049D01*
X0458049Y0051965D01*
Y0050965D01*
X0457049Y0049966D01*
X0456049D01*
X0457049D01*
X0458049Y0048966D01*
Y0047966D01*
X0457049Y0046966D01*
X0455050D01*
X0454050Y0047966D01*
X0460048Y0050965D02*
X0461048D01*
Y0049966D01*
X0460048D01*
Y0050965D01*
Y0047966D02*
X0461048D01*
Y0046966D01*
X0460048D01*
Y0047966D01*
X0469045Y0046966D02*
X0465046D01*
X0469045Y0050965D01*
Y0051965D01*
X0468046Y0052965D01*
X0466046D01*
X0465046Y0051965D01*
X0471044Y0052965D02*
X0475043D01*
Y0051965D01*
X0471044Y0047966D01*
Y0046966D01*
X0477043Y0050965D02*
X0478042D01*
Y0049966D01*
X0477043D01*
Y0050965D01*
Y0047966D02*
X0478042D01*
Y0046966D01*
X0477043D01*
Y0047966D01*
X0486040Y0052965D02*
X0482041D01*
Y0049966D01*
X0484040Y0050965D01*
X0485040D01*
X0486040Y0049966D01*
Y0047966D01*
X0485040Y0046966D01*
X0483041D01*
X0482041Y0047966D01*
X0488039Y0051965D02*
X0489039Y0052965D01*
X0491038D01*
X0492038Y0051965D01*
Y0050965D01*
X0491038Y0049966D01*
X0490038D01*
X0491038D01*
X0492038Y0048966D01*
Y0047966D01*
X0491038Y0046966D01*
X0489039D01*
X0488039Y0047966D01*
X0500035Y0046966D02*
Y0052965D01*
X0503034D01*
X0504034Y0051965D01*
Y0049966D01*
X0503034Y0048966D01*
X0500035D01*
X0506033Y0046966D02*
Y0052965D01*
X0508033Y0050965D01*
X0510032Y0052965D01*
Y0046966D01*
X0580500Y0052965D02*
X0584499D01*
X0582499D01*
Y0046966D01*
X0590497Y0052965D02*
X0586498D01*
Y0046966D01*
X0590497D01*
X0586498Y0049966D02*
X0588497D01*
X0592496Y0052965D02*
X0596495Y0046966D01*
Y0052965D02*
X0592496Y0046966D01*
X0598494D02*
Y0050965D01*
X0600493Y0052965D01*
X0602493Y0050965D01*
Y0046966D01*
Y0049966D01*
X0598494D01*
X0608491Y0051965D02*
X0607491Y0052965D01*
X0605492D01*
X0604492Y0051965D01*
Y0050965D01*
X0605492Y0049966D01*
X0607491D01*
X0608491Y0048966D01*
Y0047966D01*
X0607491Y0046966D01*
X0605492D01*
X0604492Y0047966D01*
X0616488Y0052965D02*
X0618488D01*
X0617488D01*
Y0046966D01*
X0616488D01*
X0618488D01*
X0621487D02*
Y0052965D01*
X0625486Y0046966D01*
Y0052965D01*
X0631484Y0051965D02*
X0630484Y0052965D01*
X0628484D01*
X0627485Y0051965D01*
Y0050965D01*
X0628484Y0049966D01*
X0630484D01*
X0631484Y0048966D01*
Y0047966D01*
X0630484Y0046966D01*
X0628484D01*
X0627485Y0047966D01*
X0633483Y0052965D02*
X0637482D01*
X0635482D01*
Y0046966D01*
X0639481D02*
Y0052965D01*
X0642480D01*
X0643480Y0051965D01*
Y0049966D01*
X0642480Y0048966D01*
X0639481D01*
X0641480D02*
X0643480Y0046966D01*
X0645479Y0052965D02*
Y0047966D01*
X0646479Y0046966D01*
X0648478D01*
X0649478Y0047966D01*
Y0052965D01*
X0651477Y0046966D02*
Y0052965D01*
X0653476Y0050965D01*
X0655476Y0052965D01*
Y0046966D01*
X0661474Y0052965D02*
X0657475D01*
Y0046966D01*
X0661474D01*
X0657475Y0049966D02*
X0659474D01*
X0663473Y0046966D02*
Y0052965D01*
X0667472Y0046966D01*
Y0052965D01*
X0669471D02*
X0673470D01*
X0671471D01*
Y0046966D01*
X0679468Y0051965D02*
X0678468Y0052965D01*
X0676469D01*
X0675469Y0051965D01*
Y0050965D01*
X0676469Y0049966D01*
X0678468D01*
X0679468Y0048966D01*
Y0047966D01*
X0678468Y0046966D01*
X0676469D01*
X0675469Y0047966D01*
X0294000Y0073498D02*
X0297999D01*
X0295999D01*
Y0067500D01*
X0299998Y0073498D02*
X0301997D01*
X0300998D01*
Y0067500D01*
X0299998D01*
X0301997D01*
X0304996Y0073498D02*
Y0067500D01*
X0307996D01*
X0308995Y0068500D01*
Y0072498D01*
X0307996Y0073498D01*
X0304996D01*
X0317992Y0067500D02*
Y0073498D01*
X0319992D02*
Y0067500D01*
X0316993Y0071499D02*
X0319992D01*
X0320991D01*
X0316993Y0069499D02*
X0320991D01*
X0322991Y0071499D02*
X0323990D01*
Y0070499D01*
X0322991D01*
Y0071499D01*
Y0068500D02*
X0323990D01*
Y0067500D01*
X0322991D01*
Y0068500D01*
X0348550Y0067500D02*
Y0073498D01*
X0352549Y0067500D01*
Y0073498D01*
X0354548Y0067500D02*
X0358547Y0071499D01*
X0360546Y0067500D02*
Y0071499D01*
X0362545Y0073498D01*
X0364545Y0071499D01*
Y0067500D01*
Y0070499D01*
X0360546D01*
G54D62*
X1359100Y0047717D02*
X1361433D01*
X1360266D01*
Y0054715D01*
X1359100Y0053549D01*
X1369597Y0054715D02*
X1367264Y0053549D01*
X1364931Y0051216D01*
Y0048884D01*
X1366098Y0047717D01*
X1368430D01*
X1369597Y0048884D01*
Y0050050D01*
X1368430Y0051216D01*
X1364931D01*
X1371929Y0047717D02*
Y0048884D01*
X1373096D01*
Y0047717D01*
X1371929D01*
X1377761D02*
X1380093D01*
X1378927D01*
Y0054715D01*
X1377761Y0053549D01*
X1383592Y0047717D02*
Y0048884D01*
X1384758D01*
Y0047717D01*
X1383592D01*
X1389423Y0048884D02*
X1390590Y0047717D01*
X1392922D01*
X1394089Y0048884D01*
Y0053549D01*
X1392922Y0054715D01*
X1390590D01*
X1389423Y0053549D01*
Y0052382D01*
X1390590Y0051216D01*
X1394089D01*
X1396421Y0047717D02*
Y0048884D01*
X1397588D01*
Y0047717D01*
X1396421D01*
X1406918D02*
X1402253D01*
X1406918Y0052382D01*
Y0053549D01*
X1405752Y0054715D01*
X1403419D01*
X1402253Y0053549D01*
X1413916Y0047717D02*
X1409251D01*
X1413916Y0052382D01*
Y0053549D01*
X1412749Y0054715D01*
X1410417D01*
X1409251Y0053549D01*
X1416248Y0047717D02*
X1418581D01*
X1417414D01*
Y0054715D01*
X1416248Y0053549D01*
X1208550Y0137050D02*
Y0144048D01*
X1212049D01*
X1213215Y0142881D01*
Y0140549D01*
X1212049Y0139383D01*
X1208550D01*
X1215548Y0141715D02*
Y0138216D01*
X1216714Y0137050D01*
X1220213D01*
Y0141715D01*
X1222546Y0144048D02*
Y0137050D01*
X1226044D01*
X1227211Y0138216D01*
Y0139383D01*
Y0140549D01*
X1226044Y0141715D01*
X1222546D01*
X1229543Y0137050D02*
X1231876D01*
X1230709D01*
Y0144048D01*
X1229543D01*
X1235375Y0137050D02*
X1237707D01*
X1236541D01*
Y0141715D01*
X1235375D01*
X1245871D02*
X1242372D01*
X1241206Y0140549D01*
Y0138216D01*
X1242372Y0137050D01*
X1245871D01*
X1255202D02*
Y0144048D01*
X1258700D01*
X1259867Y0142881D01*
Y0140549D01*
X1258700Y0139383D01*
X1255202D01*
X1257534D02*
X1259867Y0137050D01*
X1265698D02*
X1263366D01*
X1262199Y0138216D01*
Y0140549D01*
X1263366Y0141715D01*
X1265698D01*
X1266864Y0140549D01*
Y0139383D01*
X1262199D01*
X1269197Y0137050D02*
X1271530D01*
X1270363D01*
Y0144048D01*
X1269197D01*
X1278527Y0137050D02*
X1276195D01*
X1275029Y0138216D01*
Y0140549D01*
X1276195Y0141715D01*
X1278527D01*
X1279694Y0140549D01*
Y0139383D01*
X1275029D01*
X1283193Y0141715D02*
X1285525D01*
X1286691Y0140549D01*
Y0137050D01*
X1283193D01*
X1282026Y0138216D01*
X1283193Y0139383D01*
X1286691D01*
X1289024Y0137050D02*
X1292523D01*
X1293689Y0138216D01*
X1292523Y0139383D01*
X1290190D01*
X1289024Y0140549D01*
X1290190Y0141715D01*
X1293689D01*
X1299521Y0137050D02*
X1297188D01*
X1296022Y0138216D01*
Y0140549D01*
X1297188Y0141715D01*
X1299521D01*
X1300687Y0140549D01*
Y0139383D01*
X1296022D01*
X1208550Y0076551D02*
Y0083548D01*
X1210883Y0081216D01*
X1213215Y0083548D01*
Y0076551D01*
X1215548D02*
X1217880D01*
X1216714D01*
Y0081216D01*
X1215548D01*
X1221379Y0076551D02*
Y0083548D01*
Y0078883D02*
X1224878Y0081216D01*
X1221379Y0078883D02*
X1224878Y0076551D01*
X1231876D02*
X1229543D01*
X1228377Y0077717D01*
Y0080050D01*
X1229543Y0081216D01*
X1231876D01*
X1233042Y0080050D01*
Y0078883D01*
X1228377D01*
X1242372Y0076551D02*
Y0083548D01*
X1245871D01*
X1247038Y0082382D01*
Y0080050D01*
X1245871Y0078883D01*
X1242372D01*
X1249370Y0081216D02*
Y0076551D01*
Y0078883D01*
X1250536Y0080050D01*
X1251703Y0081216D01*
X1252869D01*
X1256368Y0076551D02*
X1258700D01*
X1257534D01*
Y0081216D01*
X1256368D01*
X1266864Y0083548D02*
Y0076551D01*
X1263366D01*
X1262199Y0077717D01*
Y0080050D01*
X1263366Y0081216D01*
X1266864D01*
X1271530Y0074218D02*
X1272696D01*
X1273862Y0075384D01*
Y0081216D01*
X1270363D01*
X1269197Y0080050D01*
Y0077717D01*
X1270363Y0076551D01*
X1273862D01*
X1279694D02*
X1277361D01*
X1276195Y0077717D01*
Y0080050D01*
X1277361Y0081216D01*
X1279694D01*
X1280860Y0080050D01*
Y0078883D01*
X1276195D01*
X1283193Y0076551D02*
Y0081216D01*
X1286691D01*
X1287858Y0080050D01*
Y0076551D01*
X1208550Y0109050D02*
Y0116048D01*
X1210883Y0113715D01*
X1213215Y0116048D01*
Y0109050D01*
X1220213Y0114881D02*
X1219047Y0116048D01*
X1216714D01*
X1215548Y0114881D01*
Y0110216D01*
X1216714Y0109050D01*
X1219047D01*
X1220213Y0110216D01*
X1222546Y0116048D02*
Y0110216D01*
X1223712Y0109050D01*
X1226044D01*
X1227211Y0110216D01*
Y0116048D01*
X1229543Y0114881D02*
X1230709Y0116048D01*
X1233042D01*
X1234208Y0114881D01*
Y0110216D01*
X1233042Y0109050D01*
X1230709D01*
X1229543Y0110216D01*
Y0114881D01*
X1241206Y0109050D02*
X1236541D01*
X1241206Y0113715D01*
Y0114881D01*
X1240040Y0116048D01*
X1237707D01*
X1236541Y0114881D01*
X1243539D02*
X1244705Y0116048D01*
X1247038D01*
X1248204Y0114881D01*
Y0113715D01*
X1247038Y0112549D01*
X1245871D01*
X1247038D01*
X1248204Y0111383D01*
Y0110216D01*
X1247038Y0109050D01*
X1244705D01*
X1243539Y0110216D01*
X1250536Y0107884D02*
X1255202D01*
X1257534Y0109050D02*
Y0116048D01*
X1259867Y0113715D01*
X1262199Y0116048D01*
Y0109050D01*
X1269197Y0114881D02*
X1268031Y0116048D01*
X1265698D01*
X1264532Y0114881D01*
Y0113715D01*
X1265698Y0112549D01*
X1268031D01*
X1269197Y0111383D01*
Y0110216D01*
X1268031Y0109050D01*
X1265698D01*
X1264532Y0110216D01*
X1271530Y0109050D02*
Y0116048D01*
X1275029D01*
X1276195Y0114881D01*
Y0112549D01*
X1275029Y0111383D01*
X1271530D01*
X1278527Y0112549D02*
X1283193D01*
X1290190Y0116048D02*
X1285525D01*
Y0109050D01*
X1290190D01*
X1285525Y0112549D02*
X1287858D01*
X1292523Y0116048D02*
X1297188Y0109050D01*
Y0116048D02*
X1292523Y0109050D01*
X1299521D02*
Y0116048D01*
X1303020D01*
X1304186Y0114881D01*
Y0112549D01*
X1303020Y0111383D01*
X1299521D01*
X1310017Y0109050D02*
Y0116048D01*
X1306518Y0112549D01*
X1311183D01*
X1313516Y0114881D02*
X1314682Y0116048D01*
X1317015D01*
X1318181Y0114881D01*
Y0113715D01*
X1317015Y0112549D01*
X1315849D01*
X1317015D01*
X1318181Y0111383D01*
Y0110216D01*
X1317015Y0109050D01*
X1314682D01*
X1313516Y0110216D01*
X1325179Y0109050D02*
X1320514D01*
X1325179Y0113715D01*
Y0114881D01*
X1324013Y0116048D01*
X1321680D01*
X1320514Y0114881D01*
X1332177Y0116048D02*
X1327512D01*
Y0109050D01*
X1332177D01*
X1327512Y0112549D02*
X1329844D01*
X1338008Y0109050D02*
Y0116048D01*
X1334509Y0112549D01*
X1339174D01*
X1341507Y0114881D02*
X1342673Y0116048D01*
X1345006D01*
X1346172Y0114881D01*
Y0110216D01*
X1345006Y0109050D01*
X1342673D01*
X1341507Y0110216D01*
Y0114881D01*
X1348505Y0109050D02*
X1350837D01*
X1349671D01*
Y0116048D01*
X1348505Y0114881D01*
X1354336Y0116048D02*
Y0114881D01*
X1356669Y0112549D01*
X1359001Y0114881D01*
Y0116048D01*
X1356669Y0112549D02*
Y0109050D01*
X1361334D02*
Y0110216D01*
X1362500D01*
Y0109050D01*
X1361334D01*
X1367165D02*
Y0116048D01*
X1370664D01*
X1371831Y0114881D01*
Y0112549D01*
X1370664Y0111383D01*
X1367165D01*
X1378828Y0113715D02*
X1375329D01*
X1374163Y0112549D01*
Y0110216D01*
X1375329Y0109050D01*
X1378828D01*
X1381161Y0116048D02*
Y0109050D01*
X1384660D01*
X1385826Y0110216D01*
Y0111383D01*
Y0112549D01*
X1384660Y0113715D01*
X1381161D01*
X1388159Y0116048D02*
Y0109050D01*
X1391658D01*
X1392824Y0110216D01*
Y0114881D01*
X1391658Y0116048D01*
X1388159D01*
X1396323Y0109050D02*
X1398655D01*
X1399822Y0110216D01*
Y0112549D01*
X1398655Y0113715D01*
X1396323D01*
X1395156Y0112549D01*
Y0110216D01*
X1396323Y0109050D01*
X1406819Y0113715D02*
X1403320D01*
X1402154Y0112549D01*
Y0110216D01*
X1403320Y0109050D01*
X1406819D01*
X1208550Y0167817D02*
Y0174815D01*
X1210883Y0172483D01*
X1213215Y0174815D01*
Y0167817D01*
X1220213Y0173649D02*
X1219047Y0174815D01*
X1216714D01*
X1215548Y0173649D01*
Y0172483D01*
X1216714Y0171316D01*
X1219047D01*
X1220213Y0170150D01*
Y0168984D01*
X1219047Y0167817D01*
X1216714D01*
X1215548Y0168984D01*
X1222546Y0167817D02*
Y0174815D01*
X1226044D01*
X1227211Y0173649D01*
Y0171316D01*
X1226044Y0170150D01*
X1222546D01*
X1229543Y0171316D02*
X1234208D01*
X1241206Y0174815D02*
X1236541D01*
Y0167817D01*
X1241206D01*
X1236541Y0171316D02*
X1238873D01*
X1243539Y0174815D02*
X1248204Y0167817D01*
Y0174815D02*
X1243539Y0167817D01*
X1250536D02*
Y0174815D01*
X1254035D01*
X1255202Y0173649D01*
Y0171316D01*
X1254035Y0170150D01*
X1250536D01*
X1261033Y0167817D02*
Y0174815D01*
X1257534Y0171316D01*
X1262199D01*
X1264532Y0173649D02*
X1265698Y0174815D01*
X1268031D01*
X1269197Y0173649D01*
Y0172483D01*
X1268031Y0171316D01*
X1266864D01*
X1268031D01*
X1269197Y0170150D01*
Y0168984D01*
X1268031Y0167817D01*
X1265698D01*
X1264532Y0168984D01*
X1276195Y0167817D02*
X1271530D01*
X1276195Y0172483D01*
Y0173649D01*
X1275029Y0174815D01*
X1272696D01*
X1271530Y0173649D01*
X1283193Y0174815D02*
X1278527D01*
Y0167817D01*
X1283193D01*
X1278527Y0171316D02*
X1280860D01*
X1289024Y0167817D02*
Y0174815D01*
X1285525Y0171316D01*
X1290190D01*
X1292523Y0173649D02*
X1293689Y0174815D01*
X1296022D01*
X1297188Y0173649D01*
Y0168984D01*
X1296022Y0167817D01*
X1293689D01*
X1292523Y0168984D01*
Y0173649D01*
X1299521Y0167817D02*
X1301853D01*
X1300687D01*
Y0174815D01*
X1299521Y0173649D01*
X1305352Y0174815D02*
Y0173649D01*
X1307685Y0171316D01*
X1310017Y0173649D01*
Y0174815D01*
X1307685Y0171316D02*
Y0167817D01*
X1359100Y0076551D02*
Y0083548D01*
X1361433Y0081216D01*
X1363765Y0083548D01*
Y0076551D01*
X1366098D02*
X1368430D01*
X1367264D01*
Y0081216D01*
X1366098D01*
X1371929Y0076551D02*
Y0083548D01*
Y0078883D02*
X1375428Y0081216D01*
X1371929Y0078883D02*
X1375428Y0076551D01*
X1382426D02*
X1380093D01*
X1378927Y0077717D01*
Y0080050D01*
X1380093Y0081216D01*
X1382426D01*
X1383592Y0080050D01*
Y0078883D01*
X1378927D01*
X1392922Y0076551D02*
Y0083548D01*
X1396421D01*
X1397588Y0082382D01*
Y0080050D01*
X1396421Y0078883D01*
X1392922D01*
X1399920Y0081216D02*
Y0076551D01*
Y0078883D01*
X1401086Y0080050D01*
X1402253Y0081216D01*
X1403419D01*
X1406918Y0076551D02*
X1409251D01*
X1408084D01*
Y0081216D01*
X1406918D01*
X1417414Y0083548D02*
Y0076551D01*
X1413916D01*
X1412749Y0077717D01*
Y0080050D01*
X1413916Y0081216D01*
X1417414D01*
X1422080Y0074218D02*
X1423246D01*
X1424412Y0075384D01*
Y0081216D01*
X1420913D01*
X1419747Y0080050D01*
Y0077717D01*
X1420913Y0076551D01*
X1424412D01*
X1430244D02*
X1427911D01*
X1426745Y0077717D01*
Y0080050D01*
X1427911Y0081216D01*
X1430244D01*
X1431410Y0080050D01*
Y0078883D01*
X1426745D01*
X1433743Y0076551D02*
Y0081216D01*
X1437241D01*
X1438408Y0080050D01*
Y0076551D01*
X0706600Y0097365D02*
X0709599D01*
X0708100D01*
Y0092866D01*
X0713348D02*
X0711848D01*
X0711098Y0093616D01*
Y0095115D01*
X0711848Y0095865D01*
X0713348D01*
X0714098Y0095115D01*
Y0094366D01*
X0711098D01*
X0715597Y0095865D02*
X0718596Y0092866D01*
X0717097Y0094366D01*
X0718596Y0095865D01*
X0715597Y0092866D01*
X0720845Y0095865D02*
X0722345D01*
X0723095Y0095115D01*
Y0092866D01*
X0720845D01*
X0720096Y0093616D01*
X0720845Y0094366D01*
X0723095D01*
X0724594Y0092866D02*
X0726844D01*
X0727593Y0093616D01*
X0726844Y0094366D01*
X0725344D01*
X0724594Y0095115D01*
X0725344Y0095865D01*
X0727593D01*
X0733591Y0097365D02*
X0735091D01*
X0734341D01*
Y0092866D01*
X0733591D01*
X0735091D01*
X0737340D02*
Y0095865D01*
X0739589D01*
X0740339Y0095115D01*
Y0092866D01*
X0741839D02*
X0744088D01*
X0744838Y0093616D01*
X0744088Y0094366D01*
X0742588D01*
X0741839Y0095115D01*
X0742588Y0095865D01*
X0744838D01*
X0747087Y0096615D02*
Y0095865D01*
X0746337D01*
X0747837D01*
X0747087D01*
Y0093616D01*
X0747837Y0092866D01*
X0750086Y0095865D02*
Y0092866D01*
Y0094366D01*
X0750836Y0095115D01*
X0751585Y0095865D01*
X0752335D01*
X0754585D02*
Y0093616D01*
X0755334Y0092866D01*
X0757584D01*
Y0095865D01*
X0759083Y0092866D02*
Y0095865D01*
X0759833D01*
X0760583Y0095115D01*
Y0092866D01*
Y0095115D01*
X0761332Y0095865D01*
X0762082Y0095115D01*
Y0092866D01*
X0765831D02*
X0764331D01*
X0763582Y0093616D01*
Y0095115D01*
X0764331Y0095865D01*
X0765831D01*
X0766581Y0095115D01*
Y0094366D01*
X0763582D01*
X0768080Y0092866D02*
Y0095865D01*
X0770329D01*
X0771079Y0095115D01*
Y0092866D01*
X0773328Y0096615D02*
Y0095865D01*
X0772579D01*
X0774078D01*
X0773328D01*
Y0093616D01*
X0774078Y0092866D01*
X0776328D02*
X0778577D01*
X0779327Y0093616D01*
X0778577Y0094366D01*
X0777077D01*
X0776328Y0095115D01*
X0777077Y0095865D01*
X0779327D01*
X0786824Y0092866D02*
X0785325Y0094366D01*
Y0095865D01*
X0786824Y0097365D01*
X0789073D02*
X0792072D01*
X0790573D01*
Y0092866D01*
X0793572Y0097365D02*
X0795072D01*
X0794322D01*
Y0092866D01*
X0793572D01*
X0795072D01*
X0797321D02*
X0798820Y0094366D01*
Y0095865D01*
X0797321Y0097365D01*
X0806318Y0095865D02*
X0807817D01*
X0808567Y0095115D01*
Y0092866D01*
X0806318D01*
X0805568Y0093616D01*
X0806318Y0094366D01*
X0808567D01*
X0810067Y0092866D02*
Y0095865D01*
X0812316D01*
X0813066Y0095115D01*
Y0092866D01*
X0817564Y0097365D02*
Y0092866D01*
X0815315D01*
X0814565Y0093616D01*
Y0095115D01*
X0815315Y0095865D01*
X0817564D01*
X0819064Y0092866D02*
X0822063Y0095865D01*
X0824312Y0092866D02*
X0825812D01*
X0826561Y0093616D01*
Y0095115D01*
X0825812Y0095865D01*
X0824312D01*
X0823562Y0095115D01*
Y0093616D01*
X0824312Y0092866D01*
X0828061Y0095865D02*
Y0092866D01*
Y0094366D01*
X0828811Y0095115D01*
X0829560Y0095865D01*
X0830310D01*
X0837058Y0092866D02*
X0838558D01*
X0837808D01*
Y0095865D01*
X0837058D01*
X0841556Y0096615D02*
Y0095865D01*
X0840807D01*
X0842306D01*
X0841556D01*
Y0093616D01*
X0842306Y0092866D01*
X0844555D02*
X0846805D01*
X0847555Y0093616D01*
X0846805Y0094366D01*
X0845305D01*
X0844555Y0095115D01*
X0845305Y0095865D01*
X0847555D01*
X0853553Y0092866D02*
X0855052D01*
X0854302D01*
Y0097365D01*
X0853553D01*
X0857301Y0092866D02*
X0858801D01*
X0858051D01*
Y0095865D01*
X0857301D01*
X0864049D02*
X0861800D01*
X0861050Y0095115D01*
Y0093616D01*
X0861800Y0092866D01*
X0864049D01*
X0867798D02*
X0866298D01*
X0865549Y0093616D01*
Y0095115D01*
X0866298Y0095865D01*
X0867798D01*
X0868548Y0095115D01*
Y0094366D01*
X0865549D01*
X0870047Y0092866D02*
Y0095865D01*
X0872297D01*
X0873046Y0095115D01*
Y0092866D01*
X0874546D02*
X0876795D01*
X0877545Y0093616D01*
X0876795Y0094366D01*
X0875296D01*
X0874546Y0095115D01*
X0875296Y0095865D01*
X0877545D01*
X0879794Y0092866D02*
X0881294D01*
X0882043Y0093616D01*
Y0095115D01*
X0881294Y0095865D01*
X0879794D01*
X0879044Y0095115D01*
Y0093616D01*
X0879794Y0092866D01*
X0883543Y0095865D02*
Y0092866D01*
Y0094366D01*
X0884293Y0095115D01*
X0885042Y0095865D01*
X0885792D01*
X0888041Y0092866D02*
X0890291D01*
X0891041Y0093616D01*
X0890291Y0094366D01*
X0888791D01*
X0888041Y0095115D01*
X0888791Y0095865D01*
X0891041D01*
X0900038Y0097365D02*
Y0092866D01*
X0897788D01*
X0897039Y0093616D01*
Y0095115D01*
X0897788Y0095865D01*
X0900038D01*
X0902287Y0092866D02*
X0903786D01*
X0904536Y0093616D01*
Y0095115D01*
X0903786Y0095865D01*
X0902287D01*
X0901537Y0095115D01*
Y0093616D01*
X0902287Y0092866D01*
X0910534D02*
Y0095865D01*
X0912784D01*
X0913533Y0095115D01*
Y0092866D01*
X0915783D02*
X0917282D01*
X0918032Y0093616D01*
Y0095115D01*
X0917282Y0095865D01*
X0915783D01*
X0915033Y0095115D01*
Y0093616D01*
X0915783Y0092866D01*
X0920281Y0096615D02*
Y0095865D01*
X0919531D01*
X0921031D01*
X0920281D01*
Y0093616D01*
X0921031Y0092866D01*
X0927779Y0095865D02*
Y0093616D01*
X0928528Y0092866D01*
X0929278Y0093616D01*
X0930028Y0092866D01*
X0930778Y0093616D01*
Y0095865D01*
X0933027D02*
X0934527D01*
X0935276Y0095115D01*
Y0092866D01*
X0933027D01*
X0932277Y0093616D01*
X0933027Y0094366D01*
X0935276D01*
X0936776Y0095865D02*
Y0092866D01*
Y0094366D01*
X0937525Y0095115D01*
X0938275Y0095865D01*
X0939025D01*
X0941274D02*
Y0092866D01*
Y0094366D01*
X0942024Y0095115D01*
X0942774Y0095865D01*
X0943524D01*
X0946523D02*
X0948022D01*
X0948772Y0095115D01*
Y0092866D01*
X0946523D01*
X0945773Y0093616D01*
X0946523Y0094366D01*
X0948772D01*
X0950271Y0092866D02*
Y0095865D01*
X0952521D01*
X0953271Y0095115D01*
Y0092866D01*
X0955520Y0096615D02*
Y0095865D01*
X0954770D01*
X0956269D01*
X0955520D01*
Y0093616D01*
X0956269Y0092866D01*
X0963767Y0096615D02*
Y0095865D01*
X0963017D01*
X0964517D01*
X0963767D01*
Y0093616D01*
X0964517Y0092866D01*
X0966766Y0097365D02*
Y0092866D01*
Y0095115D01*
X0967516Y0095865D01*
X0969015D01*
X0969765Y0095115D01*
Y0092866D01*
X0973514D02*
X0972014D01*
X0971265Y0093616D01*
Y0095115D01*
X0972014Y0095865D01*
X0973514D01*
X0974264Y0095115D01*
Y0094366D01*
X0971265D01*
X0981011Y0095865D02*
X0982511D01*
X0983261Y0095115D01*
Y0092866D01*
X0981011D01*
X0980262Y0093616D01*
X0981011Y0094366D01*
X0983261D01*
X0987759Y0095865D02*
X0985510D01*
X0984760Y0095115D01*
Y0093616D01*
X0985510Y0092866D01*
X0987759D01*
X0992258Y0095865D02*
X0990009D01*
X0989259Y0095115D01*
Y0093616D01*
X0990009Y0092866D01*
X0992258D01*
X0993757Y0095865D02*
Y0093616D01*
X0994507Y0092866D01*
X0996756D01*
Y0095865D01*
X0998256D02*
Y0092866D01*
Y0094366D01*
X0999006Y0095115D01*
X0999755Y0095865D01*
X1000505D01*
X1003504D02*
X1005004D01*
X1005754Y0095115D01*
Y0092866D01*
X1003504D01*
X1002754Y0093616D01*
X1003504Y0094366D01*
X1005754D01*
X1010252Y0095865D02*
X1008003D01*
X1007253Y0095115D01*
Y0093616D01*
X1008003Y0092866D01*
X1010252D01*
X1011752Y0095865D02*
Y0093616D01*
X1012501Y0092866D01*
X1014751D01*
Y0092116D01*
X1014001Y0091367D01*
X1013251D01*
X1014751Y0092866D02*
Y0095865D01*
X1021498Y0092866D02*
X1022998D01*
X1023748Y0093616D01*
Y0095115D01*
X1022998Y0095865D01*
X1021498D01*
X1020749Y0095115D01*
Y0093616D01*
X1021498Y0092866D01*
X1025247Y0095865D02*
Y0092866D01*
Y0094366D01*
X1025997Y0095115D01*
X1026747Y0095865D01*
X1027497D01*
X1037243D02*
X1034994D01*
X1034244Y0095115D01*
Y0093616D01*
X1034994Y0092866D01*
X1037243D01*
X1039493D02*
X1040992D01*
X1041742Y0093616D01*
Y0095115D01*
X1040992Y0095865D01*
X1039493D01*
X1038743Y0095115D01*
Y0093616D01*
X1039493Y0092866D01*
X1043242D02*
Y0095865D01*
X1043991D01*
X1044741Y0095115D01*
Y0092866D01*
Y0095115D01*
X1045491Y0095865D01*
X1046241Y0095115D01*
Y0092866D01*
X1047740Y0091367D02*
Y0095865D01*
X1049989D01*
X1050739Y0095115D01*
Y0093616D01*
X1049989Y0092866D01*
X1047740D01*
X1052239D02*
X1053738D01*
X1052988D01*
Y0097365D01*
X1052239D01*
X1058237Y0092866D02*
X1056737D01*
X1055987Y0093616D01*
Y0095115D01*
X1056737Y0095865D01*
X1058237D01*
X1058986Y0095115D01*
Y0094366D01*
X1055987D01*
X1061236Y0096615D02*
Y0095865D01*
X1060486D01*
X1061985D01*
X1061236D01*
Y0093616D01*
X1061985Y0092866D01*
X1066484D02*
X1064985D01*
X1064235Y0093616D01*
Y0095115D01*
X1064985Y0095865D01*
X1066484D01*
X1067234Y0095115D01*
Y0094366D01*
X1064235D01*
X1068733Y0092866D02*
Y0095865D01*
X1070982D01*
X1071732Y0095115D01*
Y0092866D01*
X1075481D02*
X1073982D01*
X1073232Y0093616D01*
Y0095115D01*
X1073982Y0095865D01*
X1075481D01*
X1076231Y0095115D01*
Y0094366D01*
X1073232D01*
X1077730Y0092866D02*
X1079980D01*
X1080729Y0093616D01*
X1079980Y0094366D01*
X1078480D01*
X1077730Y0095115D01*
X1078480Y0095865D01*
X1080729D01*
X1082229Y0092866D02*
X1084478D01*
X1085228Y0093616D01*
X1084478Y0094366D01*
X1082979D01*
X1082229Y0095115D01*
X1082979Y0095865D01*
X1085228D01*
X1091976Y0092866D02*
X1093475D01*
X1094225Y0093616D01*
Y0095115D01*
X1093475Y0095865D01*
X1091976D01*
X1091226Y0095115D01*
Y0093616D01*
X1091976Y0092866D01*
X1096474D02*
Y0096615D01*
Y0095115D01*
X1095725D01*
X1097224D01*
X1096474D01*
Y0096615D01*
X1097224Y0097365D01*
X1104722Y0096615D02*
Y0095865D01*
X1103972D01*
X1105471D01*
X1104722D01*
Y0093616D01*
X1105471Y0092866D01*
X1107721Y0097365D02*
Y0092866D01*
Y0095115D01*
X1108470Y0095865D01*
X1109970D01*
X1110720Y0095115D01*
Y0092866D01*
X1112219D02*
X1113719D01*
X1112969D01*
Y0095865D01*
X1112219D01*
X1115968Y0092866D02*
X1118217D01*
X1118967Y0093616D01*
X1118217Y0094366D01*
X1116718D01*
X1115968Y0095115D01*
X1116718Y0095865D01*
X1118967D01*
X1124965Y0092866D02*
X1127214D01*
X1127964Y0093616D01*
X1127214Y0094366D01*
X1125715D01*
X1124965Y0095115D01*
X1125715Y0095865D01*
X1127964D01*
X1129464Y0091367D02*
Y0095865D01*
X1131713D01*
X1132463Y0095115D01*
Y0093616D01*
X1131713Y0092866D01*
X1129464D01*
X1136211D02*
X1134712D01*
X1133962Y0093616D01*
Y0095115D01*
X1134712Y0095865D01*
X1136211D01*
X1136961Y0095115D01*
Y0094366D01*
X1133962D01*
X1141460Y0095865D02*
X1139211D01*
X1138461Y0095115D01*
Y0093616D01*
X1139211Y0092866D01*
X1141460D01*
X1142959D02*
X1144459D01*
X1143709D01*
Y0095865D01*
X1142959D01*
X1147458Y0092866D02*
Y0096615D01*
Y0095115D01*
X1146708D01*
X1148208D01*
X1147458D01*
Y0096615D01*
X1148208Y0097365D01*
X1150457Y0092866D02*
X1151956D01*
X1151207D01*
Y0095865D01*
X1150457D01*
X1157205D02*
X1154955D01*
X1154206Y0095115D01*
Y0093616D01*
X1154955Y0092866D01*
X1157205D01*
X1159454Y0095865D02*
X1160954D01*
X1161703Y0095115D01*
Y0092866D01*
X1159454D01*
X1158704Y0093616D01*
X1159454Y0094366D01*
X1161703D01*
X1163953Y0096615D02*
Y0095865D01*
X1163203D01*
X1164702D01*
X1163953D01*
Y0093616D01*
X1164702Y0092866D01*
X1166952D02*
X1168451D01*
X1167701D01*
Y0095865D01*
X1166952D01*
X1171450Y0092866D02*
X1172950D01*
X1173699Y0093616D01*
Y0095115D01*
X1172950Y0095865D01*
X1171450D01*
X1170700Y0095115D01*
Y0093616D01*
X1171450Y0092866D01*
X1175199D02*
Y0095865D01*
X1177448D01*
X1178198Y0095115D01*
Y0092866D01*
X0707350Y0081600D02*
X0708849D01*
X0709599Y0082349D01*
Y0083849D01*
X0708849Y0084599D01*
X0707350D01*
X0706600Y0083849D01*
Y0082349D01*
X0707350Y0081600D01*
X0711098Y0084599D02*
Y0081600D01*
Y0083099D01*
X0711848Y0083849D01*
X0712598Y0084599D01*
X0713348D01*
X0720845D02*
X0722345D01*
X0723095Y0083849D01*
Y0081600D01*
X0720845D01*
X0720096Y0082349D01*
X0720845Y0083099D01*
X0723095D01*
X0724594Y0081600D02*
Y0084599D01*
X0726844D01*
X0727593Y0083849D01*
Y0081600D01*
X0729093Y0084599D02*
Y0082349D01*
X0729843Y0081600D01*
X0732092D01*
Y0080850D01*
X0731342Y0080100D01*
X0730592D01*
X0732092Y0081600D02*
Y0084599D01*
X0738090Y0081600D02*
X0739589D01*
X0738840D01*
Y0084599D01*
X0738090D01*
X0741839Y0081600D02*
Y0084599D01*
X0744088D01*
X0744838Y0083849D01*
Y0081600D01*
X0747087D02*
Y0085348D01*
Y0083849D01*
X0746337D01*
X0747837D01*
X0747087D01*
Y0085348D01*
X0747837Y0086098D01*
X0750836Y0081600D02*
X0752335D01*
X0753085Y0082349D01*
Y0083849D01*
X0752335Y0084599D01*
X0750836D01*
X0750086Y0083849D01*
Y0082349D01*
X0750836Y0081600D01*
X0754585Y0084599D02*
Y0081600D01*
Y0083099D01*
X0755334Y0083849D01*
X0756084Y0084599D01*
X0756834D01*
X0759083Y0081600D02*
Y0084599D01*
X0759833D01*
X0760583Y0083849D01*
Y0081600D01*
Y0083849D01*
X0761332Y0084599D01*
X0762082Y0083849D01*
Y0081600D01*
X0764331Y0084599D02*
X0765831D01*
X0766581Y0083849D01*
Y0081600D01*
X0764331D01*
X0763582Y0082349D01*
X0764331Y0083099D01*
X0766581D01*
X0768830Y0085348D02*
Y0084599D01*
X0768080D01*
X0769580D01*
X0768830D01*
Y0082349D01*
X0769580Y0081600D01*
X0771829D02*
X0773328D01*
X0772579D01*
Y0084599D01*
X0771829D01*
X0776328Y0081600D02*
X0777827D01*
X0778577Y0082349D01*
Y0083849D01*
X0777827Y0084599D01*
X0776328D01*
X0775578Y0083849D01*
Y0082349D01*
X0776328Y0081600D01*
X0780076D02*
Y0084599D01*
X0782326D01*
X0783075Y0083849D01*
Y0081600D01*
X0792072Y0084599D02*
X0789823D01*
X0789073Y0083849D01*
Y0082349D01*
X0789823Y0081600D01*
X0792072D01*
X0794322D02*
X0795821D01*
X0796571Y0082349D01*
Y0083849D01*
X0795821Y0084599D01*
X0794322D01*
X0793572Y0083849D01*
Y0082349D01*
X0794322Y0081600D01*
X0798070D02*
Y0084599D01*
X0800320D01*
X0801070Y0083849D01*
Y0081600D01*
X0803319Y0085348D02*
Y0084599D01*
X0802569D01*
X0804069D01*
X0803319D01*
Y0082349D01*
X0804069Y0081600D01*
X0807068Y0084599D02*
X0808567D01*
X0809317Y0083849D01*
Y0081600D01*
X0807068D01*
X0806318Y0082349D01*
X0807068Y0083099D01*
X0809317D01*
X0810816Y0081600D02*
X0812316D01*
X0811566D01*
Y0084599D01*
X0810816D01*
X0814565Y0081600D02*
Y0084599D01*
X0816815D01*
X0817564Y0083849D01*
Y0081600D01*
X0821313D02*
X0819814D01*
X0819064Y0082349D01*
Y0083849D01*
X0819814Y0084599D01*
X0821313D01*
X0822063Y0083849D01*
Y0083099D01*
X0819064D01*
X0826561Y0086098D02*
Y0081600D01*
X0824312D01*
X0823562Y0082349D01*
Y0083849D01*
X0824312Y0084599D01*
X0826561D01*
X0833309Y0085348D02*
Y0084599D01*
X0832559D01*
X0834059D01*
X0833309D01*
Y0082349D01*
X0834059Y0081600D01*
X0836308Y0086098D02*
Y0081600D01*
Y0083849D01*
X0837058Y0084599D01*
X0838558D01*
X0839307Y0083849D01*
Y0081600D01*
X0843056D02*
X0841556D01*
X0840807Y0082349D01*
Y0083849D01*
X0841556Y0084599D01*
X0843056D01*
X0843806Y0083849D01*
Y0083099D01*
X0840807D01*
X0845305Y0084599D02*
Y0081600D01*
Y0083099D01*
X0846055Y0083849D01*
X0846805Y0084599D01*
X0847555D01*
X0852053Y0081600D02*
X0850554D01*
X0849804Y0082349D01*
Y0083849D01*
X0850554Y0084599D01*
X0852053D01*
X0852803Y0083849D01*
Y0083099D01*
X0849804D01*
X0854302Y0081600D02*
X0855802D01*
X0855052D01*
Y0084599D01*
X0854302D01*
X0858051Y0081600D02*
Y0084599D01*
X0860300D01*
X0861050Y0083849D01*
Y0081600D01*
X0862550D02*
Y0082349D01*
X0863299D01*
Y0081600D01*
X0862550D01*
X0870797Y0086098D02*
X0873796D01*
X0872297D01*
Y0081600D01*
X0875296Y0086098D02*
X0876795D01*
X0876045D01*
Y0081600D01*
X0875296D01*
X0876795D01*
X0884293Y0084599D02*
X0885792D01*
X0886542Y0083849D01*
Y0081600D01*
X0884293D01*
X0883543Y0082349D01*
X0884293Y0083099D01*
X0886542D01*
X0888041Y0081600D02*
Y0084599D01*
X0890291D01*
X0891041Y0083849D01*
Y0081600D01*
X0895539Y0086098D02*
Y0081600D01*
X0893290D01*
X0892540Y0082349D01*
Y0083849D01*
X0893290Y0084599D01*
X0895539D01*
X0897039Y0081600D02*
X0900038Y0084599D01*
X0902287Y0081600D02*
X0903786D01*
X0904536Y0082349D01*
Y0083849D01*
X0903786Y0084599D01*
X0902287D01*
X0901537Y0083849D01*
Y0082349D01*
X0902287Y0081600D01*
X0906036Y0084599D02*
Y0081600D01*
Y0083099D01*
X0906785Y0083849D01*
X0907535Y0084599D01*
X0908285D01*
X0915033Y0081600D02*
X0916532D01*
X0915783D01*
Y0084599D01*
X0915033D01*
X0919531Y0085348D02*
Y0084599D01*
X0918782D01*
X0920281D01*
X0919531D01*
Y0082349D01*
X0920281Y0081600D01*
X0922530D02*
X0924780D01*
X0925529Y0082349D01*
X0924780Y0083099D01*
X0923280D01*
X0922530Y0083849D01*
X0923280Y0084599D01*
X0925529D01*
X0931528Y0081600D02*
X0933027D01*
X0932277D01*
Y0086098D01*
X0931528D01*
X0935276Y0081600D02*
X0936776D01*
X0936026D01*
Y0084599D01*
X0935276D01*
X0942024D02*
X0939775D01*
X0939025Y0083849D01*
Y0082349D01*
X0939775Y0081600D01*
X0942024D01*
X0945773D02*
X0944273D01*
X0943524Y0082349D01*
Y0083849D01*
X0944273Y0084599D01*
X0945773D01*
X0946523Y0083849D01*
Y0083099D01*
X0943524D01*
X0948022Y0081600D02*
Y0084599D01*
X0950271D01*
X0951021Y0083849D01*
Y0081600D01*
X0952521D02*
X0954770D01*
X0955520Y0082349D01*
X0954770Y0083099D01*
X0953271D01*
X0952521Y0083849D01*
X0953271Y0084599D01*
X0955520D01*
X0957769Y0081600D02*
X0959268D01*
X0960018Y0082349D01*
Y0083849D01*
X0959268Y0084599D01*
X0957769D01*
X0957019Y0083849D01*
Y0082349D01*
X0957769Y0081600D01*
X0961518Y0084599D02*
Y0081600D01*
Y0083099D01*
X0962268Y0083849D01*
X0963017Y0084599D01*
X0963767D01*
X0966016Y0081600D02*
X0968266D01*
X0969015Y0082349D01*
X0968266Y0083099D01*
X0966766D01*
X0966016Y0083849D01*
X0966766Y0084599D01*
X0969015D01*
X0978012Y0086098D02*
Y0081600D01*
X0975763D01*
X0975014Y0082349D01*
Y0083849D01*
X0975763Y0084599D01*
X0978012D01*
X0980262Y0081600D02*
X0981761D01*
X0982511Y0082349D01*
Y0083849D01*
X0981761Y0084599D01*
X0980262D01*
X0979512Y0083849D01*
Y0082349D01*
X0980262Y0081600D01*
X0988509D02*
Y0084599D01*
X0990758D01*
X0991508Y0083849D01*
Y0081600D01*
X0993757D02*
X0995257D01*
X0996007Y0082349D01*
Y0083849D01*
X0995257Y0084599D01*
X0993757D01*
X0993008Y0083849D01*
Y0082349D01*
X0993757Y0081600D01*
X0998256Y0085348D02*
Y0084599D01*
X0997506D01*
X0999006D01*
X0998256D01*
Y0082349D01*
X0999006Y0081600D01*
X1005754Y0084599D02*
Y0082349D01*
X1006503Y0081600D01*
X1007253Y0082349D01*
X1008003Y0081600D01*
X1008753Y0082349D01*
Y0084599D01*
X1011002D02*
X1012501D01*
X1013251Y0083849D01*
Y0081600D01*
X1011002D01*
X1010252Y0082349D01*
X1011002Y0083099D01*
X1013251D01*
X1014751Y0084599D02*
Y0081600D01*
Y0083099D01*
X1015500Y0083849D01*
X1016250Y0084599D01*
X1017000D01*
X1019249D02*
Y0081600D01*
Y0083099D01*
X1019999Y0083849D01*
X1020749Y0084599D01*
X1021498D01*
X1024498D02*
X1025997D01*
X1026747Y0083849D01*
Y0081600D01*
X1024498D01*
X1023748Y0082349D01*
X1024498Y0083099D01*
X1026747D01*
X1028246Y0081600D02*
Y0084599D01*
X1030496D01*
X1031245Y0083849D01*
Y0081600D01*
X1033495Y0085348D02*
Y0084599D01*
X1032745D01*
X1034244D01*
X1033495D01*
Y0082349D01*
X1034244Y0081600D01*
X1041742Y0085348D02*
Y0084599D01*
X1040992D01*
X1042492D01*
X1041742D01*
Y0082349D01*
X1042492Y0081600D01*
X1044741Y0086098D02*
Y0081600D01*
Y0083849D01*
X1045491Y0084599D01*
X1046990D01*
X1047740Y0083849D01*
Y0081600D01*
X1049989Y0084599D02*
X1051489D01*
X1052239Y0083849D01*
Y0081600D01*
X1049989D01*
X1049240Y0082349D01*
X1049989Y0083099D01*
X1052239D01*
X1054488Y0085348D02*
Y0084599D01*
X1053738D01*
X1055238D01*
X1054488D01*
Y0082349D01*
X1055238Y0081600D01*
X1062735Y0085348D02*
Y0084599D01*
X1061985D01*
X1063485D01*
X1062735D01*
Y0082349D01*
X1063485Y0081600D01*
X1065734Y0086098D02*
Y0081600D01*
Y0083849D01*
X1066484Y0084599D01*
X1067984D01*
X1068733Y0083849D01*
Y0081600D01*
X1070233D02*
X1071732D01*
X1070982D01*
Y0084599D01*
X1070233D01*
X1073982Y0081600D02*
X1076231D01*
X1076981Y0082349D01*
X1076231Y0083099D01*
X1074731D01*
X1073982Y0083849D01*
X1074731Y0084599D01*
X1076981D01*
X1085978Y0086098D02*
Y0081600D01*
X1083728D01*
X1082979Y0082349D01*
Y0083849D01*
X1083728Y0084599D01*
X1085978D01*
X1089727Y0081600D02*
X1088227D01*
X1087477Y0082349D01*
Y0083849D01*
X1088227Y0084599D01*
X1089727D01*
X1090476Y0083849D01*
Y0083099D01*
X1087477D01*
X1091976Y0081600D02*
X1094225D01*
X1094975Y0082349D01*
X1094225Y0083099D01*
X1092725D01*
X1091976Y0083849D01*
X1092725Y0084599D01*
X1094975D01*
X1096474Y0081600D02*
X1097974D01*
X1097224D01*
Y0084599D01*
X1096474D01*
X1101723Y0080100D02*
X1102472D01*
X1103222Y0080850D01*
Y0084599D01*
X1100973D01*
X1100223Y0083849D01*
Y0082349D01*
X1100973Y0081600D01*
X1103222D01*
X1104722D02*
Y0084599D01*
X1106971D01*
X1107721Y0083849D01*
Y0081600D01*
X1113719Y0084599D02*
Y0082349D01*
X1114468Y0081600D01*
X1115218Y0082349D01*
X1115968Y0081600D01*
X1116718Y0082349D01*
Y0084599D01*
X1118217Y0081600D02*
X1119717D01*
X1118967D01*
Y0084599D01*
X1118217D01*
X1121966Y0081600D02*
X1123466D01*
X1122716D01*
Y0086098D01*
X1121966D01*
X1125715Y0081600D02*
X1127214D01*
X1126465D01*
Y0086098D01*
X1125715D01*
X1133962Y0081600D02*
Y0084599D01*
X1134712D01*
X1135462Y0083849D01*
Y0081600D01*
Y0083849D01*
X1136211Y0084599D01*
X1136961Y0083849D01*
Y0081600D01*
X1140710D02*
X1139211D01*
X1138461Y0082349D01*
Y0083849D01*
X1139211Y0084599D01*
X1140710D01*
X1141460Y0083849D01*
Y0083099D01*
X1138461D01*
X1145209Y0081600D02*
X1143709D01*
X1142959Y0082349D01*
Y0083849D01*
X1143709Y0084599D01*
X1145209D01*
X1145958Y0083849D01*
Y0083099D01*
X1142959D01*
X1148208Y0085348D02*
Y0084599D01*
X1147458D01*
X1148957D01*
X1148208D01*
Y0082349D01*
X1148957Y0081600D01*
X0143184Y0962716D02*
X0143850Y0963049D01*
X0144850Y0964048D01*
Y0957050D01*
X0393083Y0962382D02*
Y0962716D01*
X0393417Y0963382D01*
X0393750Y0963715D01*
X0394416Y0964048D01*
X0395749D01*
X0396416Y0963715D01*
X0396749Y0963382D01*
X0397082Y0962716D01*
Y0962049D01*
X0396749Y0961382D01*
X0396083Y0960383D01*
X0392750Y0957050D01*
X0397416D01*
X0642351Y0964048D02*
X0646017D01*
X0644017Y0961382D01*
X0645017D01*
X0645683Y0961049D01*
X0646017Y0960716D01*
X0646350Y0959716D01*
Y0959050D01*
X0646017Y0958050D01*
X0645350Y0957383D01*
X0644350Y0957050D01*
X0643351D01*
X0642351Y0957383D01*
X0642018Y0957716D01*
X0641684Y0958383D01*
X0895684Y0964048D02*
X0892351Y0959383D01*
X0897350D01*
X0895684Y0964048D02*
Y0957050D01*
X1146249Y0964048D02*
X1142916D01*
X1142583Y0961049D01*
X1142916Y0961382D01*
X1143916Y0961716D01*
X1144916D01*
X1145916Y0961382D01*
X1146582Y0960716D01*
X1146916Y0959716D01*
Y0959050D01*
X1146582Y0958050D01*
X1145916Y0957383D01*
X1144916Y0957050D01*
X1143916D01*
X1142916Y0957383D01*
X1142583Y0957716D01*
X1142250Y0958383D01*
X1396749Y0963049D02*
X1396416Y0963715D01*
X1395416Y0964048D01*
X1394750D01*
X1393750Y0963715D01*
X1393083Y0962716D01*
X1392750Y0961049D01*
Y0959383D01*
X1393083Y0958050D01*
X1393750Y0957383D01*
X1394750Y0957050D01*
X1395083D01*
X1396083Y0957383D01*
X1396749Y0958050D01*
X1397082Y0959050D01*
Y0959383D01*
X1396749Y0960383D01*
X1396083Y0961049D01*
X1395083Y0961382D01*
X1394750D01*
X1393750Y0961049D01*
X1393083Y0960383D01*
X1392750Y0959383D01*
X1512882Y0842750D02*
X1510216Y0849749D01*
X1507550Y0842750D01*
X1508550Y0845083D02*
X1511882D01*
X1507550Y0611749D02*
Y0604750D01*
Y0611749D02*
X1510549D01*
X1511549Y0611415D01*
X1511882Y0611082D01*
X1512216Y0610415D01*
Y0609749D01*
X1511882Y0609082D01*
X1511549Y0608749D01*
X1510549Y0608416D01*
X1507550D02*
X1510549D01*
X1511549Y0608083D01*
X1511882Y0607749D01*
X1512216Y0607083D01*
Y0606083D01*
X1511882Y0605416D01*
X1511549Y0605083D01*
X1510549Y0604750D01*
X1507550D01*
X1512549Y0372582D02*
X1512216Y0373249D01*
X1511549Y0373915D01*
X1510883Y0374249D01*
X1509550D01*
X1508883Y0373915D01*
X1508216Y0373249D01*
X1507883Y0372582D01*
X1507550Y0371582D01*
Y0369916D01*
X1507883Y0368916D01*
X1508216Y0368250D01*
X1508883Y0367583D01*
X1509550Y0367250D01*
X1510883D01*
X1511549Y0367583D01*
X1512216Y0368250D01*
X1512549Y0368916D01*
X1507550Y0137249D02*
Y0130250D01*
Y0137249D02*
X1509883D01*
X1510883Y0136915D01*
X1511549Y0136249D01*
X1511882Y0135582D01*
X1512216Y0134582D01*
Y0132916D01*
X1511882Y0131916D01*
X1511549Y0131250D01*
X1510883Y0130583D01*
X1509883Y0130250D01*
X1507550D01*
X0032882Y0842750D02*
X0030216Y0849749D01*
X0027550Y0842750D01*
X0028550Y0845083D02*
X0031882D01*
X0027550Y0611749D02*
Y0604750D01*
Y0611749D02*
X0030549D01*
X0031549Y0611415D01*
X0031882Y0611082D01*
X0032216Y0610415D01*
Y0609749D01*
X0031882Y0609082D01*
X0031549Y0608749D01*
X0030549Y0608416D01*
X0027550D02*
X0030549D01*
X0031549Y0608083D01*
X0031882Y0607749D01*
X0032216Y0607083D01*
Y0606083D01*
X0031882Y0605416D01*
X0031549Y0605083D01*
X0030549Y0604750D01*
X0027550D01*
X0032549Y0372582D02*
X0032216Y0373249D01*
X0031549Y0373915D01*
X0030883Y0374249D01*
X0029550D01*
X0028883Y0373915D01*
X0028216Y0373249D01*
X0027883Y0372582D01*
X0027550Y0371582D01*
Y0369916D01*
X0027883Y0368916D01*
X0028216Y0368250D01*
X0028883Y0367583D01*
X0029550Y0367250D01*
X0030883D01*
X0031549Y0367583D01*
X0032216Y0368250D01*
X0032549Y0368916D01*
X0027550Y0137249D02*
Y0130250D01*
Y0137249D02*
X0029883D01*
X0030883Y0136915D01*
X0031549Y0136249D01*
X0031882Y0135582D01*
X0032216Y0134582D01*
Y0132916D01*
X0031882Y0131916D01*
X0031549Y0131250D01*
X0030883Y0130583D01*
X0029883Y0130250D01*
X0027550D01*
X0143184Y0032715D02*
X0143850Y0033049D01*
X0144850Y0034049D01*
Y0027050D01*
X0393083Y0032382D02*
Y0032715D01*
X0393417Y0033382D01*
X0393750Y0033715D01*
X0394416Y0034049D01*
X0395749D01*
X0396416Y0033715D01*
X0396749Y0033382D01*
X0397082Y0032715D01*
Y0032049D01*
X0396749Y0031382D01*
X0396083Y0030383D01*
X0392750Y0027050D01*
X0397416D01*
X0642351Y0034049D02*
X0646017D01*
X0644017Y0031382D01*
X0645017D01*
X0645683Y0031049D01*
X0646017Y0030716D01*
X0646350Y0029716D01*
Y0029050D01*
X0646017Y0028050D01*
X0645350Y0027383D01*
X0644350Y0027050D01*
X0643351D01*
X0642351Y0027383D01*
X0642018Y0027716D01*
X0641684Y0028383D01*
X0895684Y0034049D02*
X0892351Y0029383D01*
X0897350D01*
X0895684Y0034049D02*
Y0027050D01*
X1146249Y0034049D02*
X1142916D01*
X1142583Y0031049D01*
X1142916Y0031382D01*
X1143916Y0031716D01*
X1144916D01*
X1145916Y0031382D01*
X1146582Y0030716D01*
X1146916Y0029716D01*
Y0029050D01*
X1146582Y0028050D01*
X1145916Y0027383D01*
X1144916Y0027050D01*
X1143916D01*
X1142916Y0027383D01*
X1142583Y0027716D01*
X1142250Y0028383D01*
X1396749Y0033049D02*
X1396416Y0033715D01*
X1395416Y0034049D01*
X1394750D01*
X1393750Y0033715D01*
X1393083Y0032715D01*
X1392750Y0031049D01*
Y0029383D01*
X1393083Y0028050D01*
X1393750Y0027383D01*
X1394750Y0027050D01*
X1395083D01*
X1396083Y0027383D01*
X1396749Y0028050D01*
X1397082Y0029050D01*
Y0029383D01*
X1396749Y0030383D01*
X1396083Y0031049D01*
X1395083Y0031382D01*
X1394750D01*
X1393750Y0031049D01*
X1393083Y0030383D01*
X1392750Y0029383D01*
X1213215Y0053549D02*
X1212049Y0054715D01*
X1209716D01*
X1208550Y0053549D01*
Y0052382D01*
X1209716Y0051216D01*
X1212049D01*
X1213215Y0050050D01*
Y0048884D01*
X1212049Y0047717D01*
X1209716D01*
X1208550Y0048884D01*
X1220213Y0053549D02*
X1219047Y0054715D01*
X1216714D01*
X1215548Y0053549D01*
Y0048884D01*
X1216714Y0047717D01*
X1219047D01*
X1220213Y0048884D01*
X1222546Y0047717D02*
Y0052382D01*
X1224878Y0054715D01*
X1227211Y0052382D01*
Y0047717D01*
Y0051216D01*
X1222546D01*
X1229543Y0054715D02*
Y0047717D01*
X1234208D01*
X1241206Y0054715D02*
X1236541D01*
Y0047717D01*
X1241206D01*
X1236541Y0051216D02*
X1238873D01*
X1243539Y0052382D02*
X1244705D01*
Y0051216D01*
X1243539D01*
Y0052382D01*
Y0048884D02*
X1244705D01*
Y0047717D01*
X1243539D01*
Y0048884D01*
X1256368Y0047717D02*
X1258700D01*
X1257534D01*
Y0054715D01*
X1256368Y0053549D01*
X1262199Y0047717D02*
Y0048884D01*
X1263366D01*
Y0047717D01*
X1262199D01*
X1268031Y0053549D02*
X1269197Y0054715D01*
X1271530D01*
X1272696Y0053549D01*
Y0048884D01*
X1271530Y0047717D01*
X1269197D01*
X1268031Y0048884D01*
Y0053549D01*
X1275029D02*
X1276195Y0054715D01*
X1278527D01*
X1279694Y0053549D01*
Y0048884D01*
X1278527Y0047717D01*
X1276195D01*
X1275029Y0048884D01*
Y0053549D01*
X0707350Y0074082D02*
Y0073332D01*
X0706600D01*
X0708100D01*
X0707350D01*
Y0071083D01*
X0708100Y0070333D01*
X0710349Y0074832D02*
Y0070333D01*
Y0072582D01*
X0711098Y0073332D01*
X0712598D01*
X0713348Y0072582D01*
Y0070333D01*
X0717097D02*
X0715597D01*
X0714847Y0071083D01*
Y0072582D01*
X0715597Y0073332D01*
X0717097D01*
X0717846Y0072582D01*
Y0071833D01*
X0714847D01*
X0723844Y0070333D02*
X0726094D01*
X0726844Y0071083D01*
X0726094Y0071833D01*
X0724594D01*
X0723844Y0072582D01*
X0724594Y0073332D01*
X0726844D01*
X0728343Y0068834D02*
Y0073332D01*
X0730592D01*
X0731342Y0072582D01*
Y0071083D01*
X0730592Y0070333D01*
X0728343D01*
X0735091D02*
X0733591D01*
X0732841Y0071083D01*
Y0072582D01*
X0733591Y0073332D01*
X0735091D01*
X0735841Y0072582D01*
Y0071833D01*
X0732841D01*
X0740339Y0073332D02*
X0738090D01*
X0737340Y0072582D01*
Y0071083D01*
X0738090Y0070333D01*
X0740339D01*
X0741839D02*
X0743338D01*
X0742588D01*
Y0073332D01*
X0741839D01*
X0746337Y0070333D02*
Y0074082D01*
Y0072582D01*
X0745587D01*
X0747087D01*
X0746337D01*
Y0074082D01*
X0747087Y0074832D01*
X0749336Y0070333D02*
X0750836D01*
X0750086D01*
Y0073332D01*
X0749336D01*
X0756084D02*
X0753835D01*
X0753085Y0072582D01*
Y0071083D01*
X0753835Y0070333D01*
X0756084D01*
X0758333Y0073332D02*
X0759833D01*
X0760583Y0072582D01*
Y0070333D01*
X0758333D01*
X0757584Y0071083D01*
X0758333Y0071833D01*
X0760583D01*
X0762832Y0074082D02*
Y0073332D01*
X0762082D01*
X0763582D01*
X0762832D01*
Y0071083D01*
X0763582Y0070333D01*
X0765831D02*
X0767330D01*
X0766581D01*
Y0073332D01*
X0765831D01*
X0770329Y0070333D02*
X0771829D01*
X0772579Y0071083D01*
Y0072582D01*
X0771829Y0073332D01*
X0770329D01*
X0769580Y0072582D01*
Y0071083D01*
X0770329Y0070333D01*
X0774078D02*
Y0073332D01*
X0776328D01*
X0777077Y0072582D01*
Y0070333D01*
X0778577D02*
X0780826D01*
X0781576Y0071083D01*
X0780826Y0071833D01*
X0779327D01*
X0778577Y0072582D01*
X0779327Y0073332D01*
X0781576D01*
X0783825Y0069583D02*
X0784575Y0070333D01*
Y0071083D01*
X0783825D01*
Y0070333D01*
X0784575D01*
X0783825Y0069583D01*
X0783075Y0068834D01*
X0792072Y0073332D02*
Y0071083D01*
X0792822Y0070333D01*
X0793572Y0071083D01*
X0794322Y0070333D01*
X0795072Y0071083D01*
Y0073332D01*
X0796571Y0070333D02*
X0798070D01*
X0797321D01*
Y0073332D01*
X0796571D01*
X0800320Y0070333D02*
X0801819D01*
X0801070D01*
Y0074832D01*
X0800320D01*
X0804069Y0070333D02*
X0805568D01*
X0804818D01*
Y0074832D01*
X0804069D01*
X0812316D02*
Y0070333D01*
X0814565D01*
X0815315Y0071083D01*
Y0071833D01*
Y0072582D01*
X0814565Y0073332D01*
X0812316D01*
X0819064Y0070333D02*
X0817564D01*
X0816815Y0071083D01*
Y0072582D01*
X0817564Y0073332D01*
X0819064D01*
X0819814Y0072582D01*
Y0071833D01*
X0816815D01*
X0825812Y0070333D02*
X0828061D01*
X0828811Y0071083D01*
X0828061Y0071833D01*
X0826561D01*
X0825812Y0072582D01*
X0826561Y0073332D01*
X0828811D01*
X0830310D02*
Y0071083D01*
X0831060Y0070333D01*
X0833309D01*
Y0073332D01*
X0834809Y0070333D02*
X0836308D01*
X0835558D01*
Y0073332D01*
X0834809D01*
X0839307Y0074082D02*
Y0073332D01*
X0838558D01*
X0840057D01*
X0839307D01*
Y0071083D01*
X0840057Y0070333D01*
X0843056Y0073332D02*
X0844555D01*
X0845305Y0072582D01*
Y0070333D01*
X0843056D01*
X0842306Y0071083D01*
X0843056Y0071833D01*
X0845305D01*
X0846805Y0074832D02*
Y0070333D01*
X0849054D01*
X0849804Y0071083D01*
Y0071833D01*
Y0072582D01*
X0849054Y0073332D01*
X0846805D01*
X0851303Y0070333D02*
X0852803D01*
X0852053D01*
Y0074832D01*
X0851303D01*
X0857301Y0070333D02*
X0855802D01*
X0855052Y0071083D01*
Y0072582D01*
X0855802Y0073332D01*
X0857301D01*
X0858051Y0072582D01*
Y0071833D01*
X0855052D01*
X0864799Y0070333D02*
Y0074082D01*
Y0072582D01*
X0864049D01*
X0865549D01*
X0864799D01*
Y0074082D01*
X0865549Y0074832D01*
X0868548Y0070333D02*
X0870047D01*
X0870797Y0071083D01*
Y0072582D01*
X0870047Y0073332D01*
X0868548D01*
X0867798Y0072582D01*
Y0071083D01*
X0868548Y0070333D01*
X0872297Y0073332D02*
Y0070333D01*
Y0071833D01*
X0873046Y0072582D01*
X0873796Y0073332D01*
X0874546D01*
X0881294D02*
Y0071083D01*
X0882043Y0070333D01*
X0884293D01*
Y0069583D01*
X0883543Y0068834D01*
X0882793D01*
X0884293Y0070333D02*
Y0073332D01*
X0886542Y0070333D02*
X0888041D01*
X0888791Y0071083D01*
Y0072582D01*
X0888041Y0073332D01*
X0886542D01*
X0885792Y0072582D01*
Y0071083D01*
X0886542Y0070333D01*
X0890291Y0073332D02*
Y0071083D01*
X0891041Y0070333D01*
X0893290D01*
Y0073332D01*
X0894789D02*
Y0070333D01*
Y0071833D01*
X0895539Y0072582D01*
X0896289Y0073332D01*
X0897039D01*
X0904536D02*
X0906036D01*
X0906785Y0072582D01*
Y0070333D01*
X0904536D01*
X0903786Y0071083D01*
X0904536Y0071833D01*
X0906785D01*
X0908285Y0068834D02*
Y0073332D01*
X0910534D01*
X0911284Y0072582D01*
Y0071083D01*
X0910534Y0070333D01*
X0908285D01*
X0912784Y0068834D02*
Y0073332D01*
X0915033D01*
X0915783Y0072582D01*
Y0071083D01*
X0915033Y0070333D01*
X0912784D01*
X0917282D02*
X0918782D01*
X0918032D01*
Y0074832D01*
X0917282D01*
X0921031Y0070333D02*
X0922530D01*
X0921781D01*
Y0073332D01*
X0921031D01*
X0927779D02*
X0925529D01*
X0924780Y0072582D01*
Y0071083D01*
X0925529Y0070333D01*
X0927779D01*
X0930028Y0073332D02*
X0931528D01*
X0932277Y0072582D01*
Y0070333D01*
X0930028D01*
X0929278Y0071083D01*
X0930028Y0071833D01*
X0932277D01*
X0934527Y0074082D02*
Y0073332D01*
X0933777D01*
X0935276D01*
X0934527D01*
Y0071083D01*
X0935276Y0070333D01*
X0937525D02*
X0939025D01*
X0938275D01*
Y0073332D01*
X0937525D01*
X0942024Y0070333D02*
X0943524D01*
X0944273Y0071083D01*
Y0072582D01*
X0943524Y0073332D01*
X0942024D01*
X0941274Y0072582D01*
Y0071083D01*
X0942024Y0070333D01*
X0945773D02*
Y0073332D01*
X0948022D01*
X0948772Y0072582D01*
Y0070333D01*
X0955520D02*
X0957019D01*
X0957769Y0071083D01*
Y0072582D01*
X0957019Y0073332D01*
X0955520D01*
X0954770Y0072582D01*
Y0071083D01*
X0955520Y0070333D01*
X0959268Y0073332D02*
Y0070333D01*
Y0071833D01*
X0960018Y0072582D01*
X0960768Y0073332D01*
X0961518D01*
X0969015Y0070333D02*
Y0074082D01*
Y0072582D01*
X0968266D01*
X0969765D01*
X0969015D01*
Y0074082D01*
X0969765Y0074832D01*
X0972014Y0070333D02*
X0973514D01*
X0972764D01*
Y0073332D01*
X0972014D01*
X0976513Y0074082D02*
Y0073332D01*
X0975763D01*
X0977263D01*
X0976513D01*
Y0071083D01*
X0977263Y0070333D01*
X0984760D02*
Y0074082D01*
Y0072582D01*
X0984011D01*
X0985510D01*
X0984760D01*
Y0074082D01*
X0985510Y0074832D01*
X0988509Y0070333D02*
X0990009D01*
X0990758Y0071083D01*
Y0072582D01*
X0990009Y0073332D01*
X0988509D01*
X0987759Y0072582D01*
Y0071083D01*
X0988509Y0070333D01*
X0992258Y0073332D02*
Y0070333D01*
Y0071833D01*
X0993008Y0072582D01*
X0993757Y0073332D01*
X0994507D01*
X1002005D02*
X1003504D01*
X1004254Y0072582D01*
Y0070333D01*
X1002005D01*
X1001255Y0071083D01*
X1002005Y0071833D01*
X1004254D01*
X1005754Y0070333D02*
Y0073332D01*
X1008003D01*
X1008753Y0072582D01*
Y0070333D01*
X1010252Y0073332D02*
Y0071083D01*
X1011002Y0070333D01*
X1013251D01*
Y0069583D01*
X1012501Y0068834D01*
X1011752D01*
X1013251Y0070333D02*
Y0073332D01*
X1019249Y0068834D02*
Y0073332D01*
X1021498D01*
X1022248Y0072582D01*
Y0071083D01*
X1021498Y0070333D01*
X1019249D01*
X1024498Y0073332D02*
X1025997D01*
X1026747Y0072582D01*
Y0070333D01*
X1024498D01*
X1023748Y0071083D01*
X1024498Y0071833D01*
X1026747D01*
X1028246Y0073332D02*
Y0070333D01*
Y0071833D01*
X1028996Y0072582D01*
X1029746Y0073332D01*
X1030496D01*
X1033495Y0074082D02*
Y0073332D01*
X1032745D01*
X1034244D01*
X1033495D01*
Y0071083D01*
X1034244Y0070333D01*
X1036494D02*
X1037993D01*
X1037243D01*
Y0073332D01*
X1036494D01*
X1043242D02*
X1040992D01*
X1040242Y0072582D01*
Y0071083D01*
X1040992Y0070333D01*
X1043242D01*
X1044741Y0073332D02*
Y0071083D01*
X1045491Y0070333D01*
X1047740D01*
Y0073332D01*
X1049240Y0070333D02*
X1050739D01*
X1049989D01*
Y0074832D01*
X1049240D01*
X1053738Y0073332D02*
X1055238D01*
X1055987Y0072582D01*
Y0070333D01*
X1053738D01*
X1052988Y0071083D01*
X1053738Y0071833D01*
X1055987D01*
X1057487Y0073332D02*
Y0070333D01*
Y0071833D01*
X1058237Y0072582D01*
X1058986Y0073332D01*
X1059736D01*
X1066484Y0068834D02*
Y0073332D01*
X1068733D01*
X1069483Y0072582D01*
Y0071083D01*
X1068733Y0070333D01*
X1066484D01*
X1070982Y0073332D02*
Y0071083D01*
X1071732Y0070333D01*
X1073981D01*
Y0073332D01*
X1075481D02*
Y0070333D01*
Y0071833D01*
X1076231Y0072582D01*
X1076981Y0073332D01*
X1077730D01*
X1079980Y0068834D02*
Y0073332D01*
X1082229D01*
X1082979Y0072582D01*
Y0071083D01*
X1082229Y0070333D01*
X1079980D01*
X1085228D02*
X1086727D01*
X1087477Y0071083D01*
Y0072582D01*
X1086727Y0073332D01*
X1085228D01*
X1084478Y0072582D01*
Y0071083D01*
X1085228Y0070333D01*
X1088977D02*
X1091226D01*
X1091976Y0071083D01*
X1091226Y0071833D01*
X1089727D01*
X1088977Y0072582D01*
X1089727Y0073332D01*
X1091976D01*
X1095724Y0070333D02*
X1094225D01*
X1093475Y0071083D01*
Y0072582D01*
X1094225Y0073332D01*
X1095724D01*
X1096474Y0072582D01*
Y0071833D01*
X1093475D01*
X1098724Y0069583D02*
X1099473Y0070333D01*
Y0071083D01*
X1098724D01*
Y0070333D01*
X1099473D01*
X1098724Y0069583D01*
X1097974Y0068834D01*
X1107721Y0070333D02*
X1109220D01*
X1109970Y0071083D01*
Y0072582D01*
X1109220Y0073332D01*
X1107721D01*
X1106971Y0072582D01*
Y0071083D01*
X1107721Y0070333D01*
X1111469Y0073332D02*
Y0070333D01*
Y0071833D01*
X1112219Y0072582D01*
X1112969Y0073332D01*
X1113719D01*
X1120467D02*
Y0071083D01*
X1121216Y0070333D01*
X1121966Y0071083D01*
X1122716Y0070333D01*
X1123466Y0071083D01*
Y0073332D01*
X1124965Y0070333D02*
X1126465D01*
X1125715D01*
Y0073332D01*
X1124965D01*
X1128714Y0070333D02*
X1130213D01*
X1129464D01*
Y0074832D01*
X1128714D01*
X1132463Y0070333D02*
X1133962D01*
X1133212D01*
Y0074832D01*
X1132463D01*
X1141460Y0070333D02*
X1142959D01*
X1143709Y0071083D01*
Y0072582D01*
X1142959Y0073332D01*
X1141460D01*
X1140710Y0072582D01*
Y0071083D01*
X1141460Y0070333D01*
X1145209Y0068834D02*
Y0073332D01*
X1147458D01*
X1148208Y0072582D01*
Y0071083D01*
X1147458Y0070333D01*
X1145209D01*
X1151956D02*
X1150457D01*
X1149707Y0071083D01*
Y0072582D01*
X1150457Y0073332D01*
X1151956D01*
X1152706Y0072582D01*
Y0071833D01*
X1149707D01*
X1154206Y0073332D02*
Y0070333D01*
Y0071833D01*
X1154955Y0072582D01*
X1155705Y0073332D01*
X1156455D01*
X1159454D02*
X1160954D01*
X1161703Y0072582D01*
Y0070333D01*
X1159454D01*
X1158704Y0071083D01*
X1159454Y0071833D01*
X1161703D01*
X1163953Y0074082D02*
Y0073332D01*
X1163203D01*
X1164702D01*
X1163953D01*
Y0071083D01*
X1164702Y0070333D01*
X1169201D02*
X1167701D01*
X1166952Y0071083D01*
Y0072582D01*
X1167701Y0073332D01*
X1169201D01*
X1169951Y0072582D01*
Y0071833D01*
X1166952D01*
X1175949Y0070333D02*
X1177448D01*
X1176698D01*
Y0073332D01*
X1175949D01*
X1179698Y0070333D02*
Y0073332D01*
X1181947D01*
X1182697Y0072582D01*
Y0070333D01*
X0707350Y0062066D02*
X0708849D01*
X0709599Y0061316D01*
Y0059066D01*
X0707350D01*
X0706600Y0059816D01*
X0707350Y0060566D01*
X0709599D01*
X0711098Y0059066D02*
Y0062066D01*
X0713348D01*
X0714098Y0061316D01*
Y0059066D01*
X0720096D02*
X0721595D01*
X0720845D01*
Y0062066D01*
X0720096D01*
X0723844Y0059066D02*
Y0062066D01*
X0724594D01*
X0725344Y0061316D01*
Y0059066D01*
Y0061316D01*
X0726094Y0062066D01*
X0726844Y0061316D01*
Y0059066D01*
X0728343Y0057567D02*
Y0062066D01*
X0730592D01*
X0731342Y0061316D01*
Y0059816D01*
X0730592Y0059066D01*
X0728343D01*
X0732841D02*
X0734341D01*
X0733591D01*
Y0063565D01*
X0732841D01*
X0738840Y0059066D02*
X0737340D01*
X0736590Y0059816D01*
Y0061316D01*
X0737340Y0062066D01*
X0738840D01*
X0739589Y0061316D01*
Y0060566D01*
X0736590D01*
X0741089Y0059066D02*
Y0062066D01*
X0741839D01*
X0742588Y0061316D01*
Y0059066D01*
Y0061316D01*
X0743338Y0062066D01*
X0744088Y0061316D01*
Y0059066D01*
X0747837D02*
X0746337D01*
X0745587Y0059816D01*
Y0061316D01*
X0746337Y0062066D01*
X0747837D01*
X0748587Y0061316D01*
Y0060566D01*
X0745587D01*
X0750086Y0059066D02*
Y0062066D01*
X0752335D01*
X0753085Y0061316D01*
Y0059066D01*
X0755334Y0062815D02*
Y0062066D01*
X0754585D01*
X0756084D01*
X0755334D01*
Y0059816D01*
X0756084Y0059066D01*
X0759083Y0062066D02*
X0760583D01*
X0761332Y0061316D01*
Y0059066D01*
X0759083D01*
X0758333Y0059816D01*
X0759083Y0060566D01*
X0761332D01*
X0763582Y0062815D02*
Y0062066D01*
X0762832D01*
X0764331D01*
X0763582D01*
Y0059816D01*
X0764331Y0059066D01*
X0766581D02*
X0768080D01*
X0767330D01*
Y0062066D01*
X0766581D01*
X0771079Y0059066D02*
X0772579D01*
X0773328Y0059816D01*
Y0061316D01*
X0772579Y0062066D01*
X0771079D01*
X0770329Y0061316D01*
Y0059816D01*
X0771079Y0059066D01*
X0774828D02*
Y0062066D01*
X0777077D01*
X0777827Y0061316D01*
Y0059066D01*
X0779327D02*
Y0059816D01*
X0780076D01*
Y0059066D01*
X0779327D01*
X0787574Y0063565D02*
X0790573D01*
X0789073D01*
Y0059066D01*
X0792072Y0063565D02*
X0793572D01*
X0792822D01*
Y0059066D01*
X0792072D01*
X0793572D01*
X0801070Y0062066D02*
X0802569D01*
X0803319Y0061316D01*
Y0059066D01*
X0801070D01*
X0800320Y0059816D01*
X0801070Y0060566D01*
X0803319D01*
X0804818Y0059066D02*
Y0062066D01*
X0807068D01*
X0807817Y0061316D01*
Y0059066D01*
X0812316Y0063565D02*
Y0059066D01*
X0810067D01*
X0809317Y0059816D01*
Y0061316D01*
X0810067Y0062066D01*
X0812316D01*
X0813815Y0059066D02*
X0816815Y0062066D01*
X0819064Y0059066D02*
X0820563D01*
X0821313Y0059816D01*
Y0061316D01*
X0820563Y0062066D01*
X0819064D01*
X0818314Y0061316D01*
Y0059816D01*
X0819064Y0059066D01*
X0822812Y0062066D02*
Y0059066D01*
Y0060566D01*
X0823562Y0061316D01*
X0824312Y0062066D01*
X0825062D01*
X0831810Y0059066D02*
X0833309D01*
X0832559D01*
Y0062066D01*
X0831810D01*
X0836308Y0062815D02*
Y0062066D01*
X0835558D01*
X0837058D01*
X0836308D01*
Y0059816D01*
X0837058Y0059066D01*
X0839307D02*
X0841556D01*
X0842306Y0059816D01*
X0841556Y0060566D01*
X0840057D01*
X0839307Y0061316D01*
X0840057Y0062066D01*
X0842306D01*
X0848304Y0059066D02*
X0849804D01*
X0849054D01*
Y0063565D01*
X0848304D01*
X0852053Y0059066D02*
X0853553D01*
X0852803D01*
Y0062066D01*
X0852053D01*
X0858801D02*
X0856552D01*
X0855802Y0061316D01*
Y0059816D01*
X0856552Y0059066D01*
X0858801D01*
X0862550D02*
X0861050D01*
X0860300Y0059816D01*
Y0061316D01*
X0861050Y0062066D01*
X0862550D01*
X0863299Y0061316D01*
Y0060566D01*
X0860300D01*
X0864799Y0059066D02*
Y0062066D01*
X0867048D01*
X0867798Y0061316D01*
Y0059066D01*
X0869298D02*
X0871547D01*
X0872297Y0059816D01*
X0871547Y0060566D01*
X0870047D01*
X0869298Y0061316D01*
X0870047Y0062066D01*
X0872297D01*
X0874546Y0059066D02*
X0876045D01*
X0876795Y0059816D01*
Y0061316D01*
X0876045Y0062066D01*
X0874546D01*
X0873796Y0061316D01*
Y0059816D01*
X0874546Y0059066D01*
X0878295Y0062066D02*
Y0059066D01*
Y0060566D01*
X0879044Y0061316D01*
X0879794Y0062066D01*
X0880544D01*
X0882793Y0059066D02*
X0885042D01*
X0885792Y0059816D01*
X0885042Y0060566D01*
X0883543D01*
X0882793Y0061316D01*
X0883543Y0062066D01*
X0885792D01*
X0894789Y0063565D02*
Y0059066D01*
X0892540D01*
X0891790Y0059816D01*
Y0061316D01*
X0892540Y0062066D01*
X0894789D01*
X0897039Y0059066D02*
X0898538D01*
X0899288Y0059816D01*
Y0061316D01*
X0898538Y0062066D01*
X0897039D01*
X0896289Y0061316D01*
Y0059816D01*
X0897039Y0059066D01*
X0905286D02*
Y0062066D01*
X0907535D01*
X0908285Y0061316D01*
Y0059066D01*
X0910534D02*
X0912034D01*
X0912784Y0059816D01*
Y0061316D01*
X0912034Y0062066D01*
X0910534D01*
X0909785Y0061316D01*
Y0059816D01*
X0910534Y0059066D01*
X0915033Y0062815D02*
Y0062066D01*
X0914283D01*
X0915783D01*
X0915033D01*
Y0059816D01*
X0915783Y0059066D01*
X0922530Y0062066D02*
Y0059816D01*
X0923280Y0059066D01*
X0924030Y0059816D01*
X0924780Y0059066D01*
X0925529Y0059816D01*
Y0062066D01*
X0927779D02*
X0929278D01*
X0930028Y0061316D01*
Y0059066D01*
X0927779D01*
X0927029Y0059816D01*
X0927779Y0060566D01*
X0930028D01*
X0931528Y0062066D02*
Y0059066D01*
Y0060566D01*
X0932277Y0061316D01*
X0933027Y0062066D01*
X0933777D01*
X0936026D02*
Y0059066D01*
Y0060566D01*
X0936776Y0061316D01*
X0937525Y0062066D01*
X0938275D01*
X0941274D02*
X0942774D01*
X0943524Y0061316D01*
Y0059066D01*
X0941274D01*
X0940525Y0059816D01*
X0941274Y0060566D01*
X0943524D01*
X0945023Y0059066D02*
Y0062066D01*
X0947272D01*
X0948022Y0061316D01*
Y0059066D01*
X0950271Y0062815D02*
Y0062066D01*
X0949522D01*
X0951021D01*
X0950271D01*
Y0059816D01*
X0951021Y0059066D01*
X0958519Y0062815D02*
Y0062066D01*
X0957769D01*
X0959268D01*
X0958519D01*
Y0059816D01*
X0959268Y0059066D01*
X0961518Y0063565D02*
Y0059066D01*
Y0061316D01*
X0962268Y0062066D01*
X0963767D01*
X0964517Y0061316D01*
Y0059066D01*
X0966766Y0062066D02*
X0968266D01*
X0969015Y0061316D01*
Y0059066D01*
X0966766D01*
X0966016Y0059816D01*
X0966766Y0060566D01*
X0969015D01*
X0971265Y0062815D02*
Y0062066D01*
X0970515D01*
X0972014D01*
X0971265D01*
Y0059816D01*
X0972014Y0059066D01*
X0979512Y0062815D02*
Y0062066D01*
X0978762D01*
X0980262D01*
X0979512D01*
Y0059816D01*
X0980262Y0059066D01*
X0982511Y0063565D02*
Y0059066D01*
Y0061316D01*
X0983261Y0062066D01*
X0984760D01*
X0985510Y0061316D01*
Y0059066D01*
X0989259D02*
X0987759D01*
X0987010Y0059816D01*
Y0061316D01*
X0987759Y0062066D01*
X0989259D01*
X0990009Y0061316D01*
Y0060566D01*
X0987010D01*
X0999006Y0063565D02*
Y0059066D01*
X0996756D01*
X0996007Y0059816D01*
Y0061316D01*
X0996756Y0062066D01*
X0999006D01*
X1002754Y0059066D02*
X1001255D01*
X1000505Y0059816D01*
Y0061316D01*
X1001255Y0062066D01*
X1002754D01*
X1003504Y0061316D01*
Y0060566D01*
X1000505D01*
X1005004Y0059066D02*
X1007253D01*
X1008003Y0059816D01*
X1007253Y0060566D01*
X1005754D01*
X1005004Y0061316D01*
X1005754Y0062066D01*
X1008003D01*
X1009502Y0059066D02*
X1011002D01*
X1010252D01*
Y0062066D01*
X1009502D01*
X1014751Y0057567D02*
X1015500D01*
X1016250Y0058317D01*
Y0062066D01*
X1014001D01*
X1013251Y0061316D01*
Y0059816D01*
X1014001Y0059066D01*
X1016250D01*
X1017750D02*
Y0062066D01*
X1019999D01*
X1020749Y0061316D01*
Y0059066D01*
X1026747D02*
X1028246D01*
X1027497D01*
Y0062066D01*
X1026747D01*
X1030496Y0059066D02*
X1032745D01*
X1033495Y0059816D01*
X1032745Y0060566D01*
X1031245D01*
X1030496Y0061316D01*
X1031245Y0062066D01*
X1033495D01*
X1039493Y0057567D02*
Y0062066D01*
X1041742D01*
X1042492Y0061316D01*
Y0059816D01*
X1041742Y0059066D01*
X1039493D01*
X1043991Y0062066D02*
Y0059066D01*
Y0060566D01*
X1044741Y0061316D01*
X1045491Y0062066D01*
X1046241D01*
X1049240Y0059066D02*
X1050739D01*
X1051489Y0059816D01*
Y0061316D01*
X1050739Y0062066D01*
X1049240D01*
X1048490Y0061316D01*
Y0059816D01*
X1049240Y0059066D01*
X1055987Y0063565D02*
Y0059066D01*
X1053738D01*
X1052988Y0059816D01*
Y0061316D01*
X1053738Y0062066D01*
X1055987D01*
X1057487D02*
Y0059816D01*
X1058237Y0059066D01*
X1060486D01*
Y0062066D01*
X1064984D02*
X1062735D01*
X1061985Y0061316D01*
Y0059816D01*
X1062735Y0059066D01*
X1064984D01*
X1067234Y0062815D02*
Y0062066D01*
X1066484D01*
X1067984D01*
X1067234D01*
Y0059816D01*
X1067984Y0059066D01*
X1070233D02*
X1071732D01*
X1070982D01*
Y0062066D01*
X1070233D01*
X1074731Y0059066D02*
X1076231D01*
X1076981Y0059816D01*
Y0061316D01*
X1076231Y0062066D01*
X1074731D01*
X1073982Y0061316D01*
Y0059816D01*
X1074731Y0059066D01*
X1078480D02*
Y0062066D01*
X1080729D01*
X1081479Y0061316D01*
Y0059066D01*
X1087477Y0062066D02*
Y0059816D01*
X1088227Y0059066D01*
X1088977Y0059816D01*
X1089727Y0059066D01*
X1090476Y0059816D01*
Y0062066D01*
X1092725Y0059066D02*
X1094225D01*
X1094975Y0059816D01*
Y0061316D01*
X1094225Y0062066D01*
X1092725D01*
X1091976Y0061316D01*
Y0059816D01*
X1092725Y0059066D01*
X1096474Y0062066D02*
Y0059066D01*
Y0060566D01*
X1097224Y0061316D01*
X1097974Y0062066D01*
X1098724D01*
X1101723Y0062815D02*
Y0062066D01*
X1100973D01*
X1102472D01*
X1101723D01*
Y0059816D01*
X1102472Y0059066D01*
X1104722Y0063565D02*
Y0059066D01*
Y0061316D01*
X1105471Y0062066D01*
X1106971D01*
X1107721Y0061316D01*
Y0059066D01*
X1109220Y0062066D02*
Y0059816D01*
X1109970Y0059066D01*
X1112219D01*
Y0058317D01*
X1111469Y0057567D01*
X1110720D01*
X1112219Y0059066D02*
Y0062066D01*
X1113719Y0059066D02*
Y0059816D01*
X1114468D01*
Y0059066D01*
X1113719D01*
X1121966Y0063565D02*
Y0062815D01*
X1123466Y0061316D01*
X1124965Y0062815D01*
Y0063565D01*
X1123466Y0061316D02*
Y0059066D01*
X1127214D02*
X1128714D01*
X1129464Y0059816D01*
Y0061316D01*
X1128714Y0062066D01*
X1127214D01*
X1126465Y0061316D01*
Y0059816D01*
X1127214Y0059066D01*
X1130963Y0062066D02*
Y0059816D01*
X1131713Y0059066D01*
X1133962D01*
Y0062066D01*
X1139960Y0059066D02*
X1142210D01*
X1142959Y0059816D01*
X1142210Y0060566D01*
X1140710D01*
X1139960Y0061316D01*
X1140710Y0062066D01*
X1142959D01*
X1144459Y0063565D02*
Y0059066D01*
Y0061316D01*
X1145209Y0062066D01*
X1146708D01*
X1147458Y0061316D01*
Y0059066D01*
X1149707D02*
X1151207D01*
X1151956Y0059816D01*
Y0061316D01*
X1151207Y0062066D01*
X1149707D01*
X1148957Y0061316D01*
Y0059816D01*
X1149707Y0059066D01*
X1153456Y0062066D02*
Y0059816D01*
X1154206Y0059066D01*
X1156455D01*
Y0062066D01*
X1157955Y0059066D02*
X1159454D01*
X1158704D01*
Y0063565D01*
X1157955D01*
X1164702D02*
Y0059066D01*
X1162453D01*
X1161703Y0059816D01*
Y0061316D01*
X1162453Y0062066D01*
X1164702D01*
X0709599Y0050799D02*
X0707350D01*
X0706600Y0050049D01*
Y0048550D01*
X0707350Y0047800D01*
X0709599D01*
X0711848D02*
X0713348D01*
X0714098Y0048550D01*
Y0050049D01*
X0713348Y0050799D01*
X0711848D01*
X0711098Y0050049D01*
Y0048550D01*
X0711848Y0047800D01*
X0715597D02*
Y0050799D01*
X0716347D01*
X0717097Y0050049D01*
Y0047800D01*
Y0050049D01*
X0717846Y0050799D01*
X0718596Y0050049D01*
Y0047800D01*
X0720096Y0046301D02*
Y0050799D01*
X0722345D01*
X0723095Y0050049D01*
Y0048550D01*
X0722345Y0047800D01*
X0720096D01*
X0724594D02*
X0726094D01*
X0725344D01*
Y0052299D01*
X0724594D01*
X0730592Y0047800D02*
X0729093D01*
X0728343Y0048550D01*
Y0050049D01*
X0729093Y0050799D01*
X0730592D01*
X0731342Y0050049D01*
Y0049299D01*
X0728343D01*
X0733591Y0051549D02*
Y0050799D01*
X0732841D01*
X0734341D01*
X0733591D01*
Y0048550D01*
X0734341Y0047800D01*
X0738840D02*
X0737340D01*
X0736590Y0048550D01*
Y0050049D01*
X0737340Y0050799D01*
X0738840D01*
X0739589Y0050049D01*
Y0049299D01*
X0736590D01*
X0741089Y0047800D02*
X0742588D01*
X0741839D01*
Y0052299D01*
X0741089D01*
X0744838Y0050799D02*
Y0048550D01*
X0745587Y0047800D01*
X0747837D01*
Y0047050D01*
X0747087Y0046301D01*
X0746337D01*
X0747837Y0047800D02*
Y0050799D01*
X0753835D02*
X0755334Y0047800D01*
X0756834Y0050799D01*
X0759083D02*
X0760583D01*
X0761332Y0050049D01*
Y0047800D01*
X0759083D01*
X0758333Y0048550D01*
X0759083Y0049299D01*
X0761332D01*
X0762832Y0047800D02*
X0764331D01*
X0763582D01*
Y0052299D01*
X0762832D01*
X0766581Y0047800D02*
X0768080D01*
X0767330D01*
Y0050799D01*
X0766581D01*
X0773328Y0052299D02*
Y0047800D01*
X0771079D01*
X0770329Y0048550D01*
Y0050049D01*
X0771079Y0050799D01*
X0773328D01*
X0775578D02*
X0777077D01*
X0777827Y0050049D01*
Y0047800D01*
X0775578D01*
X0774828Y0048550D01*
X0775578Y0049299D01*
X0777827D01*
X0780076Y0051549D02*
Y0050799D01*
X0779327D01*
X0780826D01*
X0780076D01*
Y0048550D01*
X0780826Y0047800D01*
X0785325D02*
X0783825D01*
X0783075Y0048550D01*
Y0050049D01*
X0783825Y0050799D01*
X0785325D01*
X0786074Y0050049D01*
Y0049299D01*
X0783075D01*
X0792822Y0050799D02*
X0794322D01*
X0795072Y0050049D01*
Y0047800D01*
X0792822D01*
X0792072Y0048550D01*
X0792822Y0049299D01*
X0795072D01*
X0796571Y0047800D02*
Y0050799D01*
X0798820D01*
X0799570Y0050049D01*
Y0047800D01*
X0804069Y0052299D02*
Y0047800D01*
X0801819D01*
X0801070Y0048550D01*
Y0050049D01*
X0801819Y0050799D01*
X0804069D01*
X0810816Y0051549D02*
Y0050799D01*
X0810067D01*
X0811566D01*
X0810816D01*
Y0048550D01*
X0811566Y0047800D01*
X0816065D02*
X0814565D01*
X0813815Y0048550D01*
Y0050049D01*
X0814565Y0050799D01*
X0816065D01*
X0816815Y0050049D01*
Y0049299D01*
X0813815D01*
X0818314Y0047800D02*
X0820563D01*
X0821313Y0048550D01*
X0820563Y0049299D01*
X0819064D01*
X0818314Y0050049D01*
X0819064Y0050799D01*
X0821313D01*
X0823562Y0051549D02*
Y0050799D01*
X0822812D01*
X0824312D01*
X0823562D01*
Y0048550D01*
X0824312Y0047800D01*
X0831060Y0050799D02*
Y0048550D01*
X0831810Y0047800D01*
X0834059D01*
Y0047050D01*
X0833309Y0046301D01*
X0832559D01*
X0834059Y0047800D02*
Y0050799D01*
X0836308Y0047800D02*
X0837808D01*
X0838558Y0048550D01*
Y0050049D01*
X0837808Y0050799D01*
X0836308D01*
X0835558Y0050049D01*
Y0048550D01*
X0836308Y0047800D01*
X0840057Y0050799D02*
Y0048550D01*
X0840807Y0047800D01*
X0843056D01*
Y0050799D01*
X0844555D02*
Y0047800D01*
Y0049299D01*
X0845305Y0050049D01*
X0846055Y0050799D01*
X0846805D01*
X0856552Y0052299D02*
Y0047800D01*
X0854302D01*
X0853553Y0048550D01*
Y0050049D01*
X0854302Y0050799D01*
X0856552D01*
X0860300Y0047800D02*
X0858801D01*
X0858051Y0048550D01*
Y0050049D01*
X0858801Y0050799D01*
X0860300D01*
X0861050Y0050049D01*
Y0049299D01*
X0858051D01*
X0862550Y0047800D02*
X0864799D01*
X0865549Y0048550D01*
X0864799Y0049299D01*
X0863299D01*
X0862550Y0050049D01*
X0863299Y0050799D01*
X0865549D01*
X0867048Y0047800D02*
X0868548D01*
X0867798D01*
Y0050799D01*
X0867048D01*
X0872297Y0046301D02*
X0873046D01*
X0873796Y0047050D01*
Y0050799D01*
X0871547D01*
X0870797Y0050049D01*
Y0048550D01*
X0871547Y0047800D01*
X0873796D01*
X0875296D02*
Y0050799D01*
X0877545D01*
X0878295Y0050049D01*
Y0047800D01*
X0884293D02*
X0885792D01*
X0885042D01*
Y0050799D01*
X0884293D01*
X0888041Y0047800D02*
Y0050799D01*
X0888791D01*
X0889541Y0050049D01*
Y0047800D01*
Y0050049D01*
X0890291Y0050799D01*
X0891041Y0050049D01*
Y0047800D01*
X0892540Y0046301D02*
Y0050799D01*
X0894789D01*
X0895539Y0050049D01*
Y0048550D01*
X0894789Y0047800D01*
X0892540D01*
X0897039D02*
X0898538D01*
X0897788D01*
Y0052299D01*
X0897039D01*
X0903037Y0047800D02*
X0901537D01*
X0900787Y0048550D01*
Y0050049D01*
X0901537Y0050799D01*
X0903037D01*
X0903786Y0050049D01*
Y0049299D01*
X0900787D01*
X0905286Y0047800D02*
Y0050799D01*
X0906036D01*
X0906785Y0050049D01*
Y0047800D01*
Y0050049D01*
X0907535Y0050799D01*
X0908285Y0050049D01*
Y0047800D01*
X0912034D02*
X0910534D01*
X0909785Y0048550D01*
Y0050049D01*
X0910534Y0050799D01*
X0912034D01*
X0912784Y0050049D01*
Y0049299D01*
X0909785D01*
X0914283Y0047800D02*
Y0050799D01*
X0916532D01*
X0917282Y0050049D01*
Y0047800D01*
X0919531Y0051549D02*
Y0050799D01*
X0918782D01*
X0920281D01*
X0919531D01*
Y0048550D01*
X0920281Y0047800D01*
X0923280Y0050799D02*
X0924780D01*
X0925529Y0050049D01*
Y0047800D01*
X0923280D01*
X0922530Y0048550D01*
X0923280Y0049299D01*
X0925529D01*
X0927779Y0051549D02*
Y0050799D01*
X0927029D01*
X0928528D01*
X0927779D01*
Y0048550D01*
X0928528Y0047800D01*
X0930778D02*
X0932277D01*
X0931528D01*
Y0050799D01*
X0930778D01*
X0935276Y0047800D02*
X0936776D01*
X0937525Y0048550D01*
Y0050049D01*
X0936776Y0050799D01*
X0935276D01*
X0934527Y0050049D01*
Y0048550D01*
X0935276Y0047800D01*
X0939025D02*
Y0050799D01*
X0941274D01*
X0942024Y0050049D01*
Y0047800D01*
X0948772Y0051549D02*
Y0050799D01*
X0948022D01*
X0949522D01*
X0948772D01*
Y0048550D01*
X0949522Y0047800D01*
X0952521D02*
X0954020D01*
X0954770Y0048550D01*
Y0050049D01*
X0954020Y0050799D01*
X0952521D01*
X0951771Y0050049D01*
Y0048550D01*
X0952521Y0047800D01*
X0963767Y0050799D02*
X0961518D01*
X0960768Y0050049D01*
Y0048550D01*
X0961518Y0047800D01*
X0963767D01*
X0966016D02*
X0967516D01*
X0968266Y0048550D01*
Y0050049D01*
X0967516Y0050799D01*
X0966016D01*
X0965267Y0050049D01*
Y0048550D01*
X0966016Y0047800D01*
X0969765D02*
Y0050799D01*
X0972014D01*
X0972764Y0050049D01*
Y0047800D01*
X0975014D02*
Y0051549D01*
Y0050049D01*
X0974264D01*
X0975763D01*
X0975014D01*
Y0051549D01*
X0975763Y0052299D01*
X0978012Y0047800D02*
X0979512D01*
X0978762D01*
Y0050799D01*
X0978012D01*
X0981761D02*
Y0047800D01*
Y0049299D01*
X0982511Y0050049D01*
X0983261Y0050799D01*
X0984011D01*
X0986260Y0047800D02*
Y0050799D01*
X0987010D01*
X0987759Y0050049D01*
Y0047800D01*
Y0050049D01*
X0988509Y0050799D01*
X0989259Y0050049D01*
Y0047800D01*
X0996007Y0051549D02*
Y0050799D01*
X0995257D01*
X0996756D01*
X0996007D01*
Y0048550D01*
X0996756Y0047800D01*
X0999006Y0052299D02*
Y0047800D01*
Y0050049D01*
X0999755Y0050799D01*
X1001255D01*
X1002005Y0050049D01*
Y0047800D01*
X1005754D02*
X1004254D01*
X1003504Y0048550D01*
Y0050049D01*
X1004254Y0050799D01*
X1005754D01*
X1006503Y0050049D01*
Y0049299D01*
X1003504D01*
X1012501Y0047800D02*
X1014751D01*
X1015500Y0048550D01*
X1014751Y0049299D01*
X1013251D01*
X1012501Y0050049D01*
X1013251Y0050799D01*
X1015500D01*
X1017000D02*
Y0048550D01*
X1017750Y0047800D01*
X1019999D01*
Y0047050D01*
X1019249Y0046301D01*
X1018499D01*
X1019999Y0047800D02*
Y0050799D01*
X1021498Y0047800D02*
X1023748D01*
X1024498Y0048550D01*
X1023748Y0049299D01*
X1022248D01*
X1021498Y0050049D01*
X1022248Y0050799D01*
X1024498D01*
X1026747Y0051549D02*
Y0050799D01*
X1025997D01*
X1027497D01*
X1026747D01*
Y0048550D01*
X1027497Y0047800D01*
X1031995D02*
X1030496D01*
X1029746Y0048550D01*
Y0050049D01*
X1030496Y0050799D01*
X1031995D01*
X1032745Y0050049D01*
Y0049299D01*
X1029746D01*
X1034244Y0047800D02*
Y0050799D01*
X1034994D01*
X1035744Y0050049D01*
Y0047800D01*
Y0050049D01*
X1036494Y0050799D01*
X1037243Y0050049D01*
Y0047800D01*
X1043991D02*
Y0051549D01*
Y0050049D01*
X1043242D01*
X1044741D01*
X1043991D01*
Y0051549D01*
X1044741Y0052299D01*
X1046990Y0050799D02*
Y0048550D01*
X1047740Y0047800D01*
X1049989D01*
Y0050799D01*
X1051489Y0047800D02*
Y0050799D01*
X1053738D01*
X1054488Y0050049D01*
Y0047800D01*
X1058986Y0050799D02*
X1056737D01*
X1055987Y0050049D01*
Y0048550D01*
X1056737Y0047800D01*
X1058986D01*
X1061236Y0051549D02*
Y0050799D01*
X1060486D01*
X1061985D01*
X1061236D01*
Y0048550D01*
X1061985Y0047800D01*
X1064235D02*
X1065734D01*
X1064984D01*
Y0050799D01*
X1064235D01*
X1068733Y0047800D02*
X1070233D01*
X1070982Y0048550D01*
Y0050049D01*
X1070233Y0050799D01*
X1068733D01*
X1067984Y0050049D01*
Y0048550D01*
X1068733Y0047800D01*
X1072482D02*
Y0050799D01*
X1074731D01*
X1075481Y0050049D01*
Y0047800D01*
X1077730Y0050799D02*
X1079230D01*
X1079980Y0050049D01*
Y0047800D01*
X1077730D01*
X1076981Y0048550D01*
X1077730Y0049299D01*
X1079980D01*
X1081479Y0047800D02*
X1082979D01*
X1082229D01*
Y0052299D01*
X1081479D01*
X1085228Y0047800D02*
X1086727D01*
X1085978D01*
Y0050799D01*
X1085228D01*
X1089727Y0051549D02*
Y0050799D01*
X1088977D01*
X1090476D01*
X1089727D01*
Y0048550D01*
X1090476Y0047800D01*
X1092725Y0050799D02*
Y0048550D01*
X1093475Y0047800D01*
X1095724D01*
Y0047050D01*
X1094975Y0046301D01*
X1094225D01*
X1095724Y0047800D02*
Y0050799D01*
X1102472Y0047800D02*
Y0051549D01*
Y0050049D01*
X1101723D01*
X1103222D01*
X1102472D01*
Y0051549D01*
X1103222Y0052299D01*
X1106221Y0047800D02*
X1107721D01*
X1108470Y0048550D01*
Y0050049D01*
X1107721Y0050799D01*
X1106221D01*
X1105471Y0050049D01*
Y0048550D01*
X1106221Y0047800D01*
X1109970Y0050799D02*
Y0047800D01*
Y0049299D01*
X1110720Y0050049D01*
X1111469Y0050799D01*
X1112219D01*
X1118967D02*
Y0048550D01*
X1119717Y0047800D01*
X1121966D01*
Y0047050D01*
X1121216Y0046301D01*
X1120467D01*
X1121966Y0047800D02*
Y0050799D01*
X1124215Y0047800D02*
X1125715D01*
X1126465Y0048550D01*
Y0050049D01*
X1125715Y0050799D01*
X1124215D01*
X1123466Y0050049D01*
Y0048550D01*
X1124215Y0047800D01*
X1127964Y0050799D02*
Y0048550D01*
X1128714Y0047800D01*
X1130963D01*
Y0050799D01*
X1132463D02*
Y0047800D01*
Y0049299D01*
X1133212Y0050049D01*
X1133962Y0050799D01*
X1134712D01*
X1142210D02*
X1143709D01*
X1144459Y0050049D01*
Y0047800D01*
X1142210D01*
X1141460Y0048550D01*
X1142210Y0049299D01*
X1144459D01*
X1145958Y0046301D02*
Y0050799D01*
X1148208D01*
X1148957Y0050049D01*
Y0048550D01*
X1148208Y0047800D01*
X1145958D01*
X1150457Y0046301D02*
Y0050799D01*
X1152706D01*
X1153456Y0050049D01*
Y0048550D01*
X1152706Y0047800D01*
X1150457D01*
X1154955D02*
X1156455D01*
X1155705D01*
Y0052299D01*
X1154955D01*
X1158704Y0047800D02*
X1160204D01*
X1159454D01*
Y0050799D01*
X1158704D01*
X1165452D02*
X1163203D01*
X1162453Y0050049D01*
Y0048550D01*
X1163203Y0047800D01*
X1165452D01*
X1167701Y0050799D02*
X1169201D01*
X1169951Y0050049D01*
Y0047800D01*
X1167701D01*
X1166952Y0048550D01*
X1167701Y0049299D01*
X1169951D01*
X1172200Y0051549D02*
Y0050799D01*
X1171450D01*
X1172950D01*
X1172200D01*
Y0048550D01*
X1172950Y0047800D01*
X1175199D02*
X1176698D01*
X1175949D01*
Y0050799D01*
X1175199D01*
X1179698Y0047800D02*
X1181197D01*
X1181947Y0048550D01*
Y0050049D01*
X1181197Y0050799D01*
X1179698D01*
X1178948Y0050049D01*
Y0048550D01*
X1179698Y0047800D01*
X1183446D02*
Y0050799D01*
X1185695D01*
X1186445Y0050049D01*
Y0047800D01*
X1187945D02*
Y0048550D01*
X1188695D01*
Y0047800D01*
X1187945D01*
G54D93*
X1354050Y0096549D02*
Y0092050D01*
X1356621D01*
X1360542D02*
X1358827Y0096549D01*
X1357114Y0092050D01*
X1357756Y0093550D02*
X1359899D01*
X1361591Y0096549D02*
X1363305Y0094407D01*
Y0092050D01*
X1365019Y0096549D02*
X1363305Y0094407D01*
X1366883Y0096549D02*
X1366455Y0096335D01*
X1366026Y0095906D01*
X1365812Y0095478D01*
X1365598Y0094835D01*
Y0093764D01*
X1365812Y0093121D01*
X1366026Y0092693D01*
X1366455Y0092264D01*
X1366883Y0092050D01*
X1367740D01*
X1368168Y0092264D01*
X1368597Y0092693D01*
X1368811Y0093121D01*
X1369025Y0093764D01*
Y0094835D01*
X1368811Y0095478D01*
X1368597Y0095906D01*
X1368168Y0096335D01*
X1367740Y0096549D01*
X1366883D01*
X1370075D02*
Y0093335D01*
X1370289Y0092693D01*
X1370718Y0092264D01*
X1371361Y0092050D01*
X1371789D01*
X1372432Y0092264D01*
X1372860Y0092693D01*
X1373075Y0093335D01*
Y0096549D01*
X1375817D02*
Y0092050D01*
X1374317Y0096549D02*
X1377316D01*
X1381387D02*
Y0092050D01*
Y0096549D02*
X1383315D01*
X1383958Y0096335D01*
X1384172Y0096121D01*
X1384386Y0095692D01*
Y0095264D01*
X1384172Y0094835D01*
X1383958Y0094621D01*
X1383315Y0094407D01*
X1381387D02*
X1383315D01*
X1383958Y0094192D01*
X1384172Y0093978D01*
X1384386Y0093550D01*
Y0092907D01*
X1384172Y0092479D01*
X1383958Y0092264D01*
X1383315Y0092050D01*
X1381387D01*
X1385393Y0096549D02*
X1387107Y0094407D01*
Y0092050D01*
X1388821Y0096549D02*
X1387107Y0094407D01*
X1389614Y0095049D02*
X1389400Y0094835D01*
X1389614Y0094621D01*
X1389828Y0094835D01*
X1389614Y0095049D01*
Y0092479D02*
X1389400Y0092264D01*
X1389614Y0092050D01*
X1389828Y0092264D01*
X1389614Y0092479D01*
X1357478Y0061050D02*
X1355764Y0065549D01*
X1354050Y0061050D01*
X1354693Y0062550D02*
X1356835D01*
X1358528Y0065549D02*
Y0061050D01*
X1361098D01*
X1363091Y0065549D02*
Y0061050D01*
X1361591Y0065549D02*
X1364591D01*
X1365126D02*
Y0061050D01*
X1366069Y0065549D02*
Y0062335D01*
X1366283Y0061693D01*
X1366712Y0061264D01*
X1367354Y0061050D01*
X1367783D01*
X1368425Y0061264D01*
X1368854Y0061693D01*
X1369068Y0062335D01*
Y0065549D01*
X1370311D02*
Y0061050D01*
Y0065549D02*
X1372025Y0061050D01*
X1373739Y0065549D02*
X1372025Y0061050D01*
X1373739Y0065549D02*
Y0061050D01*
X1378559Y0065549D02*
Y0061050D01*
Y0065549D02*
X1380059D01*
X1380701Y0065335D01*
X1381130Y0064906D01*
X1381344Y0064478D01*
X1381558Y0063835D01*
Y0062764D01*
X1381344Y0062121D01*
X1381130Y0061693D01*
X1380701Y0061264D01*
X1380059Y0061050D01*
X1378559D01*
X1385350Y0065549D02*
X1382565D01*
Y0061050D01*
X1385350D01*
X1382565Y0063407D02*
X1384279D01*
X1389100Y0064906D02*
X1388671Y0065335D01*
X1388028Y0065549D01*
X1387171D01*
X1386529Y0065335D01*
X1386100Y0064906D01*
Y0064478D01*
X1386314Y0064049D01*
X1386529Y0063835D01*
X1386957Y0063621D01*
X1388243Y0063192D01*
X1388671Y0062978D01*
X1388885Y0062764D01*
X1389100Y0062335D01*
Y0061693D01*
X1388671Y0061264D01*
X1388028Y0061050D01*
X1387171D01*
X1386529Y0061264D01*
X1386100Y0061693D01*
X1390107Y0065549D02*
Y0061050D01*
X1394263Y0064478D02*
X1394049Y0064906D01*
X1393620Y0065335D01*
X1393192Y0065549D01*
X1392335D01*
X1391906Y0065335D01*
X1391478Y0064906D01*
X1391263Y0064478D01*
X1391049Y0063835D01*
Y0062764D01*
X1391263Y0062121D01*
X1391478Y0061693D01*
X1391906Y0061264D01*
X1392335Y0061050D01*
X1393192D01*
X1393620Y0061264D01*
X1394049Y0061693D01*
X1394263Y0062121D01*
Y0062764D01*
X1393192D02*
X1394263D01*
X1395291Y0065549D02*
Y0061050D01*
Y0065549D02*
X1398291Y0061050D01*
Y0065549D02*
Y0061050D01*
X1402318Y0065549D02*
X1399533D01*
Y0061050D01*
X1402318D01*
X1399533Y0063407D02*
X1401247D01*
X1403068Y0065549D02*
Y0061050D01*
Y0065549D02*
X1404996D01*
X1405639Y0065335D01*
X1405853Y0065121D01*
X1406067Y0064692D01*
Y0064264D01*
X1405853Y0063835D01*
X1405639Y0063621D01*
X1404996Y0063407D01*
X1403068D01*
X1404568D02*
X1406067Y0061050D01*
X1410609Y0065549D02*
X1412323Y0061050D01*
X1414037Y0065549D02*
X1412323Y0061050D01*
X1417401Y0065549D02*
X1414616D01*
Y0061050D01*
X1417401D01*
X1414616Y0063407D02*
X1416329D01*
X1418151Y0065549D02*
Y0061050D01*
Y0065549D02*
X1420079D01*
X1420722Y0065335D01*
X1420936Y0065121D01*
X1421150Y0064692D01*
Y0064264D01*
X1420936Y0063835D01*
X1420722Y0063621D01*
X1420079Y0063407D01*
X1418151D01*
X1419650D02*
X1421150Y0061050D01*
X1425156Y0064906D02*
X1424728Y0065335D01*
X1424085Y0065549D01*
X1423228D01*
X1422585Y0065335D01*
X1422157Y0064906D01*
Y0064478D01*
X1422371Y0064049D01*
X1422585Y0063835D01*
X1423014Y0063621D01*
X1424299Y0063192D01*
X1424728Y0062978D01*
X1424942Y0062764D01*
X1425156Y0062335D01*
Y0061693D01*
X1424728Y0061264D01*
X1424085Y0061050D01*
X1423228D01*
X1422585Y0061264D01*
X1422157Y0061693D01*
X1426163Y0065549D02*
Y0061050D01*
X1428391Y0065549D02*
X1427963Y0065335D01*
X1427534Y0064906D01*
X1427320Y0064478D01*
X1427106Y0063835D01*
Y0062764D01*
X1427320Y0062121D01*
X1427534Y0061693D01*
X1427963Y0061264D01*
X1428391Y0061050D01*
X1429248D01*
X1429677Y0061264D01*
X1430105Y0061693D01*
X1430319Y0062121D01*
X1430534Y0062764D01*
Y0063835D01*
X1430319Y0064478D01*
X1430105Y0064906D01*
X1429677Y0065335D01*
X1429248Y0065549D01*
X1428391D01*
X1431583D02*
Y0061050D01*
Y0065549D02*
X1434583Y0061050D01*
Y0065549D02*
Y0061050D01*
X1436040Y0064049D02*
X1435825Y0063835D01*
X1436040Y0063621D01*
X1436254Y0063835D01*
X1436040Y0064049D01*
Y0061479D02*
X1435825Y0061264D01*
X1436040Y0061050D01*
X1436254Y0061264D01*
X1436040Y0061479D01*
X1203550Y0183292D02*
X1205478D01*
X1206121Y0183507D01*
X1206335Y0183721D01*
X1206549Y0184149D01*
Y0184792D01*
X1206335Y0185221D01*
X1206121Y0185435D01*
X1205478Y0185649D01*
X1203550D01*
Y0181150D01*
X1207556Y0185649D02*
Y0181150D01*
Y0185649D02*
X1209484D01*
X1210127Y0185435D01*
X1210341Y0185221D01*
X1210556Y0184792D01*
Y0184364D01*
X1210341Y0183935D01*
X1210127Y0183721D01*
X1209484Y0183507D01*
X1207556D01*
X1209056D02*
X1210556Y0181150D01*
X1212848Y0185649D02*
X1212420Y0185435D01*
X1211991Y0185006D01*
X1211777Y0184578D01*
X1211563Y0183935D01*
Y0182864D01*
X1211777Y0182221D01*
X1211991Y0181793D01*
X1212420Y0181364D01*
X1212848Y0181150D01*
X1213705D01*
X1214133Y0181364D01*
X1214562Y0181793D01*
X1214776Y0182221D01*
X1214990Y0182864D01*
Y0183935D01*
X1214776Y0184578D01*
X1214562Y0185006D01*
X1214133Y0185435D01*
X1213705Y0185649D01*
X1212848D01*
X1218183D02*
Y0182221D01*
X1217968Y0181579D01*
X1217754Y0181364D01*
X1217326Y0181150D01*
X1216897D01*
X1216469Y0181364D01*
X1216254Y0181579D01*
X1216040Y0182221D01*
Y0182650D01*
X1222125Y0185649D02*
X1219339D01*
Y0181150D01*
X1222125D01*
X1219339Y0183507D02*
X1221053D01*
X1226088Y0184578D02*
X1225874Y0185006D01*
X1225445Y0185435D01*
X1225017Y0185649D01*
X1224160D01*
X1223731Y0185435D01*
X1223303Y0185006D01*
X1223089Y0184578D01*
X1222874Y0183935D01*
Y0182864D01*
X1223089Y0182221D01*
X1223303Y0181793D01*
X1223731Y0181364D01*
X1224160Y0181150D01*
X1225017D01*
X1225445Y0181364D01*
X1225874Y0181793D01*
X1226088Y0182221D01*
X1228852Y0185649D02*
Y0181150D01*
X1227352Y0185649D02*
X1230351D01*
X1235922D02*
Y0181150D01*
X1234422Y0185649D02*
X1237421D01*
X1237957D02*
Y0181150D01*
X1240399Y0185649D02*
Y0181150D01*
X1238900Y0185649D02*
X1241899D01*
X1242435D02*
Y0181150D01*
X1245005D01*
X1248283Y0185649D02*
X1245498D01*
Y0181150D01*
X1248283D01*
X1245498Y0183507D02*
X1247212D01*
X1249247Y0184149D02*
X1249033Y0183935D01*
X1249247Y0183721D01*
X1249462Y0183935D01*
X1249247Y0184149D01*
Y0181579D02*
X1249033Y0181364D01*
X1249247Y0181150D01*
X1249462Y0181364D01*
X1249247Y0181579D01*
X1203550Y0155549D02*
Y0151050D01*
Y0155549D02*
X1205050D01*
X1205692Y0155335D01*
X1206121Y0154906D01*
X1206335Y0154478D01*
X1206549Y0153835D01*
Y0152764D01*
X1206335Y0152121D01*
X1206121Y0151693D01*
X1205692Y0151264D01*
X1205050Y0151050D01*
X1203550D01*
X1210341Y0155549D02*
X1207556D01*
Y0151050D01*
X1210341D01*
X1207556Y0153407D02*
X1209270D01*
X1214091Y0154906D02*
X1213662Y0155335D01*
X1213019Y0155549D01*
X1212162D01*
X1211520Y0155335D01*
X1211091Y0154906D01*
Y0154478D01*
X1211306Y0154049D01*
X1211520Y0153835D01*
X1211948Y0153621D01*
X1213234Y0153192D01*
X1213662Y0152978D01*
X1213876Y0152764D01*
X1214091Y0152335D01*
Y0151693D01*
X1213662Y0151264D01*
X1213019Y0151050D01*
X1212162D01*
X1211520Y0151264D01*
X1211091Y0151693D01*
X1215098Y0155549D02*
Y0151050D01*
X1219254Y0154478D02*
X1219040Y0154906D01*
X1218611Y0155335D01*
X1218183Y0155549D01*
X1217326D01*
X1216897Y0155335D01*
X1216469Y0154906D01*
X1216254Y0154478D01*
X1216040Y0153835D01*
Y0152764D01*
X1216254Y0152121D01*
X1216469Y0151693D01*
X1216897Y0151264D01*
X1217326Y0151050D01*
X1218183D01*
X1218611Y0151264D01*
X1219040Y0151693D01*
X1219254Y0152121D01*
Y0152764D01*
X1218183D02*
X1219254D01*
X1220282Y0155549D02*
Y0151050D01*
Y0155549D02*
X1223281Y0151050D01*
Y0155549D02*
Y0151050D01*
X1227309Y0155549D02*
X1224524D01*
Y0151050D01*
X1227309D01*
X1224524Y0153407D02*
X1226238D01*
X1228059Y0155549D02*
Y0151050D01*
Y0155549D02*
X1229559D01*
X1230201Y0155335D01*
X1230630Y0154906D01*
X1230844Y0154478D01*
X1231058Y0153835D01*
Y0152764D01*
X1230844Y0152121D01*
X1230630Y0151693D01*
X1230201Y0151264D01*
X1229559Y0151050D01*
X1228059D01*
X1235600Y0155549D02*
Y0151050D01*
Y0155549D02*
X1238385D01*
X1235600Y0153407D02*
X1237314D01*
X1240185Y0155549D02*
X1239756Y0155335D01*
X1239328Y0154906D01*
X1239114Y0154478D01*
X1238900Y0153835D01*
Y0152764D01*
X1239114Y0152121D01*
X1239328Y0151693D01*
X1239756Y0151264D01*
X1240185Y0151050D01*
X1241042D01*
X1241470Y0151264D01*
X1241899Y0151693D01*
X1242113Y0152121D01*
X1242327Y0152764D01*
Y0153835D01*
X1242113Y0154478D01*
X1241899Y0154906D01*
X1241470Y0155335D01*
X1241042Y0155549D01*
X1240185D01*
X1243377D02*
Y0151050D01*
Y0155549D02*
X1245305D01*
X1245948Y0155335D01*
X1246162Y0155121D01*
X1246377Y0154692D01*
Y0154264D01*
X1246162Y0153835D01*
X1245948Y0153621D01*
X1245305Y0153407D01*
X1243377D01*
X1244877D02*
X1246377Y0151050D01*
X1247598Y0154049D02*
X1247383Y0153835D01*
X1247598Y0153621D01*
X1247812Y0153835D01*
X1247598Y0154049D01*
Y0151479D02*
X1247383Y0151264D01*
X1247598Y0151050D01*
X1247812Y0151264D01*
X1247598Y0151479D01*
X1203550Y0125549D02*
Y0121050D01*
Y0125549D02*
X1206335D01*
X1203550Y0123407D02*
X1205264D01*
X1206849Y0125549D02*
Y0121050D01*
X1207792Y0125549D02*
Y0121050D01*
X1210363D01*
X1213641Y0125549D02*
X1210856D01*
Y0121050D01*
X1213641D01*
X1210856Y0123407D02*
X1212570D01*
X1217925Y0125549D02*
Y0121050D01*
Y0125549D02*
X1220925Y0121050D01*
Y0125549D02*
Y0121050D01*
X1225595D02*
X1223881Y0125549D01*
X1222167Y0121050D01*
X1222810Y0122550D02*
X1224953D01*
X1226645Y0125549D02*
Y0121050D01*
Y0125549D02*
X1228359Y0121050D01*
X1230073Y0125549D02*
X1228359Y0121050D01*
X1230073Y0125549D02*
Y0121050D01*
X1234144Y0125549D02*
X1231358D01*
Y0121050D01*
X1234144D01*
X1231358Y0123407D02*
X1233072D01*
X1235108Y0124049D02*
X1234893Y0123835D01*
X1235108Y0123621D01*
X1235322Y0123835D01*
X1235108Y0124049D01*
Y0121478D02*
X1234893Y0121264D01*
X1235108Y0121050D01*
X1235322Y0121264D01*
X1235108Y0121478D01*
X1206335Y0096549D02*
X1203550D01*
Y0092050D01*
X1206335D01*
X1203550Y0094407D02*
X1205264D01*
X1207085Y0096549D02*
Y0092050D01*
Y0096549D02*
X1210084Y0092050D01*
Y0096549D02*
Y0092050D01*
X1214540Y0095478D02*
X1214326Y0095906D01*
X1213898Y0096335D01*
X1213469Y0096549D01*
X1212612D01*
X1212184Y0096335D01*
X1211755Y0095906D01*
X1211541Y0095478D01*
X1211327Y0094835D01*
Y0093764D01*
X1211541Y0093121D01*
X1211755Y0092693D01*
X1212184Y0092264D01*
X1212612Y0092050D01*
X1213469D01*
X1213898Y0092264D01*
X1214326Y0092693D01*
X1214540Y0093121D01*
Y0093764D01*
X1213469D02*
X1214540D01*
X1215569Y0096549D02*
Y0092050D01*
X1216512Y0096549D02*
Y0092050D01*
Y0096549D02*
X1219511Y0092050D01*
Y0096549D02*
Y0092050D01*
X1223539Y0096549D02*
X1220753D01*
Y0092050D01*
X1223539D01*
X1220753Y0094407D02*
X1222467D01*
X1227074Y0096549D02*
X1224288D01*
Y0092050D01*
X1227074D01*
X1224288Y0094407D02*
X1226002D01*
X1227823Y0096549D02*
Y0092050D01*
Y0096549D02*
X1229751D01*
X1230394Y0096335D01*
X1230608Y0096121D01*
X1230823Y0095692D01*
Y0095264D01*
X1230608Y0094835D01*
X1230394Y0094621D01*
X1229751Y0094407D01*
X1227823D01*
X1229323D02*
X1230823Y0092050D01*
X1232044Y0095049D02*
X1231830Y0094835D01*
X1232044Y0094621D01*
X1232258Y0094835D01*
X1232044Y0095049D01*
Y0092479D02*
X1231830Y0092264D01*
X1232044Y0092050D01*
X1232258Y0092264D01*
X1232044Y0092479D01*
M02*
