G04 Layer_Color=33789*
%FSAX25Y25*%
%MOIN*%
G70*
G01*
G75*
%ADD54C,0.01000*%
%ADD58C,0.00800*%
%ADD59C,0.02000*%
G54D54*
X0497200Y0080717D02*
Y0101050D01*
X0413200Y0080717D02*
Y0101050D01*
X0040000Y0080717D02*
X0700200D01*
X0040000Y0060383D02*
X0700000D01*
X0040000Y0040050D02*
X0440500D01*
X0040050Y0101050D02*
X0700200D01*
X0040050Y0040050D02*
Y0101050D01*
Y0040050D02*
X0197600D01*
X0040000D02*
Y0101050D01*
X0286500Y0040050D02*
Y0101050D01*
X0700200Y0040050D02*
Y0101050D01*
X0440500Y0040050D02*
X0700200D01*
X0559400Y0039400D02*
Y0059683D01*
G54D58*
X1331546Y0518264D02*
Y0532064D01*
X1317746Y0518264D02*
Y0532064D01*
X1331546D01*
X1317746Y0518264D02*
X1331546D01*
X1464500Y0676700D02*
X1480539D01*
X1379800Y0441200D02*
X1393600D01*
X1379800Y0455000D02*
X1393600D01*
X1379800Y0441200D02*
Y0455000D01*
X1393600Y0441200D02*
Y0455000D01*
X1434700Y0421700D02*
Y0435500D01*
X1420900Y0421700D02*
Y0435500D01*
X1434700D01*
X1420900Y0421700D02*
X1434700D01*
X1214000Y0405900D02*
X1227800D01*
X1214000Y0419700D02*
X1227800D01*
X1214000Y0405900D02*
Y0419700D01*
X1227800Y0405900D02*
Y0419700D01*
X1284646Y0421564D02*
X1298446D01*
X1429546Y0623700D02*
X1495400D01*
X1343900Y0726700D02*
X1364439D01*
X1343900Y0739999D02*
X1364439Y0739999D01*
X1343900Y0753099D02*
X1364439Y0753099D01*
X1369446Y0639300D02*
Y0653100D01*
X1383246Y0639300D02*
Y0653100D01*
X1424546Y0639300D02*
X1495446D01*
X1369446Y0653100D02*
X1383246D01*
X1369446Y0639300D02*
X1383246D01*
X1224646Y0639264D02*
X1238446D01*
X1224646Y0653064D02*
X1238446D01*
X1280546Y0639264D02*
X1294346D01*
X1280546Y0653064D02*
X1294346D01*
X1224646Y0639264D02*
Y0653064D01*
X1238446Y0639264D02*
Y0653064D01*
X1280546Y0639264D02*
Y0653064D01*
X1294346Y0639264D02*
Y0653064D01*
X1368746Y0246064D02*
X1382546D01*
X1368746Y0259864D02*
X1382546D01*
X1427946Y0246064D02*
X1441746D01*
X1427946Y0259864D02*
X1441746D01*
X1445596Y0348964D02*
X1459396D01*
X1445596Y0335164D02*
X1459396D01*
X1410196Y0348964D02*
X1423996D01*
X1410196Y0335164D02*
X1423996D01*
X1378696Y0348964D02*
X1392496D01*
X1378696Y0335164D02*
X1392496D01*
X1313796Y0333164D02*
X1327596D01*
X1313796Y0319364D02*
X1327596D01*
X1378236Y0319264D02*
X1392036D01*
X1378236Y0333064D02*
X1392036D01*
X1369346Y0591164D02*
X1440246D01*
X1258446Y0622564D02*
X1272246D01*
X1258446Y0636364D02*
X1272246D01*
X1284646Y0372464D02*
X1298446D01*
X1284646Y0386264D02*
X1298446D01*
X1371246Y0372464D02*
X1385046D01*
X1371246Y0386264D02*
X1385046D01*
X1354646Y0405964D02*
X1368446D01*
X1354646Y0419764D02*
X1368446D01*
X1391946Y0518264D02*
X1405746D01*
X1391946Y0532064D02*
X1405746D01*
X1359646Y0534064D02*
X1373446D01*
X1359646Y0547864D02*
X1373446D01*
X1439546Y0518264D02*
X1486346D01*
X1358646Y0490564D02*
X1372446D01*
X1358646Y0504364D02*
X1372446D01*
X1407746Y0475964D02*
X1492046D01*
X1358646Y0473864D02*
X1372446D01*
X1358646Y0487664D02*
X1372446D01*
X1307646Y0504364D02*
X1321446D01*
X1307646Y0490564D02*
X1321446D01*
X1320646Y0472064D02*
X1334446D01*
X1320646Y0458264D02*
X1334446D01*
X1320646Y0441264D02*
X1334446D01*
X1320646Y0455064D02*
X1334446D01*
X1288646Y0573664D02*
X1302446D01*
X1288646Y0591164D02*
X1302446D01*
X1288646Y0604964D02*
X1302446D01*
X1387146Y0622564D02*
X1400946D01*
X1387146Y0636364D02*
X1400946D01*
X1288646Y0606764D02*
X1302446D01*
X1288646Y0620564D02*
X1302446D01*
X1288646Y0575464D02*
X1302446D01*
X1288646Y0589264D02*
X1302446D01*
X1269546Y0534064D02*
X1283346D01*
X1269546Y0547864D02*
X1283346D01*
X1307546Y0473864D02*
X1321346D01*
X1307546Y0487664D02*
X1321346D01*
X1284646Y0435364D02*
X1298446D01*
X1284646Y0388064D02*
X1298446D01*
X1284646Y0401864D02*
X1298446D01*
X1232596Y0348964D02*
X1246396D01*
X1232596Y0335164D02*
X1246396D01*
X1282746Y0275764D02*
X1296546D01*
X1282746Y0261964D02*
X1296546D01*
X1322746Y0259864D02*
X1336546D01*
X1322746Y0246064D02*
X1336546D01*
X1410770Y0407964D02*
X1488900D01*
X1382546Y0246064D02*
Y0259864D01*
X1368746Y0246064D02*
Y0259864D01*
X1427946Y0246064D02*
Y0259864D01*
X1441746Y0246064D02*
Y0259864D01*
X1445596Y0335164D02*
Y0348964D01*
X1459396Y0335164D02*
Y0348964D01*
X1410196Y0335164D02*
Y0348964D01*
X1423996Y0335164D02*
Y0348964D01*
X1378696Y0335164D02*
Y0348964D01*
X1392496Y0335164D02*
Y0348964D01*
X1313796Y0319364D02*
Y0333164D01*
X1327596Y0319364D02*
Y0333164D01*
X1378236Y0319264D02*
Y0333064D01*
X1392036Y0319264D02*
Y0333064D01*
X1258446Y0622564D02*
Y0636364D01*
X1272246Y0622564D02*
Y0636364D01*
X1298446Y0372464D02*
Y0386264D01*
X1284646Y0372464D02*
Y0386264D01*
X1371246Y0372464D02*
Y0386264D01*
X1385046Y0372464D02*
Y0386264D01*
X1368446Y0405964D02*
Y0419764D01*
X1354646Y0405964D02*
Y0419764D01*
X1405746Y0518264D02*
Y0532064D01*
X1391946Y0518264D02*
Y0532064D01*
X1359646Y0534064D02*
Y0547864D01*
X1373446Y0534064D02*
Y0547864D01*
X1358646Y0490564D02*
Y0504364D01*
X1372446Y0490564D02*
Y0504364D01*
X1358646Y0473864D02*
Y0487664D01*
X1372446Y0473864D02*
Y0487664D01*
X1307646Y0490564D02*
Y0504364D01*
X1321446Y0490564D02*
Y0504364D01*
X1320646Y0458264D02*
Y0472064D01*
X1334446Y0458264D02*
Y0472064D01*
X1320646Y0441264D02*
Y0455064D01*
X1334446Y0441264D02*
Y0455064D01*
X1302446Y0559864D02*
Y0573664D01*
X1288646Y0559864D02*
Y0573664D01*
X1302446Y0591164D02*
Y0604964D01*
X1288646Y0591164D02*
Y0604964D01*
X1387146Y0622564D02*
Y0636364D01*
X1400946Y0622564D02*
Y0636364D01*
X1288646Y0606764D02*
Y0620564D01*
X1302446Y0606764D02*
Y0620564D01*
X1288646Y0575464D02*
Y0589264D01*
X1302446Y0575464D02*
Y0589264D01*
X1269546Y0534064D02*
Y0547864D01*
X1283346Y0534064D02*
Y0547864D01*
X1307546Y0473864D02*
Y0487664D01*
X1321346Y0473864D02*
Y0487664D01*
X1284646Y0421564D02*
Y0435364D01*
X1298446Y0421564D02*
Y0435364D01*
X1284646Y0388064D02*
Y0401864D01*
X1298446Y0388064D02*
Y0401864D01*
X1232596Y0335164D02*
Y0348964D01*
X1246396Y0335164D02*
Y0348964D01*
X1282746Y0261964D02*
Y0275764D01*
X1296546Y0261964D02*
Y0275764D01*
X1322746Y0246064D02*
Y0259864D01*
X1336546Y0246064D02*
Y0259864D01*
X1427636Y0321264D02*
X1495083D01*
X1393646Y0458264D02*
Y0472064D01*
X1379846Y0458264D02*
Y0472064D01*
X1393646D01*
X1379846Y0458264D02*
X1393646D01*
X1431546D02*
X1495846D01*
X1381200Y0688500D02*
X1397239D01*
X1464500D02*
X1480539D01*
X1369346Y0559864D02*
X1440246D01*
X1288646D02*
X1302446D01*
X1384696Y0450879D02*
X1388695Y0444880D01*
Y0450879D02*
X1384696Y0444880D01*
X1218905Y0415999D02*
X1222904Y0410000D01*
Y0415999D02*
X1218905Y0410000D01*
X1432842Y0255743D02*
X1436841Y0249744D01*
Y0255743D02*
X1432842Y0249744D01*
X1450200Y0468399D02*
Y0462400D01*
Y0468399D02*
X1452771D01*
X1453628Y0468113D01*
X1453913Y0467827D01*
X1454199Y0467256D01*
Y0466685D01*
X1453913Y0466114D01*
X1453628Y0465828D01*
X1452771Y0465542D01*
X1450200D01*
X1452200D02*
X1454199Y0462400D01*
X1459255Y0468399D02*
X1455542D01*
Y0462400D01*
X1459255D01*
X1455542Y0465542D02*
X1457827D01*
X1460255Y0468399D02*
Y0462400D01*
Y0468399D02*
X1462255D01*
X1463111Y0468113D01*
X1463683Y0467542D01*
X1463968Y0466970D01*
X1464254Y0466114D01*
Y0464685D01*
X1463968Y0463828D01*
X1463683Y0463257D01*
X1463111Y0462686D01*
X1462255Y0462400D01*
X1460255D01*
X1384742Y0467943D02*
X1388741Y0461944D01*
Y0467943D02*
X1384742Y0461944D01*
X1322646Y0528263D02*
X1326645Y0522264D01*
Y0528263D02*
X1322646Y0522264D01*
X1336632Y0526834D02*
Y0527120D01*
X1336917Y0527691D01*
X1337203Y0527977D01*
X1337774Y0528263D01*
X1338917D01*
X1339488Y0527977D01*
X1339774Y0527691D01*
X1340059Y0527120D01*
Y0526549D01*
X1339774Y0525977D01*
X1339202Y0525120D01*
X1336346Y0522264D01*
X1340345D01*
X1343402Y0528263D02*
X1342545Y0527977D01*
X1341973Y0527120D01*
X1341688Y0525692D01*
Y0524835D01*
X1341973Y0523407D01*
X1342545Y0522549D01*
X1343402Y0522264D01*
X1343973D01*
X1344830Y0522549D01*
X1345401Y0523407D01*
X1345687Y0524835D01*
Y0525692D01*
X1345401Y0527120D01*
X1344830Y0527977D01*
X1343973Y0528263D01*
X1343402D01*
X1347029Y0524835D02*
X1352171D01*
X1354513Y0528263D02*
X1357656D01*
X1355942Y0525977D01*
X1356799D01*
X1357370Y0525692D01*
X1357656Y0525406D01*
X1357941Y0524549D01*
Y0523978D01*
X1357656Y0523121D01*
X1357084Y0522549D01*
X1356227Y0522264D01*
X1355370D01*
X1354513Y0522549D01*
X1354228Y0522835D01*
X1353942Y0523407D01*
X1360998Y0528263D02*
X1360141Y0527977D01*
X1359569Y0527120D01*
X1359284Y0525692D01*
Y0524835D01*
X1359569Y0523407D01*
X1360141Y0522549D01*
X1360998Y0522264D01*
X1361569D01*
X1362426Y0522549D01*
X1362997Y0523407D01*
X1363283Y0524835D01*
Y0525692D01*
X1362997Y0527120D01*
X1362426Y0527977D01*
X1361569Y0528263D01*
X1360998D01*
X1369339Y0526263D02*
Y0523407D01*
X1369625Y0522549D01*
X1370196Y0522264D01*
X1371053D01*
X1371624Y0522549D01*
X1372481Y0523407D01*
Y0526263D02*
Y0522264D01*
X1374052Y0526263D02*
Y0522264D01*
Y0525120D02*
X1374909Y0525977D01*
X1375480Y0526263D01*
X1376337D01*
X1376909Y0525977D01*
X1377194Y0525120D01*
Y0522264D01*
Y0525120D02*
X1378051Y0525977D01*
X1378623Y0526263D01*
X1379480D01*
X1380051Y0525977D01*
X1380336Y0525120D01*
Y0522264D01*
X1209623Y0525120D02*
X1212194D01*
X1213051Y0525406D01*
X1213336Y0525692D01*
X1213622Y0526263D01*
Y0527120D01*
X1213336Y0527691D01*
X1213051Y0527977D01*
X1212194Y0528263D01*
X1209623D01*
Y0522264D01*
X1216964Y0528263D02*
Y0522264D01*
X1214964Y0528263D02*
X1218964D01*
X1219678D02*
Y0522264D01*
X1223677Y0528263D02*
Y0522264D01*
X1219678Y0525406D02*
X1223677D01*
X1234332Y0526834D02*
X1234046Y0527406D01*
X1233475Y0527977D01*
X1232903Y0528263D01*
X1231761D01*
X1231190Y0527977D01*
X1230618Y0527406D01*
X1230333Y0526834D01*
X1230047Y0525977D01*
Y0524549D01*
X1230333Y0523692D01*
X1230618Y0523121D01*
X1231190Y0522549D01*
X1231761Y0522264D01*
X1232903D01*
X1233475Y0522549D01*
X1234046Y0523121D01*
X1234332Y0523692D01*
X1237731Y0528263D02*
X1237160Y0527977D01*
X1236588Y0527406D01*
X1236303Y0526834D01*
X1236017Y0525977D01*
Y0524549D01*
X1236303Y0523692D01*
X1236588Y0523121D01*
X1237160Y0522549D01*
X1237731Y0522264D01*
X1238874D01*
X1239445Y0522549D01*
X1240016Y0523121D01*
X1240302Y0523692D01*
X1240588Y0524549D01*
Y0525977D01*
X1240302Y0526834D01*
X1240016Y0527406D01*
X1239445Y0527977D01*
X1238874Y0528263D01*
X1237731D01*
X1241987Y0525120D02*
X1244558D01*
X1245415Y0525406D01*
X1245701Y0525692D01*
X1245986Y0526263D01*
Y0527120D01*
X1245701Y0527691D01*
X1245415Y0527977D01*
X1244558Y0528263D01*
X1241987D01*
Y0522264D01*
X1247329Y0525120D02*
X1249900D01*
X1250757Y0525406D01*
X1251042Y0525692D01*
X1251328Y0526263D01*
Y0527120D01*
X1251042Y0527691D01*
X1250757Y0527977D01*
X1249900Y0528263D01*
X1247329D01*
Y0522264D01*
X1256384Y0528263D02*
X1252671D01*
Y0522264D01*
X1256384D01*
X1252671Y0525406D02*
X1254956D01*
X1257384Y0528263D02*
Y0522264D01*
Y0528263D02*
X1259955D01*
X1260812Y0527977D01*
X1261098Y0527691D01*
X1261383Y0527120D01*
Y0526549D01*
X1261098Y0525977D01*
X1260812Y0525692D01*
X1259955Y0525406D01*
X1257384D01*
X1259384D02*
X1261383Y0522264D01*
X1269439Y0528263D02*
Y0522264D01*
X1267439Y0528263D02*
X1271438D01*
X1272152D02*
Y0522264D01*
X1276151Y0528263D02*
Y0522264D01*
X1272152Y0525406D02*
X1276151D01*
X1277808Y0528263D02*
Y0522264D01*
X1283350Y0526834D02*
X1283064Y0527406D01*
X1282493Y0527977D01*
X1281922Y0528263D01*
X1280779D01*
X1280208Y0527977D01*
X1279636Y0527406D01*
X1279351Y0526834D01*
X1279065Y0525977D01*
Y0524549D01*
X1279351Y0523692D01*
X1279636Y0523121D01*
X1280208Y0522549D01*
X1280779Y0522264D01*
X1281922D01*
X1282493Y0522549D01*
X1283064Y0523121D01*
X1283350Y0523692D01*
X1285035Y0528263D02*
Y0522264D01*
X1289034Y0528263D02*
X1285035Y0524263D01*
X1286464Y0525692D02*
X1289034Y0522264D01*
X1290377Y0528263D02*
Y0522264D01*
Y0528263D02*
X1294376Y0522264D01*
Y0528263D02*
Y0522264D01*
X1299746Y0528263D02*
X1296033D01*
Y0522264D01*
X1299746D01*
X1296033Y0525406D02*
X1298318D01*
X1304745Y0527406D02*
X1304174Y0527977D01*
X1303317Y0528263D01*
X1302174D01*
X1301317Y0527977D01*
X1300746Y0527406D01*
Y0526834D01*
X1301032Y0526263D01*
X1301317Y0525977D01*
X1301889Y0525692D01*
X1303603Y0525120D01*
X1304174Y0524835D01*
X1304460Y0524549D01*
X1304745Y0523978D01*
Y0523121D01*
X1304174Y0522549D01*
X1303317Y0522264D01*
X1302174D01*
X1301317Y0522549D01*
X1300746Y0523121D01*
X1310087Y0527406D02*
X1309516Y0527977D01*
X1308659Y0528263D01*
X1307516D01*
X1306659Y0527977D01*
X1306088Y0527406D01*
Y0526834D01*
X1306374Y0526263D01*
X1306659Y0525977D01*
X1307230Y0525692D01*
X1308944Y0525120D01*
X1309516Y0524835D01*
X1309801Y0524549D01*
X1310087Y0523978D01*
Y0523121D01*
X1309516Y0522549D01*
X1308659Y0522264D01*
X1307516D01*
X1306659Y0522549D01*
X1306088Y0523121D01*
X1311715Y0526263D02*
X1311430Y0525977D01*
X1311715Y0525692D01*
X1312001Y0525977D01*
X1311715Y0526263D01*
Y0522835D02*
X1311430Y0522549D01*
X1311715Y0522264D01*
X1312001Y0522549D01*
X1311715Y0522835D01*
X0126900Y0067551D02*
Y0073549D01*
X0128899Y0071549D01*
X0130899Y0073549D01*
Y0067551D01*
X0132898D02*
X0134897D01*
X0133898D01*
Y0073549D01*
X0132898Y0072549D01*
X0137896D02*
X0138896Y0073549D01*
X0140895D01*
X0141895Y0072549D01*
Y0068550D01*
X0140895Y0067551D01*
X0138896D01*
X0137896Y0068550D01*
Y0072549D01*
X0153891Y0073549D02*
X0149893D01*
Y0070550D01*
X0151892D01*
X0149893D01*
Y0067551D01*
X0156890Y0071549D02*
X0158890D01*
X0159889Y0070550D01*
Y0067551D01*
X0156890D01*
X0155891Y0068550D01*
X0156890Y0069550D01*
X0159889D01*
X0161889Y0073549D02*
Y0067551D01*
X0164888D01*
X0165887Y0068550D01*
Y0069550D01*
Y0070550D01*
X0164888Y0071549D01*
X0161889D01*
X0173885Y0067551D02*
Y0073549D01*
X0177884Y0067551D01*
Y0073549D01*
X0180883Y0067551D02*
X0182882D01*
X0183882Y0068550D01*
Y0070550D01*
X0182882Y0071549D01*
X0180883D01*
X0179883Y0070550D01*
Y0068550D01*
X0180883Y0067551D01*
X0186881Y0072549D02*
Y0071549D01*
X0185881D01*
X0187880D01*
X0186881D01*
Y0068550D01*
X0187880Y0067551D01*
X0193878D02*
X0191879D01*
X0190879Y0068550D01*
Y0070550D01*
X0191879Y0071549D01*
X0193878D01*
X0194878Y0070550D01*
Y0069550D01*
X0190879D01*
X0196877Y0067551D02*
X0199876D01*
X0200876Y0068550D01*
X0199876Y0069550D01*
X0197877D01*
X0196877Y0070550D01*
X0197877Y0071549D01*
X0200876D01*
X1204900Y0297656D02*
X1207471D01*
X1208328Y0297942D01*
X1208613Y0298228D01*
X1208899Y0298799D01*
Y0299656D01*
X1208613Y0300227D01*
X1208328Y0300513D01*
X1207471Y0300799D01*
X1204900D01*
Y0294800D01*
X1214526Y0299370D02*
X1214241Y0299942D01*
X1213669Y0300513D01*
X1213098Y0300799D01*
X1211956D01*
X1211384Y0300513D01*
X1210813Y0299942D01*
X1210527Y0299370D01*
X1210242Y0298514D01*
Y0297085D01*
X1210527Y0296228D01*
X1210813Y0295657D01*
X1211384Y0295086D01*
X1211956Y0294800D01*
X1213098D01*
X1213669Y0295086D01*
X1214241Y0295657D01*
X1214526Y0296228D01*
X1216212Y0300799D02*
Y0294800D01*
Y0300799D02*
X1218783D01*
X1219640Y0300513D01*
X1219925Y0300227D01*
X1220211Y0299656D01*
Y0299085D01*
X1219925Y0298514D01*
X1219640Y0298228D01*
X1218783Y0297942D01*
X1216212D02*
X1218783D01*
X1219640Y0297656D01*
X1219925Y0297371D01*
X1220211Y0296800D01*
Y0295943D01*
X1219925Y0295371D01*
X1219640Y0295086D01*
X1218783Y0294800D01*
X1216212D01*
X1226267Y0300799D02*
Y0294800D01*
Y0300799D02*
X1228552Y0294800D01*
X1230837Y0300799D02*
X1228552Y0294800D01*
X1230837Y0300799D02*
Y0294800D01*
X1232551Y0300799D02*
Y0296514D01*
X1232837Y0295657D01*
X1233408Y0295086D01*
X1234265Y0294800D01*
X1234836D01*
X1235693Y0295086D01*
X1236265Y0295657D01*
X1236550Y0296514D01*
Y0300799D01*
X1242206Y0299942D02*
X1241635Y0300513D01*
X1240778Y0300799D01*
X1239635D01*
X1238778Y0300513D01*
X1238207Y0299942D01*
Y0299370D01*
X1238493Y0298799D01*
X1238778Y0298514D01*
X1239350Y0298228D01*
X1241064Y0297656D01*
X1241635Y0297371D01*
X1241921Y0297085D01*
X1242206Y0296514D01*
Y0295657D01*
X1241635Y0295086D01*
X1240778Y0294800D01*
X1239635D01*
X1238778Y0295086D01*
X1238207Y0295657D01*
X1245548Y0300799D02*
Y0294800D01*
X1243549Y0300799D02*
X1247548D01*
X1252975D02*
Y0294800D01*
Y0300799D02*
X1255546D01*
X1256403Y0300513D01*
X1256689Y0300227D01*
X1256975Y0299656D01*
Y0299085D01*
X1256689Y0298514D01*
X1256403Y0298228D01*
X1255546Y0297942D01*
X1252975D02*
X1255546D01*
X1256403Y0297656D01*
X1256689Y0297371D01*
X1256975Y0296800D01*
Y0295943D01*
X1256689Y0295371D01*
X1256403Y0295086D01*
X1255546Y0294800D01*
X1252975D01*
X1262031Y0300799D02*
X1258317D01*
Y0294800D01*
X1262031D01*
X1258317Y0297942D02*
X1260602D01*
X1267601Y0294800D02*
X1265316Y0300799D01*
X1263030Y0294800D01*
X1263887Y0296800D02*
X1266744D01*
X1269001Y0300799D02*
Y0294800D01*
Y0300799D02*
X1271571D01*
X1272428Y0300513D01*
X1272714Y0300227D01*
X1273000Y0299656D01*
Y0299085D01*
X1272714Y0298514D01*
X1272428Y0298228D01*
X1271571Y0297942D01*
X1269001D01*
X1271000D02*
X1273000Y0294800D01*
X1281055Y0300799D02*
Y0294800D01*
X1279056Y0300799D02*
X1283055D01*
X1283769D02*
Y0294800D01*
X1287768Y0300799D02*
Y0294800D01*
X1283769Y0297942D02*
X1287768D01*
X1293138Y0300799D02*
X1289425D01*
Y0294800D01*
X1293138D01*
X1289425Y0297942D02*
X1291710D01*
X1298851Y0300799D02*
Y0296514D01*
X1299137Y0295657D01*
X1299708Y0295086D01*
X1300565Y0294800D01*
X1301136D01*
X1301993Y0295086D01*
X1302565Y0295657D01*
X1302851Y0296514D01*
Y0300799D01*
X1304507D02*
Y0294800D01*
X1307935D01*
X1312306Y0298799D02*
X1312020Y0297942D01*
X1311449Y0297371D01*
X1310592Y0297085D01*
X1310306D01*
X1309449Y0297371D01*
X1308878Y0297942D01*
X1308592Y0298799D01*
Y0299085D01*
X1308878Y0299942D01*
X1309449Y0300513D01*
X1310306Y0300799D01*
X1310592D01*
X1311449Y0300513D01*
X1312020Y0299942D01*
X1312306Y0298799D01*
Y0297371D01*
X1312020Y0295943D01*
X1311449Y0295086D01*
X1310592Y0294800D01*
X1310020D01*
X1309163Y0295086D01*
X1308878Y0295657D01*
X1316790Y0300799D02*
X1313934Y0296800D01*
X1318219D01*
X1316790Y0300799D02*
Y0294800D01*
X1319275Y0300799D02*
X1321561Y0294800D01*
X1323846Y0300799D02*
X1321561Y0294800D01*
X1324617Y0297371D02*
X1329759D01*
X1333244Y0300799D02*
X1332387Y0300513D01*
X1331816Y0299656D01*
X1331530Y0298228D01*
Y0297371D01*
X1331816Y0295943D01*
X1332387Y0295086D01*
X1333244Y0294800D01*
X1333815D01*
X1334672Y0295086D01*
X1335244Y0295943D01*
X1335529Y0297371D01*
Y0298228D01*
X1335244Y0299656D01*
X1334672Y0300513D01*
X1333815Y0300799D01*
X1333244D01*
X1341585D02*
Y0296514D01*
X1341871Y0295657D01*
X1342442Y0295086D01*
X1343299Y0294800D01*
X1343870D01*
X1344727Y0295086D01*
X1345298Y0295657D01*
X1345584Y0296514D01*
Y0300799D01*
X1347241D02*
Y0294800D01*
X1350669D01*
X1356039Y0300799D02*
Y0294800D01*
Y0300799D02*
X1358610D01*
X1359467Y0300513D01*
X1359752Y0300227D01*
X1360038Y0299656D01*
Y0299085D01*
X1359752Y0298514D01*
X1359467Y0298228D01*
X1358610Y0297942D01*
X1356039D01*
X1358039D02*
X1360038Y0294800D01*
X1365094Y0300799D02*
X1361381D01*
Y0294800D01*
X1365094D01*
X1361381Y0297942D02*
X1363666D01*
X1370379Y0299370D02*
X1370093Y0299942D01*
X1369522Y0300513D01*
X1368951Y0300799D01*
X1367808D01*
X1367237Y0300513D01*
X1366665Y0299942D01*
X1366380Y0299370D01*
X1366094Y0298514D01*
Y0297085D01*
X1366380Y0296228D01*
X1366665Y0295657D01*
X1367237Y0295086D01*
X1367808Y0294800D01*
X1368951D01*
X1369522Y0295086D01*
X1370093Y0295657D01*
X1370379Y0296228D01*
Y0297085D01*
X1368951D02*
X1370379D01*
X1371750Y0300799D02*
Y0294800D01*
X1377006Y0299942D02*
X1376435Y0300513D01*
X1375578Y0300799D01*
X1374435D01*
X1373578Y0300513D01*
X1373007Y0299942D01*
Y0299370D01*
X1373293Y0298799D01*
X1373578Y0298514D01*
X1374150Y0298228D01*
X1375863Y0297656D01*
X1376435Y0297371D01*
X1376720Y0297085D01*
X1377006Y0296514D01*
Y0295657D01*
X1376435Y0295086D01*
X1375578Y0294800D01*
X1374435D01*
X1373578Y0295086D01*
X1373007Y0295657D01*
X1380348Y0300799D02*
Y0294800D01*
X1378349Y0300799D02*
X1382348D01*
X1386775D02*
X1383062D01*
Y0294800D01*
X1386775D01*
X1383062Y0297942D02*
X1385347D01*
X1387775Y0300799D02*
Y0294800D01*
Y0300799D02*
X1390346D01*
X1391203Y0300513D01*
X1391489Y0300227D01*
X1391774Y0299656D01*
Y0299085D01*
X1391489Y0298514D01*
X1391203Y0298228D01*
X1390346Y0297942D01*
X1387775D01*
X1389775D02*
X1391774Y0294800D01*
X1396830Y0300799D02*
X1393117D01*
Y0294800D01*
X1396830D01*
X1393117Y0297942D02*
X1395402D01*
X1397830Y0300799D02*
Y0294800D01*
Y0300799D02*
X1399830D01*
X1400687Y0300513D01*
X1401258Y0299942D01*
X1401544Y0299370D01*
X1401829Y0298514D01*
Y0297085D01*
X1401544Y0296228D01*
X1401258Y0295657D01*
X1400687Y0295086D01*
X1399830Y0294800D01*
X1397830D01*
X1407885Y0300799D02*
Y0294800D01*
Y0300799D02*
X1410170Y0294800D01*
X1412456Y0300799D02*
X1410170Y0294800D01*
X1412456Y0300799D02*
Y0294800D01*
X1418740D02*
X1416455Y0300799D01*
X1414170Y0294800D01*
X1415026Y0296800D02*
X1417883D01*
X1422139Y0300799D02*
Y0294800D01*
X1420140Y0300799D02*
X1424139D01*
X1428566D02*
X1424853D01*
Y0294800D01*
X1428566D01*
X1424853Y0297942D02*
X1427138D01*
X1429566Y0300799D02*
Y0294800D01*
Y0300799D02*
X1432137D01*
X1432994Y0300513D01*
X1433280Y0300227D01*
X1433565Y0299656D01*
Y0299085D01*
X1433280Y0298514D01*
X1432994Y0298228D01*
X1432137Y0297942D01*
X1429566D01*
X1431566D02*
X1433565Y0294800D01*
X1434908Y0300799D02*
Y0294800D01*
X1440735D02*
X1438450Y0300799D01*
X1436165Y0294800D01*
X1437022Y0296800D02*
X1439878D01*
X1442135Y0300799D02*
Y0294800D01*
X1445563D01*
X1450933Y0300799D02*
Y0294800D01*
X1452190Y0300799D02*
Y0294800D01*
Y0300799D02*
X1454189D01*
X1455046Y0300513D01*
X1455618Y0299942D01*
X1455903Y0299370D01*
X1456189Y0298514D01*
Y0297085D01*
X1455903Y0296228D01*
X1455618Y0295657D01*
X1455046Y0295086D01*
X1454189Y0294800D01*
X1452190D01*
X1462245Y0300799D02*
Y0294800D01*
Y0300799D02*
X1466244Y0294800D01*
Y0300799D02*
Y0294800D01*
X1467901Y0300799D02*
Y0296514D01*
X1468186Y0295657D01*
X1468758Y0295086D01*
X1469615Y0294800D01*
X1470186D01*
X1471043Y0295086D01*
X1471614Y0295657D01*
X1471900Y0296514D01*
Y0300799D01*
X1473557D02*
Y0294800D01*
Y0300799D02*
X1475842Y0294800D01*
X1478127Y0300799D02*
X1475842Y0294800D01*
X1478127Y0300799D02*
Y0294800D01*
X1479841Y0300799D02*
Y0294800D01*
Y0300799D02*
X1482412D01*
X1483269Y0300513D01*
X1483555Y0300227D01*
X1483840Y0299656D01*
Y0299085D01*
X1483555Y0298514D01*
X1483269Y0298228D01*
X1482412Y0297942D01*
X1479841D02*
X1482412D01*
X1483269Y0297656D01*
X1483555Y0297371D01*
X1483840Y0296800D01*
Y0295943D01*
X1483555Y0295371D01*
X1483269Y0295086D01*
X1482412Y0294800D01*
X1479841D01*
X1488896Y0300799D02*
X1485183D01*
Y0294800D01*
X1488896D01*
X1485183Y0297942D02*
X1487468D01*
X1489896Y0300799D02*
Y0294800D01*
Y0300799D02*
X1492467D01*
X1493324Y0300513D01*
X1493610Y0300227D01*
X1493895Y0299656D01*
Y0299085D01*
X1493610Y0298514D01*
X1493324Y0298228D01*
X1492467Y0297942D01*
X1489896D01*
X1491896D02*
X1493895Y0294800D01*
X1209470Y0306800D02*
X1207185Y0312799D01*
X1204900Y0306800D01*
X1205757Y0308800D02*
X1208613D01*
X1210870Y0312799D02*
Y0306800D01*
X1214298D01*
X1214955Y0312799D02*
Y0306800D01*
X1218383D01*
X1223753Y0312799D02*
Y0306800D01*
Y0312799D02*
X1226324D01*
X1227181Y0312513D01*
X1227467Y0312227D01*
X1227752Y0311656D01*
Y0311085D01*
X1227467Y0310513D01*
X1227181Y0310228D01*
X1226324Y0309942D01*
X1223753D02*
X1226324D01*
X1227181Y0309657D01*
X1227467Y0309371D01*
X1227752Y0308800D01*
Y0307943D01*
X1227467Y0307371D01*
X1227181Y0307086D01*
X1226324Y0306800D01*
X1223753D01*
X1230809Y0312799D02*
X1230237Y0312513D01*
X1229666Y0311942D01*
X1229381Y0311370D01*
X1229095Y0310513D01*
Y0309085D01*
X1229381Y0308228D01*
X1229666Y0307657D01*
X1230237Y0307086D01*
X1230809Y0306800D01*
X1231951D01*
X1232523Y0307086D01*
X1233094Y0307657D01*
X1233380Y0308228D01*
X1233665Y0309085D01*
Y0310513D01*
X1233380Y0311370D01*
X1233094Y0311942D01*
X1232523Y0312513D01*
X1231951Y0312799D01*
X1230809D01*
X1239635Y0306800D02*
X1237350Y0312799D01*
X1235065Y0306800D01*
X1235922Y0308800D02*
X1238778D01*
X1241035Y0312799D02*
Y0306800D01*
Y0312799D02*
X1243606D01*
X1244463Y0312513D01*
X1244749Y0312227D01*
X1245034Y0311656D01*
Y0311085D01*
X1244749Y0310513D01*
X1244463Y0310228D01*
X1243606Y0309942D01*
X1241035D01*
X1243035D02*
X1245034Y0306800D01*
X1246377Y0312799D02*
Y0306800D01*
Y0312799D02*
X1248376D01*
X1249233Y0312513D01*
X1249805Y0311942D01*
X1250090Y0311370D01*
X1250376Y0310513D01*
Y0309085D01*
X1250090Y0308228D01*
X1249805Y0307657D01*
X1249233Y0307086D01*
X1248376Y0306800D01*
X1246377D01*
X1255718Y0311942D02*
X1255146Y0312513D01*
X1254289Y0312799D01*
X1253147D01*
X1252290Y0312513D01*
X1251719Y0311942D01*
Y0311370D01*
X1252004Y0310799D01*
X1252290Y0310513D01*
X1252861Y0310228D01*
X1254575Y0309657D01*
X1255146Y0309371D01*
X1255432Y0309085D01*
X1255718Y0308514D01*
Y0307657D01*
X1255146Y0307086D01*
X1254289Y0306800D01*
X1253147D01*
X1252290Y0307086D01*
X1251719Y0307657D01*
X1261773Y0312799D02*
Y0306800D01*
Y0312799D02*
X1264059Y0306800D01*
X1266344Y0312799D02*
X1264059Y0306800D01*
X1266344Y0312799D02*
Y0306800D01*
X1268058Y0312799D02*
Y0308514D01*
X1268344Y0307657D01*
X1268915Y0307086D01*
X1269772Y0306800D01*
X1270343D01*
X1271200Y0307086D01*
X1271771Y0307657D01*
X1272057Y0308514D01*
Y0312799D01*
X1277713Y0311942D02*
X1277142Y0312513D01*
X1276285Y0312799D01*
X1275142D01*
X1274285Y0312513D01*
X1273714Y0311942D01*
Y0311370D01*
X1274000Y0310799D01*
X1274285Y0310513D01*
X1274856Y0310228D01*
X1276570Y0309657D01*
X1277142Y0309371D01*
X1277427Y0309085D01*
X1277713Y0308514D01*
Y0307657D01*
X1277142Y0307086D01*
X1276285Y0306800D01*
X1275142D01*
X1274285Y0307086D01*
X1273714Y0307657D01*
X1281055Y0312799D02*
Y0306800D01*
X1279056Y0312799D02*
X1283055D01*
X1288482D02*
Y0306800D01*
Y0312799D02*
X1290767Y0306800D01*
X1293052Y0312799D02*
X1290767Y0306800D01*
X1293052Y0312799D02*
Y0306800D01*
X1298480Y0312799D02*
X1294767D01*
Y0306800D01*
X1298480D01*
X1294767Y0309942D02*
X1297052D01*
X1303193Y0312799D02*
X1299480D01*
Y0306800D01*
X1303193D01*
X1299480Y0309942D02*
X1301765D01*
X1306193Y0312799D02*
Y0306800D01*
X1304193Y0312799D02*
X1308192D01*
X1315333D02*
X1314762Y0312513D01*
X1314191Y0311942D01*
X1313905Y0311370D01*
X1313620Y0310513D01*
Y0309085D01*
X1313905Y0308228D01*
X1314191Y0307657D01*
X1314762Y0307086D01*
X1315333Y0306800D01*
X1316476D01*
X1317047Y0307086D01*
X1317619Y0307657D01*
X1317904Y0308228D01*
X1318190Y0309085D01*
Y0310513D01*
X1317904Y0311370D01*
X1317619Y0311942D01*
X1317047Y0312513D01*
X1316476Y0312799D01*
X1315333D01*
X1319590D02*
Y0306800D01*
Y0312799D02*
X1322161D01*
X1323018Y0312513D01*
X1323303Y0312227D01*
X1323589Y0311656D01*
Y0311085D01*
X1323303Y0310513D01*
X1323018Y0310228D01*
X1322161Y0309942D01*
X1319590D01*
X1321589D02*
X1323589Y0306800D01*
X1333358Y0312799D02*
X1329645D01*
Y0306800D01*
X1333358D01*
X1329645Y0309942D02*
X1331930D01*
X1334358Y0312799D02*
X1338357Y0306800D01*
Y0312799D02*
X1334358Y0306800D01*
X1343985Y0311370D02*
X1343699Y0311942D01*
X1343128Y0312513D01*
X1342556Y0312799D01*
X1341414D01*
X1340842Y0312513D01*
X1340271Y0311942D01*
X1339985Y0311370D01*
X1339700Y0310513D01*
Y0309085D01*
X1339985Y0308228D01*
X1340271Y0307657D01*
X1340842Y0307086D01*
X1341414Y0306800D01*
X1342556D01*
X1343128Y0307086D01*
X1343699Y0307657D01*
X1343985Y0308228D01*
X1349383Y0312799D02*
X1345670D01*
Y0306800D01*
X1349383D01*
X1345670Y0309942D02*
X1347955D01*
X1354097Y0312799D02*
X1350383D01*
Y0306800D01*
X1354097D01*
X1350383Y0309942D02*
X1352668D01*
X1355096Y0312799D02*
Y0306800D01*
Y0312799D02*
X1357096D01*
X1357953Y0312513D01*
X1358524Y0311942D01*
X1358810Y0311370D01*
X1359096Y0310513D01*
Y0309085D01*
X1358810Y0308228D01*
X1358524Y0307657D01*
X1357953Y0307086D01*
X1357096Y0306800D01*
X1355096D01*
X1365151Y0312799D02*
Y0308514D01*
X1365437Y0307657D01*
X1366008Y0307086D01*
X1366865Y0306800D01*
X1367437D01*
X1368294Y0307086D01*
X1368865Y0307657D01*
X1369151Y0308514D01*
Y0312799D01*
X1370807D02*
Y0306800D01*
X1374235D01*
X1378606Y0310799D02*
X1378320Y0309942D01*
X1377749Y0309371D01*
X1376892Y0309085D01*
X1376606D01*
X1375749Y0309371D01*
X1375178Y0309942D01*
X1374892Y0310799D01*
Y0311085D01*
X1375178Y0311942D01*
X1375749Y0312513D01*
X1376606Y0312799D01*
X1376892D01*
X1377749Y0312513D01*
X1378320Y0311942D01*
X1378606Y0310799D01*
Y0309371D01*
X1378320Y0307943D01*
X1377749Y0307086D01*
X1376892Y0306800D01*
X1376320D01*
X1375463Y0307086D01*
X1375178Y0307657D01*
X1383090Y0312799D02*
X1380234Y0308800D01*
X1384519D01*
X1383090Y0312799D02*
Y0306800D01*
X1385576Y0309371D02*
X1390717D01*
X1392488Y0312799D02*
X1394774Y0306800D01*
X1397059Y0312799D02*
X1394774Y0306800D01*
X1399544Y0312799D02*
X1398687Y0312513D01*
X1398116Y0311656D01*
X1397830Y0310228D01*
Y0309371D01*
X1398116Y0307943D01*
X1398687Y0307086D01*
X1399544Y0306800D01*
X1400115D01*
X1400972Y0307086D01*
X1401544Y0307943D01*
X1401829Y0309371D01*
Y0310228D01*
X1401544Y0311656D01*
X1400972Y0312513D01*
X1400115Y0312799D01*
X1399544D01*
X1407885D02*
Y0306800D01*
Y0312799D02*
X1410456D01*
X1411313Y0312513D01*
X1411599Y0312227D01*
X1411884Y0311656D01*
Y0311085D01*
X1411599Y0310513D01*
X1411313Y0310228D01*
X1410456Y0309942D01*
X1407885D01*
X1409885D02*
X1411884Y0306800D01*
X1416940Y0312799D02*
X1413227D01*
Y0306800D01*
X1416940D01*
X1413227Y0309942D02*
X1415512D01*
X1419654Y0312799D02*
X1419083Y0312513D01*
X1418511Y0311942D01*
X1418226Y0311370D01*
X1417940Y0310513D01*
Y0309085D01*
X1418226Y0308228D01*
X1418511Y0307657D01*
X1419083Y0307086D01*
X1419654Y0306800D01*
X1420797D01*
X1421368Y0307086D01*
X1421939Y0307657D01*
X1422225Y0308228D01*
X1422511Y0309085D01*
Y0310513D01*
X1422225Y0311370D01*
X1421939Y0311942D01*
X1421368Y0312513D01*
X1420797Y0312799D01*
X1419654D01*
X1420511Y0307943D02*
X1422225Y0306229D01*
X1423910Y0312799D02*
Y0308514D01*
X1424196Y0307657D01*
X1424767Y0307086D01*
X1425624Y0306800D01*
X1426196D01*
X1427052Y0307086D01*
X1427624Y0307657D01*
X1427909Y0308514D01*
Y0312799D01*
X1429566D02*
Y0306800D01*
X1430823Y0312799D02*
Y0306800D01*
Y0312799D02*
X1433394D01*
X1434251Y0312513D01*
X1434536Y0312227D01*
X1434822Y0311656D01*
Y0311085D01*
X1434536Y0310513D01*
X1434251Y0310228D01*
X1433394Y0309942D01*
X1430823D01*
X1432823D02*
X1434822Y0306800D01*
X1439878Y0312799D02*
X1436165D01*
Y0306800D01*
X1439878D01*
X1436165Y0309942D02*
X1438450D01*
X1440878Y0312799D02*
Y0306800D01*
Y0312799D02*
X1443163Y0306800D01*
X1445448Y0312799D02*
X1443163Y0306800D01*
X1445448Y0312799D02*
Y0306800D01*
X1450876Y0312799D02*
X1447162D01*
Y0306800D01*
X1450876D01*
X1447162Y0309942D02*
X1449448D01*
X1451876Y0312799D02*
Y0306800D01*
Y0312799D02*
X1455875Y0306800D01*
Y0312799D02*
Y0306800D01*
X1459531Y0312799D02*
Y0306800D01*
X1457532Y0312799D02*
X1461531D01*
X1466244Y0311942D02*
X1465673Y0312513D01*
X1464816Y0312799D01*
X1463673D01*
X1462816Y0312513D01*
X1462245Y0311942D01*
Y0311370D01*
X1462531Y0310799D01*
X1462816Y0310513D01*
X1463387Y0310228D01*
X1465101Y0309657D01*
X1465673Y0309371D01*
X1465958Y0309085D01*
X1466244Y0308514D01*
Y0307657D01*
X1465673Y0307086D01*
X1464816Y0306800D01*
X1463673D01*
X1462816Y0307086D01*
X1462245Y0307657D01*
X1467872Y0307371D02*
X1467587Y0307086D01*
X1467872Y0306800D01*
X1468158Y0307086D01*
X1467872Y0307371D01*
X1482146Y0685099D02*
Y0679100D01*
Y0685099D02*
X1484431Y0679100D01*
X1486716Y0685099D02*
X1484431Y0679100D01*
X1486716Y0685099D02*
Y0679100D01*
X1488430Y0685099D02*
Y0679100D01*
X1489687Y0685099D02*
Y0679100D01*
X1493115D01*
X1470520Y0684099D02*
X1471520Y0685098D01*
X1473519D01*
X1474519Y0684099D01*
Y0683099D01*
X1473519Y0682099D01*
X1472519D01*
X1473519D01*
X1474519Y0681100D01*
Y0680100D01*
X1473519Y0679100D01*
X1471520D01*
X1470520Y0680100D01*
X1446600Y0682599D02*
X1450599D01*
X1448599Y0684599D02*
Y0680600D01*
X1452598Y0679600D02*
X1456597Y0683599D01*
X1458596Y0682599D02*
X1462595D01*
X1209623Y0685099D02*
Y0679100D01*
X1213622Y0685099D02*
Y0679100D01*
X1209623Y0682242D02*
X1213622D01*
X1216993Y0685099D02*
X1216421Y0684813D01*
X1215850Y0684242D01*
X1215564Y0683671D01*
X1215279Y0682814D01*
Y0681385D01*
X1215564Y0680528D01*
X1215850Y0679957D01*
X1216421Y0679386D01*
X1216993Y0679100D01*
X1218135D01*
X1218707Y0679386D01*
X1219278Y0679957D01*
X1219563Y0680528D01*
X1219849Y0681385D01*
Y0682814D01*
X1219563Y0683671D01*
X1219278Y0684242D01*
X1218707Y0684813D01*
X1218135Y0685099D01*
X1216993D01*
X1221249D02*
Y0679100D01*
X1224677D01*
X1229047Y0685099D02*
X1225334D01*
Y0679100D01*
X1229047D01*
X1225334Y0682242D02*
X1227619D01*
X1238759Y0684242D02*
X1238188Y0684813D01*
X1237331Y0685099D01*
X1236189D01*
X1235332Y0684813D01*
X1234760Y0684242D01*
Y0683671D01*
X1235046Y0683099D01*
X1235332Y0682814D01*
X1235903Y0682528D01*
X1237617Y0681957D01*
X1238188Y0681671D01*
X1238474Y0681385D01*
X1238759Y0680814D01*
Y0679957D01*
X1238188Y0679386D01*
X1237331Y0679100D01*
X1236189D01*
X1235332Y0679386D01*
X1234760Y0679957D01*
X1240102Y0685099D02*
Y0679100D01*
X1245358Y0685099D02*
X1241359Y0679100D01*
Y0685099D02*
X1245358D01*
X1241359Y0679100D02*
X1245358D01*
X1250414Y0685099D02*
X1246701D01*
Y0679100D01*
X1250414D01*
X1246701Y0682242D02*
X1248986D01*
X1258127Y0685099D02*
Y0679100D01*
X1256127Y0685099D02*
X1260126D01*
X1262554D02*
X1261983Y0684813D01*
X1261412Y0684242D01*
X1261126Y0683671D01*
X1260840Y0682814D01*
Y0681385D01*
X1261126Y0680528D01*
X1261412Y0679957D01*
X1261983Y0679386D01*
X1262554Y0679100D01*
X1263697D01*
X1264268Y0679386D01*
X1264840Y0679957D01*
X1265125Y0680528D01*
X1265411Y0681385D01*
Y0682814D01*
X1265125Y0683671D01*
X1264840Y0684242D01*
X1264268Y0684813D01*
X1263697Y0685099D01*
X1262554D01*
X1266811D02*
Y0679100D01*
X1270238D01*
X1274609Y0685099D02*
X1270895D01*
Y0679100D01*
X1274609D01*
X1270895Y0682242D02*
X1273181D01*
X1275609Y0685099D02*
Y0679100D01*
Y0685099D02*
X1278180D01*
X1279037Y0684813D01*
X1279322Y0684527D01*
X1279608Y0683956D01*
Y0683385D01*
X1279322Y0682814D01*
X1279037Y0682528D01*
X1278180Y0682242D01*
X1275609D01*
X1277608D02*
X1279608Y0679100D01*
X1285521D02*
X1283236Y0685099D01*
X1280950Y0679100D01*
X1281807Y0681100D02*
X1284664D01*
X1286921Y0685099D02*
Y0679100D01*
Y0685099D02*
X1290920Y0679100D01*
Y0685099D02*
Y0679100D01*
X1296861Y0683671D02*
X1296576Y0684242D01*
X1296004Y0684813D01*
X1295433Y0685099D01*
X1294290D01*
X1293719Y0684813D01*
X1293148Y0684242D01*
X1292862Y0683671D01*
X1292577Y0682814D01*
Y0681385D01*
X1292862Y0680528D01*
X1293148Y0679957D01*
X1293719Y0679386D01*
X1294290Y0679100D01*
X1295433D01*
X1296004Y0679386D01*
X1296576Y0679957D01*
X1296861Y0680528D01*
X1302260Y0685099D02*
X1298547D01*
Y0679100D01*
X1302260D01*
X1298547Y0682242D02*
X1300832D01*
X1309973Y0686241D02*
X1309401Y0685670D01*
X1308830Y0684813D01*
X1308259Y0683671D01*
X1307973Y0682242D01*
Y0681100D01*
X1308259Y0679671D01*
X1308830Y0678529D01*
X1309401Y0677672D01*
X1309973Y0677101D01*
X1309401Y0685670D02*
X1308830Y0684527D01*
X1308545Y0683671D01*
X1308259Y0682242D01*
Y0681100D01*
X1308545Y0679671D01*
X1308830Y0678814D01*
X1309401Y0677672D01*
X1311115Y0685099D02*
Y0680814D01*
X1311401Y0679957D01*
X1311972Y0679386D01*
X1312829Y0679100D01*
X1313401D01*
X1314258Y0679386D01*
X1314829Y0679957D01*
X1315114Y0680814D01*
Y0685099D01*
X1316771D02*
Y0679100D01*
Y0685099D02*
X1320770Y0679100D01*
Y0685099D02*
Y0679100D01*
X1322427Y0685099D02*
Y0679100D01*
X1325855D01*
X1330225Y0685099D02*
X1326512D01*
Y0679100D01*
X1330225D01*
X1326512Y0682242D02*
X1328797D01*
X1335225Y0684242D02*
X1334653Y0684813D01*
X1333796Y0685099D01*
X1332654D01*
X1331797Y0684813D01*
X1331225Y0684242D01*
Y0683671D01*
X1331511Y0683099D01*
X1331797Y0682814D01*
X1332368Y0682528D01*
X1334082Y0681957D01*
X1334653Y0681671D01*
X1334939Y0681385D01*
X1335225Y0680814D01*
Y0679957D01*
X1334653Y0679386D01*
X1333796Y0679100D01*
X1332654D01*
X1331797Y0679386D01*
X1331225Y0679957D01*
X1340566Y0684242D02*
X1339995Y0684813D01*
X1339138Y0685099D01*
X1337995D01*
X1337138Y0684813D01*
X1336567Y0684242D01*
Y0683671D01*
X1336853Y0683099D01*
X1337138Y0682814D01*
X1337710Y0682528D01*
X1339424Y0681957D01*
X1339995Y0681671D01*
X1340281Y0681385D01*
X1340566Y0680814D01*
Y0679957D01*
X1339995Y0679386D01*
X1339138Y0679100D01*
X1337995D01*
X1337138Y0679386D01*
X1336567Y0679957D01*
X1348336Y0685099D02*
X1347765Y0684813D01*
X1347193Y0684242D01*
X1346908Y0683671D01*
X1346622Y0682814D01*
Y0681385D01*
X1346908Y0680528D01*
X1347193Y0679957D01*
X1347765Y0679386D01*
X1348336Y0679100D01*
X1349479D01*
X1350050Y0679386D01*
X1350621Y0679957D01*
X1350907Y0680528D01*
X1351192Y0681385D01*
Y0682814D01*
X1350907Y0683671D01*
X1350621Y0684242D01*
X1350050Y0684813D01*
X1349479Y0685099D01*
X1348336D01*
X1354592D02*
Y0679100D01*
X1352592Y0685099D02*
X1356591D01*
X1357306D02*
Y0679100D01*
X1361305Y0685099D02*
Y0679100D01*
X1357306Y0682242D02*
X1361305D01*
X1366675Y0685099D02*
X1362961D01*
Y0679100D01*
X1366675D01*
X1362961Y0682242D02*
X1365247D01*
X1367675Y0685099D02*
Y0679100D01*
Y0685099D02*
X1370246D01*
X1371103Y0684813D01*
X1371388Y0684527D01*
X1371674Y0683956D01*
Y0683385D01*
X1371388Y0682814D01*
X1371103Y0682528D01*
X1370246Y0682242D01*
X1367675D01*
X1369674D02*
X1371674Y0679100D01*
X1373016Y0685099D02*
X1374445Y0679100D01*
X1375873Y0685099D02*
X1374445Y0679100D01*
X1375873Y0685099D02*
X1377301Y0679100D01*
X1378729Y0685099D02*
X1377301Y0679100D01*
X1379929Y0685099D02*
Y0679100D01*
X1385185Y0684242D02*
X1384614Y0684813D01*
X1383757Y0685099D01*
X1382614D01*
X1381757Y0684813D01*
X1381186Y0684242D01*
Y0683671D01*
X1381472Y0683099D01*
X1381757Y0682814D01*
X1382329Y0682528D01*
X1384043Y0681957D01*
X1384614Y0681671D01*
X1384900Y0681385D01*
X1385185Y0680814D01*
Y0679957D01*
X1384614Y0679386D01*
X1383757Y0679100D01*
X1382614D01*
X1381757Y0679386D01*
X1381186Y0679957D01*
X1390241Y0685099D02*
X1386528D01*
Y0679100D01*
X1390241D01*
X1386528Y0682242D02*
X1388813D01*
X1399953Y0684242D02*
X1399382Y0684813D01*
X1398525Y0685099D01*
X1397383D01*
X1396526Y0684813D01*
X1395954Y0684242D01*
Y0683671D01*
X1396240Y0683099D01*
X1396526Y0682814D01*
X1397097Y0682528D01*
X1398811Y0681957D01*
X1399382Y0681671D01*
X1399668Y0681385D01*
X1399953Y0680814D01*
Y0679957D01*
X1399382Y0679386D01*
X1398525Y0679100D01*
X1397383D01*
X1396526Y0679386D01*
X1395954Y0679957D01*
X1401296Y0681957D02*
X1403867D01*
X1404724Y0682242D01*
X1405009Y0682528D01*
X1405295Y0683099D01*
Y0683956D01*
X1405009Y0684527D01*
X1404724Y0684813D01*
X1403867Y0685099D01*
X1401296D01*
Y0679100D01*
X1410351Y0685099D02*
X1406638D01*
Y0679100D01*
X1410351D01*
X1406638Y0682242D02*
X1408923D01*
X1415636Y0683671D02*
X1415350Y0684242D01*
X1414779Y0684813D01*
X1414208Y0685099D01*
X1413065D01*
X1412494Y0684813D01*
X1411922Y0684242D01*
X1411637Y0683671D01*
X1411351Y0682814D01*
Y0681385D01*
X1411637Y0680528D01*
X1411922Y0679957D01*
X1412494Y0679386D01*
X1413065Y0679100D01*
X1414208D01*
X1414779Y0679386D01*
X1415350Y0679957D01*
X1415636Y0680528D01*
X1417321Y0685099D02*
Y0679100D01*
X1418578Y0685099D02*
Y0679100D01*
Y0685099D02*
X1422291D01*
X1418578Y0682242D02*
X1420863D01*
X1422977Y0685099D02*
Y0679100D01*
X1427948Y0685099D02*
X1424234D01*
Y0679100D01*
X1427948D01*
X1424234Y0682242D02*
X1426519D01*
X1428947Y0685099D02*
Y0679100D01*
Y0685099D02*
X1430947D01*
X1431804Y0684813D01*
X1432375Y0684242D01*
X1432661Y0683671D01*
X1432946Y0682814D01*
Y0681385D01*
X1432661Y0680528D01*
X1432375Y0679957D01*
X1431804Y0679386D01*
X1430947Y0679100D01*
X1428947D01*
X1434289Y0686241D02*
X1434860Y0685670D01*
X1435432Y0684813D01*
X1436003Y0683671D01*
X1436289Y0682242D01*
Y0681100D01*
X1436003Y0679671D01*
X1435432Y0678529D01*
X1434860Y0677672D01*
X1434289Y0677101D01*
X1434860Y0685670D02*
X1435432Y0684527D01*
X1435717Y0683671D01*
X1436003Y0682242D01*
Y0681100D01*
X1435717Y0679671D01*
X1435432Y0678814D01*
X1434860Y0677672D01*
X1438031Y0683099D02*
X1437745Y0682814D01*
X1438031Y0682528D01*
X1438317Y0682814D01*
X1438031Y0683099D01*
Y0679671D02*
X1437745Y0679386D01*
X1438031Y0679100D01*
X1438317Y0679386D01*
X1438031Y0679671D01*
X1403999Y0450022D02*
X1403428Y0450594D01*
X1402571Y0450879D01*
X1401428D01*
X1400571Y0450594D01*
X1400000Y0450022D01*
Y0449451D01*
X1400286Y0448880D01*
X1400571Y0448594D01*
X1401143Y0448308D01*
X1402857Y0447737D01*
X1403428Y0447451D01*
X1403713Y0447166D01*
X1403999Y0446594D01*
Y0445737D01*
X1403428Y0445166D01*
X1402571Y0444880D01*
X1401428D01*
X1400571Y0445166D01*
X1400000Y0445737D01*
X1409055Y0450879D02*
X1405342D01*
Y0444880D01*
X1409055D01*
X1405342Y0448023D02*
X1407627D01*
X1410055Y0450879D02*
Y0444880D01*
Y0450879D02*
X1412340Y0444880D01*
X1414625Y0450879D02*
X1412340Y0444880D01*
X1414625Y0450879D02*
Y0444880D01*
X1416339Y0450879D02*
Y0444880D01*
X1417596Y0447451D02*
X1422738D01*
X1428794Y0449451D02*
X1428508Y0450022D01*
X1427937Y0450594D01*
X1427365Y0450879D01*
X1426223D01*
X1425652Y0450594D01*
X1425080Y0450022D01*
X1424795Y0449451D01*
X1424509Y0448594D01*
Y0447166D01*
X1424795Y0446309D01*
X1425080Y0445737D01*
X1425652Y0445166D01*
X1426223Y0444880D01*
X1427365D01*
X1427937Y0445166D01*
X1428508Y0445737D01*
X1428794Y0446309D01*
Y0447166D01*
X1427365D02*
X1428794D01*
X1430165Y0450879D02*
Y0444880D01*
X1433593D01*
X1435964Y0450879D02*
X1435392Y0450594D01*
X1434821Y0450022D01*
X1434535Y0449451D01*
X1434250Y0448594D01*
Y0447166D01*
X1434535Y0446309D01*
X1434821Y0445737D01*
X1435392Y0445166D01*
X1435964Y0444880D01*
X1437106D01*
X1437678Y0445166D01*
X1438249Y0445737D01*
X1438535Y0446309D01*
X1438820Y0447166D01*
Y0448594D01*
X1438535Y0449451D01*
X1438249Y0450022D01*
X1437678Y0450594D01*
X1437106Y0450879D01*
X1435964D01*
X1444219Y0450022D02*
X1443648Y0450594D01*
X1442791Y0450879D01*
X1441648D01*
X1440791Y0450594D01*
X1440220Y0450022D01*
Y0449451D01*
X1440506Y0448880D01*
X1440791Y0448594D01*
X1441362Y0448308D01*
X1443076Y0447737D01*
X1443648Y0447451D01*
X1443933Y0447166D01*
X1444219Y0446594D01*
Y0445737D01*
X1443648Y0445166D01*
X1442791Y0444880D01*
X1441648D01*
X1440791Y0445166D01*
X1440220Y0445737D01*
X1449561Y0450022D02*
X1448989Y0450594D01*
X1448133Y0450879D01*
X1446990D01*
X1446133Y0450594D01*
X1445562Y0450022D01*
Y0449451D01*
X1445847Y0448880D01*
X1446133Y0448594D01*
X1446704Y0448308D01*
X1448418Y0447737D01*
X1448989Y0447451D01*
X1449275Y0447166D01*
X1449561Y0446594D01*
Y0445737D01*
X1448989Y0445166D01*
X1448133Y0444880D01*
X1446990D01*
X1446133Y0445166D01*
X1445562Y0445737D01*
X1445714Y0431763D02*
X1442000D01*
Y0425764D01*
X1445714D01*
X1442000Y0428906D02*
X1444285D01*
X1446713Y0431763D02*
Y0425764D01*
Y0431763D02*
X1450712Y0425764D01*
Y0431763D02*
Y0425764D01*
X1456083Y0431763D02*
X1452369D01*
Y0425764D01*
X1456083D01*
X1452369Y0428906D02*
X1454654D01*
X1457082Y0428620D02*
X1459653D01*
X1460510Y0428906D01*
X1460796Y0429192D01*
X1461082Y0429763D01*
Y0430620D01*
X1460796Y0431191D01*
X1460510Y0431477D01*
X1459653Y0431763D01*
X1457082D01*
Y0425764D01*
X1462424Y0431763D02*
Y0425764D01*
X1467966Y0430334D02*
X1467680Y0430906D01*
X1467109Y0431477D01*
X1466538Y0431763D01*
X1465395D01*
X1464824Y0431477D01*
X1464252Y0430906D01*
X1463967Y0430334D01*
X1463681Y0429477D01*
Y0428049D01*
X1463967Y0427192D01*
X1464252Y0426621D01*
X1464824Y0426050D01*
X1465395Y0425764D01*
X1466538D01*
X1467109Y0426050D01*
X1467680Y0426621D01*
X1467966Y0427192D01*
Y0428049D01*
X1466538D02*
X1467966D01*
X1235100Y0415963D02*
Y0409964D01*
X1236357Y0415963D02*
Y0409964D01*
Y0415963D02*
X1238642Y0409964D01*
X1240927Y0415963D02*
X1238642Y0409964D01*
X1240927Y0415963D02*
Y0409964D01*
X1242641Y0415963D02*
Y0409964D01*
Y0415963D02*
X1244926Y0409964D01*
X1247212Y0415963D02*
X1244926Y0409964D01*
X1247212Y0415963D02*
Y0409964D01*
X1249211Y0410535D02*
X1248926Y0410250D01*
X1249211Y0409964D01*
X1249497Y0410250D01*
X1249211Y0410535D01*
X1257524Y0415963D02*
Y0409964D01*
X1255524Y0415963D02*
X1259523D01*
X1260238D02*
Y0409964D01*
X1261494Y0415963D02*
Y0409964D01*
Y0415963D02*
X1265493Y0409964D01*
Y0415963D02*
Y0409964D01*
X1267150Y0409107D02*
X1271149Y0415963D01*
X1275548Y0415106D02*
X1274977Y0415677D01*
X1274120Y0415963D01*
X1272978D01*
X1272121Y0415677D01*
X1271549Y0415106D01*
Y0414534D01*
X1271835Y0413963D01*
X1272121Y0413677D01*
X1272692Y0413392D01*
X1274406Y0412820D01*
X1274977Y0412535D01*
X1275263Y0412249D01*
X1275548Y0411678D01*
Y0410821D01*
X1274977Y0410250D01*
X1274120Y0409964D01*
X1272978D01*
X1272121Y0410250D01*
X1271549Y0410821D01*
X1276891Y0415963D02*
Y0409964D01*
X1278148Y0415963D02*
Y0409964D01*
X1281576D01*
X1282233Y0415963D02*
X1284518Y0409964D01*
X1286803Y0415963D02*
X1284518Y0409964D01*
X1291288Y0415963D02*
X1287574D01*
Y0409964D01*
X1291288D01*
X1287574Y0413106D02*
X1289860D01*
X1292288Y0415963D02*
Y0409964D01*
Y0415963D02*
X1294859D01*
X1295716Y0415677D01*
X1296001Y0415391D01*
X1296287Y0414820D01*
Y0414249D01*
X1296001Y0413677D01*
X1295716Y0413392D01*
X1294859Y0413106D01*
X1292288D01*
X1294287D02*
X1296287Y0409964D01*
X1304057Y0415963D02*
X1303485Y0415677D01*
X1302914Y0415106D01*
X1302628Y0414534D01*
X1302343Y0413677D01*
Y0412249D01*
X1302628Y0411392D01*
X1302914Y0410821D01*
X1303485Y0410250D01*
X1304057Y0409964D01*
X1305199D01*
X1305771Y0410250D01*
X1306342Y0410821D01*
X1306627Y0411392D01*
X1306913Y0412249D01*
Y0413677D01*
X1306627Y0414534D01*
X1306342Y0415106D01*
X1305771Y0415677D01*
X1305199Y0415963D01*
X1304057D01*
X1308313D02*
Y0409964D01*
Y0415963D02*
X1310884D01*
X1311741Y0415677D01*
X1312026Y0415391D01*
X1312312Y0414820D01*
Y0414249D01*
X1312026Y0413677D01*
X1311741Y0413392D01*
X1310884Y0413106D01*
X1308313D01*
X1310312D02*
X1312312Y0409964D01*
X1322081Y0415963D02*
X1318368D01*
Y0409964D01*
X1322081D01*
X1318368Y0413106D02*
X1320653D01*
X1324795Y0415963D02*
X1324224Y0415677D01*
X1323652Y0415106D01*
X1323367Y0414534D01*
X1323081Y0413677D01*
Y0412249D01*
X1323367Y0411392D01*
X1323652Y0410821D01*
X1324224Y0410250D01*
X1324795Y0409964D01*
X1325938D01*
X1326509Y0410250D01*
X1327080Y0410821D01*
X1327366Y0411392D01*
X1327652Y0412249D01*
Y0413677D01*
X1327366Y0414534D01*
X1327080Y0415106D01*
X1326509Y0415677D01*
X1325938Y0415963D01*
X1324795D01*
X1325652Y0411106D02*
X1327366Y0409392D01*
X1329051Y0415963D02*
Y0411678D01*
X1329337Y0410821D01*
X1329908Y0410250D01*
X1330765Y0409964D01*
X1331336D01*
X1332193Y0410250D01*
X1332765Y0410821D01*
X1333050Y0411678D01*
Y0415963D01*
X1334707D02*
Y0409964D01*
X1335964Y0415963D02*
X1338249Y0409964D01*
X1340535Y0415963D02*
X1338249Y0409964D01*
X1229623Y0702700D02*
Y0708698D01*
X1232622D01*
X1233622Y0707699D01*
Y0705699D01*
X1232622Y0704700D01*
X1229623D01*
X1239620Y0708698D02*
X1235621D01*
Y0702700D01*
X1239620D01*
X1235621Y0705699D02*
X1237620D01*
X1241619Y0702700D02*
Y0708698D01*
X1244618D01*
X1245618Y0707699D01*
Y0705699D01*
X1244618Y0704700D01*
X1241619D01*
X1243618D02*
X1245618Y0702700D01*
X1318702Y0329363D02*
X1322701Y0323364D01*
Y0329363D02*
X1318702Y0323364D01*
X1353170Y0729100D02*
X1349171D01*
X1353170Y0733099D01*
Y0734099D01*
X1352170Y0735098D01*
X1350171D01*
X1349171Y0734099D01*
X1358168Y0729100D02*
Y0735098D01*
X1355169Y0732099D01*
X1359168D01*
X1350169Y0748298D02*
X1348170Y0747299D01*
X1346170Y0745299D01*
Y0743300D01*
X1347170Y0742300D01*
X1349169D01*
X1350169Y0743300D01*
Y0744300D01*
X1349169Y0745299D01*
X1346170D01*
X1356169Y0761498D02*
X1354169Y0760499D01*
X1352170Y0758499D01*
Y0756500D01*
X1353170Y0755500D01*
X1355169D01*
X1356169Y0756500D01*
Y0757500D01*
X1355169Y0758499D01*
X1352170D01*
X1367646Y0735099D02*
Y0729100D01*
Y0735099D02*
X1369931Y0729100D01*
X1372216Y0735099D02*
X1369931Y0729100D01*
X1372216Y0735099D02*
Y0729100D01*
X1373930Y0735099D02*
Y0729100D01*
X1375187Y0735099D02*
Y0729100D01*
X1378615D01*
X1367646Y0748299D02*
Y0742300D01*
Y0748299D02*
X1369931Y0742300D01*
X1372216Y0748299D02*
X1369931Y0742300D01*
X1372216Y0748299D02*
Y0742300D01*
X1373930Y0748299D02*
Y0742300D01*
X1375187Y0748299D02*
Y0742300D01*
X1378615D01*
X1367646Y0761499D02*
Y0755500D01*
Y0761499D02*
X1369931Y0755500D01*
X1372216Y0761499D02*
X1369931Y0755500D01*
X1372216Y0761499D02*
Y0755500D01*
X1373930Y0761499D02*
Y0755500D01*
X1375187Y0761499D02*
Y0755500D01*
X1378615D01*
X1242546Y0761499D02*
Y0755500D01*
Y0761499D02*
X1244831Y0755500D01*
X1247116Y0761499D02*
X1244831Y0755500D01*
X1247116Y0761499D02*
Y0755500D01*
X1248830Y0761499D02*
Y0755500D01*
X1250087Y0761499D02*
Y0755500D01*
Y0761499D02*
X1254086Y0755500D01*
Y0761499D02*
Y0755500D01*
X1256029Y0756071D02*
X1255743Y0755786D01*
X1256029Y0755500D01*
X1256314Y0755786D01*
X1256029Y0756071D01*
X1264341Y0761499D02*
Y0755500D01*
X1262342Y0761499D02*
X1266341D01*
X1267055D02*
Y0755500D01*
Y0761499D02*
X1269626D01*
X1270483Y0761213D01*
X1270768Y0760927D01*
X1271054Y0760356D01*
Y0759785D01*
X1270768Y0759213D01*
X1270483Y0758928D01*
X1269626Y0758642D01*
X1267055D01*
X1269055D02*
X1271054Y0755500D01*
X1276967D02*
X1274682Y0761499D01*
X1272397Y0755500D01*
X1273254Y0757500D02*
X1276110D01*
X1282652Y0760070D02*
X1282366Y0760642D01*
X1281795Y0761213D01*
X1281223Y0761499D01*
X1280081D01*
X1279509Y0761213D01*
X1278938Y0760642D01*
X1278652Y0760070D01*
X1278367Y0759213D01*
Y0757785D01*
X1278652Y0756928D01*
X1278938Y0756357D01*
X1279509Y0755786D01*
X1280081Y0755500D01*
X1281223D01*
X1281795Y0755786D01*
X1282366Y0756357D01*
X1282652Y0756928D01*
X1284337Y0761499D02*
Y0755500D01*
X1288336Y0761499D02*
X1284337Y0757500D01*
X1285765Y0758928D02*
X1288336Y0755500D01*
X1294392Y0761499D02*
X1295820Y0755500D01*
X1297248Y0761499D02*
X1295820Y0755500D01*
X1297248Y0761499D02*
X1298677Y0755500D01*
X1300105Y0761499D02*
X1298677Y0755500D01*
X1301305Y0761499D02*
Y0755500D01*
X1302562Y0761499D02*
Y0755500D01*
Y0761499D02*
X1304561D01*
X1305418Y0761213D01*
X1305989Y0760642D01*
X1306275Y0760070D01*
X1306561Y0759213D01*
Y0757785D01*
X1306275Y0756928D01*
X1305989Y0756357D01*
X1305418Y0755786D01*
X1304561Y0755500D01*
X1302562D01*
X1309903Y0761499D02*
Y0755500D01*
X1307903Y0761499D02*
X1311903D01*
X1312617D02*
Y0755500D01*
X1316616Y0761499D02*
Y0755500D01*
X1312617Y0758642D02*
X1316616D01*
X1318558Y0759499D02*
X1318272Y0759213D01*
X1318558Y0758928D01*
X1318844Y0759213D01*
X1318558Y0759499D01*
Y0756071D02*
X1318272Y0755786D01*
X1318558Y0755500D01*
X1318844Y0755786D01*
X1318558Y0756071D01*
X1242546Y0735099D02*
Y0729100D01*
Y0735099D02*
X1244831Y0729100D01*
X1247116Y0735099D02*
X1244831Y0729100D01*
X1247116Y0735099D02*
Y0729100D01*
X1248830Y0735099D02*
Y0729100D01*
X1250087Y0735099D02*
Y0729100D01*
Y0735099D02*
X1254086Y0729100D01*
Y0735099D02*
Y0729100D01*
X1256029Y0729671D02*
X1255743Y0729386D01*
X1256029Y0729100D01*
X1256314Y0729386D01*
X1256029Y0729671D01*
X1262342Y0735099D02*
X1264627Y0729100D01*
X1266912Y0735099D02*
X1264627Y0729100D01*
X1267683Y0735099D02*
Y0729100D01*
X1273511D02*
X1271225Y0735099D01*
X1268940Y0729100D01*
X1269797Y0731100D02*
X1272654D01*
X1279624Y0731956D02*
X1282195D01*
X1283051Y0732242D01*
X1283337Y0732528D01*
X1283623Y0733099D01*
Y0733956D01*
X1283337Y0734527D01*
X1283051Y0734813D01*
X1282195Y0735099D01*
X1279624D01*
Y0729100D01*
X1289536D02*
X1287251Y0735099D01*
X1284965Y0729100D01*
X1285822Y0731100D02*
X1288679D01*
X1290936Y0735099D02*
Y0729100D01*
Y0735099D02*
X1292935D01*
X1293792Y0734813D01*
X1294363Y0734242D01*
X1294649Y0733670D01*
X1294935Y0732814D01*
Y0731385D01*
X1294649Y0730528D01*
X1294363Y0729957D01*
X1293792Y0729386D01*
X1292935Y0729100D01*
X1290936D01*
X1304990Y0734242D02*
X1304418Y0734813D01*
X1303561Y0735099D01*
X1302419D01*
X1301562Y0734813D01*
X1300990Y0734242D01*
Y0733670D01*
X1301276Y0733099D01*
X1301562Y0732814D01*
X1302133Y0732528D01*
X1303847Y0731956D01*
X1304418Y0731671D01*
X1304704Y0731385D01*
X1304990Y0730814D01*
Y0729957D01*
X1304418Y0729386D01*
X1303561Y0729100D01*
X1302419D01*
X1301562Y0729386D01*
X1300990Y0729957D01*
X1306332Y0735099D02*
Y0729100D01*
X1311588Y0735099D02*
X1307589Y0729100D01*
Y0735099D02*
X1311588D01*
X1307589Y0729100D02*
X1311588D01*
X1316644Y0735099D02*
X1312931D01*
Y0729100D01*
X1316644D01*
X1312931Y0732242D02*
X1315216D01*
X1317930Y0733099D02*
X1317644Y0732814D01*
X1317930Y0732528D01*
X1318215Y0732814D01*
X1317930Y0733099D01*
Y0729671D02*
X1317644Y0729386D01*
X1317930Y0729100D01*
X1318215Y0729386D01*
X1317930Y0729671D01*
X1242546Y0748299D02*
Y0742300D01*
Y0748299D02*
X1244831Y0742300D01*
X1247116Y0748299D02*
X1244831Y0742300D01*
X1247116Y0748299D02*
Y0742300D01*
X1248830Y0748299D02*
Y0742300D01*
X1250087Y0748299D02*
Y0742300D01*
Y0748299D02*
X1254086Y0742300D01*
Y0748299D02*
Y0742300D01*
X1256029Y0742871D02*
X1255743Y0742586D01*
X1256029Y0742300D01*
X1256314Y0742586D01*
X1256029Y0742871D01*
X1266626Y0746870D02*
X1266341Y0747442D01*
X1265769Y0748013D01*
X1265198Y0748299D01*
X1264056D01*
X1263484Y0748013D01*
X1262913Y0747442D01*
X1262627Y0746870D01*
X1262342Y0746013D01*
Y0744585D01*
X1262627Y0743728D01*
X1262913Y0743157D01*
X1263484Y0742586D01*
X1264056Y0742300D01*
X1265198D01*
X1265769Y0742586D01*
X1266341Y0743157D01*
X1266626Y0743728D01*
X1268312Y0748299D02*
Y0742300D01*
X1271740D01*
X1276110Y0748299D02*
X1272397D01*
Y0742300D01*
X1276110D01*
X1272397Y0745442D02*
X1274682D01*
X1281680Y0742300D02*
X1279395Y0748299D01*
X1277110Y0742300D01*
X1277967Y0744300D02*
X1280823D01*
X1283080Y0748299D02*
Y0742300D01*
Y0748299D02*
X1285651D01*
X1286508Y0748013D01*
X1286794Y0747727D01*
X1287079Y0747156D01*
Y0746585D01*
X1286794Y0746013D01*
X1286508Y0745728D01*
X1285651Y0745442D01*
X1283080D01*
X1285080D02*
X1287079Y0742300D01*
X1292992D02*
X1290707Y0748299D01*
X1288422Y0742300D01*
X1289279Y0744300D02*
X1292135D01*
X1294392Y0748299D02*
Y0742300D01*
Y0748299D02*
X1298391Y0742300D01*
Y0748299D02*
Y0742300D01*
X1304333Y0746870D02*
X1304047Y0747442D01*
X1303476Y0748013D01*
X1302904Y0748299D01*
X1301762D01*
X1301190Y0748013D01*
X1300619Y0747442D01*
X1300333Y0746870D01*
X1300048Y0746013D01*
Y0744585D01*
X1300333Y0743728D01*
X1300619Y0743157D01*
X1301190Y0742586D01*
X1301762Y0742300D01*
X1302904D01*
X1303476Y0742586D01*
X1304047Y0743157D01*
X1304333Y0743728D01*
X1309731Y0748299D02*
X1306018D01*
Y0742300D01*
X1309731D01*
X1306018Y0745442D02*
X1308303D01*
X1311017Y0746299D02*
X1310731Y0746013D01*
X1311017Y0745728D01*
X1311303Y0746013D01*
X1311017Y0746299D01*
Y0742871D02*
X1310731Y0742586D01*
X1311017Y0742300D01*
X1311303Y0742586D01*
X1311017Y0742871D01*
X1394760Y0649263D02*
X1394189Y0648977D01*
X1393617Y0648406D01*
X1393332Y0647834D01*
X1393046Y0646977D01*
Y0645549D01*
X1393332Y0644692D01*
X1393617Y0644121D01*
X1394189Y0643549D01*
X1394760Y0643264D01*
X1395903D01*
X1396474Y0643549D01*
X1397045Y0644121D01*
X1397331Y0644692D01*
X1397616Y0645549D01*
Y0646977D01*
X1397331Y0647834D01*
X1397045Y0648406D01*
X1396474Y0648977D01*
X1395903Y0649263D01*
X1394760D01*
X1401016D02*
Y0643264D01*
X1399016Y0649263D02*
X1403015D01*
X1403729D02*
Y0643264D01*
X1407728Y0649263D02*
Y0643264D01*
X1403729Y0646406D02*
X1407728D01*
X1413099Y0649263D02*
X1409385D01*
Y0643264D01*
X1413099D01*
X1409385Y0646406D02*
X1411670D01*
X1414099Y0649263D02*
Y0643264D01*
Y0649263D02*
X1416669D01*
X1417526Y0648977D01*
X1417812Y0648691D01*
X1418098Y0648120D01*
Y0647549D01*
X1417812Y0646977D01*
X1417526Y0646692D01*
X1416669Y0646406D01*
X1414099D01*
X1416098D02*
X1418098Y0643264D01*
X1285300Y0648899D02*
X1289299Y0642900D01*
Y0648899D02*
X1285300Y0642900D01*
X1313960Y0569612D02*
X1313389Y0569326D01*
X1312817Y0568755D01*
X1312532Y0568184D01*
X1312246Y0567327D01*
Y0565898D01*
X1312532Y0565041D01*
X1312817Y0564470D01*
X1313389Y0563899D01*
X1313960Y0563613D01*
X1315102D01*
X1315674Y0563899D01*
X1316245Y0564470D01*
X1316531Y0565041D01*
X1316816Y0565898D01*
Y0567327D01*
X1316531Y0568184D01*
X1316245Y0568755D01*
X1315674Y0569326D01*
X1315102Y0569612D01*
X1313960D01*
X1320216D02*
Y0563613D01*
X1318216Y0569612D02*
X1322215D01*
X1322929D02*
Y0563613D01*
X1326929Y0569612D02*
Y0563613D01*
X1322929Y0566755D02*
X1326929D01*
X1332299Y0569612D02*
X1328585D01*
Y0563613D01*
X1332299D01*
X1328585Y0566755D02*
X1330871D01*
X1333299Y0569612D02*
Y0563613D01*
Y0569612D02*
X1335870D01*
X1336726Y0569326D01*
X1337012Y0569041D01*
X1337298Y0568469D01*
Y0567898D01*
X1337012Y0567327D01*
X1336726Y0567041D01*
X1335870Y0566755D01*
X1333299D01*
X1335298D02*
X1337298Y0563613D01*
X1345924Y0568755D02*
Y0563613D01*
X1343354Y0566184D02*
X1348495D01*
X1350266Y0562756D02*
X1354265Y0569612D01*
X1354665Y0566184D02*
X1359807D01*
X1338246Y0450943D02*
Y0444944D01*
Y0450943D02*
X1340531Y0444944D01*
X1342816Y0450943D02*
X1340531Y0444944D01*
X1342816Y0450943D02*
Y0444944D01*
X1349101D02*
X1346815Y0450943D01*
X1344530Y0444944D01*
X1345387Y0446944D02*
X1348244D01*
X1352500Y0450943D02*
Y0444944D01*
X1350500Y0450943D02*
X1354500D01*
X1357213D02*
Y0444944D01*
X1355214Y0450943D02*
X1359213D01*
X1363640D02*
X1359927D01*
Y0444944D01*
X1363640D01*
X1359927Y0448086D02*
X1362212D01*
X1202146Y0664153D02*
Y0658154D01*
Y0664153D02*
X1204431Y0658154D01*
X1206716Y0664153D02*
X1204431Y0658154D01*
X1206716Y0664153D02*
Y0658154D01*
X1213001D02*
X1210715Y0664153D01*
X1208430Y0658154D01*
X1209287Y0660154D02*
X1212144D01*
X1216400Y0664153D02*
Y0658154D01*
X1214400Y0664153D02*
X1218400D01*
X1222827D02*
X1219114D01*
Y0658154D01*
X1222827D01*
X1219114Y0661296D02*
X1221399D01*
X1223827Y0664153D02*
Y0658154D01*
Y0664153D02*
X1226398D01*
X1227255Y0663867D01*
X1227540Y0663582D01*
X1227826Y0663010D01*
Y0662439D01*
X1227540Y0661868D01*
X1227255Y0661582D01*
X1226398Y0661296D01*
X1223827D01*
X1225827D02*
X1227826Y0658154D01*
X1229169Y0664153D02*
Y0658154D01*
X1234996D02*
X1232711Y0664153D01*
X1230426Y0658154D01*
X1231283Y0660154D02*
X1234139D01*
X1236396Y0664153D02*
Y0658154D01*
X1239824D01*
X1240766Y0662153D02*
X1240481Y0661868D01*
X1240766Y0661582D01*
X1241052Y0661868D01*
X1240766Y0662153D01*
Y0658726D02*
X1240481Y0658440D01*
X1240766Y0658154D01*
X1241052Y0658440D01*
X1240766Y0658726D01*
X1202146Y0555763D02*
Y0549764D01*
Y0555763D02*
X1204146D01*
X1205002Y0555477D01*
X1205574Y0554906D01*
X1205859Y0554334D01*
X1206145Y0553477D01*
Y0552049D01*
X1205859Y0551192D01*
X1205574Y0550621D01*
X1205002Y0550049D01*
X1204146Y0549764D01*
X1202146D01*
X1207488Y0555763D02*
Y0549764D01*
Y0555763D02*
X1210058D01*
X1210915Y0555477D01*
X1211201Y0555191D01*
X1211487Y0554620D01*
Y0554049D01*
X1211201Y0553477D01*
X1210915Y0553192D01*
X1210058Y0552906D01*
X1207488D01*
X1209487D02*
X1211487Y0549764D01*
X1212829Y0555763D02*
Y0549764D01*
X1214086Y0555763D02*
Y0549764D01*
X1217514D01*
X1218171Y0555763D02*
Y0549764D01*
X1221599D01*
X1222256Y0555763D02*
Y0549764D01*
X1223513Y0555763D02*
Y0549764D01*
Y0555763D02*
X1227512Y0549764D01*
Y0555763D02*
Y0549764D01*
X1233453Y0554334D02*
X1233168Y0554906D01*
X1232597Y0555477D01*
X1232025Y0555763D01*
X1230883D01*
X1230311Y0555477D01*
X1229740Y0554906D01*
X1229454Y0554334D01*
X1229169Y0553477D01*
Y0552049D01*
X1229454Y0551192D01*
X1229740Y0550621D01*
X1230311Y0550049D01*
X1230883Y0549764D01*
X1232025D01*
X1232597Y0550049D01*
X1233168Y0550621D01*
X1233453Y0551192D01*
Y0552049D01*
X1232025D02*
X1233453D01*
X1235110Y0553763D02*
X1234825Y0553477D01*
X1235110Y0553192D01*
X1235396Y0553477D01*
X1235110Y0553763D01*
Y0550335D02*
X1234825Y0550049D01*
X1235110Y0549764D01*
X1235396Y0550049D01*
X1235110Y0550335D01*
X1202146Y0512363D02*
Y0506364D01*
Y0512363D02*
X1204717D01*
X1205574Y0512077D01*
X1205859Y0511791D01*
X1206145Y0511220D01*
Y0510649D01*
X1205859Y0510077D01*
X1205574Y0509792D01*
X1204717Y0509506D01*
X1202146D02*
X1204717D01*
X1205574Y0509220D01*
X1205859Y0508935D01*
X1206145Y0508363D01*
Y0507507D01*
X1205859Y0506935D01*
X1205574Y0506649D01*
X1204717Y0506364D01*
X1202146D01*
X1209202Y0512363D02*
X1208630Y0512077D01*
X1208059Y0511506D01*
X1207773Y0510934D01*
X1207488Y0510077D01*
Y0508649D01*
X1207773Y0507792D01*
X1208059Y0507221D01*
X1208630Y0506649D01*
X1209202Y0506364D01*
X1210344D01*
X1210915Y0506649D01*
X1211487Y0507221D01*
X1211773Y0507792D01*
X1212058Y0508649D01*
Y0510077D01*
X1211773Y0510934D01*
X1211487Y0511506D01*
X1210915Y0512077D01*
X1210344Y0512363D01*
X1209202D01*
X1218028Y0506364D02*
X1215743Y0512363D01*
X1213458Y0506364D01*
X1214315Y0508363D02*
X1217171D01*
X1219428Y0512363D02*
Y0506364D01*
Y0512363D02*
X1221999D01*
X1222856Y0512077D01*
X1223141Y0511791D01*
X1223427Y0511220D01*
Y0510649D01*
X1223141Y0510077D01*
X1222856Y0509792D01*
X1221999Y0509506D01*
X1219428D01*
X1221428D02*
X1223427Y0506364D01*
X1224770Y0512363D02*
Y0506364D01*
Y0512363D02*
X1226769D01*
X1227626Y0512077D01*
X1228197Y0511506D01*
X1228483Y0510934D01*
X1228769Y0510077D01*
Y0508649D01*
X1228483Y0507792D01*
X1228197Y0507221D01*
X1227626Y0506649D01*
X1226769Y0506364D01*
X1224770D01*
X1234825Y0512363D02*
Y0506364D01*
Y0512363D02*
X1238538D01*
X1234825Y0509506D02*
X1237110D01*
X1239224Y0512363D02*
Y0506364D01*
X1240481Y0512363D02*
Y0506364D01*
Y0512363D02*
X1244480Y0506364D01*
Y0512363D02*
Y0506364D01*
X1246136Y0512363D02*
Y0506364D01*
X1251392Y0511506D02*
X1250821Y0512077D01*
X1249964Y0512363D01*
X1248822D01*
X1247965Y0512077D01*
X1247393Y0511506D01*
Y0510934D01*
X1247679Y0510363D01*
X1247965Y0510077D01*
X1248536Y0509792D01*
X1250250Y0509220D01*
X1250821Y0508935D01*
X1251107Y0508649D01*
X1251392Y0508078D01*
Y0507221D01*
X1250821Y0506649D01*
X1249964Y0506364D01*
X1248822D01*
X1247965Y0506649D01*
X1247393Y0507221D01*
X1252735Y0512363D02*
Y0506364D01*
X1256734Y0512363D02*
Y0506364D01*
X1252735Y0509506D02*
X1256734D01*
X1258677Y0510363D02*
X1258391Y0510077D01*
X1258677Y0509792D01*
X1258962Y0510077D01*
X1258677Y0510363D01*
Y0506935D02*
X1258391Y0506649D01*
X1258677Y0506364D01*
X1258962Y0506649D01*
X1258677Y0506935D01*
X1206145Y0430806D02*
X1205574Y0431377D01*
X1204717Y0431663D01*
X1203574D01*
X1202717Y0431377D01*
X1202146Y0430806D01*
Y0430234D01*
X1202432Y0429663D01*
X1202717Y0429377D01*
X1203289Y0429092D01*
X1205002Y0428520D01*
X1205574Y0428235D01*
X1205859Y0427949D01*
X1206145Y0427378D01*
Y0426521D01*
X1205574Y0425949D01*
X1204717Y0425664D01*
X1203574D01*
X1202717Y0425949D01*
X1202146Y0426521D01*
X1207488Y0431663D02*
Y0427378D01*
X1207773Y0426521D01*
X1208345Y0425949D01*
X1209202Y0425664D01*
X1209773D01*
X1210630Y0425949D01*
X1211201Y0426521D01*
X1211487Y0427378D01*
Y0431663D01*
X1213144D02*
Y0425664D01*
Y0431663D02*
X1215714D01*
X1216571Y0431377D01*
X1216857Y0431091D01*
X1217143Y0430520D01*
Y0429949D01*
X1216857Y0429377D01*
X1216571Y0429092D01*
X1215714Y0428806D01*
X1213144D01*
X1215143D02*
X1217143Y0425664D01*
X1218485Y0431663D02*
Y0425664D01*
Y0431663D02*
X1222199D01*
X1218485Y0428806D02*
X1220770D01*
X1227455Y0425664D02*
X1225170Y0431663D01*
X1222884Y0425664D01*
X1223741Y0427663D02*
X1226598D01*
X1233139Y0430234D02*
X1232854Y0430806D01*
X1232282Y0431377D01*
X1231711Y0431663D01*
X1230568D01*
X1229997Y0431377D01*
X1229426Y0430806D01*
X1229140Y0430234D01*
X1228854Y0429377D01*
Y0427949D01*
X1229140Y0427092D01*
X1229426Y0426521D01*
X1229997Y0425949D01*
X1230568Y0425664D01*
X1231711D01*
X1232282Y0425949D01*
X1232854Y0426521D01*
X1233139Y0427092D01*
X1238538Y0431663D02*
X1234825D01*
Y0425664D01*
X1238538D01*
X1234825Y0428806D02*
X1237110D01*
X1244251Y0431663D02*
Y0425664D01*
Y0431663D02*
X1247965D01*
X1244251Y0428806D02*
X1246536D01*
X1248650Y0431663D02*
Y0425664D01*
X1249907Y0431663D02*
Y0425664D01*
Y0431663D02*
X1253906Y0425664D01*
Y0431663D02*
Y0425664D01*
X1255563Y0431663D02*
Y0425664D01*
X1260819Y0430806D02*
X1260248Y0431377D01*
X1259391Y0431663D01*
X1258248D01*
X1257391Y0431377D01*
X1256820Y0430806D01*
Y0430234D01*
X1257106Y0429663D01*
X1257391Y0429377D01*
X1257963Y0429092D01*
X1259676Y0428520D01*
X1260248Y0428235D01*
X1260533Y0427949D01*
X1260819Y0427378D01*
Y0426521D01*
X1260248Y0425949D01*
X1259391Y0425664D01*
X1258248D01*
X1257391Y0425949D01*
X1256820Y0426521D01*
X1262162Y0431663D02*
Y0425664D01*
X1266161Y0431663D02*
Y0425664D01*
X1262162Y0428806D02*
X1266161D01*
X1268103Y0429663D02*
X1267818Y0429377D01*
X1268103Y0429092D01*
X1268389Y0429377D01*
X1268103Y0429663D01*
Y0426235D02*
X1267818Y0425949D01*
X1268103Y0425664D01*
X1268389Y0425949D01*
X1268103Y0426235D01*
X1206716Y0392064D02*
X1204431Y0398063D01*
X1202146Y0392064D01*
X1203003Y0394063D02*
X1205859D01*
X1208116Y0398063D02*
Y0392064D01*
Y0398063D02*
X1210687D01*
X1211544Y0397777D01*
X1211830Y0397491D01*
X1212115Y0396920D01*
Y0396349D01*
X1211830Y0395777D01*
X1211544Y0395492D01*
X1210687Y0395206D01*
X1208116D01*
X1210116D02*
X1212115Y0392064D01*
X1213458Y0398063D02*
Y0392064D01*
Y0398063D02*
X1216029D01*
X1216886Y0397777D01*
X1217171Y0397491D01*
X1217457Y0396920D01*
Y0396349D01*
X1217171Y0395777D01*
X1216886Y0395492D01*
X1216029Y0395206D01*
X1213458D01*
X1215457D02*
X1217457Y0392064D01*
X1223370D02*
X1221085Y0398063D01*
X1218799Y0392064D01*
X1219656Y0394063D02*
X1222513D01*
X1224770Y0398063D02*
X1227055Y0395206D01*
Y0392064D01*
X1229340Y0398063D02*
X1227055Y0395206D01*
X1230111Y0391207D02*
X1234111Y0398063D01*
X1234510Y0394920D02*
X1237081D01*
X1237938Y0395206D01*
X1238224Y0395492D01*
X1238510Y0396063D01*
Y0396920D01*
X1238224Y0397491D01*
X1237938Y0397777D01*
X1237081Y0398063D01*
X1234510D01*
Y0392064D01*
X1244423D02*
X1242137Y0398063D01*
X1239852Y0392064D01*
X1240709Y0394063D02*
X1243566D01*
X1245822Y0398063D02*
Y0392064D01*
Y0398063D02*
X1249821Y0392064D01*
Y0398063D02*
Y0392064D01*
X1255192Y0398063D02*
X1251478D01*
Y0392064D01*
X1255192D01*
X1251478Y0395206D02*
X1253763D01*
X1256192Y0398063D02*
Y0392064D01*
X1259619D01*
X1260562Y0396063D02*
X1260276Y0395777D01*
X1260562Y0395492D01*
X1260848Y0395777D01*
X1260562Y0396063D01*
Y0392635D02*
X1260276Y0392350D01*
X1260562Y0392064D01*
X1260848Y0392350D01*
X1260562Y0392635D01*
X1206431Y0367334D02*
X1206145Y0367906D01*
X1205574Y0368477D01*
X1205002Y0368763D01*
X1203860D01*
X1203289Y0368477D01*
X1202717Y0367906D01*
X1202432Y0367334D01*
X1202146Y0366477D01*
Y0365049D01*
X1202432Y0364192D01*
X1202717Y0363621D01*
X1203289Y0363050D01*
X1203860Y0362764D01*
X1205002D01*
X1205574Y0363050D01*
X1206145Y0363621D01*
X1206431Y0364192D01*
X1211830Y0368763D02*
X1208116D01*
Y0362764D01*
X1211830D01*
X1208116Y0365906D02*
X1210401D01*
X1212829Y0368763D02*
Y0362764D01*
Y0368763D02*
X1215400D01*
X1216257Y0368477D01*
X1216543Y0368191D01*
X1216829Y0367620D01*
Y0367049D01*
X1216543Y0366477D01*
X1216257Y0366192D01*
X1215400Y0365906D01*
X1212829D01*
X1214829D02*
X1216829Y0362764D01*
X1220171Y0368763D02*
Y0362764D01*
X1218171Y0368763D02*
X1222170D01*
X1222884D02*
Y0362764D01*
X1224141Y0368763D02*
Y0362764D01*
Y0368763D02*
X1227855D01*
X1224141Y0365906D02*
X1226427D01*
X1228540Y0368763D02*
Y0362764D01*
X1234082Y0367334D02*
X1233796Y0367906D01*
X1233225Y0368477D01*
X1232654Y0368763D01*
X1231511D01*
X1230940Y0368477D01*
X1230369Y0367906D01*
X1230083Y0367334D01*
X1229797Y0366477D01*
Y0365049D01*
X1230083Y0364192D01*
X1230369Y0363621D01*
X1230940Y0363050D01*
X1231511Y0362764D01*
X1232654D01*
X1233225Y0363050D01*
X1233796Y0363621D01*
X1234082Y0364192D01*
X1240338Y0362764D02*
X1238052Y0368763D01*
X1235767Y0362764D01*
X1236624Y0364763D02*
X1239481D01*
X1243737Y0368763D02*
Y0362764D01*
X1241737Y0368763D02*
X1245737D01*
X1246451D02*
Y0362764D01*
X1249422Y0368763D02*
X1248850Y0368477D01*
X1248279Y0367906D01*
X1247993Y0367334D01*
X1247708Y0366477D01*
Y0365049D01*
X1247993Y0364192D01*
X1248279Y0363621D01*
X1248850Y0363050D01*
X1249422Y0362764D01*
X1250564D01*
X1251136Y0363050D01*
X1251707Y0363621D01*
X1251992Y0364192D01*
X1252278Y0365049D01*
Y0366477D01*
X1251992Y0367334D01*
X1251707Y0367906D01*
X1251136Y0368477D01*
X1250564Y0368763D01*
X1249422D01*
X1253678D02*
Y0362764D01*
Y0368763D02*
X1257677Y0362764D01*
Y0368763D02*
Y0362764D01*
X1259619Y0366763D02*
X1259334Y0366477D01*
X1259619Y0366192D01*
X1259905Y0366477D01*
X1259619Y0366763D01*
Y0363335D02*
X1259334Y0363050D01*
X1259619Y0362764D01*
X1259905Y0363050D01*
X1259619Y0363335D01*
X1206716Y0277464D02*
X1204431Y0283463D01*
X1202146Y0277464D01*
X1203003Y0279463D02*
X1205859D01*
X1208116Y0283463D02*
Y0277464D01*
Y0283463D02*
X1210116D01*
X1210973Y0283177D01*
X1211544Y0282606D01*
X1211830Y0282034D01*
X1212115Y0281177D01*
Y0279749D01*
X1211830Y0278892D01*
X1211544Y0278321D01*
X1210973Y0277749D01*
X1210116Y0277464D01*
X1208116D01*
X1213458Y0283463D02*
Y0277464D01*
Y0283463D02*
X1215457D01*
X1216314Y0283177D01*
X1216886Y0282606D01*
X1217171Y0282034D01*
X1217457Y0281177D01*
Y0279749D01*
X1217171Y0278892D01*
X1216886Y0278321D01*
X1216314Y0277749D01*
X1215457Y0277464D01*
X1213458D01*
X1218799Y0283463D02*
Y0277464D01*
X1222056Y0283463D02*
Y0277464D01*
X1220056Y0283463D02*
X1224055D01*
X1224770D02*
Y0277464D01*
X1227740Y0283463D02*
X1227169Y0283177D01*
X1226598Y0282606D01*
X1226312Y0282034D01*
X1226027Y0281177D01*
Y0279749D01*
X1226312Y0278892D01*
X1226598Y0278321D01*
X1227169Y0277749D01*
X1227740Y0277464D01*
X1228883D01*
X1229454Y0277749D01*
X1230026Y0278321D01*
X1230311Y0278892D01*
X1230597Y0279749D01*
Y0281177D01*
X1230311Y0282034D01*
X1230026Y0282606D01*
X1229454Y0283177D01*
X1228883Y0283463D01*
X1227740D01*
X1231997D02*
Y0277464D01*
Y0283463D02*
X1235996Y0277464D01*
Y0283463D02*
Y0277464D01*
X1242223D02*
X1239938Y0283463D01*
X1237653Y0277464D01*
X1238510Y0279463D02*
X1241366D01*
X1243623Y0283463D02*
Y0277464D01*
X1247051D01*
X1252421Y0283463D02*
Y0277464D01*
Y0283463D02*
X1254992D01*
X1255849Y0283177D01*
X1256134Y0282891D01*
X1256420Y0282320D01*
Y0281749D01*
X1256134Y0281177D01*
X1255849Y0280892D01*
X1254992Y0280606D01*
X1252421D01*
X1254420D02*
X1256420Y0277464D01*
X1261476Y0283463D02*
X1257763D01*
Y0277464D01*
X1261476D01*
X1257763Y0280606D02*
X1260048D01*
X1264190Y0283463D02*
X1263618Y0283177D01*
X1263047Y0282606D01*
X1262761Y0282034D01*
X1262476Y0281177D01*
Y0279749D01*
X1262761Y0278892D01*
X1263047Y0278321D01*
X1263618Y0277749D01*
X1264190Y0277464D01*
X1265332D01*
X1265904Y0277749D01*
X1266475Y0278321D01*
X1266761Y0278892D01*
X1267046Y0279749D01*
Y0281177D01*
X1266761Y0282034D01*
X1266475Y0282606D01*
X1265904Y0283177D01*
X1265332Y0283463D01*
X1264190D01*
X1265047Y0278606D02*
X1266761Y0276892D01*
X1268446Y0283463D02*
Y0279178D01*
X1268732Y0278321D01*
X1269303Y0277749D01*
X1270160Y0277464D01*
X1270731D01*
X1271588Y0277749D01*
X1272159Y0278321D01*
X1272445Y0279178D01*
Y0283463D01*
X1274102D02*
Y0277464D01*
X1275359Y0283463D02*
Y0277464D01*
Y0283463D02*
X1277930D01*
X1278787Y0283177D01*
X1279072Y0282891D01*
X1279358Y0282320D01*
Y0281749D01*
X1279072Y0281177D01*
X1278787Y0280892D01*
X1277930Y0280606D01*
X1275359D01*
X1277358D02*
X1279358Y0277464D01*
X1284414Y0283463D02*
X1280700D01*
Y0277464D01*
X1284414D01*
X1280700Y0280606D02*
X1282986D01*
X1285414Y0283463D02*
Y0277464D01*
Y0283463D02*
X1287699Y0277464D01*
X1289984Y0283463D02*
X1287699Y0277464D01*
X1289984Y0283463D02*
Y0277464D01*
X1295412Y0283463D02*
X1291698D01*
Y0277464D01*
X1295412D01*
X1291698Y0280606D02*
X1293983D01*
X1296412Y0283463D02*
Y0277464D01*
Y0283463D02*
X1300411Y0277464D01*
Y0283463D02*
Y0277464D01*
X1304067Y0283463D02*
Y0277464D01*
X1302067Y0283463D02*
X1306067D01*
X1310780Y0282606D02*
X1310209Y0283177D01*
X1309352Y0283463D01*
X1308209D01*
X1307352Y0283177D01*
X1306781Y0282606D01*
Y0282034D01*
X1307066Y0281463D01*
X1307352Y0281177D01*
X1307923Y0280892D01*
X1309637Y0280320D01*
X1310209Y0280035D01*
X1310494Y0279749D01*
X1310780Y0279178D01*
Y0278321D01*
X1310209Y0277749D01*
X1309352Y0277464D01*
X1308209D01*
X1307352Y0277749D01*
X1306781Y0278321D01*
X1312408Y0281463D02*
X1312122Y0281177D01*
X1312408Y0280892D01*
X1312694Y0281177D01*
X1312408Y0281463D01*
Y0278035D02*
X1312122Y0277749D01*
X1312408Y0277464D01*
X1312694Y0277749D01*
X1312408Y0278035D01*
X1221667Y0499706D02*
X1221096Y0500277D01*
X1220239Y0500563D01*
X1219096D01*
X1218239Y0500277D01*
X1217668Y0499706D01*
Y0499134D01*
X1217954Y0498563D01*
X1218239Y0498277D01*
X1218811Y0497992D01*
X1220525Y0497420D01*
X1221096Y0497135D01*
X1221382Y0496849D01*
X1221667Y0496278D01*
Y0495421D01*
X1221096Y0494849D01*
X1220239Y0494564D01*
X1219096D01*
X1218239Y0494849D01*
X1217668Y0495421D01*
X1223010Y0500563D02*
Y0494564D01*
X1224267Y0500563D02*
Y0494564D01*
X1227695D01*
X1228351Y0500563D02*
Y0494564D01*
X1232351Y0500563D02*
X1228351Y0496563D01*
X1229780Y0497992D02*
X1232351Y0494564D01*
X1237692Y0499706D02*
X1237121Y0500277D01*
X1236264Y0500563D01*
X1235122D01*
X1234265Y0500277D01*
X1233693Y0499706D01*
Y0499134D01*
X1233979Y0498563D01*
X1234265Y0498277D01*
X1234836Y0497992D01*
X1236550Y0497420D01*
X1237121Y0497135D01*
X1237407Y0496849D01*
X1237692Y0496278D01*
Y0495421D01*
X1237121Y0494849D01*
X1236264Y0494564D01*
X1235122D01*
X1234265Y0494849D01*
X1233693Y0495421D01*
X1243320Y0499134D02*
X1243034Y0499706D01*
X1242463Y0500277D01*
X1241891Y0500563D01*
X1240749D01*
X1240178Y0500277D01*
X1239606Y0499706D01*
X1239321Y0499134D01*
X1239035Y0498277D01*
Y0496849D01*
X1239321Y0495992D01*
X1239606Y0495421D01*
X1240178Y0494849D01*
X1240749Y0494564D01*
X1241891D01*
X1242463Y0494849D01*
X1243034Y0495421D01*
X1243320Y0495992D01*
X1245005Y0500563D02*
Y0494564D01*
Y0500563D02*
X1247576D01*
X1248433Y0500277D01*
X1248719Y0499991D01*
X1249004Y0499420D01*
Y0498849D01*
X1248719Y0498277D01*
X1248433Y0497992D01*
X1247576Y0497706D01*
X1245005D01*
X1247005D02*
X1249004Y0494564D01*
X1254060Y0500563D02*
X1250347D01*
Y0494564D01*
X1254060D01*
X1250347Y0497706D02*
X1252632D01*
X1258774Y0500563D02*
X1255060D01*
Y0494564D01*
X1258774D01*
X1255060Y0497706D02*
X1257345D01*
X1259773Y0500563D02*
Y0494564D01*
Y0500563D02*
X1263772Y0494564D01*
Y0500563D02*
Y0494564D01*
X1265715Y0498563D02*
X1265429Y0498277D01*
X1265715Y0497992D01*
X1266001Y0498277D01*
X1265715Y0498563D01*
Y0495135D02*
X1265429Y0494849D01*
X1265715Y0494564D01*
X1266001Y0494849D01*
X1265715Y0495135D01*
X1332396Y0329363D02*
Y0323364D01*
Y0329363D02*
X1334967D01*
X1335824Y0329077D01*
X1336110Y0328791D01*
X1336395Y0328220D01*
Y0327649D01*
X1336110Y0327077D01*
X1335824Y0326792D01*
X1334967Y0326506D01*
X1332396D01*
X1334396D02*
X1336395Y0323364D01*
X1339166Y0327363D02*
X1338595Y0327077D01*
X1338024Y0326506D01*
X1337738Y0325649D01*
Y0325078D01*
X1338024Y0324221D01*
X1338595Y0323650D01*
X1339166Y0323364D01*
X1340023D01*
X1340595Y0323650D01*
X1341166Y0324221D01*
X1341451Y0325078D01*
Y0325649D01*
X1341166Y0326506D01*
X1340595Y0327077D01*
X1340023Y0327363D01*
X1339166D01*
X1342766Y0329363D02*
Y0323364D01*
X1346765Y0329363D02*
Y0323364D01*
X1342766Y0326506D02*
X1346765D01*
X1352421Y0328506D02*
X1351849Y0329077D01*
X1350992Y0329363D01*
X1349850D01*
X1348993Y0329077D01*
X1348421Y0328506D01*
Y0327934D01*
X1348707Y0327363D01*
X1348993Y0327077D01*
X1349564Y0326792D01*
X1351278Y0326220D01*
X1351849Y0325935D01*
X1352135Y0325649D01*
X1352421Y0325078D01*
Y0324221D01*
X1351849Y0323650D01*
X1350992Y0323364D01*
X1349850D01*
X1348993Y0323650D01*
X1348421Y0324221D01*
X1209623Y0720499D02*
Y0714501D01*
Y0720499D02*
X1211908Y0714501D01*
X1214193Y0720499D02*
X1211908Y0714501D01*
X1214193Y0720499D02*
Y0714501D01*
X1215907Y0720499D02*
Y0714501D01*
X1217164Y0720499D02*
Y0714501D01*
Y0720499D02*
X1221163Y0714501D01*
Y0720499D02*
Y0714501D01*
X1222820Y0720499D02*
Y0714501D01*
X1224077Y0720499D02*
Y0714501D01*
Y0720499D02*
X1226362Y0714501D01*
X1228647Y0720499D02*
X1226362Y0714501D01*
X1228647Y0720499D02*
Y0714501D01*
X1230361Y0720499D02*
Y0716214D01*
X1230647Y0715357D01*
X1231218Y0714786D01*
X1232075Y0714501D01*
X1232646D01*
X1233503Y0714786D01*
X1234075Y0715357D01*
X1234360Y0716214D01*
Y0720499D01*
X1236017D02*
Y0714501D01*
Y0720499D02*
X1238302Y0714501D01*
X1240588Y0720499D02*
X1238302Y0714501D01*
X1240588Y0720499D02*
Y0714501D01*
X1251585D02*
X1249300Y0720499D01*
X1247015Y0714501D01*
X1247872Y0716500D02*
X1250728D01*
X1252985Y0720499D02*
Y0714501D01*
Y0720499D02*
X1256984Y0714501D01*
Y0720499D02*
Y0714501D01*
X1258641Y0720499D02*
Y0714501D01*
Y0720499D02*
X1262640Y0714501D01*
Y0720499D02*
Y0714501D01*
X1264297Y0720499D02*
Y0716214D01*
X1264583Y0715357D01*
X1265154Y0714786D01*
X1266011Y0714501D01*
X1266582D01*
X1267439Y0714786D01*
X1268010Y0715357D01*
X1268296Y0716214D01*
Y0720499D01*
X1269953D02*
Y0714501D01*
X1273381D01*
X1278608D02*
X1276323Y0720499D01*
X1274038Y0714501D01*
X1274895Y0716500D02*
X1277751D01*
X1280008Y0720499D02*
Y0714501D01*
Y0720499D02*
X1282579D01*
X1283436Y0720214D01*
X1283721Y0719928D01*
X1284007Y0719357D01*
Y0718785D01*
X1283721Y0718214D01*
X1283436Y0717928D01*
X1282579Y0717643D01*
X1280008D01*
X1282007D02*
X1284007Y0714501D01*
X1290063Y0720499D02*
Y0714501D01*
Y0720499D02*
X1292634D01*
X1293491Y0720214D01*
X1293776Y0719928D01*
X1294062Y0719357D01*
Y0718785D01*
X1293776Y0718214D01*
X1293491Y0717928D01*
X1292634Y0717643D01*
X1290063D01*
X1292062D02*
X1294062Y0714501D01*
X1295404Y0720499D02*
Y0714501D01*
X1296661Y0720499D02*
Y0714501D01*
Y0720499D02*
X1300660Y0714501D01*
Y0720499D02*
Y0714501D01*
X1306602Y0719071D02*
X1306316Y0719642D01*
X1305745Y0720214D01*
X1305174Y0720499D01*
X1304031D01*
X1303460Y0720214D01*
X1302888Y0719642D01*
X1302603Y0719071D01*
X1302317Y0718214D01*
Y0716786D01*
X1302603Y0715929D01*
X1302888Y0715357D01*
X1303460Y0714786D01*
X1304031Y0714501D01*
X1305174D01*
X1305745Y0714786D01*
X1306316Y0715357D01*
X1306602Y0715929D01*
Y0716786D01*
X1305174D02*
X1306602D01*
X1209623Y0696899D02*
Y0690900D01*
Y0696899D02*
X1212194D01*
X1213051Y0696613D01*
X1213336Y0696327D01*
X1213622Y0695756D01*
Y0695185D01*
X1213336Y0694614D01*
X1213051Y0694328D01*
X1212194Y0694042D01*
X1209623D01*
X1211622D02*
X1213622Y0690900D01*
X1218678Y0696899D02*
X1214964D01*
Y0690900D01*
X1218678D01*
X1214964Y0694042D02*
X1217250D01*
X1223963Y0695471D02*
X1223677Y0696042D01*
X1223106Y0696613D01*
X1222534Y0696899D01*
X1221392D01*
X1220820Y0696613D01*
X1220249Y0696042D01*
X1219963Y0695471D01*
X1219678Y0694614D01*
Y0693185D01*
X1219963Y0692328D01*
X1220249Y0691757D01*
X1220820Y0691186D01*
X1221392Y0690900D01*
X1222534D01*
X1223106Y0691186D01*
X1223677Y0691757D01*
X1223963Y0692328D01*
Y0693185D01*
X1222534D02*
X1223963D01*
X1225334Y0696899D02*
Y0690900D01*
X1230590Y0696042D02*
X1230018Y0696613D01*
X1229161Y0696899D01*
X1228019D01*
X1227162Y0696613D01*
X1226591Y0696042D01*
Y0695471D01*
X1226876Y0694899D01*
X1227162Y0694614D01*
X1227733Y0694328D01*
X1229447Y0693757D01*
X1230018Y0693471D01*
X1230304Y0693185D01*
X1230590Y0692614D01*
Y0691757D01*
X1230018Y0691186D01*
X1229161Y0690900D01*
X1228019D01*
X1227162Y0691186D01*
X1226591Y0691757D01*
X1233932Y0696899D02*
Y0690900D01*
X1231932Y0696899D02*
X1235931D01*
X1236646D02*
Y0690900D01*
Y0696899D02*
X1239217D01*
X1240073Y0696613D01*
X1240359Y0696327D01*
X1240645Y0695756D01*
Y0695185D01*
X1240359Y0694614D01*
X1240073Y0694328D01*
X1239217Y0694042D01*
X1236646D01*
X1238645D02*
X1240645Y0690900D01*
X1246558D02*
X1244273Y0696899D01*
X1241987Y0690900D01*
X1242844Y0692900D02*
X1245701D01*
X1249957Y0696899D02*
Y0690900D01*
X1247957Y0696899D02*
X1251957D01*
X1252671D02*
Y0690900D01*
X1255641Y0696899D02*
X1255070Y0696613D01*
X1254499Y0696042D01*
X1254213Y0695471D01*
X1253928Y0694614D01*
Y0693185D01*
X1254213Y0692328D01*
X1254499Y0691757D01*
X1255070Y0691186D01*
X1255641Y0690900D01*
X1256784D01*
X1257355Y0691186D01*
X1257927Y0691757D01*
X1258212Y0692328D01*
X1258498Y0693185D01*
Y0694614D01*
X1258212Y0695471D01*
X1257927Y0696042D01*
X1257355Y0696613D01*
X1256784Y0696899D01*
X1255641D01*
X1259898D02*
Y0690900D01*
Y0696899D02*
X1263897Y0690900D01*
Y0696899D02*
Y0690900D01*
X1272266Y0696899D02*
Y0690900D01*
X1270267Y0696899D02*
X1274266D01*
X1276694D02*
X1276123Y0696613D01*
X1275552Y0696042D01*
X1275266Y0695471D01*
X1274980Y0694614D01*
Y0693185D01*
X1275266Y0692328D01*
X1275552Y0691757D01*
X1276123Y0691186D01*
X1276694Y0690900D01*
X1277837D01*
X1278408Y0691186D01*
X1278979Y0691757D01*
X1279265Y0692328D01*
X1279551Y0693185D01*
Y0694614D01*
X1279265Y0695471D01*
X1278979Y0696042D01*
X1278408Y0696613D01*
X1277837Y0696899D01*
X1276694D01*
X1280950D02*
Y0690900D01*
X1284378D01*
X1288749Y0696899D02*
X1285035D01*
Y0690900D01*
X1288749D01*
X1285035Y0694042D02*
X1287320D01*
X1289748Y0696899D02*
Y0690900D01*
Y0696899D02*
X1292319D01*
X1293176Y0696613D01*
X1293462Y0696327D01*
X1293748Y0695756D01*
Y0695185D01*
X1293462Y0694614D01*
X1293176Y0694328D01*
X1292319Y0694042D01*
X1289748D01*
X1291748D02*
X1293748Y0690900D01*
X1299661D02*
X1297375Y0696899D01*
X1295090Y0690900D01*
X1295947Y0692900D02*
X1298804D01*
X1301060Y0696899D02*
Y0690900D01*
Y0696899D02*
X1305060Y0690900D01*
Y0696899D02*
Y0690900D01*
X1311001Y0695471D02*
X1310715Y0696042D01*
X1310144Y0696613D01*
X1309573Y0696899D01*
X1308430D01*
X1307859Y0696613D01*
X1307288Y0696042D01*
X1307002Y0695471D01*
X1306716Y0694614D01*
Y0693185D01*
X1307002Y0692328D01*
X1307288Y0691757D01*
X1307859Y0691186D01*
X1308430Y0690900D01*
X1309573D01*
X1310144Y0691186D01*
X1310715Y0691757D01*
X1311001Y0692328D01*
X1316400Y0696899D02*
X1312686D01*
Y0690900D01*
X1316400D01*
X1312686Y0694042D02*
X1314972D01*
X1321399Y0696042D02*
X1320828Y0696613D01*
X1319971Y0696899D01*
X1318828D01*
X1317971Y0696613D01*
X1317400Y0696042D01*
Y0695471D01*
X1317685Y0694899D01*
X1317971Y0694614D01*
X1318542Y0694328D01*
X1320256Y0693757D01*
X1320828Y0693471D01*
X1321113Y0693185D01*
X1321399Y0692614D01*
Y0691757D01*
X1320828Y0691186D01*
X1319971Y0690900D01*
X1318828D01*
X1317971Y0691186D01*
X1317400Y0691757D01*
X1323027Y0694899D02*
X1322741Y0694614D01*
X1323027Y0694328D01*
X1323313Y0694614D01*
X1323027Y0694899D01*
Y0691471D02*
X1322741Y0691186D01*
X1323027Y0690900D01*
X1323313Y0691186D01*
X1323027Y0691471D01*
X1211622Y0632563D02*
Y0626564D01*
X1209623Y0632563D02*
X1213622D01*
X1214336D02*
Y0626564D01*
X1218335Y0632563D02*
Y0626564D01*
X1214336Y0629706D02*
X1218335D01*
X1219992Y0632563D02*
Y0626564D01*
X1225534Y0631134D02*
X1225248Y0631706D01*
X1224677Y0632277D01*
X1224105Y0632563D01*
X1222963D01*
X1222392Y0632277D01*
X1221820Y0631706D01*
X1221535Y0631134D01*
X1221249Y0630277D01*
Y0628849D01*
X1221535Y0627992D01*
X1221820Y0627421D01*
X1222392Y0626850D01*
X1222963Y0626564D01*
X1224105D01*
X1224677Y0626850D01*
X1225248Y0627421D01*
X1225534Y0627992D01*
X1227219Y0632563D02*
Y0626564D01*
X1231218Y0632563D02*
X1227219Y0628563D01*
X1228647Y0629992D02*
X1231218Y0626564D01*
X1232561Y0632563D02*
Y0626564D01*
Y0632563D02*
X1236560Y0626564D01*
Y0632563D02*
Y0626564D01*
X1241930Y0632563D02*
X1238217D01*
Y0626564D01*
X1241930D01*
X1238217Y0629706D02*
X1240502D01*
X1246929Y0631706D02*
X1246358Y0632277D01*
X1245501Y0632563D01*
X1244358D01*
X1243501Y0632277D01*
X1242930Y0631706D01*
Y0631134D01*
X1243216Y0630563D01*
X1243501Y0630277D01*
X1244073Y0629992D01*
X1245786Y0629420D01*
X1246358Y0629135D01*
X1246643Y0628849D01*
X1246929Y0628278D01*
Y0627421D01*
X1246358Y0626850D01*
X1245501Y0626564D01*
X1244358D01*
X1243501Y0626850D01*
X1242930Y0627421D01*
X1252271Y0631706D02*
X1251700Y0632277D01*
X1250842Y0632563D01*
X1249700D01*
X1248843Y0632277D01*
X1248272Y0631706D01*
Y0631134D01*
X1248557Y0630563D01*
X1248843Y0630277D01*
X1249414Y0629992D01*
X1251128Y0629420D01*
X1251700Y0629135D01*
X1251985Y0628849D01*
X1252271Y0628278D01*
Y0627421D01*
X1251700Y0626850D01*
X1250842Y0626564D01*
X1249700D01*
X1248843Y0626850D01*
X1248272Y0627421D01*
X1253899Y0630563D02*
X1253613Y0630277D01*
X1253899Y0629992D01*
X1254185Y0630277D01*
X1253899Y0630563D01*
Y0627135D02*
X1253613Y0626850D01*
X1253899Y0626564D01*
X1254185Y0626850D01*
X1253899Y0627135D01*
X1211622Y0616763D02*
Y0610764D01*
X1209623Y0616763D02*
X1213622D01*
X1216050D02*
X1215479Y0616477D01*
X1214907Y0615906D01*
X1214622Y0615334D01*
X1214336Y0614477D01*
Y0613049D01*
X1214622Y0612192D01*
X1214907Y0611621D01*
X1215479Y0611050D01*
X1216050Y0610764D01*
X1217193D01*
X1217764Y0611050D01*
X1218335Y0611621D01*
X1218621Y0612192D01*
X1218906Y0613049D01*
Y0614477D01*
X1218621Y0615334D01*
X1218335Y0615906D01*
X1217764Y0616477D01*
X1217193Y0616763D01*
X1216050D01*
X1220306D02*
Y0610764D01*
X1223734D01*
X1228105Y0616763D02*
X1224391D01*
Y0610764D01*
X1228105D01*
X1224391Y0613906D02*
X1226676D01*
X1229104Y0616763D02*
Y0610764D01*
Y0616763D02*
X1231675D01*
X1232532Y0616477D01*
X1232818Y0616191D01*
X1233103Y0615620D01*
Y0615049D01*
X1232818Y0614477D01*
X1232532Y0614192D01*
X1231675Y0613906D01*
X1229104D01*
X1231104D02*
X1233103Y0610764D01*
X1239017D02*
X1236731Y0616763D01*
X1234446Y0610764D01*
X1235303Y0612763D02*
X1238159D01*
X1240416Y0616763D02*
Y0610764D01*
Y0616763D02*
X1244415Y0610764D01*
Y0616763D02*
Y0610764D01*
X1250357Y0615334D02*
X1250071Y0615906D01*
X1249500Y0616477D01*
X1248929Y0616763D01*
X1247786D01*
X1247215Y0616477D01*
X1246643Y0615906D01*
X1246358Y0615334D01*
X1246072Y0614477D01*
Y0613049D01*
X1246358Y0612192D01*
X1246643Y0611621D01*
X1247215Y0611050D01*
X1247786Y0610764D01*
X1248929D01*
X1249500Y0611050D01*
X1250071Y0611621D01*
X1250357Y0612192D01*
X1255756Y0616763D02*
X1252042D01*
Y0610764D01*
X1255756D01*
X1252042Y0613906D02*
X1254327D01*
X1257041Y0614763D02*
X1256756Y0614477D01*
X1257041Y0614192D01*
X1257327Y0614477D01*
X1257041Y0614763D01*
Y0611335D02*
X1256756Y0611050D01*
X1257041Y0610764D01*
X1257327Y0611050D01*
X1257041Y0611335D01*
X1209623Y0585463D02*
Y0579464D01*
Y0585463D02*
X1212194D01*
X1213051Y0585177D01*
X1213336Y0584891D01*
X1213622Y0584320D01*
Y0583749D01*
X1213336Y0583177D01*
X1213051Y0582892D01*
X1212194Y0582606D01*
X1209623D02*
X1212194D01*
X1213051Y0582320D01*
X1213336Y0582035D01*
X1213622Y0581463D01*
Y0580607D01*
X1213336Y0580035D01*
X1213051Y0579749D01*
X1212194Y0579464D01*
X1209623D01*
X1216678Y0585463D02*
X1216107Y0585177D01*
X1215536Y0584606D01*
X1215250Y0584034D01*
X1214964Y0583177D01*
Y0581749D01*
X1215250Y0580892D01*
X1215536Y0580321D01*
X1216107Y0579749D01*
X1216678Y0579464D01*
X1217821D01*
X1218392Y0579749D01*
X1218964Y0580321D01*
X1219249Y0580892D01*
X1219535Y0581749D01*
Y0583177D01*
X1219249Y0584034D01*
X1218964Y0584606D01*
X1218392Y0585177D01*
X1217821Y0585463D01*
X1216678D01*
X1220935D02*
X1222363Y0579464D01*
X1223791Y0585463D02*
X1222363Y0579464D01*
X1223791Y0585463D02*
X1225220Y0579464D01*
X1226648Y0585463D02*
X1225220Y0579464D01*
X1237702Y0583177D02*
X1237417Y0582892D01*
X1237702Y0582606D01*
X1237988Y0582892D01*
Y0583177D01*
X1237702Y0583463D01*
X1237417D01*
X1237131Y0583177D01*
X1236845Y0582606D01*
X1236274Y0581178D01*
X1235703Y0580321D01*
X1235132Y0579749D01*
X1234560Y0579464D01*
X1233703D01*
X1232846Y0579749D01*
X1232561Y0580321D01*
Y0581178D01*
X1232846Y0581749D01*
X1234560Y0582892D01*
X1235132Y0583463D01*
X1235417Y0584034D01*
Y0584606D01*
X1235132Y0585177D01*
X1234560Y0585463D01*
X1233989Y0585177D01*
X1233703Y0584606D01*
Y0584034D01*
X1233989Y0583177D01*
X1234560Y0582320D01*
X1235989Y0580321D01*
X1236560Y0579749D01*
X1237417Y0579464D01*
X1237702D01*
X1237988Y0579749D01*
Y0580035D01*
X1233703Y0579464D02*
X1233132Y0579749D01*
X1232846Y0580321D01*
Y0581178D01*
X1233132Y0581749D01*
X1233703Y0582320D01*
Y0584034D02*
X1233989Y0583463D01*
X1236274Y0580321D01*
X1236845Y0579749D01*
X1237417Y0579464D01*
X1246186Y0585463D02*
Y0579464D01*
X1244187Y0585463D02*
X1248186D01*
X1248900D02*
X1250328Y0579464D01*
X1251757Y0585463D02*
X1250328Y0579464D01*
X1251757Y0585463D02*
X1253185Y0579464D01*
X1254613Y0585463D02*
X1253185Y0579464D01*
X1255813Y0585463D02*
Y0579464D01*
X1261069Y0584606D02*
X1260498Y0585177D01*
X1259641Y0585463D01*
X1258498D01*
X1257641Y0585177D01*
X1257070Y0584606D01*
Y0584034D01*
X1257355Y0583463D01*
X1257641Y0583177D01*
X1258212Y0582892D01*
X1259926Y0582320D01*
X1260498Y0582035D01*
X1260783Y0581749D01*
X1261069Y0581178D01*
Y0580321D01*
X1260498Y0579749D01*
X1259641Y0579464D01*
X1258498D01*
X1257641Y0579749D01*
X1257070Y0580321D01*
X1264411Y0585463D02*
Y0579464D01*
X1262411Y0585463D02*
X1266411D01*
X1267410Y0583463D02*
X1267125Y0583177D01*
X1267410Y0582892D01*
X1267696Y0583177D01*
X1267410Y0583463D01*
Y0580035D02*
X1267125Y0579749D01*
X1267410Y0579464D01*
X1267696Y0579749D01*
X1267410Y0580035D01*
X1313760Y0720928D02*
X1312903Y0720642D01*
X1312332Y0719785D01*
X1312046Y0718357D01*
Y0717500D01*
X1312332Y0716072D01*
X1312903Y0715215D01*
X1313760Y0714929D01*
X1314331D01*
X1315188Y0715215D01*
X1315759Y0716072D01*
X1316045Y0717500D01*
Y0718357D01*
X1315759Y0719785D01*
X1315188Y0720642D01*
X1314331Y0720928D01*
X1313760D01*
X1317673Y0715500D02*
X1317388Y0715215D01*
X1317673Y0714929D01*
X1317959Y0715215D01*
X1317673Y0715500D01*
X1320987Y0720928D02*
X1320130Y0720642D01*
X1319559Y0719785D01*
X1319273Y0718357D01*
Y0717500D01*
X1319559Y0716072D01*
X1320130Y0715215D01*
X1320987Y0714929D01*
X1321558D01*
X1322415Y0715215D01*
X1322987Y0716072D01*
X1323272Y0717500D01*
Y0718357D01*
X1322987Y0719785D01*
X1322415Y0720642D01*
X1321558Y0720928D01*
X1320987D01*
X1328043D02*
X1325186D01*
X1324900Y0718357D01*
X1325186Y0718642D01*
X1326043Y0718928D01*
X1326900D01*
X1327757Y0718642D01*
X1328328Y0718071D01*
X1328614Y0717214D01*
Y0716643D01*
X1328328Y0715786D01*
X1327757Y0715215D01*
X1326900Y0714929D01*
X1326043D01*
X1325186Y0715215D01*
X1324900Y0715500D01*
X1324615Y0716072D01*
X1329956Y0718928D02*
Y0714929D01*
Y0717786D02*
X1330813Y0718642D01*
X1331385Y0718928D01*
X1332242D01*
X1332813Y0718642D01*
X1333099Y0717786D01*
Y0714929D01*
Y0717786D02*
X1333955Y0718642D01*
X1334527Y0718928D01*
X1335384D01*
X1335955Y0718642D01*
X1336241Y0717786D01*
Y0714929D01*
X1338126Y0718928D02*
Y0714929D01*
Y0717786D02*
X1338983Y0718642D01*
X1339554Y0718928D01*
X1340411D01*
X1340983Y0718642D01*
X1341268Y0717786D01*
Y0714929D01*
Y0717786D02*
X1342125Y0718642D01*
X1342696Y0718928D01*
X1343554D01*
X1344125Y0718642D01*
X1344410Y0717786D01*
Y0714929D01*
X1353009Y0722070D02*
X1352437Y0721499D01*
X1351866Y0720642D01*
X1351295Y0719499D01*
X1351009Y0718071D01*
Y0716928D01*
X1351295Y0715500D01*
X1351866Y0714358D01*
X1352437Y0713501D01*
X1353009Y0712929D01*
X1352437Y0721499D02*
X1351866Y0720356D01*
X1351580Y0719499D01*
X1351295Y0718071D01*
Y0716928D01*
X1351580Y0715500D01*
X1351866Y0714643D01*
X1352437Y0713501D01*
X1354437Y0719499D02*
Y0719785D01*
X1354722Y0720356D01*
X1355008Y0720642D01*
X1355579Y0720928D01*
X1356722D01*
X1357293Y0720642D01*
X1357579Y0720356D01*
X1357865Y0719785D01*
Y0719214D01*
X1357579Y0718642D01*
X1357008Y0717786D01*
X1354151Y0714929D01*
X1358150D01*
X1359493Y0720928D02*
Y0714929D01*
Y0720928D02*
X1361778Y0714929D01*
X1364063Y0720928D02*
X1361778Y0714929D01*
X1364063Y0720928D02*
Y0714929D01*
X1365777Y0720928D02*
Y0714929D01*
X1367034Y0720928D02*
Y0714929D01*
X1370462D01*
X1371119Y0722070D02*
X1371690Y0721499D01*
X1372262Y0720642D01*
X1372833Y0719499D01*
X1373119Y0718071D01*
Y0716928D01*
X1372833Y0715500D01*
X1372262Y0714358D01*
X1371690Y0713501D01*
X1371119Y0712929D01*
X1371690Y0721499D02*
X1372262Y0720356D01*
X1372547Y0719499D01*
X1372833Y0718071D01*
Y0716928D01*
X1372547Y0715500D01*
X1372262Y0714643D01*
X1371690Y0713501D01*
X1386559Y0720499D02*
X1382846D01*
Y0714501D01*
X1386559D01*
X1382846Y0717643D02*
X1385131D01*
X1387559Y0720499D02*
X1391558Y0714501D01*
Y0720499D02*
X1387559Y0714501D01*
X1394901Y0720499D02*
Y0714501D01*
X1392901Y0720499D02*
X1396900D01*
X1401328D02*
X1397614D01*
Y0714501D01*
X1401328D01*
X1397614Y0717643D02*
X1399899D01*
X1402328Y0720499D02*
Y0714501D01*
Y0720499D02*
X1404898D01*
X1405755Y0720214D01*
X1406041Y0719928D01*
X1406327Y0719357D01*
Y0718785D01*
X1406041Y0718214D01*
X1405755Y0717928D01*
X1404898Y0717643D01*
X1402328D01*
X1404327D02*
X1406327Y0714501D01*
X1407669Y0720499D02*
Y0714501D01*
Y0720499D02*
X1411668Y0714501D01*
Y0720499D02*
Y0714501D01*
X1417896D02*
X1415610Y0720499D01*
X1413325Y0714501D01*
X1414182Y0716500D02*
X1417039D01*
X1419295Y0720499D02*
Y0714501D01*
X1422723D01*
X1313960Y0601163D02*
X1313389Y0600877D01*
X1312817Y0600306D01*
X1312532Y0599734D01*
X1312246Y0598877D01*
Y0597449D01*
X1312532Y0596592D01*
X1312817Y0596021D01*
X1313389Y0595449D01*
X1313960Y0595164D01*
X1315102D01*
X1315674Y0595449D01*
X1316245Y0596021D01*
X1316531Y0596592D01*
X1316816Y0597449D01*
Y0598877D01*
X1316531Y0599734D01*
X1316245Y0600306D01*
X1315674Y0600877D01*
X1315102Y0601163D01*
X1313960D01*
X1320216D02*
Y0595164D01*
X1318216Y0601163D02*
X1322215D01*
X1322929D02*
Y0595164D01*
X1326929Y0601163D02*
Y0595164D01*
X1322929Y0598306D02*
X1326929D01*
X1332299Y0601163D02*
X1328585D01*
Y0595164D01*
X1332299D01*
X1328585Y0598306D02*
X1330871D01*
X1333299Y0601163D02*
Y0595164D01*
Y0601163D02*
X1335870D01*
X1336726Y0600877D01*
X1337012Y0600591D01*
X1337298Y0600020D01*
Y0599449D01*
X1337012Y0598877D01*
X1336726Y0598592D01*
X1335870Y0598306D01*
X1333299D01*
X1335298D02*
X1337298Y0595164D01*
X1345924Y0600306D02*
Y0595164D01*
X1343354Y0597735D02*
X1348495D01*
X1350266Y0594307D02*
X1354265Y0601163D01*
X1354665Y0597735D02*
X1359807D01*
X1209623Y0544063D02*
Y0538064D01*
Y0544063D02*
X1212194D01*
X1213051Y0543777D01*
X1213336Y0543491D01*
X1213622Y0542920D01*
Y0542349D01*
X1213336Y0541777D01*
X1213051Y0541492D01*
X1212194Y0541206D01*
X1209623D01*
X1211622D02*
X1213622Y0538064D01*
X1218678Y0544063D02*
X1214964D01*
Y0538064D01*
X1218678D01*
X1214964Y0541206D02*
X1217250D01*
X1219678Y0544063D02*
Y0538064D01*
Y0544063D02*
X1223391D01*
X1219678Y0541206D02*
X1221963D01*
X1227790Y0544063D02*
X1224077D01*
Y0538064D01*
X1227790D01*
X1224077Y0541206D02*
X1226362D01*
X1228790Y0544063D02*
Y0538064D01*
Y0544063D02*
X1231361D01*
X1232218Y0543777D01*
X1232504Y0543491D01*
X1232789Y0542920D01*
Y0542349D01*
X1232504Y0541777D01*
X1232218Y0541492D01*
X1231361Y0541206D01*
X1228790D01*
X1230790D02*
X1232789Y0538064D01*
X1237845Y0544063D02*
X1234132D01*
Y0538064D01*
X1237845D01*
X1234132Y0541206D02*
X1236417D01*
X1238845Y0544063D02*
Y0538064D01*
Y0544063D02*
X1242844Y0538064D01*
Y0544063D02*
Y0538064D01*
X1248786Y0542634D02*
X1248500Y0543206D01*
X1247929Y0543777D01*
X1247358Y0544063D01*
X1246215D01*
X1245644Y0543777D01*
X1245072Y0543206D01*
X1244787Y0542634D01*
X1244501Y0541777D01*
Y0540349D01*
X1244787Y0539492D01*
X1245072Y0538921D01*
X1245644Y0538349D01*
X1246215Y0538064D01*
X1247358D01*
X1247929Y0538349D01*
X1248500Y0538921D01*
X1248786Y0539492D01*
X1254185Y0544063D02*
X1250471D01*
Y0538064D01*
X1254185D01*
X1250471Y0541206D02*
X1252756D01*
X1255470Y0542063D02*
X1255184Y0541777D01*
X1255470Y0541492D01*
X1255756Y0541777D01*
X1255470Y0542063D01*
Y0538635D02*
X1255184Y0538349D01*
X1255470Y0538064D01*
X1255756Y0538349D01*
X1255470Y0538635D01*
X1221667Y0483006D02*
X1221096Y0483577D01*
X1220239Y0483863D01*
X1219096D01*
X1218239Y0483577D01*
X1217668Y0483006D01*
Y0482434D01*
X1217954Y0481863D01*
X1218239Y0481577D01*
X1218811Y0481292D01*
X1220525Y0480720D01*
X1221096Y0480435D01*
X1221382Y0480149D01*
X1221667Y0479578D01*
Y0478721D01*
X1221096Y0478150D01*
X1220239Y0477864D01*
X1219096D01*
X1218239Y0478150D01*
X1217668Y0478721D01*
X1223010Y0483863D02*
Y0477864D01*
X1224267Y0483863D02*
Y0477864D01*
X1227695D01*
X1228351Y0483863D02*
Y0477864D01*
X1232351Y0483863D02*
X1228351Y0479863D01*
X1229780Y0481292D02*
X1232351Y0477864D01*
X1237692Y0483006D02*
X1237121Y0483577D01*
X1236264Y0483863D01*
X1235122D01*
X1234265Y0483577D01*
X1233693Y0483006D01*
Y0482434D01*
X1233979Y0481863D01*
X1234265Y0481577D01*
X1234836Y0481292D01*
X1236550Y0480720D01*
X1237121Y0480435D01*
X1237407Y0480149D01*
X1237692Y0479578D01*
Y0478721D01*
X1237121Y0478150D01*
X1236264Y0477864D01*
X1235122D01*
X1234265Y0478150D01*
X1233693Y0478721D01*
X1243320Y0482434D02*
X1243034Y0483006D01*
X1242463Y0483577D01*
X1241891Y0483863D01*
X1240749D01*
X1240178Y0483577D01*
X1239606Y0483006D01*
X1239321Y0482434D01*
X1239035Y0481577D01*
Y0480149D01*
X1239321Y0479292D01*
X1239606Y0478721D01*
X1240178Y0478150D01*
X1240749Y0477864D01*
X1241891D01*
X1242463Y0478150D01*
X1243034Y0478721D01*
X1243320Y0479292D01*
X1245005Y0483863D02*
Y0477864D01*
Y0483863D02*
X1247576D01*
X1248433Y0483577D01*
X1248719Y0483291D01*
X1249004Y0482720D01*
Y0482149D01*
X1248719Y0481577D01*
X1248433Y0481292D01*
X1247576Y0481006D01*
X1245005D01*
X1247005D02*
X1249004Y0477864D01*
X1254060Y0483863D02*
X1250347D01*
Y0477864D01*
X1254060D01*
X1250347Y0481006D02*
X1252632D01*
X1258774Y0483863D02*
X1255060D01*
Y0477864D01*
X1258774D01*
X1255060Y0481006D02*
X1257345D01*
X1259773Y0483863D02*
Y0477864D01*
Y0483863D02*
X1263772Y0477864D01*
Y0483863D02*
Y0477864D01*
X1274427Y0482434D02*
X1274142Y0483006D01*
X1273570Y0483577D01*
X1272999Y0483863D01*
X1271856D01*
X1271285Y0483577D01*
X1270714Y0483006D01*
X1270428Y0482434D01*
X1270143Y0481577D01*
Y0480149D01*
X1270428Y0479292D01*
X1270714Y0478721D01*
X1271285Y0478150D01*
X1271856Y0477864D01*
X1272999D01*
X1273570Y0478150D01*
X1274142Y0478721D01*
X1274427Y0479292D01*
X1277827Y0483863D02*
X1277255Y0483577D01*
X1276684Y0483006D01*
X1276398Y0482434D01*
X1276113Y0481577D01*
Y0480149D01*
X1276398Y0479292D01*
X1276684Y0478721D01*
X1277255Y0478150D01*
X1277827Y0477864D01*
X1278969D01*
X1279541Y0478150D01*
X1280112Y0478721D01*
X1280398Y0479292D01*
X1280683Y0480149D01*
Y0481577D01*
X1280398Y0482434D01*
X1280112Y0483006D01*
X1279541Y0483577D01*
X1278969Y0483863D01*
X1277827D01*
X1282083D02*
Y0477864D01*
X1285511D01*
X1287882Y0483863D02*
X1287310Y0483577D01*
X1286739Y0483006D01*
X1286453Y0482434D01*
X1286168Y0481577D01*
Y0480149D01*
X1286453Y0479292D01*
X1286739Y0478721D01*
X1287310Y0478150D01*
X1287882Y0477864D01*
X1289024D01*
X1289596Y0478150D01*
X1290167Y0478721D01*
X1290452Y0479292D01*
X1290738Y0480149D01*
Y0481577D01*
X1290452Y0482434D01*
X1290167Y0483006D01*
X1289596Y0483577D01*
X1289024Y0483863D01*
X1287882D01*
X1292138D02*
Y0477864D01*
Y0483863D02*
X1294709D01*
X1295566Y0483577D01*
X1295851Y0483291D01*
X1296137Y0482720D01*
Y0482149D01*
X1295851Y0481577D01*
X1295566Y0481292D01*
X1294709Y0481006D01*
X1292138D01*
X1294137D02*
X1296137Y0477864D01*
X1297765Y0481863D02*
X1297480Y0481577D01*
X1297765Y0481292D01*
X1298051Y0481577D01*
X1297765Y0481863D01*
Y0478435D02*
X1297480Y0478150D01*
X1297765Y0477864D01*
X1298051Y0478150D01*
X1297765Y0478435D01*
X1221667Y0466006D02*
X1221096Y0466577D01*
X1220239Y0466863D01*
X1219096D01*
X1218239Y0466577D01*
X1217668Y0466006D01*
Y0465434D01*
X1217954Y0464863D01*
X1218239Y0464577D01*
X1218811Y0464292D01*
X1220525Y0463720D01*
X1221096Y0463435D01*
X1221382Y0463149D01*
X1221667Y0462578D01*
Y0461721D01*
X1221096Y0461150D01*
X1220239Y0460864D01*
X1219096D01*
X1218239Y0461150D01*
X1217668Y0461721D01*
X1224724Y0466863D02*
X1224152Y0466577D01*
X1223581Y0466006D01*
X1223295Y0465434D01*
X1223010Y0464577D01*
Y0463149D01*
X1223295Y0462292D01*
X1223581Y0461721D01*
X1224152Y0461150D01*
X1224724Y0460864D01*
X1225866D01*
X1226438Y0461150D01*
X1227009Y0461721D01*
X1227295Y0462292D01*
X1227580Y0463149D01*
Y0464577D01*
X1227295Y0465434D01*
X1227009Y0466006D01*
X1226438Y0466577D01*
X1225866Y0466863D01*
X1224724D01*
X1228980D02*
Y0460864D01*
X1232408D01*
X1233065Y0466863D02*
Y0460864D01*
Y0466863D02*
X1235064D01*
X1235921Y0466577D01*
X1236493Y0466006D01*
X1236778Y0465434D01*
X1237064Y0464577D01*
Y0463149D01*
X1236778Y0462292D01*
X1236493Y0461721D01*
X1235921Y0461150D01*
X1235064Y0460864D01*
X1233065D01*
X1242120Y0466863D02*
X1238406D01*
Y0460864D01*
X1242120D01*
X1238406Y0464006D02*
X1240692D01*
X1243120Y0466863D02*
Y0460864D01*
Y0466863D02*
X1245691D01*
X1246548Y0466577D01*
X1246833Y0466291D01*
X1247119Y0465720D01*
Y0465149D01*
X1246833Y0464577D01*
X1246548Y0464292D01*
X1245691Y0464006D01*
X1243120D01*
X1245119D02*
X1247119Y0460864D01*
X1253175Y0466863D02*
Y0460864D01*
Y0466863D02*
X1255746D01*
X1256603Y0466577D01*
X1256888Y0466291D01*
X1257174Y0465720D01*
Y0465149D01*
X1256888Y0464577D01*
X1256603Y0464292D01*
X1255746Y0464006D01*
X1253175D01*
X1255174D02*
X1257174Y0460864D01*
X1262230Y0466863D02*
X1258517D01*
Y0460864D01*
X1262230D01*
X1258517Y0464006D02*
X1260802D01*
X1267229Y0466006D02*
X1266658Y0466577D01*
X1265801Y0466863D01*
X1264658D01*
X1263801Y0466577D01*
X1263230Y0466006D01*
Y0465434D01*
X1263515Y0464863D01*
X1263801Y0464577D01*
X1264372Y0464292D01*
X1266086Y0463720D01*
X1266658Y0463435D01*
X1266943Y0463149D01*
X1267229Y0462578D01*
Y0461721D01*
X1266658Y0461150D01*
X1265801Y0460864D01*
X1264658D01*
X1263801Y0461150D01*
X1263230Y0461721D01*
X1268571Y0466863D02*
Y0460864D01*
X1273827Y0466006D02*
X1273256Y0466577D01*
X1272399Y0466863D01*
X1271257D01*
X1270400Y0466577D01*
X1269828Y0466006D01*
Y0465434D01*
X1270114Y0464863D01*
X1270400Y0464577D01*
X1270971Y0464292D01*
X1272685Y0463720D01*
X1273256Y0463435D01*
X1273542Y0463149D01*
X1273827Y0462578D01*
Y0461721D01*
X1273256Y0461150D01*
X1272399Y0460864D01*
X1271257D01*
X1270400Y0461150D01*
X1269828Y0461721D01*
X1277170Y0466863D02*
Y0460864D01*
X1275170Y0466863D02*
X1279169D01*
X1288881Y0465434D02*
X1288596Y0466006D01*
X1288025Y0466577D01*
X1287453Y0466863D01*
X1286310D01*
X1285739Y0466577D01*
X1285168Y0466006D01*
X1284882Y0465434D01*
X1284597Y0464577D01*
Y0463149D01*
X1284882Y0462292D01*
X1285168Y0461721D01*
X1285739Y0461150D01*
X1286310Y0460864D01*
X1287453D01*
X1288025Y0461150D01*
X1288596Y0461721D01*
X1288881Y0462292D01*
X1292281Y0466863D02*
X1291709Y0466577D01*
X1291138Y0466006D01*
X1290852Y0465434D01*
X1290567Y0464577D01*
Y0463149D01*
X1290852Y0462292D01*
X1291138Y0461721D01*
X1291709Y0461150D01*
X1292281Y0460864D01*
X1293423D01*
X1293995Y0461150D01*
X1294566Y0461721D01*
X1294852Y0462292D01*
X1295137Y0463149D01*
Y0464577D01*
X1294852Y0465434D01*
X1294566Y0466006D01*
X1293995Y0466577D01*
X1293423Y0466863D01*
X1292281D01*
X1296537D02*
Y0460864D01*
X1299965D01*
X1302336Y0466863D02*
X1301764Y0466577D01*
X1301193Y0466006D01*
X1300907Y0465434D01*
X1300622Y0464577D01*
Y0463149D01*
X1300907Y0462292D01*
X1301193Y0461721D01*
X1301764Y0461150D01*
X1302336Y0460864D01*
X1303478D01*
X1304050Y0461150D01*
X1304621Y0461721D01*
X1304907Y0462292D01*
X1305192Y0463149D01*
Y0464577D01*
X1304907Y0465434D01*
X1304621Y0466006D01*
X1304050Y0466577D01*
X1303478Y0466863D01*
X1302336D01*
X1306592D02*
Y0460864D01*
Y0466863D02*
X1309163D01*
X1310020Y0466577D01*
X1310305Y0466291D01*
X1310591Y0465720D01*
Y0465149D01*
X1310305Y0464577D01*
X1310020Y0464292D01*
X1309163Y0464006D01*
X1306592D01*
X1308591D02*
X1310591Y0460864D01*
X1312219Y0464863D02*
X1311934Y0464577D01*
X1312219Y0464292D01*
X1312505Y0464577D01*
X1312219Y0464863D01*
Y0461435D02*
X1311934Y0461150D01*
X1312219Y0460864D01*
X1312505Y0461150D01*
X1312219Y0461435D01*
X1209623Y0271963D02*
Y0265964D01*
Y0271963D02*
X1211908Y0265964D01*
X1214193Y0271963D02*
X1211908Y0265964D01*
X1214193Y0271963D02*
Y0265964D01*
X1215907Y0271963D02*
Y0265964D01*
X1221449Y0270534D02*
X1221163Y0271106D01*
X1220592Y0271677D01*
X1220021Y0271963D01*
X1218878D01*
X1218307Y0271677D01*
X1217735Y0271106D01*
X1217450Y0270534D01*
X1217164Y0269677D01*
Y0268249D01*
X1217450Y0267392D01*
X1217735Y0266821D01*
X1218307Y0266249D01*
X1218878Y0265964D01*
X1220021D01*
X1220592Y0266249D01*
X1221163Y0266821D01*
X1221449Y0267392D01*
X1223134Y0271963D02*
Y0265964D01*
Y0271963D02*
X1225705D01*
X1226562Y0271677D01*
X1226848Y0271391D01*
X1227133Y0270820D01*
Y0270249D01*
X1226848Y0269677D01*
X1226562Y0269392D01*
X1225705Y0269106D01*
X1223134D01*
X1225134D02*
X1227133Y0265964D01*
X1230190Y0271963D02*
X1229618Y0271677D01*
X1229047Y0271106D01*
X1228761Y0270534D01*
X1228476Y0269677D01*
Y0268249D01*
X1228761Y0267392D01*
X1229047Y0266821D01*
X1229618Y0266249D01*
X1230190Y0265964D01*
X1231332D01*
X1231904Y0266249D01*
X1232475Y0266821D01*
X1232761Y0267392D01*
X1233046Y0268249D01*
Y0269677D01*
X1232761Y0270534D01*
X1232475Y0271106D01*
X1231904Y0271677D01*
X1231332Y0271963D01*
X1230190D01*
X1238445Y0271106D02*
X1237874Y0271677D01*
X1237017Y0271963D01*
X1235874D01*
X1235017Y0271677D01*
X1234446Y0271106D01*
Y0270534D01*
X1234732Y0269963D01*
X1235017Y0269677D01*
X1235589Y0269392D01*
X1237303Y0268820D01*
X1237874Y0268535D01*
X1238159Y0268249D01*
X1238445Y0267678D01*
Y0266821D01*
X1237874Y0266249D01*
X1237017Y0265964D01*
X1235874D01*
X1235017Y0266249D01*
X1234446Y0266821D01*
X1243501Y0271963D02*
X1239788D01*
Y0265964D01*
X1243501D01*
X1239788Y0269106D02*
X1242073D01*
X1248786Y0270534D02*
X1248500Y0271106D01*
X1247929Y0271677D01*
X1247358Y0271963D01*
X1246215D01*
X1245644Y0271677D01*
X1245072Y0271106D01*
X1244787Y0270534D01*
X1244501Y0269677D01*
Y0268249D01*
X1244787Y0267392D01*
X1245072Y0266821D01*
X1245644Y0266249D01*
X1246215Y0265964D01*
X1247358D01*
X1247929Y0266249D01*
X1248500Y0266821D01*
X1248786Y0267392D01*
X1252471Y0271963D02*
Y0265964D01*
X1250471Y0271963D02*
X1254470D01*
X1255184D02*
Y0265964D01*
X1258155Y0271963D02*
X1257584Y0271677D01*
X1257013Y0271106D01*
X1256727Y0270534D01*
X1256441Y0269677D01*
Y0268249D01*
X1256727Y0267392D01*
X1257013Y0266821D01*
X1257584Y0266249D01*
X1258155Y0265964D01*
X1259298D01*
X1259869Y0266249D01*
X1260441Y0266821D01*
X1260726Y0267392D01*
X1261012Y0268249D01*
Y0269677D01*
X1260726Y0270534D01*
X1260441Y0271106D01*
X1259869Y0271677D01*
X1259298Y0271963D01*
X1258155D01*
X1262411D02*
Y0265964D01*
Y0271963D02*
X1266411Y0265964D01*
Y0271963D02*
Y0265964D01*
X1268353Y0269963D02*
X1268067Y0269677D01*
X1268353Y0269392D01*
X1268639Y0269677D01*
X1268353Y0269963D01*
Y0266535D02*
X1268067Y0266249D01*
X1268353Y0265964D01*
X1268639Y0266249D01*
X1268353Y0266535D01*
X1209623Y0256063D02*
Y0250064D01*
Y0256063D02*
X1212194D01*
X1213051Y0255777D01*
X1213336Y0255491D01*
X1213622Y0254920D01*
Y0254349D01*
X1213336Y0253777D01*
X1213051Y0253492D01*
X1212194Y0253206D01*
X1209623D02*
X1212194D01*
X1213051Y0252920D01*
X1213336Y0252635D01*
X1213622Y0252063D01*
Y0251206D01*
X1213336Y0250635D01*
X1213051Y0250349D01*
X1212194Y0250064D01*
X1209623D01*
X1219535D02*
X1217250Y0256063D01*
X1214964Y0250064D01*
X1215821Y0252063D02*
X1218678D01*
X1220935Y0256063D02*
Y0250064D01*
Y0256063D02*
X1223505D01*
X1224362Y0255777D01*
X1224648Y0255491D01*
X1224934Y0254920D01*
Y0254349D01*
X1224648Y0253777D01*
X1224362Y0253492D01*
X1223505Y0253206D01*
X1220935D01*
X1222934D02*
X1224934Y0250064D01*
X1229990Y0256063D02*
X1226276D01*
Y0250064D01*
X1229990D01*
X1226276Y0253206D02*
X1228562D01*
X1235703Y0256063D02*
Y0250064D01*
Y0256063D02*
X1238274D01*
X1239131Y0255777D01*
X1239416Y0255491D01*
X1239702Y0254920D01*
Y0254349D01*
X1239416Y0253777D01*
X1239131Y0253492D01*
X1238274Y0253206D01*
X1235703D02*
X1238274D01*
X1239131Y0252920D01*
X1239416Y0252635D01*
X1239702Y0252063D01*
Y0251206D01*
X1239416Y0250635D01*
X1239131Y0250349D01*
X1238274Y0250064D01*
X1235703D01*
X1242759Y0256063D02*
X1242187Y0255777D01*
X1241616Y0255206D01*
X1241330Y0254634D01*
X1241045Y0253777D01*
Y0252349D01*
X1241330Y0251492D01*
X1241616Y0250921D01*
X1242187Y0250349D01*
X1242759Y0250064D01*
X1243901D01*
X1244473Y0250349D01*
X1245044Y0250921D01*
X1245329Y0251492D01*
X1245615Y0252349D01*
Y0253777D01*
X1245329Y0254634D01*
X1245044Y0255206D01*
X1244473Y0255777D01*
X1243901Y0256063D01*
X1242759D01*
X1251585Y0250064D02*
X1249300Y0256063D01*
X1247015Y0250064D01*
X1247872Y0252063D02*
X1250728D01*
X1252985Y0256063D02*
Y0250064D01*
Y0256063D02*
X1255556D01*
X1256413Y0255777D01*
X1256698Y0255491D01*
X1256984Y0254920D01*
Y0254349D01*
X1256698Y0253777D01*
X1256413Y0253492D01*
X1255556Y0253206D01*
X1252985D01*
X1254984D02*
X1256984Y0250064D01*
X1258327Y0256063D02*
Y0250064D01*
Y0256063D02*
X1260326D01*
X1261183Y0255777D01*
X1261755Y0255206D01*
X1262040Y0254634D01*
X1262326Y0253777D01*
Y0252349D01*
X1262040Y0251492D01*
X1261755Y0250921D01*
X1261183Y0250349D01*
X1260326Y0250064D01*
X1258327D01*
X1272095Y0256063D02*
X1268382D01*
Y0250064D01*
X1272095D01*
X1268382Y0253206D02*
X1270667D01*
X1273095Y0256063D02*
Y0250064D01*
X1276523D01*
X1280893Y0256063D02*
X1277180D01*
Y0250064D01*
X1280893D01*
X1277180Y0253206D02*
X1279465D01*
X1286178Y0254634D02*
X1285892Y0255206D01*
X1285321Y0255777D01*
X1284750Y0256063D01*
X1283607D01*
X1283036Y0255777D01*
X1282464Y0255206D01*
X1282179Y0254634D01*
X1281893Y0253777D01*
Y0252349D01*
X1282179Y0251492D01*
X1282464Y0250921D01*
X1283036Y0250349D01*
X1283607Y0250064D01*
X1284750D01*
X1285321Y0250349D01*
X1285892Y0250921D01*
X1286178Y0251492D01*
X1288149Y0250635D02*
X1287863Y0250349D01*
X1288149Y0250064D01*
X1288435Y0250349D01*
X1288149Y0250635D01*
X1296461Y0256063D02*
Y0250064D01*
X1294462Y0256063D02*
X1298461D01*
X1302889D02*
X1299175D01*
Y0250064D01*
X1302889D01*
X1299175Y0253206D02*
X1301460D01*
X1307887Y0255206D02*
X1307316Y0255777D01*
X1306459Y0256063D01*
X1305317D01*
X1304460Y0255777D01*
X1303888Y0255206D01*
Y0254634D01*
X1304174Y0254063D01*
X1304460Y0253777D01*
X1305031Y0253492D01*
X1306745Y0252920D01*
X1307316Y0252635D01*
X1307602Y0252349D01*
X1307887Y0251778D01*
Y0250921D01*
X1307316Y0250349D01*
X1306459Y0250064D01*
X1305317D01*
X1304460Y0250349D01*
X1303888Y0250921D01*
X1311230Y0256063D02*
Y0250064D01*
X1309230Y0256063D02*
X1313229D01*
X1314229Y0254063D02*
X1313943Y0253777D01*
X1314229Y0253492D01*
X1314515Y0253777D01*
X1314229Y0254063D01*
Y0250635D02*
X1313943Y0250349D01*
X1314229Y0250064D01*
X1314515Y0250349D01*
X1314229Y0250635D01*
X1340196Y0256063D02*
Y0250064D01*
Y0256063D02*
X1344195Y0250064D01*
Y0256063D02*
Y0250064D01*
X1347566Y0256063D02*
X1346995Y0255777D01*
X1346424Y0255206D01*
X1346138Y0254634D01*
X1345852Y0253777D01*
Y0252349D01*
X1346138Y0251492D01*
X1346424Y0250921D01*
X1346995Y0250349D01*
X1347566Y0250064D01*
X1348709D01*
X1349280Y0250349D01*
X1349851Y0250921D01*
X1350137Y0251492D01*
X1350423Y0252349D01*
Y0253777D01*
X1350137Y0254634D01*
X1349851Y0255206D01*
X1349280Y0255777D01*
X1348709Y0256063D01*
X1347566D01*
X1351822D02*
Y0250064D01*
Y0256063D02*
X1355822Y0250064D01*
Y0256063D02*
Y0250064D01*
X1361192Y0256063D02*
X1357478D01*
Y0250064D01*
X1361192D01*
X1357478Y0253206D02*
X1359764D01*
X1276645Y0358963D02*
Y0352964D01*
X1274646Y0358963D02*
X1278645D01*
X1281073D02*
X1280502Y0358677D01*
X1279930Y0358106D01*
X1279645Y0357534D01*
X1279359Y0356677D01*
Y0355249D01*
X1279645Y0354392D01*
X1279930Y0353821D01*
X1280502Y0353250D01*
X1281073Y0352964D01*
X1282216D01*
X1282787Y0353250D01*
X1283358Y0353821D01*
X1283644Y0354392D01*
X1283930Y0355249D01*
Y0356677D01*
X1283644Y0357534D01*
X1283358Y0358106D01*
X1282787Y0358677D01*
X1282216Y0358963D01*
X1281073D01*
X1290043D02*
Y0352964D01*
Y0358963D02*
X1292328Y0352964D01*
X1294613Y0358963D02*
X1292328Y0352964D01*
X1294613Y0358963D02*
Y0352964D01*
X1300041Y0358963D02*
X1296327D01*
Y0352964D01*
X1300041D01*
X1296327Y0356106D02*
X1298612D01*
X1304754Y0358963D02*
X1301040D01*
Y0352964D01*
X1304754D01*
X1301040Y0356106D02*
X1303325D01*
X1307753Y0358963D02*
Y0352964D01*
X1305754Y0358963D02*
X1309753D01*
X1316894D02*
X1316323Y0358677D01*
X1315751Y0358106D01*
X1315466Y0357534D01*
X1315180Y0356677D01*
Y0355249D01*
X1315466Y0354392D01*
X1315751Y0353821D01*
X1316323Y0353250D01*
X1316894Y0352964D01*
X1318037D01*
X1318608Y0353250D01*
X1319179Y0353821D01*
X1319465Y0354392D01*
X1319751Y0355249D01*
Y0356677D01*
X1319465Y0357534D01*
X1319179Y0358106D01*
X1318608Y0358677D01*
X1318037Y0358963D01*
X1316894D01*
X1321150D02*
Y0352964D01*
Y0358963D02*
X1323721D01*
X1324578Y0358677D01*
X1324864Y0358391D01*
X1325149Y0357820D01*
Y0357249D01*
X1324864Y0356677D01*
X1324578Y0356392D01*
X1323721Y0356106D01*
X1321150D01*
X1323150D02*
X1325149Y0352964D01*
X1334919Y0358963D02*
X1331205D01*
Y0352964D01*
X1334919D01*
X1331205Y0356106D02*
X1333490D01*
X1335919Y0358963D02*
X1339918Y0352964D01*
Y0358963D02*
X1335919Y0352964D01*
X1345545Y0357534D02*
X1345259Y0358106D01*
X1344688Y0358677D01*
X1344117Y0358963D01*
X1342974D01*
X1342403Y0358677D01*
X1341832Y0358106D01*
X1341546Y0357534D01*
X1341260Y0356677D01*
Y0355249D01*
X1341546Y0354392D01*
X1341832Y0353821D01*
X1342403Y0353250D01*
X1342974Y0352964D01*
X1344117D01*
X1344688Y0353250D01*
X1345259Y0353821D01*
X1345545Y0354392D01*
X1350944Y0358963D02*
X1347230D01*
Y0352964D01*
X1350944D01*
X1347230Y0356106D02*
X1349516D01*
X1355657Y0358963D02*
X1351944D01*
Y0352964D01*
X1355657D01*
X1351944Y0356106D02*
X1354229D01*
X1356657Y0358963D02*
Y0352964D01*
Y0358963D02*
X1358657D01*
X1359513Y0358677D01*
X1360085Y0358106D01*
X1360371Y0357534D01*
X1360656Y0356677D01*
Y0355249D01*
X1360371Y0354392D01*
X1360085Y0353821D01*
X1359513Y0353250D01*
X1358657Y0352964D01*
X1356657D01*
X1368711Y0358963D02*
Y0352964D01*
X1366712Y0358963D02*
X1370711D01*
X1371425D02*
Y0352964D01*
X1375424Y0358963D02*
Y0352964D01*
X1371425Y0356106D02*
X1375424D01*
X1380795Y0358963D02*
X1377081D01*
Y0352964D01*
X1380795D01*
X1377081Y0356106D02*
X1379366D01*
X1386508Y0358963D02*
Y0352964D01*
Y0358963D02*
X1389079D01*
X1389936Y0358677D01*
X1390221Y0358391D01*
X1390507Y0357820D01*
Y0357249D01*
X1390221Y0356677D01*
X1389936Y0356392D01*
X1389079Y0356106D01*
X1386508D01*
X1388507D02*
X1390507Y0352964D01*
X1395563Y0358963D02*
X1391850D01*
Y0352964D01*
X1395563D01*
X1391850Y0356106D02*
X1394135D01*
X1398277Y0358963D02*
X1397705Y0358677D01*
X1397134Y0358106D01*
X1396848Y0357534D01*
X1396563Y0356677D01*
Y0355249D01*
X1396848Y0354392D01*
X1397134Y0353821D01*
X1397705Y0353250D01*
X1398277Y0352964D01*
X1399419D01*
X1399991Y0353250D01*
X1400562Y0353821D01*
X1400848Y0354392D01*
X1401133Y0355249D01*
Y0356677D01*
X1400848Y0357534D01*
X1400562Y0358106D01*
X1399991Y0358677D01*
X1399419Y0358963D01*
X1398277D01*
X1399134Y0354106D02*
X1400848Y0352393D01*
X1402533Y0358963D02*
Y0354678D01*
X1402818Y0353821D01*
X1403390Y0353250D01*
X1404247Y0352964D01*
X1404818D01*
X1405675Y0353250D01*
X1406246Y0353821D01*
X1406532Y0354678D01*
Y0358963D01*
X1408189D02*
Y0352964D01*
X1409446Y0358963D02*
Y0352964D01*
Y0358963D02*
X1412017D01*
X1412873Y0358677D01*
X1413159Y0358391D01*
X1413445Y0357820D01*
Y0357249D01*
X1413159Y0356677D01*
X1412873Y0356392D01*
X1412017Y0356106D01*
X1409446D01*
X1411445D02*
X1413445Y0352964D01*
X1418501Y0358963D02*
X1414787D01*
Y0352964D01*
X1418501D01*
X1414787Y0356106D02*
X1417073D01*
X1419501Y0358963D02*
Y0352964D01*
Y0358963D02*
X1421786Y0352964D01*
X1424071Y0358963D02*
X1421786Y0352964D01*
X1424071Y0358963D02*
Y0352964D01*
X1429498Y0358963D02*
X1425785D01*
Y0352964D01*
X1429498D01*
X1425785Y0356106D02*
X1428070D01*
X1430498Y0358963D02*
Y0352964D01*
Y0358963D02*
X1434498Y0352964D01*
Y0358963D02*
Y0352964D01*
X1438154Y0358963D02*
Y0352964D01*
X1436154Y0358963D02*
X1440153D01*
X1444867Y0358106D02*
X1444295Y0358677D01*
X1443438Y0358963D01*
X1442296D01*
X1441439Y0358677D01*
X1440868Y0358106D01*
Y0357534D01*
X1441153Y0356963D01*
X1441439Y0356677D01*
X1442010Y0356392D01*
X1443724Y0355820D01*
X1444295Y0355535D01*
X1444581Y0355249D01*
X1444867Y0354678D01*
Y0353821D01*
X1444295Y0353250D01*
X1443438Y0352964D01*
X1442296D01*
X1441439Y0353250D01*
X1440868Y0353821D01*
X1452636Y0358963D02*
X1452065Y0358677D01*
X1451494Y0358106D01*
X1451208Y0357534D01*
X1450922Y0356677D01*
Y0355249D01*
X1451208Y0354392D01*
X1451494Y0353821D01*
X1452065Y0353250D01*
X1452636Y0352964D01*
X1453779D01*
X1454350Y0353250D01*
X1454922Y0353821D01*
X1455207Y0354392D01*
X1455493Y0355249D01*
Y0356677D01*
X1455207Y0357534D01*
X1454922Y0358106D01*
X1454350Y0358677D01*
X1453779Y0358963D01*
X1452636D01*
X1456893D02*
Y0352964D01*
Y0358963D02*
X1460606D01*
X1456893Y0356106D02*
X1459178D01*
X1461577Y0356963D02*
X1461292Y0356677D01*
X1461577Y0356392D01*
X1461863Y0356677D01*
X1461577Y0356963D01*
Y0353535D02*
X1461292Y0353250D01*
X1461577Y0352964D01*
X1461863Y0353250D01*
X1461577Y0353535D01*
X1274646Y0368763D02*
Y0362764D01*
Y0368763D02*
X1276931Y0362764D01*
X1279216Y0368763D02*
X1276931Y0362764D01*
X1279216Y0368763D02*
Y0362764D01*
X1285501D02*
X1283216Y0368763D01*
X1280930Y0362764D01*
X1281787Y0364763D02*
X1284644D01*
X1288900Y0368763D02*
Y0362764D01*
X1286901Y0368763D02*
X1290900D01*
X1295327D02*
X1291614D01*
Y0362764D01*
X1295327D01*
X1291614Y0365906D02*
X1293899D01*
X1296327Y0368763D02*
Y0362764D01*
Y0368763D02*
X1298898D01*
X1299755Y0368477D01*
X1300041Y0368191D01*
X1300326Y0367620D01*
Y0367049D01*
X1300041Y0366477D01*
X1299755Y0366192D01*
X1298898Y0365906D01*
X1296327D01*
X1298327D02*
X1300326Y0362764D01*
X1301669Y0368763D02*
Y0362764D01*
X1307496D02*
X1305211Y0368763D01*
X1302926Y0362764D01*
X1303783Y0364763D02*
X1306639D01*
X1308896Y0368763D02*
Y0362764D01*
X1312324D01*
X1316980Y0367906D02*
X1316408Y0368477D01*
X1315551Y0368763D01*
X1314409D01*
X1313552Y0368477D01*
X1312981Y0367906D01*
Y0367334D01*
X1313266Y0366763D01*
X1313552Y0366477D01*
X1314123Y0366192D01*
X1315837Y0365620D01*
X1316408Y0365335D01*
X1316694Y0365049D01*
X1316980Y0364478D01*
Y0363621D01*
X1316408Y0363050D01*
X1315551Y0362764D01*
X1314409D01*
X1313552Y0363050D01*
X1312981Y0363621D01*
X1327606Y0362764D02*
X1325321Y0368763D01*
X1323036Y0362764D01*
X1323892Y0364763D02*
X1326749D01*
X1329006Y0368763D02*
Y0362764D01*
Y0368763D02*
X1333005Y0362764D01*
Y0368763D02*
Y0362764D01*
X1334662Y0368763D02*
Y0362764D01*
Y0368763D02*
X1336661D01*
X1337518Y0368477D01*
X1338089Y0367906D01*
X1338375Y0367334D01*
X1338661Y0366477D01*
Y0365049D01*
X1338375Y0364192D01*
X1338089Y0363621D01*
X1337518Y0363050D01*
X1336661Y0362764D01*
X1334662D01*
X1344717Y0368763D02*
X1346145Y0362764D01*
X1347573Y0368763D02*
X1346145Y0362764D01*
X1347573Y0368763D02*
X1349002Y0362764D01*
X1350430Y0368763D02*
X1349002Y0362764D01*
X1353343Y0368763D02*
X1352772Y0368477D01*
X1352201Y0367906D01*
X1351915Y0367334D01*
X1351630Y0366477D01*
Y0365049D01*
X1351915Y0364192D01*
X1352201Y0363621D01*
X1352772Y0363050D01*
X1353343Y0362764D01*
X1354486D01*
X1355057Y0363050D01*
X1355629Y0363621D01*
X1355914Y0364192D01*
X1356200Y0365049D01*
Y0366477D01*
X1355914Y0367334D01*
X1355629Y0367906D01*
X1355057Y0368477D01*
X1354486Y0368763D01*
X1353343D01*
X1357600D02*
Y0362764D01*
Y0368763D02*
X1360170D01*
X1361027Y0368477D01*
X1361313Y0368191D01*
X1361599Y0367620D01*
Y0367049D01*
X1361313Y0366477D01*
X1361027Y0366192D01*
X1360170Y0365906D01*
X1357600D01*
X1359599D02*
X1361599Y0362764D01*
X1362941Y0368763D02*
Y0362764D01*
X1366940Y0368763D02*
X1362941Y0364763D01*
X1364370Y0366192D02*
X1366940Y0362764D01*
X1368283Y0368763D02*
Y0362764D01*
Y0368763D02*
X1370568Y0362764D01*
X1372853Y0368763D02*
X1370568Y0362764D01*
X1372853Y0368763D02*
Y0362764D01*
X1379138D02*
X1376853Y0368763D01*
X1374567Y0362764D01*
X1375424Y0364763D02*
X1378281D01*
X1380538Y0368763D02*
Y0362764D01*
Y0368763D02*
X1384537Y0362764D01*
Y0368763D02*
Y0362764D01*
X1390193Y0367906D02*
X1389621Y0368477D01*
X1388764Y0368763D01*
X1387622D01*
X1386765Y0368477D01*
X1386193Y0367906D01*
Y0367334D01*
X1386479Y0366763D01*
X1386765Y0366477D01*
X1387336Y0366192D01*
X1389050Y0365620D01*
X1389621Y0365335D01*
X1389907Y0365049D01*
X1390193Y0364478D01*
Y0363621D01*
X1389621Y0363050D01*
X1388764Y0362764D01*
X1387622D01*
X1386765Y0363050D01*
X1386193Y0363621D01*
X1391535Y0368763D02*
Y0362764D01*
X1395534Y0368763D02*
Y0362764D01*
X1391535Y0365906D02*
X1395534D01*
X1397191Y0368763D02*
Y0362764D01*
X1398448Y0365620D02*
X1401019D01*
X1401876Y0365906D01*
X1402162Y0366192D01*
X1402447Y0366763D01*
Y0367620D01*
X1402162Y0368191D01*
X1401876Y0368477D01*
X1401019Y0368763D01*
X1398448D01*
Y0362764D01*
X1408503Y0368763D02*
Y0362764D01*
Y0368763D02*
X1412216D01*
X1408503Y0365906D02*
X1410788D01*
X1414616Y0368763D02*
X1414045Y0368477D01*
X1413473Y0367906D01*
X1413188Y0367334D01*
X1412902Y0366477D01*
Y0365049D01*
X1413188Y0364192D01*
X1413473Y0363621D01*
X1414045Y0363050D01*
X1414616Y0362764D01*
X1415759D01*
X1416330Y0363050D01*
X1416901Y0363621D01*
X1417187Y0364192D01*
X1417472Y0365049D01*
Y0366477D01*
X1417187Y0367334D01*
X1416901Y0367906D01*
X1416330Y0368477D01*
X1415759Y0368763D01*
X1414616D01*
X1418872D02*
Y0362764D01*
Y0368763D02*
X1421443D01*
X1422300Y0368477D01*
X1422586Y0368191D01*
X1422871Y0367620D01*
Y0367049D01*
X1422586Y0366477D01*
X1422300Y0366192D01*
X1421443Y0365906D01*
X1418872D01*
X1420872D02*
X1422871Y0362764D01*
X1433498D02*
X1431212Y0368763D01*
X1428927Y0362764D01*
X1429784Y0364763D02*
X1432641D01*
X1434897Y0368763D02*
Y0362764D01*
X1438325D01*
X1438982Y0368763D02*
Y0362764D01*
X1442410D01*
X1447780Y0365620D02*
X1450351D01*
X1451208Y0365906D01*
X1451494Y0366192D01*
X1451779Y0366763D01*
Y0367620D01*
X1451494Y0368191D01*
X1451208Y0368477D01*
X1450351Y0368763D01*
X1447780D01*
Y0362764D01*
X1457407Y0367334D02*
X1457121Y0367906D01*
X1456550Y0368477D01*
X1455978Y0368763D01*
X1454836D01*
X1454265Y0368477D01*
X1453693Y0367906D01*
X1453408Y0367334D01*
X1453122Y0366477D01*
Y0365049D01*
X1453408Y0364192D01*
X1453693Y0363621D01*
X1454265Y0363050D01*
X1454836Y0362764D01*
X1455978D01*
X1456550Y0363050D01*
X1457121Y0363621D01*
X1457407Y0364192D01*
X1459092Y0368763D02*
Y0362764D01*
Y0368763D02*
X1461663D01*
X1462520Y0368477D01*
X1462806Y0368191D01*
X1463091Y0367620D01*
Y0367049D01*
X1462806Y0366477D01*
X1462520Y0366192D01*
X1461663Y0365906D01*
X1459092D02*
X1461663D01*
X1462520Y0365620D01*
X1462806Y0365335D01*
X1463091Y0364763D01*
Y0363906D01*
X1462806Y0363335D01*
X1462520Y0363050D01*
X1461663Y0362764D01*
X1459092D01*
X1468433Y0367906D02*
X1467862Y0368477D01*
X1467005Y0368763D01*
X1465862D01*
X1465005Y0368477D01*
X1464434Y0367906D01*
Y0367334D01*
X1464719Y0366763D01*
X1465005Y0366477D01*
X1465576Y0366192D01*
X1467290Y0365620D01*
X1467862Y0365335D01*
X1468147Y0365049D01*
X1468433Y0364478D01*
Y0363621D01*
X1467862Y0363050D01*
X1467005Y0362764D01*
X1465862D01*
X1465005Y0363050D01*
X1464434Y0363621D01*
X1409760Y0528263D02*
X1409189Y0527977D01*
X1408617Y0527406D01*
X1408332Y0526834D01*
X1408046Y0525977D01*
Y0524549D01*
X1408332Y0523692D01*
X1408617Y0523121D01*
X1409189Y0522549D01*
X1409760Y0522264D01*
X1410903D01*
X1411474Y0522549D01*
X1412045Y0523121D01*
X1412331Y0523692D01*
X1412616Y0524549D01*
Y0525977D01*
X1412331Y0526834D01*
X1412045Y0527406D01*
X1411474Y0527977D01*
X1410903Y0528263D01*
X1409760D01*
X1416016D02*
Y0522264D01*
X1414016Y0528263D02*
X1418015D01*
X1418729D02*
Y0522264D01*
X1422729Y0528263D02*
Y0522264D01*
X1418729Y0525406D02*
X1422729D01*
X1428099Y0528263D02*
X1424385D01*
Y0522264D01*
X1428099D01*
X1424385Y0525406D02*
X1426670D01*
X1429099Y0528263D02*
Y0522264D01*
Y0528263D02*
X1431670D01*
X1432526Y0527977D01*
X1432812Y0527691D01*
X1433098Y0527120D01*
Y0526549D01*
X1432812Y0525977D01*
X1432526Y0525692D01*
X1431670Y0525406D01*
X1429099D01*
X1431098D02*
X1433098Y0522264D01*
X1377960Y0483863D02*
X1377388Y0483577D01*
X1376817Y0483006D01*
X1376532Y0482434D01*
X1376246Y0481577D01*
Y0480149D01*
X1376532Y0479292D01*
X1376817Y0478721D01*
X1377388Y0478150D01*
X1377960Y0477864D01*
X1379102D01*
X1379674Y0478150D01*
X1380245Y0478721D01*
X1380531Y0479292D01*
X1380816Y0480149D01*
Y0481577D01*
X1380531Y0482434D01*
X1380245Y0483006D01*
X1379674Y0483577D01*
X1379102Y0483863D01*
X1377960D01*
X1384216D02*
Y0477864D01*
X1382216Y0483863D02*
X1386215D01*
X1386929D02*
Y0477864D01*
X1390928Y0483863D02*
Y0477864D01*
X1386929Y0481006D02*
X1390928D01*
X1396299Y0483863D02*
X1392585D01*
Y0477864D01*
X1396299D01*
X1392585Y0481006D02*
X1394870D01*
X1397299Y0483863D02*
Y0477864D01*
Y0483863D02*
X1399869D01*
X1400726Y0483577D01*
X1401012Y0483291D01*
X1401298Y0482720D01*
Y0482149D01*
X1401012Y0481577D01*
X1400726Y0481292D01*
X1399869Y0481006D01*
X1397299D01*
X1399298D02*
X1401298Y0477864D01*
X1379960Y0415963D02*
X1379389Y0415677D01*
X1378817Y0415106D01*
X1378532Y0414534D01*
X1378246Y0413677D01*
Y0412249D01*
X1378532Y0411392D01*
X1378817Y0410821D01*
X1379389Y0410250D01*
X1379960Y0409964D01*
X1381102D01*
X1381674Y0410250D01*
X1382245Y0410821D01*
X1382531Y0411392D01*
X1382816Y0412249D01*
Y0413677D01*
X1382531Y0414534D01*
X1382245Y0415106D01*
X1381674Y0415677D01*
X1381102Y0415963D01*
X1379960D01*
X1386216D02*
Y0409964D01*
X1384216Y0415963D02*
X1388215D01*
X1388929D02*
Y0409964D01*
X1392929Y0415963D02*
Y0409964D01*
X1388929Y0413106D02*
X1392929D01*
X1398299Y0415963D02*
X1394585D01*
Y0409964D01*
X1398299D01*
X1394585Y0413106D02*
X1396871D01*
X1399299Y0415963D02*
Y0409964D01*
Y0415963D02*
X1401869D01*
X1402726Y0415677D01*
X1403012Y0415391D01*
X1403298Y0414820D01*
Y0414249D01*
X1403012Y0413677D01*
X1402726Y0413392D01*
X1401869Y0413106D01*
X1399299D01*
X1401298D02*
X1403298Y0409964D01*
X1394846Y0382463D02*
X1397131Y0376464D01*
X1399416Y0382463D02*
X1397131Y0376464D01*
X1400473Y0377035D02*
X1400188Y0376749D01*
X1400473Y0376464D01*
X1400759Y0376749D01*
X1400473Y0377035D01*
X1410785Y0381606D02*
X1410214Y0382177D01*
X1409357Y0382463D01*
X1408214D01*
X1407358Y0382177D01*
X1406786Y0381606D01*
Y0381034D01*
X1407072Y0380463D01*
X1407358Y0380177D01*
X1407929Y0379892D01*
X1409643Y0379320D01*
X1410214Y0379035D01*
X1410500Y0378749D01*
X1410785Y0378178D01*
Y0377321D01*
X1410214Y0376749D01*
X1409357Y0376464D01*
X1408214D01*
X1407358Y0376749D01*
X1406786Y0377321D01*
X1416413Y0381034D02*
X1416127Y0381606D01*
X1415556Y0382177D01*
X1414985Y0382463D01*
X1413842D01*
X1413271Y0382177D01*
X1412699Y0381606D01*
X1412414Y0381034D01*
X1412128Y0380177D01*
Y0378749D01*
X1412414Y0377892D01*
X1412699Y0377321D01*
X1413271Y0376749D01*
X1413842Y0376464D01*
X1414985D01*
X1415556Y0376749D01*
X1416127Y0377321D01*
X1416413Y0377892D01*
X1419812Y0382463D02*
X1419241Y0382177D01*
X1418669Y0381606D01*
X1418384Y0381034D01*
X1418098Y0380177D01*
Y0378749D01*
X1418384Y0377892D01*
X1418669Y0377321D01*
X1419241Y0376749D01*
X1419812Y0376464D01*
X1420955D01*
X1421526Y0376749D01*
X1422097Y0377321D01*
X1422383Y0377892D01*
X1422669Y0378749D01*
Y0380177D01*
X1422383Y0381034D01*
X1422097Y0381606D01*
X1421526Y0382177D01*
X1420955Y0382463D01*
X1419812D01*
X1424068D02*
Y0376464D01*
Y0382463D02*
X1426639D01*
X1427496Y0382177D01*
X1427782Y0381891D01*
X1428067Y0381320D01*
Y0380749D01*
X1427782Y0380177D01*
X1427496Y0379892D01*
X1426639Y0379606D01*
X1424068D01*
X1426068D02*
X1428067Y0376464D01*
X1433123Y0382463D02*
X1429410D01*
Y0376464D01*
X1433123D01*
X1429410Y0379606D02*
X1431695D01*
X1398550Y0329363D02*
X1397979Y0329077D01*
X1397408Y0328506D01*
X1397122Y0327934D01*
X1396836Y0327077D01*
Y0325649D01*
X1397122Y0324792D01*
X1397408Y0324221D01*
X1397979Y0323650D01*
X1398550Y0323364D01*
X1399693D01*
X1400264Y0323650D01*
X1400836Y0324221D01*
X1401121Y0324792D01*
X1401407Y0325649D01*
Y0327077D01*
X1401121Y0327934D01*
X1400836Y0328506D01*
X1400264Y0329077D01*
X1399693Y0329363D01*
X1398550D01*
X1404806D02*
Y0323364D01*
X1402807Y0329363D02*
X1406806D01*
X1407520D02*
Y0323364D01*
X1411519Y0329363D02*
Y0323364D01*
X1407520Y0326506D02*
X1411519D01*
X1416889Y0329363D02*
X1413176D01*
Y0323364D01*
X1416889D01*
X1413176Y0326506D02*
X1415461D01*
X1417889Y0329363D02*
Y0323364D01*
Y0329363D02*
X1420460D01*
X1421317Y0329077D01*
X1421603Y0328791D01*
X1421888Y0328220D01*
Y0327649D01*
X1421603Y0327077D01*
X1421317Y0326792D01*
X1420460Y0326506D01*
X1417889D01*
X1419889D02*
X1421888Y0323364D01*
X1395496Y0344020D02*
X1396068Y0344306D01*
X1396925Y0345163D01*
Y0339164D01*
X1445546Y0252920D02*
X1448117D01*
X1448974Y0253206D01*
X1449259Y0253492D01*
X1449545Y0254063D01*
Y0254920D01*
X1449259Y0255491D01*
X1448974Y0255777D01*
X1448117Y0256063D01*
X1445546D01*
Y0250064D01*
X1454601Y0256063D02*
X1450888D01*
Y0250064D01*
X1454601D01*
X1450888Y0253206D02*
X1453173D01*
X1455601Y0256063D02*
Y0250064D01*
Y0256063D02*
X1458172D01*
X1459029Y0255777D01*
X1459314Y0255491D01*
X1459600Y0254920D01*
Y0254349D01*
X1459314Y0253777D01*
X1459029Y0253492D01*
X1458172Y0253206D01*
X1455601D01*
X1457600D02*
X1459600Y0250064D01*
X1467370Y0256063D02*
X1466798Y0255777D01*
X1466227Y0255206D01*
X1465942Y0254634D01*
X1465656Y0253777D01*
Y0252349D01*
X1465942Y0251492D01*
X1466227Y0250921D01*
X1466798Y0250349D01*
X1467370Y0250064D01*
X1468513D01*
X1469084Y0250349D01*
X1469655Y0250921D01*
X1469941Y0251492D01*
X1470226Y0252349D01*
Y0253777D01*
X1469941Y0254634D01*
X1469655Y0255206D01*
X1469084Y0255777D01*
X1468513Y0256063D01*
X1467370D01*
X1471626D02*
Y0250064D01*
Y0256063D02*
X1474197D01*
X1475054Y0255777D01*
X1475340Y0255491D01*
X1475625Y0254920D01*
Y0254349D01*
X1475340Y0253777D01*
X1475054Y0253492D01*
X1474197Y0253206D01*
X1471626D01*
X1473626D02*
X1475625Y0250064D01*
X1476968Y0256063D02*
Y0250064D01*
Y0256063D02*
X1478967D01*
X1479824Y0255777D01*
X1480396Y0255206D01*
X1480681Y0254634D01*
X1480967Y0253777D01*
Y0252349D01*
X1480681Y0251492D01*
X1480396Y0250921D01*
X1479824Y0250349D01*
X1478967Y0250064D01*
X1476968D01*
X1486023Y0256063D02*
X1482310D01*
Y0250064D01*
X1486023D01*
X1482310Y0253206D02*
X1484595D01*
X1487023Y0256063D02*
Y0250064D01*
Y0256063D02*
X1489594D01*
X1490451Y0255777D01*
X1490736Y0255491D01*
X1491022Y0254920D01*
Y0254349D01*
X1490736Y0253777D01*
X1490451Y0253492D01*
X1489594Y0253206D01*
X1487023D01*
X1489022D02*
X1491022Y0250064D01*
X1406460Y0632563D02*
X1405889Y0632277D01*
X1405317Y0631706D01*
X1405032Y0631134D01*
X1404746Y0630277D01*
Y0628849D01*
X1405032Y0627992D01*
X1405317Y0627421D01*
X1405889Y0626850D01*
X1406460Y0626564D01*
X1407603D01*
X1408174Y0626850D01*
X1408745Y0627421D01*
X1409031Y0627992D01*
X1409317Y0628849D01*
Y0630277D01*
X1409031Y0631134D01*
X1408745Y0631706D01*
X1408174Y0632277D01*
X1407603Y0632563D01*
X1406460D01*
X1412716D02*
Y0626564D01*
X1410716Y0632563D02*
X1414715D01*
X1415429D02*
Y0626564D01*
X1419429Y0632563D02*
Y0626564D01*
X1415429Y0629706D02*
X1419429D01*
X1424799Y0632563D02*
X1421085D01*
Y0626564D01*
X1424799D01*
X1421085Y0629706D02*
X1423371D01*
X1425799Y0632563D02*
Y0626564D01*
Y0632563D02*
X1428370D01*
X1429226Y0632277D01*
X1429512Y0631991D01*
X1429798Y0631420D01*
Y0630849D01*
X1429512Y0630277D01*
X1429226Y0629992D01*
X1428370Y0629706D01*
X1425799D01*
X1427798D02*
X1429798Y0626564D01*
X1342531Y0466515D02*
X1342245Y0467086D01*
X1341674Y0467657D01*
X1341102Y0467943D01*
X1339960D01*
X1339388Y0467657D01*
X1338817Y0467086D01*
X1338532Y0466515D01*
X1338246Y0465658D01*
Y0464229D01*
X1338532Y0463373D01*
X1338817Y0462801D01*
X1339388Y0462230D01*
X1339960Y0461944D01*
X1341102D01*
X1341674Y0462230D01*
X1342245Y0462801D01*
X1342531Y0463373D01*
Y0464229D01*
X1341102D02*
X1342531D01*
X1343902Y0467943D02*
Y0461944D01*
Y0467943D02*
X1346473D01*
X1347330Y0467657D01*
X1347615Y0467372D01*
X1347901Y0466800D01*
Y0466229D01*
X1347615Y0465658D01*
X1347330Y0465372D01*
X1346473Y0465086D01*
X1343902D01*
X1345901D02*
X1347901Y0461944D01*
X1352957Y0467943D02*
X1349244D01*
Y0461944D01*
X1352957D01*
X1349244Y0465086D02*
X1351529D01*
X1357670Y0467943D02*
X1353957D01*
Y0461944D01*
X1357670D01*
X1353957Y0465086D02*
X1356242D01*
X1358670Y0467943D02*
Y0461944D01*
Y0467943D02*
X1362669Y0461944D01*
Y0467943D02*
Y0461944D01*
X1251623Y0708699D02*
Y0702700D01*
X1252880Y0705557D02*
X1255451D01*
X1256308Y0705842D01*
X1256593Y0706128D01*
X1256879Y0706699D01*
Y0707556D01*
X1256593Y0708127D01*
X1256308Y0708413D01*
X1255451Y0708699D01*
X1252880D01*
Y0702700D01*
X1262506Y0707270D02*
X1262220Y0707842D01*
X1261649Y0708413D01*
X1261078Y0708699D01*
X1259935D01*
X1259364Y0708413D01*
X1258793Y0707842D01*
X1258507Y0707270D01*
X1258221Y0706414D01*
Y0704985D01*
X1258507Y0704128D01*
X1258793Y0703557D01*
X1259364Y0702986D01*
X1259935Y0702700D01*
X1261078D01*
X1261649Y0702986D01*
X1262220Y0703557D01*
X1262506Y0704128D01*
X1264192Y0705271D02*
X1269333D01*
X1271104Y0708699D02*
Y0702700D01*
Y0708699D02*
X1273104D01*
X1273961Y0708413D01*
X1274532Y0707842D01*
X1274818Y0707270D01*
X1275103Y0706414D01*
Y0704985D01*
X1274818Y0704128D01*
X1274532Y0703557D01*
X1273961Y0702986D01*
X1273104Y0702700D01*
X1271104D01*
X1276446Y0705271D02*
X1281588D01*
X1283644Y0707270D02*
Y0707556D01*
X1283930Y0708127D01*
X1284216Y0708413D01*
X1284787Y0708699D01*
X1285930D01*
X1286501Y0708413D01*
X1286787Y0708127D01*
X1287072Y0707556D01*
Y0706985D01*
X1286787Y0706414D01*
X1286215Y0705557D01*
X1283359Y0702700D01*
X1287358D01*
X1292700Y0708699D02*
X1289843Y0702700D01*
X1288700Y0708699D02*
X1292700D01*
X1297470D02*
X1294614D01*
X1294328Y0706128D01*
X1294614Y0706414D01*
X1295471Y0706699D01*
X1296327D01*
X1297184Y0706414D01*
X1297756Y0705842D01*
X1298041Y0704985D01*
Y0704414D01*
X1297756Y0703557D01*
X1297184Y0702986D01*
X1296327Y0702700D01*
X1295471D01*
X1294614Y0702986D01*
X1294328Y0703271D01*
X1294042Y0703843D01*
X1308382Y0707270D02*
X1308096Y0707842D01*
X1307525Y0708413D01*
X1306954Y0708699D01*
X1305811D01*
X1305240Y0708413D01*
X1304669Y0707842D01*
X1304383Y0707270D01*
X1304097Y0706414D01*
Y0704985D01*
X1304383Y0704128D01*
X1304669Y0703557D01*
X1305240Y0702986D01*
X1305811Y0702700D01*
X1306954D01*
X1307525Y0702986D01*
X1308096Y0703557D01*
X1308382Y0704128D01*
X1310067Y0708699D02*
Y0702700D01*
X1313495D01*
X1318723D02*
X1316438Y0708699D01*
X1314152Y0702700D01*
X1315009Y0704700D02*
X1317866D01*
X1324121Y0707842D02*
X1323550Y0708413D01*
X1322693Y0708699D01*
X1321551D01*
X1320694Y0708413D01*
X1320122Y0707842D01*
Y0707270D01*
X1320408Y0706699D01*
X1320694Y0706414D01*
X1321265Y0706128D01*
X1322979Y0705557D01*
X1323550Y0705271D01*
X1323836Y0704985D01*
X1324121Y0704414D01*
Y0703557D01*
X1323550Y0702986D01*
X1322693Y0702700D01*
X1321551D01*
X1320694Y0702986D01*
X1320122Y0703557D01*
X1329463Y0707842D02*
X1328892Y0708413D01*
X1328035Y0708699D01*
X1326892D01*
X1326035Y0708413D01*
X1325464Y0707842D01*
Y0707270D01*
X1325750Y0706699D01*
X1326035Y0706414D01*
X1326607Y0706128D01*
X1328321Y0705557D01*
X1328892Y0705271D01*
X1329178Y0704985D01*
X1329463Y0704414D01*
Y0703557D01*
X1328892Y0702986D01*
X1328035Y0702700D01*
X1326892D01*
X1326035Y0702986D01*
X1325464Y0703557D01*
X1335805Y0707270D02*
Y0707556D01*
X1336090Y0708127D01*
X1336376Y0708413D01*
X1336947Y0708699D01*
X1338090D01*
X1338661Y0708413D01*
X1338947Y0708127D01*
X1339233Y0707556D01*
Y0706985D01*
X1338947Y0706414D01*
X1338376Y0705557D01*
X1335519Y0702700D01*
X1339518D01*
X1345574Y0708699D02*
Y0702700D01*
X1349002D01*
X1353372Y0708699D02*
X1349659D01*
Y0702700D01*
X1353372D01*
X1349659Y0705842D02*
X1351944D01*
X1354372Y0708699D02*
X1356657Y0702700D01*
X1358943Y0708699D02*
X1356657Y0702700D01*
X1363427Y0708699D02*
X1359714D01*
Y0702700D01*
X1363427D01*
X1359714Y0705842D02*
X1361999D01*
X1364427Y0708699D02*
Y0702700D01*
X1367855D01*
X1377510Y0707270D02*
X1377225Y0707842D01*
X1376653Y0708413D01*
X1376082Y0708699D01*
X1374939D01*
X1374368Y0708413D01*
X1373797Y0707842D01*
X1373511Y0707270D01*
X1373225Y0706414D01*
Y0704985D01*
X1373511Y0704128D01*
X1373797Y0703557D01*
X1374368Y0702986D01*
X1374939Y0702700D01*
X1376082D01*
X1376653Y0702986D01*
X1377225Y0703557D01*
X1377510Y0704128D01*
X1307002Y0779499D02*
Y0773500D01*
Y0779499D02*
X1309001D01*
X1309858Y0779213D01*
X1310430Y0778642D01*
X1310715Y0778070D01*
X1311001Y0777213D01*
Y0775785D01*
X1310715Y0774928D01*
X1310430Y0774357D01*
X1309858Y0773786D01*
X1309001Y0773500D01*
X1307002D01*
X1316057Y0779499D02*
X1312344D01*
Y0773500D01*
X1316057D01*
X1312344Y0776642D02*
X1314629D01*
X1321056Y0778642D02*
X1320485Y0779213D01*
X1319628Y0779499D01*
X1318485D01*
X1317628Y0779213D01*
X1317057Y0778642D01*
Y0778070D01*
X1317342Y0777499D01*
X1317628Y0777213D01*
X1318199Y0776928D01*
X1319913Y0776357D01*
X1320485Y0776071D01*
X1320770Y0775785D01*
X1321056Y0775214D01*
Y0774357D01*
X1320485Y0773786D01*
X1319628Y0773500D01*
X1318485D01*
X1317628Y0773786D01*
X1317057Y0774357D01*
X1322398Y0779499D02*
Y0773500D01*
X1327940Y0778070D02*
X1327654Y0778642D01*
X1327083Y0779213D01*
X1326512Y0779499D01*
X1325369D01*
X1324798Y0779213D01*
X1324227Y0778642D01*
X1323941Y0778070D01*
X1323655Y0777213D01*
Y0775785D01*
X1323941Y0774928D01*
X1324227Y0774357D01*
X1324798Y0773786D01*
X1325369Y0773500D01*
X1326512D01*
X1327083Y0773786D01*
X1327654Y0774357D01*
X1327940Y0774928D01*
Y0775785D01*
X1326512D02*
X1327940D01*
X1329311Y0779499D02*
Y0773500D01*
Y0779499D02*
X1333310Y0773500D01*
Y0779499D02*
Y0773500D01*
X1339680Y0779499D02*
Y0773500D01*
X1340937Y0779499D02*
Y0773500D01*
Y0779499D02*
X1344936Y0773500D01*
Y0779499D02*
Y0773500D01*
X1346593Y0779499D02*
Y0773500D01*
Y0779499D02*
X1350307D01*
X1346593Y0776642D02*
X1348878D01*
X1352706Y0779499D02*
X1352135Y0779213D01*
X1351564Y0778642D01*
X1351278Y0778070D01*
X1350992Y0777213D01*
Y0775785D01*
X1351278Y0774928D01*
X1351564Y0774357D01*
X1352135Y0773786D01*
X1352706Y0773500D01*
X1353849D01*
X1354420Y0773786D01*
X1354992Y0774357D01*
X1355277Y0774928D01*
X1355563Y0775785D01*
Y0777213D01*
X1355277Y0778070D01*
X1354992Y0778642D01*
X1354420Y0779213D01*
X1353849Y0779499D01*
X1352706D01*
X1356962D02*
Y0773500D01*
Y0779499D02*
X1359533D01*
X1360390Y0779213D01*
X1360676Y0778928D01*
X1360962Y0778356D01*
Y0777785D01*
X1360676Y0777213D01*
X1360390Y0776928D01*
X1359533Y0776642D01*
X1356962D01*
X1358962D02*
X1360962Y0773500D01*
X1362304Y0779499D02*
Y0773500D01*
Y0779499D02*
X1364590Y0773500D01*
X1366875Y0779499D02*
X1364590Y0773500D01*
X1366875Y0779499D02*
Y0773500D01*
X1373159D02*
X1370874Y0779499D01*
X1368589Y0773500D01*
X1369446Y0775500D02*
X1372302D01*
X1376558Y0779499D02*
Y0773500D01*
X1374559Y0779499D02*
X1378558D01*
X1379272D02*
Y0773500D01*
X1382243Y0779499D02*
X1381672Y0779213D01*
X1381100Y0778642D01*
X1380815Y0778070D01*
X1380529Y0777213D01*
Y0775785D01*
X1380815Y0774928D01*
X1381100Y0774357D01*
X1381672Y0773786D01*
X1382243Y0773500D01*
X1383385D01*
X1383957Y0773786D01*
X1384528Y0774357D01*
X1384814Y0774928D01*
X1385099Y0775785D01*
Y0777213D01*
X1384814Y0778070D01*
X1384528Y0778642D01*
X1383957Y0779213D01*
X1383385Y0779499D01*
X1382243D01*
X1386499D02*
Y0773500D01*
Y0779499D02*
X1390498Y0773500D01*
Y0779499D02*
Y0773500D01*
X1244246Y0649263D02*
Y0643264D01*
Y0649263D02*
X1247960D01*
X1244246Y0646406D02*
X1246531D01*
X1248645Y0649263D02*
Y0643264D01*
Y0649263D02*
X1251216D01*
X1252073Y0648977D01*
X1252359Y0648691D01*
X1252644Y0648120D01*
Y0647549D01*
X1252359Y0646977D01*
X1252073Y0646692D01*
X1251216Y0646406D01*
X1248645D01*
X1250645D02*
X1252644Y0643264D01*
X1253987Y0645835D02*
X1259129D01*
X1263756Y0649263D02*
X1260900Y0645263D01*
X1265184D01*
X1263756Y0649263D02*
Y0643264D01*
X1267955Y0649263D02*
X1267098Y0648977D01*
X1266527Y0648120D01*
X1266241Y0646692D01*
Y0645835D01*
X1266527Y0644406D01*
X1267098Y0643549D01*
X1267955Y0643264D01*
X1268527D01*
X1269384Y0643549D01*
X1269955Y0644406D01*
X1270240Y0645835D01*
Y0646692D01*
X1269955Y0648120D01*
X1269384Y0648977D01*
X1268527Y0649263D01*
X1267955D01*
X1273011D02*
X1272154Y0648977D01*
X1271869Y0648406D01*
Y0647834D01*
X1272154Y0647263D01*
X1272726Y0646977D01*
X1273868Y0646692D01*
X1274725Y0646406D01*
X1275297Y0645835D01*
X1275582Y0645263D01*
Y0644406D01*
X1275297Y0643835D01*
X1275011Y0643549D01*
X1274154Y0643264D01*
X1273011D01*
X1272154Y0643549D01*
X1271869Y0643835D01*
X1271583Y0644406D01*
Y0645263D01*
X1271869Y0645835D01*
X1272440Y0646406D01*
X1273297Y0646692D01*
X1274440Y0646977D01*
X1275011Y0647263D01*
X1275297Y0647834D01*
Y0648406D01*
X1275011Y0648977D01*
X1274154Y0649263D01*
X1273011D01*
X1300790Y0650119D02*
Y0644121D01*
Y0650119D02*
X1304504D01*
X1300790Y0647263D02*
X1303076D01*
X1305189Y0650119D02*
Y0644121D01*
Y0650119D02*
X1307760D01*
X1308617Y0649834D01*
X1308903Y0649548D01*
X1309188Y0648977D01*
Y0648406D01*
X1308903Y0647834D01*
X1308617Y0647549D01*
X1307760Y0647263D01*
X1305189D01*
X1307189D02*
X1309188Y0644121D01*
X1310531Y0646692D02*
X1315673D01*
X1320300Y0650119D02*
X1317444Y0646120D01*
X1321729D01*
X1320300Y0650119D02*
Y0644121D01*
X1327499Y0650119D02*
Y0644121D01*
X1331498Y0650119D02*
Y0644121D01*
X1327499Y0647263D02*
X1331498D01*
X1333726Y0650119D02*
X1334012Y0649834D01*
X1334297Y0650119D01*
X1334012Y0650405D01*
X1333726Y0650119D01*
X1334012Y0648120D02*
Y0644121D01*
X1338782Y0648120D02*
Y0643549D01*
X1338496Y0642693D01*
X1338211Y0642407D01*
X1337640Y0642121D01*
X1336783D01*
X1336211Y0642407D01*
X1338782Y0647263D02*
X1338211Y0647834D01*
X1337640Y0648120D01*
X1336783D01*
X1336211Y0647834D01*
X1335640Y0647263D01*
X1335354Y0646406D01*
Y0645835D01*
X1335640Y0644978D01*
X1336211Y0644406D01*
X1336783Y0644121D01*
X1337640D01*
X1338211Y0644406D01*
X1338782Y0644978D01*
X1340382Y0650119D02*
Y0644121D01*
Y0646977D02*
X1341239Y0647834D01*
X1341810Y0648120D01*
X1342667D01*
X1343238Y0647834D01*
X1343524Y0646977D01*
Y0644121D01*
X1351808Y0650119D02*
Y0644121D01*
X1349808Y0650119D02*
X1353808D01*
X1357950Y0648120D02*
Y0643549D01*
X1357664Y0642693D01*
X1357378Y0642407D01*
X1356807Y0642121D01*
X1355950D01*
X1355379Y0642407D01*
X1357950Y0647263D02*
X1357378Y0647834D01*
X1356807Y0648120D01*
X1355950D01*
X1355379Y0647834D01*
X1354807Y0647263D01*
X1354522Y0646406D01*
Y0645835D01*
X1354807Y0644978D01*
X1355379Y0644406D01*
X1355950Y0644121D01*
X1356807D01*
X1357378Y0644406D01*
X1357950Y0644978D01*
X1462968Y0345163D02*
X1466110D01*
X1464396Y0342877D01*
X1465253D01*
X1465824Y0342592D01*
X1466110Y0342306D01*
X1466395Y0341449D01*
Y0340878D01*
X1466110Y0340021D01*
X1465539Y0339449D01*
X1464682Y0339164D01*
X1463825D01*
X1462968Y0339449D01*
X1462682Y0339735D01*
X1462396Y0340306D01*
X1279684Y0632134D02*
X1279398Y0632705D01*
X1278541Y0632991D01*
X1277970D01*
X1277113Y0632705D01*
X1276542Y0631848D01*
X1276256Y0630420D01*
Y0628992D01*
X1276542Y0627849D01*
X1277113Y0627278D01*
X1277970Y0626992D01*
X1278256D01*
X1279113Y0627278D01*
X1279684Y0627849D01*
X1279970Y0628706D01*
Y0628992D01*
X1279684Y0629849D01*
X1279113Y0630420D01*
X1278256Y0630706D01*
X1277970D01*
X1277113Y0630420D01*
X1276542Y0629849D01*
X1276256Y0628992D01*
X1281569Y0631563D02*
Y0631848D01*
X1281855Y0632420D01*
X1282141Y0632705D01*
X1282712Y0632991D01*
X1283855D01*
X1284426Y0632705D01*
X1284711Y0632420D01*
X1284997Y0631848D01*
Y0631277D01*
X1284711Y0630706D01*
X1284140Y0629849D01*
X1281284Y0626992D01*
X1285283D01*
X1291339Y0632991D02*
Y0626992D01*
Y0632991D02*
X1293624Y0626992D01*
X1295909Y0632991D02*
X1293624Y0626992D01*
X1295909Y0632991D02*
Y0626992D01*
X1297623Y0632991D02*
Y0626992D01*
X1298880Y0632991D02*
Y0626992D01*
X1302308D01*
X1309678Y0634134D02*
X1309106Y0633562D01*
X1308535Y0632705D01*
X1307964Y0631563D01*
X1307678Y0630134D01*
Y0628992D01*
X1307964Y0627564D01*
X1308535Y0626421D01*
X1309106Y0625564D01*
X1309678Y0624993D01*
X1309106Y0633562D02*
X1308535Y0632420D01*
X1308249Y0631563D01*
X1307964Y0630134D01*
Y0628992D01*
X1308249Y0627564D01*
X1308535Y0626707D01*
X1309106Y0625564D01*
X1310820Y0631848D02*
X1311392Y0632134D01*
X1312249Y0632991D01*
Y0626992D01*
X1315505Y0627564D02*
X1315219Y0627278D01*
X1315505Y0626992D01*
X1315791Y0627278D01*
X1315505Y0627564D01*
X1320532Y0632134D02*
X1320247Y0632705D01*
X1319390Y0632991D01*
X1318818D01*
X1317962Y0632705D01*
X1317390Y0631848D01*
X1317105Y0630420D01*
Y0628992D01*
X1317390Y0627849D01*
X1317962Y0627278D01*
X1318818Y0626992D01*
X1319104D01*
X1319961Y0627278D01*
X1320532Y0627849D01*
X1320818Y0628706D01*
Y0628992D01*
X1320532Y0629849D01*
X1319961Y0630420D01*
X1319104Y0630706D01*
X1318818D01*
X1317962Y0630420D01*
X1317390Y0629849D01*
X1317105Y0628992D01*
X1322132Y0630991D02*
Y0626992D01*
Y0629849D02*
X1322989Y0630706D01*
X1323560Y0630991D01*
X1324417D01*
X1324989Y0630706D01*
X1325274Y0629849D01*
Y0626992D01*
Y0629849D02*
X1326131Y0630706D01*
X1326702Y0630991D01*
X1327559D01*
X1328131Y0630706D01*
X1328417Y0629849D01*
Y0626992D01*
X1330302Y0630991D02*
Y0626992D01*
Y0629849D02*
X1331159Y0630706D01*
X1331730Y0630991D01*
X1332587D01*
X1333158Y0630706D01*
X1333444Y0629849D01*
Y0626992D01*
Y0629849D02*
X1334301Y0630706D01*
X1334872Y0630991D01*
X1335729D01*
X1336300Y0630706D01*
X1336586Y0629849D01*
Y0626992D01*
X1338471Y0634134D02*
X1339043Y0633562D01*
X1339614Y0632705D01*
X1340185Y0631563D01*
X1340471Y0630134D01*
Y0628992D01*
X1340185Y0627564D01*
X1339614Y0626421D01*
X1339043Y0625564D01*
X1338471Y0624993D01*
X1339043Y0633562D02*
X1339614Y0632420D01*
X1339900Y0631563D01*
X1340185Y0630134D01*
Y0628992D01*
X1339900Y0627564D01*
X1339614Y0626707D01*
X1339043Y0625564D01*
X1349212Y0632134D02*
Y0626992D01*
X1346641Y0629563D02*
X1351783D01*
X1353554Y0626135D02*
X1357553Y0632991D01*
X1357953Y0629563D02*
X1363095D01*
X1364866Y0631848D02*
X1365437Y0632134D01*
X1366294Y0632991D01*
Y0626992D01*
X1370979Y0632991D02*
X1370122Y0632705D01*
X1369551Y0631848D01*
X1369265Y0630420D01*
Y0629563D01*
X1369551Y0628135D01*
X1370122Y0627278D01*
X1370979Y0626992D01*
X1371550D01*
X1372407Y0627278D01*
X1372978Y0628135D01*
X1373264Y0629563D01*
Y0630420D01*
X1372978Y0631848D01*
X1372407Y0632705D01*
X1371550Y0632991D01*
X1370979D01*
X1379748D02*
X1374607Y0626992D01*
X1376035Y0632991D02*
X1376606Y0632420D01*
Y0631848D01*
X1376320Y0631277D01*
X1375749Y0630991D01*
X1375178D01*
X1374607Y0631563D01*
Y0632134D01*
X1374892Y0632705D01*
X1375463Y0632991D01*
X1376035D01*
X1376606Y0632705D01*
X1377463Y0632420D01*
X1378320D01*
X1379177Y0632705D01*
X1379748Y0632991D01*
X1378606Y0628992D02*
X1378034Y0628706D01*
X1377749Y0628135D01*
Y0627564D01*
X1378320Y0626992D01*
X1378891D01*
X1379463Y0627278D01*
X1379748Y0627849D01*
Y0628421D01*
X1379177Y0628992D01*
X1378606D01*
X1263440Y0632563D02*
X1267439Y0626564D01*
Y0632563D02*
X1263440Y0626564D01*
X1316818Y0610764D02*
X1314533Y0616763D01*
X1312248Y0610764D01*
X1313105Y0612763D02*
X1315961D01*
X1318218Y0616763D02*
Y0610764D01*
Y0616763D02*
X1322217Y0610764D01*
Y0616763D02*
Y0610764D01*
X1327873Y0615906D02*
X1327302Y0616477D01*
X1326445Y0616763D01*
X1325302D01*
X1324445Y0616477D01*
X1323874Y0615906D01*
Y0615334D01*
X1324159Y0614763D01*
X1324445Y0614477D01*
X1325016Y0614192D01*
X1326730Y0613620D01*
X1327302Y0613335D01*
X1327587Y0613049D01*
X1327873Y0612478D01*
Y0611621D01*
X1327302Y0611050D01*
X1326445Y0610764D01*
X1325302D01*
X1324445Y0611050D01*
X1323874Y0611621D01*
X1329215Y0616763D02*
Y0610764D01*
X1335186Y0616763D02*
Y0610764D01*
X1336442Y0613620D02*
X1339013D01*
X1339870Y0613906D01*
X1340156Y0614192D01*
X1340442Y0614763D01*
Y0615620D01*
X1340156Y0616191D01*
X1339870Y0616477D01*
X1339013Y0616763D01*
X1336442D01*
Y0610764D01*
X1346069Y0615334D02*
X1345783Y0615906D01*
X1345212Y0616477D01*
X1344641Y0616763D01*
X1343498D01*
X1342927Y0616477D01*
X1342355Y0615906D01*
X1342070Y0615334D01*
X1341784Y0614477D01*
Y0613049D01*
X1342070Y0612192D01*
X1342355Y0611621D01*
X1342927Y0611050D01*
X1343498Y0610764D01*
X1344641D01*
X1345212Y0611050D01*
X1345783Y0611621D01*
X1346069Y0612192D01*
X1347754Y0613335D02*
X1352896D01*
X1358095Y0615906D02*
X1357809Y0616477D01*
X1356952Y0616763D01*
X1356381D01*
X1355524Y0616477D01*
X1354953Y0615620D01*
X1354667Y0614192D01*
Y0612763D01*
X1354953Y0611621D01*
X1355524Y0611050D01*
X1356381Y0610764D01*
X1356667D01*
X1357524Y0611050D01*
X1358095Y0611621D01*
X1358381Y0612478D01*
Y0612763D01*
X1358095Y0613620D01*
X1357524Y0614192D01*
X1356667Y0614477D01*
X1356381D01*
X1355524Y0614192D01*
X1354953Y0613620D01*
X1354667Y0612763D01*
X1361409Y0616763D02*
X1360551Y0616477D01*
X1359980Y0615620D01*
X1359694Y0614192D01*
Y0613335D01*
X1359980Y0611906D01*
X1360551Y0611050D01*
X1361409Y0610764D01*
X1361980D01*
X1362837Y0611050D01*
X1363408Y0611906D01*
X1363694Y0613335D01*
Y0614192D01*
X1363408Y0615620D01*
X1362837Y0616477D01*
X1361980Y0616763D01*
X1361409D01*
X1365036Y0615620D02*
X1365608Y0615906D01*
X1366465Y0616763D01*
Y0610764D01*
X1369721Y0615334D02*
Y0615620D01*
X1370007Y0616191D01*
X1370292Y0616477D01*
X1370864Y0616763D01*
X1372006D01*
X1372577Y0616477D01*
X1372863Y0616191D01*
X1373149Y0615620D01*
Y0615049D01*
X1372863Y0614477D01*
X1372292Y0613620D01*
X1369435Y0610764D01*
X1373434D01*
X1381490Y0616763D02*
Y0610764D01*
X1379490Y0616763D02*
X1383489D01*
X1384204D02*
X1386489Y0613906D01*
Y0610764D01*
X1388774Y0616763D02*
X1386489Y0613906D01*
X1389545Y0613620D02*
X1392116D01*
X1392973Y0613906D01*
X1393259Y0614192D01*
X1393544Y0614763D01*
Y0615620D01*
X1393259Y0616191D01*
X1392973Y0616477D01*
X1392116Y0616763D01*
X1389545D01*
Y0610764D01*
X1398600Y0616763D02*
X1394887D01*
Y0610764D01*
X1398600D01*
X1394887Y0613906D02*
X1397172D01*
X1404885Y0616763D02*
X1408027D01*
X1406313Y0614477D01*
X1407170D01*
X1407741Y0614192D01*
X1408027Y0613906D01*
X1408313Y0613049D01*
Y0612478D01*
X1408027Y0611621D01*
X1407456Y0611050D01*
X1406599Y0610764D01*
X1405742D01*
X1404885Y0611050D01*
X1404599Y0611335D01*
X1404314Y0611906D01*
X1418653Y0615334D02*
X1418368Y0615906D01*
X1417796Y0616477D01*
X1417225Y0616763D01*
X1416082D01*
X1415511Y0616477D01*
X1414940Y0615906D01*
X1414654Y0615334D01*
X1414369Y0614477D01*
Y0613049D01*
X1414654Y0612192D01*
X1414940Y0611621D01*
X1415511Y0611050D01*
X1416082Y0610764D01*
X1417225D01*
X1417796Y0611050D01*
X1418368Y0611621D01*
X1418653Y0612192D01*
X1420339Y0616763D02*
Y0610764D01*
X1423767D01*
X1428994D02*
X1426709Y0616763D01*
X1424424Y0610764D01*
X1425280Y0612763D02*
X1428137D01*
X1434393Y0615906D02*
X1433821Y0616477D01*
X1432965Y0616763D01*
X1431822D01*
X1430965Y0616477D01*
X1430394Y0615906D01*
Y0615334D01*
X1430679Y0614763D01*
X1430965Y0614477D01*
X1431536Y0614192D01*
X1433250Y0613620D01*
X1433821Y0613335D01*
X1434107Y0613049D01*
X1434393Y0612478D01*
Y0611621D01*
X1433821Y0611050D01*
X1432965Y0610764D01*
X1431822D01*
X1430965Y0611050D01*
X1430394Y0611621D01*
X1439734Y0615906D02*
X1439163Y0616477D01*
X1438306Y0616763D01*
X1437164D01*
X1436307Y0616477D01*
X1435735Y0615906D01*
Y0615334D01*
X1436021Y0614763D01*
X1436307Y0614477D01*
X1436878Y0614192D01*
X1438592Y0613620D01*
X1439163Y0613335D01*
X1439449Y0613049D01*
X1439734Y0612478D01*
Y0611621D01*
X1439163Y0611050D01*
X1438306Y0610764D01*
X1437164D01*
X1436307Y0611050D01*
X1435735Y0611621D01*
X1446076Y0615334D02*
Y0615620D01*
X1446362Y0616191D01*
X1446647Y0616477D01*
X1447219Y0616763D01*
X1448361D01*
X1448933Y0616477D01*
X1449218Y0616191D01*
X1449504Y0615620D01*
Y0615049D01*
X1449218Y0614477D01*
X1448647Y0613620D01*
X1445790Y0610764D01*
X1449790D01*
X1316818Y0579464D02*
X1314533Y0585463D01*
X1312248Y0579464D01*
X1313105Y0581463D02*
X1315961D01*
X1318218Y0585463D02*
Y0579464D01*
Y0585463D02*
X1322217Y0579464D01*
Y0585463D02*
Y0579464D01*
X1327873Y0584606D02*
X1327302Y0585177D01*
X1326445Y0585463D01*
X1325302D01*
X1324445Y0585177D01*
X1323874Y0584606D01*
Y0584034D01*
X1324159Y0583463D01*
X1324445Y0583177D01*
X1325016Y0582892D01*
X1326730Y0582320D01*
X1327302Y0582035D01*
X1327587Y0581749D01*
X1327873Y0581178D01*
Y0580321D01*
X1327302Y0579749D01*
X1326445Y0579464D01*
X1325302D01*
X1324445Y0579749D01*
X1323874Y0580321D01*
X1329215Y0585463D02*
Y0579464D01*
X1335186Y0585463D02*
Y0579464D01*
X1336442Y0582320D02*
X1339013D01*
X1339870Y0582606D01*
X1340156Y0582892D01*
X1340442Y0583463D01*
Y0584320D01*
X1340156Y0584891D01*
X1339870Y0585177D01*
X1339013Y0585463D01*
X1336442D01*
Y0579464D01*
X1346069Y0584034D02*
X1345783Y0584606D01*
X1345212Y0585177D01*
X1344641Y0585463D01*
X1343498D01*
X1342927Y0585177D01*
X1342355Y0584606D01*
X1342070Y0584034D01*
X1341784Y0583177D01*
Y0581749D01*
X1342070Y0580892D01*
X1342355Y0580321D01*
X1342927Y0579749D01*
X1343498Y0579464D01*
X1344641D01*
X1345212Y0579749D01*
X1345783Y0580321D01*
X1346069Y0580892D01*
X1347754Y0582035D02*
X1352896D01*
X1358095Y0584606D02*
X1357809Y0585177D01*
X1356952Y0585463D01*
X1356381D01*
X1355524Y0585177D01*
X1354953Y0584320D01*
X1354667Y0582892D01*
Y0581463D01*
X1354953Y0580321D01*
X1355524Y0579749D01*
X1356381Y0579464D01*
X1356667D01*
X1357524Y0579749D01*
X1358095Y0580321D01*
X1358381Y0581178D01*
Y0581463D01*
X1358095Y0582320D01*
X1357524Y0582892D01*
X1356667Y0583177D01*
X1356381D01*
X1355524Y0582892D01*
X1354953Y0582320D01*
X1354667Y0581463D01*
X1361409Y0585463D02*
X1360551Y0585177D01*
X1359980Y0584320D01*
X1359694Y0582892D01*
Y0582035D01*
X1359980Y0580607D01*
X1360551Y0579749D01*
X1361409Y0579464D01*
X1361980D01*
X1362837Y0579749D01*
X1363408Y0580607D01*
X1363694Y0582035D01*
Y0582892D01*
X1363408Y0584320D01*
X1362837Y0585177D01*
X1361980Y0585463D01*
X1361409D01*
X1365036Y0584320D02*
X1365608Y0584606D01*
X1366465Y0585463D01*
Y0579464D01*
X1369721Y0584034D02*
Y0584320D01*
X1370007Y0584891D01*
X1370292Y0585177D01*
X1370864Y0585463D01*
X1372006D01*
X1372577Y0585177D01*
X1372863Y0584891D01*
X1373149Y0584320D01*
Y0583749D01*
X1372863Y0583177D01*
X1372292Y0582320D01*
X1369435Y0579464D01*
X1373434D01*
X1381490Y0585463D02*
Y0579464D01*
X1379490Y0585463D02*
X1383489D01*
X1384204D02*
X1386489Y0582606D01*
Y0579464D01*
X1388774Y0585463D02*
X1386489Y0582606D01*
X1389545Y0582320D02*
X1392116D01*
X1392973Y0582606D01*
X1393259Y0582892D01*
X1393544Y0583463D01*
Y0584320D01*
X1393259Y0584891D01*
X1392973Y0585177D01*
X1392116Y0585463D01*
X1389545D01*
Y0579464D01*
X1398600Y0585463D02*
X1394887D01*
Y0579464D01*
X1398600D01*
X1394887Y0582606D02*
X1397172D01*
X1404885Y0585463D02*
X1408027D01*
X1406313Y0583177D01*
X1407170D01*
X1407741Y0582892D01*
X1408027Y0582606D01*
X1408313Y0581749D01*
Y0581178D01*
X1408027Y0580321D01*
X1407456Y0579749D01*
X1406599Y0579464D01*
X1405742D01*
X1404885Y0579749D01*
X1404599Y0580035D01*
X1404314Y0580607D01*
X1418653Y0584034D02*
X1418368Y0584606D01*
X1417796Y0585177D01*
X1417225Y0585463D01*
X1416082D01*
X1415511Y0585177D01*
X1414940Y0584606D01*
X1414654Y0584034D01*
X1414369Y0583177D01*
Y0581749D01*
X1414654Y0580892D01*
X1414940Y0580321D01*
X1415511Y0579749D01*
X1416082Y0579464D01*
X1417225D01*
X1417796Y0579749D01*
X1418368Y0580321D01*
X1418653Y0580892D01*
X1420339Y0585463D02*
Y0579464D01*
X1423767D01*
X1428994D02*
X1426709Y0585463D01*
X1424424Y0579464D01*
X1425280Y0581463D02*
X1428137D01*
X1434393Y0584606D02*
X1433821Y0585177D01*
X1432965Y0585463D01*
X1431822D01*
X1430965Y0585177D01*
X1430394Y0584606D01*
Y0584034D01*
X1430679Y0583463D01*
X1430965Y0583177D01*
X1431536Y0582892D01*
X1433250Y0582320D01*
X1433821Y0582035D01*
X1434107Y0581749D01*
X1434393Y0581178D01*
Y0580321D01*
X1433821Y0579749D01*
X1432965Y0579464D01*
X1431822D01*
X1430965Y0579749D01*
X1430394Y0580321D01*
X1439734Y0584606D02*
X1439163Y0585177D01*
X1438306Y0585463D01*
X1437164D01*
X1436307Y0585177D01*
X1435735Y0584606D01*
Y0584034D01*
X1436021Y0583463D01*
X1436307Y0583177D01*
X1436878Y0582892D01*
X1438592Y0582320D01*
X1439163Y0582035D01*
X1439449Y0581749D01*
X1439734Y0581178D01*
Y0580321D01*
X1439163Y0579749D01*
X1438306Y0579464D01*
X1437164D01*
X1436307Y0579749D01*
X1435735Y0580321D01*
X1446076Y0584034D02*
Y0584320D01*
X1446362Y0584891D01*
X1446647Y0585177D01*
X1447219Y0585463D01*
X1448361D01*
X1448933Y0585177D01*
X1449218Y0584891D01*
X1449504Y0584320D01*
Y0583749D01*
X1449218Y0583177D01*
X1448647Y0582320D01*
X1445790Y0579464D01*
X1449790D01*
X1255767Y0339314D02*
X1253481Y0345312D01*
X1251196Y0339314D01*
X1252053Y0341313D02*
X1254910D01*
X1257166Y0345312D02*
Y0339314D01*
Y0345312D02*
X1261166Y0339314D01*
Y0345312D02*
Y0339314D01*
X1266821Y0344455D02*
X1266250Y0345026D01*
X1265393Y0345312D01*
X1264251D01*
X1263394Y0345026D01*
X1262822Y0344455D01*
Y0343884D01*
X1263108Y0343313D01*
X1263394Y0343027D01*
X1263965Y0342741D01*
X1265679Y0342170D01*
X1266250Y0341884D01*
X1266536Y0341599D01*
X1266821Y0341027D01*
Y0340170D01*
X1266250Y0339599D01*
X1265393Y0339314D01*
X1264251D01*
X1263394Y0339599D01*
X1262822Y0340170D01*
X1268164Y0345312D02*
Y0339314D01*
X1274134Y0345312D02*
Y0339314D01*
X1275391Y0342170D02*
X1277962D01*
X1278819Y0342456D01*
X1279105Y0342741D01*
X1279390Y0343313D01*
Y0344170D01*
X1279105Y0344741D01*
X1278819Y0345026D01*
X1277962Y0345312D01*
X1275391D01*
Y0339314D01*
X1285018Y0343884D02*
X1284732Y0344455D01*
X1284161Y0345026D01*
X1283589Y0345312D01*
X1282447D01*
X1281875Y0345026D01*
X1281304Y0344455D01*
X1281019Y0343884D01*
X1280733Y0343027D01*
Y0341599D01*
X1281019Y0340742D01*
X1281304Y0340170D01*
X1281875Y0339599D01*
X1282447Y0339314D01*
X1283589D01*
X1284161Y0339599D01*
X1284732Y0340170D01*
X1285018Y0340742D01*
X1286703Y0341884D02*
X1291845D01*
X1298186Y0339314D02*
X1295901Y0345312D01*
X1293616Y0339314D01*
X1294473Y0341313D02*
X1297329D01*
X1299586Y0341884D02*
X1304728D01*
X1309927Y0344455D02*
X1309641Y0345026D01*
X1308784Y0345312D01*
X1308213D01*
X1307356Y0345026D01*
X1306784Y0344170D01*
X1306499Y0342741D01*
Y0341313D01*
X1306784Y0340170D01*
X1307356Y0339599D01*
X1308213Y0339314D01*
X1308498D01*
X1309355Y0339599D01*
X1309927Y0340170D01*
X1310212Y0341027D01*
Y0341313D01*
X1309927Y0342170D01*
X1309355Y0342741D01*
X1308498Y0343027D01*
X1308213D01*
X1307356Y0342741D01*
X1306784Y0342170D01*
X1306499Y0341313D01*
X1313240Y0345312D02*
X1312383Y0345026D01*
X1311812Y0344170D01*
X1311526Y0342741D01*
Y0341884D01*
X1311812Y0340456D01*
X1312383Y0339599D01*
X1313240Y0339314D01*
X1313811D01*
X1314668Y0339599D01*
X1315240Y0340456D01*
X1315525Y0341884D01*
Y0342741D01*
X1315240Y0344170D01*
X1314668Y0345026D01*
X1313811Y0345312D01*
X1313240D01*
X1318582D02*
X1317725Y0345026D01*
X1317154Y0344170D01*
X1316868Y0342741D01*
Y0341884D01*
X1317154Y0340456D01*
X1317725Y0339599D01*
X1318582Y0339314D01*
X1319153D01*
X1320010Y0339599D01*
X1320581Y0340456D01*
X1320867Y0341884D01*
Y0342741D01*
X1320581Y0344170D01*
X1320010Y0345026D01*
X1319153Y0345312D01*
X1318582D01*
X1322210D02*
Y0339314D01*
Y0345312D02*
X1325923D01*
X1322210Y0342456D02*
X1324495D01*
X1335607Y0343884D02*
X1335321Y0344455D01*
X1334750Y0345026D01*
X1334179Y0345312D01*
X1333036D01*
X1332465Y0345026D01*
X1331893Y0344455D01*
X1331608Y0343884D01*
X1331322Y0343027D01*
Y0341599D01*
X1331608Y0340742D01*
X1331893Y0340170D01*
X1332465Y0339599D01*
X1333036Y0339314D01*
X1334179D01*
X1334750Y0339599D01*
X1335321Y0340170D01*
X1335607Y0340742D01*
X1337292Y0345312D02*
Y0339314D01*
X1340720D01*
X1345947D02*
X1343662Y0345312D01*
X1341377Y0339314D01*
X1342234Y0341313D02*
X1345090D01*
X1351346Y0344455D02*
X1350775Y0345026D01*
X1349918Y0345312D01*
X1348775D01*
X1347918Y0345026D01*
X1347347Y0344455D01*
Y0343884D01*
X1347633Y0343313D01*
X1347918Y0343027D01*
X1348490Y0342741D01*
X1350204Y0342170D01*
X1350775Y0341884D01*
X1351061Y0341599D01*
X1351346Y0341027D01*
Y0340170D01*
X1350775Y0339599D01*
X1349918Y0339314D01*
X1348775D01*
X1347918Y0339599D01*
X1347347Y0340170D01*
X1356688Y0344455D02*
X1356117Y0345026D01*
X1355260Y0345312D01*
X1354117D01*
X1353260Y0345026D01*
X1352689Y0344455D01*
Y0343884D01*
X1352975Y0343313D01*
X1353260Y0343027D01*
X1353831Y0342741D01*
X1355545Y0342170D01*
X1356117Y0341884D01*
X1356402Y0341599D01*
X1356688Y0341027D01*
Y0340170D01*
X1356117Y0339599D01*
X1355260Y0339314D01*
X1354117D01*
X1353260Y0339599D01*
X1352689Y0340170D01*
X1362744Y0341884D02*
X1367886D01*
X1369657Y0344455D02*
X1374227Y0341884D01*
X1369657Y0339314D01*
X1308246Y0382463D02*
Y0376464D01*
Y0382463D02*
X1312245Y0376464D01*
Y0382463D02*
Y0376464D01*
X1314188Y0377035D02*
X1313902Y0376749D01*
X1314188Y0376464D01*
X1314473Y0376749D01*
X1314188Y0377035D01*
X1320072Y0381034D02*
X1319786Y0381606D01*
X1319215Y0382177D01*
X1318644Y0382463D01*
X1317501D01*
X1316930Y0382177D01*
X1316358Y0381606D01*
X1316073Y0381034D01*
X1315787Y0380177D01*
Y0378749D01*
X1316073Y0377892D01*
X1316358Y0377321D01*
X1316930Y0376749D01*
X1317501Y0376464D01*
X1318644D01*
X1319215Y0376749D01*
X1319786Y0377321D01*
X1320072Y0377892D01*
X1322043Y0377035D02*
X1321757Y0376749D01*
X1322043Y0376464D01*
X1322329Y0376749D01*
X1322043Y0377035D01*
X1328356Y0382463D02*
Y0376464D01*
Y0382463D02*
X1330927D01*
X1331784Y0382177D01*
X1332069Y0381891D01*
X1332355Y0381320D01*
Y0380749D01*
X1332069Y0380177D01*
X1331784Y0379892D01*
X1330927Y0379606D01*
X1328356D01*
X1330355D02*
X1332355Y0376464D01*
X1335411Y0382463D02*
X1334840Y0382177D01*
X1334269Y0381606D01*
X1333983Y0381034D01*
X1333698Y0380177D01*
Y0378749D01*
X1333983Y0377892D01*
X1334269Y0377321D01*
X1334840Y0376749D01*
X1335411Y0376464D01*
X1336554D01*
X1337125Y0376749D01*
X1337697Y0377321D01*
X1337982Y0377892D01*
X1338268Y0378749D01*
Y0380177D01*
X1337982Y0381034D01*
X1337697Y0381606D01*
X1337125Y0382177D01*
X1336554Y0382463D01*
X1335411D01*
X1339668D02*
Y0378178D01*
X1339953Y0377321D01*
X1340525Y0376749D01*
X1341382Y0376464D01*
X1341953D01*
X1342810Y0376749D01*
X1343381Y0377321D01*
X1343667Y0378178D01*
Y0382463D01*
X1347323D02*
Y0376464D01*
X1345324Y0382463D02*
X1349323D01*
X1353750D02*
X1350037D01*
Y0376464D01*
X1353750D01*
X1350037Y0379606D02*
X1352322D01*
X1325146Y0483863D02*
X1326574Y0477864D01*
X1328002Y0483863D02*
X1326574Y0477864D01*
X1328002Y0483863D02*
X1329431Y0477864D01*
X1330859Y0483863D02*
X1329431Y0477864D01*
X1332059Y0483863D02*
Y0477864D01*
X1336058Y0483863D02*
Y0477864D01*
X1332059Y0481006D02*
X1336058D01*
X1337715Y0483863D02*
Y0477864D01*
X1340971Y0483863D02*
Y0477864D01*
X1338972Y0483863D02*
X1342971D01*
X1347398D02*
X1343685D01*
Y0477864D01*
X1347398D01*
X1343685Y0481006D02*
X1345970D01*
X1378246Y0544063D02*
Y0538064D01*
Y0544063D02*
X1382245Y0538064D01*
Y0544063D02*
Y0538064D01*
X1388187Y0542634D02*
X1387901Y0543206D01*
X1387330Y0543777D01*
X1386758Y0544063D01*
X1385616D01*
X1385044Y0543777D01*
X1384473Y0543206D01*
X1384188Y0542634D01*
X1383902Y0541777D01*
Y0540349D01*
X1384188Y0539492D01*
X1384473Y0538921D01*
X1385044Y0538349D01*
X1385616Y0538064D01*
X1386758D01*
X1387330Y0538349D01*
X1387901Y0538921D01*
X1388187Y0539492D01*
X1389872Y0536064D02*
X1394442D01*
X1395214Y0544063D02*
Y0538064D01*
Y0544063D02*
X1397213D01*
X1398070Y0543777D01*
X1398641Y0543206D01*
X1398927Y0542634D01*
X1399213Y0541777D01*
Y0540349D01*
X1398927Y0539492D01*
X1398641Y0538921D01*
X1398070Y0538349D01*
X1397213Y0538064D01*
X1395214D01*
X1400555Y0544063D02*
Y0538064D01*
Y0544063D02*
X1403126D01*
X1403983Y0543777D01*
X1404269Y0543491D01*
X1404554Y0542920D01*
Y0542349D01*
X1404269Y0541777D01*
X1403983Y0541492D01*
X1403126Y0541206D01*
X1400555D01*
X1402555D02*
X1404554Y0538064D01*
X1405897Y0544063D02*
Y0538064D01*
X1407154Y0544063D02*
Y0538064D01*
X1410582D01*
X1411239Y0544063D02*
Y0538064D01*
X1414667D01*
X1420037Y0544063D02*
Y0538064D01*
Y0544063D02*
X1423750D01*
X1420037Y0541206D02*
X1422322D01*
X1424436Y0544063D02*
Y0538064D01*
X1425693Y0544063D02*
Y0538064D01*
X1429121D01*
X1433491Y0544063D02*
X1429778D01*
Y0538064D01*
X1433491D01*
X1429778Y0541206D02*
X1432063D01*
X1438490Y0543206D02*
X1437919Y0543777D01*
X1437062Y0544063D01*
X1435919D01*
X1435062Y0543777D01*
X1434491Y0543206D01*
Y0542634D01*
X1434777Y0542063D01*
X1435062Y0541777D01*
X1435634Y0541492D01*
X1437348Y0540920D01*
X1437919Y0540635D01*
X1438204Y0540349D01*
X1438490Y0539778D01*
Y0538921D01*
X1437919Y0538349D01*
X1437062Y0538064D01*
X1435919D01*
X1435062Y0538349D01*
X1434491Y0538921D01*
X1300196Y0271963D02*
X1302481Y0269106D01*
Y0265964D01*
X1304767Y0271963D02*
X1302481Y0269106D01*
X1309251Y0271963D02*
X1305538D01*
Y0265964D01*
X1309251D01*
X1305538Y0269106D02*
X1307823D01*
X1314250Y0271106D02*
X1313679Y0271677D01*
X1312822Y0271963D01*
X1311680D01*
X1310823Y0271677D01*
X1310251Y0271106D01*
Y0270534D01*
X1310537Y0269963D01*
X1310823Y0269677D01*
X1311394Y0269392D01*
X1313108Y0268820D01*
X1313679Y0268535D01*
X1313965Y0268249D01*
X1314250Y0267678D01*
Y0266821D01*
X1313679Y0266249D01*
X1312822Y0265964D01*
X1311680D01*
X1310823Y0266249D01*
X1310251Y0266821D01*
X1386346Y0256348D02*
Y0250349D01*
Y0256348D02*
X1388917D01*
X1389774Y0256063D01*
X1390059Y0255777D01*
X1390345Y0255206D01*
Y0254634D01*
X1390059Y0254063D01*
X1389774Y0253777D01*
X1388917Y0253492D01*
X1386346D01*
X1388346D02*
X1390345Y0250349D01*
X1395401Y0256348D02*
X1391688D01*
Y0250349D01*
X1395401D01*
X1391688Y0253492D02*
X1393973D01*
X1398115Y0256348D02*
X1397544Y0256063D01*
X1396972Y0255491D01*
X1396686Y0254920D01*
X1396401Y0254063D01*
Y0252635D01*
X1396686Y0251778D01*
X1396972Y0251206D01*
X1397544Y0250635D01*
X1398115Y0250349D01*
X1399257D01*
X1399829Y0250635D01*
X1400400Y0251206D01*
X1400686Y0251778D01*
X1400971Y0252635D01*
Y0254063D01*
X1400686Y0254920D01*
X1400400Y0255491D01*
X1399829Y0256063D01*
X1399257Y0256348D01*
X1398115D01*
X1398972Y0251492D02*
X1400686Y0249778D01*
X1402371Y0256348D02*
Y0252063D01*
X1402657Y0251206D01*
X1403228Y0250635D01*
X1404085Y0250349D01*
X1404656D01*
X1405513Y0250635D01*
X1406085Y0251206D01*
X1406370Y0252063D01*
Y0256348D01*
X1408027D02*
Y0250349D01*
X1409284Y0256348D02*
Y0250349D01*
Y0256348D02*
X1411855D01*
X1412712Y0256063D01*
X1412997Y0255777D01*
X1413283Y0255206D01*
Y0254634D01*
X1412997Y0254063D01*
X1412712Y0253777D01*
X1411855Y0253492D01*
X1409284D01*
X1411283D02*
X1413283Y0250349D01*
X1418339Y0256348D02*
X1414625D01*
Y0250349D01*
X1418339D01*
X1414625Y0253492D02*
X1416911D01*
X1419339Y0256348D02*
Y0250349D01*
Y0256348D02*
X1421338D01*
X1422195Y0256063D01*
X1422767Y0255491D01*
X1423052Y0254920D01*
X1423338Y0254063D01*
Y0252635D01*
X1423052Y0251778D01*
X1422767Y0251206D01*
X1422195Y0250635D01*
X1421338Y0250349D01*
X1419339D01*
X1297716Y0538064D02*
X1295431Y0544063D01*
X1293146Y0538064D01*
X1294003Y0540063D02*
X1296859D01*
X1303115Y0543206D02*
X1302544Y0543777D01*
X1301687Y0544063D01*
X1300544D01*
X1299687Y0543777D01*
X1299116Y0543206D01*
Y0542634D01*
X1299402Y0542063D01*
X1299687Y0541777D01*
X1300259Y0541492D01*
X1301973Y0540920D01*
X1302544Y0540635D01*
X1302829Y0540349D01*
X1303115Y0539778D01*
Y0538921D01*
X1302544Y0538349D01*
X1301687Y0538064D01*
X1300544D01*
X1299687Y0538349D01*
X1299116Y0538921D01*
X1313170Y0543206D02*
X1312599Y0543777D01*
X1311742Y0544063D01*
X1310599D01*
X1309742Y0543777D01*
X1309171Y0543206D01*
Y0542634D01*
X1309457Y0542063D01*
X1309742Y0541777D01*
X1310314Y0541492D01*
X1312028Y0540920D01*
X1312599Y0540635D01*
X1312885Y0540349D01*
X1313170Y0539778D01*
Y0538921D01*
X1312599Y0538349D01*
X1311742Y0538064D01*
X1310599D01*
X1309742Y0538349D01*
X1309171Y0538921D01*
X1314513Y0544063D02*
Y0538064D01*
X1318512Y0544063D02*
Y0538064D01*
X1314513Y0541206D02*
X1318512D01*
X1321883Y0544063D02*
X1321311Y0543777D01*
X1320740Y0543206D01*
X1320454Y0542634D01*
X1320169Y0541777D01*
Y0540349D01*
X1320454Y0539492D01*
X1320740Y0538921D01*
X1321311Y0538349D01*
X1321883Y0538064D01*
X1323025D01*
X1323596Y0538349D01*
X1324168Y0538921D01*
X1324454Y0539492D01*
X1324739Y0540349D01*
Y0541777D01*
X1324454Y0542634D01*
X1324168Y0543206D01*
X1323596Y0543777D01*
X1323025Y0544063D01*
X1321883D01*
X1326139D02*
X1327567Y0538064D01*
X1328995Y0544063D02*
X1327567Y0538064D01*
X1328995Y0544063D02*
X1330424Y0538064D01*
X1331852Y0544063D02*
X1330424Y0538064D01*
X1333052Y0544063D02*
Y0538064D01*
Y0544063D02*
X1337051Y0538064D01*
Y0544063D02*
Y0538064D01*
X1312531Y0396206D02*
X1312245Y0396777D01*
X1311674Y0397348D01*
X1311102Y0397634D01*
X1309960D01*
X1309389Y0397348D01*
X1308817Y0396777D01*
X1308532Y0396206D01*
X1308246Y0395349D01*
Y0393921D01*
X1308532Y0393064D01*
X1308817Y0392492D01*
X1309389Y0391921D01*
X1309960Y0391635D01*
X1311102D01*
X1311674Y0391921D01*
X1312245Y0392492D01*
X1312531Y0393064D01*
X1314216Y0397634D02*
Y0393349D01*
X1314502Y0392492D01*
X1315073Y0391921D01*
X1315930Y0391635D01*
X1316501D01*
X1317358Y0391921D01*
X1317930Y0392492D01*
X1318215Y0393349D01*
Y0397634D01*
X1321872D02*
Y0391635D01*
X1319872Y0397634D02*
X1323871D01*
X1333869Y0391635D02*
X1331584Y0397634D01*
X1329299Y0391635D01*
X1330156Y0393635D02*
X1333012D01*
X1335269Y0397634D02*
Y0391635D01*
Y0397634D02*
X1339268Y0391635D01*
Y0397634D02*
Y0391635D01*
X1340925Y0397634D02*
Y0391635D01*
Y0397634D02*
X1342924D01*
X1343781Y0397348D01*
X1344353Y0396777D01*
X1344638Y0396206D01*
X1344924Y0395349D01*
Y0393921D01*
X1344638Y0393064D01*
X1344353Y0392492D01*
X1343781Y0391921D01*
X1342924Y0391635D01*
X1340925D01*
X1352979Y0397634D02*
Y0391635D01*
X1350980Y0397634D02*
X1354979D01*
X1355693D02*
Y0391635D01*
Y0397634D02*
X1358264D01*
X1359121Y0397348D01*
X1359406Y0397063D01*
X1359692Y0396492D01*
Y0395920D01*
X1359406Y0395349D01*
X1359121Y0395063D01*
X1358264Y0394777D01*
X1355693D01*
X1357693D02*
X1359692Y0391635D01*
X1361035Y0397634D02*
Y0391635D01*
X1362292Y0397634D02*
Y0391635D01*
Y0397634D02*
X1364577Y0391635D01*
X1366862Y0397634D02*
X1364577Y0391635D01*
X1366862Y0397634D02*
Y0391635D01*
X1373289Y0394492D02*
X1375860D01*
X1376717Y0394777D01*
X1377003Y0395063D01*
X1377288Y0395635D01*
Y0396492D01*
X1377003Y0397063D01*
X1376717Y0397348D01*
X1375860Y0397634D01*
X1373289D01*
Y0391635D01*
X1382344Y0397634D02*
X1378631D01*
Y0391635D01*
X1382344D01*
X1378631Y0394777D02*
X1380916D01*
X1383344Y0397634D02*
Y0391635D01*
Y0397634D02*
X1385915D01*
X1386772Y0397348D01*
X1387058Y0397063D01*
X1387343Y0396492D01*
Y0395920D01*
X1387058Y0395349D01*
X1386772Y0395063D01*
X1385915Y0394777D01*
X1383344D01*
X1385344D02*
X1387343Y0391635D01*
X1393399Y0397634D02*
Y0391635D01*
Y0397634D02*
X1395684Y0391635D01*
X1397970Y0397634D02*
X1395684Y0391635D01*
X1397970Y0397634D02*
Y0391635D01*
X1399684Y0396492D02*
X1400255Y0396777D01*
X1401112Y0397634D01*
Y0391635D01*
X1408796Y0397634D02*
Y0391635D01*
Y0397634D02*
X1411367D01*
X1412224Y0397348D01*
X1412509Y0397063D01*
X1412795Y0396492D01*
Y0395920D01*
X1412509Y0395349D01*
X1412224Y0395063D01*
X1411367Y0394777D01*
X1408796D02*
X1411367D01*
X1412224Y0394492D01*
X1412509Y0394206D01*
X1412795Y0393635D01*
Y0392778D01*
X1412509Y0392207D01*
X1412224Y0391921D01*
X1411367Y0391635D01*
X1408796D01*
X1415852Y0397634D02*
X1415280Y0397348D01*
X1414709Y0396777D01*
X1414423Y0396206D01*
X1414138Y0395349D01*
Y0393921D01*
X1414423Y0393064D01*
X1414709Y0392492D01*
X1415280Y0391921D01*
X1415852Y0391635D01*
X1416994D01*
X1417566Y0391921D01*
X1418137Y0392492D01*
X1418422Y0393064D01*
X1418708Y0393921D01*
Y0395349D01*
X1418422Y0396206D01*
X1418137Y0396777D01*
X1417566Y0397348D01*
X1416994Y0397634D01*
X1415852D01*
X1424678Y0391635D02*
X1422393Y0397634D01*
X1420108Y0391635D01*
X1420965Y0393635D02*
X1423821D01*
X1426078Y0397634D02*
Y0391635D01*
Y0397634D02*
X1428649D01*
X1429506Y0397348D01*
X1429791Y0397063D01*
X1430077Y0396492D01*
Y0395920D01*
X1429791Y0395349D01*
X1429506Y0395063D01*
X1428649Y0394777D01*
X1426078D01*
X1428078D02*
X1430077Y0391635D01*
X1431420Y0397634D02*
Y0391635D01*
Y0397634D02*
X1433419D01*
X1434276Y0397348D01*
X1434848Y0396777D01*
X1435133Y0396206D01*
X1435419Y0395349D01*
Y0393921D01*
X1435133Y0393064D01*
X1434848Y0392492D01*
X1434276Y0391921D01*
X1433419Y0391635D01*
X1431420D01*
X1443189Y0397634D02*
X1442617Y0397348D01*
X1442046Y0396777D01*
X1441760Y0396206D01*
X1441475Y0395349D01*
Y0393921D01*
X1441760Y0393064D01*
X1442046Y0392492D01*
X1442617Y0391921D01*
X1443189Y0391635D01*
X1444331D01*
X1444903Y0391921D01*
X1445474Y0392492D01*
X1445759Y0393064D01*
X1446045Y0393921D01*
Y0395349D01*
X1445759Y0396206D01*
X1445474Y0396777D01*
X1444903Y0397348D01*
X1444331Y0397634D01*
X1443189D01*
X1447445D02*
Y0393349D01*
X1447730Y0392492D01*
X1448302Y0391921D01*
X1449159Y0391635D01*
X1449730D01*
X1450587Y0391921D01*
X1451158Y0392492D01*
X1451444Y0393349D01*
Y0397634D01*
X1455100D02*
Y0391635D01*
X1453101Y0397634D02*
X1457100D01*
X1457814D02*
Y0391635D01*
X1461242D01*
X1461899Y0397634D02*
Y0391635D01*
X1463156Y0397634D02*
Y0391635D01*
Y0397634D02*
X1467155Y0391635D01*
Y0397634D02*
Y0391635D01*
X1472525Y0397634D02*
X1468812D01*
Y0391635D01*
X1472525D01*
X1468812Y0394777D02*
X1471097D01*
X1327145Y0500563D02*
Y0494564D01*
X1325146Y0500563D02*
X1329145D01*
X1331573D02*
X1331002Y0500277D01*
X1330431Y0499706D01*
X1330145Y0499134D01*
X1329859Y0498277D01*
Y0496849D01*
X1330145Y0495992D01*
X1330431Y0495421D01*
X1331002Y0494849D01*
X1331573Y0494564D01*
X1332716D01*
X1333287Y0494849D01*
X1333858Y0495421D01*
X1334144Y0495992D01*
X1334430Y0496849D01*
Y0498277D01*
X1334144Y0499134D01*
X1333858Y0499706D01*
X1333287Y0500277D01*
X1332716Y0500563D01*
X1331573D01*
X1335829Y0497420D02*
X1338400D01*
X1339257Y0497706D01*
X1339543Y0497992D01*
X1339828Y0498563D01*
Y0499420D01*
X1339543Y0499991D01*
X1339257Y0500277D01*
X1338400Y0500563D01*
X1335829D01*
Y0494564D01*
X1376246Y0500563D02*
Y0494564D01*
Y0500563D02*
X1378817D01*
X1379674Y0500277D01*
X1379959Y0499991D01*
X1380245Y0499420D01*
Y0498849D01*
X1379959Y0498277D01*
X1379674Y0497992D01*
X1378817Y0497706D01*
X1376246D02*
X1378817D01*
X1379674Y0497420D01*
X1379959Y0497135D01*
X1380245Y0496563D01*
Y0495707D01*
X1379959Y0495135D01*
X1379674Y0494849D01*
X1378817Y0494564D01*
X1376246D01*
X1383302Y0500563D02*
X1382730Y0500277D01*
X1382159Y0499706D01*
X1381873Y0499134D01*
X1381588Y0498277D01*
Y0496849D01*
X1381873Y0495992D01*
X1382159Y0495421D01*
X1382730Y0494849D01*
X1383302Y0494564D01*
X1384444D01*
X1385015Y0494849D01*
X1385587Y0495421D01*
X1385872Y0495992D01*
X1386158Y0496849D01*
Y0498277D01*
X1385872Y0499134D01*
X1385587Y0499706D01*
X1385015Y0500277D01*
X1384444Y0500563D01*
X1383302D01*
X1389557D02*
Y0494564D01*
X1387558Y0500563D02*
X1391557D01*
X1394271D02*
Y0494564D01*
X1392271Y0500563D02*
X1396270D01*
X1398698D02*
X1398127Y0500277D01*
X1397556Y0499706D01*
X1397270Y0499134D01*
X1396984Y0498277D01*
Y0496849D01*
X1397270Y0495992D01*
X1397556Y0495421D01*
X1398127Y0494849D01*
X1398698Y0494564D01*
X1399841D01*
X1400412Y0494849D01*
X1400984Y0495421D01*
X1401269Y0495992D01*
X1401555Y0496849D01*
Y0498277D01*
X1401269Y0499134D01*
X1400984Y0499706D01*
X1400412Y0500277D01*
X1399841Y0500563D01*
X1398698D01*
X1402954D02*
Y0494564D01*
Y0500563D02*
X1405240Y0494564D01*
X1407525Y0500563D02*
X1405240Y0494564D01*
X1407525Y0500563D02*
Y0494564D01*
X1364546Y0544063D02*
X1368545Y0538064D01*
Y0544063D02*
X1364546Y0538064D01*
X1237296Y0345312D02*
X1241296Y0339314D01*
Y0345312D02*
X1237296Y0339314D01*
X1293553Y0616763D02*
X1297553Y0610764D01*
Y0616763D02*
X1293553Y0610764D01*
Y0585463D02*
X1297553Y0579464D01*
Y0585463D02*
X1293553Y0579464D01*
X1274446Y0544063D02*
X1278445Y0538064D01*
Y0544063D02*
X1274446Y0538064D01*
X1363546Y0500563D02*
X1367545Y0494564D01*
Y0500563D02*
X1363546Y0494564D01*
X1312546Y0500563D02*
X1316545Y0494564D01*
Y0500563D02*
X1312546Y0494564D01*
X1312442Y0483863D02*
X1316441Y0477864D01*
Y0483863D02*
X1312442Y0477864D01*
X1415102Y0345312D02*
X1419101Y0339314D01*
Y0345312D02*
X1415102Y0339314D01*
X1427282Y0343884D02*
Y0344170D01*
X1427568Y0344741D01*
X1427853Y0345027D01*
X1428425Y0345312D01*
X1429567D01*
X1430138Y0345027D01*
X1430424Y0344741D01*
X1430710Y0344170D01*
Y0343598D01*
X1430424Y0343027D01*
X1429853Y0342170D01*
X1426996Y0339314D01*
X1430995D01*
X1308246Y0432091D02*
Y0426092D01*
X1309503Y0432091D02*
Y0426092D01*
Y0432091D02*
X1311788Y0426092D01*
X1314073Y0432091D02*
X1311788Y0426092D01*
X1314073Y0432091D02*
Y0426092D01*
X1315787Y0432091D02*
Y0426092D01*
Y0432091D02*
X1318072Y0426092D01*
X1320358Y0432091D02*
X1318072Y0426092D01*
X1320358Y0432091D02*
Y0426092D01*
X1325785Y0432091D02*
X1322071D01*
Y0426092D01*
X1325785D01*
X1322071Y0429235D02*
X1324357D01*
X1326785Y0432091D02*
Y0426092D01*
Y0432091D02*
X1329356D01*
X1330213Y0431805D01*
X1330498Y0431520D01*
X1330784Y0430948D01*
Y0430377D01*
X1330498Y0429806D01*
X1330213Y0429520D01*
X1329356Y0429235D01*
X1326785D01*
X1328784D02*
X1330784Y0426092D01*
X1336126Y0431234D02*
X1335554Y0431805D01*
X1334697Y0432091D01*
X1333555D01*
X1332698Y0431805D01*
X1332127Y0431234D01*
Y0430663D01*
X1332412Y0430091D01*
X1332698Y0429806D01*
X1333269Y0429520D01*
X1334983Y0428949D01*
X1335554Y0428663D01*
X1335840Y0428377D01*
X1336126Y0427806D01*
Y0426949D01*
X1335554Y0426378D01*
X1334697Y0426092D01*
X1333555D01*
X1332698Y0426378D01*
X1332127Y0426949D01*
X1337468Y0432091D02*
Y0426092D01*
X1340439Y0432091D02*
X1339868Y0431805D01*
X1339296Y0431234D01*
X1339011Y0430663D01*
X1338725Y0429806D01*
Y0428377D01*
X1339011Y0427521D01*
X1339296Y0426949D01*
X1339868Y0426378D01*
X1340439Y0426092D01*
X1341582D01*
X1342153Y0426378D01*
X1342724Y0426949D01*
X1343010Y0427521D01*
X1343295Y0428377D01*
Y0429806D01*
X1343010Y0430663D01*
X1342724Y0431234D01*
X1342153Y0431805D01*
X1341582Y0432091D01*
X1340439D01*
X1344695D02*
Y0426092D01*
Y0432091D02*
X1348694Y0426092D01*
Y0432091D02*
Y0426092D01*
X1359349Y0430663D02*
X1359064Y0431234D01*
X1358492Y0431805D01*
X1357921Y0432091D01*
X1356778D01*
X1356207Y0431805D01*
X1355636Y0431234D01*
X1355350Y0430663D01*
X1355064Y0429806D01*
Y0428377D01*
X1355350Y0427521D01*
X1355636Y0426949D01*
X1356207Y0426378D01*
X1356778Y0426092D01*
X1357921D01*
X1358492Y0426378D01*
X1359064Y0426949D01*
X1359349Y0427521D01*
Y0428377D01*
X1357921D02*
X1359349D01*
X1362434Y0432091D02*
X1361863Y0431805D01*
X1361292Y0431234D01*
X1361006Y0430663D01*
X1360720Y0429806D01*
Y0428377D01*
X1361006Y0427521D01*
X1361292Y0426949D01*
X1361863Y0426378D01*
X1362434Y0426092D01*
X1363577D01*
X1364148Y0426378D01*
X1364719Y0426949D01*
X1365005Y0427521D01*
X1365291Y0428377D01*
Y0429806D01*
X1365005Y0430663D01*
X1364719Y0431234D01*
X1364148Y0431805D01*
X1363577Y0432091D01*
X1362434D01*
X1366691D02*
Y0426092D01*
X1370118D01*
X1370775Y0432091D02*
Y0426092D01*
Y0432091D02*
X1372775D01*
X1373632Y0431805D01*
X1374203Y0431234D01*
X1374489Y0430663D01*
X1374774Y0429806D01*
Y0428377D01*
X1374489Y0427521D01*
X1374203Y0426949D01*
X1373632Y0426378D01*
X1372775Y0426092D01*
X1370775D01*
X1382830Y0433234D02*
X1382259Y0432662D01*
X1381687Y0431805D01*
X1381116Y0430663D01*
X1380830Y0429235D01*
Y0428092D01*
X1381116Y0426664D01*
X1381687Y0425521D01*
X1382259Y0424664D01*
X1382830Y0424093D01*
X1382259Y0432662D02*
X1381687Y0431520D01*
X1381402Y0430663D01*
X1381116Y0429235D01*
Y0428092D01*
X1381402Y0426664D01*
X1381687Y0425807D01*
X1382259Y0424664D01*
X1387686Y0432091D02*
X1383972D01*
Y0426092D01*
X1387686D01*
X1383972Y0429235D02*
X1386258D01*
X1388686Y0432091D02*
Y0426092D01*
Y0432091D02*
X1392685Y0426092D01*
Y0432091D02*
Y0426092D01*
X1394342Y0432091D02*
Y0426092D01*
X1399883Y0430663D02*
X1399598Y0431234D01*
X1399026Y0431805D01*
X1398455Y0432091D01*
X1397313D01*
X1396741Y0431805D01*
X1396170Y0431234D01*
X1395884Y0430663D01*
X1395599Y0429806D01*
Y0428377D01*
X1395884Y0427521D01*
X1396170Y0426949D01*
X1396741Y0426378D01*
X1397313Y0426092D01*
X1398455D01*
X1399026Y0426378D01*
X1399598Y0426949D01*
X1399883Y0427521D01*
Y0428377D01*
X1398455D02*
X1399883D01*
X1401254Y0433234D02*
X1401826Y0432662D01*
X1402397Y0431805D01*
X1402968Y0430663D01*
X1403254Y0429235D01*
Y0428092D01*
X1402968Y0426664D01*
X1402397Y0425521D01*
X1401826Y0424664D01*
X1401254Y0424093D01*
X1401826Y0432662D02*
X1402397Y0431520D01*
X1402683Y0430663D01*
X1402968Y0429235D01*
Y0428092D01*
X1402683Y0426664D01*
X1402397Y0425807D01*
X1401826Y0424664D01*
X1401760Y0467943D02*
X1401189Y0467657D01*
X1400617Y0467086D01*
X1400332Y0466515D01*
X1400046Y0465658D01*
Y0464229D01*
X1400332Y0463373D01*
X1400617Y0462801D01*
X1401189Y0462230D01*
X1401760Y0461944D01*
X1402903D01*
X1403474Y0462230D01*
X1404045Y0462801D01*
X1404331Y0463373D01*
X1404616Y0464229D01*
Y0465658D01*
X1404331Y0466515D01*
X1404045Y0467086D01*
X1403474Y0467657D01*
X1402903Y0467943D01*
X1401760D01*
X1408016D02*
Y0461944D01*
X1406016Y0467943D02*
X1410015D01*
X1410729D02*
Y0461944D01*
X1414729Y0467943D02*
Y0461944D01*
X1410729Y0465086D02*
X1414729D01*
X1420099Y0467943D02*
X1416385D01*
Y0461944D01*
X1420099D01*
X1416385Y0465086D02*
X1418670D01*
X1421099Y0467943D02*
Y0461944D01*
Y0467943D02*
X1423670D01*
X1424526Y0467657D01*
X1424812Y0467372D01*
X1425098Y0466800D01*
Y0466229D01*
X1424812Y0465658D01*
X1424526Y0465372D01*
X1423670Y0465086D01*
X1421099D01*
X1423098D02*
X1425098Y0461944D01*
X1376146Y0382463D02*
X1380145Y0376464D01*
Y0382463D02*
X1376146Y0376464D01*
X1436542Y0326220D02*
X1439113D01*
X1439970Y0326506D01*
X1440256Y0326792D01*
X1440541Y0327363D01*
Y0328220D01*
X1440256Y0328791D01*
X1439970Y0329077D01*
X1439113Y0329363D01*
X1436542D01*
Y0323364D01*
X1445597Y0329363D02*
X1441884D01*
Y0323364D01*
X1445597D01*
X1441884Y0326506D02*
X1444169D01*
X1446597Y0329363D02*
Y0323364D01*
Y0329363D02*
X1449168D01*
X1450025Y0329077D01*
X1450311Y0328791D01*
X1450596Y0328220D01*
Y0327649D01*
X1450311Y0327077D01*
X1450025Y0326792D01*
X1449168Y0326506D01*
X1446597D01*
X1448597D02*
X1450596Y0323364D01*
X1458366Y0329363D02*
X1457795Y0329077D01*
X1457224Y0328506D01*
X1456938Y0327934D01*
X1456652Y0327077D01*
Y0325649D01*
X1456938Y0324792D01*
X1457224Y0324221D01*
X1457795Y0323650D01*
X1458366Y0323364D01*
X1459509D01*
X1460080Y0323650D01*
X1460651Y0324221D01*
X1460937Y0324792D01*
X1461223Y0325649D01*
Y0327077D01*
X1460937Y0327934D01*
X1460651Y0328506D01*
X1460080Y0329077D01*
X1459509Y0329363D01*
X1458366D01*
X1462622D02*
Y0323364D01*
Y0329363D02*
X1465193D01*
X1466050Y0329077D01*
X1466336Y0328791D01*
X1466621Y0328220D01*
Y0327649D01*
X1466336Y0327077D01*
X1466050Y0326792D01*
X1465193Y0326506D01*
X1462622D01*
X1464622D02*
X1466621Y0323364D01*
X1467964Y0329363D02*
Y0323364D01*
Y0329363D02*
X1469964D01*
X1470821Y0329077D01*
X1471392Y0328506D01*
X1471677Y0327934D01*
X1471963Y0327077D01*
Y0325649D01*
X1471677Y0324792D01*
X1471392Y0324221D01*
X1470821Y0323650D01*
X1469964Y0323364D01*
X1467964D01*
X1477019Y0329363D02*
X1473306D01*
Y0323364D01*
X1477019D01*
X1473306Y0326506D02*
X1475591D01*
X1478019Y0329363D02*
Y0323364D01*
Y0329363D02*
X1480590D01*
X1481447Y0329077D01*
X1481732Y0328791D01*
X1482018Y0328220D01*
Y0327649D01*
X1481732Y0327077D01*
X1481447Y0326792D01*
X1480590Y0326506D01*
X1478019D01*
X1480019D02*
X1482018Y0323364D01*
X1400446Y0697470D02*
Y0691471D01*
Y0697470D02*
X1402731Y0691471D01*
X1405016Y0697470D02*
X1402731Y0691471D01*
X1405016Y0697470D02*
Y0691471D01*
X1406730Y0697470D02*
Y0691471D01*
X1407987Y0697470D02*
Y0691471D01*
X1411415D01*
X1412643Y0691757D02*
X1412358Y0691471D01*
X1412072Y0691757D01*
X1412358Y0692043D01*
X1412643Y0691757D01*
Y0691186D01*
X1412358Y0690614D01*
X1412072Y0690329D01*
X1418671Y0697470D02*
Y0691471D01*
X1422670Y0697470D02*
Y0691471D01*
X1418671Y0694614D02*
X1422670D01*
X1426040Y0697470D02*
X1425469Y0697184D01*
X1424898Y0696613D01*
X1424612Y0696042D01*
X1424327Y0695185D01*
Y0693757D01*
X1424612Y0692900D01*
X1424898Y0692328D01*
X1425469Y0691757D01*
X1426040Y0691471D01*
X1427183D01*
X1427754Y0691757D01*
X1428326Y0692328D01*
X1428611Y0692900D01*
X1428897Y0693757D01*
Y0695185D01*
X1428611Y0696042D01*
X1428326Y0696613D01*
X1427754Y0697184D01*
X1427183Y0697470D01*
X1426040D01*
X1430297D02*
Y0691471D01*
X1433724D01*
X1438095Y0697470D02*
X1434381D01*
Y0691471D01*
X1438095D01*
X1434381Y0694614D02*
X1436667D01*
X1443094Y0696613D02*
X1442523Y0697184D01*
X1441666Y0697470D01*
X1440523D01*
X1439666Y0697184D01*
X1439095Y0696613D01*
Y0696042D01*
X1439380Y0695471D01*
X1439666Y0695185D01*
X1440237Y0694899D01*
X1441951Y0694328D01*
X1442523Y0694042D01*
X1442808Y0693757D01*
X1443094Y0693185D01*
Y0692328D01*
X1442523Y0691757D01*
X1441666Y0691471D01*
X1440523D01*
X1439666Y0691757D01*
X1439095Y0692328D01*
X1391219Y0696898D02*
X1387220D01*
Y0693899D01*
X1389219Y0694899D01*
X1390219D01*
X1391219Y0693899D01*
Y0691900D01*
X1390219Y0690900D01*
X1388220D01*
X1387220Y0691900D01*
X1361200Y0694399D02*
X1365199D01*
X1363199Y0696399D02*
Y0692400D01*
X1367198Y0691400D02*
X1371197Y0695399D01*
X1373196Y0694399D02*
X1377195D01*
X1329600Y0696899D02*
Y0690900D01*
Y0696899D02*
X1331885Y0690900D01*
X1334170Y0696899D02*
X1331885Y0690900D01*
X1334170Y0696899D02*
Y0690900D01*
X1339598Y0696899D02*
X1335884D01*
Y0690900D01*
X1339598D01*
X1335884Y0694042D02*
X1338170D01*
X1342597Y0696899D02*
Y0690900D01*
X1340598Y0696899D02*
X1344597D01*
X1349881Y0690900D02*
X1347596Y0696899D01*
X1345311Y0690900D01*
X1346168Y0692900D02*
X1349024D01*
X1351281Y0696899D02*
Y0690900D01*
X1354709D01*
X1446600Y0694399D02*
X1450599D01*
X1448599Y0696399D02*
Y0692400D01*
X1452598Y0691400D02*
X1456597Y0695399D01*
X1458596Y0694399D02*
X1462595D01*
X1470520Y0695899D02*
X1471520Y0696898D01*
X1473519D01*
X1474519Y0695899D01*
Y0694899D01*
X1473519Y0693899D01*
X1472519D01*
X1473519D01*
X1474519Y0692900D01*
Y0691900D01*
X1473519Y0690900D01*
X1471520D01*
X1470520Y0691900D01*
X1482146Y0696899D02*
Y0690900D01*
Y0696899D02*
X1484431Y0690900D01*
X1486716Y0696899D02*
X1484431Y0690900D01*
X1486716Y0696899D02*
Y0690900D01*
X1488430Y0696899D02*
Y0690900D01*
X1489687Y0696899D02*
Y0690900D01*
X1493115D01*
X0567400Y0087833D02*
Y0093831D01*
X0571399Y0087833D01*
Y0093831D01*
X0574398Y0087833D02*
X0576397D01*
X0577397Y0088833D01*
Y0090832D01*
X0576397Y0091832D01*
X0574398D01*
X0573398Y0090832D01*
Y0088833D01*
X0574398Y0087833D01*
X0580396Y0092832D02*
Y0091832D01*
X0579396D01*
X0581395D01*
X0580396D01*
Y0088833D01*
X0581395Y0087833D01*
X0590393Y0093831D02*
X0592392D01*
X0591392D01*
Y0087833D01*
X0590393D01*
X0592392D01*
X0595391D02*
Y0091832D01*
X0598390D01*
X0599390Y0090832D01*
Y0087833D01*
X0607387Y0093831D02*
Y0089833D01*
X0609386Y0087833D01*
X0611386Y0089833D01*
Y0093831D01*
X0616384Y0087833D02*
X0614385D01*
X0613385Y0088833D01*
Y0090832D01*
X0614385Y0091832D01*
X0616384D01*
X0617384Y0090832D01*
Y0089833D01*
X0613385D01*
X0619383Y0091832D02*
Y0087833D01*
Y0089833D01*
X0620383Y0090832D01*
X0621383Y0091832D01*
X0622382D01*
X0625381Y0087833D02*
X0628380D01*
X0629380Y0088833D01*
X0628380Y0089833D01*
X0626381D01*
X0625381Y0090832D01*
X0626381Y0091832D01*
X0629380D01*
X0631379Y0087833D02*
X0633379D01*
X0632379D01*
Y0091832D01*
X0631379D01*
X0637377Y0087833D02*
X0639377D01*
X0640376Y0088833D01*
Y0090832D01*
X0639377Y0091832D01*
X0637377D01*
X0636378Y0090832D01*
Y0088833D01*
X0637377Y0087833D01*
X0642376D02*
Y0091832D01*
X0645375D01*
X0646374Y0090832D01*
Y0087833D01*
X0652373Y0092832D02*
X0651373Y0093831D01*
X0649373D01*
X0648374Y0092832D01*
Y0088833D01*
X0649373Y0087833D01*
X0651373D01*
X0652373Y0088833D01*
X0655372Y0087833D02*
X0657371D01*
X0658371Y0088833D01*
Y0090832D01*
X0657371Y0091832D01*
X0655372D01*
X0654372Y0090832D01*
Y0088833D01*
X0655372Y0087833D01*
X0660370D02*
Y0091832D01*
X0663369D01*
X0664369Y0090832D01*
Y0087833D01*
X0667368Y0092832D02*
Y0091832D01*
X0666368D01*
X0668367D01*
X0667368D01*
Y0088833D01*
X0668367Y0087833D01*
X0671366Y0091832D02*
Y0087833D01*
Y0089833D01*
X0672366Y0090832D01*
X0673366Y0091832D01*
X0674365D01*
X0678364Y0087833D02*
X0680364D01*
X0681363Y0088833D01*
Y0090832D01*
X0680364Y0091832D01*
X0678364D01*
X0677364Y0090832D01*
Y0088833D01*
X0678364Y0087833D01*
X0683362D02*
X0685362D01*
X0684362D01*
Y0093831D01*
X0683362D01*
X0520799Y0092832D02*
X0519799Y0093831D01*
X0517800D01*
X0516800Y0092832D01*
Y0091832D01*
X0517800Y0090832D01*
X0519799D01*
X0520799Y0089833D01*
Y0088833D01*
X0519799Y0087833D01*
X0517800D01*
X0516800Y0088833D01*
X0522798Y0093831D02*
Y0089833D01*
X0524797Y0087833D01*
X0526797Y0089833D01*
Y0093831D01*
X0528796Y0087833D02*
Y0093831D01*
X0532795Y0087833D01*
Y0093831D01*
X0540792Y0087833D02*
Y0093831D01*
X0543791D01*
X0544791Y0092832D01*
Y0090832D01*
X0543791Y0089833D01*
X0540792D01*
X0542792D02*
X0544791Y0087833D01*
X0550789Y0093831D02*
X0546790D01*
Y0087833D01*
X0550789D01*
X0546790Y0090832D02*
X0548790D01*
X0552788Y0093831D02*
Y0089833D01*
X0554788Y0087833D01*
X0556787Y0089833D01*
Y0093831D01*
X0558786Y0091832D02*
X0559786D01*
Y0090832D01*
X0558786D01*
Y0091832D01*
Y0088833D02*
X0559786D01*
Y0087833D01*
X0558786D01*
Y0088833D01*
X0433000Y0087833D02*
Y0093831D01*
X0435999D01*
X0436999Y0092832D01*
Y0090832D01*
X0435999Y0089833D01*
X0433000D01*
X0434999D02*
X0436999Y0087833D01*
X0442997Y0093831D02*
X0438998D01*
Y0087833D01*
X0442997D01*
X0438998Y0090832D02*
X0440997D01*
X0444996Y0093831D02*
Y0089833D01*
X0446995Y0087833D01*
X0448995Y0089833D01*
Y0093831D01*
X0450994Y0091832D02*
X0451994D01*
Y0090832D01*
X0450994D01*
Y0091832D01*
Y0088833D02*
X0451994D01*
Y0087833D01*
X0450994D01*
Y0088833D01*
X0126900Y0046966D02*
Y0052965D01*
X0128899Y0050965D01*
X0130899Y0052965D01*
Y0046966D01*
X0136897Y0051965D02*
X0135897Y0052965D01*
X0133898D01*
X0132898Y0051965D01*
Y0047966D01*
X0133898Y0046966D01*
X0135897D01*
X0136897Y0047966D01*
X0138896Y0052965D02*
Y0047966D01*
X0139896Y0046966D01*
X0141895D01*
X0142895Y0047966D01*
Y0052965D01*
X0144894Y0051965D02*
X0145894Y0052965D01*
X0147893D01*
X0148893Y0051965D01*
Y0047966D01*
X0147893Y0046966D01*
X0145894D01*
X0144894Y0047966D01*
Y0051965D01*
X0154891Y0046966D02*
X0150892D01*
X0154891Y0050965D01*
Y0051965D01*
X0153891Y0052965D01*
X0151892D01*
X0150892Y0051965D01*
X0156890D02*
X0157890Y0052965D01*
X0159889D01*
X0160889Y0051965D01*
Y0050965D01*
X0159889Y0049966D01*
X0158890D01*
X0159889D01*
X0160889Y0048966D01*
Y0047966D01*
X0159889Y0046966D01*
X0157890D01*
X0156890Y0047966D01*
X0162888Y0046966D02*
X0164888D01*
X0163888D01*
Y0052965D01*
X0162888Y0051965D01*
X0167887Y0046966D02*
Y0047966D01*
X0168886D01*
Y0046966D01*
X0167887D01*
X0172885Y0051965D02*
X0173885Y0052965D01*
X0175884D01*
X0176884Y0051965D01*
Y0047966D01*
X0175884Y0046966D01*
X0173885D01*
X0172885Y0047966D01*
Y0051965D01*
X0178883Y0046966D02*
Y0047966D01*
X0179883D01*
Y0046966D01*
X0178883D01*
X0187880Y0051965D02*
X0186881Y0052965D01*
X0184881D01*
X0183882Y0051965D01*
Y0047966D01*
X0184881Y0046966D01*
X0186881D01*
X0187880Y0047966D01*
Y0049966D01*
X0185881D01*
X0189880Y0046966D02*
Y0052965D01*
X0191879Y0050965D01*
X0193878Y0052965D01*
Y0046966D01*
X0195878D02*
X0197877D01*
X0196877D01*
Y0052965D01*
X0195878Y0051965D01*
X0200876D02*
X0201876Y0052965D01*
X0203875D01*
X0204875Y0051965D01*
Y0047966D01*
X0203875Y0046966D01*
X0201876D01*
X0200876Y0047966D01*
Y0051965D01*
X0381150Y0046966D02*
X0383149D01*
X0382150D01*
Y0052965D01*
X0381150Y0051965D01*
X0386148D02*
X0387148Y0052965D01*
X0389147D01*
X0390147Y0051965D01*
Y0047966D01*
X0389147Y0046966D01*
X0387148D01*
X0386148Y0047966D01*
Y0051965D01*
X0392146Y0046966D02*
X0396145Y0050965D01*
X0398145Y0046966D02*
X0400144D01*
X0399144D01*
Y0052965D01*
X0398145Y0051965D01*
X0407142Y0046966D02*
X0403143D01*
X0407142Y0050965D01*
Y0051965D01*
X0406142Y0052965D01*
X0404143D01*
X0403143Y0051965D01*
X0409141Y0046966D02*
X0413140Y0050965D01*
X0419138Y0046966D02*
X0415139D01*
X0419138Y0050965D01*
Y0051965D01*
X0418138Y0052965D01*
X0416139D01*
X0415139Y0051965D01*
X0421137D02*
X0422137Y0052965D01*
X0424136D01*
X0425136Y0051965D01*
Y0047966D01*
X0424136Y0046966D01*
X0422137D01*
X0421137Y0047966D01*
Y0051965D01*
X0427135Y0046966D02*
X0429135D01*
X0428135D01*
Y0052965D01*
X0427135Y0051965D01*
X0432133Y0052965D02*
X0436132D01*
Y0051965D01*
X0432133Y0047966D01*
Y0046966D01*
X0298199Y0051965D02*
X0297199Y0052965D01*
X0295200D01*
X0294200Y0051965D01*
Y0047966D01*
X0295200Y0046966D01*
X0297199D01*
X0298199Y0047966D01*
Y0049966D01*
X0296199D01*
X0304197Y0052965D02*
X0300198D01*
Y0046966D01*
X0304197D01*
X0300198Y0049966D02*
X0302197D01*
X0306196Y0046966D02*
Y0052965D01*
X0310195Y0046966D01*
Y0052965D01*
X0316193D02*
X0312194D01*
Y0046966D01*
X0316193D01*
X0312194Y0049966D02*
X0314194D01*
X0318192Y0046966D02*
Y0052965D01*
X0321191D01*
X0322191Y0051965D01*
Y0049966D01*
X0321191Y0048966D01*
X0318192D01*
X0320192D02*
X0322191Y0046966D01*
X0324190D02*
Y0050965D01*
X0326190Y0052965D01*
X0328189Y0050965D01*
Y0046966D01*
Y0049966D01*
X0324190D01*
X0330188Y0052965D02*
X0334187D01*
X0332188D01*
Y0046966D01*
X0340185Y0052965D02*
X0336186D01*
Y0046966D01*
X0340185D01*
X0336186Y0049966D02*
X0338186D01*
X0342184Y0052965D02*
Y0046966D01*
X0345183D01*
X0346183Y0047966D01*
Y0051965D01*
X0345183Y0052965D01*
X0342184D01*
X0372175Y0050965D02*
X0373175D01*
Y0049966D01*
X0372175D01*
Y0050965D01*
Y0047966D02*
X0373175D01*
Y0046966D01*
X0372175D01*
Y0047966D01*
X0046350Y0087833D02*
Y0091832D01*
X0048349Y0093831D01*
X0050349Y0091832D01*
Y0087833D01*
Y0090832D01*
X0046350D01*
X0052348Y0093831D02*
Y0087833D01*
X0056347D01*
X0058346Y0093831D02*
Y0087833D01*
X0062345D01*
X0070342D02*
Y0091832D01*
X0072342Y0093831D01*
X0074341Y0091832D01*
Y0087833D01*
Y0090832D01*
X0070342D01*
X0076340Y0087833D02*
Y0093831D01*
X0079339D01*
X0080339Y0092832D01*
Y0090832D01*
X0079339Y0089833D01*
X0076340D01*
X0078340D02*
X0080339Y0087833D01*
X0082338Y0093831D02*
X0086337D01*
X0084338D01*
Y0087833D01*
X0088336Y0093831D02*
Y0087833D01*
X0090336Y0089833D01*
X0092335Y0087833D01*
Y0093831D01*
X0097334D02*
X0095334D01*
X0094335Y0092832D01*
Y0088833D01*
X0095334Y0087833D01*
X0097334D01*
X0098333Y0088833D01*
Y0092832D01*
X0097334Y0093831D01*
X0100332Y0087833D02*
Y0093831D01*
X0103332D01*
X0104331Y0092832D01*
Y0090832D01*
X0103332Y0089833D01*
X0100332D01*
X0102332D02*
X0104331Y0087833D01*
X0106331Y0093831D02*
Y0087833D01*
Y0089833D01*
X0110329Y0093831D01*
X0107330Y0090832D01*
X0110329Y0087833D01*
X0118327Y0093831D02*
Y0089833D01*
X0120326Y0087833D01*
X0122325Y0089833D01*
Y0093831D01*
X0124325D02*
X0126324D01*
X0125324D01*
Y0087833D01*
X0124325D01*
X0126324D01*
X0133322Y0093831D02*
X0129323D01*
Y0087833D01*
X0133322D01*
X0129323Y0090832D02*
X0131323D01*
X0135321Y0093831D02*
Y0087833D01*
X0137321Y0089833D01*
X0139320Y0087833D01*
Y0093831D01*
X0145318D02*
X0141319D01*
Y0087833D01*
X0145318D01*
X0141319Y0090832D02*
X0143319D01*
X0147317Y0093831D02*
Y0087833D01*
X0150316D01*
X0151316Y0088833D01*
Y0092832D01*
X0150316Y0093831D01*
X0147317D01*
X0163312D02*
X0159313D01*
Y0090832D01*
X0161313D01*
X0159313D01*
Y0087833D01*
X0165312D02*
Y0093831D01*
X0168310D01*
X0169310Y0092832D01*
Y0090832D01*
X0168310Y0089833D01*
X0165312D01*
X0167311D02*
X0169310Y0087833D01*
X0174309Y0093831D02*
X0172309D01*
X0171310Y0092832D01*
Y0088833D01*
X0172309Y0087833D01*
X0174309D01*
X0175308Y0088833D01*
Y0092832D01*
X0174309Y0093831D01*
X0177308Y0087833D02*
Y0093831D01*
X0179307Y0091832D01*
X0181306Y0093831D01*
Y0087833D01*
X0189304Y0093831D02*
X0193303D01*
X0191303D01*
Y0087833D01*
X0198301Y0093831D02*
X0196301D01*
X0195302Y0092832D01*
Y0088833D01*
X0196301Y0087833D01*
X0198301D01*
X0199301Y0088833D01*
Y0092832D01*
X0198301Y0093831D01*
X0201300Y0087833D02*
Y0093831D01*
X0204299D01*
X0205299Y0092832D01*
Y0090832D01*
X0204299Y0089833D01*
X0201300D01*
X0217295Y0092832D02*
X0216295Y0093831D01*
X0214296D01*
X0213296Y0092832D01*
Y0091832D01*
X0214296Y0090832D01*
X0216295D01*
X0217295Y0089833D01*
Y0088833D01*
X0216295Y0087833D01*
X0214296D01*
X0213296Y0088833D01*
X0219294Y0093831D02*
X0221293D01*
X0220294D01*
Y0087833D01*
X0219294D01*
X0221293D01*
X0224292Y0093831D02*
Y0087833D01*
X0227291D01*
X0228291Y0088833D01*
Y0092832D01*
X0227291Y0093831D01*
X0224292D01*
X0234289D02*
X0230291D01*
Y0087833D01*
X0234289D01*
X0230291Y0090832D02*
X0232290D01*
X0462150Y0087833D02*
X0464149D01*
X0463150D01*
Y0093831D01*
X0462150Y0092832D01*
X0467148Y0087833D02*
Y0088833D01*
X0468148D01*
Y0087833D01*
X0467148D01*
X0472147Y0092832D02*
X0473146Y0093831D01*
X0475146D01*
X0476146Y0092832D01*
Y0088833D01*
X0475146Y0087833D01*
X0473146D01*
X0472147Y0088833D01*
Y0092832D01*
X0348550Y0087833D02*
Y0093831D01*
X0350549Y0091832D01*
X0352549Y0093831D01*
Y0087833D01*
X0358547Y0092832D02*
X0357547Y0093831D01*
X0355548D01*
X0354548Y0092832D01*
Y0088833D01*
X0355548Y0087833D01*
X0357547D01*
X0358547Y0088833D01*
X0360546Y0093831D02*
Y0088833D01*
X0361546Y0087833D01*
X0363545D01*
X0364545Y0088833D01*
Y0093831D01*
X0366544Y0092832D02*
X0367544Y0093831D01*
X0369543D01*
X0370543Y0092832D01*
Y0088833D01*
X0369543Y0087833D01*
X0367544D01*
X0366544Y0088833D01*
Y0092832D01*
X0376541Y0087833D02*
X0372542D01*
X0376541Y0091832D01*
Y0092832D01*
X0375541Y0093831D01*
X0373542D01*
X0372542Y0092832D01*
X0378540D02*
X0379540Y0093831D01*
X0381539D01*
X0382539Y0092832D01*
Y0091832D01*
X0381539Y0090832D01*
X0380540D01*
X0381539D01*
X0382539Y0089833D01*
Y0088833D01*
X0381539Y0087833D01*
X0379540D01*
X0378540Y0088833D01*
X0294000Y0093831D02*
Y0087833D01*
X0296999D01*
X0297999Y0088833D01*
Y0089833D01*
X0296999Y0090832D01*
X0294000D01*
X0296999D01*
X0297999Y0091832D01*
Y0092832D01*
X0296999Y0093831D01*
X0294000D01*
X0302997D02*
X0300998D01*
X0299998Y0092832D01*
Y0088833D01*
X0300998Y0087833D01*
X0302997D01*
X0303997Y0088833D01*
Y0092832D01*
X0302997Y0093831D01*
X0305996Y0087833D02*
Y0091832D01*
X0307996Y0093831D01*
X0309995Y0091832D01*
Y0087833D01*
Y0090832D01*
X0305996D01*
X0311994Y0087833D02*
Y0093831D01*
X0314993D01*
X0315993Y0092832D01*
Y0090832D01*
X0314993Y0089833D01*
X0311994D01*
X0313994D02*
X0315993Y0087833D01*
X0317992Y0093831D02*
Y0087833D01*
X0320991D01*
X0321991Y0088833D01*
Y0092832D01*
X0320991Y0093831D01*
X0317992D01*
X0330988Y0087833D02*
Y0093831D01*
X0332987D02*
Y0087833D01*
X0329988Y0091832D02*
X0332987D01*
X0333987D01*
X0329988Y0089833D02*
X0333987D01*
X0335986Y0091832D02*
X0336986D01*
Y0090832D01*
X0335986D01*
Y0091832D01*
Y0088833D02*
X0336986D01*
Y0087833D01*
X0335986D01*
Y0088833D01*
X0046350Y0073549D02*
Y0067551D01*
X0050349D01*
X0052348D02*
Y0071549D01*
X0054347Y0073549D01*
X0056347Y0071549D01*
Y0067551D01*
Y0070550D01*
X0052348D01*
X0058346Y0073549D02*
Y0072549D01*
X0060346Y0070550D01*
X0062345Y0072549D01*
Y0073549D01*
X0060346Y0070550D02*
Y0067551D01*
X0068343Y0073549D02*
X0064344D01*
Y0067551D01*
X0068343D01*
X0064344Y0070550D02*
X0066343D01*
X0070342Y0067551D02*
Y0073549D01*
X0073341D01*
X0074341Y0072549D01*
Y0070550D01*
X0073341Y0069550D01*
X0070342D01*
X0072342D02*
X0074341Y0067551D01*
X0082338D02*
Y0073549D01*
X0086337Y0067551D01*
Y0073549D01*
X0088336Y0067551D02*
Y0071549D01*
X0090336Y0073549D01*
X0092335Y0071549D01*
Y0067551D01*
Y0070550D01*
X0088336D01*
X0094335Y0067551D02*
Y0073549D01*
X0096334Y0071549D01*
X0098333Y0073549D01*
Y0067551D01*
X0104331Y0073549D02*
X0100332D01*
Y0067551D01*
X0104331D01*
X0100332Y0070550D02*
X0102332D01*
X0112329Y0069550D02*
X0116327D01*
X0112329Y0071549D02*
X0116327D01*
X0046350Y0046966D02*
Y0052965D01*
X0049349D01*
X0050349Y0051965D01*
Y0049966D01*
X0049349Y0048966D01*
X0046350D01*
X0052348Y0052965D02*
Y0046966D01*
X0056347D01*
X0061345Y0052965D02*
X0059346D01*
X0058346Y0051965D01*
Y0047966D01*
X0059346Y0046966D01*
X0061345D01*
X0062345Y0047966D01*
Y0051965D01*
X0061345Y0052965D01*
X0064344D02*
X0068343D01*
X0066343D01*
Y0046966D01*
X0076340D02*
Y0052965D01*
X0080339Y0046966D01*
Y0052965D01*
X0082338Y0046966D02*
Y0050965D01*
X0084338Y0052965D01*
X0086337Y0050965D01*
Y0046966D01*
Y0049966D01*
X0082338D01*
X0088336Y0046966D02*
Y0052965D01*
X0090336Y0050965D01*
X0092335Y0052965D01*
Y0046966D01*
X0098333Y0052965D02*
X0094335D01*
Y0046966D01*
X0098333D01*
X0094335Y0049966D02*
X0096334D01*
X0106331Y0048966D02*
X0110329D01*
X0106331Y0050965D02*
X0110329D01*
X0454050Y0051965D02*
X0455050Y0052965D01*
X0457049D01*
X0458049Y0051965D01*
Y0050965D01*
X0457049Y0049966D01*
X0456049D01*
X0457049D01*
X0458049Y0048966D01*
Y0047966D01*
X0457049Y0046966D01*
X0455050D01*
X0454050Y0047966D01*
X0460048Y0050965D02*
X0461048D01*
Y0049966D01*
X0460048D01*
Y0050965D01*
Y0047966D02*
X0461048D01*
Y0046966D01*
X0460048D01*
Y0047966D01*
X0469045Y0046966D02*
X0465046D01*
X0469045Y0050965D01*
Y0051965D01*
X0468046Y0052965D01*
X0466046D01*
X0465046Y0051965D01*
X0471044Y0052965D02*
X0475043D01*
Y0051965D01*
X0471044Y0047966D01*
Y0046966D01*
X0477043Y0050965D02*
X0478042D01*
Y0049966D01*
X0477043D01*
Y0050965D01*
Y0047966D02*
X0478042D01*
Y0046966D01*
X0477043D01*
Y0047966D01*
X0486040Y0052965D02*
X0482041D01*
Y0049966D01*
X0484040Y0050965D01*
X0485040D01*
X0486040Y0049966D01*
Y0047966D01*
X0485040Y0046966D01*
X0483041D01*
X0482041Y0047966D01*
X0488039Y0051965D02*
X0489039Y0052965D01*
X0491038D01*
X0492038Y0051965D01*
Y0050965D01*
X0491038Y0049966D01*
X0490038D01*
X0491038D01*
X0492038Y0048966D01*
Y0047966D01*
X0491038Y0046966D01*
X0489039D01*
X0488039Y0047966D01*
X0500035Y0046966D02*
Y0052965D01*
X0503034D01*
X0504034Y0051965D01*
Y0049966D01*
X0503034Y0048966D01*
X0500035D01*
X0506033Y0046966D02*
Y0052965D01*
X0508033Y0050965D01*
X0510032Y0052965D01*
Y0046966D01*
X0580500Y0052965D02*
X0584499D01*
X0582499D01*
Y0046966D01*
X0590497Y0052965D02*
X0586498D01*
Y0046966D01*
X0590497D01*
X0586498Y0049966D02*
X0588497D01*
X0592496Y0052965D02*
X0596495Y0046966D01*
Y0052965D02*
X0592496Y0046966D01*
X0598494D02*
Y0050965D01*
X0600493Y0052965D01*
X0602493Y0050965D01*
Y0046966D01*
Y0049966D01*
X0598494D01*
X0608491Y0051965D02*
X0607491Y0052965D01*
X0605492D01*
X0604492Y0051965D01*
Y0050965D01*
X0605492Y0049966D01*
X0607491D01*
X0608491Y0048966D01*
Y0047966D01*
X0607491Y0046966D01*
X0605492D01*
X0604492Y0047966D01*
X0616488Y0052965D02*
X0618488D01*
X0617488D01*
Y0046966D01*
X0616488D01*
X0618488D01*
X0621487D02*
Y0052965D01*
X0625486Y0046966D01*
Y0052965D01*
X0631484Y0051965D02*
X0630484Y0052965D01*
X0628484D01*
X0627485Y0051965D01*
Y0050965D01*
X0628484Y0049966D01*
X0630484D01*
X0631484Y0048966D01*
Y0047966D01*
X0630484Y0046966D01*
X0628484D01*
X0627485Y0047966D01*
X0633483Y0052965D02*
X0637482D01*
X0635482D01*
Y0046966D01*
X0639481D02*
Y0052965D01*
X0642480D01*
X0643480Y0051965D01*
Y0049966D01*
X0642480Y0048966D01*
X0639481D01*
X0641480D02*
X0643480Y0046966D01*
X0645479Y0052965D02*
Y0047966D01*
X0646479Y0046966D01*
X0648478D01*
X0649478Y0047966D01*
Y0052965D01*
X0651477Y0046966D02*
Y0052965D01*
X0653476Y0050965D01*
X0655476Y0052965D01*
Y0046966D01*
X0661474Y0052965D02*
X0657475D01*
Y0046966D01*
X0661474D01*
X0657475Y0049966D02*
X0659474D01*
X0663473Y0046966D02*
Y0052965D01*
X0667472Y0046966D01*
Y0052965D01*
X0669471D02*
X0673470D01*
X0671471D01*
Y0046966D01*
X0679468Y0051965D02*
X0678468Y0052965D01*
X0676469D01*
X0675469Y0051965D01*
Y0050965D01*
X0676469Y0049966D01*
X0678468D01*
X0679468Y0048966D01*
Y0047966D01*
X0678468Y0046966D01*
X0676469D01*
X0675469Y0047966D01*
X0294000Y0073498D02*
X0297999D01*
X0295999D01*
Y0067500D01*
X0299998Y0073498D02*
X0301997D01*
X0300998D01*
Y0067500D01*
X0299998D01*
X0301997D01*
X0304996Y0073498D02*
Y0067500D01*
X0307996D01*
X0308995Y0068500D01*
Y0072498D01*
X0307996Y0073498D01*
X0304996D01*
X0317992Y0067500D02*
Y0073498D01*
X0319992D02*
Y0067500D01*
X0316993Y0071499D02*
X0319992D01*
X0320991D01*
X0316993Y0069499D02*
X0320991D01*
X0322991Y0071499D02*
X0323990D01*
Y0070499D01*
X0322991D01*
Y0071499D01*
Y0068500D02*
X0323990D01*
Y0067500D01*
X0322991D01*
Y0068500D01*
X0348550Y0067500D02*
Y0073498D01*
X0352549Y0067500D01*
Y0073498D01*
X0354548Y0067500D02*
X0358547Y0071499D01*
X0360546Y0067500D02*
Y0071499D01*
X0362545Y0073498D01*
X0364545Y0071499D01*
Y0067500D01*
Y0070499D01*
X0360546D01*
G54D59*
X1199200Y0242400D02*
X1498300D01*
X1199200Y0769600D02*
X1498300D01*
X1199200Y0673645D02*
X1498346D01*
X1199200Y0242400D02*
Y0783400D01*
X1498300D01*
Y0242400D02*
Y0783400D01*
M02*
