G04 Layer_Physical_Order=4*
G04 Layer_Color=16711680*
%FSAX25Y25*%
%MOIN*%
G70*
G01*
G75*
%ADD54C,0.01000*%
%ADD56C,0.01500*%
%ADD57C,0.00600*%
%ADD58C,0.00800*%
%ADD59C,0.02000*%
%ADD60C,0.02500*%
%ADD65C,0.08000*%
G04:AMPARAMS|DCode=66|XSize=59.06mil|YSize=59.06mil|CornerRadius=2.07mil|HoleSize=0mil|Usage=FLASHONLY|Rotation=270.000|XOffset=0mil|YOffset=0mil|HoleType=Round|Shape=RoundedRectangle|*
%AMROUNDEDRECTD66*
21,1,0.05906,0.05492,0,0,270.0*
21,1,0.05492,0.05906,0,0,270.0*
1,1,0.00413,-0.02746,-0.02746*
1,1,0.00413,-0.02746,0.02746*
1,1,0.00413,0.02746,0.02746*
1,1,0.00413,0.02746,-0.02746*
%
%ADD66ROUNDEDRECTD66*%
%ADD67C,0.05906*%
%ADD68C,0.06693*%
%ADD69R,0.06693X0.06693*%
%ADD70C,0.12000*%
%ADD71R,0.06102X0.06102*%
%ADD72C,0.06102*%
%ADD73O,0.04134X0.04921*%
%ADD74O,0.04823X0.07480*%
%ADD75C,0.05512*%
%ADD76C,0.14800*%
%ADD77C,0.08268*%
%ADD78R,0.06496X0.06496*%
%ADD79C,0.06496*%
G04:AMPARAMS|DCode=80|XSize=82.68mil|YSize=55.12mil|CornerRadius=27.56mil|HoleSize=0mil|Usage=FLASHONLY|Rotation=270.000|XOffset=0mil|YOffset=0mil|HoleType=Round|Shape=RoundedRectangle|*
%AMROUNDEDRECTD80*
21,1,0.08268,0.00000,0,0,270.0*
21,1,0.02756,0.05512,0,0,270.0*
1,1,0.05512,0.00000,-0.01378*
1,1,0.05512,0.00000,0.01378*
1,1,0.05512,0.00000,0.01378*
1,1,0.05512,0.00000,-0.01378*
%
%ADD80ROUNDEDRECTD80*%
G04:AMPARAMS|DCode=81|XSize=61.02mil|YSize=61.02mil|CornerRadius=15.26mil|HoleSize=0mil|Usage=FLASHONLY|Rotation=0.000|XOffset=0mil|YOffset=0mil|HoleType=Round|Shape=RoundedRectangle|*
%AMROUNDEDRECTD81*
21,1,0.06102,0.03051,0,0,0.0*
21,1,0.03051,0.06102,0,0,0.0*
1,1,0.03051,0.01526,-0.01526*
1,1,0.03051,-0.01526,-0.01526*
1,1,0.03051,-0.01526,0.01526*
1,1,0.03051,0.01526,0.01526*
%
%ADD81ROUNDEDRECTD81*%
G04:AMPARAMS|DCode=82|XSize=61.02mil|YSize=61.02mil|CornerRadius=1.83mil|HoleSize=0mil|Usage=FLASHONLY|Rotation=270.000|XOffset=0mil|YOffset=0mil|HoleType=Round|Shape=RoundedRectangle|*
%AMROUNDEDRECTD82*
21,1,0.06102,0.05736,0,0,270.0*
21,1,0.05736,0.06102,0,0,270.0*
1,1,0.00366,-0.02868,-0.02868*
1,1,0.00366,-0.02868,0.02868*
1,1,0.00366,0.02868,0.02868*
1,1,0.00366,0.02868,-0.02868*
%
%ADD82ROUNDEDRECTD82*%
%ADD83C,0.03900*%
%ADD84C,0.02800*%
%ADD85C,0.02400*%
%ADD86C,0.01969*%
%ADD88C,0.03100*%
G36*
X0251467Y0780382D02*
Y0773400D01*
X0245814D01*
X0245431Y0774324D01*
X0247354Y0776247D01*
X0247707Y0776776D01*
X0247763Y0777058D01*
X0247930Y0777170D01*
X0248461Y0777964D01*
X0248647Y0778900D01*
X0248461Y0779836D01*
X0247930Y0780630D01*
X0247136Y0781161D01*
X0246200Y0781347D01*
X0245264Y0781161D01*
X0244470Y0780630D01*
X0244296Y0780371D01*
X0243104D01*
X0242930Y0780630D01*
X0242136Y0781161D01*
X0241200Y0781347D01*
X0240264Y0781161D01*
X0239470Y0780630D01*
X0238939Y0779836D01*
X0238754Y0778905D01*
X0235827Y0775979D01*
X0232948D01*
X0232644Y0776979D01*
X0232930Y0777170D01*
X0233461Y0777964D01*
X0233647Y0778900D01*
X0233461Y0779836D01*
X0232930Y0780630D01*
X0232136Y0781161D01*
X0231200Y0781347D01*
X0230264Y0781161D01*
X0229470Y0780630D01*
X0229069Y0780031D01*
X0208126D01*
X0207913Y0780544D01*
X0207232Y0781432D01*
X0206344Y0782113D01*
X0205310Y0782542D01*
X0204200Y0782688D01*
X0203090Y0782542D01*
X0202056Y0782113D01*
X0201168Y0781432D01*
X0200487Y0780544D01*
X0200058Y0779510D01*
X0199912Y0778400D01*
X0200058Y0777290D01*
X0200102Y0777184D01*
X0199530Y0776329D01*
X0198870D01*
X0198298Y0777184D01*
X0198342Y0777290D01*
X0198488Y0778400D01*
X0198342Y0779510D01*
X0197913Y0780544D01*
X0197232Y0781432D01*
X0196344Y0782113D01*
X0195310Y0782542D01*
X0194200Y0782688D01*
X0193090Y0782542D01*
X0192056Y0782113D01*
X0191168Y0781432D01*
X0190487Y0780544D01*
X0190058Y0779510D01*
X0189912Y0778400D01*
X0190058Y0777290D01*
X0190080Y0777239D01*
X0189524Y0776366D01*
X0188985Y0776326D01*
X0188294Y0777175D01*
X0188342Y0777290D01*
X0188488Y0778400D01*
X0188342Y0779510D01*
X0187913Y0780544D01*
X0187232Y0781432D01*
X0186344Y0782113D01*
X0185310Y0782542D01*
X0184200Y0782688D01*
X0183090Y0782542D01*
X0182056Y0782113D01*
X0181168Y0781432D01*
X0180487Y0780544D01*
X0180058Y0779510D01*
X0179912Y0778400D01*
X0180058Y0777290D01*
X0180487Y0776256D01*
X0180560Y0776161D01*
X0180544Y0775684D01*
X0180156Y0775044D01*
X0179857Y0775050D01*
X0178129Y0776778D01*
X0178342Y0777290D01*
X0178488Y0778400D01*
X0178342Y0779510D01*
X0177913Y0780544D01*
X0177232Y0781432D01*
X0176344Y0782113D01*
X0175310Y0782542D01*
X0174200Y0782688D01*
X0173090Y0782542D01*
X0172056Y0782113D01*
X0171168Y0781432D01*
X0170487Y0780544D01*
X0170058Y0779510D01*
X0169912Y0778400D01*
X0170058Y0777290D01*
X0170487Y0776256D01*
X0171168Y0775368D01*
X0172056Y0774687D01*
X0172748Y0774400D01*
X0172549Y0773400D01*
X0165851D01*
X0165652Y0774400D01*
X0166344Y0774687D01*
X0167232Y0775368D01*
X0167913Y0776256D01*
X0168342Y0777290D01*
X0168488Y0778400D01*
X0168342Y0779510D01*
X0167913Y0780544D01*
X0167232Y0781432D01*
X0167184Y0781468D01*
X0171305Y0791769D01*
X0200404D01*
X0200470Y0791670D01*
X0201264Y0791139D01*
X0202200Y0790953D01*
X0203136Y0791139D01*
X0203930Y0791670D01*
X0203996Y0791769D01*
X0212024D01*
X0219276Y0784517D01*
X0219253Y0784400D01*
X0219439Y0783464D01*
X0219970Y0782670D01*
X0220764Y0782139D01*
X0221700Y0781953D01*
X0222636Y0782139D01*
X0223430Y0782670D01*
X0223961Y0783464D01*
X0224147Y0784400D01*
X0223961Y0785336D01*
X0223430Y0786130D01*
X0222636Y0786661D01*
X0221700Y0786847D01*
X0221583Y0786824D01*
X0213854Y0794554D01*
X0213477Y0794805D01*
X0213486Y0795439D01*
X0213605Y0795831D01*
X0213879Y0795867D01*
X0214511Y0796129D01*
X0215054Y0796546D01*
X0215471Y0797089D01*
X0215733Y0797721D01*
X0215822Y0798400D01*
X0215733Y0799079D01*
X0215471Y0799711D01*
X0215054Y0800254D01*
X0214511Y0800671D01*
X0214721Y0801667D01*
X0230182D01*
X0251467Y0780382D01*
D02*
G37*
G36*
X0309044Y0925871D02*
X0307739Y0925742D01*
X0306335Y0925316D01*
X0305041Y0924624D01*
X0303907Y0923693D01*
X0302976Y0922559D01*
X0302284Y0921265D01*
X0301858Y0919860D01*
X0301714Y0918400D01*
X0301858Y0916940D01*
X0302284Y0915535D01*
X0302976Y0914241D01*
X0303907Y0913107D01*
X0305041Y0912176D01*
X0306335Y0911484D01*
X0307739Y0911058D01*
X0309200Y0910914D01*
X0310661Y0911058D01*
X0312065Y0911484D01*
X0313359Y0912176D01*
X0314493Y0913107D01*
X0315424Y0914241D01*
X0316116Y0915535D01*
X0316542Y0916940D01*
X0316671Y0918244D01*
X0317671Y0918195D01*
X0317671Y0773400D01*
X0255151D01*
X0254933Y0773618D01*
Y0781100D01*
X0254801Y0781763D01*
X0254426Y0782326D01*
X0232126Y0804626D01*
X0231563Y0805001D01*
X0230900Y0805133D01*
X0194918D01*
X0172433Y0827618D01*
Y0888182D01*
X0179918Y0895667D01*
X0239700D01*
X0240363Y0895799D01*
X0240926Y0896174D01*
X0248240Y0903489D01*
X0248764Y0903139D01*
X0249700Y0902953D01*
X0250636Y0903139D01*
X0251430Y0903670D01*
X0251961Y0904464D01*
X0252147Y0905400D01*
X0251961Y0906336D01*
X0251430Y0907130D01*
X0250636Y0907661D01*
X0249700Y0907847D01*
X0248764Y0907661D01*
X0247974Y0907133D01*
X0247700D01*
X0247037Y0907001D01*
X0246474Y0906626D01*
X0238982Y0899133D01*
X0179200D01*
X0179200Y0899133D01*
X0178537Y0899001D01*
X0177974Y0898626D01*
X0177974Y0898626D01*
X0169474Y0890126D01*
X0169099Y0889563D01*
X0168967Y0888900D01*
Y0860975D01*
X0167967Y0860440D01*
X0167636Y0860661D01*
X0166700Y0860847D01*
X0165764Y0860661D01*
X0164970Y0860130D01*
X0164439Y0859336D01*
X0164253Y0858400D01*
X0164439Y0857464D01*
X0164957Y0856650D01*
X0164439Y0855836D01*
X0164253Y0854900D01*
X0164439Y0853964D01*
X0164957Y0853150D01*
X0164439Y0852336D01*
X0164253Y0851400D01*
X0164439Y0850464D01*
X0164957Y0849650D01*
X0164439Y0848836D01*
X0164253Y0847900D01*
X0164439Y0846964D01*
X0164970Y0846170D01*
X0165764Y0845639D01*
X0166700Y0845453D01*
X0167636Y0845639D01*
X0167967Y0845860D01*
X0168967Y0845325D01*
Y0837379D01*
X0167967Y0837076D01*
X0167930Y0837130D01*
X0167136Y0837661D01*
X0166200Y0837847D01*
X0165264Y0837661D01*
X0164470Y0837130D01*
X0163939Y0836336D01*
X0163753Y0835400D01*
X0163939Y0834464D01*
X0164470Y0833670D01*
X0165264Y0833139D01*
X0166200Y0832953D01*
X0167136Y0833139D01*
X0167930Y0833670D01*
X0167967Y0833724D01*
X0168967Y0833421D01*
Y0826900D01*
X0169099Y0826237D01*
X0169474Y0825674D01*
X0192974Y0802174D01*
X0193537Y0801799D01*
X0194200Y0801667D01*
X0211679D01*
X0211889Y0800671D01*
X0211346Y0800254D01*
X0210929Y0799711D01*
X0210667Y0799079D01*
X0210578Y0798400D01*
X0210667Y0797721D01*
X0210929Y0797089D01*
X0211346Y0796546D01*
X0211889Y0796129D01*
X0212124Y0796031D01*
X0211925Y0795031D01*
X0203996D01*
X0203930Y0795130D01*
X0203136Y0795661D01*
X0202200Y0795847D01*
X0201264Y0795661D01*
X0200470Y0795130D01*
X0200404Y0795031D01*
X0171831D01*
Y0815400D01*
X0171707Y0816024D01*
X0171353Y0816553D01*
X0168795Y0819113D01*
X0168733Y0819579D01*
X0168471Y0820211D01*
X0168054Y0820754D01*
X0167511Y0821171D01*
X0166879Y0821433D01*
X0166200Y0821522D01*
X0165521Y0821433D01*
X0164889Y0821171D01*
X0164346Y0820754D01*
X0163929Y0820211D01*
X0163667Y0819579D01*
X0163578Y0818900D01*
X0163667Y0818221D01*
X0163929Y0817589D01*
X0164346Y0817046D01*
X0164889Y0816629D01*
X0165521Y0816367D01*
X0166200Y0816278D01*
X0166879Y0816367D01*
X0166912Y0816381D01*
X0168569Y0814724D01*
Y0793714D01*
X0164156Y0782682D01*
X0163090Y0782542D01*
X0162056Y0782113D01*
X0161933Y0782019D01*
X0160933Y0782512D01*
Y0791900D01*
X0160801Y0792563D01*
X0160426Y0793126D01*
X0159991Y0793416D01*
X0153831Y0799576D01*
Y0825338D01*
X0154604Y0825972D01*
X0154700Y0825953D01*
X0155636Y0826139D01*
X0156430Y0826670D01*
X0156961Y0827464D01*
X0157147Y0828400D01*
X0156961Y0829336D01*
X0156430Y0830130D01*
X0155636Y0830661D01*
X0154700Y0830847D01*
X0154604Y0830828D01*
X0153831Y0831462D01*
Y0889224D01*
X0172376Y0907769D01*
X0233675D01*
X0233846Y0907546D01*
X0234389Y0907129D01*
X0235021Y0906867D01*
X0235700Y0906778D01*
X0236379Y0906867D01*
X0237011Y0907129D01*
X0237554Y0907546D01*
X0237971Y0908089D01*
X0238233Y0908721D01*
X0238322Y0909400D01*
X0238233Y0910079D01*
X0237971Y0910711D01*
X0237554Y0911254D01*
X0237011Y0911671D01*
X0236379Y0911933D01*
X0235700Y0912022D01*
X0235021Y0911933D01*
X0234389Y0911671D01*
X0233846Y0911254D01*
X0233675Y0911031D01*
X0171700D01*
X0171076Y0910907D01*
X0170546Y0910553D01*
X0151047Y0891053D01*
X0150693Y0890524D01*
X0150569Y0889900D01*
Y0798900D01*
X0150693Y0798276D01*
X0151047Y0797747D01*
X0157467Y0791326D01*
Y0782512D01*
X0156467Y0782019D01*
X0156344Y0782113D01*
X0155310Y0782542D01*
X0154200Y0782688D01*
X0153090Y0782542D01*
X0152056Y0782113D01*
X0151168Y0781432D01*
X0150487Y0780544D01*
X0150058Y0779510D01*
X0149912Y0778400D01*
X0150058Y0777290D01*
X0150487Y0776256D01*
X0151168Y0775368D01*
X0152056Y0774687D01*
X0152748Y0774400D01*
X0152549Y0773400D01*
X0145851D01*
X0145652Y0774400D01*
X0146344Y0774687D01*
X0147232Y0775368D01*
X0147913Y0776256D01*
X0148342Y0777290D01*
X0148488Y0778400D01*
X0148342Y0779510D01*
X0147913Y0780544D01*
X0147232Y0781432D01*
X0146344Y0782113D01*
X0145310Y0782542D01*
X0144200Y0782688D01*
X0143090Y0782542D01*
X0142056Y0782113D01*
X0141168Y0781432D01*
X0140487Y0780544D01*
X0140058Y0779510D01*
X0139912Y0778400D01*
X0140058Y0777290D01*
X0140487Y0776256D01*
X0141168Y0775368D01*
X0142056Y0774687D01*
X0142748Y0774400D01*
X0142549Y0773400D01*
X0135851D01*
X0135652Y0774400D01*
X0136344Y0774687D01*
X0137232Y0775368D01*
X0137913Y0776256D01*
X0138342Y0777290D01*
X0138488Y0778400D01*
X0138342Y0779510D01*
X0137913Y0780544D01*
X0137232Y0781432D01*
X0136344Y0782113D01*
X0135310Y0782542D01*
X0134200Y0782688D01*
X0133090Y0782542D01*
X0132056Y0782113D01*
X0131168Y0781432D01*
X0130487Y0780544D01*
X0130058Y0779510D01*
X0129912Y0778400D01*
X0130058Y0777290D01*
X0130487Y0776256D01*
X0131168Y0775368D01*
X0132056Y0774687D01*
X0132748Y0774400D01*
X0132549Y0773400D01*
X0125851D01*
X0125652Y0774400D01*
X0126344Y0774687D01*
X0127232Y0775368D01*
X0127913Y0776256D01*
X0128342Y0777290D01*
X0128488Y0778400D01*
X0128342Y0779510D01*
X0127913Y0780544D01*
X0127232Y0781432D01*
X0126344Y0782113D01*
X0125310Y0782542D01*
X0124200Y0782688D01*
X0123090Y0782542D01*
X0122056Y0782113D01*
X0121168Y0781432D01*
X0120487Y0780544D01*
X0120058Y0779510D01*
X0119912Y0778400D01*
X0120058Y0777290D01*
X0120487Y0776256D01*
X0121168Y0775368D01*
X0122056Y0774687D01*
X0122748Y0774400D01*
X0122549Y0773400D01*
X0070729D01*
Y0918195D01*
X0071729Y0918244D01*
X0071858Y0916940D01*
X0072284Y0915535D01*
X0072976Y0914241D01*
X0073907Y0913107D01*
X0075041Y0912176D01*
X0076335Y0911484D01*
X0077740Y0911058D01*
X0079200Y0910914D01*
X0080660Y0911058D01*
X0082065Y0911484D01*
X0083359Y0912176D01*
X0084493Y0913107D01*
X0085424Y0914241D01*
X0086116Y0915535D01*
X0086542Y0916940D01*
X0086686Y0918400D01*
X0086542Y0919860D01*
X0086116Y0921265D01*
X0085424Y0922559D01*
X0084493Y0923693D01*
X0083359Y0924624D01*
X0082065Y0925316D01*
X0080660Y0925742D01*
X0079356Y0925871D01*
X0079405Y0926871D01*
X0095671D01*
Y0924400D01*
X0095787Y0923815D01*
X0096039Y0923437D01*
X0095327Y0922891D01*
X0094693Y0922064D01*
X0094295Y0921102D01*
X0094159Y0920069D01*
Y0917313D01*
X0094295Y0916281D01*
X0094693Y0915318D01*
X0095327Y0914492D01*
X0096154Y0913858D01*
X0097116Y0913459D01*
X0098149Y0913323D01*
X0099181Y0913459D01*
X0099653Y0913655D01*
X0099674Y0913634D01*
X0100484Y0913092D01*
X0101440Y0912902D01*
X0125960D01*
X0126916Y0913092D01*
X0127726Y0913634D01*
X0127747Y0913655D01*
X0128218Y0913459D01*
X0129251Y0913323D01*
X0130284Y0913459D01*
X0131246Y0913858D01*
X0132073Y0914492D01*
X0132707Y0915318D01*
X0133105Y0916281D01*
X0133241Y0917313D01*
Y0920069D01*
X0133105Y0921102D01*
X0132707Y0922064D01*
X0132073Y0922891D01*
X0131360Y0923437D01*
X0131613Y0923815D01*
X0131729Y0924400D01*
Y0926871D01*
X0232700D01*
X0233914Y0926871D01*
X0236317Y0926518D01*
X0238644Y0925820D01*
X0240844Y0924792D01*
X0241858Y0924123D01*
X0241884Y0924113D01*
X0241905Y0924093D01*
X0243036Y0923406D01*
X0243115Y0923377D01*
X0243183Y0923327D01*
X0244840Y0922552D01*
X0245111Y0921322D01*
X0245077Y0921277D01*
X0244777Y0920554D01*
X0244675Y0919778D01*
X0244777Y0919002D01*
X0245077Y0918279D01*
X0245553Y0917659D01*
X0246174Y0917182D01*
X0246897Y0916883D01*
X0247672Y0916781D01*
X0248448Y0916883D01*
X0249171Y0917182D01*
X0249792Y0917659D01*
X0250268Y0918279D01*
X0250568Y0919002D01*
X0250670Y0919778D01*
X0250641Y0920000D01*
X0250928Y0920523D01*
X0250980Y0920586D01*
X0251260Y0920821D01*
X0251293Y0920840D01*
X0251491Y0920919D01*
X0252976D01*
X0253749Y0919919D01*
X0253730Y0919778D01*
X0253832Y0919002D01*
X0254132Y0918279D01*
X0254608Y0917659D01*
X0255229Y0917182D01*
X0255952Y0916883D01*
X0256728Y0916781D01*
X0257503Y0916883D01*
X0258226Y0917182D01*
X0258847Y0917659D01*
X0259323Y0918279D01*
X0259623Y0919002D01*
X0259725Y0919778D01*
X0259623Y0920554D01*
X0259426Y0921028D01*
X0259546Y0921734D01*
X0259817Y0922201D01*
X0259857Y0922224D01*
X0262217Y0923327D01*
X0262285Y0923377D01*
X0262364Y0923406D01*
X0263495Y0924093D01*
X0263516Y0924113D01*
X0263542Y0924123D01*
X0264556Y0924792D01*
X0266756Y0925820D01*
X0269082Y0926518D01*
X0271486Y0926871D01*
X0308995D01*
X0309044Y0925871D01*
D02*
G37*
%LPC*%
G36*
X0158700Y0818022D02*
X0158021Y0817933D01*
X0157389Y0817671D01*
X0156846Y0817254D01*
X0156429Y0816711D01*
X0156167Y0816079D01*
X0156078Y0815400D01*
X0156167Y0814721D01*
X0156429Y0814089D01*
X0156846Y0813546D01*
X0157389Y0813129D01*
X0158021Y0812867D01*
X0158700Y0812778D01*
X0159379Y0812867D01*
X0160011Y0813129D01*
X0160554Y0813546D01*
X0160971Y0814089D01*
X0161233Y0814721D01*
X0161322Y0815400D01*
X0161233Y0816079D01*
X0160971Y0816711D01*
X0160554Y0817254D01*
X0160011Y0817671D01*
X0159379Y0817933D01*
X0158700Y0818022D01*
D02*
G37*
G36*
X0084200D02*
X0083521Y0817933D01*
X0082889Y0817671D01*
X0082346Y0817254D01*
X0081929Y0816711D01*
X0081667Y0816079D01*
X0081578Y0815400D01*
X0081667Y0814721D01*
X0081929Y0814089D01*
X0082346Y0813546D01*
X0082889Y0813129D01*
X0083521Y0812867D01*
X0084200Y0812778D01*
X0084879Y0812867D01*
X0085511Y0813129D01*
X0086054Y0813546D01*
X0086471Y0814089D01*
X0086733Y0814721D01*
X0086822Y0815400D01*
X0086733Y0816079D01*
X0086471Y0816711D01*
X0086054Y0817254D01*
X0085511Y0817671D01*
X0084879Y0817933D01*
X0084200Y0818022D01*
D02*
G37*
G36*
X0096700Y0818847D02*
X0095764Y0818661D01*
X0094970Y0818130D01*
X0094439Y0817336D01*
X0094253Y0816400D01*
X0094439Y0815464D01*
X0094970Y0814670D01*
X0095764Y0814139D01*
X0096700Y0813953D01*
X0097636Y0814139D01*
X0098430Y0814670D01*
X0098961Y0815464D01*
X0099147Y0816400D01*
X0098961Y0817336D01*
X0098430Y0818130D01*
X0097636Y0818661D01*
X0096700Y0818847D01*
D02*
G37*
G36*
X0079200Y0834847D02*
X0078264Y0834661D01*
X0077470Y0834130D01*
X0076939Y0833336D01*
X0076753Y0832400D01*
X0076939Y0831464D01*
X0077470Y0830670D01*
X0078264Y0830139D01*
X0079200Y0829953D01*
X0080136Y0830139D01*
X0080930Y0830670D01*
X0081461Y0831464D01*
X0081647Y0832400D01*
X0081461Y0833336D01*
X0080930Y0834130D01*
X0080136Y0834661D01*
X0079200Y0834847D01*
D02*
G37*
G36*
X0094200Y0833847D02*
X0093264Y0833661D01*
X0092470Y0833130D01*
X0091939Y0832336D01*
X0091753Y0831400D01*
X0091939Y0830464D01*
X0092470Y0829670D01*
X0093264Y0829139D01*
X0094200Y0828953D01*
X0095136Y0829139D01*
X0095930Y0829670D01*
X0096461Y0830464D01*
X0096647Y0831400D01*
X0096461Y0832336D01*
X0095930Y0833130D01*
X0095136Y0833661D01*
X0094200Y0833847D01*
D02*
G37*
G36*
X0139700Y0793847D02*
X0138764Y0793661D01*
X0137970Y0793130D01*
X0137439Y0792336D01*
X0137253Y0791400D01*
X0137439Y0790464D01*
X0137970Y0789670D01*
X0138764Y0789139D01*
X0139700Y0788953D01*
X0140636Y0789139D01*
X0141430Y0789670D01*
X0141961Y0790464D01*
X0142147Y0791400D01*
X0141961Y0792336D01*
X0141430Y0793130D01*
X0140636Y0793661D01*
X0139700Y0793847D01*
D02*
G37*
G36*
X0109253Y0788347D02*
X0108317Y0788161D01*
X0107523Y0787630D01*
X0106992Y0786836D01*
X0106806Y0785900D01*
X0106992Y0784964D01*
X0107523Y0784170D01*
X0108317Y0783639D01*
X0109253Y0783453D01*
X0110189Y0783639D01*
X0110983Y0784170D01*
X0111514Y0784964D01*
X0111700Y0785900D01*
X0111514Y0786836D01*
X0110983Y0787630D01*
X0110189Y0788161D01*
X0109253Y0788347D01*
D02*
G37*
G36*
X0091200Y0800522D02*
X0090521Y0800433D01*
X0089889Y0800171D01*
X0089346Y0799754D01*
X0088929Y0799211D01*
X0088667Y0798579D01*
X0088578Y0797900D01*
X0088667Y0797221D01*
X0088929Y0796589D01*
X0089346Y0796046D01*
X0089889Y0795629D01*
X0090521Y0795367D01*
X0091200Y0795278D01*
X0091879Y0795367D01*
X0092511Y0795629D01*
X0093054Y0796046D01*
X0093471Y0796589D01*
X0093733Y0797221D01*
X0093822Y0797900D01*
X0093733Y0798579D01*
X0093471Y0799211D01*
X0093054Y0799754D01*
X0092511Y0800171D01*
X0091879Y0800433D01*
X0091200Y0800522D01*
D02*
G37*
G36*
X0118200Y0808347D02*
X0117264Y0808161D01*
X0116470Y0807630D01*
X0115939Y0806836D01*
X0115753Y0805900D01*
X0115939Y0804964D01*
X0116470Y0804170D01*
X0117264Y0803639D01*
X0118200Y0803453D01*
X0119136Y0803639D01*
X0119930Y0804170D01*
X0120461Y0804964D01*
X0120647Y0805900D01*
X0120461Y0806836D01*
X0119930Y0807630D01*
X0119136Y0808161D01*
X0118200Y0808347D01*
D02*
G37*
G36*
X0246200Y0808522D02*
X0245521Y0808433D01*
X0244889Y0808171D01*
X0244346Y0807754D01*
X0243929Y0807211D01*
X0243667Y0806579D01*
X0243578Y0805900D01*
X0243667Y0805221D01*
X0243929Y0804589D01*
X0244346Y0804046D01*
X0244889Y0803629D01*
X0245521Y0803367D01*
X0246200Y0803278D01*
X0246879Y0803367D01*
X0247511Y0803629D01*
X0248054Y0804046D01*
X0248471Y0804589D01*
X0248733Y0805221D01*
X0248822Y0805900D01*
X0248733Y0806579D01*
X0248471Y0807211D01*
X0248054Y0807754D01*
X0247511Y0808171D01*
X0246879Y0808433D01*
X0246200Y0808522D01*
D02*
G37*
G36*
X0079200Y0850847D02*
X0078264Y0850661D01*
X0077470Y0850130D01*
X0076939Y0849336D01*
X0076753Y0848400D01*
X0076939Y0847464D01*
X0077470Y0846670D01*
X0078264Y0846139D01*
X0079200Y0845953D01*
X0080136Y0846139D01*
X0080930Y0846670D01*
X0081461Y0847464D01*
X0081647Y0848400D01*
X0081461Y0849336D01*
X0080930Y0850130D01*
X0080136Y0850661D01*
X0079200Y0850847D01*
D02*
G37*
G36*
X0098200Y0899847D02*
X0097264Y0899661D01*
X0096470Y0899130D01*
X0095939Y0898336D01*
X0095753Y0897400D01*
X0095939Y0896464D01*
X0096470Y0895670D01*
X0097264Y0895139D01*
X0098200Y0894953D01*
X0099136Y0895139D01*
X0099930Y0895670D01*
X0100461Y0896464D01*
X0100647Y0897400D01*
X0100461Y0898336D01*
X0099930Y0899130D01*
X0099136Y0899661D01*
X0098200Y0899847D01*
D02*
G37*
G36*
X0087200Y0905077D02*
X0086378Y0904969D01*
X0085611Y0904652D01*
X0084953Y0904147D01*
X0084448Y0903489D01*
X0084131Y0902722D01*
X0084023Y0901900D01*
X0084131Y0901078D01*
X0084448Y0900311D01*
X0084313Y0899302D01*
X0083739Y0898861D01*
X0083298Y0898287D01*
X0083021Y0897618D01*
X0082926Y0896900D01*
X0083021Y0896182D01*
X0083298Y0895513D01*
X0083739Y0894939D01*
Y0893861D01*
X0082661D01*
X0082087Y0894302D01*
X0081418Y0894579D01*
X0080700Y0894674D01*
X0079982Y0894579D01*
X0079313Y0894302D01*
X0078739Y0893861D01*
X0078298Y0893287D01*
X0078021Y0892618D01*
X0077926Y0891900D01*
X0078021Y0891182D01*
X0078298Y0890513D01*
X0078739Y0889939D01*
X0079313Y0889498D01*
X0079982Y0889221D01*
X0080700Y0889126D01*
X0081418Y0889221D01*
X0082087Y0889498D01*
X0082661Y0889939D01*
X0083739D01*
Y0888861D01*
X0083298Y0888287D01*
X0083021Y0887618D01*
X0082926Y0886900D01*
X0083021Y0886182D01*
X0083298Y0885513D01*
X0083739Y0884939D01*
X0084313Y0884498D01*
X0084982Y0884221D01*
X0085700Y0884126D01*
X0086418Y0884221D01*
X0087087Y0884498D01*
X0087661Y0884939D01*
X0088102Y0885513D01*
X0088379Y0886182D01*
X0088474Y0886900D01*
X0088379Y0887618D01*
X0088102Y0888287D01*
X0087661Y0888861D01*
Y0889939D01*
X0088102Y0890513D01*
X0088379Y0891182D01*
X0088474Y0891900D01*
X0088379Y0892618D01*
X0088102Y0893287D01*
X0087661Y0893861D01*
Y0894939D01*
X0088102Y0895513D01*
X0088379Y0896182D01*
X0088474Y0896900D01*
X0088379Y0897618D01*
X0088261Y0897902D01*
X0088260Y0897908D01*
X0088567Y0898912D01*
X0088722Y0899121D01*
X0088789Y0899148D01*
X0089447Y0899653D01*
X0089951Y0900311D01*
X0090269Y0901078D01*
X0090377Y0901900D01*
X0090269Y0902722D01*
X0089951Y0903489D01*
X0089447Y0904147D01*
X0088789Y0904652D01*
X0088022Y0904969D01*
X0087200Y0905077D01*
D02*
G37*
G36*
X0079200D02*
X0078378Y0904969D01*
X0077611Y0904652D01*
X0076953Y0904147D01*
X0076449Y0903489D01*
X0076131Y0902722D01*
X0076023Y0901900D01*
X0076131Y0901078D01*
X0076449Y0900311D01*
X0076953Y0899653D01*
X0077611Y0899148D01*
X0078378Y0898831D01*
X0079200Y0898723D01*
X0080022Y0898831D01*
X0080789Y0899148D01*
X0081447Y0899653D01*
X0081951Y0900311D01*
X0082269Y0901078D01*
X0082377Y0901900D01*
X0082269Y0902722D01*
X0081951Y0903489D01*
X0081447Y0904147D01*
X0080789Y0904652D01*
X0080022Y0904969D01*
X0079200Y0905077D01*
D02*
G37*
G36*
X0113700Y0905347D02*
X0112764Y0905161D01*
X0112200Y0904784D01*
X0111636Y0905161D01*
X0110700Y0905347D01*
X0109764Y0905161D01*
X0108970Y0904630D01*
X0108439Y0903836D01*
X0108253Y0902900D01*
X0108283Y0902751D01*
X0107700Y0901847D01*
X0106764Y0901661D01*
X0105970Y0901130D01*
X0105439Y0900336D01*
X0105253Y0899400D01*
X0105439Y0898464D01*
X0105970Y0897670D01*
X0106064Y0896715D01*
X0102695Y0893346D01*
X0101764Y0893161D01*
X0100970Y0892630D01*
X0100439Y0891836D01*
X0100253Y0890900D01*
X0100439Y0889964D01*
X0100970Y0889170D01*
X0101764Y0888639D01*
X0102700Y0888453D01*
X0103636Y0888639D01*
X0104450Y0889157D01*
X0105264Y0888639D01*
X0106200Y0888453D01*
X0107136Y0888639D01*
X0107930Y0889170D01*
X0107987Y0889254D01*
X0108470Y0889670D01*
X0109264Y0889139D01*
X0110200Y0888953D01*
X0111136Y0889139D01*
X0111930Y0889670D01*
X0112461Y0890464D01*
X0112647Y0891400D01*
X0112461Y0892336D01*
X0112426Y0892388D01*
X0113052Y0893202D01*
X0113456D01*
X0114080Y0893326D01*
X0114610Y0893680D01*
X0114958Y0894028D01*
X0115879Y0893535D01*
X0115753Y0892900D01*
X0115939Y0891964D01*
X0116034Y0891822D01*
X0115567Y0890721D01*
X0115264Y0890661D01*
X0114470Y0890130D01*
X0113939Y0889336D01*
X0113753Y0888400D01*
X0113899Y0887668D01*
X0113917Y0887433D01*
X0113308Y0886609D01*
X0113033Y0886554D01*
X0112239Y0886024D01*
X0112072Y0885773D01*
X0111700Y0885847D01*
X0110764Y0885661D01*
X0109970Y0885130D01*
X0109439Y0884336D01*
X0109253Y0883400D01*
X0109439Y0882464D01*
X0109863Y0881829D01*
X0109682Y0881225D01*
X0109427Y0880829D01*
X0092721D01*
X0092135Y0880713D01*
X0091639Y0880381D01*
X0089187Y0877929D01*
X0088250D01*
X0088102Y0878287D01*
X0087661Y0878861D01*
X0087087Y0879302D01*
X0086418Y0879579D01*
X0085700Y0879674D01*
X0084982Y0879579D01*
X0084313Y0879302D01*
X0083739Y0878861D01*
X0082661D01*
Y0879939D01*
X0083102Y0880513D01*
X0083379Y0881182D01*
X0083474Y0881900D01*
X0083379Y0882618D01*
X0083102Y0883287D01*
X0082661Y0883861D01*
X0082087Y0884302D01*
X0081418Y0884579D01*
X0080700Y0884674D01*
X0079982Y0884579D01*
X0079313Y0884302D01*
X0078739Y0883861D01*
X0078298Y0883287D01*
X0078021Y0882618D01*
X0077926Y0881900D01*
X0078021Y0881182D01*
X0078298Y0880513D01*
X0078739Y0879939D01*
Y0879006D01*
X0078658Y0878756D01*
X0078470Y0878630D01*
X0077939Y0877836D01*
X0077753Y0876900D01*
X0077939Y0875964D01*
X0078470Y0875170D01*
X0078658Y0875044D01*
X0078739Y0874939D01*
X0079313Y0874498D01*
X0079806Y0874294D01*
X0080060Y0873975D01*
X0080316Y0873168D01*
X0080131Y0872722D01*
X0080023Y0871900D01*
X0080131Y0871078D01*
X0080449Y0870311D01*
X0080953Y0869653D01*
X0081611Y0869149D01*
X0082378Y0868831D01*
X0083200Y0868723D01*
X0084022Y0868831D01*
X0084789Y0869149D01*
X0085447Y0869653D01*
X0085952Y0870311D01*
X0086269Y0871078D01*
X0086377Y0871900D01*
X0086269Y0872722D01*
X0086153Y0873002D01*
X0086155Y0873041D01*
X0086669Y0874002D01*
X0086754Y0874063D01*
X0087136Y0874139D01*
X0087930Y0874670D01*
X0088064Y0874871D01*
X0089820D01*
X0090406Y0874987D01*
X0090902Y0875319D01*
X0093354Y0877771D01*
X0099283D01*
Y0866624D01*
X0099427Y0866479D01*
X0115200D01*
Y0877771D01*
X0119348D01*
X0121159Y0875959D01*
X0121032Y0874672D01*
X0120970Y0874630D01*
X0120439Y0873836D01*
X0120307Y0873169D01*
X0120264Y0873161D01*
X0119470Y0872630D01*
X0118939Y0871836D01*
X0118753Y0870900D01*
X0118939Y0869964D01*
X0119470Y0869170D01*
X0120264Y0868639D01*
X0120470Y0867630D01*
X0119939Y0866836D01*
X0119753Y0865900D01*
X0119939Y0864964D01*
X0120470Y0864170D01*
X0121264Y0863639D01*
X0122200Y0863453D01*
X0123136Y0863639D01*
X0123930Y0864170D01*
X0124461Y0864964D01*
X0125582Y0865476D01*
X0125700Y0865453D01*
X0126636Y0865639D01*
X0127430Y0866170D01*
X0127961Y0866964D01*
X0128147Y0867900D01*
X0127961Y0868836D01*
X0127430Y0869630D01*
X0127229Y0869765D01*
Y0873581D01*
X0127113Y0874166D01*
X0126781Y0874662D01*
X0121290Y0880154D01*
X0121138Y0880381D01*
X0121138Y0880381D01*
X0121138Y0880382D01*
X0120872Y0880559D01*
X0120642Y0880713D01*
X0120642Y0880713D01*
X0120642Y0880713D01*
X0120334Y0880774D01*
X0120057Y0880829D01*
X0116954D01*
X0116133Y0881829D01*
X0116147Y0881900D01*
X0115961Y0882836D01*
X0115921Y0882895D01*
X0116230Y0883357D01*
X0116416Y0884293D01*
X0116271Y0885025D01*
X0116253Y0885261D01*
X0116862Y0886085D01*
X0117136Y0886139D01*
X0117930Y0886670D01*
X0118461Y0887464D01*
X0118647Y0888400D01*
X0118461Y0889336D01*
X0118366Y0889478D01*
X0118833Y0890579D01*
X0119136Y0890639D01*
X0119930Y0891170D01*
X0120461Y0891964D01*
X0120518Y0892251D01*
X0120840Y0892187D01*
X0121777Y0892373D01*
X0122571Y0892904D01*
X0123101Y0893697D01*
X0123287Y0894634D01*
X0123101Y0895570D01*
X0122571Y0896364D01*
X0122737Y0897303D01*
X0122844Y0897464D01*
X0123030Y0898400D01*
X0122844Y0899336D01*
X0122313Y0900130D01*
X0121520Y0900661D01*
X0120583Y0900847D01*
X0119904Y0900712D01*
X0119255Y0901204D01*
X0119062Y0901473D01*
X0119147Y0901900D01*
X0118961Y0902836D01*
X0118430Y0903630D01*
X0117636Y0904161D01*
X0116700Y0904347D01*
X0115764Y0904161D01*
X0115750Y0904152D01*
X0115430Y0904630D01*
X0114636Y0905161D01*
X0113700Y0905347D01*
D02*
G37*
G36*
X0098200Y0905886D02*
X0097264Y0905700D01*
X0096470Y0905169D01*
X0095939Y0904376D01*
X0095753Y0903439D01*
X0095939Y0902503D01*
X0096470Y0901709D01*
X0097264Y0901178D01*
X0098200Y0900992D01*
X0099136Y0901178D01*
X0099930Y0901709D01*
X0100461Y0902503D01*
X0100647Y0903439D01*
X0100461Y0904376D01*
X0099930Y0905169D01*
X0099136Y0905700D01*
X0098200Y0905886D01*
D02*
G37*
G36*
X0127901Y0893847D02*
X0126964Y0893661D01*
X0126171Y0893130D01*
X0125640Y0892336D01*
X0125454Y0891400D01*
X0125640Y0890464D01*
X0126171Y0889670D01*
X0126964Y0889139D01*
X0127901Y0888953D01*
X0128837Y0889139D01*
X0129631Y0889670D01*
X0130161Y0890464D01*
X0130348Y0891400D01*
X0130161Y0892336D01*
X0129631Y0893130D01*
X0128837Y0893661D01*
X0127901Y0893847D01*
D02*
G37*
G36*
X0083200Y0865847D02*
X0082264Y0865661D01*
X0081470Y0865130D01*
X0080939Y0864336D01*
X0080753Y0863400D01*
X0080939Y0862464D01*
X0081470Y0861670D01*
X0082264Y0861139D01*
X0083200Y0860953D01*
X0084136Y0861139D01*
X0084930Y0861670D01*
X0085461Y0862464D01*
X0085647Y0863400D01*
X0085461Y0864336D01*
X0084930Y0865130D01*
X0084136Y0865661D01*
X0083200Y0865847D01*
D02*
G37*
G36*
X0104700Y0858825D02*
X0104021Y0858736D01*
X0103389Y0858474D01*
X0102846Y0858057D01*
X0102429Y0857514D01*
X0102167Y0856882D01*
X0102078Y0856203D01*
X0102167Y0855524D01*
X0102429Y0854892D01*
X0102846Y0854349D01*
X0103389Y0853932D01*
X0104021Y0853670D01*
X0104700Y0853581D01*
X0105379Y0853670D01*
X0106011Y0853932D01*
X0106554Y0854349D01*
X0106971Y0854892D01*
X0107233Y0855524D01*
X0107322Y0856203D01*
X0107233Y0856882D01*
X0106971Y0857514D01*
X0106554Y0858057D01*
X0106011Y0858474D01*
X0105379Y0858736D01*
X0104700Y0858825D01*
D02*
G37*
G36*
X0162700Y0868847D02*
X0161764Y0868661D01*
X0160970Y0868130D01*
X0160439Y0867336D01*
X0160253Y0866400D01*
X0160439Y0865464D01*
X0160970Y0864670D01*
X0161764Y0864139D01*
X0162700Y0863953D01*
X0163636Y0864139D01*
X0164430Y0864670D01*
X0164961Y0865464D01*
X0165147Y0866400D01*
X0164961Y0867336D01*
X0164430Y0868130D01*
X0163636Y0868661D01*
X0162700Y0868847D01*
D02*
G37*
G36*
X0136700Y0889347D02*
X0135764Y0889161D01*
X0134970Y0888630D01*
X0134439Y0887836D01*
X0134253Y0886900D01*
X0134439Y0885964D01*
X0134970Y0885170D01*
X0135764Y0884639D01*
X0136700Y0884453D01*
X0137636Y0884639D01*
X0138430Y0885170D01*
X0138961Y0885964D01*
X0139147Y0886900D01*
X0138961Y0887836D01*
X0138430Y0888630D01*
X0137636Y0889161D01*
X0136700Y0889347D01*
D02*
G37*
G36*
X0144200Y0876347D02*
X0143264Y0876161D01*
X0142470Y0875630D01*
X0141939Y0874836D01*
X0141753Y0873900D01*
X0141939Y0872964D01*
X0142470Y0872170D01*
X0143264Y0871639D01*
X0144200Y0871453D01*
X0145136Y0871639D01*
X0145930Y0872170D01*
X0146461Y0872964D01*
X0146647Y0873900D01*
X0146461Y0874836D01*
X0145930Y0875630D01*
X0145136Y0876161D01*
X0144200Y0876347D01*
D02*
G37*
%LPD*%
G54D54*
X0257200Y0768900D02*
X0286700D01*
X0159200Y0773400D02*
Y0791900D01*
Y0773400D02*
X0164200Y0768400D01*
X0102700Y0890900D02*
X0110700Y0898900D01*
Y0902900D01*
X0106200Y0890954D02*
X0113700Y0898454D01*
Y0902900D01*
X0179200Y0897400D02*
X0239700D01*
X0236647Y0774347D02*
X0241200Y0778900D01*
X0194200Y0803400D02*
X0230900D01*
X0253200Y0781100D01*
X0170700Y0826900D02*
X0194200Y0803400D01*
X0170700Y0826900D02*
Y0888900D01*
X0179200Y0897400D01*
X0239700D02*
X0247700Y0905400D01*
X0249700D01*
X0204200Y0284400D02*
X0211200Y0277400D01*
X0204200Y0284400D02*
Y0288400D01*
X0253200Y0772900D02*
X0257200Y0768900D01*
X0253200Y0772900D02*
Y0781100D01*
X0164200Y0755400D02*
Y0768400D01*
X0497200Y0080717D02*
Y0101050D01*
X0413200Y0080717D02*
Y0101050D01*
X0040000Y0080717D02*
X0700200D01*
X0040000Y0060383D02*
X0700000D01*
X0040000Y0040050D02*
X0440500D01*
X0040050Y0101050D02*
X0700200D01*
X0040050Y0040050D02*
Y0101050D01*
Y0040050D02*
X0197600D01*
X0040000D02*
Y0101050D01*
X0286500Y0040050D02*
Y0101050D01*
X0700200Y0040050D02*
Y0101050D01*
X0440500Y0040050D02*
X0700200D01*
X0559400Y0039400D02*
Y0059683D01*
G54D56*
X0298200Y0254400D02*
X0304200Y0248400D01*
X0192200Y0363400D02*
X0205956D01*
X0188200Y0367400D02*
X0192200Y0363400D01*
X0180200Y0367400D02*
X0188200D01*
X0172200Y0375400D02*
X0180200Y0367400D01*
X0162200Y0375400D02*
X0172200D01*
X0150273Y0387327D02*
X0162200Y0375400D01*
X0111273Y0387327D02*
X0150273D01*
X0111200Y0387400D02*
X0111273Y0387327D01*
X0216956Y0352400D02*
X0232200D01*
X0205956Y0363400D02*
X0216956Y0352400D01*
X0166928Y0389400D02*
X0173200D01*
X0163348Y0392980D02*
X0166928Y0389400D01*
X0157061Y0392980D02*
X0163348D01*
X0155391Y0394650D02*
X0157061Y0392980D01*
X0143450Y0394650D02*
X0155391D01*
X0140700Y0397400D02*
X0143450Y0394650D01*
X0127700Y0397400D02*
X0140700D01*
X0138200Y0522400D02*
X0144200Y0528400D01*
X0113200Y0522400D02*
X0138200D01*
X0134200Y0538400D02*
X0144200D01*
X0154200D01*
X0109200Y0546400D02*
X0114200D01*
X0135200Y0567400D01*
X0141700D01*
X0137200Y0563900D02*
X0144700D01*
X0309200Y0723400D02*
X0314200Y0728400D01*
X0119200D02*
X0124200Y0723400D01*
X0104200Y0728400D02*
X0119200D01*
X0124200Y0723400D02*
X0309200D01*
X0282700Y0258011D02*
X0286311Y0254400D01*
X0282700Y0258011D02*
Y0258400D01*
X0286311Y0254400D02*
X0298200D01*
G54D57*
X0231200Y0405900D02*
X0241200D01*
X0244000Y0403100D01*
X0229200Y0403400D02*
X0237400D01*
X0239900Y0400900D02*
X0241700D01*
X0237400Y0403400D02*
X0239900Y0400900D01*
X0232200Y0398400D02*
X0248700D01*
X0231703Y0397200D02*
X0249500D01*
X0231206Y0396000D02*
X0252800D01*
X0246700Y0407400D02*
X0249700D01*
X0243700Y0410400D02*
X0246700Y0407400D01*
X0252200Y0401900D02*
X0256200D01*
X0248700Y0398400D02*
X0252200Y0401900D01*
X0252700Y0400400D02*
X0262200D01*
X0249500Y0397200D02*
X0252700Y0400400D01*
X0252800Y0396000D02*
X0254700Y0397900D01*
X0244261Y0393900D02*
X0299200D01*
X0243761Y0393400D02*
X0244261Y0393900D01*
X0241700Y0393400D02*
X0243761D01*
X0281200Y0608400D02*
X0304200D01*
X0276900Y0612700D02*
X0281200Y0608400D01*
X0271200Y0612700D02*
X0276900D01*
X0267900Y0609400D02*
X0271200Y0612700D01*
X0278700Y0613400D02*
X0300700D01*
X0278200Y0613900D02*
X0278700Y0613400D01*
X0270200Y0613900D02*
X0278200D01*
X0269700Y0613400D02*
X0270200Y0613900D01*
X0259700Y0613400D02*
X0269700D01*
X0260200Y0609400D02*
X0267900D01*
X0202200Y0618400D02*
X0267200D01*
X0271500Y0622700D01*
X0277700D01*
X0204700Y0619900D02*
X0266500D01*
X0270500Y0623900D02*
X0306700D01*
X0266500Y0619900D02*
X0270500Y0623900D01*
X0282000Y0618400D02*
X0304200D01*
X0277700Y0622700D02*
X0282000Y0618400D01*
X0264700Y0606400D02*
X0268700D01*
X0271200Y0603900D01*
X0293700Y0585900D02*
X0296700Y0582900D01*
X0295700D02*
X0296700D01*
X0277200Y0585900D02*
X0293700D01*
X0260200Y0583400D02*
X0291700D01*
X0291200Y0587900D02*
X0303700D01*
X0290700Y0588400D02*
X0291200Y0587900D01*
X0262200Y0588400D02*
X0290700D01*
X0294700Y0598400D02*
X0304200D01*
X0180100Y0600800D02*
X0255800D01*
X0257700Y0602700D01*
X0309900D01*
X0183400Y0599600D02*
X0255700D01*
X0261200Y0594100D02*
X0308500D01*
X0255700Y0599600D02*
X0261200Y0594100D01*
X0185700Y0598400D02*
X0255200D01*
X0260700Y0592900D02*
X0307200D01*
X0255200Y0598400D02*
X0260700Y0592900D01*
X0101700Y0614900D02*
X0104000D01*
X0105000Y0615900D01*
X0107700D01*
X0101700Y0610900D02*
X0105200D01*
X0106700Y0612400D01*
X0126400Y0468400D02*
X0130900Y0463900D01*
X0178700D01*
X0193503Y0447900D02*
X0200003Y0454400D01*
X0171200Y0447900D02*
X0193503D01*
X0183700Y0450400D02*
X0186700Y0453400D01*
X0178200Y0450400D02*
X0183700D01*
X0109574Y0453077D02*
X0181377D01*
X0179324Y0454277D02*
X0186247Y0461200D01*
X0109077Y0454277D02*
X0179324D01*
X0178384Y0455477D02*
X0185507Y0462600D01*
X0108077Y0455477D02*
X0178384D01*
X0177887Y0456677D02*
X0186110Y0464900D01*
X0110323Y0456677D02*
X0177887D01*
X0190356Y0421900D02*
X0220212D01*
X0183856Y0415400D02*
X0190356Y0421900D01*
X0291700Y0432900D02*
X0297200Y0438400D01*
X0253200Y0288400D02*
X0304200D01*
X0246200Y0295400D02*
X0253200Y0288400D01*
X0251200Y0283400D02*
X0309200D01*
X0203200Y0304400D02*
X0299200D01*
X0299500Y0304100D01*
X0309900D01*
X0203200Y0300400D02*
X0205700Y0302900D01*
X0309700D02*
X0314200Y0298400D01*
X0205700Y0302900D02*
X0309700D01*
X0309900Y0304100D02*
X0314200Y0308400D01*
X0207700Y0308900D02*
X0294700D01*
X0205700Y0306900D02*
X0207700Y0308900D01*
X0223200Y0343400D02*
X0233153Y0333447D01*
X0295153D01*
X0199200Y0322400D02*
X0288200D01*
X0186200Y0335400D02*
X0199200Y0322400D01*
X0259200Y0376700D02*
X0287900D01*
X0291200Y0373400D01*
X0208289Y0363400D02*
X0309200D01*
X0206639Y0365050D02*
X0208289Y0363400D01*
X0107700Y0388400D02*
X0118000Y0398700D01*
X0124500D01*
X0115450Y0399900D02*
X0124003D01*
X0108950Y0393400D02*
X0115450Y0399900D01*
X0104200Y0398400D02*
X0106900Y0401100D01*
X0120953D01*
X0134200Y0430400D02*
X0136700Y0432900D01*
X0148200D02*
X0150500Y0430600D01*
X0136700Y0432900D02*
X0148200D01*
X0131700Y0425400D02*
X0137700Y0431400D01*
X0145700D02*
X0147700Y0429400D01*
X0137700Y0431400D02*
X0145700D01*
X0115900Y0443600D02*
X0157247D01*
X0158747Y0442100D02*
X0190602D01*
X0157247Y0443600D02*
X0158747Y0442100D01*
X0119200Y0442400D02*
X0156600D01*
X0158200Y0440800D01*
X0155200Y0440900D02*
X0156500Y0439600D01*
X0121589Y0440900D02*
X0155200D01*
X0111700Y0431011D02*
X0121589Y0440900D01*
X0113200Y0436400D02*
X0119200Y0442400D01*
X0112200Y0439900D02*
X0115900Y0443600D01*
X0210700Y0428400D02*
X0234700D01*
X0205400Y0423100D02*
X0210700Y0428400D01*
X0260700Y0424400D02*
X0266700D01*
X0254400Y0430700D02*
X0260700Y0424400D01*
X0211303Y0430700D02*
X0254400D01*
X0259450Y0428400D02*
X0264200D01*
X0255950Y0431900D02*
X0259450Y0428400D01*
X0210806Y0431900D02*
X0255950D01*
X0210309Y0433100D02*
X0254400D01*
X0258200Y0436900D01*
X0252347Y0434300D02*
X0257247Y0439200D01*
X0218553Y0434300D02*
X0252347D01*
X0203412Y0427900D02*
X0210912Y0435400D01*
X0214200D01*
X0211515Y0437700D02*
X0215153D01*
X0206715Y0432900D02*
X0211515Y0437700D01*
X0206218Y0434100D02*
X0211018Y0438900D01*
X0215650D01*
X0210521Y0440100D02*
X0216147D01*
X0205721Y0435300D02*
X0210521Y0440100D01*
X0217882Y0462718D02*
X0219300Y0461300D01*
X0244600D01*
X0244700Y0461400D01*
X0241797Y0463900D02*
X0244700D01*
X0240397Y0462500D02*
X0241797Y0463900D01*
X0219797Y0462500D02*
X0240397D01*
X0218379Y0463918D02*
X0219797Y0462500D01*
X0239900Y0463700D02*
X0242400Y0466200D01*
X0218876Y0465118D02*
X0220294Y0463700D01*
X0239900D01*
X0219373Y0466318D02*
X0220791Y0464900D01*
X0239403D02*
X0241903Y0467400D01*
X0220791Y0464900D02*
X0239403D01*
X0201747Y0467900D02*
X0203653D01*
X0185253Y0467200D02*
X0201047D01*
X0201747Y0467900D01*
X0184756Y0468400D02*
X0200550D01*
X0201468Y0469318D01*
X0219450Y0494650D02*
X0221200Y0492900D01*
X0198700Y0484400D02*
X0208950Y0494650D01*
X0219450D01*
X0218960Y0493140D02*
X0225200Y0486900D01*
X0216389Y0493140D02*
X0218960D01*
X0216230Y0493300D02*
X0216389Y0493140D01*
X0209600Y0493300D02*
X0216230D01*
X0199200Y0482900D02*
X0209600Y0493300D01*
X0222600Y0485400D02*
X0297200D01*
X0220500Y0483300D02*
X0222600Y0485400D01*
X0201600Y0483300D02*
X0220500D01*
X0200000Y0481700D02*
X0201600Y0483300D01*
X0185000Y0481700D02*
X0200000D01*
X0099200Y0673400D02*
X0109200D01*
X0117700Y0664900D02*
X0203200D01*
X0109200Y0673400D02*
X0117700Y0664900D01*
X0104200Y0658400D02*
X0108200Y0662400D01*
X0166200D01*
X0117700Y0644400D02*
X0170700D01*
X0113200Y0648900D02*
X0117700Y0644400D01*
X0135200Y0579900D02*
X0155200Y0599900D01*
X0130200Y0579900D02*
X0135200D01*
X0168700Y0584900D02*
X0183400Y0599600D01*
X0169700Y0590400D02*
X0180100Y0600800D01*
X0230200Y0595900D02*
X0253200D01*
X0129900Y0607100D02*
X0242400D01*
X0127700Y0604900D02*
X0129900Y0607100D01*
X0210200Y0603400D02*
X0248200D01*
X0252200Y0607400D01*
X0209200Y0605900D02*
X0245200D01*
X0246200Y0606900D01*
X0120700Y0633400D02*
X0128200Y0625900D01*
X0163200D01*
X0119700Y0629900D02*
X0131200Y0618400D01*
X0160700D01*
X0199200Y0631400D02*
X0216000Y0648200D01*
X0160700Y0631400D02*
X0199200D01*
X0218200Y0634900D02*
X0245500D01*
X0216200Y0632900D02*
X0218200Y0634900D01*
X0242400Y0607100D02*
X0247200Y0611900D01*
X0163200Y0625900D02*
X0186200D01*
X0160700Y0636400D02*
X0165700D01*
X0201200D01*
X0162200Y0639900D02*
X0168200D01*
X0160200Y0641900D02*
X0162200Y0639900D01*
X0168200D02*
X0201700D01*
X0170700Y0644400D02*
X0203700D01*
X0289700Y0693400D02*
X0299200D01*
X0274200Y0698400D02*
X0284700D01*
X0289700Y0693400D01*
X0261200Y0692900D02*
X0278450D01*
X0284200Y0694400D02*
X0288200Y0690400D01*
X0299700D01*
X0278450Y0692900D02*
X0279950Y0694400D01*
X0284200D01*
X0282200Y0691900D02*
X0285700Y0688400D01*
X0283700Y0581900D02*
X0287200Y0578400D01*
X0239200Y0581900D02*
X0283700D01*
X0265700Y0554400D02*
X0273200D01*
X0216200Y0547900D02*
X0259200D01*
X0265700Y0554400D01*
X0257950Y0511600D02*
X0296000D01*
X0296200Y0511400D02*
X0300700D01*
X0256950Y0510600D02*
X0257950Y0511600D01*
X0296000D02*
X0296200Y0511400D01*
X0299200Y0393900D02*
X0299212Y0393912D01*
X0226200Y0345400D02*
X0294200D01*
X0296200Y0343400D01*
X0294200Y0341100D02*
X0298900D01*
X0259200Y0342400D02*
X0292900D01*
X0294200Y0341100D01*
X0189200Y0316400D02*
X0290200D01*
X0186200Y0319400D02*
X0189200Y0316400D01*
X0199100Y0304900D02*
X0201100Y0306900D01*
X0205700D01*
X0196997Y0517400D02*
X0224700D01*
X0195700Y0518697D02*
X0196997Y0517400D01*
X0204700Y0520900D02*
X0206700D01*
X0208700Y0518900D01*
X0250700Y0498400D02*
X0265700D01*
X0248700Y0478400D02*
X0264200D01*
X0247200Y0479900D02*
X0248700Y0478400D01*
X0244700Y0479900D02*
X0247200D01*
X0258500Y0474100D02*
X0264200Y0468400D01*
X0225782Y0474100D02*
X0246900D01*
X0258500D01*
X0227103Y0472253D02*
X0243847D01*
X0244700Y0471400D01*
X0218200Y0470518D02*
X0222200D01*
X0225782Y0474100D01*
X0220200Y0472900D02*
X0223700Y0476400D01*
X0245700D01*
X0224168Y0469318D02*
X0227103Y0472253D01*
X0201468Y0469318D02*
X0224168D01*
X0215318Y0473400D02*
X0218200Y0470518D01*
X0181555Y0468755D02*
X0186200Y0473400D01*
X0215318D01*
X0133845Y0468755D02*
X0181555D01*
X0183700Y0473500D02*
X0184900Y0474700D01*
X0216803D02*
X0224503Y0482400D01*
X0184900Y0474700D02*
X0216803D01*
X0172300Y0473500D02*
X0183700D01*
X0224503Y0482400D02*
X0278700D01*
X0215200Y0475900D02*
X0223200Y0483900D01*
X0206830Y0475900D02*
X0215200D01*
X0203330Y0479400D02*
X0206830Y0475900D01*
X0187200Y0479400D02*
X0203330D01*
X0099200Y0473400D02*
X0107200D01*
X0114700Y0480900D02*
X0177200D01*
X0107200Y0473400D02*
X0114700Y0480900D01*
X0109700Y0470900D02*
X0116700Y0477900D01*
X0133700Y0475400D02*
X0183200D01*
X0187200Y0479400D01*
X0139700Y0493900D02*
X0203700D01*
X0207700Y0497900D01*
X0182200Y0484400D02*
X0198700D01*
X0182200Y0480900D02*
X0184200Y0482900D01*
X0199200D01*
X0181200Y0477900D02*
X0185000Y0481700D01*
X0116700Y0477900D02*
X0181200D01*
X0177200Y0480900D02*
X0182200D01*
X0201400Y0394544D02*
X0201622Y0394322D01*
X0260450Y0390900D02*
X0262250Y0392700D01*
X0201700Y0394400D02*
X0204700Y0391400D01*
X0226700D01*
X0227200Y0390900D01*
X0260450D01*
X0203700Y0387900D02*
X0208900Y0382700D01*
X0276900D01*
X0275600Y0381500D02*
X0277200Y0379900D01*
X0202400Y0381500D02*
X0275600D01*
X0186900Y0381700D02*
X0202200D01*
X0202400Y0381500D01*
X0189200Y0390400D02*
X0194200Y0395400D01*
X0196900D01*
X0185658Y0399158D02*
X0186800Y0400300D01*
X0175570Y0399158D02*
X0185658D01*
X0143200Y0406400D02*
X0149200D01*
X0173828Y0400900D02*
X0175570Y0399158D01*
X0154700Y0400900D02*
X0173828D01*
X0149200Y0406400D02*
X0154700Y0400900D01*
X0171697Y0399600D02*
X0178697Y0392600D01*
X0153759Y0399600D02*
X0171697D01*
X0153262Y0398400D02*
X0171200D01*
X0178200Y0391400D01*
X0149253Y0411100D02*
X0154453Y0416300D01*
X0141200Y0428900D02*
X0150700Y0419400D01*
X0179897Y0417900D02*
X0182700D01*
X0117077Y0448277D02*
X0155823D01*
X0112200Y0443400D02*
X0117077Y0448277D01*
X0109700Y0444609D02*
X0114568Y0449477D01*
X0159123D01*
X0108450Y0445056D02*
X0114071Y0450677D01*
X0161423D01*
X0113574Y0451877D02*
X0163723D01*
X0104200Y0442503D02*
X0113574Y0451877D01*
X0104200Y0448400D02*
X0104897D01*
X0109574Y0453077D01*
X0098700Y0452900D02*
X0107700D01*
X0109077Y0454277D01*
X0098500Y0454100D02*
X0106700D01*
X0108077Y0455477D01*
X0108600Y0458400D02*
X0110323Y0456677D01*
X0163600Y0423000D02*
X0180600D01*
X0160700Y0425900D02*
X0163600Y0423000D01*
X0168200Y0426400D02*
X0181700D01*
X0167700Y0425900D02*
X0168200Y0426400D01*
X0164700Y0425900D02*
X0167700D01*
X0180000Y0428200D02*
X0181000Y0429200D01*
X0158500Y0428200D02*
X0180000D01*
X0157200Y0426900D02*
X0158500Y0428200D01*
X0147700Y0429400D02*
X0179503D01*
X0150500Y0430600D02*
X0179006D01*
X0179503Y0429400D02*
X0180503Y0430400D01*
X0179006Y0430600D02*
X0180006Y0431600D01*
X0153800Y0432800D02*
X0183600D01*
X0153700Y0432900D02*
X0153800Y0432800D01*
X0157200Y0435900D02*
X0172200D01*
X0175200Y0416900D02*
X0177900Y0414200D01*
X0154200Y0438400D02*
X0174200D01*
X0175700Y0436900D01*
X0156500Y0439600D02*
X0195000D01*
X0158200Y0440800D02*
X0190998D01*
X0195000Y0439600D02*
X0197200Y0437400D01*
X0190998Y0440800D02*
X0194398Y0444200D01*
X0190602Y0442100D02*
X0193902Y0445400D01*
X0159123Y0449477D02*
X0163700Y0444900D01*
X0161423Y0450677D02*
X0167200Y0444900D01*
X0155823Y0448277D02*
X0159700Y0444400D01*
X0163723Y0451877D02*
X0167200Y0448400D01*
X0186900Y0446600D02*
X0193900D01*
X0184700Y0444400D02*
X0186900Y0446600D01*
X0171700Y0416800D02*
X0173700Y0414800D01*
X0171700Y0416800D02*
Y0416900D01*
X0179094Y0420400D02*
X0185200D01*
X0204903Y0424300D02*
X0211303Y0430700D01*
X0204406Y0425500D02*
X0210806Y0431900D01*
X0203909Y0426700D02*
X0210309Y0433100D01*
X0189700Y0432900D02*
X0206715D01*
X0191253Y0434100D02*
X0206218D01*
X0194300Y0435300D02*
X0205721D01*
X0196894Y0430400D02*
X0202200D01*
X0167700Y0577900D02*
Y0580400D01*
X0185700Y0598400D01*
X0131200Y0501400D02*
X0168200D01*
X0176200Y0509400D01*
X0257447D01*
X0155794Y0518100D02*
X0173900D01*
X0184200Y0528400D01*
X0096897Y0517597D02*
X0123200D01*
X0123303Y0517700D02*
X0131900D01*
X0167700Y0516900D02*
X0185003D01*
X0123200Y0517597D02*
X0123303Y0517700D01*
X0131900D02*
X0137200Y0512400D01*
X0163200D01*
X0167700Y0516900D01*
X0169200Y0514900D02*
X0184700D01*
X0166700Y0512400D02*
X0169200Y0514900D01*
X0137700Y0508400D02*
X0166700D01*
X0129700Y0512400D02*
X0137200Y0504900D01*
X0163200D01*
X0192200Y0515900D02*
X0196700D01*
X0273200Y0554400D02*
X0294700D01*
X0261200Y0452900D02*
X0283700D01*
X0288700D01*
X0283700Y0442400D02*
X0289700Y0448400D01*
X0304200D01*
X0284953Y0440400D02*
X0298200D01*
X0284653Y0440100D02*
X0284953Y0440400D01*
X0282747Y0440100D02*
X0284653D01*
X0282447Y0440400D02*
X0282747Y0440100D01*
X0278700Y0440400D02*
X0282447D01*
X0291700Y0473400D02*
X0299200D01*
X0287700D02*
X0291700D01*
X0294200Y0458400D02*
X0304200D01*
X0288700Y0452900D02*
X0294200Y0458400D01*
X0269400Y0454100D02*
X0273700Y0458400D01*
X0261500Y0454100D02*
X0269400D01*
X0260600Y0455000D02*
X0261500Y0454100D01*
X0260700Y0452400D02*
X0261200Y0452900D01*
X0297200Y0438400D02*
X0304200D01*
X0290200Y0402400D02*
X0292200D01*
X0293200Y0403400D02*
X0309200D01*
X0292200Y0402400D02*
X0293200Y0403400D01*
X0294700Y0453400D02*
X0309200D01*
X0285700Y0406400D02*
X0289200D01*
X0263309Y0402794D02*
X0282094D01*
X0285700Y0406400D01*
X0236200Y0590400D02*
X0259200D01*
X0265200D02*
X0293200D01*
X0264200Y0591400D02*
X0265200Y0590400D01*
X0260200Y0591400D02*
X0264200D01*
X0259200Y0590400D02*
X0260200Y0591400D01*
X0187700Y0627400D02*
X0206700D01*
X0212200Y0632900D02*
X0216200D01*
X0206700Y0627400D02*
X0212200Y0632900D01*
X0216000Y0648200D02*
X0240200D01*
X0201200Y0636400D02*
X0214200Y0649400D01*
X0212400Y0650600D02*
X0246197D01*
X0201700Y0639900D02*
X0212400Y0650600D01*
X0203700Y0644400D02*
X0211100Y0651800D01*
X0223200Y0640400D02*
X0239200D01*
X0267200Y0338400D02*
X0304200D01*
X0283200Y0760900D02*
X0291700D01*
X0178200Y0678900D02*
X0185200D01*
X0186200Y0679900D02*
X0189200D01*
X0185200Y0678900D02*
X0186200Y0679900D01*
X0294700Y0620900D02*
X0298700D01*
X0300200Y0622400D01*
X0309200D01*
X0306700Y0623900D02*
X0307700Y0624900D01*
X0118200Y0700400D02*
X0120500Y0702700D01*
X0260700Y0705400D02*
X0262200Y0703900D01*
X0112700Y0705400D02*
X0260700D01*
X0112700Y0710900D02*
X0239700D01*
X0089700Y0744400D02*
X0129200D01*
X0181700Y0567400D02*
X0183200Y0565900D01*
X0205700D01*
X0109700Y0423900D02*
Y0444609D01*
X0104200Y0418400D02*
X0109700Y0423900D01*
X0104200Y0429150D02*
X0108450Y0433400D01*
Y0445056D01*
X0104200Y0428400D02*
Y0429150D01*
Y0438400D02*
Y0442503D01*
Y0458400D02*
X0108600D01*
X0094200D02*
X0098500Y0454100D01*
X0094200Y0448400D02*
X0098700Y0452900D01*
X0224065Y0467518D02*
X0226500Y0469953D01*
X0231400D01*
X0182756Y0466400D02*
X0184756Y0468400D01*
X0181200Y0466400D02*
X0182756D01*
X0204034Y0467518D02*
X0224065D01*
X0203653Y0467900D02*
X0204034Y0467518D01*
X0181953Y0463900D02*
X0185253Y0467200D01*
X0178700Y0463900D02*
X0181953D01*
X0202700Y0465600D02*
X0204309D01*
X0205027Y0466318D01*
X0219373D01*
X0309700Y0463900D02*
X0314200Y0468400D01*
X0310200Y0462400D02*
X0314200Y0458400D01*
X0205524Y0465118D02*
X0218876D01*
X0199606Y0459200D02*
X0205524Y0465118D01*
X0193000Y0459200D02*
X0199606D01*
X0192200Y0458400D02*
X0193000Y0459200D01*
X0236944Y0455000D02*
X0246800D01*
X0234444Y0457500D02*
X0236944Y0455000D01*
X0223597Y0457500D02*
X0234444D01*
X0217997Y0451900D02*
X0223597Y0457500D01*
X0216200Y0451900D02*
X0217997D01*
X0245200Y0458900D02*
X0245700Y0458400D01*
X0223300Y0458900D02*
X0245200D01*
X0218800Y0454400D02*
X0223300Y0458900D01*
X0207094Y0454400D02*
X0218800D01*
X0206021Y0463918D02*
X0218379D01*
X0200103Y0458000D02*
X0206021Y0463918D01*
X0198512Y0458000D02*
X0200103D01*
X0196412Y0455900D02*
X0198512Y0458000D01*
X0189200Y0455900D02*
X0196412D01*
X0181377Y0453077D02*
X0187200Y0458900D01*
X0186247Y0461200D02*
X0189400D01*
X0192200Y0458400D01*
X0185507Y0462600D02*
X0189400D01*
X0186110Y0464900D02*
X0187700D01*
X0189400Y0462600D02*
X0191200Y0464400D01*
X0201700D01*
X0202700Y0465400D01*
X0251200Y0461400D02*
X0252200Y0462400D01*
X0244700Y0461400D02*
X0251200D01*
X0206518Y0462718D02*
X0217882D01*
X0200600Y0456800D02*
X0206518Y0462718D01*
X0199009Y0456800D02*
X0200600D01*
X0195609Y0453400D02*
X0199009Y0456800D01*
X0186700Y0453400D02*
X0195609D01*
X0205894Y0455600D02*
X0207094Y0454400D01*
X0199506Y0455600D02*
X0205894D01*
X0194806Y0450900D02*
X0199506Y0455600D01*
X0188700Y0450900D02*
X0194806D01*
X0218103Y0449500D02*
X0224903Y0456300D01*
X0210297Y0449500D02*
X0218103D01*
X0205397Y0454400D02*
X0210297Y0449500D01*
X0200003Y0454400D02*
X0205397D01*
X0209800Y0448300D02*
X0218600D01*
X0204900Y0453200D02*
X0209800Y0448300D01*
X0200500Y0453200D02*
X0204900D01*
X0193900Y0446600D02*
X0200500Y0453200D01*
X0193902Y0445400D02*
X0196200D01*
X0201700Y0450900D01*
X0194398Y0444200D02*
X0200500D01*
X0204200Y0447900D01*
X0150700Y0419400D02*
X0163700D01*
X0134700Y0434900D02*
X0150200D01*
X0309200Y0403400D02*
X0314200Y0408400D01*
X0296700Y0377900D02*
X0301700Y0382900D01*
X0257700Y0379900D02*
X0259700Y0377900D01*
X0296700D01*
X0201400Y0394544D02*
Y0394900D01*
X0208200Y0385400D02*
X0259700D01*
X0204019Y0389581D02*
X0208200Y0385400D01*
X0184200Y0379900D02*
X0257700D01*
X0299212Y0393912D02*
X0309712D01*
X0314200Y0398400D01*
X0184047Y0386300D02*
X0187447Y0382900D01*
X0166194Y0387800D02*
X0167694Y0386300D01*
X0184047D01*
X0167197Y0385100D02*
X0183500D01*
X0186900Y0381700D01*
X0277200Y0379900D02*
X0293700D01*
X0302200Y0388400D01*
X0304200D01*
X0187447Y0382900D02*
X0195700D01*
X0200700Y0387900D01*
X0203700D01*
X0197200Y0389581D02*
X0204019D01*
X0196035Y0388416D02*
X0197200Y0389581D01*
X0196035Y0388400D02*
Y0388416D01*
X0276900Y0382700D02*
X0278200Y0381400D01*
X0291200D01*
X0296200Y0386400D01*
X0259700Y0421400D02*
X0261200Y0422900D01*
X0266200D01*
X0270700Y0418400D01*
X0274200D01*
X0266700Y0424400D02*
X0268200Y0425900D01*
X0269953D01*
X0271453Y0424400D01*
X0279200D01*
X0281700Y0390900D02*
X0300200D01*
X0280700D02*
X0281700D01*
X0300200D02*
X0301700Y0392400D01*
X0310200D01*
X0314200Y0388400D01*
X0268700Y0383900D02*
X0279700D01*
X0264200Y0388400D02*
X0268700Y0383900D01*
X0296700Y0396400D02*
X0298700Y0398400D01*
X0304200D01*
X0182700Y0378400D02*
X0184200Y0379900D01*
X0182200Y0365400D02*
X0187200D01*
X0180700Y0363900D02*
X0182200Y0365400D01*
X0207000Y0349600D02*
X0264400D01*
X0187200Y0365400D02*
X0191200Y0361400D01*
X0195200D01*
X0198200Y0358400D01*
Y0358400D02*
Y0358400D01*
Y0358400D02*
X0207000Y0349600D01*
X0295200Y0354400D02*
X0301700D01*
X0264400Y0349600D02*
X0268700Y0353900D01*
X0271700D01*
X0272700Y0352900D01*
X0276700D01*
X0278700Y0354900D01*
X0295200D01*
X0278700Y0352400D02*
X0307200D01*
X0277700Y0351400D02*
X0278700Y0352400D01*
X0270200Y0351400D02*
X0277700D01*
X0301700Y0382900D02*
X0309700D01*
X0314200Y0378400D01*
X0282700Y0492900D02*
X0307700D01*
X0312200Y0488400D01*
X0314200D01*
X0297700Y0494400D02*
X0310200D01*
X0311200Y0493400D01*
X0302200Y0353900D02*
X0309700D01*
X0310200Y0353400D01*
X0295200Y0354400D02*
Y0354900D01*
X0301700Y0354400D02*
X0302200Y0353900D01*
X0307200Y0352400D02*
X0311200Y0348400D01*
X0314200D01*
X0308200Y0373400D02*
X0313200Y0368400D01*
X0259200Y0374400D02*
X0275200D01*
X0281200Y0368400D01*
X0304200D01*
X0165200Y0385400D02*
X0166700Y0383900D01*
X0173953D01*
X0178500Y0379353D01*
Y0372441D02*
Y0379353D01*
Y0372441D02*
X0178833Y0372107D01*
Y0371100D02*
Y0372107D01*
Y0371100D02*
X0180883Y0369050D01*
X0188883D01*
X0192883Y0365050D01*
X0206639D01*
X0309200Y0363400D02*
X0314200Y0358400D01*
X0263700D02*
X0304200D01*
X0149507Y0403853D02*
X0153759Y0399600D01*
X0178697Y0392600D02*
X0183500D01*
X0188200Y0387900D01*
X0195535D02*
X0196035Y0388400D01*
X0188200Y0387900D02*
X0195535D01*
X0089820Y0876400D02*
X0092721Y0879300D01*
X0120019Y0879262D02*
X0125700Y0873581D01*
X0120019Y0879262D02*
X0120057Y0879300D01*
X0092721D02*
X0120057D01*
X0086200Y0876276D02*
Y0876400D01*
X0089820D01*
X0125700Y0867900D02*
Y0873581D01*
X0213200Y0269400D02*
X0221200D01*
X0198108Y0253587D02*
X0205440Y0260920D01*
X0198108Y0248617D02*
Y0253587D01*
X0222960Y0260920D02*
X0230293Y0253587D01*
Y0248617D02*
Y0253587D01*
X0193200Y0377400D02*
X0205200D01*
X0214200Y0368400D01*
X0209200Y0299400D02*
X0210200Y0300400D01*
X0299200Y0292400D02*
X0310200D01*
X0314200Y0288400D01*
X0309200Y0283400D02*
X0314200Y0278400D01*
X0208247Y0297100D02*
X0210153D01*
X0207247Y0298100D02*
X0208247Y0297100D01*
X0204900Y0298100D02*
X0207247D01*
X0202200Y0295400D02*
X0204900Y0298100D01*
X0202200Y0290400D02*
Y0295400D01*
Y0290400D02*
X0204200Y0288400D01*
X0210153Y0297100D02*
X0211453Y0298400D01*
X0222200D01*
X0210200Y0300400D02*
X0220947D01*
X0221247Y0300700D01*
X0224900D01*
X0226200Y0299400D01*
X0204200Y0273400D02*
X0221947D01*
X0198200Y0267400D02*
X0204200Y0273400D01*
X0190200Y0267400D02*
X0198200D01*
X0176200Y0348400D02*
X0304200D01*
X0230800Y0298000D02*
X0293600D01*
X0228200Y0295400D02*
X0230800Y0298000D01*
X0206200Y0295400D02*
X0228200D01*
X0293600Y0298000D02*
X0299200Y0292400D01*
X0240200Y0294400D02*
X0251200Y0283400D01*
X0232200Y0294400D02*
X0240200D01*
X0185200Y0319400D02*
X0186200D01*
X0179200Y0331400D02*
Y0332733D01*
X0183200Y0336733D01*
Y0338400D01*
X0181200Y0373400D02*
X0188838D01*
X0191200Y0371038D01*
X0201562D01*
X0270200Y0438400D02*
X0274200D01*
X0266200Y0442400D02*
X0270200Y0438400D01*
X0309200Y0313400D02*
X0314200Y0318400D01*
X0277200Y0313400D02*
X0309200D01*
Y0323400D02*
X0314200Y0328400D01*
X0288400Y0319600D02*
X0292200Y0323400D01*
X0285703Y0319600D02*
X0288400D01*
X0285503Y0319400D02*
X0285703Y0319600D01*
X0281200Y0319400D02*
X0285503D01*
X0292200Y0323400D02*
X0309200D01*
X0290200Y0316400D02*
X0292200Y0318400D01*
X0304200D01*
X0294200Y0328400D02*
X0304200D01*
X0288200Y0322400D02*
X0294200Y0328400D01*
X0182200Y0391400D02*
X0188200Y0385400D01*
X0178200Y0391400D02*
X0182200D01*
X0149010Y0402653D02*
X0153262Y0398400D01*
X0309200Y0343400D02*
X0314200Y0338400D01*
X0301200Y0343400D02*
X0309200D01*
X0298900Y0341100D02*
X0301200Y0343400D01*
X0214200Y0413400D02*
X0225200D01*
X0228200Y0410400D01*
X0211200D02*
X0225200D01*
X0226400Y0409200D01*
X0231400D01*
X0232800Y0407800D01*
X0274200Y0468400D02*
X0296700D01*
X0309200Y0453400D02*
X0314200Y0448400D01*
X0258200Y0405900D02*
X0260203D01*
X0263309Y0402794D01*
X0298200Y0440400D02*
X0301200Y0443400D01*
X0276200Y0442900D02*
X0278700Y0440400D01*
X0272700Y0442900D02*
X0276200D01*
X0271700Y0443900D02*
X0272700Y0442900D01*
X0262200Y0443900D02*
X0271700D01*
X0253200Y0449400D02*
X0254700Y0450900D01*
X0237453Y0449400D02*
X0253200D01*
X0232953Y0453900D02*
X0237453Y0449400D01*
X0225700Y0449900D02*
X0229700Y0453900D01*
X0232953D01*
X0223700Y0449900D02*
X0225700D01*
X0300700Y0414900D02*
X0304200Y0418400D01*
X0276200Y0422900D02*
X0284200Y0414900D01*
X0269700Y0422900D02*
X0276200D01*
X0269200Y0423400D02*
X0269700Y0422900D01*
X0284200Y0414900D02*
X0300700D01*
X0262200Y0400400D02*
X0264200Y0398400D01*
X0244000Y0403100D02*
X0255400D01*
X0258200Y0405900D01*
X0228200Y0410400D02*
X0243700D01*
X0232800Y0407800D02*
X0241700D01*
X0244900Y0404600D01*
X0253150D01*
X0257700Y0403400D02*
X0259450D01*
X0256200Y0401900D02*
X0257700Y0403400D01*
X0256700Y0377400D02*
X0258500D01*
X0259200Y0376700D01*
X0253150Y0404600D02*
X0257950Y0409400D01*
X0258700D01*
X0262250Y0392700D02*
X0269900D01*
X0274200Y0388400D01*
X0226700Y0405900D02*
X0229200Y0403400D01*
X0214450Y0405900D02*
X0226700D01*
X0212450Y0403900D02*
X0214450Y0405900D01*
X0202200Y0403900D02*
X0212450D01*
X0225900Y0404700D02*
X0232200Y0398400D01*
X0214947Y0404700D02*
X0225900D01*
X0212947Y0402700D02*
X0214947Y0404700D01*
X0193097Y0402700D02*
X0212947D01*
X0225403Y0403500D02*
X0231703Y0397200D01*
X0215444Y0403500D02*
X0225403D01*
X0213444Y0401500D02*
X0215444Y0403500D01*
X0192600Y0401500D02*
X0213444D01*
X0224906Y0402300D02*
X0231206Y0396000D01*
X0215941Y0402300D02*
X0224906D01*
X0213941Y0400300D02*
X0215941Y0402300D01*
X0194200Y0411900D02*
Y0412400D01*
Y0411900D02*
X0202200Y0403900D01*
X0186800Y0400300D02*
X0213941D01*
X0188700Y0405400D02*
X0192600Y0401500D01*
X0186700Y0405400D02*
X0188700D01*
X0183200Y0401900D02*
X0186700Y0405400D01*
X0180400Y0401900D02*
X0183200D01*
X0189197Y0406600D02*
X0193097Y0402700D01*
X0185900Y0406600D02*
X0189197D01*
X0184700Y0405400D02*
X0185900Y0406600D01*
X0180200Y0405400D02*
X0184700D01*
X0175453Y0409400D02*
X0189700D01*
X0173653Y0411200D02*
X0175453Y0409400D01*
X0171000Y0411200D02*
X0173653D01*
X0169700Y0409900D02*
X0171000Y0411200D01*
X0162700Y0409900D02*
X0169700D01*
X0187400Y0410600D02*
X0189700Y0412900D01*
X0175950Y0410600D02*
X0187400D01*
X0174150Y0412400D02*
X0175950Y0410600D01*
X0170503Y0412400D02*
X0174150D01*
X0169203Y0411100D02*
X0170503Y0412400D01*
X0163197Y0411100D02*
X0169203D01*
X0279200Y0424400D02*
X0285700Y0417900D01*
Y0417400D02*
Y0417900D01*
X0264200Y0408400D02*
X0268200Y0404400D01*
X0278700D01*
X0279700Y0405400D01*
X0283200Y0413400D02*
X0309200D01*
X0280700Y0410900D02*
X0283200Y0413400D01*
X0278200Y0410900D02*
X0280700D01*
X0276200Y0412900D02*
X0278200Y0410900D01*
X0232200Y0412900D02*
X0276200D01*
X0278500Y0414100D02*
X0279200Y0413400D01*
X0268500Y0414100D02*
X0278500D01*
X0264200Y0418400D02*
X0268500Y0414100D01*
X0229200Y0415900D02*
X0232200Y0412900D01*
X0260900Y0411700D02*
X0264200Y0408400D01*
X0230147Y0411700D02*
X0260900D01*
X0227247Y0414600D02*
X0230147Y0411700D01*
X0223500Y0414600D02*
X0227247D01*
X0222200Y0415900D02*
X0223500Y0414600D01*
X0211700Y0415900D02*
X0222200D01*
X0209200Y0413400D02*
X0211700Y0415900D01*
X0196453Y0413400D02*
X0209200D01*
X0259900Y0414100D02*
X0264200Y0418400D01*
X0234500Y0414100D02*
X0259900D01*
X0230200Y0418400D02*
X0234500Y0414100D01*
X0223500Y0418400D02*
X0230200D01*
X0222200Y0417100D02*
X0223500Y0418400D01*
X0211203Y0417100D02*
X0222200D01*
X0208703Y0414600D02*
X0211203Y0417100D01*
X0196950Y0414600D02*
X0208703D01*
X0253600Y0415300D02*
X0259700Y0421400D01*
X0234997Y0415300D02*
X0253600D01*
X0230697Y0419600D02*
X0234997Y0415300D01*
X0223003Y0419600D02*
X0230697D01*
X0221703Y0418300D02*
X0223003Y0419600D01*
X0210706Y0418300D02*
X0221703D01*
X0208206Y0415800D02*
X0210706Y0418300D01*
X0197447Y0415800D02*
X0208206D01*
X0199300Y0418900D02*
X0201200Y0417000D01*
X0207709D01*
X0210209Y0419500D01*
X0221206D01*
X0222506Y0420800D01*
X0231194D01*
X0235494Y0416500D01*
X0240800D01*
X0247700Y0423400D01*
X0237500Y0417700D02*
X0246700Y0426900D01*
X0235991Y0417700D02*
X0237500D01*
X0231691Y0422000D02*
X0235991Y0417700D01*
X0222009Y0422000D02*
X0231691D01*
X0220709Y0420700D02*
X0222009Y0422000D01*
X0209712Y0420700D02*
X0220709D01*
X0208412Y0419400D02*
X0209712Y0420700D01*
X0203700Y0419400D02*
X0208412D01*
X0194653Y0415200D02*
X0196453Y0413400D01*
X0188747Y0415200D02*
X0194653D01*
X0185347Y0411800D02*
X0188747Y0415200D01*
X0176447Y0411800D02*
X0185347D01*
X0174647Y0413600D02*
X0176447Y0411800D01*
X0170006Y0413600D02*
X0174647D01*
X0168706Y0412300D02*
X0170006Y0413600D01*
X0163694Y0412300D02*
X0168706D01*
X0195150Y0416400D02*
X0196950Y0414600D01*
X0188250Y0416400D02*
X0195150D01*
X0184850Y0413000D02*
X0188250Y0416400D01*
X0176944Y0413000D02*
X0184850D01*
X0175144Y0414800D02*
X0176944Y0413000D01*
X0173700Y0414800D02*
X0175144D01*
X0171700Y0416900D02*
X0172200D01*
X0195647Y0417600D02*
X0197447Y0415800D01*
X0187753Y0417600D02*
X0195647D01*
X0184353Y0414200D02*
X0187753Y0417600D01*
X0177900Y0414200D02*
X0184353D01*
X0175200Y0416900D02*
X0175400Y0417100D01*
X0175600D01*
X0167123Y0415400D02*
X0167447D01*
X0171447Y0419400D01*
X0175200D01*
X0175200Y0419400D01*
X0176700D01*
X0178200Y0417900D01*
Y0416400D02*
Y0417900D01*
Y0416400D02*
X0179200Y0415400D01*
X0183856D01*
X0222612Y0424300D02*
X0232200D01*
X0220212Y0421900D02*
X0222612Y0424300D01*
X0177197Y0420600D02*
X0179897Y0417900D01*
X0174703Y0420600D02*
X0177197D01*
X0174703Y0420600D02*
X0174703Y0420600D01*
X0170950Y0420600D02*
X0174703D01*
X0169250Y0418900D02*
X0170950Y0420600D01*
X0167200Y0418900D02*
X0169250D01*
X0177694Y0421800D02*
X0179094Y0420400D01*
X0166100Y0421800D02*
X0177694D01*
X0163700Y0419400D02*
X0166100Y0421800D01*
X0180700Y0422900D02*
X0180900Y0423100D01*
X0205400D01*
X0181700Y0426400D02*
X0183700D01*
X0185800Y0424300D01*
X0204903D01*
X0188100Y0425500D02*
X0204406D01*
X0186700Y0426900D02*
X0188100Y0425500D01*
X0199300Y0418900D02*
X0199700D01*
X0180600Y0423000D02*
X0180700Y0422900D01*
X0181000Y0429200D02*
X0194700D01*
X0197200Y0426700D01*
X0203909D01*
X0197697Y0427900D02*
X0203412D01*
X0195197Y0430400D02*
X0197697Y0427900D01*
X0180503Y0430400D02*
X0195197D01*
X0195694Y0431600D02*
X0196894Y0430400D01*
X0180006Y0431600D02*
X0195694D01*
X0188200Y0433900D02*
X0188700D01*
X0189700Y0432900D01*
X0215153Y0437700D02*
X0218553Y0434300D01*
X0259153Y0439200D02*
X0259326Y0439026D01*
X0263574D01*
X0264200Y0438400D01*
X0183600Y0432800D02*
X0187000Y0436200D01*
X0189153D01*
X0191253Y0434100D01*
X0215650Y0438900D02*
X0219050Y0435500D01*
X0248800D01*
X0252200Y0438900D01*
X0193200Y0436400D02*
X0194300Y0435300D01*
X0216147Y0440100D02*
X0219547Y0436700D01*
X0246500D01*
X0251200Y0441400D02*
X0254700D01*
X0246500Y0436700D02*
X0251200Y0441400D01*
X0257247Y0439200D02*
X0259153D01*
X0254700Y0441400D02*
X0255200Y0441900D01*
X0257200D01*
X0261200Y0442400D02*
X0266200D01*
X0257453Y0450900D02*
X0259500Y0448853D01*
Y0446600D02*
Y0448853D01*
X0254700Y0450900D02*
X0257453D01*
X0259500Y0446600D02*
X0262200Y0443900D01*
X0257200Y0446400D02*
Y0447900D01*
Y0446400D02*
X0261200Y0442400D01*
X0255700Y0458400D02*
X0264200D01*
X0252200Y0461900D02*
X0255700Y0458400D01*
X0252200Y0461900D02*
Y0462400D01*
X0246800Y0455000D02*
X0260600D01*
X0273700Y0458400D02*
X0274200D01*
X0250100Y0450841D02*
X0251503Y0452244D01*
X0237709Y0450841D02*
X0250100D01*
X0233450Y0455100D02*
X0237709Y0450841D01*
X0225400Y0455100D02*
X0233450D01*
X0269700Y0432900D02*
X0274200Y0428400D01*
X0260200Y0432900D02*
X0269700D01*
X0251503Y0452244D02*
X0258856D01*
X0262700Y0448400D01*
X0264200D01*
X0259656Y0453444D02*
X0260700Y0452400D01*
X0251006Y0453444D02*
X0259656D01*
X0249603Y0452041D02*
X0251006Y0453444D01*
X0238206Y0452041D02*
X0249603D01*
X0233947Y0456300D02*
X0238206Y0452041D01*
X0224903Y0456300D02*
X0233947D01*
X0218600Y0448300D02*
X0225400Y0455100D01*
X0224700Y0443900D02*
X0232200Y0451400D01*
X0221200Y0443900D02*
X0224700D01*
X0219200Y0445900D02*
X0221200Y0443900D01*
X0208700Y0445900D02*
X0219200D01*
X0202700Y0439900D02*
X0208700Y0445900D01*
X0204052Y0437400D02*
X0210052Y0443400D01*
X0197200Y0437400D02*
X0204052D01*
X0198700Y0439900D02*
X0202700D01*
X0195700Y0441900D02*
X0196000Y0442200D01*
X0203303D01*
X0208203Y0447100D01*
X0220900D01*
X0223700Y0449900D01*
X0158700Y0413900D02*
X0162700Y0409900D01*
X0150247Y0408700D02*
X0155447Y0413900D01*
X0158700D01*
X0154950Y0415100D02*
X0159197D01*
X0149750Y0409900D02*
X0154950Y0415100D01*
X0159197D02*
X0163197Y0411100D01*
X0159694Y0416300D02*
X0163694Y0412300D01*
X0154453Y0416300D02*
X0159694D01*
X0140097Y0408700D02*
X0150247D01*
X0099200Y0393400D02*
X0108950D01*
X0094200Y0388400D02*
X0099200Y0393400D01*
X0173200Y0381400D02*
X0176200Y0378400D01*
X0168700Y0381400D02*
X0173200D01*
X0166700Y0379400D02*
X0168700Y0381400D01*
X0161200Y0379400D02*
X0166700D01*
X0151200Y0389400D02*
X0161200Y0379400D01*
X0134700Y0389400D02*
X0151200D01*
X0132700Y0391400D02*
X0134700Y0389400D01*
X0156897Y0385400D02*
X0165200D01*
X0151697Y0390600D02*
X0156897Y0385400D01*
X0138200Y0390600D02*
X0151697D01*
X0137400Y0391400D02*
X0138200Y0390600D01*
X0136700Y0391400D02*
Y0391900D01*
X0165697Y0386600D02*
X0167197Y0385100D01*
X0157394Y0386600D02*
X0165697D01*
X0152194Y0391800D02*
X0157394Y0386600D01*
X0140800Y0391800D02*
X0152194D01*
X0138200Y0394400D02*
X0140800Y0391800D01*
X0132200Y0394400D02*
X0138200D01*
X0120700Y0393900D02*
X0131700D01*
X0118700Y0395900D02*
X0120700Y0393900D01*
X0131700D02*
X0132200Y0394400D01*
X0157891Y0387800D02*
X0166194D01*
X0152691Y0393000D02*
X0157891Y0387800D01*
X0141297Y0393000D02*
X0152691D01*
X0138697Y0395600D02*
X0141297Y0393000D01*
X0131703Y0395600D02*
X0138697D01*
X0131203Y0395100D02*
X0131703Y0395600D01*
X0125500Y0395100D02*
X0131203D01*
X0124200Y0396400D02*
X0125500Y0395100D01*
X0123700Y0396400D02*
X0124200D01*
X0104200Y0388400D02*
X0107700D01*
X0124500Y0398700D02*
X0125500Y0399700D01*
X0135500D01*
X0124003Y0399900D02*
X0125003Y0400900D01*
X0133447D01*
X0135200Y0402653D01*
X0149010D01*
X0120953Y0401100D02*
X0123506D01*
X0124506Y0402100D01*
X0132950D01*
X0135750Y0404900D01*
X0138200D02*
Y0405400D01*
X0140500D02*
X0142047Y0403853D01*
X0140500Y0405400D02*
Y0406600D01*
X0139200Y0407900D02*
X0140500Y0406600D01*
X0136700Y0407900D02*
X0139200D01*
X0132100Y0403300D02*
X0136700Y0407900D01*
X0124009Y0403300D02*
X0132100D01*
X0123009Y0402300D02*
X0124009Y0403300D01*
X0108800Y0402300D02*
X0123009D01*
X0108200Y0402900D02*
X0108800Y0402300D01*
X0099700Y0402900D02*
X0108200D01*
X0094200Y0408400D02*
X0099700Y0402900D01*
X0142047Y0403853D02*
X0149507D01*
X0121200Y0404900D02*
X0132003D01*
X0136203Y0409100D01*
X0139697D01*
X0140097Y0408700D01*
X0140594Y0409900D02*
X0149750D01*
X0140194Y0410300D02*
X0140594Y0409900D01*
X0135706Y0410300D02*
X0140194D01*
X0128200Y0407400D02*
X0132806D01*
X0135706Y0410300D01*
X0141091Y0411100D02*
X0149253D01*
X0140691Y0411500D02*
X0141091Y0411100D01*
X0130200Y0410400D02*
X0134109D01*
X0135209Y0411500D01*
X0140691D01*
X0130700Y0413400D02*
X0146200D01*
X0130200Y0413900D02*
X0130700Y0413400D01*
X0129400Y0417400D02*
X0142200D01*
X0142700Y0416900D01*
X0133200Y0433400D02*
X0134700Y0434900D01*
X0123700Y0430400D02*
X0134200D01*
X0118700Y0425400D02*
X0131700D01*
X0136700Y0391400D02*
X0137400D01*
X0135200Y0422900D02*
X0141200D01*
X0135750Y0404900D02*
X0138200D01*
X0135500Y0399700D02*
X0136200Y0400400D01*
X0099200Y0383400D02*
X0112200D01*
X0114200Y0385400D01*
X0149867D01*
X0161517Y0373750D01*
X0168850D01*
X0176200Y0366400D01*
X0094200Y0408400D02*
X0099200Y0413400D01*
X0106200D01*
X0111700Y0418900D01*
Y0431011D01*
X0133700Y0468900D02*
X0133845Y0468755D01*
X0094200Y0468400D02*
X0099200Y0473400D01*
X0126200Y0468400D02*
X0126400D01*
X0171700Y0472900D02*
X0172300Y0473500D01*
X0278700Y0482400D02*
X0287700Y0473400D01*
X0299200D02*
X0304200Y0468400D01*
X0223200Y0483900D02*
X0291700D01*
X0302200Y0473400D01*
X0307700D01*
X0297200Y0485400D02*
X0304200Y0478400D01*
X0225200Y0486900D02*
X0298700D01*
X0302200Y0483400D01*
X0309200D01*
X0314200Y0478400D01*
X0269200Y0488400D02*
X0304200D01*
X0268200Y0489400D02*
X0269200Y0488400D01*
X0264200Y0489400D02*
X0268200D01*
X0221200Y0492900D02*
X0282700D01*
X0296900Y0495200D02*
X0297700Y0494400D01*
X0281747Y0495200D02*
X0296900D01*
X0281447Y0494900D02*
X0281747Y0495200D01*
X0221200Y0494900D02*
X0281447D01*
X0218200Y0497900D02*
X0221200Y0494900D01*
X0207700Y0497900D02*
X0218200D01*
X0309700Y0502900D02*
X0314200Y0498400D01*
X0265700D02*
X0304200D01*
X0246200Y0503400D02*
X0246700Y0502900D01*
X0177200Y0503400D02*
X0246200D01*
X0309900Y0504100D02*
X0314200Y0508400D01*
X0298000Y0504100D02*
X0309900D01*
X0296700Y0505400D02*
X0298000Y0504100D01*
X0257700Y0505400D02*
X0296700D01*
X0256700Y0506400D02*
X0257700Y0505400D01*
X0231200Y0506400D02*
X0256700D01*
X0259200Y0507900D02*
X0275400D01*
X0276700Y0506600D01*
X0280900D01*
X0282700Y0508400D01*
X0304200D01*
X0246700Y0502900D02*
X0283200D01*
X0309700D01*
X0309200Y0513400D02*
X0314200Y0518400D01*
X0302700Y0513400D02*
X0309200D01*
X0300700Y0511400D02*
X0302700Y0513400D01*
X0258200Y0514400D02*
X0299700D01*
X0277500Y0509100D02*
X0277700Y0508900D01*
X0261500Y0509100D02*
X0277500D01*
X0260200Y0510400D02*
X0261500Y0509100D01*
X0258447Y0510400D02*
X0260200D01*
X0257447Y0509400D02*
X0258447Y0510400D01*
X0257700Y0513900D02*
X0258200Y0514400D01*
X0257200Y0513900D02*
X0257700D01*
X0202000Y0510600D02*
X0256950D01*
X0224700Y0513400D02*
X0226200Y0514900D01*
X0238700D01*
X0252200Y0518400D02*
X0304200D01*
X0257200Y0520900D02*
X0259200D01*
X0260500Y0519600D01*
X0299400D01*
X0303700Y0523900D01*
X0309200D01*
X0272200Y0528400D02*
X0304200D01*
X0275200Y0523400D02*
X0298200D01*
X0273700Y0524900D02*
X0275200Y0523400D01*
X0309700Y0603900D02*
X0314200Y0608400D01*
X0271200Y0603900D02*
X0309700D01*
X0309900Y0602700D02*
X0314200Y0598400D01*
X0266700Y0522400D02*
X0268700D01*
X0265700Y0523400D02*
X0266700Y0522400D01*
X0230700Y0523400D02*
X0265700D01*
X0224700Y0517400D02*
X0230700Y0523400D01*
X0196700Y0515900D02*
X0202000Y0510600D01*
X0194700Y0531400D02*
X0197200D01*
X0204200Y0538400D01*
X0137200Y0570400D02*
X0152200D01*
X0154200Y0568400D01*
X0153700Y0544400D02*
X0156700Y0547400D01*
X0148200Y0544400D02*
X0153700D01*
X0149491Y0548109D02*
X0153909D01*
X0155700Y0549900D01*
X0188700D01*
X0193200Y0554400D01*
X0179200Y0573400D02*
X0309200D01*
X0314200Y0568400D01*
X0094200Y0698400D02*
X0098700Y0702900D01*
X0115700D01*
X0104200Y0698400D02*
X0106200Y0700400D01*
X0118200D01*
X0104200Y0708400D02*
X0109700D01*
X0112700Y0705400D01*
X0094200Y0708400D02*
X0098700Y0712900D01*
X0107700D01*
X0112200Y0708400D01*
X0113700D01*
X0094200Y0688400D02*
X0098700Y0683900D01*
X0116700D01*
X0118200Y0682400D01*
X0094200Y0658400D02*
X0099200Y0653400D01*
X0105200D01*
X0116700Y0641900D01*
X0121700Y0673400D02*
X0124000Y0671100D01*
X0104200Y0678400D02*
X0109700D01*
X0120700Y0667400D01*
X0094200Y0678400D02*
X0099200Y0673400D01*
X0094200Y0718400D02*
X0098200Y0714400D01*
X0109200D01*
X0112700Y0710900D01*
X0277700Y0533900D02*
X0309700D01*
X0276700Y0534900D02*
X0277700Y0533900D01*
X0271700Y0534900D02*
X0276700D01*
X0270200Y0533400D02*
X0271700Y0534900D01*
X0209200Y0533400D02*
X0270200D01*
X0204200Y0538400D02*
X0209200Y0533400D01*
X0309700Y0533900D02*
X0314200Y0538400D01*
X0303700Y0537900D02*
X0304200Y0538400D01*
X0275200Y0537900D02*
X0303700D01*
X0279700Y0548400D02*
X0304200D01*
X0283200Y0568400D02*
X0304200D01*
X0309200Y0543400D02*
X0314200Y0548400D01*
X0258200Y0543400D02*
X0309200D01*
X0248700Y0531900D02*
X0273700D01*
X0247700Y0530900D02*
X0248700Y0531900D01*
X0244700Y0530900D02*
X0247700D01*
X0279000Y0526100D02*
X0279200Y0525900D01*
X0270500Y0526100D02*
X0279000D01*
X0269200Y0527400D02*
X0270500Y0526100D01*
X0242200Y0527400D02*
X0269200D01*
X0230503Y0524900D02*
X0273700D01*
X0224503Y0518900D02*
X0230503Y0524900D01*
X0208700Y0518900D02*
X0224503D01*
X0225200Y0521900D02*
X0230700Y0527400D01*
X0221700Y0521900D02*
X0225200D01*
X0230700Y0527400D02*
X0242200D01*
X0221700Y0525900D02*
X0226700D01*
X0231700Y0530900D01*
X0244700D01*
X0188497Y0518697D02*
X0195700D01*
X0184700Y0514900D02*
X0188497Y0518697D01*
X0235700Y0538400D02*
X0245700D01*
X0256200Y0541400D02*
X0258200Y0543400D01*
X0221200Y0541400D02*
X0256200D01*
X0287200Y0578400D02*
X0304200D01*
X0254700D02*
X0283200D01*
X0281200Y0687900D02*
X0285700Y0683400D01*
X0299200D01*
X0304200Y0678400D01*
X0309200Y0583400D02*
X0314200Y0578400D01*
X0309200Y0583400D02*
Y0590900D01*
X0307200Y0592900D02*
X0309200Y0590900D01*
X0308500Y0594100D02*
X0314200Y0588400D01*
X0243200Y0556900D02*
X0254700Y0568400D01*
X0283200D01*
X0196700Y0623900D02*
X0202200Y0618400D01*
X0160700D02*
X0186200D01*
X0145700Y0567900D02*
X0150200Y0563400D01*
X0159200D01*
X0184200Y0588400D01*
X0111700Y0619900D02*
X0119200Y0612400D01*
X0314200Y0618400D02*
Y0620653D01*
X0309953Y0624900D02*
X0314200Y0620653D01*
X0307700Y0624900D02*
X0309953D01*
X0203200Y0621400D02*
X0204700Y0619900D01*
X0174200Y0538400D02*
X0179200Y0533400D01*
X0191200D01*
X0194200Y0536400D01*
X0196503Y0528400D02*
X0204200D01*
X0185003Y0516900D02*
X0196503Y0528400D01*
X0155594Y0517900D02*
X0155794Y0518100D01*
X0126200Y0515400D02*
X0130700D01*
X0137700Y0508400D01*
X0096700Y0517400D02*
X0096897Y0517597D01*
X0165200Y0519400D02*
X0174200Y0528400D01*
X0103700Y0519400D02*
X0165200D01*
X0102700Y0520400D02*
X0103700Y0519400D01*
X0099700Y0520400D02*
X0102700D01*
X0253200Y0595900D02*
X0253700D01*
X0201700Y0553400D02*
X0215200D01*
X0215700Y0553900D01*
X0219700D01*
X0187700Y0603900D02*
X0207200D01*
X0209200Y0605900D01*
X0243200Y0612400D02*
X0245700Y0614900D01*
X0119200Y0612400D02*
X0243200D01*
X0245700Y0614900D02*
X0254700D01*
X0260200Y0609400D01*
X0309700Y0632900D02*
X0314200Y0628400D01*
X0259700Y0632900D02*
X0309700D01*
X0252200Y0640400D02*
X0259700Y0632900D01*
X0239200Y0640400D02*
X0252200D01*
X0309900Y0634100D02*
X0314200Y0638400D01*
X0260197Y0634100D02*
X0309900D01*
X0252697Y0641600D02*
X0260197Y0634100D01*
X0241253Y0641600D02*
X0252697D01*
X0236953Y0645900D02*
X0241253Y0641600D01*
X0236700Y0645900D02*
X0236953D01*
X0235700Y0623900D02*
X0244200Y0632400D01*
X0198397Y0623900D02*
X0235700D01*
X0197197Y0625100D02*
X0198397Y0623900D01*
X0188900Y0625100D02*
X0197197D01*
X0252000Y0628400D02*
X0304200D01*
X0245500Y0634900D02*
X0252000Y0628400D01*
X0285700Y0688400D02*
X0304200D01*
X0276700Y0710900D02*
X0293700D01*
X0274200Y0708400D02*
X0276700Y0710900D01*
X0297200Y0706900D02*
X0302700D01*
X0304200Y0708400D01*
X0309700Y0712900D02*
X0314200Y0708400D01*
X0299200Y0712900D02*
X0309700D01*
X0294700Y0708400D02*
X0299200Y0712900D01*
X0291200Y0708400D02*
X0294700D01*
X0313200Y0688400D02*
X0314200D01*
X0308700Y0692900D02*
X0313200Y0688400D01*
X0302200Y0692900D02*
X0308700D01*
X0299700Y0690400D02*
X0302200Y0692900D01*
X0295700Y0696900D02*
X0299200D01*
X0302000Y0694100D01*
X0309900D01*
X0314200Y0698400D01*
X0307700Y0704900D02*
X0310200D01*
X0306700Y0703900D02*
X0307700Y0704900D01*
X0262200Y0703900D02*
X0306700D01*
X0307400Y0702700D02*
X0308200Y0701900D01*
X0120500Y0702700D02*
X0307400D01*
X0295700Y0700400D02*
X0297700D01*
X0299700Y0698400D01*
X0304200D01*
X0299700Y0642900D02*
X0304200Y0638400D01*
X0252200Y0642900D02*
X0299700D01*
X0245700Y0649400D02*
X0252200Y0642900D01*
X0214200Y0649400D02*
X0245700D01*
X0241500Y0646900D02*
X0244200D01*
X0240200Y0648200D02*
X0241500Y0646900D01*
X0299900Y0644100D02*
X0304200Y0648400D01*
X0252697Y0644100D02*
X0299900D01*
X0246197Y0650600D02*
X0252697Y0644100D01*
X0309700Y0652900D02*
X0314200Y0648400D01*
X0260700Y0652900D02*
X0309700D01*
X0259600Y0651800D02*
X0260700Y0652900D01*
X0211100Y0651800D02*
X0259600D01*
X0269700Y0712900D02*
X0274200Y0708400D01*
X0261700Y0712900D02*
X0269700D01*
X0260700Y0711900D02*
X0261700Y0712900D01*
X0258700Y0711900D02*
X0260700D01*
X0120700Y0667400D02*
X0168200D01*
X0184200Y0538400D02*
X0188847D01*
X0191847Y0541400D01*
X0194200D01*
X0186200Y0618400D02*
X0191700Y0623900D01*
X0196700D01*
X0188700Y0624900D02*
X0188900Y0625100D01*
X0186200Y0625900D02*
X0187700Y0627400D01*
X0219200Y0543400D02*
X0221200Y0541400D01*
X0201200Y0543400D02*
X0219200D01*
X0194200Y0536400D02*
X0201200Y0543400D01*
X0309200Y0673400D02*
X0314200Y0678400D01*
X0243700Y0675400D02*
X0261200Y0692900D01*
X0176200Y0569900D02*
X0195700D01*
X0176200Y0569900D02*
X0176200Y0569900D01*
X0166200Y0662400D02*
X0171200D01*
X0269900Y0694100D02*
X0274200Y0698400D01*
X0259900Y0694100D02*
X0269900D01*
X0242700Y0676900D02*
X0259900Y0694100D01*
X0279200Y0268400D02*
X0304200D01*
X0279200Y0278400D02*
X0304200D01*
X0299200Y0263400D02*
X0304200Y0258400D01*
X0221947Y0273400D02*
X0231947Y0263400D01*
X0260700D01*
X0299200D01*
X0168200Y0667400D02*
X0236700D01*
X0193700Y0304900D02*
X0199100D01*
X0294700Y0308900D02*
X0295200Y0309400D01*
X0214200Y0738900D02*
X0218200Y0742900D01*
X0184200Y0755400D02*
Y0768400D01*
X0196200Y0755400D02*
X0201200Y0760400D01*
X0154200Y0758400D02*
Y0768400D01*
X0244700Y0688400D02*
X0250700D01*
X0236700Y0696400D02*
X0244700Y0688400D01*
X0236200Y0732900D02*
X0237200Y0731900D01*
X0236200Y0732900D02*
Y0752400D01*
X0303700Y0587900D02*
X0304200Y0588400D01*
X0248200Y0489400D02*
X0264200D01*
X0261200Y0463900D02*
X0309700D01*
X0241903Y0467400D02*
X0246700D01*
X0249200Y0469900D01*
X0255200D01*
X0261200Y0463900D01*
X0247400Y0466200D02*
X0249900Y0468700D01*
X0254703D02*
X0261003Y0462400D01*
X0242400Y0466200D02*
X0247400D01*
X0249900Y0468700D02*
X0254703D01*
X0261003Y0462400D02*
X0310200D01*
X0244700Y0463900D02*
X0249700D01*
X0252200Y0466400D01*
X0253200Y0586900D02*
X0256700D01*
X0260200Y0583400D01*
X0144700Y0679400D02*
X0173700D01*
X0116700Y0641900D02*
X0160200D01*
X0157700Y0639400D02*
X0160700Y0636400D01*
X0121700Y0639400D02*
X0157700D01*
X0094200Y0648400D02*
X0099200Y0643400D01*
X0112700D01*
X0119200Y0636900D02*
X0137700D01*
X0112700Y0643400D02*
X0119200Y0636900D01*
X0094200Y0638400D02*
X0098700Y0633900D01*
X0114700D01*
X0116500Y0635700D01*
X0124400D01*
X0125500Y0634600D01*
X0134200D01*
X0145200Y0515900D02*
X0147200Y0517900D01*
X0155594D01*
X0131200Y0576400D02*
X0137200D01*
X0149200Y0588400D01*
X0151700Y0676900D02*
X0242700D01*
X0138700Y0515900D02*
X0145200D01*
X0121700Y0669900D02*
X0181200D01*
X0182200Y0670900D01*
X0186700D01*
X0200700D01*
X0203200Y0673400D01*
X0309200D01*
X0181700Y0673900D02*
X0183200Y0675400D01*
X0243700D01*
X0178900Y0671100D02*
X0181700Y0673900D01*
X0124000Y0671100D02*
X0178900D01*
X0290700Y0662900D02*
X0291700Y0661900D01*
X0215200Y0662900D02*
X0290700D01*
X0201700Y0649400D02*
X0215200Y0662900D01*
X0191200Y0649400D02*
X0201700D01*
X0189200Y0651400D02*
X0191200Y0649400D01*
X0296400Y0664200D02*
X0296700Y0663900D01*
X0290747Y0664200D02*
X0296400D01*
X0290647Y0664100D02*
X0290747Y0664200D01*
X0213400Y0664100D02*
X0290647D01*
X0201200Y0651900D02*
X0213400Y0664100D01*
X0194200Y0651900D02*
X0201200D01*
X0131200Y0673900D02*
X0149200D01*
X0177700D01*
X0178200Y0681900D02*
X0184200D01*
X0176200Y0683900D02*
X0178200Y0681900D01*
X0168700Y0683900D02*
X0176200D01*
X0164200Y0688400D02*
X0168700Y0683900D01*
X0175200Y0681900D02*
X0178200Y0678900D01*
X0136700Y0681900D02*
X0175200D01*
X0184200Y0563400D02*
X0221700D01*
X0229700Y0555400D01*
X0239200D01*
X0204200Y0550900D02*
X0240200D01*
X0242200Y0552900D01*
X0259700D01*
G54D58*
X0152200Y0798900D02*
X0159200Y0791900D01*
X0152200Y0798900D02*
Y0889900D01*
X0171700Y0909400D01*
X0235700D01*
X0110200Y0891400D02*
Y0892833D01*
X0112200Y0894833D01*
X0113456D01*
X0116000Y0897377D01*
Y0900943D01*
X0116636Y0901579D01*
X0202200Y0793400D02*
X0212700D01*
X0221700Y0784400D01*
X0204200Y0768400D02*
X0241200D01*
X0192469Y0774400D02*
X0192521Y0774347D01*
X0188200Y0774400D02*
X0192469D01*
X0184200Y0778400D02*
X0188200Y0774400D01*
X0164200Y0778400D02*
X0170200Y0793400D01*
X0202200D01*
X0170200D02*
Y0815400D01*
X0174200Y0778400D02*
X0179753Y0772847D01*
X0218200Y0742900D02*
X0224600Y0749300D01*
Y0751800D01*
X0116636Y0901579D02*
Y0902655D01*
X0166700Y0818900D02*
X0170200Y0815400D01*
X0166200Y0818900D02*
X0166700D01*
X0204200Y0778400D02*
X0230700D01*
X0192521Y0774347D02*
X0236647D01*
X0246200Y0777400D02*
Y0778900D01*
X0241700Y0772900D02*
X0246200Y0777400D01*
X0179753Y0772847D02*
X0241647D01*
X0224600Y0751800D02*
X0241200Y0768400D01*
X0126900Y0073549D02*
Y0067551D01*
X0129899D01*
X0130899Y0068550D01*
Y0069550D01*
X0129899Y0070550D01*
X0126900D01*
X0129899D01*
X0130899Y0071549D01*
Y0072549D01*
X0129899Y0073549D01*
X0126900D01*
X0133898Y0067551D02*
X0135897D01*
X0136897Y0068550D01*
Y0070550D01*
X0135897Y0071549D01*
X0133898D01*
X0132898Y0070550D01*
Y0068550D01*
X0133898Y0067551D01*
X0139896Y0072549D02*
Y0071549D01*
X0138896D01*
X0140895D01*
X0139896D01*
Y0068550D01*
X0140895Y0067551D01*
X0144894Y0072549D02*
Y0071549D01*
X0143895D01*
X0145894D01*
X0144894D01*
Y0068550D01*
X0145894Y0067551D01*
X0149893D02*
X0151892D01*
X0152892Y0068550D01*
Y0070550D01*
X0151892Y0071549D01*
X0149893D01*
X0148893Y0070550D01*
Y0068550D01*
X0149893Y0067551D01*
X0154891D02*
Y0071549D01*
X0155891D01*
X0156890Y0070550D01*
Y0067551D01*
Y0070550D01*
X0157890Y0071549D01*
X0158890Y0070550D01*
Y0067551D01*
X0166887Y0073549D02*
Y0067551D01*
X0170886D01*
X0173885Y0071549D02*
X0175884D01*
X0176884Y0070550D01*
Y0067551D01*
X0173885D01*
X0172885Y0068550D01*
X0173885Y0069550D01*
X0176884D01*
X0178883Y0071549D02*
Y0068550D01*
X0179883Y0067551D01*
X0182882D01*
Y0066551D01*
X0181882Y0065551D01*
X0180883D01*
X0182882Y0067551D02*
Y0071549D01*
X0187880Y0067551D02*
X0185881D01*
X0184881Y0068550D01*
Y0070550D01*
X0185881Y0071549D01*
X0187880D01*
X0188880Y0070550D01*
Y0069550D01*
X0184881D01*
X0190879Y0071549D02*
Y0067551D01*
Y0069550D01*
X0191879Y0070550D01*
X0192879Y0071549D01*
X0193878D01*
X0567400Y0087833D02*
Y0093831D01*
X0571399Y0087833D01*
Y0093831D01*
X0574398Y0087833D02*
X0576397D01*
X0577397Y0088833D01*
Y0090832D01*
X0576397Y0091832D01*
X0574398D01*
X0573398Y0090832D01*
Y0088833D01*
X0574398Y0087833D01*
X0580396Y0092832D02*
Y0091832D01*
X0579396D01*
X0581395D01*
X0580396D01*
Y0088833D01*
X0581395Y0087833D01*
X0590393Y0093831D02*
X0592392D01*
X0591392D01*
Y0087833D01*
X0590393D01*
X0592392D01*
X0595391D02*
Y0091832D01*
X0598390D01*
X0599390Y0090832D01*
Y0087833D01*
X0607387Y0093831D02*
Y0089833D01*
X0609386Y0087833D01*
X0611386Y0089833D01*
Y0093831D01*
X0616384Y0087833D02*
X0614385D01*
X0613385Y0088833D01*
Y0090832D01*
X0614385Y0091832D01*
X0616384D01*
X0617384Y0090832D01*
Y0089833D01*
X0613385D01*
X0619383Y0091832D02*
Y0087833D01*
Y0089833D01*
X0620383Y0090832D01*
X0621383Y0091832D01*
X0622382D01*
X0625381Y0087833D02*
X0628380D01*
X0629380Y0088833D01*
X0628380Y0089833D01*
X0626381D01*
X0625381Y0090832D01*
X0626381Y0091832D01*
X0629380D01*
X0631379Y0087833D02*
X0633379D01*
X0632379D01*
Y0091832D01*
X0631379D01*
X0637377Y0087833D02*
X0639377D01*
X0640376Y0088833D01*
Y0090832D01*
X0639377Y0091832D01*
X0637377D01*
X0636378Y0090832D01*
Y0088833D01*
X0637377Y0087833D01*
X0642376D02*
Y0091832D01*
X0645375D01*
X0646374Y0090832D01*
Y0087833D01*
X0652373Y0092832D02*
X0651373Y0093831D01*
X0649373D01*
X0648374Y0092832D01*
Y0088833D01*
X0649373Y0087833D01*
X0651373D01*
X0652373Y0088833D01*
X0655372Y0087833D02*
X0657371D01*
X0658371Y0088833D01*
Y0090832D01*
X0657371Y0091832D01*
X0655372D01*
X0654372Y0090832D01*
Y0088833D01*
X0655372Y0087833D01*
X0660370D02*
Y0091832D01*
X0663369D01*
X0664369Y0090832D01*
Y0087833D01*
X0667368Y0092832D02*
Y0091832D01*
X0666368D01*
X0668367D01*
X0667368D01*
Y0088833D01*
X0668367Y0087833D01*
X0671366Y0091832D02*
Y0087833D01*
Y0089833D01*
X0672366Y0090832D01*
X0673366Y0091832D01*
X0674365D01*
X0678364Y0087833D02*
X0680364D01*
X0681363Y0088833D01*
Y0090832D01*
X0680364Y0091832D01*
X0678364D01*
X0677364Y0090832D01*
Y0088833D01*
X0678364Y0087833D01*
X0683362D02*
X0685362D01*
X0684362D01*
Y0093831D01*
X0683362D01*
X0520799Y0092832D02*
X0519799Y0093831D01*
X0517800D01*
X0516800Y0092832D01*
Y0091832D01*
X0517800Y0090832D01*
X0519799D01*
X0520799Y0089833D01*
Y0088833D01*
X0519799Y0087833D01*
X0517800D01*
X0516800Y0088833D01*
X0522798Y0093831D02*
Y0089833D01*
X0524797Y0087833D01*
X0526797Y0089833D01*
Y0093831D01*
X0528796Y0087833D02*
Y0093831D01*
X0532795Y0087833D01*
Y0093831D01*
X0540792Y0087833D02*
Y0093831D01*
X0543791D01*
X0544791Y0092832D01*
Y0090832D01*
X0543791Y0089833D01*
X0540792D01*
X0542792D02*
X0544791Y0087833D01*
X0550789Y0093831D02*
X0546790D01*
Y0087833D01*
X0550789D01*
X0546790Y0090832D02*
X0548790D01*
X0552788Y0093831D02*
Y0089833D01*
X0554788Y0087833D01*
X0556787Y0089833D01*
Y0093831D01*
X0558786Y0091832D02*
X0559786D01*
Y0090832D01*
X0558786D01*
Y0091832D01*
Y0088833D02*
X0559786D01*
Y0087833D01*
X0558786D01*
Y0088833D01*
X0433000Y0087833D02*
Y0093831D01*
X0435999D01*
X0436999Y0092832D01*
Y0090832D01*
X0435999Y0089833D01*
X0433000D01*
X0434999D02*
X0436999Y0087833D01*
X0442997Y0093831D02*
X0438998D01*
Y0087833D01*
X0442997D01*
X0438998Y0090832D02*
X0440997D01*
X0444996Y0093831D02*
Y0089833D01*
X0446995Y0087833D01*
X0448995Y0089833D01*
Y0093831D01*
X0450994Y0091832D02*
X0451994D01*
Y0090832D01*
X0450994D01*
Y0091832D01*
Y0088833D02*
X0451994D01*
Y0087833D01*
X0450994D01*
Y0088833D01*
X0126900Y0046966D02*
Y0052965D01*
X0128899Y0050965D01*
X0130899Y0052965D01*
Y0046966D01*
X0136897Y0051965D02*
X0135897Y0052965D01*
X0133898D01*
X0132898Y0051965D01*
Y0047966D01*
X0133898Y0046966D01*
X0135897D01*
X0136897Y0047966D01*
X0138896Y0052965D02*
Y0047966D01*
X0139896Y0046966D01*
X0141895D01*
X0142895Y0047966D01*
Y0052965D01*
X0144894Y0051965D02*
X0145894Y0052965D01*
X0147893D01*
X0148893Y0051965D01*
Y0047966D01*
X0147893Y0046966D01*
X0145894D01*
X0144894Y0047966D01*
Y0051965D01*
X0154891Y0046966D02*
X0150892D01*
X0154891Y0050965D01*
Y0051965D01*
X0153891Y0052965D01*
X0151892D01*
X0150892Y0051965D01*
X0156890D02*
X0157890Y0052965D01*
X0159889D01*
X0160889Y0051965D01*
Y0050965D01*
X0159889Y0049966D01*
X0158890D01*
X0159889D01*
X0160889Y0048966D01*
Y0047966D01*
X0159889Y0046966D01*
X0157890D01*
X0156890Y0047966D01*
X0162888Y0046966D02*
X0164888D01*
X0163888D01*
Y0052965D01*
X0162888Y0051965D01*
X0167887Y0046966D02*
Y0047966D01*
X0168886D01*
Y0046966D01*
X0167887D01*
X0172885Y0051965D02*
X0173885Y0052965D01*
X0175884D01*
X0176884Y0051965D01*
Y0047966D01*
X0175884Y0046966D01*
X0173885D01*
X0172885Y0047966D01*
Y0051965D01*
X0178883Y0046966D02*
Y0047966D01*
X0179883D01*
Y0046966D01*
X0178883D01*
X0187880Y0051965D02*
X0186881Y0052965D01*
X0184881D01*
X0183882Y0051965D01*
Y0047966D01*
X0184881Y0046966D01*
X0186881D01*
X0187880Y0047966D01*
Y0049966D01*
X0185881D01*
X0189880Y0052965D02*
Y0046966D01*
X0192879D01*
X0193878Y0047966D01*
Y0048966D01*
X0192879Y0049966D01*
X0189880D01*
X0192879D01*
X0193878Y0050965D01*
Y0051965D01*
X0192879Y0052965D01*
X0189880D01*
X0195878D02*
Y0046966D01*
X0199876D01*
X0381150D02*
X0383149D01*
X0382150D01*
Y0052965D01*
X0381150Y0051965D01*
X0386148D02*
X0387148Y0052965D01*
X0389147D01*
X0390147Y0051965D01*
Y0047966D01*
X0389147Y0046966D01*
X0387148D01*
X0386148Y0047966D01*
Y0051965D01*
X0392146Y0046966D02*
X0396145Y0050965D01*
X0398145Y0046966D02*
X0400144D01*
X0399144D01*
Y0052965D01*
X0398145Y0051965D01*
X0407142Y0046966D02*
X0403143D01*
X0407142Y0050965D01*
Y0051965D01*
X0406142Y0052965D01*
X0404143D01*
X0403143Y0051965D01*
X0409141Y0046966D02*
X0413140Y0050965D01*
X0419138Y0046966D02*
X0415139D01*
X0419138Y0050965D01*
Y0051965D01*
X0418138Y0052965D01*
X0416139D01*
X0415139Y0051965D01*
X0421137D02*
X0422137Y0052965D01*
X0424136D01*
X0425136Y0051965D01*
Y0047966D01*
X0424136Y0046966D01*
X0422137D01*
X0421137Y0047966D01*
Y0051965D01*
X0427135Y0046966D02*
X0429135D01*
X0428135D01*
Y0052965D01*
X0427135Y0051965D01*
X0432133Y0052965D02*
X0436132D01*
Y0051965D01*
X0432133Y0047966D01*
Y0046966D01*
X0298199Y0051965D02*
X0297199Y0052965D01*
X0295200D01*
X0294200Y0051965D01*
Y0047966D01*
X0295200Y0046966D01*
X0297199D01*
X0298199Y0047966D01*
Y0049966D01*
X0296199D01*
X0304197Y0052965D02*
X0300198D01*
Y0046966D01*
X0304197D01*
X0300198Y0049966D02*
X0302197D01*
X0306196Y0046966D02*
Y0052965D01*
X0310195Y0046966D01*
Y0052965D01*
X0316193D02*
X0312194D01*
Y0046966D01*
X0316193D01*
X0312194Y0049966D02*
X0314194D01*
X0318192Y0046966D02*
Y0052965D01*
X0321191D01*
X0322191Y0051965D01*
Y0049966D01*
X0321191Y0048966D01*
X0318192D01*
X0320192D02*
X0322191Y0046966D01*
X0324190D02*
Y0050965D01*
X0326190Y0052965D01*
X0328189Y0050965D01*
Y0046966D01*
Y0049966D01*
X0324190D01*
X0330188Y0052965D02*
X0334187D01*
X0332188D01*
Y0046966D01*
X0340185Y0052965D02*
X0336186D01*
Y0046966D01*
X0340185D01*
X0336186Y0049966D02*
X0338186D01*
X0342184Y0052965D02*
Y0046966D01*
X0345183D01*
X0346183Y0047966D01*
Y0051965D01*
X0345183Y0052965D01*
X0342184D01*
X0372175Y0050965D02*
X0373175D01*
Y0049966D01*
X0372175D01*
Y0050965D01*
Y0047966D02*
X0373175D01*
Y0046966D01*
X0372175D01*
Y0047966D01*
X0046350Y0087833D02*
Y0091832D01*
X0048349Y0093831D01*
X0050349Y0091832D01*
Y0087833D01*
Y0090832D01*
X0046350D01*
X0052348Y0093831D02*
Y0087833D01*
X0056347D01*
X0058346Y0093831D02*
Y0087833D01*
X0062345D01*
X0070342D02*
Y0091832D01*
X0072342Y0093831D01*
X0074341Y0091832D01*
Y0087833D01*
Y0090832D01*
X0070342D01*
X0076340Y0087833D02*
Y0093831D01*
X0079339D01*
X0080339Y0092832D01*
Y0090832D01*
X0079339Y0089833D01*
X0076340D01*
X0078340D02*
X0080339Y0087833D01*
X0082338Y0093831D02*
X0086337D01*
X0084338D01*
Y0087833D01*
X0088336Y0093831D02*
Y0087833D01*
X0090336Y0089833D01*
X0092335Y0087833D01*
Y0093831D01*
X0097334D02*
X0095334D01*
X0094335Y0092832D01*
Y0088833D01*
X0095334Y0087833D01*
X0097334D01*
X0098333Y0088833D01*
Y0092832D01*
X0097334Y0093831D01*
X0100332Y0087833D02*
Y0093831D01*
X0103332D01*
X0104331Y0092832D01*
Y0090832D01*
X0103332Y0089833D01*
X0100332D01*
X0102332D02*
X0104331Y0087833D01*
X0106331Y0093831D02*
Y0087833D01*
Y0089833D01*
X0110329Y0093831D01*
X0107330Y0090832D01*
X0110329Y0087833D01*
X0118327Y0093831D02*
Y0089833D01*
X0120326Y0087833D01*
X0122325Y0089833D01*
Y0093831D01*
X0124325D02*
X0126324D01*
X0125324D01*
Y0087833D01*
X0124325D01*
X0126324D01*
X0133322Y0093831D02*
X0129323D01*
Y0087833D01*
X0133322D01*
X0129323Y0090832D02*
X0131323D01*
X0135321Y0093831D02*
Y0087833D01*
X0137321Y0089833D01*
X0139320Y0087833D01*
Y0093831D01*
X0145318D02*
X0141319D01*
Y0087833D01*
X0145318D01*
X0141319Y0090832D02*
X0143319D01*
X0147317Y0093831D02*
Y0087833D01*
X0150316D01*
X0151316Y0088833D01*
Y0092832D01*
X0150316Y0093831D01*
X0147317D01*
X0163312D02*
X0159313D01*
Y0090832D01*
X0161313D01*
X0159313D01*
Y0087833D01*
X0165312D02*
Y0093831D01*
X0168310D01*
X0169310Y0092832D01*
Y0090832D01*
X0168310Y0089833D01*
X0165312D01*
X0167311D02*
X0169310Y0087833D01*
X0174309Y0093831D02*
X0172309D01*
X0171310Y0092832D01*
Y0088833D01*
X0172309Y0087833D01*
X0174309D01*
X0175308Y0088833D01*
Y0092832D01*
X0174309Y0093831D01*
X0177308Y0087833D02*
Y0093831D01*
X0179307Y0091832D01*
X0181306Y0093831D01*
Y0087833D01*
X0189304Y0093831D02*
X0193303D01*
X0191303D01*
Y0087833D01*
X0198301Y0093831D02*
X0196301D01*
X0195302Y0092832D01*
Y0088833D01*
X0196301Y0087833D01*
X0198301D01*
X0199301Y0088833D01*
Y0092832D01*
X0198301Y0093831D01*
X0201300Y0087833D02*
Y0093831D01*
X0204299D01*
X0205299Y0092832D01*
Y0090832D01*
X0204299Y0089833D01*
X0201300D01*
X0217295Y0092832D02*
X0216295Y0093831D01*
X0214296D01*
X0213296Y0092832D01*
Y0091832D01*
X0214296Y0090832D01*
X0216295D01*
X0217295Y0089833D01*
Y0088833D01*
X0216295Y0087833D01*
X0214296D01*
X0213296Y0088833D01*
X0219294Y0093831D02*
X0221293D01*
X0220294D01*
Y0087833D01*
X0219294D01*
X0221293D01*
X0224292Y0093831D02*
Y0087833D01*
X0227291D01*
X0228291Y0088833D01*
Y0092832D01*
X0227291Y0093831D01*
X0224292D01*
X0234289D02*
X0230291D01*
Y0087833D01*
X0234289D01*
X0230291Y0090832D02*
X0232290D01*
X0462150Y0087833D02*
X0464149D01*
X0463150D01*
Y0093831D01*
X0462150Y0092832D01*
X0467148Y0087833D02*
Y0088833D01*
X0468148D01*
Y0087833D01*
X0467148D01*
X0472147Y0092832D02*
X0473146Y0093831D01*
X0475146D01*
X0476146Y0092832D01*
Y0088833D01*
X0475146Y0087833D01*
X0473146D01*
X0472147Y0088833D01*
Y0092832D01*
X0348550Y0087833D02*
Y0093831D01*
X0350549Y0091832D01*
X0352549Y0093831D01*
Y0087833D01*
X0358547Y0092832D02*
X0357547Y0093831D01*
X0355548D01*
X0354548Y0092832D01*
Y0088833D01*
X0355548Y0087833D01*
X0357547D01*
X0358547Y0088833D01*
X0360546Y0093831D02*
Y0088833D01*
X0361546Y0087833D01*
X0363545D01*
X0364545Y0088833D01*
Y0093831D01*
X0366544Y0092832D02*
X0367544Y0093831D01*
X0369543D01*
X0370543Y0092832D01*
Y0088833D01*
X0369543Y0087833D01*
X0367544D01*
X0366544Y0088833D01*
Y0092832D01*
X0376541Y0087833D02*
X0372542D01*
X0376541Y0091832D01*
Y0092832D01*
X0375541Y0093831D01*
X0373542D01*
X0372542Y0092832D01*
X0378540D02*
X0379540Y0093831D01*
X0381539D01*
X0382539Y0092832D01*
Y0091832D01*
X0381539Y0090832D01*
X0380540D01*
X0381539D01*
X0382539Y0089833D01*
Y0088833D01*
X0381539Y0087833D01*
X0379540D01*
X0378540Y0088833D01*
X0294000Y0093831D02*
Y0087833D01*
X0296999D01*
X0297999Y0088833D01*
Y0089833D01*
X0296999Y0090832D01*
X0294000D01*
X0296999D01*
X0297999Y0091832D01*
Y0092832D01*
X0296999Y0093831D01*
X0294000D01*
X0302997D02*
X0300998D01*
X0299998Y0092832D01*
Y0088833D01*
X0300998Y0087833D01*
X0302997D01*
X0303997Y0088833D01*
Y0092832D01*
X0302997Y0093831D01*
X0305996Y0087833D02*
Y0091832D01*
X0307996Y0093831D01*
X0309995Y0091832D01*
Y0087833D01*
Y0090832D01*
X0305996D01*
X0311994Y0087833D02*
Y0093831D01*
X0314993D01*
X0315993Y0092832D01*
Y0090832D01*
X0314993Y0089833D01*
X0311994D01*
X0313994D02*
X0315993Y0087833D01*
X0317992Y0093831D02*
Y0087833D01*
X0320991D01*
X0321991Y0088833D01*
Y0092832D01*
X0320991Y0093831D01*
X0317992D01*
X0330988Y0087833D02*
Y0093831D01*
X0332987D02*
Y0087833D01*
X0329988Y0091832D02*
X0332987D01*
X0333987D01*
X0329988Y0089833D02*
X0333987D01*
X0335986Y0091832D02*
X0336986D01*
Y0090832D01*
X0335986D01*
Y0091832D01*
Y0088833D02*
X0336986D01*
Y0087833D01*
X0335986D01*
Y0088833D01*
X0046350Y0073549D02*
Y0067551D01*
X0050349D01*
X0052348D02*
Y0071549D01*
X0054347Y0073549D01*
X0056347Y0071549D01*
Y0067551D01*
Y0070550D01*
X0052348D01*
X0058346Y0073549D02*
Y0072549D01*
X0060346Y0070550D01*
X0062345Y0072549D01*
Y0073549D01*
X0060346Y0070550D02*
Y0067551D01*
X0068343Y0073549D02*
X0064344D01*
Y0067551D01*
X0068343D01*
X0064344Y0070550D02*
X0066343D01*
X0070342Y0067551D02*
Y0073549D01*
X0073341D01*
X0074341Y0072549D01*
Y0070550D01*
X0073341Y0069550D01*
X0070342D01*
X0072342D02*
X0074341Y0067551D01*
X0082338D02*
Y0073549D01*
X0086337Y0067551D01*
Y0073549D01*
X0088336Y0067551D02*
Y0071549D01*
X0090336Y0073549D01*
X0092335Y0071549D01*
Y0067551D01*
Y0070550D01*
X0088336D01*
X0094335Y0067551D02*
Y0073549D01*
X0096334Y0071549D01*
X0098333Y0073549D01*
Y0067551D01*
X0104331Y0073549D02*
X0100332D01*
Y0067551D01*
X0104331D01*
X0100332Y0070550D02*
X0102332D01*
X0112329Y0069550D02*
X0116327D01*
X0112329Y0071549D02*
X0116327D01*
X0046350Y0046966D02*
Y0052965D01*
X0049349D01*
X0050349Y0051965D01*
Y0049966D01*
X0049349Y0048966D01*
X0046350D01*
X0052348Y0052965D02*
Y0046966D01*
X0056347D01*
X0061345Y0052965D02*
X0059346D01*
X0058346Y0051965D01*
Y0047966D01*
X0059346Y0046966D01*
X0061345D01*
X0062345Y0047966D01*
Y0051965D01*
X0061345Y0052965D01*
X0064344D02*
X0068343D01*
X0066343D01*
Y0046966D01*
X0076340D02*
Y0052965D01*
X0080339Y0046966D01*
Y0052965D01*
X0082338Y0046966D02*
Y0050965D01*
X0084338Y0052965D01*
X0086337Y0050965D01*
Y0046966D01*
Y0049966D01*
X0082338D01*
X0088336Y0046966D02*
Y0052965D01*
X0090336Y0050965D01*
X0092335Y0052965D01*
Y0046966D01*
X0098333Y0052965D02*
X0094335D01*
Y0046966D01*
X0098333D01*
X0094335Y0049966D02*
X0096334D01*
X0106331Y0048966D02*
X0110329D01*
X0106331Y0050965D02*
X0110329D01*
X0454050Y0051965D02*
X0455050Y0052965D01*
X0457049D01*
X0458049Y0051965D01*
Y0050965D01*
X0457049Y0049966D01*
X0456049D01*
X0457049D01*
X0458049Y0048966D01*
Y0047966D01*
X0457049Y0046966D01*
X0455050D01*
X0454050Y0047966D01*
X0460048Y0050965D02*
X0461048D01*
Y0049966D01*
X0460048D01*
Y0050965D01*
Y0047966D02*
X0461048D01*
Y0046966D01*
X0460048D01*
Y0047966D01*
X0469045Y0046966D02*
X0465046D01*
X0469045Y0050965D01*
Y0051965D01*
X0468046Y0052965D01*
X0466046D01*
X0465046Y0051965D01*
X0471044Y0052965D02*
X0475043D01*
Y0051965D01*
X0471044Y0047966D01*
Y0046966D01*
X0477043Y0050965D02*
X0478042D01*
Y0049966D01*
X0477043D01*
Y0050965D01*
Y0047966D02*
X0478042D01*
Y0046966D01*
X0477043D01*
Y0047966D01*
X0486040Y0052965D02*
X0482041D01*
Y0049966D01*
X0484040Y0050965D01*
X0485040D01*
X0486040Y0049966D01*
Y0047966D01*
X0485040Y0046966D01*
X0483041D01*
X0482041Y0047966D01*
X0488039Y0051965D02*
X0489039Y0052965D01*
X0491038D01*
X0492038Y0051965D01*
Y0047966D01*
X0491038Y0046966D01*
X0489039D01*
X0488039Y0047966D01*
Y0051965D01*
X0500035Y0046966D02*
Y0052965D01*
X0503034D01*
X0504034Y0051965D01*
Y0049966D01*
X0503034Y0048966D01*
X0500035D01*
X0506033Y0046966D02*
Y0052965D01*
X0508033Y0050965D01*
X0510032Y0052965D01*
Y0046966D01*
X0580500Y0052965D02*
X0584499D01*
X0582499D01*
Y0046966D01*
X0590497Y0052965D02*
X0586498D01*
Y0046966D01*
X0590497D01*
X0586498Y0049966D02*
X0588497D01*
X0592496Y0052965D02*
X0596495Y0046966D01*
Y0052965D02*
X0592496Y0046966D01*
X0598494D02*
Y0050965D01*
X0600493Y0052965D01*
X0602493Y0050965D01*
Y0046966D01*
Y0049966D01*
X0598494D01*
X0608491Y0051965D02*
X0607491Y0052965D01*
X0605492D01*
X0604492Y0051965D01*
Y0050965D01*
X0605492Y0049966D01*
X0607491D01*
X0608491Y0048966D01*
Y0047966D01*
X0607491Y0046966D01*
X0605492D01*
X0604492Y0047966D01*
X0616488Y0052965D02*
X0618488D01*
X0617488D01*
Y0046966D01*
X0616488D01*
X0618488D01*
X0621487D02*
Y0052965D01*
X0625486Y0046966D01*
Y0052965D01*
X0631484Y0051965D02*
X0630484Y0052965D01*
X0628484D01*
X0627485Y0051965D01*
Y0050965D01*
X0628484Y0049966D01*
X0630484D01*
X0631484Y0048966D01*
Y0047966D01*
X0630484Y0046966D01*
X0628484D01*
X0627485Y0047966D01*
X0633483Y0052965D02*
X0637482D01*
X0635482D01*
Y0046966D01*
X0639481D02*
Y0052965D01*
X0642480D01*
X0643480Y0051965D01*
Y0049966D01*
X0642480Y0048966D01*
X0639481D01*
X0641480D02*
X0643480Y0046966D01*
X0645479Y0052965D02*
Y0047966D01*
X0646479Y0046966D01*
X0648478D01*
X0649478Y0047966D01*
Y0052965D01*
X0651477Y0046966D02*
Y0052965D01*
X0653476Y0050965D01*
X0655476Y0052965D01*
Y0046966D01*
X0661474Y0052965D02*
X0657475D01*
Y0046966D01*
X0661474D01*
X0657475Y0049966D02*
X0659474D01*
X0663473Y0046966D02*
Y0052965D01*
X0667472Y0046966D01*
Y0052965D01*
X0669471D02*
X0673470D01*
X0671471D01*
Y0046966D01*
X0679468Y0051965D02*
X0678468Y0052965D01*
X0676469D01*
X0675469Y0051965D01*
Y0050965D01*
X0676469Y0049966D01*
X0678468D01*
X0679468Y0048966D01*
Y0047966D01*
X0678468Y0046966D01*
X0676469D01*
X0675469Y0047966D01*
X0294000Y0073498D02*
X0297999D01*
X0295999D01*
Y0067500D01*
X0299998Y0073498D02*
X0301997D01*
X0300998D01*
Y0067500D01*
X0299998D01*
X0301997D01*
X0304996Y0073498D02*
Y0067500D01*
X0307996D01*
X0308995Y0068500D01*
Y0072498D01*
X0307996Y0073498D01*
X0304996D01*
X0317992Y0067500D02*
Y0073498D01*
X0319992D02*
Y0067500D01*
X0316993Y0071499D02*
X0319992D01*
X0320991D01*
X0316993Y0069499D02*
X0320991D01*
X0322991Y0071499D02*
X0323990D01*
Y0070499D01*
X0322991D01*
Y0071499D01*
Y0068500D02*
X0323990D01*
Y0067500D01*
X0322991D01*
Y0068500D01*
X0348550Y0067500D02*
Y0073498D01*
X0352549Y0067500D01*
Y0073498D01*
X0354548Y0067500D02*
X0358547Y0071499D01*
X0360546Y0067500D02*
Y0071499D01*
X0362545Y0073498D01*
X0364545Y0071499D01*
Y0067500D01*
Y0070499D01*
X0360546D01*
G54D59*
X0095653Y0271195D02*
X0104405D01*
X0114200Y0261400D01*
X0142200D01*
X0151995Y0271195D01*
X0159669D01*
G54D60*
X0098149Y0918691D02*
X0101440Y0915400D01*
X0125960D01*
X0129251Y0918691D01*
G54D65*
X0234200Y0563400D02*
D03*
X0194200Y0618400D02*
D03*
X0094200Y0568400D02*
D03*
X0284200Y0328400D02*
D03*
X0174200Y0488400D02*
D03*
X0214200Y0368400D02*
D03*
X0174200Y0358400D02*
D03*
X0184200D02*
D03*
X0154200Y0568400D02*
D03*
X0234200Y0288400D02*
D03*
X0224200D02*
D03*
X0214200D02*
D03*
X0204200D02*
D03*
X0214200Y0488400D02*
D03*
G54D66*
X0184200Y0588400D02*
D03*
X0214200Y0638400D02*
D03*
X0204200Y0588400D02*
D03*
G54D67*
X0184200Y0578400D02*
D03*
X0214200Y0628400D02*
D03*
X0204200Y0578400D02*
D03*
G54D68*
X0214200Y0528400D02*
D03*
X0204200Y0538400D02*
D03*
Y0528400D02*
D03*
X0184200D02*
D03*
X0174200Y0538400D02*
D03*
Y0528400D02*
D03*
G54D69*
X0214200Y0538400D02*
D03*
X0184200D02*
D03*
G54D70*
X0079200Y0918400D02*
D03*
X0309200D02*
D03*
G54D71*
X0154200Y0688400D02*
D03*
G54D72*
Y0698400D02*
D03*
X0164200Y0688400D02*
D03*
Y0698400D02*
D03*
X0174200Y0688400D02*
D03*
Y0698400D02*
D03*
X0184200Y0688400D02*
D03*
Y0698400D02*
D03*
X0194200Y0688400D02*
D03*
Y0698400D02*
D03*
X0304200Y0318400D02*
D03*
X0314200D02*
D03*
X0304200Y0308400D02*
D03*
X0314200D02*
D03*
X0304200Y0298400D02*
D03*
X0314200D02*
D03*
X0304200Y0288400D02*
D03*
X0314200D02*
D03*
X0304200Y0278400D02*
D03*
X0314200D02*
D03*
X0304200Y0268400D02*
D03*
X0314200D02*
D03*
X0304200Y0258400D02*
D03*
X0314200D02*
D03*
X0304200Y0248400D02*
D03*
X0314200D02*
D03*
X0304200Y0398400D02*
D03*
X0314200D02*
D03*
X0304200Y0388400D02*
D03*
X0314200D02*
D03*
X0304200Y0378400D02*
D03*
X0314200D02*
D03*
X0304200Y0368400D02*
D03*
X0314200D02*
D03*
X0304200Y0358400D02*
D03*
X0314200D02*
D03*
X0304200Y0348400D02*
D03*
X0314200D02*
D03*
X0304200Y0338400D02*
D03*
X0314200D02*
D03*
X0304200Y0328400D02*
D03*
X0314200D02*
D03*
X0304200Y0478400D02*
D03*
X0314200D02*
D03*
X0304200Y0468400D02*
D03*
X0314200D02*
D03*
X0304200Y0458400D02*
D03*
X0314200D02*
D03*
X0304200Y0448400D02*
D03*
X0314200D02*
D03*
X0304200Y0438400D02*
D03*
X0314200D02*
D03*
X0304200Y0428400D02*
D03*
X0314200D02*
D03*
X0304200Y0418400D02*
D03*
X0314200D02*
D03*
X0304200Y0408400D02*
D03*
X0314200D02*
D03*
Y0728400D02*
D03*
X0304200Y0718400D02*
D03*
X0314200D02*
D03*
X0304200Y0708400D02*
D03*
X0314200D02*
D03*
X0304200Y0698400D02*
D03*
X0314200D02*
D03*
X0304200Y0688400D02*
D03*
X0314200D02*
D03*
X0304200Y0678400D02*
D03*
X0314200D02*
D03*
X0304200Y0668400D02*
D03*
X0314200D02*
D03*
X0304200Y0658400D02*
D03*
X0314200D02*
D03*
X0304200Y0648400D02*
D03*
X0314200D02*
D03*
X0304200Y0638400D02*
D03*
X0314200D02*
D03*
X0304200Y0628400D02*
D03*
X0314200D02*
D03*
X0304200Y0618400D02*
D03*
X0314200D02*
D03*
X0304200Y0608400D02*
D03*
X0314200D02*
D03*
X0304200Y0598400D02*
D03*
X0314200D02*
D03*
X0304200Y0588400D02*
D03*
X0314200D02*
D03*
X0304200Y0578400D02*
D03*
X0314200D02*
D03*
X0304200Y0568400D02*
D03*
X0314200D02*
D03*
X0304200Y0558400D02*
D03*
X0314200D02*
D03*
X0304200Y0548400D02*
D03*
X0314200D02*
D03*
X0304200Y0538400D02*
D03*
X0314200D02*
D03*
X0304200Y0528400D02*
D03*
X0314200D02*
D03*
X0304200Y0518400D02*
D03*
X0314200D02*
D03*
X0304200Y0508400D02*
D03*
X0314200D02*
D03*
Y0498400D02*
D03*
X0304200D02*
D03*
X0314200Y0488400D02*
D03*
X0304200D02*
D03*
X0204200Y0778400D02*
D03*
X0194200D02*
D03*
X0184200D02*
D03*
X0174200D02*
D03*
X0164200D02*
D03*
X0154200D02*
D03*
X0144200D02*
D03*
X0134200D02*
D03*
X0124200D02*
D03*
X0114200D02*
D03*
X0204200Y0768400D02*
D03*
X0194200D02*
D03*
X0184200D02*
D03*
X0174200D02*
D03*
X0164200D02*
D03*
X0154200D02*
D03*
X0144200D02*
D03*
X0134200D02*
D03*
X0124200D02*
D03*
X0104200Y0388400D02*
D03*
Y0398400D02*
D03*
Y0408400D02*
D03*
Y0418400D02*
D03*
Y0428400D02*
D03*
Y0438400D02*
D03*
Y0448400D02*
D03*
Y0458400D02*
D03*
Y0468400D02*
D03*
Y0478400D02*
D03*
X0094200Y0388400D02*
D03*
Y0398400D02*
D03*
Y0408400D02*
D03*
Y0418400D02*
D03*
Y0428400D02*
D03*
Y0438400D02*
D03*
Y0448400D02*
D03*
Y0458400D02*
D03*
Y0468400D02*
D03*
X0274200Y0638400D02*
D03*
Y0648400D02*
D03*
Y0658400D02*
D03*
Y0668400D02*
D03*
Y0678400D02*
D03*
Y0688400D02*
D03*
Y0698400D02*
D03*
Y0708400D02*
D03*
Y0718400D02*
D03*
Y0728400D02*
D03*
X0264200Y0638400D02*
D03*
Y0648400D02*
D03*
Y0658400D02*
D03*
Y0668400D02*
D03*
Y0678400D02*
D03*
Y0688400D02*
D03*
Y0698400D02*
D03*
Y0708400D02*
D03*
Y0718400D02*
D03*
Y0728400D02*
D03*
X0104200Y0638400D02*
D03*
Y0648400D02*
D03*
Y0658400D02*
D03*
Y0668400D02*
D03*
Y0678400D02*
D03*
Y0688400D02*
D03*
Y0698400D02*
D03*
Y0708400D02*
D03*
Y0718400D02*
D03*
Y0728400D02*
D03*
X0094200Y0638400D02*
D03*
Y0648400D02*
D03*
Y0658400D02*
D03*
Y0668400D02*
D03*
Y0678400D02*
D03*
Y0688400D02*
D03*
Y0698400D02*
D03*
Y0708400D02*
D03*
Y0718400D02*
D03*
X0274200Y0388400D02*
D03*
Y0398400D02*
D03*
Y0408400D02*
D03*
Y0418400D02*
D03*
Y0428400D02*
D03*
Y0438400D02*
D03*
Y0448400D02*
D03*
Y0458400D02*
D03*
Y0468400D02*
D03*
Y0478400D02*
D03*
X0264200Y0388400D02*
D03*
Y0398400D02*
D03*
Y0408400D02*
D03*
Y0418400D02*
D03*
Y0428400D02*
D03*
Y0438400D02*
D03*
Y0448400D02*
D03*
Y0458400D02*
D03*
Y0468400D02*
D03*
Y0478400D02*
D03*
G54D73*
X0222960Y0260920D02*
D03*
X0205440D02*
D03*
G54D74*
X0230293Y0248617D02*
D03*
X0198108D02*
D03*
G54D75*
X0121637Y0274699D02*
D03*
X0141716Y0267691D02*
D03*
X0137700Y0274699D02*
D03*
X0129668D02*
D03*
X0133684Y0267691D02*
D03*
X0125653D02*
D03*
X0113605Y0274699D02*
D03*
X0117621Y0267691D02*
D03*
G54D76*
X0102661Y0257691D02*
D03*
X0152661D02*
D03*
G54D77*
X0095653Y0271195D02*
D03*
X0159669D02*
D03*
G54D78*
X0134200Y0528400D02*
D03*
X0274200Y0598400D02*
D03*
X0094200D02*
D03*
G54D79*
X0134200Y0538400D02*
D03*
X0144200Y0528400D02*
D03*
Y0538400D02*
D03*
X0154200Y0528400D02*
D03*
Y0538400D02*
D03*
X0274200Y0608400D02*
D03*
Y0618400D02*
D03*
X0094200D02*
D03*
Y0608400D02*
D03*
G54D80*
X0129251Y0918691D02*
D03*
X0098149D02*
D03*
G54D81*
X0304200Y0728400D02*
D03*
X0114200Y0768400D02*
D03*
G54D82*
X0094200Y0478400D02*
D03*
Y0728400D02*
D03*
G54D83*
X0083200Y0871900D02*
D03*
X0087200Y0901900D02*
D03*
X0079200D02*
D03*
G54D84*
X0231200Y0405900D02*
D03*
X0241700Y0400900D02*
D03*
X0249700Y0407400D02*
D03*
X0241700Y0393400D02*
D03*
X0264700Y0606400D02*
D03*
X0294700Y0598400D02*
D03*
X0295700Y0582900D02*
D03*
X0291700Y0583400D02*
D03*
X0277200Y0585900D02*
D03*
X0101700Y0614900D02*
D03*
Y0610900D02*
D03*
X0171200Y0447900D02*
D03*
X0178200Y0450400D02*
D03*
X0291700Y0432900D02*
D03*
X0163200Y0625900D02*
D03*
X0165700Y0636400D02*
D03*
X0168200Y0639900D02*
D03*
X0170700Y0644400D02*
D03*
X0239700Y0710900D02*
D03*
X0174200Y0477900D02*
D03*
X0204700Y0520900D02*
D03*
X0250700Y0498400D02*
D03*
X0177200Y0480900D02*
D03*
X0133700Y0475400D02*
D03*
X0182700Y0417900D02*
D03*
X0141200Y0428900D02*
D03*
X0160700Y0425900D02*
D03*
X0164700D02*
D03*
X0157200Y0426900D02*
D03*
X0153700Y0432900D02*
D03*
X0172200Y0435900D02*
D03*
X0175700Y0436900D02*
D03*
X0163700Y0444900D02*
D03*
X0167200D02*
D03*
X0159700Y0444400D02*
D03*
X0167200Y0448400D02*
D03*
X0185200Y0420400D02*
D03*
X0211200Y0424900D02*
D03*
X0202200Y0430400D02*
D03*
X0167700Y0577900D02*
D03*
X0168700Y0584900D02*
D03*
X0169700Y0590400D02*
D03*
X0166700Y0512400D02*
D03*
X0139700Y0493900D02*
D03*
X0192200Y0515900D02*
D03*
X0239200Y0581900D02*
D03*
X0294700Y0554400D02*
D03*
X0283700Y0452900D02*
D03*
Y0442400D02*
D03*
X0291700Y0473400D02*
D03*
X0290200Y0402400D02*
D03*
X0294700Y0453400D02*
D03*
X0289200Y0406400D02*
D03*
X0236200Y0590400D02*
D03*
X0223200Y0640400D02*
D03*
X0199200Y0470900D02*
D03*
X0267200Y0338400D02*
D03*
X0159700Y0460400D02*
D03*
X0291200Y0745400D02*
D03*
X0291700Y0768900D02*
D03*
X0283200Y0760900D02*
D03*
X0286700Y0768900D02*
D03*
X0291700Y0760900D02*
D03*
X0189200Y0679900D02*
D03*
X0134200Y0621400D02*
D03*
X0294700Y0620900D02*
D03*
X0228700Y0808400D02*
D03*
X0089700Y0744400D02*
D03*
X0129200D02*
D03*
X0181700Y0567400D02*
D03*
X0205700Y0565900D02*
D03*
X0112200Y0439900D02*
D03*
Y0443400D02*
D03*
X0109700Y0470900D02*
D03*
X0167700Y0488400D02*
D03*
X0231400Y0469953D02*
D03*
X0227200Y0467400D02*
D03*
X0178358Y0460400D02*
D03*
X0184700Y0444400D02*
D03*
X0207700Y0395900D02*
D03*
X0201700Y0394400D02*
D03*
X0196900Y0395400D02*
D03*
X0259700Y0385400D02*
D03*
X0225200Y0388900D02*
D03*
X0244700Y0471400D02*
D03*
Y0479900D02*
D03*
X0246800Y0455000D02*
D03*
X0245700Y0458400D02*
D03*
X0244700Y0463900D02*
D03*
X0232200Y0451400D02*
D03*
X0234700Y0428400D02*
D03*
X0232200Y0424300D02*
D03*
X0259700Y0421400D02*
D03*
X0281700Y0390900D02*
D03*
X0279700Y0383900D02*
D03*
X0296200Y0386400D02*
D03*
X0296700Y0396400D02*
D03*
X0172700Y0408900D02*
D03*
X0176200Y0405400D02*
D03*
X0180200D02*
D03*
X0180400Y0401900D02*
D03*
X0182700Y0378400D02*
D03*
X0180700Y0363900D02*
D03*
X0197700Y0353400D02*
D03*
X0311200Y0493400D02*
D03*
X0295200Y0354900D02*
D03*
X0310200Y0353400D02*
D03*
X0309200Y0413400D02*
D03*
X0308200Y0373400D02*
D03*
X0259200Y0374400D02*
D03*
X0263700Y0358400D02*
D03*
X0270200Y0351400D02*
D03*
X0169200Y0378400D02*
D03*
X0161768Y0405833D02*
D03*
X0164541Y0382400D02*
D03*
X0158200Y0395730D02*
D03*
X0142200Y0400070D02*
D03*
X0128200Y0391400D02*
D03*
X0116200D02*
D03*
X0220200Y0800400D02*
D03*
Y0748400D02*
D03*
X0241200Y0751900D02*
D03*
X0218200Y0742900D02*
D03*
X0091200Y0797900D02*
D03*
X0139200Y0901900D02*
D03*
X0104700Y0856203D02*
D03*
X0145759Y0867900D02*
D03*
X0226200Y0737900D02*
D03*
X0209200Y0748400D02*
D03*
X0246200Y0805900D02*
D03*
X0213200Y0798400D02*
D03*
X0120700Y0856203D02*
D03*
X0099200Y0853900D02*
D03*
X0149700Y0801900D02*
D03*
X0084200Y0815400D02*
D03*
X0092200Y0882400D02*
D03*
Y0896400D02*
D03*
X0093200Y0902400D02*
D03*
X0132200Y0894900D02*
D03*
X0166200Y0818900D02*
D03*
X0238700Y0808400D02*
D03*
X0204200Y0923900D02*
D03*
X0181200Y0923400D02*
D03*
X0155875Y0923597D02*
D03*
X0274200Y0923400D02*
D03*
X0293700Y0902522D02*
D03*
X0296700Y0873400D02*
D03*
Y0833400D02*
D03*
X0296200Y0803400D02*
D03*
X0288200D02*
D03*
X0193200Y0788900D02*
D03*
X0174700D02*
D03*
X0167700Y0802900D02*
D03*
X0280700Y0776900D02*
D03*
X0257200D02*
D03*
X0230700Y0858900D02*
D03*
X0130200Y0908900D02*
D03*
X0127700Y0895400D02*
D03*
X0104200Y0885400D02*
D03*
X0129200Y0874900D02*
D03*
X0075200Y0788400D02*
D03*
X0073200Y0908400D02*
D03*
X0231700Y0923900D02*
D03*
X0137200Y0908900D02*
D03*
X0149200Y0884400D02*
D03*
X0156700Y0873900D02*
D03*
X0251700Y0898400D02*
D03*
X0137700Y0923400D02*
D03*
X0121200Y0831400D02*
D03*
X0156700Y0888400D02*
D03*
X0192700Y0903900D02*
D03*
X0218200Y0904400D02*
D03*
X0229700Y0900400D02*
D03*
X0174200Y0903900D02*
D03*
X0175700Y0843400D02*
D03*
X0176200Y0815900D02*
D03*
X0177200Y0798400D02*
D03*
X0199200Y0798900D02*
D03*
X0090700Y0918400D02*
D03*
X0122200Y0785400D02*
D03*
X0135200D02*
D03*
X0130700Y0791400D02*
D03*
X0149700Y0785900D02*
D03*
X0096491Y0378109D02*
D03*
X0101200Y0379400D02*
D03*
X0108200Y0375400D02*
D03*
X0118700Y0381900D02*
D03*
X0143700D02*
D03*
X0213200Y0269400D02*
D03*
X0221200Y0269400D02*
D03*
X0214200Y0280400D02*
D03*
X0211200Y0277400D02*
D03*
X0224200Y0274400D02*
D03*
X0188200Y0385400D02*
D03*
X0189200Y0390400D02*
D03*
X0193200Y0377400D02*
D03*
X0201562Y0371038D02*
D03*
X0202200Y0385400D02*
D03*
X0215200Y0396400D02*
D03*
X0207200Y0406400D02*
D03*
X0211200D02*
D03*
Y0410400D02*
D03*
X0214200Y0413400D02*
D03*
X0225200Y0396400D02*
D03*
X0203200Y0304400D02*
D03*
Y0300400D02*
D03*
X0209200Y0299400D02*
D03*
X0206200Y0295400D02*
D03*
X0230200Y0278400D02*
D03*
X0236200D02*
D03*
X0294200Y0271400D02*
D03*
X0232200Y0294400D02*
D03*
X0222200Y0298400D02*
D03*
X0226200Y0299400D02*
D03*
X0223200Y0343400D02*
D03*
X0232200Y0352400D02*
D03*
X0111200Y0387400D02*
D03*
X0190200Y0267400D02*
D03*
X0165200Y0367400D02*
D03*
X0173200Y0389400D02*
D03*
X0176200Y0378400D02*
D03*
Y0348400D02*
D03*
X0210052Y0443400D02*
D03*
X0226200Y0345400D02*
D03*
X0296200Y0343400D02*
D03*
X0295153Y0333447D02*
D03*
X0246200Y0295400D02*
D03*
X0186200Y0319400D02*
D03*
X0176200Y0366400D02*
D03*
X0179200Y0331400D02*
D03*
X0183200Y0338400D02*
D03*
X0181200Y0373400D02*
D03*
X0295200Y0309400D02*
D03*
X0275200Y0355400D02*
D03*
Y0374400D02*
D03*
X0269200Y0423400D02*
D03*
X0277200Y0313400D02*
D03*
X0281200Y0319400D02*
D03*
X0186200Y0335400D02*
D03*
X0259200Y0342400D02*
D03*
X0296700Y0468400D02*
D03*
X0259450Y0403400D02*
D03*
X0301200Y0443400D02*
D03*
X0223700Y0449900D02*
D03*
Y0446400D02*
D03*
X0216200Y0451900D02*
D03*
X0220200Y0472900D02*
D03*
X0210200Y0457400D02*
D03*
X0207700Y0460400D02*
D03*
X0208700Y0480400D02*
D03*
X0214200Y0478900D02*
D03*
X0202700Y0465600D02*
D03*
X0291200Y0373400D02*
D03*
X0256700Y0377400D02*
D03*
X0254700Y0397900D02*
D03*
X0258700Y0409400D02*
D03*
X0252200Y0438900D02*
D03*
X0189700Y0409400D02*
D03*
Y0412900D02*
D03*
X0194200Y0412400D02*
D03*
X0187700Y0402900D02*
D03*
X0167123Y0415400D02*
D03*
X0167200Y0418900D02*
D03*
X0163700Y0419400D02*
D03*
X0285700Y0417400D02*
D03*
X0279200Y0413400D02*
D03*
X0279700Y0405400D02*
D03*
X0229200Y0415900D02*
D03*
X0246700Y0426900D02*
D03*
X0203700Y0419400D02*
D03*
X0247700Y0423400D02*
D03*
X0172200Y0416900D02*
D03*
X0175600Y0417100D02*
D03*
X0180700Y0422900D02*
D03*
X0181700Y0426400D02*
D03*
X0186700Y0426900D02*
D03*
X0199700Y0418900D02*
D03*
X0258200Y0436900D02*
D03*
X0214200Y0435400D02*
D03*
X0188200Y0433900D02*
D03*
X0193200Y0436400D02*
D03*
X0257200Y0441900D02*
D03*
Y0447900D02*
D03*
X0252200Y0462400D02*
D03*
X0260200Y0432900D02*
D03*
X0195700Y0441900D02*
D03*
X0198700Y0439900D02*
D03*
X0201700Y0450900D02*
D03*
X0204200Y0447900D02*
D03*
X0189200Y0455900D02*
D03*
X0192200Y0458400D02*
D03*
X0187200Y0458900D02*
D03*
X0187700Y0464900D02*
D03*
X0188700Y0450900D02*
D03*
X0181200Y0466400D02*
D03*
X0178700Y0463900D02*
D03*
X0174700Y0458977D02*
D03*
X0154200Y0438400D02*
D03*
X0157200Y0435900D02*
D03*
X0150200Y0434900D02*
D03*
X0156200Y0460900D02*
D03*
X0171700Y0472900D02*
D03*
X0187200Y0479400D02*
D03*
X0146200Y0418400D02*
D03*
X0142700Y0416900D02*
D03*
X0158700Y0408900D02*
D03*
X0156200Y0411400D02*
D03*
X0146200Y0413400D02*
D03*
X0143200Y0406400D02*
D03*
X0113200Y0436400D02*
D03*
X0108950Y0393400D02*
D03*
X0132700Y0391400D02*
D03*
X0136700Y0391900D02*
D03*
X0118700Y0395900D02*
D03*
X0127700Y0397400D02*
D03*
X0118700Y0425400D02*
D03*
X0121200Y0404900D02*
D03*
X0123700Y0430400D02*
D03*
Y0396400D02*
D03*
X0136200Y0400200D02*
D03*
X0138200Y0405400D02*
D03*
X0128200Y0407400D02*
D03*
X0130200Y0410400D02*
D03*
Y0413900D02*
D03*
X0129400Y0417400D02*
D03*
X0132800Y0433400D02*
D03*
X0135200Y0422900D02*
D03*
X0145700Y0445900D02*
D03*
X0133700Y0468900D02*
D03*
X0141200Y0422900D02*
D03*
X0099200Y0383400D02*
D03*
X0157700Y0373900D02*
D03*
X0126400Y0468400D02*
D03*
X0307700Y0473400D02*
D03*
X0264200Y0489400D02*
D03*
X0282700Y0492900D02*
D03*
X0182200Y0484400D02*
D03*
X0207700Y0497900D02*
D03*
X0163200Y0504900D02*
D03*
X0166700Y0508400D02*
D03*
X0177200Y0503400D02*
D03*
X0265700Y0498400D02*
D03*
X0231200Y0506400D02*
D03*
X0259200Y0507900D02*
D03*
X0277700Y0508900D02*
D03*
X0283200Y0502900D02*
D03*
X0299700Y0514400D02*
D03*
X0257200Y0513900D02*
D03*
X0224700Y0513400D02*
D03*
X0221700Y0525900D02*
D03*
Y0521900D02*
D03*
X0238700Y0514900D02*
D03*
X0252200Y0518400D02*
D03*
X0257200Y0520900D02*
D03*
X0309200Y0523900D02*
D03*
Y0622400D02*
D03*
X0298200Y0523400D02*
D03*
X0300700Y0613400D02*
D03*
X0272200Y0528400D02*
D03*
X0268700Y0522400D02*
D03*
X0273700Y0531900D02*
D03*
X0279200Y0525900D02*
D03*
X0193200Y0548900D02*
D03*
X0194700Y0531400D02*
D03*
X0194200Y0536400D02*
D03*
X0131200Y0501400D02*
D03*
X0094200Y0503400D02*
D03*
X0104200D02*
D03*
X0109200Y0546400D02*
D03*
X0113200Y0522400D02*
D03*
X0129700Y0512400D02*
D03*
X0140200Y0544900D02*
D03*
X0144700Y0563900D02*
D03*
X0141700Y0567400D02*
D03*
X0137200Y0563900D02*
D03*
Y0570400D02*
D03*
X0149491Y0548109D02*
D03*
X0148200Y0544400D02*
D03*
X0145700Y0567900D02*
D03*
X0156700Y0547400D02*
D03*
X0193200Y0554400D02*
D03*
X0195700Y0589900D02*
D03*
X0179200Y0573400D02*
D03*
X0106700Y0612400D02*
D03*
X0107700Y0615900D02*
D03*
X0113200Y0648900D02*
D03*
X0111700Y0619900D02*
D03*
X0115700Y0702900D02*
D03*
X0113700Y0708400D02*
D03*
X0119700Y0629900D02*
D03*
X0120700Y0633400D02*
D03*
X0118200Y0682400D02*
D03*
X0121700Y0639400D02*
D03*
Y0669900D02*
D03*
Y0673400D02*
D03*
X0104200Y0752900D02*
D03*
X0094200D02*
D03*
X0127700Y0604900D02*
D03*
X0275200Y0537900D02*
D03*
X0279700Y0548400D02*
D03*
X0283200Y0568400D02*
D03*
X0273200Y0554400D02*
D03*
X0259700Y0552900D02*
D03*
X0244700Y0530900D02*
D03*
X0242200Y0527400D02*
D03*
X0239200Y0555400D02*
D03*
X0243200Y0556900D02*
D03*
X0235700Y0538400D02*
D03*
X0245700D02*
D03*
X0216200Y0547900D02*
D03*
X0219700Y0553900D02*
D03*
X0283200Y0578400D02*
D03*
X0254700D02*
D03*
X0262200Y0588400D02*
D03*
X0281200Y0687900D02*
D03*
X0282200Y0691900D02*
D03*
X0259700Y0613400D02*
D03*
X0204200Y0550900D02*
D03*
X0160700Y0618400D02*
D03*
X0184200Y0563400D02*
D03*
X0154700Y0588400D02*
D03*
X0203200Y0621400D02*
D03*
X0187700Y0603900D02*
D03*
X0126200Y0515400D02*
D03*
X0096700Y0517400D02*
D03*
X0099700Y0520400D02*
D03*
X0210200Y0603400D02*
D03*
X0252200Y0607400D02*
D03*
X0230200Y0595900D02*
D03*
X0253200D02*
D03*
X0201700Y0553400D02*
D03*
X0160700Y0631400D02*
D03*
X0246200Y0606900D02*
D03*
X0247200Y0611900D02*
D03*
X0244200Y0632400D02*
D03*
Y0646900D02*
D03*
X0239200Y0640400D02*
D03*
X0236700Y0645900D02*
D03*
X0299200Y0693400D02*
D03*
X0293700Y0710900D02*
D03*
X0297200Y0706900D02*
D03*
X0291200Y0708400D02*
D03*
X0295700Y0696900D02*
D03*
X0308200Y0701900D02*
D03*
X0310200Y0704900D02*
D03*
X0295700Y0700400D02*
D03*
X0258700Y0711900D02*
D03*
X0168200Y0667400D02*
D03*
X0194200Y0541400D02*
D03*
X0188700Y0624900D02*
D03*
X0203200Y0664900D02*
D03*
X0235700Y0909400D02*
D03*
X0195700Y0569900D02*
D03*
X0176200Y0569900D02*
D03*
X0171200Y0662400D02*
D03*
X0287200Y0257400D02*
D03*
X0279200Y0268400D02*
D03*
Y0278400D02*
D03*
X0282700Y0258400D02*
D03*
X0260700Y0263400D02*
D03*
X0281700Y0254400D02*
D03*
X0250200Y0250400D02*
D03*
X0305700Y0766900D02*
D03*
Y0739900D02*
D03*
X0082700Y0766900D02*
D03*
X0082200Y0739400D02*
D03*
X0236700Y0667400D02*
D03*
X0193700Y0304900D02*
D03*
X0214200Y0738900D02*
D03*
X0184200Y0755400D02*
D03*
X0196200D02*
D03*
X0201200Y0760400D02*
D03*
X0154200Y0758400D02*
D03*
X0250700Y0688400D02*
D03*
X0236700Y0696400D02*
D03*
X0237200Y0731900D02*
D03*
X0236200Y0752400D02*
D03*
X0293200Y0590400D02*
D03*
X0245700Y0476400D02*
D03*
X0248200Y0489400D02*
D03*
X0252200Y0466400D02*
D03*
X0253200Y0586900D02*
D03*
X0173700Y0679400D02*
D03*
X0137700Y0636900D02*
D03*
X0134200Y0634600D02*
D03*
X0131200Y0576400D02*
D03*
X0149200Y0588400D02*
D03*
X0151700Y0676900D02*
D03*
X0138700Y0515900D02*
D03*
X0130200Y0579900D02*
D03*
X0155200Y0599900D02*
D03*
X0186700Y0670900D02*
D03*
X0181700Y0673900D02*
D03*
X0296700Y0663900D02*
D03*
X0291700Y0661900D02*
D03*
X0189200Y0651400D02*
D03*
X0194200Y0651900D02*
D03*
X0149200Y0673900D02*
D03*
X0131200D02*
D03*
X0177700D02*
D03*
X0144700Y0679400D02*
D03*
X0184200Y0681900D02*
D03*
X0136700D02*
D03*
X0164200Y0755400D02*
D03*
X0176700Y0726900D02*
D03*
X0181700D02*
D03*
X0158971Y0840089D02*
D03*
X0158700Y0815400D02*
D03*
G54D85*
X0249700Y0905400D02*
D03*
X0254700Y0911400D02*
D03*
X0072200Y0817900D02*
D03*
Y0846400D02*
D03*
Y0872400D02*
D03*
Y0897400D02*
D03*
X0079200Y0828900D02*
D03*
X0127901Y0891400D02*
D03*
X0116200Y0888400D02*
D03*
X0111700Y0883400D02*
D03*
X0113700Y0881900D02*
D03*
X0118200Y0892900D02*
D03*
X0120840Y0894634D02*
D03*
X0120583Y0898400D02*
D03*
X0102700Y0890900D02*
D03*
X0078700Y0815900D02*
D03*
X0094200Y0831400D02*
D03*
X0096700Y0816400D02*
D03*
X0086700Y0790900D02*
D03*
X0099700Y0787400D02*
D03*
X0109200Y0807900D02*
D03*
X0120700D02*
D03*
X0122200Y0792900D02*
D03*
X0109253Y0785900D02*
D03*
X0097700Y0830400D02*
D03*
X0079200Y0832400D02*
D03*
X0079700Y0839400D02*
D03*
Y0842400D02*
D03*
X0083200Y0863400D02*
D03*
X0092200Y0870900D02*
D03*
X0080200Y0876900D02*
D03*
X0085700Y0882400D02*
D03*
X0080700Y0886900D02*
D03*
Y0896900D02*
D03*
Y0881900D02*
D03*
X0085700Y0886900D02*
D03*
Y0896900D02*
D03*
X0080700Y0891900D02*
D03*
X0086200Y0876400D02*
D03*
X0079200Y0848400D02*
D03*
X0122200Y0865900D02*
D03*
X0143700Y0853400D02*
D03*
X0142200Y0845900D02*
D03*
X0142700Y0830400D02*
D03*
X0154700Y0828400D02*
D03*
X0160200Y0826400D02*
D03*
X0166200Y0835400D02*
D03*
X0166700Y0858400D02*
D03*
Y0854900D02*
D03*
Y0844400D02*
D03*
Y0851400D02*
D03*
X0142200Y0841400D02*
D03*
X0144200Y0873900D02*
D03*
X0125700Y0867900D02*
D03*
X0113700Y0892400D02*
D03*
X0136700Y0886900D02*
D03*
X0162700Y0866400D02*
D03*
X0118700Y0867400D02*
D03*
X0139700Y0791400D02*
D03*
X0145700Y0790900D02*
D03*
X0118200Y0805900D02*
D03*
X0221700Y0784400D02*
D03*
X0241200Y0768400D02*
D03*
X0231200Y0778900D02*
D03*
X0213200Y0787400D02*
D03*
X0142700Y0856203D02*
D03*
X0110200Y0891400D02*
D03*
X0202200Y0793400D02*
D03*
X0106200Y0890900D02*
D03*
X0116700Y0901900D02*
D03*
X0110700Y0902900D02*
D03*
X0113700D02*
D03*
X0113969Y0884293D02*
D03*
X0107700Y0899400D02*
D03*
X0098200Y0897400D02*
D03*
Y0903439D02*
D03*
X0246200Y0778900D02*
D03*
X0241200D02*
D03*
X0175200Y0866400D02*
D03*
X0179700Y0890400D02*
D03*
X0202700Y0891900D02*
D03*
X0229700Y0891400D02*
D03*
X0188200Y0815900D02*
D03*
X0122700Y0872900D02*
D03*
X0121200Y0870900D02*
D03*
X0166700Y0847900D02*
D03*
G54D86*
X0146440Y0554900D02*
D03*
X0138960D02*
D03*
X0142700Y0557164D02*
D03*
Y0552636D02*
D03*
X0119436Y0885900D02*
D03*
X0123964D02*
D03*
X0121700Y0889640D02*
D03*
Y0882160D02*
D03*
G54D88*
X0080700Y0876900D02*
D03*
Y0881900D02*
D03*
Y0886900D02*
D03*
Y0891900D02*
D03*
Y0896900D02*
D03*
X0085700D02*
D03*
Y0891900D02*
D03*
Y0886900D02*
D03*
Y0881900D02*
D03*
Y0876900D02*
D03*
M02*
