M48
;Layer_Color=9474304
;FILE_FORMAT=2:5
INCH
;TYPE=PLATED
T1F00S00C0.00787
T2F00S00C0.01200
T6F00S00C0.03504
T7F00S00C0.04000
T8F00S00C0.04016
T9F00S00C0.04724
T10F00S00C0.06181
T11F00S00C0.12800
;TYPE=NON_PLATED
T12F00S00C0.03543
T13F00S00C0.03900
T14F00S00C0.12500
%
T01
X0138960Y0554900
X0142700Y0557164
Y0552636
X0146440Y0554900
X0121700Y0882160
X0119436Y0885900
X0123964
X0121700Y0889640
T02
X0190200Y0267400
X0213200Y0269400
X0221200Y0269400
X0224200Y0274400
X0230200Y0278400
X0236200
X0232200Y0294400
X0226200Y0299400
X0222200Y0298400
X0209200Y0299400
X0203200Y0300400
Y0304400
X0193700Y0304900
X0206200Y0295400
X0214200Y0280400
X0211200Y0277400
X0246200Y0295400
X0260700Y0263400
X0279200Y0268400
Y0278400
X0294200Y0271400
X0287200Y0257400
X0282700Y0258400
X0281700Y0254400
X0250200Y0250400
X0295200Y0309400
X0143700Y0381900
X0136700Y0391900
X0132700Y0391400
X0128200
X0127700Y0397400
X0123700Y0396400
X0118700Y0395900
X0116200Y0391400
X0111200Y0387400
X0108950Y0393400
X0108200Y0375400
X0101200Y0379400
X0096491Y0378109
X0099200Y0383400
X0118700Y0381900
X0121200Y0404900
X0128200Y0407400
X0130200Y0410400
Y0413900
X0129400Y0417400
X0135200Y0422900
X0141200
Y0428900
X0132800Y0433400
X0123700Y0430400
X0118700Y0425400
X0113200Y0436400
X0112200Y0439900
Y0443400
X0145700Y0445900
X0150200Y0434900
X0153700Y0432900
X0154200Y0438400
X0156200Y0460900
X0126400Y0468400
X0142700Y0416900
X0146200Y0418400
Y0413400
X0143200Y0406400
X0138200Y0405400
X0136200Y0400200
X0142200Y0400070
X0156200Y0411400
X0158700Y0408900
X0161768Y0405833
X0158200Y0395730
X0164541Y0382400
X0169200Y0378400
X0176200
X0182700
X0181200Y0373400
X0180700Y0363900
X0176200Y0366400
X0165200Y0367400
X0157700Y0373900
X0173200Y0389400
X0189200Y0390400
X0188200Y0385400
X0193200Y0377400
X0201562Y0371038
X0202200Y0385400
X0201700Y0394400
X0196900Y0395400
X0207700Y0395900
X0215200Y0396400
X0225200
Y0388900
X0241700Y0393400
Y0400900
X0249700Y0407400
X0258700Y0409400
X0259450Y0403400
X0254700Y0397900
X0259700Y0385400
X0256700Y0377400
X0259200Y0374400
X0275200
X0279700Y0383900
X0281700Y0390900
X0279700Y0405400
X0279200Y0413400
X0285700Y0417400
X0289200Y0406400
X0290200Y0402400
X0296700Y0396400
X0296200Y0386400
X0291200Y0373400
X0308200
X0310200Y0353400
X0295200Y0354900
X0296200Y0343400
X0295153Y0333447
X0281200Y0319400
X0277200Y0313400
X0267200Y0338400
X0259200Y0342400
X0270200Y0351400
X0275200Y0355400
X0263700Y0358400
X0232200Y0352400
X0226200Y0345400
X0223200Y0343400
X0197700Y0353400
X0176200Y0348400
X0183200Y0338400
X0186200Y0335400
X0179200Y0331400
X0186200Y0319400
X0187700Y0402900
X0180400Y0401900
X0180200Y0405400
X0176200
X0172700Y0408900
X0172200Y0416900
X0175600Y0417100
X0182700Y0417900
X0185200Y0420400
X0180700Y0422900
X0181700Y0426400
X0186700Y0426900
X0188200Y0433900
X0193200Y0436400
X0195700Y0441900
X0198700Y0439900
X0202200Y0430400
X0203700Y0419400
X0199700Y0418900
X0194200Y0412400
X0189700Y0412900
Y0409400
X0207200Y0406400
X0211200
Y0410400
X0214200Y0413400
X0211200Y0424900
X0214200Y0435400
X0210052Y0443400
X0204200Y0447900
X0201700Y0450900
X0188700
X0189200Y0455900
X0187200Y0458900
X0192200Y0458400
X0187700Y0464900
X0181200Y0466400
X0178700Y0463900
X0178358Y0460400
X0174700Y0458977
X0178200Y0450400
X0171200Y0447900
X0167200Y0448400
Y0444900
X0163700
X0159700Y0444400
X0157200Y0435900
Y0426900
X0160700Y0425900
X0164700
X0163700Y0419400
X0167200Y0418900
X0167123Y0415400
X0172200Y0435900
X0175700Y0436900
X0184700Y0444400
X0210200Y0457400
X0207700Y0460400
X0202700Y0465600
X0227200Y0467400
X0244700Y0463900
X0245700Y0458400
X0246800Y0455000
X0252200Y0462400
Y0466400
X0257200Y0447900
Y0441900
X0258200Y0436900
X0260200Y0432900
X0259700Y0421400
X0269200Y0423400
X0247700
X0246700Y0426900
X0234700Y0428400
X0232200Y0424300
X0229200Y0415900
X0231200Y0405900
X0232200Y0451400
X0223700Y0449900
Y0446400
X0216200Y0451900
X0252200Y0438900
X0283700Y0442400
Y0452900
X0294700Y0453400
X0301200Y0443400
X0291700Y0432900
X0309200Y0413400
X0296700Y0468400
X0159700Y0460400
X0171700Y0472900
X0174200Y0477900
X0177200Y0480900
X0182200Y0484400
X0187200Y0479400
X0199200Y0470900
X0208700Y0480400
X0214200Y0478900
X0220200Y0472900
X0231400Y0469953
X0244700Y0471400
X0245700Y0476400
X0244700Y0479900
X0248200Y0489400
X0250700Y0498400
X0265700
X0264200Y0489400
X0282700Y0492900
X0283200Y0502900
X0277700Y0508900
X0279200Y0525900
X0272200Y0528400
X0273700Y0531900
X0275200Y0537900
X0279700Y0548400
X0273200Y0554400
X0259700Y0552900
X0243200Y0556900
X0239200Y0555400
X0235700Y0538400
X0245700
X0244700Y0530900
X0242200Y0527400
X0238700Y0514900
X0224700Y0513400
X0221700Y0521900
Y0525900
X0204700Y0520900
X0192200Y0515900
X0194700Y0531400
X0194200Y0536400
Y0541400
X0193200Y0548900
Y0554400
X0201700Y0553400
X0204200Y0550900
X0216200Y0547900
X0219700Y0553900
X0205700Y0565900
X0195700Y0569900
X0181700Y0567400
X0184200Y0563400
X0176200Y0569900
X0179200Y0573400
X0167700Y0577900
X0168700Y0584900
X0169700Y0590400
X0195700Y0589900
X0187700Y0603900
X0188700Y0624900
X0203200Y0621400
X0210200Y0603400
X0230200Y0595900
X0236200Y0590400
X0239200Y0581900
X0254700Y0578400
X0253200Y0586900
Y0595900
X0252200Y0607400
X0246200Y0606900
X0247200Y0611900
X0259700Y0613400
X0264700Y0606400
X0262200Y0588400
X0277200Y0585900
X0283200Y0578400
Y0568400
X0291700Y0583400
X0295700Y0582900
X0293200Y0590400
X0294700Y0598400
X0300700Y0613400
X0294700Y0620900
X0309200Y0622400
X0294700Y0554400
X0298200Y0523400
X0299700Y0514400
X0309200Y0523900
X0311200Y0493400
X0307700Y0473400
X0291700
X0259200Y0507900
X0257200Y0513900
Y0520900
X0252200Y0518400
X0268700Y0522400
X0231200Y0506400
X0207700Y0497900
X0177200Y0503400
X0163200Y0504900
X0166700Y0508400
Y0512400
X0167700Y0488400
X0156700Y0547400
X0160700Y0618400
X0155200Y0599900
X0154700Y0588400
X0149200
X0145700Y0567900
X0141700Y0567400
X0144700Y0563900
X0137200
Y0570400
X0131200Y0576400
X0130200Y0579900
X0127700Y0604900
X0134200Y0621400
X0111700Y0619900
X0107700Y0615900
X0106700Y0612400
X0101700Y0610900
Y0614900
X0109200Y0546400
X0113200Y0522400
X0099700Y0520400
X0096700Y0517400
X0094200Y0503400
X0104200
X0131200Y0501400
X0129700Y0512400
X0126200Y0515400
X0138700Y0515900
X0139700Y0493900
X0133700Y0475400
Y0468900
X0109700Y0470900
X0140200Y0544900
X0148200Y0544400
X0149491Y0548109
X0137700Y0636900
X0134200Y0634600
X0120700Y0633400
X0119700Y0629900
X0121700Y0639400
X0113200Y0648900
X0121700Y0669900
Y0673400
X0131200Y0673900
X0136700Y0681900
X0144700Y0679400
X0151700Y0676900
X0149200Y0673900
X0118200Y0682400
X0115700Y0702900
X0113700Y0708400
X0129200Y0744400
X0104200Y0752900
X0094200
X0089700Y0744400
X0082200Y0739400
X0082700Y0766900
X0154200Y0758400
X0164200Y0755400
X0184200
X0196200
X0201200Y0760400
X0209200Y0748400
X0220200
X0218200Y0742900
X0214200Y0738900
X0226200Y0737900
X0237200Y0731900
X0236200Y0752400
X0241200Y0751900
Y0768400
Y0778900
X0246200
X0257200Y0776900
X0280700
X0286700Y0768900
X0291700
Y0760900
X0283200
X0291200Y0745400
X0305700Y0739900
Y0766900
X0310200Y0704900
X0308200Y0701900
X0295700Y0700400
Y0696900
X0299200Y0693400
X0297200Y0706900
X0293700Y0710900
X0291200Y0708400
X0282200Y0691900
X0281200Y0687900
X0250700Y0688400
X0236700Y0696400
X0239700Y0710900
X0258700Y0711900
X0236700Y0667400
Y0645900
X0239200Y0640400
X0244200Y0646900
Y0632400
X0223200Y0640400
X0194200Y0651900
X0189200Y0651400
X0186700Y0670900
X0181700Y0673900
X0177700
X0173700Y0679400
X0184200Y0681900
X0189200Y0679900
X0203200Y0664900
X0171200Y0662400
X0168200Y0667400
X0170700Y0644400
X0168200Y0639900
X0165700Y0636400
X0160700Y0631400
X0163200Y0625900
X0176700Y0726900
X0181700
X0231200Y0778900
X0291700Y0661900
X0296700Y0663900
X0296200Y0803400
X0288200
X0296700Y0833400
Y0873400
X0293700Y0902522
X0274200Y0923400
X0254700Y0911400
X0249700Y0905400
X0251700Y0898400
X0229700Y0900400
Y0891400
X0235700Y0909400
X0231700Y0923900
X0204200
X0181200Y0923400
X0174200Y0903900
X0192700
X0202700Y0891900
X0179700Y0890400
X0156700Y0888400
Y0873900
X0162700Y0866400
X0166700Y0858400
Y0854900
Y0851400
Y0847900
Y0844400
X0166200Y0835400
X0158971Y0840089
X0160200Y0826400
X0158700Y0815400
X0166200Y0818900
X0176200Y0815900
X0188200
X0199200Y0798900
X0202200Y0793400
X0193200Y0788900
X0174700
X0177200Y0798400
X0167700Y0802900
X0175700Y0843400
X0175200Y0866400
X0230700Y0858900
X0228700Y0808400
X0238700
X0246200Y0805900
X0220200Y0800400
X0213200Y0798400
Y0787400
X0221700Y0784400
X0218200Y0904400
X0139200Y0901900
X0137200Y0908900
X0130200
X0132200Y0894900
X0127700Y0895400
X0127901Y0891400
X0120840Y0894634
X0120583Y0898400
X0116700Y0901900
X0113700Y0902900
X0110700
X0107700Y0899400
X0106200Y0890900
X0102700
X0104200Y0885400
X0111700Y0883400
X0113969Y0884293
X0113700Y0881900
X0116200Y0888400
X0118200Y0892900
X0113700Y0892400
X0110200Y0891400
X0098200Y0897400
Y0903439
X0093200Y0902400
X0092200Y0896400
X0085700Y0896900
X0080700
Y0891900
Y0886900
Y0881900
X0080200Y0876900
X0086200Y0876400
X0085700Y0882400
Y0886900
X0092200Y0882400
Y0870900
X0083200Y0863400
X0079200Y0848400
X0079700Y0842400
Y0839400
X0079200Y0832400
Y0828900
X0078700Y0815900
X0084200Y0815400
X0096700Y0816400
X0097700Y0830400
X0094200Y0831400
X0121200
X0142700Y0830400
X0142200Y0841400
Y0845900
X0143700Y0853400
X0142700Y0856203
X0145759Y0867900
X0144200Y0873900
X0149200Y0884400
X0136700Y0886900
X0129200Y0874900
X0122700Y0872900
X0121200Y0870900
X0122200Y0865900
X0118700Y0867400
X0125700Y0867900
X0120700Y0856203
X0104700
X0099200Y0853900
X0072200Y0846400
Y0872400
Y0897400
X0073200Y0908400
X0090700Y0918400
X0137700Y0923400
X0155875Y0923597
X0154700Y0828400
X0149700Y0801900
X0145700Y0790900
X0139700Y0791400
X0130700
X0122200Y0792900
X0122200Y0785400
X0135200
X0149700Y0785900
X0109253
X0099700Y0787400
X0086700Y0790900
X0091200Y0797900
X0075200Y0788400
X0072200Y0817900
X0109200Y0807900
X0118200Y0805900
X0120700Y0807900
T06
X0117621Y0267691
X0125653
X0133684
X0141716
X0137700Y0274699
X0129668
X0121637
X0113605
T07
X0204200Y0288400
X0214200
X0224200
X0234200
X0284200Y0328400
X0214200Y0368400
X0184200Y0358400
X0174200
Y0488400
X0214200
X0234200Y0563400
X0204200Y0578400
Y0588400
X0184200Y0588400
Y0578400
X0194200Y0618400
X0274200
Y0608400
Y0598400
X0154200Y0568400
Y0538400
X0144200
X0134200
Y0528400
X0144200
X0154200
X0094200Y0568400
Y0598400
Y0608400
Y0618400
X0114200Y0768400
Y0778400
X0124200
X0134200
X0144200
X0154200
Y0768400
X0144200
X0134200
X0124200
X0164200
Y0778400
X0174200
X0184200
X0194200
X0204200
Y0768400
X0194200
X0184200
X0174200
X0214200Y0638400
Y0628400
T08
X0314200Y0248400
Y0258400
Y0268400
Y0278400
Y0288400
Y0298400
Y0308400
X0304200
Y0298400
Y0288400
Y0278400
Y0268400
Y0258400
Y0248400
X0104200Y0388400
Y0398400
Y0408400
Y0418400
Y0428400
Y0438400
Y0448400
Y0458400
Y0468400
X0094200
Y0458400
Y0448400
Y0438400
Y0428400
Y0418400
Y0408400
Y0398400
Y0388400
X0264200
X0274200
Y0398400
Y0408400
Y0418400
Y0428400
Y0438400
Y0448400
Y0458400
Y0468400
X0264200
Y0458400
Y0448400
Y0438400
Y0428400
Y0418400
Y0408400
Y0398400
X0304200
Y0388400
Y0378400
Y0368400
Y0358400
Y0348400
Y0338400
Y0328400
Y0318400
Y0408400
Y0418400
Y0428400
Y0438400
Y0448400
Y0458400
Y0468400
X0314200
Y0458400
Y0448400
Y0438400
Y0428400
Y0418400
Y0408400
Y0398400
Y0388400
Y0378400
Y0368400
Y0358400
Y0348400
Y0338400
Y0328400
Y0318400
Y0478400
Y0488400
Y0498400
Y0508400
Y0518400
Y0528400
Y0538400
Y0548400
Y0558400
Y0568400
Y0578400
Y0588400
Y0598400
Y0608400
Y0618400
X0304200
Y0608400
Y0598400
Y0588400
Y0578400
Y0568400
Y0558400
Y0548400
Y0538400
Y0528400
Y0518400
Y0508400
Y0498400
Y0488400
Y0478400
X0274200
X0264200
X0104200
X0094200
Y0638400
X0104200
Y0648400
Y0658400
Y0668400
Y0678400
Y0688400
Y0698400
Y0708400
Y0718400
Y0728400
X0094200
Y0718400
Y0708400
Y0698400
Y0688400
Y0678400
Y0668400
Y0658400
Y0648400
X0154200Y0688400
Y0698400
X0164200
Y0688400
X0174200Y0688400
Y0698400
X0184200Y0698400
Y0688400
X0194200
Y0698400
X0264200
X0274200
Y0688400
Y0678400
Y0668400
Y0658400
Y0648400
Y0638400
X0264200
Y0648400
Y0658400
Y0668400
Y0678400
Y0688400
Y0708400
X0274200
Y0718400
Y0728400
X0264200
Y0718400
X0304200
Y0728400
Y0708400
Y0698400
Y0688400
Y0678400
Y0668400
Y0658400
Y0648400
Y0638400
Y0628400
X0314200
Y0638400
Y0648400
Y0658400
Y0668400
Y0678400
Y0688400
Y0698400
Y0708400
Y0718400
Y0728400
T09
X0174200Y0528400
X0184200
Y0538400
X0174200
X0204200
Y0528400
X0214200
Y0538400
T10
X0159669Y0271195
X0095653
T11
X0102661Y0257691
X0152661
T12
X0264672Y0253022
X0273728
X0078822Y0748872
Y0757928
X0309578
Y0748872
X0256728Y0919778
X0247672
T13
X0083200Y0871900
X0087200Y0901900
X0079200
T14
X0309200Y0918400
X0079200
M30
